<?xml version="1.0" encoding="UTF-8" standalone="no"?>
<svg
   xmlns:dc="http://purl.org/dc/elements/1.1/"
   xmlns:cc="http://creativecommons.org/ns#"
   xmlns:rdf="http://www.w3.org/1999/02/22-rdf-syntax-ns#"
   xmlns:svg="http://www.w3.org/2000/svg"
   xmlns="http://www.w3.org/2000/svg"
   xmlns:sodipodi="http://sodipodi.sourceforge.net/DTD/sodipodi-0.dtd"
   xmlns:inkscape="http://www.inkscape.org/namespaces/inkscape"
   version="1.1"
   width="29.7002cm"
   height="21.0007cm"
   viewBox="0 0 116930 82680 "
   id="svg708"
   sodipodi:docname="kicad_pcb_V1_2-F.Paste.svg"
   inkscape:version="0.92.3 (2405546, 2018-03-11)">
  <metadata
     id="metadata714">
    <rdf:RDF>
      <cc:Work
         rdf:about="">
        <dc:format>image/svg+xml</dc:format>
        <dc:type
           rdf:resource="http://purl.org/dc/dcmitype/StillImage" />
        <dc:title>SVG Picture created as noname.kicad_pcb_V1_2-F.Paste.svg date 2019/02/09 14:54:13 </dc:title>
      </cc:Work>
    </rdf:RDF>
  </metadata>
  <defs
     id="defs712">
    <filter
       inkscape:label="Colorize"
       inkscape:menu="Color"
       inkscape:menu-tooltip="Light areas turn to black"
       style="color-interpolation-filters:sRGB"
       id="filter6118">
      <feColorMatrix
         type="luminanceToAlpha"
         result="result2"
         id="feColorMatrix6110" />
      <feComposite
         k4="0"
         k2="0"
         k1="0"
         in2="SourceGraphic"
         operator="arithmetic"
         in="result2"
         k3="2"
         result="result4"
         id="feComposite6112" />
      <feBlend
         in="result4"
         mode="multiply"
         result="result3"
         in2="result2"
         id="feBlend6114" />
      <feComposite
         in2="SourceGraphic"
         operator="in"
         in="result3"
         id="feComposite6116"
         result="fbSourceGraphic" />
      <feColorMatrix
         result="fbSourceGraphicAlpha"
         in="fbSourceGraphic"
         values="0 0 0 -1 0 0 0 0 -1 0 0 0 0 -1 0 0 0 0 1 0"
         id="feColorMatrix6120" />
      <feComposite
         k4="0"
         k3="0"
         in2="fbSourceGraphic"
         id="feComposite6122"
         operator="arithmetic"
         k1="0"
         k2="1"
         result="composite1"
         in="fbSourceGraphic" />
      <feColorMatrix
         id="feColorMatrix6124"
         in="composite1"
         values="1"
         type="saturate"
         result="colormatrix1" />
      <feFlood
         id="feFlood6126"
         flood-opacity="1"
         flood-color="rgb(0,0,0)"
         result="flood1" />
      <feBlend
         in2="colormatrix1"
         id="feBlend6128"
         in="flood1"
         mode="multiply"
         result="blend1" />
      <feBlend
         in2="blend1"
         id="feBlend6130"
         mode="screen"
         result="blend2" />
      <feColorMatrix
         id="feColorMatrix6132"
         in="blend2"
         values="1"
         type="saturate"
         result="colormatrix2" />
      <feComposite
         in2="fbSourceGraphic"
         id="feComposite6134"
         in="colormatrix2"
         operator="in"
         result="composite2" />
    </filter>
    <filter
       style="color-interpolation-filters:sRGB"
       inkscape:label="Colorize"
       id="filter6108">
      <feComposite
         k4="0"
         k3="0"
         in2="SourceGraphic"
         operator="arithmetic"
         k1="0"
         k2="1"
         result="composite1"
         id="feComposite6094" />
      <feColorMatrix
         in="composite1"
         values="1"
         type="saturate"
         result="colormatrix1"
         id="feColorMatrix6096" />
      <feFlood
         flood-opacity="1"
         flood-color="rgb(0,0,0)"
         result="flood1"
         id="feFlood6098" />
      <feBlend
         in="flood1"
         in2="colormatrix1"
         mode="multiply"
         result="blend1"
         id="feBlend6100" />
      <feBlend
         in2="blend1"
         mode="screen"
         result="blend2"
         id="feBlend6102" />
      <feColorMatrix
         in="blend2"
         values="1"
         type="saturate"
         result="colormatrix2"
         id="feColorMatrix6104" />
      <feComposite
         in="colormatrix2"
         in2="SourceGraphic"
         operator="in"
         result="composite2"
         id="feComposite6106" />
    </filter>
    <filter
       style="color-interpolation-filters:sRGB"
       inkscape:label="Colorize"
       id="filter6092">
      <feComposite
         k4="0"
         k3="0"
         in2="SourceGraphic"
         operator="arithmetic"
         k1="0"
         k2="1"
         result="composite1"
         id="feComposite6078" />
      <feColorMatrix
         in="composite1"
         values="1"
         type="saturate"
         result="colormatrix1"
         id="feColorMatrix6080" />
      <feFlood
         flood-opacity="1"
         flood-color="rgb(0,0,0)"
         result="flood1"
         id="feFlood6082" />
      <feBlend
         in="flood1"
         in2="colormatrix1"
         mode="multiply"
         result="blend1"
         id="feBlend6084" />
      <feBlend
         in2="blend1"
         mode="screen"
         result="blend2"
         id="feBlend6086" />
      <feColorMatrix
         in="blend2"
         values="1"
         type="saturate"
         result="colormatrix2"
         id="feColorMatrix6088" />
      <feComposite
         in="colormatrix2"
         in2="SourceGraphic"
         operator="in"
         result="composite2"
         id="feComposite6090" />
    </filter>
    <filter
       style="color-interpolation-filters:sRGB"
       inkscape:label="Colorize"
       id="filter6076">
      <feComposite
         k4="0"
         k3="0"
         in2="SourceGraphic"
         operator="arithmetic"
         k1="0"
         k2="1"
         result="composite1"
         id="feComposite6062" />
      <feColorMatrix
         in="composite1"
         values="1"
         type="saturate"
         result="colormatrix1"
         id="feColorMatrix6064" />
      <feFlood
         flood-opacity="1"
         flood-color="rgb(0,0,0)"
         result="flood1"
         id="feFlood6066" />
      <feBlend
         in="flood1"
         in2="colormatrix1"
         mode="multiply"
         result="blend1"
         id="feBlend6068" />
      <feBlend
         in2="blend1"
         mode="screen"
         result="blend2"
         id="feBlend6070" />
      <feColorMatrix
         in="blend2"
         values="1"
         type="saturate"
         result="colormatrix2"
         id="feColorMatrix6072" />
      <feComposite
         in="colormatrix2"
         in2="SourceGraphic"
         operator="in"
         result="composite2"
         id="feComposite6074" />
    </filter>
    <filter
       style="color-interpolation-filters:sRGB"
       inkscape:label="Colorize"
       id="filter6060">
      <feComposite
         k4="0"
         k3="0"
         in2="SourceGraphic"
         operator="arithmetic"
         k1="0"
         k2="1"
         result="composite1"
         id="feComposite6046" />
      <feColorMatrix
         in="composite1"
         values="1"
         type="saturate"
         result="colormatrix1"
         id="feColorMatrix6048" />
      <feFlood
         flood-opacity="1"
         flood-color="rgb(0,0,0)"
         result="flood1"
         id="feFlood6050" />
      <feBlend
         in="flood1"
         in2="colormatrix1"
         mode="multiply"
         result="blend1"
         id="feBlend6052" />
      <feBlend
         in2="blend1"
         mode="screen"
         result="blend2"
         id="feBlend6054" />
      <feColorMatrix
         in="blend2"
         values="1"
         type="saturate"
         result="colormatrix2"
         id="feColorMatrix6056" />
      <feComposite
         in="colormatrix2"
         in2="SourceGraphic"
         operator="in"
         result="composite2"
         id="feComposite6058" />
    </filter>
    <filter
       style="color-interpolation-filters:sRGB"
       inkscape:label="Colorize"
       id="filter5548">
      <feComposite
         k4="0"
         k3="0"
         in2="SourceGraphic"
         operator="arithmetic"
         k1="0"
         k2="1"
         result="composite1"
         id="feComposite5534" />
      <feColorMatrix
         in="composite1"
         values="1"
         type="saturate"
         result="colormatrix1"
         id="feColorMatrix5536" />
      <feFlood
         flood-opacity="1"
         flood-color="rgb(4,67,0)"
         result="flood1"
         id="feFlood5538" />
      <feBlend
         in="flood1"
         in2="colormatrix1"
         mode="multiply"
         result="blend1"
         id="feBlend5540" />
      <feBlend
         in2="blend1"
         mode="screen"
         result="blend2"
         id="feBlend5542" />
      <feColorMatrix
         in="blend2"
         values="1"
         type="saturate"
         result="colormatrix2"
         id="feColorMatrix5544" />
      <feComposite
         in="colormatrix2"
         in2="SourceGraphic"
         operator="in"
         result="composite2"
         id="feComposite5546" />
    </filter>
    <filter
       style="color-interpolation-filters:sRGB"
       inkscape:label="Colorize"
       id="filter5564">
      <feComposite
         k4="0"
         k3="0"
         in2="SourceGraphic"
         operator="arithmetic"
         k1="0"
         k2="1"
         result="composite1"
         id="feComposite5550" />
      <feColorMatrix
         in="composite1"
         values="1"
         type="saturate"
         result="colormatrix1"
         id="feColorMatrix5552" />
      <feFlood
         flood-opacity="1"
         flood-color="rgb(4,67,0)"
         result="flood1"
         id="feFlood5554" />
      <feBlend
         in="flood1"
         in2="colormatrix1"
         mode="multiply"
         result="blend1"
         id="feBlend5556" />
      <feBlend
         in2="blend1"
         mode="screen"
         result="blend2"
         id="feBlend5558" />
      <feColorMatrix
         in="blend2"
         values="1"
         type="saturate"
         result="colormatrix2"
         id="feColorMatrix5560" />
      <feComposite
         in="colormatrix2"
         in2="SourceGraphic"
         operator="in"
         result="composite2"
         id="feComposite5562" />
    </filter>
    <filter
       style="color-interpolation-filters:sRGB"
       inkscape:label="Colorize"
       id="filter5580">
      <feComposite
         k4="0"
         k3="0"
         in2="SourceGraphic"
         operator="arithmetic"
         k1="0"
         k2="1"
         result="composite1"
         id="feComposite5566" />
      <feColorMatrix
         in="composite1"
         values="1"
         type="saturate"
         result="colormatrix1"
         id="feColorMatrix5568" />
      <feFlood
         flood-opacity="1"
         flood-color="rgb(4,67,0)"
         result="flood1"
         id="feFlood5570" />
      <feBlend
         in="flood1"
         in2="colormatrix1"
         mode="multiply"
         result="blend1"
         id="feBlend5572" />
      <feBlend
         in2="blend1"
         mode="screen"
         result="blend2"
         id="feBlend5574" />
      <feColorMatrix
         in="blend2"
         values="1"
         type="saturate"
         result="colormatrix2"
         id="feColorMatrix5576" />
      <feComposite
         in="colormatrix2"
         in2="SourceGraphic"
         operator="in"
         result="composite2"
         id="feComposite5578" />
    </filter>
    <filter
       style="color-interpolation-filters:sRGB"
       inkscape:label="Colorize"
       id="filter5596">
      <feComposite
         k4="0"
         k3="0"
         in2="SourceGraphic"
         operator="arithmetic"
         k1="0"
         k2="1"
         result="composite1"
         id="feComposite5582" />
      <feColorMatrix
         in="composite1"
         values="1"
         type="saturate"
         result="colormatrix1"
         id="feColorMatrix5584" />
      <feFlood
         flood-opacity="1"
         flood-color="rgb(4,67,0)"
         result="flood1"
         id="feFlood5586" />
      <feBlend
         in="flood1"
         in2="colormatrix1"
         mode="multiply"
         result="blend1"
         id="feBlend5588" />
      <feBlend
         in2="blend1"
         mode="screen"
         result="blend2"
         id="feBlend5590" />
      <feColorMatrix
         in="blend2"
         values="1"
         type="saturate"
         result="colormatrix2"
         id="feColorMatrix5592" />
      <feComposite
         in="colormatrix2"
         in2="SourceGraphic"
         operator="in"
         result="composite2"
         id="feComposite5594" />
    </filter>
    <filter
       style="color-interpolation-filters:sRGB"
       inkscape:label="Colorize"
       id="filter5612">
      <feComposite
         k4="0"
         k3="0"
         in2="SourceGraphic"
         operator="arithmetic"
         k1="0"
         k2="1"
         result="composite1"
         id="feComposite5598" />
      <feColorMatrix
         in="composite1"
         values="1"
         type="saturate"
         result="colormatrix1"
         id="feColorMatrix5600" />
      <feFlood
         flood-opacity="1"
         flood-color="rgb(4,67,0)"
         result="flood1"
         id="feFlood5602" />
      <feBlend
         in="flood1"
         in2="colormatrix1"
         mode="multiply"
         result="blend1"
         id="feBlend5604" />
      <feBlend
         in2="blend1"
         mode="screen"
         result="blend2"
         id="feBlend5606" />
      <feColorMatrix
         in="blend2"
         values="1"
         type="saturate"
         result="colormatrix2"
         id="feColorMatrix5608" />
      <feComposite
         in="colormatrix2"
         in2="SourceGraphic"
         operator="in"
         result="composite2"
         id="feComposite5610" />
    </filter>
    <filter
       style="color-interpolation-filters:sRGB"
       inkscape:label="Colorize"
       id="filter5628">
      <feComposite
         k4="0"
         k3="0"
         in2="SourceGraphic"
         operator="arithmetic"
         k1="0"
         k2="1"
         result="composite1"
         id="feComposite5614" />
      <feColorMatrix
         in="composite1"
         values="1"
         type="saturate"
         result="colormatrix1"
         id="feColorMatrix5616" />
      <feFlood
         flood-opacity="1"
         flood-color="rgb(4,67,0)"
         result="flood1"
         id="feFlood5618" />
      <feBlend
         in="flood1"
         in2="colormatrix1"
         mode="multiply"
         result="blend1"
         id="feBlend5620" />
      <feBlend
         in2="blend1"
         mode="screen"
         result="blend2"
         id="feBlend5622" />
      <feColorMatrix
         in="blend2"
         values="1"
         type="saturate"
         result="colormatrix2"
         id="feColorMatrix5624" />
      <feComposite
         in="colormatrix2"
         in2="SourceGraphic"
         operator="in"
         result="composite2"
         id="feComposite5626" />
    </filter>
    <filter
       style="color-interpolation-filters:sRGB"
       inkscape:label="Colorize"
       id="filter5644">
      <feComposite
         k4="0"
         k3="0"
         in2="SourceGraphic"
         operator="arithmetic"
         k1="0"
         k2="1"
         result="composite1"
         id="feComposite5630" />
      <feColorMatrix
         in="composite1"
         values="1"
         type="saturate"
         result="colormatrix1"
         id="feColorMatrix5632" />
      <feFlood
         flood-opacity="1"
         flood-color="rgb(4,67,0)"
         result="flood1"
         id="feFlood5634" />
      <feBlend
         in="flood1"
         in2="colormatrix1"
         mode="multiply"
         result="blend1"
         id="feBlend5636" />
      <feBlend
         in2="blend1"
         mode="screen"
         result="blend2"
         id="feBlend5638" />
      <feColorMatrix
         in="blend2"
         values="1"
         type="saturate"
         result="colormatrix2"
         id="feColorMatrix5640" />
      <feComposite
         in="colormatrix2"
         in2="SourceGraphic"
         operator="in"
         result="composite2"
         id="feComposite5642" />
    </filter>
    <filter
       style="color-interpolation-filters:sRGB"
       inkscape:label="Colorize"
       id="filter5660">
      <feComposite
         k4="0"
         k3="0"
         in2="SourceGraphic"
         operator="arithmetic"
         k1="0"
         k2="1"
         result="composite1"
         id="feComposite5646" />
      <feColorMatrix
         in="composite1"
         values="1"
         type="saturate"
         result="colormatrix1"
         id="feColorMatrix5648" />
      <feFlood
         flood-opacity="1"
         flood-color="rgb(4,67,0)"
         result="flood1"
         id="feFlood5650" />
      <feBlend
         in="flood1"
         in2="colormatrix1"
         mode="multiply"
         result="blend1"
         id="feBlend5652" />
      <feBlend
         in2="blend1"
         mode="screen"
         result="blend2"
         id="feBlend5654" />
      <feColorMatrix
         in="blend2"
         values="1"
         type="saturate"
         result="colormatrix2"
         id="feColorMatrix5656" />
      <feComposite
         in="colormatrix2"
         in2="SourceGraphic"
         operator="in"
         result="composite2"
         id="feComposite5658" />
    </filter>
    <filter
       style="color-interpolation-filters:sRGB"
       inkscape:label="Colorize"
       id="filter5676">
      <feComposite
         k4="0"
         k3="0"
         in2="SourceGraphic"
         operator="arithmetic"
         k1="0"
         k2="1"
         result="composite1"
         id="feComposite5662" />
      <feColorMatrix
         in="composite1"
         values="1"
         type="saturate"
         result="colormatrix1"
         id="feColorMatrix5664" />
      <feFlood
         flood-opacity="1"
         flood-color="rgb(4,67,0)"
         result="flood1"
         id="feFlood5666" />
      <feBlend
         in="flood1"
         in2="colormatrix1"
         mode="multiply"
         result="blend1"
         id="feBlend5668" />
      <feBlend
         in2="blend1"
         mode="screen"
         result="blend2"
         id="feBlend5670" />
      <feColorMatrix
         in="blend2"
         values="1"
         type="saturate"
         result="colormatrix2"
         id="feColorMatrix5672" />
      <feComposite
         in="colormatrix2"
         in2="SourceGraphic"
         operator="in"
         result="composite2"
         id="feComposite5674" />
    </filter>
    <filter
       style="color-interpolation-filters:sRGB"
       inkscape:label="Colorize"
       id="filter5692">
      <feComposite
         k4="0"
         k3="0"
         in2="SourceGraphic"
         operator="arithmetic"
         k1="0"
         k2="1"
         result="composite1"
         id="feComposite5678" />
      <feColorMatrix
         in="composite1"
         values="1"
         type="saturate"
         result="colormatrix1"
         id="feColorMatrix5680" />
      <feFlood
         flood-opacity="1"
         flood-color="rgb(4,67,0)"
         result="flood1"
         id="feFlood5682" />
      <feBlend
         in="flood1"
         in2="colormatrix1"
         mode="multiply"
         result="blend1"
         id="feBlend5684" />
      <feBlend
         in2="blend1"
         mode="screen"
         result="blend2"
         id="feBlend5686" />
      <feColorMatrix
         in="blend2"
         values="1"
         type="saturate"
         result="colormatrix2"
         id="feColorMatrix5688" />
      <feComposite
         in="colormatrix2"
         in2="SourceGraphic"
         operator="in"
         result="composite2"
         id="feComposite5690" />
    </filter>
    <filter
       style="color-interpolation-filters:sRGB"
       inkscape:label="Colorize"
       id="filter5708">
      <feComposite
         k4="0"
         k3="0"
         in2="SourceGraphic"
         operator="arithmetic"
         k1="0"
         k2="1"
         result="composite1"
         id="feComposite5694" />
      <feColorMatrix
         in="composite1"
         values="1"
         type="saturate"
         result="colormatrix1"
         id="feColorMatrix5696" />
      <feFlood
         flood-opacity="1"
         flood-color="rgb(4,67,0)"
         result="flood1"
         id="feFlood5698" />
      <feBlend
         in="flood1"
         in2="colormatrix1"
         mode="multiply"
         result="blend1"
         id="feBlend5700" />
      <feBlend
         in2="blend1"
         mode="screen"
         result="blend2"
         id="feBlend5702" />
      <feColorMatrix
         in="blend2"
         values="1"
         type="saturate"
         result="colormatrix2"
         id="feColorMatrix5704" />
      <feComposite
         in="colormatrix2"
         in2="SourceGraphic"
         operator="in"
         result="composite2"
         id="feComposite5706" />
    </filter>
    <filter
       style="color-interpolation-filters:sRGB"
       inkscape:label="Colorize"
       id="filter5724">
      <feComposite
         k4="0"
         k3="0"
         in2="SourceGraphic"
         operator="arithmetic"
         k1="0"
         k2="1"
         result="composite1"
         id="feComposite5710" />
      <feColorMatrix
         in="composite1"
         values="1"
         type="saturate"
         result="colormatrix1"
         id="feColorMatrix5712" />
      <feFlood
         flood-opacity="1"
         flood-color="rgb(4,67,0)"
         result="flood1"
         id="feFlood5714" />
      <feBlend
         in="flood1"
         in2="colormatrix1"
         mode="multiply"
         result="blend1"
         id="feBlend5716" />
      <feBlend
         in2="blend1"
         mode="screen"
         result="blend2"
         id="feBlend5718" />
      <feColorMatrix
         in="blend2"
         values="1"
         type="saturate"
         result="colormatrix2"
         id="feColorMatrix5720" />
      <feComposite
         in="colormatrix2"
         in2="SourceGraphic"
         operator="in"
         result="composite2"
         id="feComposite5722" />
    </filter>
    <filter
       style="color-interpolation-filters:sRGB"
       inkscape:label="Colorize"
       id="filter5740">
      <feComposite
         k4="0"
         k3="0"
         in2="SourceGraphic"
         operator="arithmetic"
         k1="0"
         k2="1"
         result="composite1"
         id="feComposite5726" />
      <feColorMatrix
         in="composite1"
         values="1"
         type="saturate"
         result="colormatrix1"
         id="feColorMatrix5728" />
      <feFlood
         flood-opacity="1"
         flood-color="rgb(4,67,0)"
         result="flood1"
         id="feFlood5730" />
      <feBlend
         in="flood1"
         in2="colormatrix1"
         mode="multiply"
         result="blend1"
         id="feBlend5732" />
      <feBlend
         in2="blend1"
         mode="screen"
         result="blend2"
         id="feBlend5734" />
      <feColorMatrix
         in="blend2"
         values="1"
         type="saturate"
         result="colormatrix2"
         id="feColorMatrix5736" />
      <feComposite
         in="colormatrix2"
         in2="SourceGraphic"
         operator="in"
         result="composite2"
         id="feComposite5738" />
    </filter>
    <filter
       style="color-interpolation-filters:sRGB"
       inkscape:label="Colorize"
       id="filter5756">
      <feComposite
         k4="0"
         k3="0"
         in2="SourceGraphic"
         operator="arithmetic"
         k1="0"
         k2="1"
         result="composite1"
         id="feComposite5742" />
      <feColorMatrix
         in="composite1"
         values="1"
         type="saturate"
         result="colormatrix1"
         id="feColorMatrix5744" />
      <feFlood
         flood-opacity="1"
         flood-color="rgb(4,67,0)"
         result="flood1"
         id="feFlood5746" />
      <feBlend
         in="flood1"
         in2="colormatrix1"
         mode="multiply"
         result="blend1"
         id="feBlend5748" />
      <feBlend
         in2="blend1"
         mode="screen"
         result="blend2"
         id="feBlend5750" />
      <feColorMatrix
         in="blend2"
         values="1"
         type="saturate"
         result="colormatrix2"
         id="feColorMatrix5752" />
      <feComposite
         in="colormatrix2"
         in2="SourceGraphic"
         operator="in"
         result="composite2"
         id="feComposite5754" />
    </filter>
    <filter
       style="color-interpolation-filters:sRGB"
       inkscape:label="Colorize"
       id="filter5772">
      <feComposite
         k4="0"
         k3="0"
         in2="SourceGraphic"
         operator="arithmetic"
         k1="0"
         k2="1"
         result="composite1"
         id="feComposite5758" />
      <feColorMatrix
         in="composite1"
         values="1"
         type="saturate"
         result="colormatrix1"
         id="feColorMatrix5760" />
      <feFlood
         flood-opacity="1"
         flood-color="rgb(4,67,0)"
         result="flood1"
         id="feFlood5762" />
      <feBlend
         in="flood1"
         in2="colormatrix1"
         mode="multiply"
         result="blend1"
         id="feBlend5764" />
      <feBlend
         in2="blend1"
         mode="screen"
         result="blend2"
         id="feBlend5766" />
      <feColorMatrix
         in="blend2"
         values="1"
         type="saturate"
         result="colormatrix2"
         id="feColorMatrix5768" />
      <feComposite
         in="colormatrix2"
         in2="SourceGraphic"
         operator="in"
         result="composite2"
         id="feComposite5770" />
    </filter>
    <filter
       style="color-interpolation-filters:sRGB"
       inkscape:label="Colorize"
       id="filter5788">
      <feComposite
         k4="0"
         k3="0"
         in2="SourceGraphic"
         operator="arithmetic"
         k1="0"
         k2="1"
         result="composite1"
         id="feComposite5774" />
      <feColorMatrix
         in="composite1"
         values="1"
         type="saturate"
         result="colormatrix1"
         id="feColorMatrix5776" />
      <feFlood
         flood-opacity="1"
         flood-color="rgb(4,67,0)"
         result="flood1"
         id="feFlood5778" />
      <feBlend
         in="flood1"
         in2="colormatrix1"
         mode="multiply"
         result="blend1"
         id="feBlend5780" />
      <feBlend
         in2="blend1"
         mode="screen"
         result="blend2"
         id="feBlend5782" />
      <feColorMatrix
         in="blend2"
         values="1"
         type="saturate"
         result="colormatrix2"
         id="feColorMatrix5784" />
      <feComposite
         in="colormatrix2"
         in2="SourceGraphic"
         operator="in"
         result="composite2"
         id="feComposite5786" />
    </filter>
  </defs>
  <sodipodi:namedview
     pagecolor="#ffffff"
     bordercolor="#666666"
     borderopacity="1"
     objecttolerance="10"
     gridtolerance="10"
     guidetolerance="10"
     inkscape:pageopacity="0"
     inkscape:pageshadow="2"
     inkscape:window-width="1920"
     inkscape:window-height="1017"
     id="namedview710"
     showgrid="false"
     inkscape:snap-text-baseline="true"
     inkscape:zoom="2.7881034"
     inkscape:cx="150.82157"
     inkscape:cy="678.77231"
     inkscape:window-x="-8"
     inkscape:window-y="-8"
     inkscape:window-maximized="1"
     inkscape:current-layer="g8250"
     inkscape:snap-grids="true"
     showguides="true" />
  <title
     id="title2">SVG Picture created as noname.kicad_pcb_V1_2-F.Paste.svg date 2019/02/09 14:54:13 </title>
  <desc
     id="desc4">Picture generated by PCBNEW </desc>
  <g
     id="g924" />
  <g
     id="g8250"
     transform="translate(303.9979,158.01529)">
    <polyline
       id="polyline630"
       points="40863,21715 40863,22384 40548,22384 40548,21715 40863,21715 "
       style="fill:#840000;fill-opacity:1;fill-rule:evenodd;stroke:#000000;stroke-width:0;stroke-linecap:round;stroke-linejoin:round;stroke-opacity:1;filter:url(#filter6118)"
       transform="translate(-33014.16,-13054.238)" />
    <polyline
       id="polyline632"
       points="42201,21715 42201,22384 41886,22384 41886,21715 42201,21715 "
       style="fill:#840000;fill-opacity:1;fill-rule:evenodd;stroke:#000000;stroke-width:0;stroke-linecap:round;stroke-linejoin:round;stroke-opacity:1;filter:url(#filter6118)"
       transform="translate(-33014.16,-13054.238)" />
    <circle
       id="circle634"
       r="157.48"
       cy="11311.162"
       cx="10470.142"
       style="fill:#840000;fill-opacity:1;stroke:#000000;stroke-width:0;stroke-linecap:round;stroke-linejoin:round;stroke-opacity:1;filter:url(#filter6108)" />
    <circle
       style="fill:#840000;fill-opacity:1;stroke:#840000;stroke-width:0;stroke-linecap:round;stroke-linejoin:round;stroke-opacity:1;filter:url(#filter6092)"
       id="circle640"
       r="157.48"
       cy="11311.162"
       cx="9501.54" />
    <circle
       style="fill:#840000;fill-opacity:1;stroke:#840000;stroke-width:0;stroke-linecap:round;stroke-linejoin:round;stroke-opacity:1;filter:url(#filter6076)"
       id="circle646"
       r="157.48"
       cy="11980.361"
       cx="9501.54" />
    <circle
       style="fill:#840000;fill-opacity:1;stroke:#840000;stroke-width:0;stroke-linecap:round;stroke-linejoin:round;stroke-opacity:1;filter:url(#filter6060)"
       id="circle652"
       r="157.48"
       cy="11980.361"
       cx="10470.142" />
    <polyline
       id="polyline658"
       points="42818,21442 42581,21442 42581,20831 42818,20831 42818,21442 "
       style="fill:#840000;fill-opacity:1;fill-rule:evenodd;stroke:#000013;stroke-width:0;stroke-linecap:round;stroke-linejoin:round;stroke-opacity:0.96576694;filter:url(#filter5548)"
       transform="translate(-33014.16,-13054.238)" />
    <polyline
       id="polyline660"
       points="43318,21442 43081,21442 43081,20831 43318,20831 43318,21442 "
       style="fill:#840000;fill-opacity:1;fill-rule:evenodd;stroke:#000013;stroke-width:0;stroke-linecap:round;stroke-linejoin:round;stroke-opacity:0.96576694;filter:url(#filter5564)"
       transform="translate(-33014.16,-13054.238)" />
    <polyline
       id="polyline662"
       points="43818,21442 43581,21442 43581,20831 43818,20831 43818,21442 "
       style="fill:#840000;fill-opacity:1;fill-rule:evenodd;stroke:#000013;stroke-width:0;stroke-linecap:round;stroke-linejoin:round;stroke-opacity:0.96576694;filter:url(#filter5580)"
       transform="translate(-33014.16,-13054.238)" />
    <polyline
       id="polyline664"
       points="44318,21442 44081,21442 44081,20831 44318,20831 44318,21442 "
       style="fill:#840000;fill-opacity:1;fill-rule:evenodd;stroke:#000013;stroke-width:0;stroke-linecap:round;stroke-linejoin:round;stroke-opacity:0.96576694;filter:url(#filter5596)"
       transform="translate(-33014.16,-13054.238)" />
    <polyline
       id="polyline666"
       points="44318,23568 44081,23568 44081,22957 44318,22957 44318,23568 "
       style="fill:#840000;fill-opacity:1;fill-rule:evenodd;stroke:#000013;stroke-width:0;stroke-linecap:round;stroke-linejoin:round;stroke-opacity:0.96576694;filter:url(#filter5612)"
       transform="translate(-33014.16,-13054.238)" />
    <polyline
       id="polyline668"
       points="43818,23568 43581,23568 43581,22957 43818,22957 43818,23568 "
       style="fill:#840000;fill-opacity:1;fill-rule:evenodd;stroke:#000013;stroke-width:0;stroke-linecap:round;stroke-linejoin:round;stroke-opacity:0.96576694;filter:url(#filter5628)"
       transform="translate(-33014.16,-13054.238)" />
    <polyline
       id="polyline670"
       points="43318,23568 43081,23568 43081,22957 43318,22957 43318,23568 "
       style="fill:#840000;fill-opacity:1;fill-rule:evenodd;stroke:#000013;stroke-width:0;stroke-linecap:round;stroke-linejoin:round;stroke-opacity:0.96576694;filter:url(#filter5644)"
       transform="translate(-33014.16,-13054.238)" />
    <polyline
       id="polyline672"
       points="42818,23568 42581,23568 42581,22957 42818,22957 42818,23568 "
       style="fill:#840000;fill-opacity:1;fill-rule:evenodd;stroke:#000013;stroke-width:0;stroke-linecap:round;stroke-linejoin:round;stroke-opacity:0.96576694;filter:url(#filter5660)"
       transform="translate(-33014.16,-13054.238)" />
    <polyline
       id="polyline674"
       points="45191,24624 45200,24626 45210,24628 45219,24631 45227,24636 45236,24640 45243,24646 45251,24653 45257,24660 45263,24668 45268,24676 45272,24685 45275,24694 45278,24703 45279,24713 45279,24722 45279,25077 45279,25086 45278,25096 45275,25105 45272,25114 45268,25123 45263,25131 45257,25139 45251,25146 45243,25153 45236,25159 45227,25163 45219,25168 45210,25171 45200,25173 45191,25175 45181,25175 44925,25175 44915,25175 44906,25173 44897,25171 44887,25168 44879,25163 44870,25159 44863,25153 44855,25146 44849,25139 44843,25131 44838,25123 44834,25114 44831,25105 44829,25096 44827,25086 44827,25077 44827,24722 44827,24713 44829,24703 44831,24694 44834,24685 44838,24676 44843,24668 44849,24660 44855,24653 44863,24646 44870,24640 44879,24636 44887,24631 44897,24628 44906,24626 44915,24624 44925,24624 45181,24624 45191,24624 "
       style="fill:#840000;fill-opacity:1;fill-rule:evenodd;stroke:#000000;stroke-width:0;stroke-linecap:round;stroke-linejoin:round;stroke-opacity:0.96576694;filter:url(#filter5676)"
       transform="translate(-33014.16,-13054.238)" />
    <polyline
       id="polyline676"
       points="44384,24624 44393,24626 44402,24628 44412,24631 44420,24636 44429,24640 44436,24646 44444,24653 44450,24660 44456,24668 44461,24676 44465,24685 44468,24694 44470,24703 44472,24713 44472,24722 44472,25077 44472,25086 44470,25096 44468,25105 44465,25114 44461,25123 44456,25131 44450,25139 44444,25146 44436,25153 44429,25159 44420,25163 44412,25168 44402,25171 44393,25173 44384,25175 44374,25175 44118,25175 44108,25175 44099,25173 44089,25171 44080,25168 44072,25163 44063,25159 44056,25153 44048,25146 44042,25139 44036,25131 44031,25123 44027,25114 44024,25105 44021,25096 44020,25086 44020,25077 44020,24722 44020,24713 44021,24703 44024,24694 44027,24685 44031,24676 44036,24668 44042,24660 44048,24653 44056,24646 44063,24640 44072,24636 44080,24631 44089,24628 44099,24626 44108,24624 44118,24624 44374,24624 44384,24624 "
       style="fill:#840000;fill-opacity:1;fill-rule:evenodd;stroke:#000013;stroke-width:0;stroke-linecap:round;stroke-linejoin:round;stroke-opacity:0.96576694;filter:url(#filter5692)"
       transform="translate(-33014.16,-13054.238)" />
    <polyline
       id="polyline678"
       points="41691,24624 41700,24626 41710,24628 41719,24631 41727,24636 41736,24640 41743,24646 41751,24653 41757,24660 41763,24668 41768,24676 41772,24685 41775,24694 41778,24703 41779,24713 41779,24722 41779,25077 41779,25086 41778,25096 41775,25105 41772,25114 41768,25123 41763,25131 41757,25139 41751,25146 41743,25153 41736,25159 41727,25163 41719,25168 41710,25171 41700,25173 41691,25175 41681,25175 41425,25175 41415,25175 41406,25173 41397,25171 41387,25168 41379,25163 41370,25159 41363,25153 41355,25146 41349,25139 41343,25131 41338,25123 41334,25114 41331,25105 41329,25096 41327,25086 41327,25077 41327,24722 41327,24713 41329,24703 41331,24694 41334,24685 41338,24676 41343,24668 41349,24660 41355,24653 41363,24646 41370,24640 41379,24636 41387,24631 41397,24628 41406,24626 41415,24624 41425,24624 41681,24624 41691,24624 "
       style="fill:#840000;fill-opacity:1;fill-rule:evenodd;stroke:#000013;stroke-width:0;stroke-linecap:round;stroke-linejoin:round;stroke-opacity:0.96576694;filter:url(#filter5708)"
       transform="translate(-33014.16,-13054.238)" />
    <polyline
       id="polyline680"
       points="40884,24624 40893,24626 40902,24628 40912,24631 40920,24636 40929,24640 40936,24646 40944,24653 40950,24660 40956,24668 40961,24676 40965,24685 40968,24694 40970,24703 40972,24713 40972,24722 40972,25077 40972,25086 40970,25096 40968,25105 40965,25114 40961,25123 40956,25131 40950,25139 40944,25146 40936,25153 40929,25159 40920,25163 40912,25168 40902,25171 40893,25173 40884,25175 40874,25175 40618,25175 40608,25175 40599,25173 40589,25171 40580,25168 40572,25163 40563,25159 40556,25153 40548,25146 40542,25139 40536,25131 40531,25123 40527,25114 40524,25105 40521,25096 40520,25086 40520,25077 40520,24722 40520,24713 40521,24703 40524,24694 40527,24685 40531,24676 40536,24668 40542,24660 40548,24653 40556,24646 40563,24640 40572,24636 40580,24631 40589,24628 40599,24626 40608,24624 40618,24624 40874,24624 40884,24624 "
       style="fill:#840000;fill-opacity:1;fill-rule:evenodd;stroke:#000013;stroke-width:0;stroke-linecap:round;stroke-linejoin:round;stroke-opacity:0.96576694;filter:url(#filter5724)"
       transform="translate(-33014.16,-13054.238)" />
    <polyline
       id="polyline682"
       points="41334,20824 41343,20826 41352,20828 41362,20831 41370,20836 41379,20840 41386,20846 41394,20853 41400,20860 41406,20868 41411,20876 41415,20885 41418,20894 41420,20903 41422,20913 41422,20922 41422,21277 41422,21286 41420,21296 41418,21305 41415,21314 41411,21323 41406,21331 41400,21339 41394,21346 41386,21353 41379,21359 41370,21363 41362,21368 41352,21371 41343,21373 41334,21375 41324,21375 41068,21375 41058,21375 41049,21373 41039,21371 41030,21368 41022,21363 41013,21359 41006,21353 40998,21346 40992,21339 40986,21331 40981,21323 40977,21314 40974,21305 40971,21296 40970,21286 40970,21277 40970,20922 40970,20913 40971,20903 40974,20894 40977,20885 40981,20876 40986,20868 40992,20860 40998,20853 41006,20846 41013,20840 41022,20836 41030,20831 41039,20828 41049,20826 41058,20824 41068,20824 41324,20824 41334,20824 "
       style="fill:#840000;fill-opacity:1;fill-rule:evenodd;stroke:#000013;stroke-width:0;stroke-linecap:round;stroke-linejoin:round;stroke-opacity:0.96576694;filter:url(#filter5740)"
       transform="translate(-33014.16,-13054.238)" />
    <polyline
       id="polyline684"
       points="42141,20824 42150,20826 42160,20828 42169,20831 42177,20836 42186,20840 42193,20846 42201,20853 42207,20860 42213,20868 42218,20876 42222,20885 42225,20894 42228,20903 42229,20913 42229,20922 42229,21277 42229,21286 42228,21296 42225,21305 42222,21314 42218,21323 42213,21331 42207,21339 42201,21346 42193,21353 42186,21359 42177,21363 42169,21368 42160,21371 42150,21373 42141,21375 42131,21375 41875,21375 41865,21375 41856,21373 41847,21371 41837,21368 41829,21363 41820,21359 41813,21353 41805,21346 41799,21339 41793,21331 41788,21323 41784,21314 41781,21305 41779,21296 41777,21286 41777,21277 41777,20922 41777,20913 41779,20903 41781,20894 41784,20885 41788,20876 41793,20868 41799,20860 41805,20853 41813,20846 41820,20840 41829,20836 41837,20831 41847,20828 41856,20826 41865,20824 41875,20824 42131,20824 42141,20824 "
       style="fill:#840000;fill-opacity:1;fill-rule:evenodd;stroke:#000013;stroke-width:0;stroke-linecap:round;stroke-linejoin:round;stroke-opacity:0.96576694;filter:url(#filter5756)"
       transform="translate(-33014.16,-13054.238)" />
    <polyline
       id="polyline686"
       points="40884,23774 40893,23776 40902,23778 40912,23781 40920,23786 40929,23790 40936,23796 40944,23803 40950,23810 40956,23818 40961,23826 40965,23835 40968,23844 40970,23853 40972,23863 40972,23872 40972,24227 40972,24236 40970,24246 40968,24255 40965,24264 40961,24273 40956,24281 40950,24289 40944,24296 40936,24303 40929,24309 40920,24313 40912,24318 40902,24321 40893,24323 40884,24325 40874,24325 40618,24325 40608,24325 40599,24323 40589,24321 40580,24318 40572,24313 40563,24309 40556,24303 40548,24296 40542,24289 40536,24281 40531,24273 40527,24264 40524,24255 40521,24246 40520,24236 40520,24227 40520,23872 40520,23863 40521,23853 40524,23844 40527,23835 40531,23826 40536,23818 40542,23810 40548,23803 40556,23796 40563,23790 40572,23786 40580,23781 40589,23778 40599,23776 40608,23774 40618,23774 40874,23774 40884,23774 "
       style="fill:#840000;fill-opacity:1;fill-rule:evenodd;stroke:#000013;stroke-width:0;stroke-linecap:round;stroke-linejoin:round;stroke-opacity:0.96576694;filter:url(#filter5772)"
       transform="translate(-33014.16,-13054.238)" />
    <polyline
       id="polyline688"
       points="41691,23774 41700,23776 41710,23778 41719,23781 41727,23786 41736,23790 41743,23796 41751,23803 41757,23810 41763,23818 41768,23826 41772,23835 41775,23844 41778,23853 41779,23863 41779,23872 41779,24227 41779,24236 41778,24246 41775,24255 41772,24264 41768,24273 41763,24281 41757,24289 41751,24296 41743,24303 41736,24309 41727,24313 41719,24318 41710,24321 41700,24323 41691,24325 41681,24325 41425,24325 41415,24325 41406,24323 41397,24321 41387,24318 41379,24313 41370,24309 41363,24303 41355,24296 41349,24289 41343,24281 41338,24273 41334,24264 41331,24255 41329,24246 41327,24236 41327,24227 41327,23872 41327,23863 41329,23853 41331,23844 41334,23835 41338,23826 41343,23818 41349,23810 41355,23803 41363,23796 41370,23790 41379,23786 41387,23781 41397,23778 41406,23776 41415,23774 41425,23774 41681,23774 41691,23774 "
       style="fill:#840000;fill-opacity:1;fill-rule:evenodd;stroke:#000013;stroke-width:0;stroke-linecap:round;stroke-linejoin:round;stroke-opacity:0.96576694;filter:url(#filter5788)"
       transform="translate(-33014.16,-13054.238)" />
    <rect
       id="rect222"
       width="19562.746"
       height="19562.746"
       x="-216.53136"
       y="-104.61207"
       style="fill:none;fill-opacity:1;stroke:#000000;stroke-width:122.30865479;stroke-miterlimit:4;stroke-dasharray:none;stroke-opacity:1" />
  </g>
</svg>
