G04 #@! TF.GenerationSoftware,KiCad,Pcbnew,(5.0.1)-4*
G04 #@! TF.CreationDate,2019-02-09T15:25:37-05:00*
G04 #@! TF.ProjectId,noname.kicad_pcb_V1_2,6E6F6E616D652E6B696361645F706362,rev?*
G04 #@! TF.SameCoordinates,Original*
G04 #@! TF.FileFunction,Soldermask,Bot*
G04 #@! TF.FilePolarity,Negative*
%FSLAX46Y46*%
G04 Gerber Fmt 4.6, Leading zero omitted, Abs format (unit mm)*
G04 Created by KiCad (PCBNEW (5.0.1)-4) date 2/9/2019 3:25:37 PM*
%MOMM*%
%LPD*%
G01*
G04 APERTURE LIST*
%ADD10C,0.100000*%
G04 APERTURE END LIST*
D10*
G36*
X101357800Y-61225800D02*
X99556200Y-61225800D01*
X99556200Y-59424200D01*
X101357800Y-59424200D01*
X101357800Y-61225800D01*
X101357800Y-61225800D01*
G37*
G36*
X115912362Y-59428545D02*
X116000588Y-59437234D01*
X116113789Y-59471573D01*
X116170390Y-59488743D01*
X116308980Y-59562822D01*
X116326879Y-59572389D01*
X116362609Y-59601712D01*
X116464044Y-59684956D01*
X116547288Y-59786391D01*
X116576611Y-59822121D01*
X116576612Y-59822123D01*
X116660257Y-59978610D01*
X116660257Y-59978611D01*
X116711766Y-60148412D01*
X116729158Y-60325000D01*
X116711766Y-60501588D01*
X116677427Y-60614789D01*
X116660257Y-60671390D01*
X116586178Y-60809980D01*
X116576611Y-60827879D01*
X116547288Y-60863609D01*
X116464044Y-60965044D01*
X116362609Y-61048288D01*
X116326879Y-61077611D01*
X116326877Y-61077612D01*
X116170390Y-61161257D01*
X116113789Y-61178427D01*
X116000588Y-61212766D01*
X115912362Y-61221455D01*
X115868250Y-61225800D01*
X115779750Y-61225800D01*
X115735638Y-61221455D01*
X115647412Y-61212766D01*
X115534211Y-61178427D01*
X115477610Y-61161257D01*
X115321123Y-61077612D01*
X115321121Y-61077611D01*
X115285391Y-61048288D01*
X115183956Y-60965044D01*
X115100712Y-60863609D01*
X115071389Y-60827879D01*
X115061822Y-60809980D01*
X114987743Y-60671390D01*
X114970573Y-60614789D01*
X114936234Y-60501588D01*
X114918842Y-60325000D01*
X114936234Y-60148412D01*
X114987743Y-59978611D01*
X114987743Y-59978610D01*
X115071388Y-59822123D01*
X115071389Y-59822121D01*
X115100712Y-59786391D01*
X115183956Y-59684956D01*
X115285391Y-59601712D01*
X115321121Y-59572389D01*
X115339020Y-59562822D01*
X115477610Y-59488743D01*
X115534211Y-59471573D01*
X115647412Y-59437234D01*
X115735638Y-59428545D01*
X115779750Y-59424200D01*
X115868250Y-59424200D01*
X115912362Y-59428545D01*
X115912362Y-59428545D01*
G37*
G36*
X104934280Y-59246240D02*
X103532680Y-59246240D01*
X103532680Y-55744640D01*
X104934280Y-55744640D01*
X104934280Y-59246240D01*
X104934280Y-59246240D01*
G37*
G36*
X113634280Y-59246240D02*
X112232680Y-59246240D01*
X112232680Y-55744640D01*
X113634280Y-55744640D01*
X113634280Y-59246240D01*
X113634280Y-59246240D01*
G37*
G36*
X100545362Y-56888545D02*
X100633588Y-56897234D01*
X100746789Y-56931573D01*
X100803390Y-56948743D01*
X100941980Y-57022822D01*
X100959879Y-57032389D01*
X100995609Y-57061712D01*
X101097044Y-57144956D01*
X101180288Y-57246391D01*
X101209611Y-57282121D01*
X101209612Y-57282123D01*
X101293257Y-57438610D01*
X101293257Y-57438611D01*
X101344766Y-57608412D01*
X101362158Y-57785000D01*
X101344766Y-57961588D01*
X101310427Y-58074789D01*
X101293257Y-58131390D01*
X101219178Y-58269980D01*
X101209611Y-58287879D01*
X101180288Y-58323609D01*
X101097044Y-58425044D01*
X100995609Y-58508288D01*
X100959879Y-58537611D01*
X100959877Y-58537612D01*
X100803390Y-58621257D01*
X100746789Y-58638427D01*
X100633588Y-58672766D01*
X100545362Y-58681455D01*
X100501250Y-58685800D01*
X100412750Y-58685800D01*
X100368638Y-58681455D01*
X100280412Y-58672766D01*
X100167211Y-58638427D01*
X100110610Y-58621257D01*
X99954123Y-58537612D01*
X99954121Y-58537611D01*
X99918391Y-58508288D01*
X99816956Y-58425044D01*
X99733712Y-58323609D01*
X99704389Y-58287879D01*
X99694822Y-58269980D01*
X99620743Y-58131390D01*
X99603573Y-58074789D01*
X99569234Y-57961588D01*
X99551842Y-57785000D01*
X99569234Y-57608412D01*
X99620743Y-57438611D01*
X99620743Y-57438610D01*
X99704388Y-57282123D01*
X99704389Y-57282121D01*
X99733712Y-57246391D01*
X99816956Y-57144956D01*
X99918391Y-57061712D01*
X99954121Y-57032389D01*
X99972020Y-57022822D01*
X100110610Y-56948743D01*
X100167211Y-56931573D01*
X100280412Y-56897234D01*
X100368638Y-56888545D01*
X100412750Y-56884200D01*
X100501250Y-56884200D01*
X100545362Y-56888545D01*
X100545362Y-56888545D01*
G37*
G36*
X115912362Y-56888545D02*
X116000588Y-56897234D01*
X116113789Y-56931573D01*
X116170390Y-56948743D01*
X116308980Y-57022822D01*
X116326879Y-57032389D01*
X116362609Y-57061712D01*
X116464044Y-57144956D01*
X116547288Y-57246391D01*
X116576611Y-57282121D01*
X116576612Y-57282123D01*
X116660257Y-57438610D01*
X116660257Y-57438611D01*
X116711766Y-57608412D01*
X116729158Y-57785000D01*
X116711766Y-57961588D01*
X116677427Y-58074789D01*
X116660257Y-58131390D01*
X116586178Y-58269980D01*
X116576611Y-58287879D01*
X116547288Y-58323609D01*
X116464044Y-58425044D01*
X116362609Y-58508288D01*
X116326879Y-58537611D01*
X116326877Y-58537612D01*
X116170390Y-58621257D01*
X116113789Y-58638427D01*
X116000588Y-58672766D01*
X115912362Y-58681455D01*
X115868250Y-58685800D01*
X115779750Y-58685800D01*
X115735638Y-58681455D01*
X115647412Y-58672766D01*
X115534211Y-58638427D01*
X115477610Y-58621257D01*
X115321123Y-58537612D01*
X115321121Y-58537611D01*
X115285391Y-58508288D01*
X115183956Y-58425044D01*
X115100712Y-58323609D01*
X115071389Y-58287879D01*
X115061822Y-58269980D01*
X114987743Y-58131390D01*
X114970573Y-58074789D01*
X114936234Y-57961588D01*
X114918842Y-57785000D01*
X114936234Y-57608412D01*
X114987743Y-57438611D01*
X114987743Y-57438610D01*
X115071388Y-57282123D01*
X115071389Y-57282121D01*
X115100712Y-57246391D01*
X115183956Y-57144956D01*
X115285391Y-57061712D01*
X115321121Y-57032389D01*
X115339020Y-57022822D01*
X115477610Y-56948743D01*
X115534211Y-56931573D01*
X115647412Y-56897234D01*
X115735638Y-56888545D01*
X115779750Y-56884200D01*
X115868250Y-56884200D01*
X115912362Y-56888545D01*
X115912362Y-56888545D01*
G37*
G36*
X115912362Y-54348545D02*
X116000588Y-54357234D01*
X116113789Y-54391573D01*
X116170390Y-54408743D01*
X116308980Y-54482822D01*
X116326879Y-54492389D01*
X116362609Y-54521712D01*
X116464044Y-54604956D01*
X116547288Y-54706391D01*
X116576611Y-54742121D01*
X116576612Y-54742123D01*
X116660257Y-54898610D01*
X116660257Y-54898611D01*
X116711766Y-55068412D01*
X116729158Y-55245000D01*
X116711766Y-55421588D01*
X116677427Y-55534789D01*
X116660257Y-55591390D01*
X116586178Y-55729980D01*
X116576611Y-55747879D01*
X116547288Y-55783609D01*
X116464044Y-55885044D01*
X116362609Y-55968288D01*
X116326879Y-55997611D01*
X116326877Y-55997612D01*
X116170390Y-56081257D01*
X116113789Y-56098427D01*
X116000588Y-56132766D01*
X115912362Y-56141455D01*
X115868250Y-56145800D01*
X115779750Y-56145800D01*
X115735638Y-56141455D01*
X115647412Y-56132766D01*
X115534211Y-56098427D01*
X115477610Y-56081257D01*
X115321123Y-55997612D01*
X115321121Y-55997611D01*
X115285391Y-55968288D01*
X115183956Y-55885044D01*
X115100712Y-55783609D01*
X115071389Y-55747879D01*
X115061822Y-55729980D01*
X114987743Y-55591390D01*
X114970573Y-55534789D01*
X114936234Y-55421588D01*
X114918842Y-55245000D01*
X114936234Y-55068412D01*
X114987743Y-54898611D01*
X114987743Y-54898610D01*
X115071388Y-54742123D01*
X115071389Y-54742121D01*
X115100712Y-54706391D01*
X115183956Y-54604956D01*
X115285391Y-54521712D01*
X115321121Y-54492389D01*
X115339020Y-54482822D01*
X115477610Y-54408743D01*
X115534211Y-54391573D01*
X115647412Y-54357234D01*
X115735638Y-54348545D01*
X115779750Y-54344200D01*
X115868250Y-54344200D01*
X115912362Y-54348545D01*
X115912362Y-54348545D01*
G37*
G36*
X100545362Y-54348545D02*
X100633588Y-54357234D01*
X100746789Y-54391573D01*
X100803390Y-54408743D01*
X100941980Y-54482822D01*
X100959879Y-54492389D01*
X100995609Y-54521712D01*
X101097044Y-54604956D01*
X101180288Y-54706391D01*
X101209611Y-54742121D01*
X101209612Y-54742123D01*
X101293257Y-54898610D01*
X101293257Y-54898611D01*
X101344766Y-55068412D01*
X101362158Y-55245000D01*
X101344766Y-55421588D01*
X101310427Y-55534789D01*
X101293257Y-55591390D01*
X101219178Y-55729980D01*
X101209611Y-55747879D01*
X101180288Y-55783609D01*
X101097044Y-55885044D01*
X100995609Y-55968288D01*
X100959879Y-55997611D01*
X100959877Y-55997612D01*
X100803390Y-56081257D01*
X100746789Y-56098427D01*
X100633588Y-56132766D01*
X100545362Y-56141455D01*
X100501250Y-56145800D01*
X100412750Y-56145800D01*
X100368638Y-56141455D01*
X100280412Y-56132766D01*
X100167211Y-56098427D01*
X100110610Y-56081257D01*
X99954123Y-55997612D01*
X99954121Y-55997611D01*
X99918391Y-55968288D01*
X99816956Y-55885044D01*
X99733712Y-55783609D01*
X99704389Y-55747879D01*
X99694822Y-55729980D01*
X99620743Y-55591390D01*
X99603573Y-55534789D01*
X99569234Y-55421588D01*
X99551842Y-55245000D01*
X99569234Y-55068412D01*
X99620743Y-54898611D01*
X99620743Y-54898610D01*
X99704388Y-54742123D01*
X99704389Y-54742121D01*
X99733712Y-54706391D01*
X99816956Y-54604956D01*
X99918391Y-54521712D01*
X99954121Y-54492389D01*
X99972020Y-54482822D01*
X100110610Y-54408743D01*
X100167211Y-54391573D01*
X100280412Y-54357234D01*
X100368638Y-54348545D01*
X100412750Y-54344200D01*
X100501250Y-54344200D01*
X100545362Y-54348545D01*
X100545362Y-54348545D01*
G37*
G36*
X116724800Y-53605800D02*
X114923200Y-53605800D01*
X114923200Y-51804200D01*
X116724800Y-51804200D01*
X116724800Y-53605800D01*
X116724800Y-53605800D01*
G37*
G36*
X100545362Y-51808545D02*
X100633588Y-51817234D01*
X100746789Y-51851573D01*
X100803390Y-51868743D01*
X100941980Y-51942822D01*
X100959879Y-51952389D01*
X100995609Y-51981712D01*
X101097044Y-52064956D01*
X101180288Y-52166391D01*
X101209611Y-52202121D01*
X101209612Y-52202123D01*
X101293257Y-52358610D01*
X101293257Y-52358611D01*
X101344766Y-52528412D01*
X101362158Y-52705000D01*
X101344766Y-52881588D01*
X101310427Y-52994789D01*
X101293257Y-53051390D01*
X101219178Y-53189980D01*
X101209611Y-53207879D01*
X101180288Y-53243609D01*
X101097044Y-53345044D01*
X100995609Y-53428288D01*
X100959879Y-53457611D01*
X100959877Y-53457612D01*
X100803390Y-53541257D01*
X100746789Y-53558427D01*
X100633588Y-53592766D01*
X100545362Y-53601455D01*
X100501250Y-53605800D01*
X100412750Y-53605800D01*
X100368638Y-53601455D01*
X100280412Y-53592766D01*
X100167211Y-53558427D01*
X100110610Y-53541257D01*
X99954123Y-53457612D01*
X99954121Y-53457611D01*
X99918391Y-53428288D01*
X99816956Y-53345044D01*
X99733712Y-53243609D01*
X99704389Y-53207879D01*
X99694822Y-53189980D01*
X99620743Y-53051390D01*
X99603573Y-52994789D01*
X99569234Y-52881588D01*
X99551842Y-52705000D01*
X99569234Y-52528412D01*
X99620743Y-52358611D01*
X99620743Y-52358610D01*
X99704388Y-52202123D01*
X99704389Y-52202121D01*
X99733712Y-52166391D01*
X99816956Y-52064956D01*
X99918391Y-51981712D01*
X99954121Y-51952389D01*
X99972020Y-51942822D01*
X100110610Y-51868743D01*
X100167211Y-51851573D01*
X100280412Y-51817234D01*
X100368638Y-51808545D01*
X100412750Y-51804200D01*
X100501250Y-51804200D01*
X100545362Y-51808545D01*
X100545362Y-51808545D01*
G37*
M02*
