G04 #@! TF.GenerationSoftware,KiCad,Pcbnew,(5.0.1)-4*
G04 #@! TF.CreationDate,2019-02-09T15:25:37-05:00*
G04 #@! TF.ProjectId,noname.kicad_pcb_V1_2,6E6F6E616D652E6B696361645F706362,rev?*
G04 #@! TF.SameCoordinates,Original*
G04 #@! TF.FileFunction,Soldermask,Top*
G04 #@! TF.FilePolarity,Negative*
%FSLAX46Y46*%
G04 Gerber Fmt 4.6, Leading zero omitted, Abs format (unit mm)*
G04 Created by KiCad (PCBNEW (5.0.1)-4) date 2/9/2019 3:25:37 PM*
%MOMM*%
%LPD*%
G01*
G04 APERTURE LIST*
%ADD10C,0.100000*%
G04 APERTURE END LIST*
D10*
G36*
X110581493Y-63154524D02*
X110663534Y-63188506D01*
X110736870Y-63237508D01*
X110737371Y-63237843D01*
X110800157Y-63300629D01*
X110800159Y-63300632D01*
X110849494Y-63374466D01*
X110883476Y-63456507D01*
X110900800Y-63543600D01*
X110900800Y-63632400D01*
X110883476Y-63719493D01*
X110849494Y-63801534D01*
X110802261Y-63872222D01*
X110800157Y-63875371D01*
X110737371Y-63938157D01*
X110737368Y-63938159D01*
X110663534Y-63987494D01*
X110581493Y-64021476D01*
X110494401Y-64038800D01*
X110405599Y-64038800D01*
X110318507Y-64021476D01*
X110236466Y-63987494D01*
X110162632Y-63938159D01*
X110162629Y-63938157D01*
X110099843Y-63875371D01*
X110097739Y-63872222D01*
X110050506Y-63801534D01*
X110016524Y-63719493D01*
X109999200Y-63632400D01*
X109999200Y-63543600D01*
X110016524Y-63456507D01*
X110050506Y-63374466D01*
X110099841Y-63300632D01*
X110099843Y-63300629D01*
X110162629Y-63237843D01*
X110163130Y-63237508D01*
X110236466Y-63188506D01*
X110318507Y-63154524D01*
X110405599Y-63137200D01*
X110494401Y-63137200D01*
X110581493Y-63154524D01*
X110581493Y-63154524D01*
G37*
G36*
X108121493Y-63154524D02*
X108203534Y-63188506D01*
X108276870Y-63237508D01*
X108277371Y-63237843D01*
X108340157Y-63300629D01*
X108340159Y-63300632D01*
X108389494Y-63374466D01*
X108423476Y-63456507D01*
X108440800Y-63543600D01*
X108440800Y-63632400D01*
X108423476Y-63719493D01*
X108389494Y-63801534D01*
X108342261Y-63872222D01*
X108340157Y-63875371D01*
X108277371Y-63938157D01*
X108277368Y-63938159D01*
X108203534Y-63987494D01*
X108121493Y-64021476D01*
X108034401Y-64038800D01*
X107945599Y-64038800D01*
X107858507Y-64021476D01*
X107776466Y-63987494D01*
X107702632Y-63938159D01*
X107702629Y-63938157D01*
X107639843Y-63875371D01*
X107637739Y-63872222D01*
X107590506Y-63801534D01*
X107556524Y-63719493D01*
X107539200Y-63632400D01*
X107539200Y-63543600D01*
X107556524Y-63456507D01*
X107590506Y-63374466D01*
X107639841Y-63300632D01*
X107639843Y-63300629D01*
X107702629Y-63237843D01*
X107703130Y-63237508D01*
X107776466Y-63188506D01*
X107858507Y-63154524D01*
X107945599Y-63137200D01*
X108034401Y-63137200D01*
X108121493Y-63154524D01*
X108121493Y-63154524D01*
G37*
G36*
X114899543Y-62499663D02*
X114937222Y-62511093D01*
X114971939Y-62529650D01*
X115002374Y-62554626D01*
X115027350Y-62585061D01*
X115045907Y-62619778D01*
X115057337Y-62657457D01*
X115061800Y-62702773D01*
X115061800Y-63789227D01*
X115057337Y-63834543D01*
X115045907Y-63872222D01*
X115027350Y-63906939D01*
X115002374Y-63937374D01*
X114971939Y-63962350D01*
X114937222Y-63980907D01*
X114899543Y-63992337D01*
X114854227Y-63996800D01*
X114017773Y-63996800D01*
X113972457Y-63992337D01*
X113934778Y-63980907D01*
X113900061Y-63962350D01*
X113869626Y-63937374D01*
X113844650Y-63906939D01*
X113826093Y-63872222D01*
X113814663Y-63834543D01*
X113810200Y-63789227D01*
X113810200Y-62702773D01*
X113814663Y-62657457D01*
X113826093Y-62619778D01*
X113844650Y-62585061D01*
X113869626Y-62554626D01*
X113900061Y-62529650D01*
X113934778Y-62511093D01*
X113972457Y-62499663D01*
X114017773Y-62495200D01*
X114854227Y-62495200D01*
X114899543Y-62499663D01*
X114899543Y-62499663D01*
G37*
G36*
X112849543Y-62499663D02*
X112887222Y-62511093D01*
X112921939Y-62529650D01*
X112952374Y-62554626D01*
X112977350Y-62585061D01*
X112995907Y-62619778D01*
X113007337Y-62657457D01*
X113011800Y-62702773D01*
X113011800Y-63789227D01*
X113007337Y-63834543D01*
X112995907Y-63872222D01*
X112977350Y-63906939D01*
X112952374Y-63937374D01*
X112921939Y-63962350D01*
X112887222Y-63980907D01*
X112849543Y-63992337D01*
X112804227Y-63996800D01*
X111967773Y-63996800D01*
X111922457Y-63992337D01*
X111884778Y-63980907D01*
X111850061Y-63962350D01*
X111819626Y-63937374D01*
X111794650Y-63906939D01*
X111776093Y-63872222D01*
X111764663Y-63834543D01*
X111760200Y-63789227D01*
X111760200Y-62702773D01*
X111764663Y-62657457D01*
X111776093Y-62619778D01*
X111794650Y-62585061D01*
X111819626Y-62554626D01*
X111850061Y-62529650D01*
X111884778Y-62511093D01*
X111922457Y-62499663D01*
X111967773Y-62495200D01*
X112804227Y-62495200D01*
X112849543Y-62499663D01*
X112849543Y-62499663D01*
G37*
G36*
X106009543Y-62499663D02*
X106047222Y-62511093D01*
X106081939Y-62529650D01*
X106112374Y-62554626D01*
X106137350Y-62585061D01*
X106155907Y-62619778D01*
X106167337Y-62657457D01*
X106171800Y-62702773D01*
X106171800Y-63789227D01*
X106167337Y-63834543D01*
X106155907Y-63872222D01*
X106137350Y-63906939D01*
X106112374Y-63937374D01*
X106081939Y-63962350D01*
X106047222Y-63980907D01*
X106009543Y-63992337D01*
X105964227Y-63996800D01*
X105127773Y-63996800D01*
X105082457Y-63992337D01*
X105044778Y-63980907D01*
X105010061Y-63962350D01*
X104979626Y-63937374D01*
X104954650Y-63906939D01*
X104936093Y-63872222D01*
X104924663Y-63834543D01*
X104920200Y-63789227D01*
X104920200Y-62702773D01*
X104924663Y-62657457D01*
X104936093Y-62619778D01*
X104954650Y-62585061D01*
X104979626Y-62554626D01*
X105010061Y-62529650D01*
X105044778Y-62511093D01*
X105082457Y-62499663D01*
X105127773Y-62495200D01*
X105964227Y-62495200D01*
X106009543Y-62499663D01*
X106009543Y-62499663D01*
G37*
G36*
X103959543Y-62499663D02*
X103997222Y-62511093D01*
X104031939Y-62529650D01*
X104062374Y-62554626D01*
X104087350Y-62585061D01*
X104105907Y-62619778D01*
X104117337Y-62657457D01*
X104121800Y-62702773D01*
X104121800Y-63789227D01*
X104117337Y-63834543D01*
X104105907Y-63872222D01*
X104087350Y-63906939D01*
X104062374Y-63937374D01*
X104031939Y-63962350D01*
X103997222Y-63980907D01*
X103959543Y-63992337D01*
X103914227Y-63996800D01*
X103077773Y-63996800D01*
X103032457Y-63992337D01*
X102994778Y-63980907D01*
X102960061Y-63962350D01*
X102929626Y-63937374D01*
X102904650Y-63906939D01*
X102886093Y-63872222D01*
X102874663Y-63834543D01*
X102870200Y-63789227D01*
X102870200Y-62702773D01*
X102874663Y-62657457D01*
X102886093Y-62619778D01*
X102904650Y-62585061D01*
X102929626Y-62554626D01*
X102960061Y-62529650D01*
X102994778Y-62511093D01*
X103032457Y-62499663D01*
X103077773Y-62495200D01*
X103914227Y-62495200D01*
X103959543Y-62499663D01*
X103959543Y-62499663D01*
G37*
G36*
X110581493Y-61454524D02*
X110663534Y-61488506D01*
X110736870Y-61537508D01*
X110737371Y-61537843D01*
X110800157Y-61600629D01*
X110800159Y-61600632D01*
X110849494Y-61674466D01*
X110849494Y-61674467D01*
X110883476Y-61756507D01*
X110898607Y-61832572D01*
X110900800Y-61843600D01*
X110900800Y-61932400D01*
X110883476Y-62019493D01*
X110849494Y-62101534D01*
X110800492Y-62174870D01*
X110800157Y-62175371D01*
X110737371Y-62238157D01*
X110737368Y-62238159D01*
X110663534Y-62287494D01*
X110581493Y-62321476D01*
X110494401Y-62338800D01*
X110405599Y-62338800D01*
X110318507Y-62321476D01*
X110236466Y-62287494D01*
X110162632Y-62238159D01*
X110162629Y-62238157D01*
X110099843Y-62175371D01*
X110099508Y-62174870D01*
X110050506Y-62101534D01*
X110016524Y-62019493D01*
X109999200Y-61932400D01*
X109999200Y-61843600D01*
X110001394Y-61832572D01*
X110016524Y-61756507D01*
X110050506Y-61674467D01*
X110050506Y-61674466D01*
X110099841Y-61600632D01*
X110099843Y-61600629D01*
X110162629Y-61537843D01*
X110163130Y-61537508D01*
X110236466Y-61488506D01*
X110318507Y-61454524D01*
X110405599Y-61437200D01*
X110494401Y-61437200D01*
X110581493Y-61454524D01*
X110581493Y-61454524D01*
G37*
G36*
X108121493Y-61454524D02*
X108203534Y-61488506D01*
X108276870Y-61537508D01*
X108277371Y-61537843D01*
X108340157Y-61600629D01*
X108340159Y-61600632D01*
X108389494Y-61674466D01*
X108389494Y-61674467D01*
X108423476Y-61756507D01*
X108438607Y-61832572D01*
X108440800Y-61843600D01*
X108440800Y-61932400D01*
X108423476Y-62019493D01*
X108389494Y-62101534D01*
X108340492Y-62174870D01*
X108340157Y-62175371D01*
X108277371Y-62238157D01*
X108277368Y-62238159D01*
X108203534Y-62287494D01*
X108121493Y-62321476D01*
X108034401Y-62338800D01*
X107945599Y-62338800D01*
X107858507Y-62321476D01*
X107776466Y-62287494D01*
X107702632Y-62238159D01*
X107702629Y-62238157D01*
X107639843Y-62175371D01*
X107639508Y-62174870D01*
X107590506Y-62101534D01*
X107556524Y-62019493D01*
X107539200Y-61932400D01*
X107539200Y-61843600D01*
X107541394Y-61832572D01*
X107556524Y-61756507D01*
X107590506Y-61674467D01*
X107590506Y-61674466D01*
X107639841Y-61600632D01*
X107639843Y-61600629D01*
X107702629Y-61537843D01*
X107703130Y-61537508D01*
X107776466Y-61488506D01*
X107858507Y-61454524D01*
X107945599Y-61437200D01*
X108034401Y-61437200D01*
X108121493Y-61454524D01*
X108121493Y-61454524D01*
G37*
G36*
X103959543Y-60340663D02*
X103997222Y-60352093D01*
X104031939Y-60370650D01*
X104062374Y-60395626D01*
X104087350Y-60426061D01*
X104105907Y-60460778D01*
X104117337Y-60498457D01*
X104121800Y-60543773D01*
X104121800Y-61630227D01*
X104117337Y-61675543D01*
X104105907Y-61713222D01*
X104087350Y-61747939D01*
X104062374Y-61778374D01*
X104031939Y-61803350D01*
X103997222Y-61821907D01*
X103959543Y-61833337D01*
X103914227Y-61837800D01*
X103077773Y-61837800D01*
X103032457Y-61833337D01*
X102994778Y-61821907D01*
X102960061Y-61803350D01*
X102929626Y-61778374D01*
X102904650Y-61747939D01*
X102886093Y-61713222D01*
X102874663Y-61675543D01*
X102870200Y-61630227D01*
X102870200Y-60543773D01*
X102874663Y-60498457D01*
X102886093Y-60460778D01*
X102904650Y-60426061D01*
X102929626Y-60395626D01*
X102960061Y-60370650D01*
X102994778Y-60352093D01*
X103032457Y-60340663D01*
X103077773Y-60336200D01*
X103914227Y-60336200D01*
X103959543Y-60340663D01*
X103959543Y-60340663D01*
G37*
G36*
X106009543Y-60340663D02*
X106047222Y-60352093D01*
X106081939Y-60370650D01*
X106112374Y-60395626D01*
X106137350Y-60426061D01*
X106155907Y-60460778D01*
X106167337Y-60498457D01*
X106171800Y-60543773D01*
X106171800Y-61630227D01*
X106167337Y-61675543D01*
X106155907Y-61713222D01*
X106137350Y-61747939D01*
X106112374Y-61778374D01*
X106081939Y-61803350D01*
X106047222Y-61821907D01*
X106009543Y-61833337D01*
X105964227Y-61837800D01*
X105127773Y-61837800D01*
X105082457Y-61833337D01*
X105044778Y-61821907D01*
X105010061Y-61803350D01*
X104979626Y-61778374D01*
X104954650Y-61747939D01*
X104936093Y-61713222D01*
X104924663Y-61675543D01*
X104920200Y-61630227D01*
X104920200Y-60543773D01*
X104924663Y-60498457D01*
X104936093Y-60460778D01*
X104954650Y-60426061D01*
X104979626Y-60395626D01*
X105010061Y-60370650D01*
X105044778Y-60352093D01*
X105082457Y-60340663D01*
X105127773Y-60336200D01*
X105964227Y-60336200D01*
X106009543Y-60340663D01*
X106009543Y-60340663D01*
G37*
G36*
X101357800Y-61225800D02*
X99556200Y-61225800D01*
X99556200Y-59424200D01*
X101357800Y-59424200D01*
X101357800Y-61225800D01*
X101357800Y-61225800D01*
G37*
G36*
X115912362Y-59428545D02*
X116000588Y-59437234D01*
X116113789Y-59471573D01*
X116170390Y-59488743D01*
X116308980Y-59562822D01*
X116326879Y-59572389D01*
X116362609Y-59601712D01*
X116464044Y-59684956D01*
X116547288Y-59786391D01*
X116576611Y-59822121D01*
X116576612Y-59822123D01*
X116660257Y-59978610D01*
X116660257Y-59978611D01*
X116711766Y-60148412D01*
X116729158Y-60325000D01*
X116711766Y-60501588D01*
X116698969Y-60543773D01*
X116660257Y-60671390D01*
X116586178Y-60809980D01*
X116576611Y-60827879D01*
X116547288Y-60863609D01*
X116464044Y-60965044D01*
X116362609Y-61048288D01*
X116326879Y-61077611D01*
X116326877Y-61077612D01*
X116170390Y-61161257D01*
X116113789Y-61178427D01*
X116000588Y-61212766D01*
X115912362Y-61221455D01*
X115868250Y-61225800D01*
X115779750Y-61225800D01*
X115735638Y-61221455D01*
X115647412Y-61212766D01*
X115534211Y-61178427D01*
X115477610Y-61161257D01*
X115321123Y-61077612D01*
X115321121Y-61077611D01*
X115285391Y-61048288D01*
X115183956Y-60965044D01*
X115100712Y-60863609D01*
X115071389Y-60827879D01*
X115061822Y-60809980D01*
X114987743Y-60671390D01*
X114949031Y-60543773D01*
X114936234Y-60501588D01*
X114918842Y-60325000D01*
X114936234Y-60148412D01*
X114987743Y-59978611D01*
X114987743Y-59978610D01*
X115071388Y-59822123D01*
X115071389Y-59822121D01*
X115100712Y-59786391D01*
X115183956Y-59684956D01*
X115285391Y-59601712D01*
X115321121Y-59572389D01*
X115339020Y-59562822D01*
X115477610Y-59488743D01*
X115534211Y-59471573D01*
X115647412Y-59437234D01*
X115735638Y-59428545D01*
X115779750Y-59424200D01*
X115868250Y-59424200D01*
X115912362Y-59428545D01*
X115912362Y-59428545D01*
G37*
G36*
X108808800Y-59913800D02*
X108107200Y-59913800D01*
X108107200Y-58262200D01*
X108808800Y-58262200D01*
X108808800Y-59913800D01*
X108808800Y-59913800D01*
G37*
G36*
X112618800Y-59913800D02*
X111917200Y-59913800D01*
X111917200Y-58262200D01*
X112618800Y-58262200D01*
X112618800Y-59913800D01*
X112618800Y-59913800D01*
G37*
G36*
X111348800Y-59913800D02*
X110647200Y-59913800D01*
X110647200Y-58262200D01*
X111348800Y-58262200D01*
X111348800Y-59913800D01*
X111348800Y-59913800D01*
G37*
G36*
X110078800Y-59913800D02*
X109377200Y-59913800D01*
X109377200Y-58262200D01*
X110078800Y-58262200D01*
X110078800Y-59913800D01*
X110078800Y-59913800D01*
G37*
G36*
X100545362Y-56888545D02*
X100633588Y-56897234D01*
X100746789Y-56931573D01*
X100803390Y-56948743D01*
X100941980Y-57022822D01*
X100959879Y-57032389D01*
X100995609Y-57061712D01*
X101097044Y-57144956D01*
X101180288Y-57246391D01*
X101209611Y-57282121D01*
X101209612Y-57282123D01*
X101293257Y-57438610D01*
X101293257Y-57438611D01*
X101344766Y-57608412D01*
X101362158Y-57785000D01*
X101344766Y-57961588D01*
X101310427Y-58074789D01*
X101293257Y-58131390D01*
X101223337Y-58262200D01*
X101209611Y-58287879D01*
X101180288Y-58323609D01*
X101097044Y-58425044D01*
X100995609Y-58508288D01*
X100959879Y-58537611D01*
X100959877Y-58537612D01*
X100803390Y-58621257D01*
X100746789Y-58638427D01*
X100633588Y-58672766D01*
X100545362Y-58681455D01*
X100501250Y-58685800D01*
X100412750Y-58685800D01*
X100368638Y-58681455D01*
X100280412Y-58672766D01*
X100167211Y-58638427D01*
X100110610Y-58621257D01*
X99954123Y-58537612D01*
X99954121Y-58537611D01*
X99918391Y-58508288D01*
X99816956Y-58425044D01*
X99733712Y-58323609D01*
X99704389Y-58287879D01*
X99690663Y-58262200D01*
X99620743Y-58131390D01*
X99603573Y-58074789D01*
X99569234Y-57961588D01*
X99551842Y-57785000D01*
X99569234Y-57608412D01*
X99620743Y-57438611D01*
X99620743Y-57438610D01*
X99704388Y-57282123D01*
X99704389Y-57282121D01*
X99733712Y-57246391D01*
X99816956Y-57144956D01*
X99918391Y-57061712D01*
X99954121Y-57032389D01*
X99972020Y-57022822D01*
X100110610Y-56948743D01*
X100167211Y-56931573D01*
X100280412Y-56897234D01*
X100368638Y-56888545D01*
X100412750Y-56884200D01*
X100501250Y-56884200D01*
X100545362Y-56888545D01*
X100545362Y-56888545D01*
G37*
G36*
X115912362Y-56888545D02*
X116000588Y-56897234D01*
X116113789Y-56931573D01*
X116170390Y-56948743D01*
X116308980Y-57022822D01*
X116326879Y-57032389D01*
X116362609Y-57061712D01*
X116464044Y-57144956D01*
X116547288Y-57246391D01*
X116576611Y-57282121D01*
X116576612Y-57282123D01*
X116660257Y-57438610D01*
X116660257Y-57438611D01*
X116711766Y-57608412D01*
X116729158Y-57785000D01*
X116711766Y-57961588D01*
X116677427Y-58074789D01*
X116660257Y-58131390D01*
X116590337Y-58262200D01*
X116576611Y-58287879D01*
X116547288Y-58323609D01*
X116464044Y-58425044D01*
X116362609Y-58508288D01*
X116326879Y-58537611D01*
X116326877Y-58537612D01*
X116170390Y-58621257D01*
X116113789Y-58638427D01*
X116000588Y-58672766D01*
X115912362Y-58681455D01*
X115868250Y-58685800D01*
X115779750Y-58685800D01*
X115735638Y-58681455D01*
X115647412Y-58672766D01*
X115534211Y-58638427D01*
X115477610Y-58621257D01*
X115321123Y-58537612D01*
X115321121Y-58537611D01*
X115285391Y-58508288D01*
X115183956Y-58425044D01*
X115100712Y-58323609D01*
X115071389Y-58287879D01*
X115057663Y-58262200D01*
X114987743Y-58131390D01*
X114970573Y-58074789D01*
X114936234Y-57961588D01*
X114918842Y-57785000D01*
X114936234Y-57608412D01*
X114987743Y-57438611D01*
X114987743Y-57438610D01*
X115071388Y-57282123D01*
X115071389Y-57282121D01*
X115100712Y-57246391D01*
X115183956Y-57144956D01*
X115285391Y-57061712D01*
X115321121Y-57032389D01*
X115339020Y-57022822D01*
X115477610Y-56948743D01*
X115534211Y-56931573D01*
X115647412Y-56897234D01*
X115735638Y-56888545D01*
X115779750Y-56884200D01*
X115868250Y-56884200D01*
X115912362Y-56888545D01*
X115912362Y-56888545D01*
G37*
G36*
X107243300Y-56907800D02*
X106341700Y-56907800D01*
X106341700Y-55106200D01*
X107243300Y-55106200D01*
X107243300Y-56907800D01*
X107243300Y-56907800D01*
G37*
G36*
X103843300Y-56907800D02*
X102941700Y-56907800D01*
X102941700Y-55106200D01*
X103843300Y-55106200D01*
X103843300Y-56907800D01*
X103843300Y-56907800D01*
G37*
G36*
X100545362Y-54348545D02*
X100633588Y-54357234D01*
X100746789Y-54391573D01*
X100803390Y-54408743D01*
X100941980Y-54482822D01*
X100959879Y-54492389D01*
X100985968Y-54513800D01*
X101097044Y-54604956D01*
X101180288Y-54706391D01*
X101209611Y-54742121D01*
X101209612Y-54742123D01*
X101293257Y-54898610D01*
X101293257Y-54898611D01*
X101344766Y-55068412D01*
X101362158Y-55245000D01*
X101344766Y-55421588D01*
X101310427Y-55534789D01*
X101293257Y-55591390D01*
X101219178Y-55729980D01*
X101209611Y-55747879D01*
X101180288Y-55783609D01*
X101097044Y-55885044D01*
X100995609Y-55968288D01*
X100959879Y-55997611D01*
X100959877Y-55997612D01*
X100803390Y-56081257D01*
X100746789Y-56098427D01*
X100633588Y-56132766D01*
X100545362Y-56141455D01*
X100501250Y-56145800D01*
X100412750Y-56145800D01*
X100368638Y-56141455D01*
X100280412Y-56132766D01*
X100167211Y-56098427D01*
X100110610Y-56081257D01*
X99954123Y-55997612D01*
X99954121Y-55997611D01*
X99918391Y-55968288D01*
X99816956Y-55885044D01*
X99733712Y-55783609D01*
X99704389Y-55747879D01*
X99694822Y-55729980D01*
X99620743Y-55591390D01*
X99603573Y-55534789D01*
X99569234Y-55421588D01*
X99551842Y-55245000D01*
X99569234Y-55068412D01*
X99620743Y-54898611D01*
X99620743Y-54898610D01*
X99704388Y-54742123D01*
X99704389Y-54742121D01*
X99733712Y-54706391D01*
X99816956Y-54604956D01*
X99928032Y-54513800D01*
X99954121Y-54492389D01*
X99972020Y-54482822D01*
X100110610Y-54408743D01*
X100167211Y-54391573D01*
X100280412Y-54357234D01*
X100368638Y-54348545D01*
X100412750Y-54344200D01*
X100501250Y-54344200D01*
X100545362Y-54348545D01*
X100545362Y-54348545D01*
G37*
G36*
X115912362Y-54348545D02*
X116000588Y-54357234D01*
X116113789Y-54391573D01*
X116170390Y-54408743D01*
X116308980Y-54482822D01*
X116326879Y-54492389D01*
X116352968Y-54513800D01*
X116464044Y-54604956D01*
X116547288Y-54706391D01*
X116576611Y-54742121D01*
X116576612Y-54742123D01*
X116660257Y-54898610D01*
X116660257Y-54898611D01*
X116711766Y-55068412D01*
X116729158Y-55245000D01*
X116711766Y-55421588D01*
X116677427Y-55534789D01*
X116660257Y-55591390D01*
X116586178Y-55729980D01*
X116576611Y-55747879D01*
X116547288Y-55783609D01*
X116464044Y-55885044D01*
X116362609Y-55968288D01*
X116326879Y-55997611D01*
X116326877Y-55997612D01*
X116170390Y-56081257D01*
X116113789Y-56098427D01*
X116000588Y-56132766D01*
X115912362Y-56141455D01*
X115868250Y-56145800D01*
X115779750Y-56145800D01*
X115735638Y-56141455D01*
X115647412Y-56132766D01*
X115534211Y-56098427D01*
X115477610Y-56081257D01*
X115321123Y-55997612D01*
X115321121Y-55997611D01*
X115285391Y-55968288D01*
X115183956Y-55885044D01*
X115100712Y-55783609D01*
X115071389Y-55747879D01*
X115061822Y-55729980D01*
X114987743Y-55591390D01*
X114970573Y-55534789D01*
X114936234Y-55421588D01*
X114918842Y-55245000D01*
X114936234Y-55068412D01*
X114987743Y-54898611D01*
X114987743Y-54898610D01*
X115071388Y-54742123D01*
X115071389Y-54742121D01*
X115100712Y-54706391D01*
X115183956Y-54604956D01*
X115295032Y-54513800D01*
X115321121Y-54492389D01*
X115339020Y-54482822D01*
X115477610Y-54408743D01*
X115534211Y-54391573D01*
X115647412Y-54357234D01*
X115735638Y-54348545D01*
X115779750Y-54344200D01*
X115868250Y-54344200D01*
X115912362Y-54348545D01*
X115912362Y-54348545D01*
G37*
G36*
X111348800Y-54513800D02*
X110647200Y-54513800D01*
X110647200Y-52862200D01*
X111348800Y-52862200D01*
X111348800Y-54513800D01*
X111348800Y-54513800D01*
G37*
G36*
X112618800Y-54513800D02*
X111917200Y-54513800D01*
X111917200Y-52862200D01*
X112618800Y-52862200D01*
X112618800Y-54513800D01*
X112618800Y-54513800D01*
G37*
G36*
X110078800Y-54513800D02*
X109377200Y-54513800D01*
X109377200Y-52862200D01*
X110078800Y-52862200D01*
X110078800Y-54513800D01*
X110078800Y-54513800D01*
G37*
G36*
X108808800Y-54513800D02*
X108107200Y-54513800D01*
X108107200Y-52862200D01*
X108808800Y-52862200D01*
X108808800Y-54513800D01*
X108808800Y-54513800D01*
G37*
G36*
X105102543Y-52847663D02*
X105140222Y-52859093D01*
X105174939Y-52877650D01*
X105205374Y-52902626D01*
X105230350Y-52933061D01*
X105248907Y-52967778D01*
X105260337Y-53005457D01*
X105264800Y-53050773D01*
X105264800Y-54137227D01*
X105260337Y-54182543D01*
X105248907Y-54220222D01*
X105230350Y-54254939D01*
X105205374Y-54285374D01*
X105174939Y-54310350D01*
X105140222Y-54328907D01*
X105102543Y-54340337D01*
X105057227Y-54344800D01*
X104220773Y-54344800D01*
X104175457Y-54340337D01*
X104137778Y-54328907D01*
X104103061Y-54310350D01*
X104072626Y-54285374D01*
X104047650Y-54254939D01*
X104029093Y-54220222D01*
X104017663Y-54182543D01*
X104013200Y-54137227D01*
X104013200Y-53050773D01*
X104017663Y-53005457D01*
X104029093Y-52967778D01*
X104047650Y-52933061D01*
X104072626Y-52902626D01*
X104103061Y-52877650D01*
X104137778Y-52859093D01*
X104175457Y-52847663D01*
X104220773Y-52843200D01*
X105057227Y-52843200D01*
X105102543Y-52847663D01*
X105102543Y-52847663D01*
G37*
G36*
X107152543Y-52847663D02*
X107190222Y-52859093D01*
X107224939Y-52877650D01*
X107255374Y-52902626D01*
X107280350Y-52933061D01*
X107298907Y-52967778D01*
X107310337Y-53005457D01*
X107314800Y-53050773D01*
X107314800Y-54137227D01*
X107310337Y-54182543D01*
X107298907Y-54220222D01*
X107280350Y-54254939D01*
X107255374Y-54285374D01*
X107224939Y-54310350D01*
X107190222Y-54328907D01*
X107152543Y-54340337D01*
X107107227Y-54344800D01*
X106270773Y-54344800D01*
X106225457Y-54340337D01*
X106187778Y-54328907D01*
X106153061Y-54310350D01*
X106122626Y-54285374D01*
X106097650Y-54254939D01*
X106079093Y-54220222D01*
X106067663Y-54182543D01*
X106063200Y-54137227D01*
X106063200Y-53050773D01*
X106067663Y-53005457D01*
X106079093Y-52967778D01*
X106097650Y-52933061D01*
X106122626Y-52902626D01*
X106153061Y-52877650D01*
X106187778Y-52859093D01*
X106225457Y-52847663D01*
X106270773Y-52843200D01*
X107107227Y-52843200D01*
X107152543Y-52847663D01*
X107152543Y-52847663D01*
G37*
G36*
X116724800Y-53605800D02*
X114923200Y-53605800D01*
X114923200Y-51804200D01*
X116724800Y-51804200D01*
X116724800Y-53605800D01*
X116724800Y-53605800D01*
G37*
G36*
X100545362Y-51808545D02*
X100633588Y-51817234D01*
X100746789Y-51851573D01*
X100803390Y-51868743D01*
X100941980Y-51942822D01*
X100959879Y-51952389D01*
X100995609Y-51981712D01*
X101097044Y-52064956D01*
X101180288Y-52166391D01*
X101209611Y-52202121D01*
X101209612Y-52202123D01*
X101293257Y-52358610D01*
X101293257Y-52358611D01*
X101344766Y-52528412D01*
X101362158Y-52705000D01*
X101344766Y-52881588D01*
X101319729Y-52964123D01*
X101293257Y-53051390D01*
X101287476Y-53062205D01*
X101209611Y-53207879D01*
X101180288Y-53243609D01*
X101097044Y-53345044D01*
X100995609Y-53428288D01*
X100959879Y-53457611D01*
X100959877Y-53457612D01*
X100803390Y-53541257D01*
X100746789Y-53558427D01*
X100633588Y-53592766D01*
X100545362Y-53601455D01*
X100501250Y-53605800D01*
X100412750Y-53605800D01*
X100368638Y-53601455D01*
X100280412Y-53592766D01*
X100167211Y-53558427D01*
X100110610Y-53541257D01*
X99954123Y-53457612D01*
X99954121Y-53457611D01*
X99918391Y-53428288D01*
X99816956Y-53345044D01*
X99733712Y-53243609D01*
X99704389Y-53207879D01*
X99626524Y-53062205D01*
X99620743Y-53051390D01*
X99594271Y-52964123D01*
X99569234Y-52881588D01*
X99551842Y-52705000D01*
X99569234Y-52528412D01*
X99620743Y-52358611D01*
X99620743Y-52358610D01*
X99704388Y-52202123D01*
X99704389Y-52202121D01*
X99733712Y-52166391D01*
X99816956Y-52064956D01*
X99918391Y-51981712D01*
X99954121Y-51952389D01*
X99972020Y-51942822D01*
X100110610Y-51868743D01*
X100167211Y-51851573D01*
X100280412Y-51817234D01*
X100368638Y-51808545D01*
X100412750Y-51804200D01*
X100501250Y-51804200D01*
X100545362Y-51808545D01*
X100545362Y-51808545D01*
G37*
M02*
