<?xml version="1.0" standalone="no"?>
 <!DOCTYPE svg PUBLIC "-//W3C//DTD SVG 1.1//EN" 
 "http://www.w3.org/Graphics/SVG/1.1/DTD/svg11.dtd"> 
<svg xmlns="http://www.w3.org/2000/svg" version="1.1" 
    width="29.7002cm" height="21.0007cm" viewBox="0 0 116930 82680 ">
<title>SVG Picture created as noname.kicad_pcb_V1_2-F.Paste.svg date 2019/02/09 14:54:13 </title>
  <desc>Picture generated by PCBNEW </desc>
<g style="fill:#000000; fill-opacity:1;stroke:#000000; stroke-opacity:1;
stroke-linecap:round; stroke-linejoin:round; "
 transform="translate(0 0) scale(1 1)">
</g>
<g style="fill:#000000; fill-opacity:0.0; 
stroke:#000000; stroke-width:-0.000393701; stroke-opacity:1; 
stroke-linecap:round; stroke-linejoin:round;">
</g>
<g style="fill:#000000; fill-opacity:0.0; 
stroke:#000000; stroke-width:39.3701; stroke-opacity:1; 
stroke-linecap:round; stroke-linejoin:round;">
</g>
<g style="fill:#000000; fill-opacity:0.0; 
stroke:#000000; stroke-width:59.0551; stroke-opacity:1; 
stroke-linecap:round; stroke-linejoin:round;">
<rect x="69685.9" y="65357.2" width="42519.7" height="12598.4" rx="0" />
</g>
<g style="fill:#000000; fill-opacity:0.0; 
stroke:#000000; stroke-width:39.3701; stroke-opacity:1; 
stroke-linecap:round; stroke-linejoin:round;">
</g>
<g style="fill:#000000; fill-opacity:0.0; 
stroke:#000000; stroke-width:59.0551; stroke-opacity:1; 
stroke-linecap:round; stroke-linejoin:round;">
<rect x="3937.01" y="3937.01" width="109056" height="74806" rx="0" />
</g>
<g style="fill:#000000; fill-opacity:0.0; 
stroke:#000000; stroke-width:39.3701; stroke-opacity:1; 
stroke-linecap:round; stroke-linejoin:round;">
</g>
<g style="fill:#000000; fill-opacity:0.0; 
stroke:#000000; stroke-width:59.0551; stroke-opacity:1; 
stroke-linecap:round; stroke-linejoin:round;">
<rect x="4724.41" y="4724.41" width="107481" height="73231.2" rx="0" />
</g>
<g style="fill:#000000; fill-opacity:0.0; 
stroke:#000000; stroke-width:39.3701; stroke-opacity:1; 
stroke-linecap:round; stroke-linejoin:round;">
</g>
<g style="fill:#000000; fill-opacity:0.0; 
stroke:#000000; stroke-width:59.0551; stroke-opacity:1; 
stroke-linecap:round; stroke-linejoin:round;">
<path d="M23622 4724
L23622 3937
" />
</g>
<g style="fill:#000000; fill-opacity:0.0; 
stroke:#000000; stroke-width:39.3701; stroke-opacity:1; 
stroke-linecap:round; stroke-linejoin:round;">
</g>
<g style="fill:#000000; fill-opacity:0.0; 
stroke:#000000; stroke-width:59.0551; stroke-opacity:1; 
stroke-linecap:round; stroke-linejoin:round;">
<path d="M43307 4724
L43307 3937
" />
</g>
<g style="fill:#000000; fill-opacity:0.0; 
stroke:#000000; stroke-width:39.3701; stroke-opacity:1; 
stroke-linecap:round; stroke-linejoin:round;">
</g>
<g style="fill:#000000; fill-opacity:0.0; 
stroke:#000000; stroke-width:59.0551; stroke-opacity:1; 
stroke-linecap:round; stroke-linejoin:round;">
<path d="M62992 4724
L62992 3937
" />
</g>
<g style="fill:#000000; fill-opacity:0.0; 
stroke:#000000; stroke-width:39.3701; stroke-opacity:1; 
stroke-linecap:round; stroke-linejoin:round;">
</g>
<g style="fill:#000000; fill-opacity:0.0; 
stroke:#000000; stroke-width:59.0551; stroke-opacity:1; 
stroke-linecap:round; stroke-linejoin:round;">
<path d="M82677 4724
L82677 3937
" />
</g>
<g style="fill:#000000; fill-opacity:0.0; 
stroke:#000000; stroke-width:39.3701; stroke-opacity:1; 
stroke-linecap:round; stroke-linejoin:round;">
</g>
<g style="fill:#000000; fill-opacity:0.0; 
stroke:#000000; stroke-width:59.0551; stroke-opacity:1; 
stroke-linecap:round; stroke-linejoin:round;">
<path d="M102362 4724
L102362 3937
" />
</g>
<g style="fill:#000000; fill-opacity:0.0; 
stroke:#000000; stroke-width:39.3701; stroke-opacity:1; 
stroke-linecap:round; stroke-linejoin:round;">
</g>
<g style="fill:#000000; fill-opacity:0.0; 
stroke:#000000; stroke-width:59.0551; stroke-opacity:1; 
stroke-linecap:round; stroke-linejoin:round;">
<path d="M14199 4562
L13906 4562
" />
<path d="M14052 4562
L14052 4050
L14004 4123
L13955 4172
L13906 4196
" />
</g>
<g style="fill:#000000; fill-opacity:0.0; 
stroke:#000000; stroke-width:39.3701; stroke-opacity:1; 
stroke-linecap:round; stroke-linejoin:round;">
</g>
<g style="fill:#000000; fill-opacity:0.0; 
stroke:#000000; stroke-width:59.0551; stroke-opacity:1; 
stroke-linecap:round; stroke-linejoin:round;">
<path d="M33591 4099
L33615 4074
L33664 4050
L33786 4050
L33835 4074
L33859 4099
L33884 4147
L33884 4196
L33859 4269
L33567 4562
L33884 4562
" />
</g>
<g style="fill:#000000; fill-opacity:0.0; 
stroke:#000000; stroke-width:39.3701; stroke-opacity:1; 
stroke-linecap:round; stroke-linejoin:round;">
</g>
<g style="fill:#000000; fill-opacity:0.0; 
stroke:#000000; stroke-width:59.0551; stroke-opacity:1; 
stroke-linecap:round; stroke-linejoin:round;">
<path d="M53252 4050
L53569 4050
L53398 4245
L53471 4245
L53520 4269
L53544 4294
L53569 4342
L53569 4464
L53544 4513
L53520 4537
L53471 4562
L53325 4562
L53276 4537
L53252 4513
" />
</g>
<g style="fill:#000000; fill-opacity:0.0; 
stroke:#000000; stroke-width:39.3701; stroke-opacity:1; 
stroke-linecap:round; stroke-linejoin:round;">
</g>
<g style="fill:#000000; fill-opacity:0.0; 
stroke:#000000; stroke-width:59.0551; stroke-opacity:1; 
stroke-linecap:round; stroke-linejoin:round;">
<path d="M73205 4221
L73205 4562
" />
<path d="M73083 4026
L72961 4391
L73278 4391
" />
</g>
<g style="fill:#000000; fill-opacity:0.0; 
stroke:#000000; stroke-width:39.3701; stroke-opacity:1; 
stroke-linecap:round; stroke-linejoin:round;">
</g>
<g style="fill:#000000; fill-opacity:0.0; 
stroke:#000000; stroke-width:59.0551; stroke-opacity:1; 
stroke-linecap:round; stroke-linejoin:round;">
<path d="M92914 4050
L92671 4050
L92646 4294
L92671 4269
L92719 4245
L92841 4245
L92890 4269
L92914 4294
L92939 4342
L92939 4464
L92914 4513
L92890 4537
L92841 4562
L92719 4562
L92671 4537
L92646 4513
" />
</g>
<g style="fill:#000000; fill-opacity:0.0; 
stroke:#000000; stroke-width:39.3701; stroke-opacity:1; 
stroke-linecap:round; stroke-linejoin:round;">
</g>
<g style="fill:#000000; fill-opacity:0.0; 
stroke:#000000; stroke-width:59.0551; stroke-opacity:1; 
stroke-linecap:round; stroke-linejoin:round;">
<path d="M112575 4050
L112477 4050
L112429 4074
L112404 4099
L112356 4172
L112331 4269
L112331 4464
L112356 4513
L112380 4537
L112429 4562
L112526 4562
L112575 4537
L112599 4513
L112624 4464
L112624 4342
L112599 4294
L112575 4269
L112526 4245
L112429 4245
L112380 4269
L112356 4294
L112331 4342
" />
</g>
<g style="fill:#000000; fill-opacity:0.0; 
stroke:#000000; stroke-width:39.3701; stroke-opacity:1; 
stroke-linecap:round; stroke-linejoin:round;">
</g>
<g style="fill:#000000; fill-opacity:0.0; 
stroke:#000000; stroke-width:59.0551; stroke-opacity:1; 
stroke-linecap:round; stroke-linejoin:round;">
<path d="M23622 77955
L23622 78742
" />
</g>
<g style="fill:#000000; fill-opacity:0.0; 
stroke:#000000; stroke-width:39.3701; stroke-opacity:1; 
stroke-linecap:round; stroke-linejoin:round;">
</g>
<g style="fill:#000000; fill-opacity:0.0; 
stroke:#000000; stroke-width:59.0551; stroke-opacity:1; 
stroke-linecap:round; stroke-linejoin:round;">
<path d="M43307 77955
L43307 78742
" />
</g>
<g style="fill:#000000; fill-opacity:0.0; 
stroke:#000000; stroke-width:39.3701; stroke-opacity:1; 
stroke-linecap:round; stroke-linejoin:round;">
</g>
<g style="fill:#000000; fill-opacity:0.0; 
stroke:#000000; stroke-width:59.0551; stroke-opacity:1; 
stroke-linecap:round; stroke-linejoin:round;">
<path d="M62992 77955
L62992 78742
" />
</g>
<g style="fill:#000000; fill-opacity:0.0; 
stroke:#000000; stroke-width:39.3701; stroke-opacity:1; 
stroke-linecap:round; stroke-linejoin:round;">
</g>
<g style="fill:#000000; fill-opacity:0.0; 
stroke:#000000; stroke-width:59.0551; stroke-opacity:1; 
stroke-linecap:round; stroke-linejoin:round;">
<path d="M82677 77955
L82677 78742
" />
</g>
<g style="fill:#000000; fill-opacity:0.0; 
stroke:#000000; stroke-width:39.3701; stroke-opacity:1; 
stroke-linecap:round; stroke-linejoin:round;">
</g>
<g style="fill:#000000; fill-opacity:0.0; 
stroke:#000000; stroke-width:59.0551; stroke-opacity:1; 
stroke-linecap:round; stroke-linejoin:round;">
<path d="M102362 77955
L102362 78742
" />
</g>
<g style="fill:#000000; fill-opacity:0.0; 
stroke:#000000; stroke-width:39.3701; stroke-opacity:1; 
stroke-linecap:round; stroke-linejoin:round;">
</g>
<g style="fill:#000000; fill-opacity:0.0; 
stroke:#000000; stroke-width:59.0551; stroke-opacity:1; 
stroke-linecap:round; stroke-linejoin:round;">
<path d="M14199 78580
L13906 78580
" />
<path d="M14052 78580
L14052 78069
L14004 78142
L13955 78190
L13906 78215
" />
</g>
<g style="fill:#000000; fill-opacity:0.0; 
stroke:#000000; stroke-width:39.3701; stroke-opacity:1; 
stroke-linecap:round; stroke-linejoin:round;">
</g>
<g style="fill:#000000; fill-opacity:0.0; 
stroke:#000000; stroke-width:59.0551; stroke-opacity:1; 
stroke-linecap:round; stroke-linejoin:round;">
<path d="M33591 78117
L33615 78093
L33664 78069
L33786 78069
L33835 78093
L33859 78117
L33884 78166
L33884 78215
L33859 78288
L33567 78580
L33884 78580
" />
</g>
<g style="fill:#000000; fill-opacity:0.0; 
stroke:#000000; stroke-width:39.3701; stroke-opacity:1; 
stroke-linecap:round; stroke-linejoin:round;">
</g>
<g style="fill:#000000; fill-opacity:0.0; 
stroke:#000000; stroke-width:59.0551; stroke-opacity:1; 
stroke-linecap:round; stroke-linejoin:round;">
<path d="M53252 78069
L53569 78069
L53398 78263
L53471 78263
L53520 78288
L53544 78312
L53569 78361
L53569 78483
L53544 78532
L53520 78556
L53471 78580
L53325 78580
L53276 78556
L53252 78532
" />
</g>
<g style="fill:#000000; fill-opacity:0.0; 
stroke:#000000; stroke-width:39.3701; stroke-opacity:1; 
stroke-linecap:round; stroke-linejoin:round;">
</g>
<g style="fill:#000000; fill-opacity:0.0; 
stroke:#000000; stroke-width:59.0551; stroke-opacity:1; 
stroke-linecap:round; stroke-linejoin:round;">
<path d="M73205 78239
L73205 78580
" />
<path d="M73083 78044
L72961 78410
L73278 78410
" />
</g>
<g style="fill:#000000; fill-opacity:0.0; 
stroke:#000000; stroke-width:39.3701; stroke-opacity:1; 
stroke-linecap:round; stroke-linejoin:round;">
</g>
<g style="fill:#000000; fill-opacity:0.0; 
stroke:#000000; stroke-width:59.0551; stroke-opacity:1; 
stroke-linecap:round; stroke-linejoin:round;">
<path d="M92914 78069
L92671 78069
L92646 78312
L92671 78288
L92719 78263
L92841 78263
L92890 78288
L92914 78312
L92939 78361
L92939 78483
L92914 78532
L92890 78556
L92841 78580
L92719 78580
L92671 78556
L92646 78532
" />
</g>
<g style="fill:#000000; fill-opacity:0.0; 
stroke:#000000; stroke-width:39.3701; stroke-opacity:1; 
stroke-linecap:round; stroke-linejoin:round;">
</g>
<g style="fill:#000000; fill-opacity:0.0; 
stroke:#000000; stroke-width:59.0551; stroke-opacity:1; 
stroke-linecap:round; stroke-linejoin:round;">
<path d="M112575 78069
L112477 78069
L112429 78093
L112404 78117
L112356 78190
L112331 78288
L112331 78483
L112356 78532
L112380 78556
L112429 78580
L112526 78580
L112575 78556
L112599 78532
L112624 78483
L112624 78361
L112599 78312
L112575 78288
L112526 78263
L112429 78263
L112380 78288
L112356 78312
L112331 78361
" />
</g>
<g style="fill:#000000; fill-opacity:0.0; 
stroke:#000000; stroke-width:39.3701; stroke-opacity:1; 
stroke-linecap:round; stroke-linejoin:round;">
</g>
<g style="fill:#000000; fill-opacity:0.0; 
stroke:#000000; stroke-width:59.0551; stroke-opacity:1; 
stroke-linecap:round; stroke-linejoin:round;">
<path d="M3937 23622
L4724 23622
" />
</g>
<g style="fill:#000000; fill-opacity:0.0; 
stroke:#000000; stroke-width:39.3701; stroke-opacity:1; 
stroke-linecap:round; stroke-linejoin:round;">
</g>
<g style="fill:#000000; fill-opacity:0.0; 
stroke:#000000; stroke-width:59.0551; stroke-opacity:1; 
stroke-linecap:round; stroke-linejoin:round;">
<path d="M3937 43307
L4724 43307
" />
</g>
<g style="fill:#000000; fill-opacity:0.0; 
stroke:#000000; stroke-width:39.3701; stroke-opacity:1; 
stroke-linecap:round; stroke-linejoin:round;">
</g>
<g style="fill:#000000; fill-opacity:0.0; 
stroke:#000000; stroke-width:59.0551; stroke-opacity:1; 
stroke-linecap:round; stroke-linejoin:round;">
<path d="M3937 62992
L4724 62992
" />
</g>
<g style="fill:#000000; fill-opacity:0.0; 
stroke:#000000; stroke-width:39.3701; stroke-opacity:1; 
stroke-linecap:round; stroke-linejoin:round;">
</g>
<g style="fill:#000000; fill-opacity:0.0; 
stroke:#000000; stroke-width:59.0551; stroke-opacity:1; 
stroke-linecap:round; stroke-linejoin:round;">
<path d="M4208 13864
L4452 13864
" />
<path d="M4160 14011
L4330 13499
L4501 14011
" />
</g>
<g style="fill:#000000; fill-opacity:0.0; 
stroke:#000000; stroke-width:39.3701; stroke-opacity:1; 
stroke-linecap:round; stroke-linejoin:round;">
</g>
<g style="fill:#000000; fill-opacity:0.0; 
stroke:#000000; stroke-width:59.0551; stroke-opacity:1; 
stroke-linecap:round; stroke-linejoin:round;">
<path d="M4367 33428
L4440 33452
L4464 33476
L4489 33525
L4489 33598
L4464 33647
L4440 33671
L4391 33696
L4196 33696
L4196 33184
L4367 33184
L4416 33208
L4440 33233
L4464 33281
L4464 33330
L4440 33379
L4416 33403
L4367 33428
L4196 33428
" />
</g>
<g style="fill:#000000; fill-opacity:0.0; 
stroke:#000000; stroke-width:39.3701; stroke-opacity:1; 
stroke-linecap:round; stroke-linejoin:round;">
</g>
<g style="fill:#000000; fill-opacity:0.0; 
stroke:#000000; stroke-width:59.0551; stroke-opacity:1; 
stroke-linecap:round; stroke-linejoin:round;">
<path d="M4489 53332
L4464 53356
L4391 53381
L4342 53381
L4269 53356
L4221 53308
L4196 53259
L4172 53161
L4172 53088
L4196 52991
L4221 52942
L4269 52893
L4342 52869
L4391 52869
L4464 52893
L4489 52918
" />
</g>
<g style="fill:#000000; fill-opacity:0.0; 
stroke:#000000; stroke-width:39.3701; stroke-opacity:1; 
stroke-linecap:round; stroke-linejoin:round;">
</g>
<g style="fill:#000000; fill-opacity:0.0; 
stroke:#000000; stroke-width:59.0551; stroke-opacity:1; 
stroke-linecap:round; stroke-linejoin:round;">
<path d="M4196 73066
L4196 72554
L4318 72554
L4391 72578
L4440 72627
L4464 72676
L4489 72773
L4489 72846
L4464 72944
L4440 72993
L4391 73041
L4318 73066
L4196 73066
" />
</g>
<g style="fill:#000000; fill-opacity:0.0; 
stroke:#000000; stroke-width:39.3701; stroke-opacity:1; 
stroke-linecap:round; stroke-linejoin:round;">
</g>
<g style="fill:#000000; fill-opacity:0.0; 
stroke:#000000; stroke-width:59.0551; stroke-opacity:1; 
stroke-linecap:round; stroke-linejoin:round;">
<path d="M112992 23622
L112205 23622
" />
</g>
<g style="fill:#000000; fill-opacity:0.0; 
stroke:#000000; stroke-width:39.3701; stroke-opacity:1; 
stroke-linecap:round; stroke-linejoin:round;">
</g>
<g style="fill:#000000; fill-opacity:0.0; 
stroke:#000000; stroke-width:59.0551; stroke-opacity:1; 
stroke-linecap:round; stroke-linejoin:round;">
<path d="M112992 43307
L112205 43307
" />
</g>
<g style="fill:#000000; fill-opacity:0.0; 
stroke:#000000; stroke-width:39.3701; stroke-opacity:1; 
stroke-linecap:round; stroke-linejoin:round;">
</g>
<g style="fill:#000000; fill-opacity:0.0; 
stroke:#000000; stroke-width:59.0551; stroke-opacity:1; 
stroke-linecap:round; stroke-linejoin:round;">
<path d="M112992 62992
L112205 62992
" />
</g>
<g style="fill:#000000; fill-opacity:0.0; 
stroke:#000000; stroke-width:39.3701; stroke-opacity:1; 
stroke-linecap:round; stroke-linejoin:round;">
</g>
<g style="fill:#000000; fill-opacity:0.0; 
stroke:#000000; stroke-width:59.0551; stroke-opacity:1; 
stroke-linecap:round; stroke-linejoin:round;">
<path d="M112477 13864
L112721 13864
" />
<path d="M112428 14011
L112599 13499
L112769 14011
" />
</g>
<g style="fill:#000000; fill-opacity:0.0; 
stroke:#000000; stroke-width:39.3701; stroke-opacity:1; 
stroke-linecap:round; stroke-linejoin:round;">
</g>
<g style="fill:#000000; fill-opacity:0.0; 
stroke:#000000; stroke-width:59.0551; stroke-opacity:1; 
stroke-linecap:round; stroke-linejoin:round;">
<path d="M112635 33428
L112708 33452
L112733 33476
L112757 33525
L112757 33598
L112733 33647
L112708 33671
L112660 33696
L112465 33696
L112465 33184
L112635 33184
L112684 33208
L112708 33233
L112733 33281
L112733 33330
L112708 33379
L112684 33403
L112635 33428
L112465 33428
" />
</g>
<g style="fill:#000000; fill-opacity:0.0; 
stroke:#000000; stroke-width:39.3701; stroke-opacity:1; 
stroke-linecap:round; stroke-linejoin:round;">
</g>
<g style="fill:#000000; fill-opacity:0.0; 
stroke:#000000; stroke-width:59.0551; stroke-opacity:1; 
stroke-linecap:round; stroke-linejoin:round;">
<path d="M112757 53332
L112733 53356
L112660 53381
L112611 53381
L112538 53356
L112489 53308
L112465 53259
L112440 53161
L112440 53088
L112465 52991
L112489 52942
L112538 52893
L112611 52869
L112660 52869
L112733 52893
L112757 52918
" />
</g>
<g style="fill:#000000; fill-opacity:0.0; 
stroke:#000000; stroke-width:39.3701; stroke-opacity:1; 
stroke-linecap:round; stroke-linejoin:round;">
</g>
<g style="fill:#000000; fill-opacity:0.0; 
stroke:#000000; stroke-width:59.0551; stroke-opacity:1; 
stroke-linecap:round; stroke-linejoin:round;">
<path d="M112465 73066
L112465 72554
L112587 72554
L112660 72578
L112708 72627
L112733 72676
L112757 72773
L112757 72846
L112733 72944
L112708 72993
L112660 73041
L112587 73066
L112465 73066
" />
</g>
<g style="fill:#000000; fill-opacity:0.0; 
stroke:#000000; stroke-width:39.3701; stroke-opacity:1; 
stroke-linecap:round; stroke-linejoin:round;">
</g>
<g style="fill:#000000; fill-opacity:0.0; 
stroke:#000000; stroke-width:59.0551; stroke-opacity:1; 
stroke-linecap:round; stroke-linejoin:round;">
<path d="M78911 76293
L78911 75703
L79051 75703
L79136 75731
L79192 75787
L79220 75843
L79248 75956
L79248 76040
L79220 76153
L79192 76209
L79136 76265
L79051 76293
L78911 76293
" />
<path d="M79754 76293
L79754 75984
L79726 75928
L79670 75899
L79557 75899
L79501 75928
" />
<path d="M79754 76265
L79698 76293
L79557 76293
L79501 76265
L79473 76209
L79473 76153
L79501 76096
L79557 76068
L79698 76068
L79754 76040
" />
<path d="M79951 75899
L80176 75899
" />
<path d="M80036 75703
L80036 76209
L80064 76265
L80120 76293
L80176 76293
" />
<path d="M80598 76265
L80542 76293
L80429 76293
L80373 76265
L80345 76209
L80345 75984
L80373 75928
L80429 75899
L80542 75899
L80598 75928
L80626 75984
L80626 76040
L80345 76096
" />
<path d="M80879 76237
L80907 76265
L80879 76293
L80851 76265
L80879 76237
L80879 76293
" />
<path d="M80879 75928
L80907 75956
L80879 75984
L80851 75956
L80879 75928
L80879 75984
" />
</g>
<g style="fill:#000000; fill-opacity:0.0; 
stroke:#000000; stroke-width:39.3701; stroke-opacity:1; 
stroke-linecap:round; stroke-linejoin:round;">
</g>
<g style="fill:#000000; fill-opacity:0.0; 
stroke:#000000; stroke-width:59.0551; stroke-opacity:1; 
stroke-linecap:round; stroke-linejoin:round;">
<path d="M69685 76577
L112205 76577
" />
</g>
<g style="fill:#000000; fill-opacity:0.0; 
stroke:#000000; stroke-width:39.3701; stroke-opacity:1; 
stroke-linecap:round; stroke-linejoin:round;">
</g>
<g style="fill:#000000; fill-opacity:0.0; 
stroke:#000000; stroke-width:59.0551; stroke-opacity:1; 
stroke-linecap:round; stroke-linejoin:round;">
<path d="M70249 77395
L70249 76805
" />
<path d="M70587 77395
L70334 77058
" />
<path d="M70587 76805
L70249 77142
" />
<path d="M70840 77395
L70840 77002
" />
<path d="M70840 76805
L70812 76833
L70840 76861
L70868 76833
L70840 76805
L70840 76861
" />
<path d="M71458 77339
L71430 77367
L71346 77395
L71290 77395
L71205 77367
L71149 77311
L71121 77255
L71093 77142
L71093 77058
L71121 76946
L71149 76889
L71205 76833
L71290 76805
L71346 76805
L71430 76833
L71458 76861
" />
<path d="M71965 77395
L71965 77086
L71937 77030
L71880 77002
L71768 77002
L71712 77030
" />
<path d="M71965 77367
L71908 77395
L71768 77395
L71712 77367
L71683 77311
L71683 77255
L71712 77199
L71768 77171
L71908 77171
L71965 77142
" />
<path d="M72499 77395
L72499 76805
" />
<path d="M72499 77367
L72443 77395
L72330 77395
L72274 77367
L72246 77339
L72218 77283
L72218 77114
L72246 77058
L72274 77030
L72330 77002
L72443 77002
L72499 77030
" />
<path d="M73230 77086
L73427 77086
" />
<path d="M73511 77395
L73230 77395
L73230 76805
L73511 76805
" />
<path d="M73764 77339
L73793 77367
L73764 77395
L73736 77367
L73764 77339
L73764 77395
" />
<path d="M74046 77395
L74046 76805
L74186 76805
L74271 76833
L74327 76889
L74355 76946
L74383 77058
L74383 77142
L74355 77255
L74327 77311
L74271 77367
L74186 77395
L74046 77395
" />
<path d="M74636 77339
L74664 77367
L74636 77395
L74608 77367
L74636 77339
L74636 77395
" />
<path d="M74889 77227
L75171 77227
" />
<path d="M74833 77395
L75030 76805
L75227 77395
" />
<path d="M75424 77339
L75452 77367
L75424 77395
L75395 77367
L75424 77339
L75424 77395
" />
<path d="M76605 77002
L76605 77592
" />
<path d="M76605 77030
L76661 77002
L76773 77002
L76830 77030
L76858 77058
L76886 77114
L76886 77283
L76858 77339
L76830 77367
L76773 77395
L76661 77395
L76605 77367
" />
<path d="M77392 77367
L77336 77395
L77223 77395
L77167 77367
L77139 77339
L77111 77283
L77111 77114
L77139 77058
L77167 77030
L77223 77002
L77336 77002
L77392 77030
" />
<path d="M77645 77395
L77645 76805
" />
<path d="M77645 77030
L77701 77002
L77814 77002
L77870 77030
L77898 77058
L77926 77114
L77926 77283
L77898 77339
L77870 77367
L77814 77395
L77701 77395
L77645 77367
" />
<path d="M78180 77002
L78180 77395
" />
<path d="M78180 77058
L78208 77030
L78264 77002
L78348 77002
L78404 77030
L78433 77086
L78433 77395
" />
<path d="M78939 77367
L78883 77395
L78770 77395
L78714 77367
L78686 77311
L78686 77086
L78714 77030
L78770 77002
L78883 77002
L78939 77030
L78967 77086
L78967 77142
L78686 77199
" />
<path d="M79164 77002
L79276 77395
L79389 77114
L79501 77395
L79614 77002
" />
<path d="M80457 77620
L80429 77592
L80373 77508
L80345 77452
L80317 77367
L80289 77227
L80289 77114
L80317 76974
L80345 76889
L80373 76833
L80429 76749
L80457 76721
" />
<path d="M80964 76805
L80682 76805
L80654 77086
L80682 77058
L80739 77030
L80879 77030
L80935 77058
L80964 77086
L80992 77142
L80992 77283
L80964 77339
L80935 77367
L80879 77395
L80739 77395
L80682 77367
L80654 77339
" />
<path d="M81245 77339
L81273 77367
L81245 77395
L81217 77367
L81245 77339
L81245 77395
" />
<path d="M81638 76805
L81695 76805
L81751 76833
L81779 76861
L81807 76917
L81835 77030
L81835 77171
L81807 77283
L81779 77339
L81751 77367
L81695 77395
L81638 77395
L81582 77367
L81554 77339
L81526 77283
L81498 77171
L81498 77030
L81526 76917
L81554 76861
L81582 76833
L81638 76805
" />
<path d="M82088 77339
L82117 77367
L82088 77395
L82060 77367
L82088 77339
L82088 77395
" />
<path d="M82679 77395
L82341 77395
" />
<path d="M82510 77395
L82510 76805
L82454 76889
L82398 76946
L82341 76974
" />
<path d="M82876 77620
L82904 77592
L82960 77508
L82988 77452
L83016 77367
L83045 77227
L83045 77114
L83016 76974
L82988 76889
L82960 76833
L82904 76749
L82876 76721
" />
<path d="M83326 77171
L83776 77171
" />
<path d="M84310 77002
L84310 77395
" />
<path d="M84169 76777
L84029 77199
L84394 77199
" />
</g>
<g style="fill:#000000; fill-opacity:0.0; 
stroke:#000000; stroke-width:39.3701; stroke-opacity:1; 
stroke-linecap:round; stroke-linejoin:round;">
</g>
<g style="fill:#000000; fill-opacity:0.0; 
stroke:#000000; stroke-width:59.0551; stroke-opacity:1; 
stroke-linecap:round; stroke-linejoin:round;">
<path d="M69685 75396
L112205 75396
" />
</g>
<g style="fill:#000000; fill-opacity:0.0; 
stroke:#000000; stroke-width:39.3701; stroke-opacity:1; 
stroke-linecap:round; stroke-linejoin:round;">
</g>
<g style="fill:#000000; fill-opacity:0.0; 
stroke:#000000; stroke-width:118.11; stroke-opacity:1; 
stroke-linecap:round; stroke-linejoin:round;">
<path d="M104099 76293
L103902 76012
" />
<path d="M103761 76293
L103761 75703
L103986 75703
L104042 75731
L104070 75759
L104099 75815
L104099 75899
L104070 75956
L104042 75984
L103986 76012
L103761 76012
" />
<path d="M104577 76265
L104520 76293
L104408 76293
L104352 76265
L104323 76209
L104323 75984
L104352 75928
L104408 75899
L104520 75899
L104577 75928
L104605 75984
L104605 76040
L104323 76096
" />
<path d="M104802 75899
L104942 76293
L105083 75899
" />
<path d="M105308 76237
L105336 76265
L105308 76293
L105280 76265
L105308 76237
L105308 76293
" />
<path d="M105308 75928
L105336 75956
L105308 75984
L105280 75956
L105308 75928
L105308 75984
" />
</g>
<g style="fill:#000000; fill-opacity:0.0; 
stroke:#000000; stroke-width:39.3701; stroke-opacity:1; 
stroke-linecap:round; stroke-linejoin:round;">
</g>
<g style="fill:#000000; fill-opacity:0.0; 
stroke:#000000; stroke-width:59.0551; stroke-opacity:1; 
stroke-linecap:round; stroke-linejoin:round;">
<path d="M70221 76265
L70305 76293
L70446 76293
L70502 76265
L70530 76237
L70559 76181
L70559 76124
L70530 76068
L70502 76040
L70446 76012
L70334 75984
L70277 75956
L70249 75928
L70221 75871
L70221 75815
L70249 75759
L70277 75731
L70334 75703
L70474 75703
L70559 75731
" />
<path d="M70812 76293
L70812 75899
" />
<path d="M70812 75703
L70784 75731
L70812 75759
L70840 75731
L70812 75703
L70812 75759
" />
<path d="M71037 75899
L71346 75899
L71037 76293
L71346 76293
" />
<path d="M71796 76265
L71740 76293
L71627 76293
L71571 76265
L71543 76209
L71543 75984
L71571 75928
L71627 75899
L71740 75899
L71796 75928
L71824 75984
L71824 76040
L71543 76096
" />
<path d="M72077 76237
L72105 76265
L72077 76293
L72049 76265
L72077 76237
L72077 76293
" />
<path d="M72077 75928
L72105 75956
L72077 75984
L72049 75956
L72077 75928
L72077 75984
" />
<path d="M72780 76124
L73061 76124
" />
<path d="M72724 76293
L72921 75703
L73118 76293
" />
<path d="M73568 75899
L73568 76293
" />
<path d="M73427 75674
L73286 76096
L73652 76096
" />
</g>
<g style="fill:#000000; fill-opacity:0.0; 
stroke:#000000; stroke-width:39.3701; stroke-opacity:1; 
stroke-linecap:round; stroke-linejoin:round;">
</g>
<g style="fill:#000000; fill-opacity:0.0; 
stroke:#000000; stroke-width:59.0551; stroke-opacity:1; 
stroke-linecap:round; stroke-linejoin:round;">
<path d="M103714 77395
L103714 76805
" />
<path d="M104248 77395
L104248 76805
" />
<path d="M104248 77367
L104192 77395
L104079 77395
L104023 77367
L103995 77339
L103967 77283
L103967 77114
L103995 77058
L104023 77030
L104079 77002
L104192 77002
L104248 77030
" />
<path d="M104529 77339
L104557 77367
L104529 77395
L104501 77367
L104529 77339
L104529 77395
" />
<path d="M104529 77030
L104557 77058
L104529 77086
L104501 77058
L104529 77030
L104529 77086
" />
<path d="M105570 77395
L105232 77395
" />
<path d="M105401 77395
L105401 76805
L105345 76889
L105289 76946
L105232 76974
" />
<path d="M106245 76777
L105739 77536
" />
<path d="M106751 77395
L106413 77395
" />
<path d="M106582 77395
L106582 76805
L106526 76889
L106470 76946
L106413 76974
" />
</g>
<g style="fill:#000000; fill-opacity:0.0; 
stroke:#000000; stroke-width:39.3701; stroke-opacity:1; 
stroke-linecap:round; stroke-linejoin:round;">
</g>
<g style="fill:#000000; fill-opacity:0.0; 
stroke:#000000; stroke-width:59.0551; stroke-opacity:1; 
stroke-linecap:round; stroke-linejoin:round;">
<path d="M69685 73821
L112205 73821
" />
</g>
<g style="fill:#000000; fill-opacity:0.0; 
stroke:#000000; stroke-width:39.3701; stroke-opacity:1; 
stroke-linecap:round; stroke-linejoin:round;">
</g>
<g style="fill:#000000; fill-opacity:0.0; 
stroke:#000000; stroke-width:157.48; stroke-opacity:1; 
stroke-linecap:round; stroke-linejoin:round;">
<path d="M70360 74099
L70810 74099
" />
<path d="M70486 74886
L70585 74099
" />
<path d="M70974 74886
L71039 74361
" />
<path d="M71072 74099
L71030 74136
L71063 74174
L71105 74136
L71072 74099
L71063 74174
" />
<path d="M71302 74361
L71602 74361
" />
<path d="M71447 74099
L71363 74774
L71391 74849
L71461 74886
L71536 74886
" />
<path d="M71911 74886
L71841 74849
L71813 74774
L71897 74099
" />
<path d="M72516 74849
L72436 74886
L72286 74886
L72216 74849
L72187 74774
L72225 74474
L72272 74399
L72352 74361
L72501 74361
L72572 74399
L72600 74474
L72591 74549
L72206 74624
" />
<path d="M72895 74811
L72928 74849
L72886 74886
L72853 74849
L72895 74811
L72886 74886
" />
<path d="M72947 74399
L72980 74436
L72937 74474
L72905 74436
L72947 74399
L72937 74474
" />
</g>
<g style="fill:#000000; fill-opacity:0.0; 
stroke:#000000; stroke-width:39.3701; stroke-opacity:1; 
stroke-linecap:round; stroke-linejoin:round;">
</g>
<g style="fill:#000000; fill-opacity:0.0; 
stroke:#000000; stroke-width:59.0551; stroke-opacity:1; 
stroke-linecap:round; stroke-linejoin:round;">
<path d="M70446 73070
L70249 73070
" />
<path d="M70249 73380
L70249 72789
L70530 72789
" />
<path d="M70755 73380
L70755 72986
" />
<path d="M70755 72789
L70727 72817
L70755 72845
L70784 72817
L70755 72789
L70755 72845
" />
<path d="M71121 73380
L71065 73352
L71037 73295
L71037 72789
" />
<path d="M71571 73352
L71515 73380
L71402 73380
L71346 73352
L71318 73295
L71318 73070
L71346 73014
L71402 72986
L71515 72986
L71571 73014
L71599 73070
L71599 73127
L71318 73183
" />
<path d="M71852 73323
L71880 73352
L71852 73380
L71824 73352
L71852 73323
L71852 73380
" />
<path d="M71852 73014
L71880 73042
L71852 73070
L71824 73042
L71852 73014
L71852 73070
" />
<path d="M72583 72986
L72583 73380
" />
<path d="M72583 73042
L72611 73014
L72668 72986
L72752 72986
L72808 73014
L72836 73070
L72836 73380
" />
<path d="M73202 73380
L73146 73352
L73118 73323
L73090 73267
L73090 73099
L73118 73042
L73146 73014
L73202 72986
L73286 72986
L73343 73014
L73371 73042
L73399 73099
L73399 73267
L73371 73323
L73343 73352
L73286 73380
L73202 73380
" />
<path d="M73652 72986
L73652 73380
" />
<path d="M73652 73042
L73680 73014
L73736 72986
L73821 72986
L73877 73014
L73905 73070
L73905 73380
" />
<path d="M74439 73380
L74439 73070
L74411 73014
L74355 72986
L74242 72986
L74186 73014
" />
<path d="M74439 73352
L74383 73380
L74242 73380
L74186 73352
L74158 73295
L74158 73239
L74186 73183
L74242 73155
L74383 73155
L74439 73127
" />
<path d="M74721 73380
L74721 72986
" />
<path d="M74721 73042
L74749 73014
L74805 72986
L74889 72986
L74946 73014
L74974 73070
L74974 73380
" />
<path d="M74974 73070
L75002 73014
L75058 72986
L75142 72986
L75199 73014
L75227 73070
L75227 73380
" />
<path d="M75733 73352
L75677 73380
L75564 73380
L75508 73352
L75480 73295
L75480 73070
L75508 73014
L75564 72986
L75677 72986
L75733 73014
L75761 73070
L75761 73127
L75480 73183
" />
<path d="M76014 73323
L76042 73352
L76014 73380
L75986 73352
L76014 73323
L76014 73380
" />
<path d="M76295 73380
L76295 72789
" />
<path d="M76352 73155
L76520 73380
" />
<path d="M76520 72986
L76295 73211
" />
<path d="M76773 73380
L76773 72986
" />
<path d="M76773 72789
L76745 72817
L76773 72845
L76802 72817
L76773 72789
L76773 72845
" />
<path d="M77308 73352
L77251 73380
L77139 73380
L77083 73352
L77055 73323
L77027 73267
L77027 73099
L77055 73042
L77083 73014
L77139 72986
L77251 72986
L77308 73014
" />
<path d="M77814 73380
L77814 73070
L77786 73014
L77730 72986
L77617 72986
L77561 73014
" />
<path d="M77814 73352
L77758 73380
L77617 73380
L77561 73352
L77533 73295
L77533 73239
L77561 73183
L77617 73155
L77758 73155
L77814 73127
" />
<path d="M78348 73380
L78348 72789
" />
<path d="M78348 73352
L78292 73380
L78180 73380
L78123 73352
L78095 73323
L78067 73267
L78067 73099
L78095 73042
L78123 73014
L78180 72986
L78292 72986
L78348 73014
" />
<path d="M78489 73436
L78939 73436
" />
<path d="M79079 72986
L79079 73577
" />
<path d="M79079 73014
L79136 72986
L79248 72986
L79304 73014
L79332 73042
L79361 73099
L79361 73267
L79332 73323
L79304 73352
L79248 73380
L79136 73380
L79079 73352
" />
<path d="M79867 73352
L79811 73380
L79698 73380
L79642 73352
L79614 73323
L79586 73267
L79586 73099
L79614 73042
L79642 73014
L79698 72986
L79811 72986
L79867 73014
" />
<path d="M80120 73380
L80120 72789
" />
<path d="M80120 73014
L80176 72986
L80289 72986
L80345 73014
L80373 73042
L80401 73099
L80401 73267
L80373 73323
L80345 73352
L80289 73380
L80176 73380
L80120 73352
" />
<path d="M80514 73436
L80964 73436
" />
<path d="M81020 72789
L81217 73380
L81413 72789
" />
<path d="M81920 73380
L81582 73380
" />
<path d="M81751 73380
L81751 72789
L81695 72874
L81638 72930
L81582 72958
" />
<path d="M82032 73436
L82482 73436
" />
<path d="M82595 72845
L82623 72817
L82679 72789
L82820 72789
L82876 72817
L82904 72845
L82932 72902
L82932 72958
L82904 73042
L82566 73380
L82932 73380
" />
<path d="M83185 73323
L83213 73352
L83185 73380
L83157 73352
L83185 73323
L83185 73380
" />
<path d="M83466 73380
L83466 72789
" />
<path d="M83523 73155
L83691 73380
" />
<path d="M83691 72986
L83466 73211
" />
<path d="M83944 73380
L83944 72986
" />
<path d="M83944 72789
L83916 72817
L83944 72845
L83973 72817
L83944 72789
L83944 72845
" />
<path d="M84479 73352
L84422 73380
L84310 73380
L84254 73352
L84226 73323
L84197 73267
L84197 73099
L84226 73042
L84254 73014
L84310 72986
L84422 72986
L84479 73014
" />
<path d="M84985 73380
L84985 73070
L84957 73014
L84901 72986
L84788 72986
L84732 73014
" />
<path d="M84985 73352
L84929 73380
L84788 73380
L84732 73352
L84704 73295
L84704 73239
L84732 73183
L84788 73155
L84929 73155
L84985 73127
" />
<path d="M85519 73380
L85519 72789
" />
<path d="M85519 73352
L85463 73380
L85350 73380
L85294 73352
L85266 73323
L85238 73267
L85238 73099
L85266 73042
L85294 73014
L85350 72986
L85463 72986
L85519 73014
" />
<path d="M85660 73436
L86110 73436
" />
<path d="M86250 72986
L86250 73577
" />
<path d="M86250 73014
L86307 72986
L86419 72986
L86475 73014
L86503 73042
L86532 73099
L86532 73267
L86503 73323
L86475 73352
L86419 73380
L86307 73380
L86250 73352
" />
<path d="M87038 73352
L86982 73380
L86869 73380
L86813 73352
L86785 73323
L86757 73267
L86757 73099
L86785 73042
L86813 73014
L86869 72986
L86982 72986
L87038 73014
" />
<path d="M87291 73380
L87291 72789
" />
<path d="M87291 73014
L87347 72986
L87460 72986
L87516 73014
L87544 73042
L87572 73099
L87572 73267
L87544 73323
L87516 73352
L87460 73380
L87347 73380
L87291 73352
" />
</g>
<g style="fill:#000000; fill-opacity:0.0; 
stroke:#000000; stroke-width:39.3701; stroke-opacity:1; 
stroke-linecap:round; stroke-linejoin:round;">
</g>
<g style="fill:#000000; fill-opacity:0.0; 
stroke:#000000; stroke-width:59.0551; stroke-opacity:1; 
stroke-linecap:round; stroke-linejoin:round;">
<path d="M69685 71459
L112205 71459
" />
</g>
<g style="fill:#000000; fill-opacity:0.0; 
stroke:#000000; stroke-width:39.3701; stroke-opacity:1; 
stroke-linecap:round; stroke-linejoin:round;">
</g>
<g style="fill:#000000; fill-opacity:0.0; 
stroke:#000000; stroke-width:59.0551; stroke-opacity:1; 
stroke-linecap:round; stroke-linejoin:round;">
<path d="M70221 72289
L70305 72317
L70446 72317
L70502 72289
L70530 72260
L70559 72204
L70559 72148
L70530 72092
L70502 72064
L70446 72036
L70334 72007
L70277 71979
L70249 71951
L70221 71895
L70221 71839
L70249 71782
L70277 71754
L70334 71726
L70474 71726
L70559 71754
" />
<path d="M70812 72317
L70812 71726
" />
<path d="M71065 72317
L71065 72007
L71037 71951
L70980 71923
L70896 71923
L70840 71951
L70812 71979
" />
<path d="M71571 72289
L71515 72317
L71402 72317
L71346 72289
L71318 72232
L71318 72007
L71346 71951
L71402 71923
L71515 71923
L71571 71951
L71599 72007
L71599 72064
L71318 72120
" />
<path d="M72077 72289
L72021 72317
L71908 72317
L71852 72289
L71824 72232
L71824 72007
L71852 71951
L71908 71923
L72021 71923
L72077 71951
L72105 72007
L72105 72064
L71824 72120
" />
<path d="M72274 71923
L72499 71923
" />
<path d="M72358 71726
L72358 72232
L72386 72289
L72443 72317
L72499 72317
" />
<path d="M72696 72260
L72724 72289
L72696 72317
L72668 72289
L72696 72260
L72696 72317
" />
<path d="M72696 71951
L72724 71979
L72696 72007
L72668 71979
L72696 71951
L72696 72007
" />
</g>
<g style="fill:#000000; fill-opacity:0.0; 
stroke:#000000; stroke-width:39.3701; stroke-opacity:1; 
stroke-linecap:round; stroke-linejoin:round;">
</g>
<g style="fill:#000000; fill-opacity:0.0; 
stroke:#000000; stroke-width:59.0551; stroke-opacity:1; 
stroke-linecap:round; stroke-linejoin:round;">
<path d="M77559 75396
L77559 76577
" />
</g>
<g style="fill:#000000; fill-opacity:0.0; 
stroke:#000000; stroke-width:39.3701; stroke-opacity:1; 
stroke-linecap:round; stroke-linejoin:round;">
</g>
<g style="fill:#000000; fill-opacity:0.0; 
stroke:#000000; stroke-width:59.0551; stroke-opacity:1; 
stroke-linecap:round; stroke-linejoin:round;">
<path d="M102756 75396
L102756 77955
" />
</g>
<g style="fill:#840000; fill-opacity:0.0; 
stroke:#840000; stroke-width:59.0551; stroke-opacity:1; 
stroke-linecap:round; stroke-linejoin:round;">
</g>
<g style="fill:#840000; fill-opacity:0.0; 
stroke:#840000; stroke-width:0; stroke-opacity:1; 
stroke-linecap:round; stroke-linejoin:round;">
</g>
<g style="fill:#840000; fill-opacity:1.0; 
stroke:#840000; stroke-width:0; stroke-opacity:1; 
stroke-linecap:round; stroke-linejoin:round;">
<polyline style="fill-rule:evenodd;"
points="40863,21715
40863,22384
40548,22384
40548,21715
40863,21715
" /> 
<polyline style="fill-rule:evenodd;"
points="42201,21715
42201,22384
41886,22384
41886,21715
42201,21715
" /> 
<circle cx="43484.3" cy="24365.4" r="157.48" /> 
</g>
<g style="fill:#840000; fill-opacity:1.0; 
stroke:#840000; stroke-width:39.3701; stroke-opacity:1; 
stroke-linecap:round; stroke-linejoin:round;">
</g>
<g style="fill:#840000; fill-opacity:1.0; 
stroke:#840000; stroke-width:0; stroke-opacity:1; 
stroke-linecap:round; stroke-linejoin:round;">
<circle cx="42515.7" cy="24365.4" r="157.48" /> 
</g>
<g style="fill:#840000; fill-opacity:1.0; 
stroke:#840000; stroke-width:39.3701; stroke-opacity:1; 
stroke-linecap:round; stroke-linejoin:round;">
</g>
<g style="fill:#840000; fill-opacity:1.0; 
stroke:#840000; stroke-width:0; stroke-opacity:1; 
stroke-linecap:round; stroke-linejoin:round;">
<circle cx="42515.7" cy="25034.6" r="157.48" /> 
</g>
<g style="fill:#840000; fill-opacity:1.0; 
stroke:#840000; stroke-width:39.3701; stroke-opacity:1; 
stroke-linecap:round; stroke-linejoin:round;">
</g>
<g style="fill:#840000; fill-opacity:1.0; 
stroke:#840000; stroke-width:0; stroke-opacity:1; 
stroke-linecap:round; stroke-linejoin:round;">
<circle cx="43484.3" cy="25034.6" r="157.48" /> 
</g>
<g style="fill:#840000; fill-opacity:1.0; 
stroke:#840000; stroke-width:39.3701; stroke-opacity:1; 
stroke-linecap:round; stroke-linejoin:round;">
</g>
<g style="fill:#840000; fill-opacity:1.0; 
stroke:#840000; stroke-width:0; stroke-opacity:1; 
stroke-linecap:round; stroke-linejoin:round;">
<polyline style="fill-rule:evenodd;"
points="42818,21442
42581,21442
42581,20831
42818,20831
42818,21442
" /> 
<polyline style="fill-rule:evenodd;"
points="43318,21442
43081,21442
43081,20831
43318,20831
43318,21442
" /> 
<polyline style="fill-rule:evenodd;"
points="43818,21442
43581,21442
43581,20831
43818,20831
43818,21442
" /> 
<polyline style="fill-rule:evenodd;"
points="44318,21442
44081,21442
44081,20831
44318,20831
44318,21442
" /> 
<polyline style="fill-rule:evenodd;"
points="44318,23568
44081,23568
44081,22957
44318,22957
44318,23568
" /> 
<polyline style="fill-rule:evenodd;"
points="43818,23568
43581,23568
43581,22957
43818,22957
43818,23568
" /> 
<polyline style="fill-rule:evenodd;"
points="43318,23568
43081,23568
43081,22957
43318,22957
43318,23568
" /> 
<polyline style="fill-rule:evenodd;"
points="42818,23568
42581,23568
42581,22957
42818,22957
42818,23568
" /> 
<polyline style="fill-rule:evenodd;"
points="45191,24624
45200,24626
45210,24628
45219,24631
45227,24636
45236,24640
45243,24646
45251,24653
45257,24660
45263,24668
45268,24676
45272,24685
45275,24694
45278,24703
45279,24713
45279,24722
45279,25077
45279,25086
45278,25096
45275,25105
45272,25114
45268,25123
45263,25131
45257,25139
45251,25146
45243,25153
45236,25159
45227,25163
45219,25168
45210,25171
45200,25173
45191,25175
45181,25175
44925,25175
44915,25175
44906,25173
44897,25171
44887,25168
44879,25163
44870,25159
44863,25153
44855,25146
44849,25139
44843,25131
44838,25123
44834,25114
44831,25105
44829,25096
44827,25086
44827,25077
44827,24722
44827,24713
44829,24703
44831,24694
44834,24685
44838,24676
44843,24668
44849,24660
44855,24653
44863,24646
44870,24640
44879,24636
44887,24631
44897,24628
44906,24626
44915,24624
44925,24624
45181,24624
45191,24624
" /> 
<polyline style="fill-rule:evenodd;"
points="44384,24624
44393,24626
44402,24628
44412,24631
44420,24636
44429,24640
44436,24646
44444,24653
44450,24660
44456,24668
44461,24676
44465,24685
44468,24694
44470,24703
44472,24713
44472,24722
44472,25077
44472,25086
44470,25096
44468,25105
44465,25114
44461,25123
44456,25131
44450,25139
44444,25146
44436,25153
44429,25159
44420,25163
44412,25168
44402,25171
44393,25173
44384,25175
44374,25175
44118,25175
44108,25175
44099,25173
44089,25171
44080,25168
44072,25163
44063,25159
44056,25153
44048,25146
44042,25139
44036,25131
44031,25123
44027,25114
44024,25105
44021,25096
44020,25086
44020,25077
44020,24722
44020,24713
44021,24703
44024,24694
44027,24685
44031,24676
44036,24668
44042,24660
44048,24653
44056,24646
44063,24640
44072,24636
44080,24631
44089,24628
44099,24626
44108,24624
44118,24624
44374,24624
44384,24624
" /> 
<polyline style="fill-rule:evenodd;"
points="41691,24624
41700,24626
41710,24628
41719,24631
41727,24636
41736,24640
41743,24646
41751,24653
41757,24660
41763,24668
41768,24676
41772,24685
41775,24694
41778,24703
41779,24713
41779,24722
41779,25077
41779,25086
41778,25096
41775,25105
41772,25114
41768,25123
41763,25131
41757,25139
41751,25146
41743,25153
41736,25159
41727,25163
41719,25168
41710,25171
41700,25173
41691,25175
41681,25175
41425,25175
41415,25175
41406,25173
41397,25171
41387,25168
41379,25163
41370,25159
41363,25153
41355,25146
41349,25139
41343,25131
41338,25123
41334,25114
41331,25105
41329,25096
41327,25086
41327,25077
41327,24722
41327,24713
41329,24703
41331,24694
41334,24685
41338,24676
41343,24668
41349,24660
41355,24653
41363,24646
41370,24640
41379,24636
41387,24631
41397,24628
41406,24626
41415,24624
41425,24624
41681,24624
41691,24624
" /> 
<polyline style="fill-rule:evenodd;"
points="40884,24624
40893,24626
40902,24628
40912,24631
40920,24636
40929,24640
40936,24646
40944,24653
40950,24660
40956,24668
40961,24676
40965,24685
40968,24694
40970,24703
40972,24713
40972,24722
40972,25077
40972,25086
40970,25096
40968,25105
40965,25114
40961,25123
40956,25131
40950,25139
40944,25146
40936,25153
40929,25159
40920,25163
40912,25168
40902,25171
40893,25173
40884,25175
40874,25175
40618,25175
40608,25175
40599,25173
40589,25171
40580,25168
40572,25163
40563,25159
40556,25153
40548,25146
40542,25139
40536,25131
40531,25123
40527,25114
40524,25105
40521,25096
40520,25086
40520,25077
40520,24722
40520,24713
40521,24703
40524,24694
40527,24685
40531,24676
40536,24668
40542,24660
40548,24653
40556,24646
40563,24640
40572,24636
40580,24631
40589,24628
40599,24626
40608,24624
40618,24624
40874,24624
40884,24624
" /> 
<polyline style="fill-rule:evenodd;"
points="41334,20824
41343,20826
41352,20828
41362,20831
41370,20836
41379,20840
41386,20846
41394,20853
41400,20860
41406,20868
41411,20876
41415,20885
41418,20894
41420,20903
41422,20913
41422,20922
41422,21277
41422,21286
41420,21296
41418,21305
41415,21314
41411,21323
41406,21331
41400,21339
41394,21346
41386,21353
41379,21359
41370,21363
41362,21368
41352,21371
41343,21373
41334,21375
41324,21375
41068,21375
41058,21375
41049,21373
41039,21371
41030,21368
41022,21363
41013,21359
41006,21353
40998,21346
40992,21339
40986,21331
40981,21323
40977,21314
40974,21305
40971,21296
40970,21286
40970,21277
40970,20922
40970,20913
40971,20903
40974,20894
40977,20885
40981,20876
40986,20868
40992,20860
40998,20853
41006,20846
41013,20840
41022,20836
41030,20831
41039,20828
41049,20826
41058,20824
41068,20824
41324,20824
41334,20824
" /> 
<polyline style="fill-rule:evenodd;"
points="42141,20824
42150,20826
42160,20828
42169,20831
42177,20836
42186,20840
42193,20846
42201,20853
42207,20860
42213,20868
42218,20876
42222,20885
42225,20894
42228,20903
42229,20913
42229,20922
42229,21277
42229,21286
42228,21296
42225,21305
42222,21314
42218,21323
42213,21331
42207,21339
42201,21346
42193,21353
42186,21359
42177,21363
42169,21368
42160,21371
42150,21373
42141,21375
42131,21375
41875,21375
41865,21375
41856,21373
41847,21371
41837,21368
41829,21363
41820,21359
41813,21353
41805,21346
41799,21339
41793,21331
41788,21323
41784,21314
41781,21305
41779,21296
41777,21286
41777,21277
41777,20922
41777,20913
41779,20903
41781,20894
41784,20885
41788,20876
41793,20868
41799,20860
41805,20853
41813,20846
41820,20840
41829,20836
41837,20831
41847,20828
41856,20826
41865,20824
41875,20824
42131,20824
42141,20824
" /> 
<polyline style="fill-rule:evenodd;"
points="40884,23774
40893,23776
40902,23778
40912,23781
40920,23786
40929,23790
40936,23796
40944,23803
40950,23810
40956,23818
40961,23826
40965,23835
40968,23844
40970,23853
40972,23863
40972,23872
40972,24227
40972,24236
40970,24246
40968,24255
40965,24264
40961,24273
40956,24281
40950,24289
40944,24296
40936,24303
40929,24309
40920,24313
40912,24318
40902,24321
40893,24323
40884,24325
40874,24325
40618,24325
40608,24325
40599,24323
40589,24321
40580,24318
40572,24313
40563,24309
40556,24303
40548,24296
40542,24289
40536,24281
40531,24273
40527,24264
40524,24255
40521,24246
40520,24236
40520,24227
40520,23872
40520,23863
40521,23853
40524,23844
40527,23835
40531,23826
40536,23818
40542,23810
40548,23803
40556,23796
40563,23790
40572,23786
40580,23781
40589,23778
40599,23776
40608,23774
40618,23774
40874,23774
40884,23774
" /> 
<polyline style="fill-rule:evenodd;"
points="41691,23774
41700,23776
41710,23778
41719,23781
41727,23786
41736,23790
41743,23796
41751,23803
41757,23810
41763,23818
41768,23826
41772,23835
41775,23844
41778,23853
41779,23863
41779,23872
41779,24227
41779,24236
41778,24246
41775,24255
41772,24264
41768,24273
41763,24281
41757,24289
41751,24296
41743,24303
41736,24309
41727,24313
41719,24318
41710,24321
41700,24323
41691,24325
41681,24325
41425,24325
41415,24325
41406,24323
41397,24321
41387,24318
41379,24313
41370,24309
41363,24303
41355,24296
41349,24289
41343,24281
41338,24273
41334,24264
41331,24255
41329,24246
41327,24236
41327,24227
41327,23872
41327,23863
41329,23853
41331,23844
41334,23835
41338,23826
41343,23818
41349,23810
41355,23803
41363,23796
41370,23790
41379,23786
41387,23781
41397,23778
41406,23776
41415,23774
41425,23774
41681,23774
41691,23774
" /> 
</g>
<g style="fill:#000000; fill-opacity:1.0; 
stroke:#000000; stroke-width:0; stroke-opacity:1; 
stroke-linecap:round; stroke-linejoin:round;">
</g>
<g style="fill:#C2C200; fill-opacity:1.0; 
stroke:#C2C200; stroke-width:0; stroke-opacity:1; 
stroke-linecap:round; stroke-linejoin:round;">
</g>
<g style="fill:#C2C200; fill-opacity:1.0; 
stroke:#C2C200; stroke-width:78.7402; stroke-opacity:1; 
stroke-linecap:round; stroke-linejoin:round;">
</g>
<g style="fill:#C2C200; fill-opacity:0.0; 
stroke:#C2C200; stroke-width:78.7402; stroke-opacity:1; 
stroke-linecap:round; stroke-linejoin:round;">
<path d="M38784 25760
L46350 25760
" />
<path d="M38784 19702
L38784 25760
" />
<path d="M46374 19702
L38784 19702
" />
<path d="M46374 25758
L46374 19702
" />
</g> 
</svg>
