G04 #@! TF.GenerationSoftware,KiCad,Pcbnew,(5.0.1)-4*
G04 #@! TF.CreationDate,2019-02-09T15:25:37-05:00*
G04 #@! TF.ProjectId,noname.kicad_pcb_V1_2,6E6F6E616D652E6B696361645F706362,rev?*
G04 #@! TF.SameCoordinates,Original*
G04 #@! TF.FileFunction,Legend,Top*
G04 #@! TF.FilePolarity,Positive*
%FSLAX46Y46*%
G04 Gerber Fmt 4.6, Leading zero omitted, Abs format (unit mm)*
G04 Created by KiCad (PCBNEW (5.0.1)-4) date 2/9/2019 3:25:37 PM*
%MOMM*%
%LPD*%
G01*
G04 APERTURE LIST*
%ADD10C,0.125000*%
%ADD11C,0.100000*%
%ADD12C,0.127000*%
%ADD13C,0.150000*%
%ADD14C,0.254000*%
%ADD15C,0.200000*%
%ADD16C,0.120000*%
%ADD17C,0.050000*%
G04 APERTURE END LIST*
D10*
X102113590Y-61359003D02*
X102613590Y-61192337D01*
X102113590Y-61025670D01*
X102589780Y-60882813D02*
X102613590Y-60811384D01*
X102613590Y-60692337D01*
X102589780Y-60644718D01*
X102565971Y-60620908D01*
X102518352Y-60597099D01*
X102470733Y-60597099D01*
X102423114Y-60620908D01*
X102399304Y-60644718D01*
X102375495Y-60692337D01*
X102351685Y-60787575D01*
X102327876Y-60835194D01*
X102304066Y-60859003D01*
X102256447Y-60882813D01*
X102208828Y-60882813D01*
X102161209Y-60859003D01*
X102137400Y-60835194D01*
X102113590Y-60787575D01*
X102113590Y-60668527D01*
X102137400Y-60597099D01*
X102589780Y-60406622D02*
X102613590Y-60335194D01*
X102613590Y-60216146D01*
X102589780Y-60168527D01*
X102565971Y-60144718D01*
X102518352Y-60120908D01*
X102470733Y-60120908D01*
X102423114Y-60144718D01*
X102399304Y-60168527D01*
X102375495Y-60216146D01*
X102351685Y-60311384D01*
X102327876Y-60359003D01*
X102304066Y-60382813D01*
X102256447Y-60406622D01*
X102208828Y-60406622D01*
X102161209Y-60382813D01*
X102137400Y-60359003D01*
X102113590Y-60311384D01*
X102113590Y-60192337D01*
X102137400Y-60120908D01*
X102137400Y-58501860D02*
X102113590Y-58549480D01*
X102113590Y-58620908D01*
X102137400Y-58692337D01*
X102185019Y-58739956D01*
X102232638Y-58763765D01*
X102327876Y-58787575D01*
X102399304Y-58787575D01*
X102494542Y-58763765D01*
X102542161Y-58739956D01*
X102589780Y-58692337D01*
X102613590Y-58620908D01*
X102613590Y-58573289D01*
X102589780Y-58501860D01*
X102565971Y-58478051D01*
X102399304Y-58478051D01*
X102399304Y-58573289D01*
X102613590Y-58263765D02*
X102113590Y-58263765D01*
X102613590Y-57978051D01*
X102113590Y-57978051D01*
X102613590Y-57739956D02*
X102113590Y-57739956D01*
X102113590Y-57620908D01*
X102137400Y-57549480D01*
X102185019Y-57501860D01*
X102232638Y-57478051D01*
X102327876Y-57454241D01*
X102399304Y-57454241D01*
X102494542Y-57478051D01*
X102542161Y-57501860D01*
X102589780Y-57549480D01*
X102613590Y-57620908D01*
X102613590Y-57739956D01*
X102613590Y-55811384D02*
X102375495Y-55978051D01*
X102613590Y-56097099D02*
X102113590Y-56097099D01*
X102113590Y-55906622D01*
X102137400Y-55859003D01*
X102161209Y-55835194D01*
X102208828Y-55811384D01*
X102280257Y-55811384D01*
X102327876Y-55835194D01*
X102351685Y-55859003D01*
X102375495Y-55906622D01*
X102375495Y-56097099D01*
X102589780Y-55620908D02*
X102613590Y-55549480D01*
X102613590Y-55430432D01*
X102589780Y-55382813D01*
X102565971Y-55359003D01*
X102518352Y-55335194D01*
X102470733Y-55335194D01*
X102423114Y-55359003D01*
X102399304Y-55382813D01*
X102375495Y-55430432D01*
X102351685Y-55525670D01*
X102327876Y-55573289D01*
X102304066Y-55597099D01*
X102256447Y-55620908D01*
X102208828Y-55620908D01*
X102161209Y-55597099D01*
X102137400Y-55573289D01*
X102113590Y-55525670D01*
X102113590Y-55406622D01*
X102137400Y-55335194D01*
X102113590Y-55192337D02*
X102113590Y-54906622D01*
X102613590Y-55049480D02*
X102113590Y-55049480D01*
X102613590Y-53597099D02*
X102113590Y-53597099D01*
X102113590Y-53406622D01*
X102137400Y-53359003D01*
X102161209Y-53335194D01*
X102208828Y-53311384D01*
X102280257Y-53311384D01*
X102327876Y-53335194D01*
X102351685Y-53359003D01*
X102375495Y-53406622D01*
X102375495Y-53597099D01*
X102351685Y-52930432D02*
X102375495Y-52859003D01*
X102399304Y-52835194D01*
X102446923Y-52811384D01*
X102518352Y-52811384D01*
X102565971Y-52835194D01*
X102589780Y-52859003D01*
X102613590Y-52906622D01*
X102613590Y-53097099D01*
X102113590Y-53097099D01*
X102113590Y-52930432D01*
X102137400Y-52882813D01*
X102161209Y-52859003D01*
X102208828Y-52835194D01*
X102256447Y-52835194D01*
X102304066Y-52859003D01*
X102327876Y-52882813D01*
X102351685Y-52930432D01*
X102351685Y-53097099D01*
X102113590Y-52501860D02*
X102113590Y-52406622D01*
X102137400Y-52359003D01*
X102185019Y-52311384D01*
X102280257Y-52287575D01*
X102446923Y-52287575D01*
X102542161Y-52311384D01*
X102589780Y-52359003D01*
X102613590Y-52406622D01*
X102613590Y-52501860D01*
X102589780Y-52549480D01*
X102542161Y-52597099D01*
X102446923Y-52620908D01*
X102280257Y-52620908D01*
X102185019Y-52597099D01*
X102137400Y-52549480D01*
X102113590Y-52501860D01*
X114145190Y-60935619D02*
X113645190Y-60935619D01*
X113645190Y-60745142D01*
X113669000Y-60697523D01*
X113692809Y-60673714D01*
X113740428Y-60649904D01*
X113811857Y-60649904D01*
X113859476Y-60673714D01*
X113883285Y-60697523D01*
X113907095Y-60745142D01*
X113907095Y-60935619D01*
X113883285Y-60268952D02*
X113907095Y-60197523D01*
X113930904Y-60173714D01*
X113978523Y-60149904D01*
X114049952Y-60149904D01*
X114097571Y-60173714D01*
X114121380Y-60197523D01*
X114145190Y-60245142D01*
X114145190Y-60435619D01*
X113645190Y-60435619D01*
X113645190Y-60268952D01*
X113669000Y-60221333D01*
X113692809Y-60197523D01*
X113740428Y-60173714D01*
X113788047Y-60173714D01*
X113835666Y-60197523D01*
X113859476Y-60221333D01*
X113883285Y-60268952D01*
X113883285Y-60435619D01*
X113811857Y-59721333D02*
X114145190Y-59721333D01*
X113621380Y-59840380D02*
X113978523Y-59959428D01*
X113978523Y-59649904D01*
X114145190Y-58316571D02*
X113645190Y-58316571D01*
X113645190Y-58126095D01*
X113669000Y-58078476D01*
X113692809Y-58054666D01*
X113740428Y-58030857D01*
X113811857Y-58030857D01*
X113859476Y-58054666D01*
X113883285Y-58078476D01*
X113907095Y-58126095D01*
X113907095Y-58316571D01*
X113883285Y-57649904D02*
X113907095Y-57578476D01*
X113930904Y-57554666D01*
X113978523Y-57530857D01*
X114049952Y-57530857D01*
X114097571Y-57554666D01*
X114121380Y-57578476D01*
X114145190Y-57626095D01*
X114145190Y-57816571D01*
X113645190Y-57816571D01*
X113645190Y-57649904D01*
X113669000Y-57602285D01*
X113692809Y-57578476D01*
X113740428Y-57554666D01*
X113788047Y-57554666D01*
X113835666Y-57578476D01*
X113859476Y-57602285D01*
X113883285Y-57649904D01*
X113883285Y-57816571D01*
X113645190Y-57364190D02*
X113645190Y-57054666D01*
X113835666Y-57221333D01*
X113835666Y-57149904D01*
X113859476Y-57102285D01*
X113883285Y-57078476D01*
X113930904Y-57054666D01*
X114049952Y-57054666D01*
X114097571Y-57078476D01*
X114121380Y-57102285D01*
X114145190Y-57149904D01*
X114145190Y-57292761D01*
X114121380Y-57340380D01*
X114097571Y-57364190D01*
X114145190Y-55697523D02*
X113645190Y-55697523D01*
X113645190Y-55507047D01*
X113669000Y-55459428D01*
X113692809Y-55435619D01*
X113740428Y-55411809D01*
X113811857Y-55411809D01*
X113859476Y-55435619D01*
X113883285Y-55459428D01*
X113907095Y-55507047D01*
X113907095Y-55697523D01*
X113883285Y-55030857D02*
X113907095Y-54959428D01*
X113930904Y-54935619D01*
X113978523Y-54911809D01*
X114049952Y-54911809D01*
X114097571Y-54935619D01*
X114121380Y-54959428D01*
X114145190Y-55007047D01*
X114145190Y-55197523D01*
X113645190Y-55197523D01*
X113645190Y-55030857D01*
X113669000Y-54983238D01*
X113692809Y-54959428D01*
X113740428Y-54935619D01*
X113788047Y-54935619D01*
X113835666Y-54959428D01*
X113859476Y-54983238D01*
X113883285Y-55030857D01*
X113883285Y-55197523D01*
X113692809Y-54721333D02*
X113669000Y-54697523D01*
X113645190Y-54649904D01*
X113645190Y-54530857D01*
X113669000Y-54483238D01*
X113692809Y-54459428D01*
X113740428Y-54435619D01*
X113788047Y-54435619D01*
X113859476Y-54459428D01*
X114145190Y-54745142D01*
X114145190Y-54435619D01*
X114145190Y-53078476D02*
X113645190Y-53078476D01*
X113645190Y-52888000D01*
X113669000Y-52840380D01*
X113692809Y-52816571D01*
X113740428Y-52792761D01*
X113811857Y-52792761D01*
X113859476Y-52816571D01*
X113883285Y-52840380D01*
X113907095Y-52888000D01*
X113907095Y-53078476D01*
X113883285Y-52411809D02*
X113907095Y-52340380D01*
X113930904Y-52316571D01*
X113978523Y-52292761D01*
X114049952Y-52292761D01*
X114097571Y-52316571D01*
X114121380Y-52340380D01*
X114145190Y-52388000D01*
X114145190Y-52578476D01*
X113645190Y-52578476D01*
X113645190Y-52411809D01*
X113669000Y-52364190D01*
X113692809Y-52340380D01*
X113740428Y-52316571D01*
X113788047Y-52316571D01*
X113835666Y-52340380D01*
X113859476Y-52364190D01*
X113883285Y-52411809D01*
X113883285Y-52578476D01*
X114145190Y-51816571D02*
X114145190Y-52102285D01*
X114145190Y-51959428D02*
X113645190Y-51959428D01*
X113716619Y-52007047D01*
X113764238Y-52054666D01*
X113788047Y-52102285D01*
D11*
G04 #@! TO.C,SW1*
X102992500Y-57257000D02*
G75*
G03X102992500Y-57257000I-50000J0D01*
G01*
D12*
X103592500Y-54757000D02*
X104392500Y-54757000D01*
X103592500Y-54857000D02*
X103592500Y-54757000D01*
X106592500Y-54757000D02*
X105792500Y-54757000D01*
X106592500Y-54857000D02*
X106592500Y-54757000D01*
X103592500Y-57257000D02*
X103592500Y-57157000D01*
X106592500Y-57257000D02*
X103592500Y-57257000D01*
X106592500Y-57157000D02*
X106592500Y-57257000D01*
X105842500Y-56007000D02*
G75*
G03X105842500Y-56007000I-750000J0D01*
G01*
D13*
G04 #@! TO.C,MK1*
X110210600Y-62738000D02*
G75*
G03X110210600Y-62738000I-250000J0D01*
G01*
D14*
X110467000Y-64730000D02*
G75*
G03X110467000Y-64730000I-21000J0D01*
G01*
D15*
X107340000Y-64213000D02*
X107340000Y-61263000D01*
X111100000Y-64213000D02*
X107340000Y-64213000D01*
X111100000Y-61263000D02*
X111100000Y-64213000D01*
X107340000Y-61263000D02*
X111100000Y-61263000D01*
D16*
G04 #@! TO.C,J1*
X101787000Y-61655000D02*
X100457000Y-61655000D01*
X101787000Y-60325000D02*
X101787000Y-61655000D01*
X101787000Y-59055000D02*
X99127000Y-59055000D01*
X99127000Y-59055000D02*
X99127000Y-51375000D01*
X101787000Y-59055000D02*
X101787000Y-51375000D01*
X101787000Y-51375000D02*
X99127000Y-51375000D01*
D13*
G04 #@! TO.C,U1*
X107838000Y-58463000D02*
X107838000Y-59863000D01*
X112938000Y-58463000D02*
X112938000Y-54313000D01*
X107788000Y-58463000D02*
X107788000Y-54313000D01*
X112938000Y-58463000D02*
X112793000Y-58463000D01*
X112938000Y-54313000D02*
X112793000Y-54313000D01*
X107788000Y-54313000D02*
X107933000Y-54313000D01*
X107788000Y-58463000D02*
X107838000Y-58463000D01*
D16*
G04 #@! TO.C,J2*
X114494000Y-51375000D02*
X115824000Y-51375000D01*
X114494000Y-52705000D02*
X114494000Y-51375000D01*
X114494000Y-53975000D02*
X117154000Y-53975000D01*
X117154000Y-53975000D02*
X117154000Y-61655000D01*
X114494000Y-53975000D02*
X114494000Y-61655000D01*
X114494000Y-61655000D02*
X117154000Y-61655000D01*
G04 #@! TO.C,C1*
X113149748Y-63956000D02*
X113672252Y-63956000D01*
X113149748Y-62536000D02*
X113672252Y-62536000D01*
G04 #@! TO.C,C2*
X104259748Y-63956000D02*
X104782252Y-63956000D01*
X104259748Y-62536000D02*
X104782252Y-62536000D01*
G04 #@! TO.C,C3*
X105925252Y-52884000D02*
X105402748Y-52884000D01*
X105925252Y-54304000D02*
X105402748Y-54304000D01*
G04 #@! TO.C,R1*
X104782252Y-60377000D02*
X104259748Y-60377000D01*
X104782252Y-61797000D02*
X104259748Y-61797000D01*
G04 #@! TO.C,SW1*
D17*
X104237720Y-58298486D02*
X104329303Y-58329014D01*
X104481942Y-58329014D01*
X104542998Y-58298486D01*
X104573526Y-58267958D01*
X104604054Y-58206903D01*
X104604054Y-58145847D01*
X104573526Y-58084791D01*
X104542998Y-58054263D01*
X104481942Y-58023736D01*
X104359831Y-57993208D01*
X104298775Y-57962680D01*
X104268247Y-57932152D01*
X104237720Y-57871096D01*
X104237720Y-57810041D01*
X104268247Y-57748985D01*
X104298775Y-57718457D01*
X104359831Y-57687929D01*
X104512470Y-57687929D01*
X104604054Y-57718457D01*
X104817749Y-57687929D02*
X104970388Y-58329014D01*
X105092500Y-57871096D01*
X105214611Y-58329014D01*
X105367250Y-57687929D01*
X105947280Y-58329014D02*
X105580945Y-58329014D01*
X105764112Y-58329014D02*
X105764112Y-57687929D01*
X105703057Y-57779513D01*
X105642001Y-57840568D01*
X105580945Y-57871096D01*
G04 #@! TO.C,MK1*
D10*
X107033190Y-63392761D02*
X106533190Y-63392761D01*
X106890333Y-63226095D01*
X106533190Y-63059428D01*
X107033190Y-63059428D01*
X107033190Y-62821333D02*
X106533190Y-62821333D01*
X107033190Y-62535619D02*
X106747476Y-62749904D01*
X106533190Y-62535619D02*
X106818904Y-62821333D01*
X107033190Y-62059428D02*
X107033190Y-62345142D01*
X107033190Y-62202285D02*
X106533190Y-62202285D01*
X106604619Y-62249904D01*
X106652238Y-62297523D01*
X106676047Y-62345142D01*
G04 #@! TO.C,J1*
X100285253Y-61905390D02*
X100285253Y-62262533D01*
X100261443Y-62333961D01*
X100213824Y-62381580D01*
X100142396Y-62405390D01*
X100094777Y-62405390D01*
X100785253Y-62405390D02*
X100499539Y-62405390D01*
X100642396Y-62405390D02*
X100642396Y-61905390D01*
X100594777Y-61976819D01*
X100547158Y-62024438D01*
X100499539Y-62048247D01*
G04 #@! TO.C,U1*
X106914190Y-58610452D02*
X107318952Y-58610452D01*
X107366571Y-58586642D01*
X107390380Y-58562833D01*
X107414190Y-58515214D01*
X107414190Y-58419976D01*
X107390380Y-58372357D01*
X107366571Y-58348547D01*
X107318952Y-58324738D01*
X106914190Y-58324738D01*
X107414190Y-57824738D02*
X107414190Y-58110452D01*
X107414190Y-57967595D02*
X106914190Y-57967595D01*
X106985619Y-58015214D01*
X107033238Y-58062833D01*
X107057047Y-58110452D01*
G04 #@! TO.C,J2*
X115703053Y-50655730D02*
X115703053Y-51012873D01*
X115679243Y-51084301D01*
X115631624Y-51131920D01*
X115560196Y-51155730D01*
X115512577Y-51155730D01*
X115917339Y-50703349D02*
X115941148Y-50679540D01*
X115988767Y-50655730D01*
X116107815Y-50655730D01*
X116155434Y-50679540D01*
X116179243Y-50703349D01*
X116203053Y-50750968D01*
X116203053Y-50798587D01*
X116179243Y-50870016D01*
X115893529Y-51155730D01*
X116203053Y-51155730D01*
G04 #@! TO.C,C1*
X115939071Y-63329333D02*
X115962880Y-63353142D01*
X115986690Y-63424571D01*
X115986690Y-63472190D01*
X115962880Y-63543619D01*
X115915261Y-63591238D01*
X115867642Y-63615047D01*
X115772404Y-63638857D01*
X115700976Y-63638857D01*
X115605738Y-63615047D01*
X115558119Y-63591238D01*
X115510500Y-63543619D01*
X115486690Y-63472190D01*
X115486690Y-63424571D01*
X115510500Y-63353142D01*
X115534309Y-63329333D01*
X115986690Y-62853142D02*
X115986690Y-63138857D01*
X115986690Y-62996000D02*
X115486690Y-62996000D01*
X115558119Y-63043619D01*
X115605738Y-63091238D01*
X115629547Y-63138857D01*
G04 #@! TO.C,C2*
X102223071Y-63329333D02*
X102246880Y-63353142D01*
X102270690Y-63424571D01*
X102270690Y-63472190D01*
X102246880Y-63543619D01*
X102199261Y-63591238D01*
X102151642Y-63615047D01*
X102056404Y-63638857D01*
X101984976Y-63638857D01*
X101889738Y-63615047D01*
X101842119Y-63591238D01*
X101794500Y-63543619D01*
X101770690Y-63472190D01*
X101770690Y-63424571D01*
X101794500Y-63353142D01*
X101818309Y-63329333D01*
X101818309Y-63138857D02*
X101794500Y-63115047D01*
X101770690Y-63067428D01*
X101770690Y-62948380D01*
X101794500Y-62900761D01*
X101818309Y-62876952D01*
X101865928Y-62853142D01*
X101913547Y-62853142D01*
X101984976Y-62876952D01*
X102270690Y-63162666D01*
X102270690Y-62853142D01*
G04 #@! TO.C,C3*
X103800411Y-53674793D02*
X103824220Y-53698602D01*
X103848030Y-53770031D01*
X103848030Y-53817650D01*
X103824220Y-53889079D01*
X103776601Y-53936698D01*
X103728982Y-53960507D01*
X103633744Y-53984317D01*
X103562316Y-53984317D01*
X103467078Y-53960507D01*
X103419459Y-53936698D01*
X103371840Y-53889079D01*
X103348030Y-53817650D01*
X103348030Y-53770031D01*
X103371840Y-53698602D01*
X103395649Y-53674793D01*
X103348030Y-53508126D02*
X103348030Y-53198602D01*
X103538506Y-53365269D01*
X103538506Y-53293840D01*
X103562316Y-53246221D01*
X103586125Y-53222412D01*
X103633744Y-53198602D01*
X103752792Y-53198602D01*
X103800411Y-53222412D01*
X103824220Y-53246221D01*
X103848030Y-53293840D01*
X103848030Y-53436698D01*
X103824220Y-53484317D01*
X103800411Y-53508126D01*
G04 #@! TO.C,R1*
X103548666Y-59979690D02*
X103382000Y-59741595D01*
X103262952Y-59979690D02*
X103262952Y-59479690D01*
X103453428Y-59479690D01*
X103501047Y-59503500D01*
X103524857Y-59527309D01*
X103548666Y-59574928D01*
X103548666Y-59646357D01*
X103524857Y-59693976D01*
X103501047Y-59717785D01*
X103453428Y-59741595D01*
X103262952Y-59741595D01*
X104024857Y-59979690D02*
X103739142Y-59979690D01*
X103882000Y-59979690D02*
X103882000Y-59479690D01*
X103834380Y-59551119D01*
X103786761Y-59598738D01*
X103739142Y-59622547D01*
G04 #@! TD*
M02*
