G04 #@! TF.GenerationSoftware,KiCad,Pcbnew,(5.0.1)-4*
G04 #@! TF.CreationDate,2019-02-09T15:25:37-05:00*
G04 #@! TF.ProjectId,noname.kicad_pcb_V1_2,6E6F6E616D652E6B696361645F706362,rev?*
G04 #@! TF.SameCoordinates,Original*
G04 #@! TF.FileFunction,Paste,Top*
G04 #@! TF.FilePolarity,Positive*
%FSLAX46Y46*%
G04 Gerber Fmt 4.6, Leading zero omitted, Abs format (unit mm)*
G04 Created by KiCad (PCBNEW (5.0.1)-4) date 2/9/2019 3:25:37 PM*
%MOMM*%
%LPD*%
G01*
G04 APERTURE LIST*
%ADD10R,0.800000X1.700000*%
%ADD11C,0.800000*%
%ADD12R,0.600000X1.550000*%
%ADD13C,0.100000*%
%ADD14C,1.150000*%
G04 APERTURE END LIST*
D10*
G04 #@! TO.C,SW1*
X103392500Y-56007000D03*
X106792500Y-56007000D03*
G04 #@! TD*
D11*
G04 #@! TO.C,MK1*
X110450000Y-61888000D03*
X107990000Y-61888000D03*
X107990000Y-63588000D03*
X110450000Y-63588000D03*
G04 #@! TD*
D12*
G04 #@! TO.C,U1*
X108458000Y-53688000D03*
X109728000Y-53688000D03*
X110998000Y-53688000D03*
X112268000Y-53688000D03*
X112268000Y-59088000D03*
X110998000Y-59088000D03*
X109728000Y-59088000D03*
X108458000Y-59088000D03*
G04 #@! TD*
D13*
G04 #@! TO.C,C1*
G36*
X114785505Y-62547204D02*
X114809773Y-62550804D01*
X114833572Y-62556765D01*
X114856671Y-62565030D01*
X114878850Y-62575520D01*
X114899893Y-62588132D01*
X114919599Y-62602747D01*
X114937777Y-62619223D01*
X114954253Y-62637401D01*
X114968868Y-62657107D01*
X114981480Y-62678150D01*
X114991970Y-62700329D01*
X115000235Y-62723428D01*
X115006196Y-62747227D01*
X115009796Y-62771495D01*
X115011000Y-62795999D01*
X115011000Y-63696001D01*
X115009796Y-63720505D01*
X115006196Y-63744773D01*
X115000235Y-63768572D01*
X114991970Y-63791671D01*
X114981480Y-63813850D01*
X114968868Y-63834893D01*
X114954253Y-63854599D01*
X114937777Y-63872777D01*
X114919599Y-63889253D01*
X114899893Y-63903868D01*
X114878850Y-63916480D01*
X114856671Y-63926970D01*
X114833572Y-63935235D01*
X114809773Y-63941196D01*
X114785505Y-63944796D01*
X114761001Y-63946000D01*
X114110999Y-63946000D01*
X114086495Y-63944796D01*
X114062227Y-63941196D01*
X114038428Y-63935235D01*
X114015329Y-63926970D01*
X113993150Y-63916480D01*
X113972107Y-63903868D01*
X113952401Y-63889253D01*
X113934223Y-63872777D01*
X113917747Y-63854599D01*
X113903132Y-63834893D01*
X113890520Y-63813850D01*
X113880030Y-63791671D01*
X113871765Y-63768572D01*
X113865804Y-63744773D01*
X113862204Y-63720505D01*
X113861000Y-63696001D01*
X113861000Y-62795999D01*
X113862204Y-62771495D01*
X113865804Y-62747227D01*
X113871765Y-62723428D01*
X113880030Y-62700329D01*
X113890520Y-62678150D01*
X113903132Y-62657107D01*
X113917747Y-62637401D01*
X113934223Y-62619223D01*
X113952401Y-62602747D01*
X113972107Y-62588132D01*
X113993150Y-62575520D01*
X114015329Y-62565030D01*
X114038428Y-62556765D01*
X114062227Y-62550804D01*
X114086495Y-62547204D01*
X114110999Y-62546000D01*
X114761001Y-62546000D01*
X114785505Y-62547204D01*
X114785505Y-62547204D01*
G37*
D14*
X114436000Y-63246000D03*
D13*
G36*
X112735505Y-62547204D02*
X112759773Y-62550804D01*
X112783572Y-62556765D01*
X112806671Y-62565030D01*
X112828850Y-62575520D01*
X112849893Y-62588132D01*
X112869599Y-62602747D01*
X112887777Y-62619223D01*
X112904253Y-62637401D01*
X112918868Y-62657107D01*
X112931480Y-62678150D01*
X112941970Y-62700329D01*
X112950235Y-62723428D01*
X112956196Y-62747227D01*
X112959796Y-62771495D01*
X112961000Y-62795999D01*
X112961000Y-63696001D01*
X112959796Y-63720505D01*
X112956196Y-63744773D01*
X112950235Y-63768572D01*
X112941970Y-63791671D01*
X112931480Y-63813850D01*
X112918868Y-63834893D01*
X112904253Y-63854599D01*
X112887777Y-63872777D01*
X112869599Y-63889253D01*
X112849893Y-63903868D01*
X112828850Y-63916480D01*
X112806671Y-63926970D01*
X112783572Y-63935235D01*
X112759773Y-63941196D01*
X112735505Y-63944796D01*
X112711001Y-63946000D01*
X112060999Y-63946000D01*
X112036495Y-63944796D01*
X112012227Y-63941196D01*
X111988428Y-63935235D01*
X111965329Y-63926970D01*
X111943150Y-63916480D01*
X111922107Y-63903868D01*
X111902401Y-63889253D01*
X111884223Y-63872777D01*
X111867747Y-63854599D01*
X111853132Y-63834893D01*
X111840520Y-63813850D01*
X111830030Y-63791671D01*
X111821765Y-63768572D01*
X111815804Y-63744773D01*
X111812204Y-63720505D01*
X111811000Y-63696001D01*
X111811000Y-62795999D01*
X111812204Y-62771495D01*
X111815804Y-62747227D01*
X111821765Y-62723428D01*
X111830030Y-62700329D01*
X111840520Y-62678150D01*
X111853132Y-62657107D01*
X111867747Y-62637401D01*
X111884223Y-62619223D01*
X111902401Y-62602747D01*
X111922107Y-62588132D01*
X111943150Y-62575520D01*
X111965329Y-62565030D01*
X111988428Y-62556765D01*
X112012227Y-62550804D01*
X112036495Y-62547204D01*
X112060999Y-62546000D01*
X112711001Y-62546000D01*
X112735505Y-62547204D01*
X112735505Y-62547204D01*
G37*
D14*
X112386000Y-63246000D03*
G04 #@! TD*
D13*
G04 #@! TO.C,C2*
G36*
X105895505Y-62547204D02*
X105919773Y-62550804D01*
X105943572Y-62556765D01*
X105966671Y-62565030D01*
X105988850Y-62575520D01*
X106009893Y-62588132D01*
X106029599Y-62602747D01*
X106047777Y-62619223D01*
X106064253Y-62637401D01*
X106078868Y-62657107D01*
X106091480Y-62678150D01*
X106101970Y-62700329D01*
X106110235Y-62723428D01*
X106116196Y-62747227D01*
X106119796Y-62771495D01*
X106121000Y-62795999D01*
X106121000Y-63696001D01*
X106119796Y-63720505D01*
X106116196Y-63744773D01*
X106110235Y-63768572D01*
X106101970Y-63791671D01*
X106091480Y-63813850D01*
X106078868Y-63834893D01*
X106064253Y-63854599D01*
X106047777Y-63872777D01*
X106029599Y-63889253D01*
X106009893Y-63903868D01*
X105988850Y-63916480D01*
X105966671Y-63926970D01*
X105943572Y-63935235D01*
X105919773Y-63941196D01*
X105895505Y-63944796D01*
X105871001Y-63946000D01*
X105220999Y-63946000D01*
X105196495Y-63944796D01*
X105172227Y-63941196D01*
X105148428Y-63935235D01*
X105125329Y-63926970D01*
X105103150Y-63916480D01*
X105082107Y-63903868D01*
X105062401Y-63889253D01*
X105044223Y-63872777D01*
X105027747Y-63854599D01*
X105013132Y-63834893D01*
X105000520Y-63813850D01*
X104990030Y-63791671D01*
X104981765Y-63768572D01*
X104975804Y-63744773D01*
X104972204Y-63720505D01*
X104971000Y-63696001D01*
X104971000Y-62795999D01*
X104972204Y-62771495D01*
X104975804Y-62747227D01*
X104981765Y-62723428D01*
X104990030Y-62700329D01*
X105000520Y-62678150D01*
X105013132Y-62657107D01*
X105027747Y-62637401D01*
X105044223Y-62619223D01*
X105062401Y-62602747D01*
X105082107Y-62588132D01*
X105103150Y-62575520D01*
X105125329Y-62565030D01*
X105148428Y-62556765D01*
X105172227Y-62550804D01*
X105196495Y-62547204D01*
X105220999Y-62546000D01*
X105871001Y-62546000D01*
X105895505Y-62547204D01*
X105895505Y-62547204D01*
G37*
D14*
X105546000Y-63246000D03*
D13*
G36*
X103845505Y-62547204D02*
X103869773Y-62550804D01*
X103893572Y-62556765D01*
X103916671Y-62565030D01*
X103938850Y-62575520D01*
X103959893Y-62588132D01*
X103979599Y-62602747D01*
X103997777Y-62619223D01*
X104014253Y-62637401D01*
X104028868Y-62657107D01*
X104041480Y-62678150D01*
X104051970Y-62700329D01*
X104060235Y-62723428D01*
X104066196Y-62747227D01*
X104069796Y-62771495D01*
X104071000Y-62795999D01*
X104071000Y-63696001D01*
X104069796Y-63720505D01*
X104066196Y-63744773D01*
X104060235Y-63768572D01*
X104051970Y-63791671D01*
X104041480Y-63813850D01*
X104028868Y-63834893D01*
X104014253Y-63854599D01*
X103997777Y-63872777D01*
X103979599Y-63889253D01*
X103959893Y-63903868D01*
X103938850Y-63916480D01*
X103916671Y-63926970D01*
X103893572Y-63935235D01*
X103869773Y-63941196D01*
X103845505Y-63944796D01*
X103821001Y-63946000D01*
X103170999Y-63946000D01*
X103146495Y-63944796D01*
X103122227Y-63941196D01*
X103098428Y-63935235D01*
X103075329Y-63926970D01*
X103053150Y-63916480D01*
X103032107Y-63903868D01*
X103012401Y-63889253D01*
X102994223Y-63872777D01*
X102977747Y-63854599D01*
X102963132Y-63834893D01*
X102950520Y-63813850D01*
X102940030Y-63791671D01*
X102931765Y-63768572D01*
X102925804Y-63744773D01*
X102922204Y-63720505D01*
X102921000Y-63696001D01*
X102921000Y-62795999D01*
X102922204Y-62771495D01*
X102925804Y-62747227D01*
X102931765Y-62723428D01*
X102940030Y-62700329D01*
X102950520Y-62678150D01*
X102963132Y-62657107D01*
X102977747Y-62637401D01*
X102994223Y-62619223D01*
X103012401Y-62602747D01*
X103032107Y-62588132D01*
X103053150Y-62575520D01*
X103075329Y-62565030D01*
X103098428Y-62556765D01*
X103122227Y-62550804D01*
X103146495Y-62547204D01*
X103170999Y-62546000D01*
X103821001Y-62546000D01*
X103845505Y-62547204D01*
X103845505Y-62547204D01*
G37*
D14*
X103496000Y-63246000D03*
G04 #@! TD*
D13*
G04 #@! TO.C,C3*
G36*
X104988505Y-52895204D02*
X105012773Y-52898804D01*
X105036572Y-52904765D01*
X105059671Y-52913030D01*
X105081850Y-52923520D01*
X105102893Y-52936132D01*
X105122599Y-52950747D01*
X105140777Y-52967223D01*
X105157253Y-52985401D01*
X105171868Y-53005107D01*
X105184480Y-53026150D01*
X105194970Y-53048329D01*
X105203235Y-53071428D01*
X105209196Y-53095227D01*
X105212796Y-53119495D01*
X105214000Y-53143999D01*
X105214000Y-54044001D01*
X105212796Y-54068505D01*
X105209196Y-54092773D01*
X105203235Y-54116572D01*
X105194970Y-54139671D01*
X105184480Y-54161850D01*
X105171868Y-54182893D01*
X105157253Y-54202599D01*
X105140777Y-54220777D01*
X105122599Y-54237253D01*
X105102893Y-54251868D01*
X105081850Y-54264480D01*
X105059671Y-54274970D01*
X105036572Y-54283235D01*
X105012773Y-54289196D01*
X104988505Y-54292796D01*
X104964001Y-54294000D01*
X104313999Y-54294000D01*
X104289495Y-54292796D01*
X104265227Y-54289196D01*
X104241428Y-54283235D01*
X104218329Y-54274970D01*
X104196150Y-54264480D01*
X104175107Y-54251868D01*
X104155401Y-54237253D01*
X104137223Y-54220777D01*
X104120747Y-54202599D01*
X104106132Y-54182893D01*
X104093520Y-54161850D01*
X104083030Y-54139671D01*
X104074765Y-54116572D01*
X104068804Y-54092773D01*
X104065204Y-54068505D01*
X104064000Y-54044001D01*
X104064000Y-53143999D01*
X104065204Y-53119495D01*
X104068804Y-53095227D01*
X104074765Y-53071428D01*
X104083030Y-53048329D01*
X104093520Y-53026150D01*
X104106132Y-53005107D01*
X104120747Y-52985401D01*
X104137223Y-52967223D01*
X104155401Y-52950747D01*
X104175107Y-52936132D01*
X104196150Y-52923520D01*
X104218329Y-52913030D01*
X104241428Y-52904765D01*
X104265227Y-52898804D01*
X104289495Y-52895204D01*
X104313999Y-52894000D01*
X104964001Y-52894000D01*
X104988505Y-52895204D01*
X104988505Y-52895204D01*
G37*
D14*
X104639000Y-53594000D03*
D13*
G36*
X107038505Y-52895204D02*
X107062773Y-52898804D01*
X107086572Y-52904765D01*
X107109671Y-52913030D01*
X107131850Y-52923520D01*
X107152893Y-52936132D01*
X107172599Y-52950747D01*
X107190777Y-52967223D01*
X107207253Y-52985401D01*
X107221868Y-53005107D01*
X107234480Y-53026150D01*
X107244970Y-53048329D01*
X107253235Y-53071428D01*
X107259196Y-53095227D01*
X107262796Y-53119495D01*
X107264000Y-53143999D01*
X107264000Y-54044001D01*
X107262796Y-54068505D01*
X107259196Y-54092773D01*
X107253235Y-54116572D01*
X107244970Y-54139671D01*
X107234480Y-54161850D01*
X107221868Y-54182893D01*
X107207253Y-54202599D01*
X107190777Y-54220777D01*
X107172599Y-54237253D01*
X107152893Y-54251868D01*
X107131850Y-54264480D01*
X107109671Y-54274970D01*
X107086572Y-54283235D01*
X107062773Y-54289196D01*
X107038505Y-54292796D01*
X107014001Y-54294000D01*
X106363999Y-54294000D01*
X106339495Y-54292796D01*
X106315227Y-54289196D01*
X106291428Y-54283235D01*
X106268329Y-54274970D01*
X106246150Y-54264480D01*
X106225107Y-54251868D01*
X106205401Y-54237253D01*
X106187223Y-54220777D01*
X106170747Y-54202599D01*
X106156132Y-54182893D01*
X106143520Y-54161850D01*
X106133030Y-54139671D01*
X106124765Y-54116572D01*
X106118804Y-54092773D01*
X106115204Y-54068505D01*
X106114000Y-54044001D01*
X106114000Y-53143999D01*
X106115204Y-53119495D01*
X106118804Y-53095227D01*
X106124765Y-53071428D01*
X106133030Y-53048329D01*
X106143520Y-53026150D01*
X106156132Y-53005107D01*
X106170747Y-52985401D01*
X106187223Y-52967223D01*
X106205401Y-52950747D01*
X106225107Y-52936132D01*
X106246150Y-52923520D01*
X106268329Y-52913030D01*
X106291428Y-52904765D01*
X106315227Y-52898804D01*
X106339495Y-52895204D01*
X106363999Y-52894000D01*
X107014001Y-52894000D01*
X107038505Y-52895204D01*
X107038505Y-52895204D01*
G37*
D14*
X106689000Y-53594000D03*
G04 #@! TD*
D13*
G04 #@! TO.C,R1*
G36*
X103845505Y-60388204D02*
X103869773Y-60391804D01*
X103893572Y-60397765D01*
X103916671Y-60406030D01*
X103938850Y-60416520D01*
X103959893Y-60429132D01*
X103979599Y-60443747D01*
X103997777Y-60460223D01*
X104014253Y-60478401D01*
X104028868Y-60498107D01*
X104041480Y-60519150D01*
X104051970Y-60541329D01*
X104060235Y-60564428D01*
X104066196Y-60588227D01*
X104069796Y-60612495D01*
X104071000Y-60636999D01*
X104071000Y-61537001D01*
X104069796Y-61561505D01*
X104066196Y-61585773D01*
X104060235Y-61609572D01*
X104051970Y-61632671D01*
X104041480Y-61654850D01*
X104028868Y-61675893D01*
X104014253Y-61695599D01*
X103997777Y-61713777D01*
X103979599Y-61730253D01*
X103959893Y-61744868D01*
X103938850Y-61757480D01*
X103916671Y-61767970D01*
X103893572Y-61776235D01*
X103869773Y-61782196D01*
X103845505Y-61785796D01*
X103821001Y-61787000D01*
X103170999Y-61787000D01*
X103146495Y-61785796D01*
X103122227Y-61782196D01*
X103098428Y-61776235D01*
X103075329Y-61767970D01*
X103053150Y-61757480D01*
X103032107Y-61744868D01*
X103012401Y-61730253D01*
X102994223Y-61713777D01*
X102977747Y-61695599D01*
X102963132Y-61675893D01*
X102950520Y-61654850D01*
X102940030Y-61632671D01*
X102931765Y-61609572D01*
X102925804Y-61585773D01*
X102922204Y-61561505D01*
X102921000Y-61537001D01*
X102921000Y-60636999D01*
X102922204Y-60612495D01*
X102925804Y-60588227D01*
X102931765Y-60564428D01*
X102940030Y-60541329D01*
X102950520Y-60519150D01*
X102963132Y-60498107D01*
X102977747Y-60478401D01*
X102994223Y-60460223D01*
X103012401Y-60443747D01*
X103032107Y-60429132D01*
X103053150Y-60416520D01*
X103075329Y-60406030D01*
X103098428Y-60397765D01*
X103122227Y-60391804D01*
X103146495Y-60388204D01*
X103170999Y-60387000D01*
X103821001Y-60387000D01*
X103845505Y-60388204D01*
X103845505Y-60388204D01*
G37*
D14*
X103496000Y-61087000D03*
D13*
G36*
X105895505Y-60388204D02*
X105919773Y-60391804D01*
X105943572Y-60397765D01*
X105966671Y-60406030D01*
X105988850Y-60416520D01*
X106009893Y-60429132D01*
X106029599Y-60443747D01*
X106047777Y-60460223D01*
X106064253Y-60478401D01*
X106078868Y-60498107D01*
X106091480Y-60519150D01*
X106101970Y-60541329D01*
X106110235Y-60564428D01*
X106116196Y-60588227D01*
X106119796Y-60612495D01*
X106121000Y-60636999D01*
X106121000Y-61537001D01*
X106119796Y-61561505D01*
X106116196Y-61585773D01*
X106110235Y-61609572D01*
X106101970Y-61632671D01*
X106091480Y-61654850D01*
X106078868Y-61675893D01*
X106064253Y-61695599D01*
X106047777Y-61713777D01*
X106029599Y-61730253D01*
X106009893Y-61744868D01*
X105988850Y-61757480D01*
X105966671Y-61767970D01*
X105943572Y-61776235D01*
X105919773Y-61782196D01*
X105895505Y-61785796D01*
X105871001Y-61787000D01*
X105220999Y-61787000D01*
X105196495Y-61785796D01*
X105172227Y-61782196D01*
X105148428Y-61776235D01*
X105125329Y-61767970D01*
X105103150Y-61757480D01*
X105082107Y-61744868D01*
X105062401Y-61730253D01*
X105044223Y-61713777D01*
X105027747Y-61695599D01*
X105013132Y-61675893D01*
X105000520Y-61654850D01*
X104990030Y-61632671D01*
X104981765Y-61609572D01*
X104975804Y-61585773D01*
X104972204Y-61561505D01*
X104971000Y-61537001D01*
X104971000Y-60636999D01*
X104972204Y-60612495D01*
X104975804Y-60588227D01*
X104981765Y-60564428D01*
X104990030Y-60541329D01*
X105000520Y-60519150D01*
X105013132Y-60498107D01*
X105027747Y-60478401D01*
X105044223Y-60460223D01*
X105062401Y-60443747D01*
X105082107Y-60429132D01*
X105103150Y-60416520D01*
X105125329Y-60406030D01*
X105148428Y-60397765D01*
X105172227Y-60391804D01*
X105196495Y-60388204D01*
X105220999Y-60387000D01*
X105871001Y-60387000D01*
X105895505Y-60388204D01*
X105895505Y-60388204D01*
G37*
D14*
X105546000Y-61087000D03*
G04 #@! TD*
M02*
