G04 #@! TF.GenerationSoftware,KiCad,Pcbnew,(5.0.1)-4*
G04 #@! TF.CreationDate,2019-02-09T15:25:37-05:00*
G04 #@! TF.ProjectId,noname.kicad_pcb_V1_2,6E6F6E616D652E6B696361645F706362,rev?*
G04 #@! TF.SameCoordinates,Original*
G04 #@! TF.FileFunction,Legend,Bot*
G04 #@! TF.FilePolarity,Positive*
%FSLAX46Y46*%
G04 Gerber Fmt 4.6, Leading zero omitted, Abs format (unit mm)*
G04 Created by KiCad (PCBNEW (5.0.1)-4) date 2/9/2019 3:25:37 PM*
%MOMM*%
%LPD*%
G01*
G04 APERTURE LIST*
%ADD10C,0.125000*%
%ADD11C,0.300000*%
%ADD12C,0.127000*%
G04 APERTURE END LIST*
D10*
X117450952Y-64551690D02*
X117450952Y-64051690D01*
X117165238Y-64551690D02*
X117379523Y-64265976D01*
X117165238Y-64051690D02*
X117450952Y-64337404D01*
X116760476Y-64527880D02*
X116808095Y-64551690D01*
X116903333Y-64551690D01*
X116950952Y-64527880D01*
X116974761Y-64480261D01*
X116974761Y-64289785D01*
X116950952Y-64242166D01*
X116903333Y-64218357D01*
X116808095Y-64218357D01*
X116760476Y-64242166D01*
X116736666Y-64289785D01*
X116736666Y-64337404D01*
X116974761Y-64385023D01*
X116570000Y-64218357D02*
X116450952Y-64551690D01*
X116331904Y-64218357D02*
X116450952Y-64551690D01*
X116498571Y-64670738D01*
X116522380Y-64694547D01*
X116570000Y-64718357D01*
X115593809Y-64289785D02*
X115760476Y-64289785D01*
X115760476Y-64551690D02*
X115760476Y-64051690D01*
X115522380Y-64051690D01*
X115331904Y-64551690D02*
X115331904Y-64218357D01*
X115331904Y-64051690D02*
X115355714Y-64075500D01*
X115331904Y-64099309D01*
X115308095Y-64075500D01*
X115331904Y-64051690D01*
X115331904Y-64099309D01*
X115093809Y-64218357D02*
X115093809Y-64551690D01*
X115093809Y-64265976D02*
X115070000Y-64242166D01*
X115022380Y-64218357D01*
X114950952Y-64218357D01*
X114903333Y-64242166D01*
X114879523Y-64289785D01*
X114879523Y-64551690D01*
X114427142Y-64551690D02*
X114427142Y-64051690D01*
X114427142Y-64527880D02*
X114474761Y-64551690D01*
X114570000Y-64551690D01*
X114617619Y-64527880D01*
X114641428Y-64504071D01*
X114665238Y-64456452D01*
X114665238Y-64313595D01*
X114641428Y-64265976D01*
X114617619Y-64242166D01*
X114570000Y-64218357D01*
X114474761Y-64218357D01*
X114427142Y-64242166D01*
X113998571Y-64527880D02*
X114046190Y-64551690D01*
X114141428Y-64551690D01*
X114189047Y-64527880D01*
X114212857Y-64480261D01*
X114212857Y-64289785D01*
X114189047Y-64242166D01*
X114141428Y-64218357D01*
X114046190Y-64218357D01*
X113998571Y-64242166D01*
X113974761Y-64289785D01*
X113974761Y-64337404D01*
X114212857Y-64385023D01*
X113760476Y-64551690D02*
X113760476Y-64218357D01*
X113760476Y-64313595D02*
X113736666Y-64265976D01*
X113712857Y-64242166D01*
X113665238Y-64218357D01*
X113617619Y-64218357D01*
X112894880Y-64353285D02*
X112823452Y-64377095D01*
X112799642Y-64400904D01*
X112775833Y-64448523D01*
X112775833Y-64519952D01*
X112799642Y-64567571D01*
X112823452Y-64591380D01*
X112871071Y-64615190D01*
X113061547Y-64615190D01*
X113061547Y-64115190D01*
X112894880Y-64115190D01*
X112847261Y-64139000D01*
X112823452Y-64162809D01*
X112799642Y-64210428D01*
X112799642Y-64258047D01*
X112823452Y-64305666D01*
X112847261Y-64329476D01*
X112894880Y-64353285D01*
X113061547Y-64353285D01*
X112561547Y-64567571D02*
X112537738Y-64591380D01*
X112561547Y-64615190D01*
X112585357Y-64591380D01*
X112561547Y-64567571D01*
X112561547Y-64615190D01*
X112061547Y-64139000D02*
X112109166Y-64115190D01*
X112180595Y-64115190D01*
X112252023Y-64139000D01*
X112299642Y-64186619D01*
X112323452Y-64234238D01*
X112347261Y-64329476D01*
X112347261Y-64400904D01*
X112323452Y-64496142D01*
X112299642Y-64543761D01*
X112252023Y-64591380D01*
X112180595Y-64615190D01*
X112132976Y-64615190D01*
X112061547Y-64591380D01*
X112037738Y-64567571D01*
X112037738Y-64400904D01*
X112132976Y-64400904D01*
X111823452Y-64567571D02*
X111799642Y-64591380D01*
X111823452Y-64615190D01*
X111847261Y-64591380D01*
X111823452Y-64567571D01*
X111823452Y-64615190D01*
X111275833Y-64115190D02*
X111109166Y-64615190D01*
X110942500Y-64115190D01*
X110513928Y-64615190D02*
X110799642Y-64615190D01*
X110656785Y-64615190D02*
X110656785Y-64115190D01*
X110704404Y-64186619D01*
X110752023Y-64234238D01*
X110799642Y-64258047D01*
X110299642Y-64567571D02*
X110275833Y-64591380D01*
X110299642Y-64615190D01*
X110323452Y-64591380D01*
X110299642Y-64567571D01*
X110299642Y-64615190D01*
X109799642Y-64615190D02*
X110085357Y-64615190D01*
X109942500Y-64615190D02*
X109942500Y-64115190D01*
X109990119Y-64186619D01*
X110037738Y-64234238D01*
X110085357Y-64258047D01*
D11*
G04 #@! TO.C,LS1*
X113833480Y-54995440D02*
G75*
G03X113833480Y-54995440I-150000J0D01*
G01*
D12*
X113083480Y-61995440D02*
X113083480Y-59495440D01*
X104083480Y-61995440D02*
X113083480Y-61995440D01*
X104083480Y-59495440D02*
X104083480Y-61995440D01*
X104083480Y-52995440D02*
X104083480Y-55495440D01*
X113083480Y-52995440D02*
X104083480Y-52995440D01*
X113083480Y-55495440D02*
X113083480Y-52995440D01*
G04 #@! TD*
M02*
