G04 #@! TF.GenerationSoftware,KiCad,Pcbnew,(5.0.1)-4*
G04 #@! TF.CreationDate,2019-02-09T15:25:37-05:00*
G04 #@! TF.ProjectId,noname.kicad_pcb_V1_2,6E6F6E616D652E6B696361645F706362,rev?*
G04 #@! TF.SameCoordinates,Original*
G04 #@! TF.FileFunction,Copper,L1,Top,Signal*
G04 #@! TF.FilePolarity,Positive*
%FSLAX46Y46*%
G04 Gerber Fmt 4.6, Leading zero omitted, Abs format (unit mm)*
G04 Created by KiCad (PCBNEW (5.0.1)-4) date 2/9/2019 3:25:37 PM*
%MOMM*%
%LPD*%
G01*
G04 APERTURE LIST*
G04 #@! TA.AperFunction,SMDPad,CuDef*
%ADD10R,0.800000X1.700000*%
G04 #@! TD*
G04 #@! TA.AperFunction,BGAPad,CuDef*
%ADD11C,0.800000*%
G04 #@! TD*
G04 #@! TA.AperFunction,ComponentPad*
%ADD12O,1.700000X1.700000*%
G04 #@! TD*
G04 #@! TA.AperFunction,ComponentPad*
%ADD13R,1.700000X1.700000*%
G04 #@! TD*
G04 #@! TA.AperFunction,SMDPad,CuDef*
%ADD14R,0.600000X1.550000*%
G04 #@! TD*
G04 #@! TA.AperFunction,Conductor*
%ADD15C,0.100000*%
G04 #@! TD*
G04 #@! TA.AperFunction,SMDPad,CuDef*
%ADD16C,1.150000*%
G04 #@! TD*
G04 #@! TA.AperFunction,ViaPad*
%ADD17C,0.800000*%
G04 #@! TD*
G04 #@! TA.AperFunction,ViaPad*
%ADD18C,0.685800*%
G04 #@! TD*
G04 #@! TA.AperFunction,Conductor*
%ADD19C,0.152400*%
G04 #@! TD*
G04 #@! TA.AperFunction,Conductor*
%ADD20C,0.250000*%
G04 #@! TD*
G04 #@! TA.AperFunction,Conductor*
%ADD21C,0.254000*%
G04 #@! TD*
G04 APERTURE END LIST*
D10*
G04 #@! TO.P,SW1,1*
G04 #@! TO.N,GND*
X103392500Y-56007000D03*
G04 #@! TO.P,SW1,2*
G04 #@! TO.N,PB2*
X106792500Y-56007000D03*
G04 #@! TD*
D11*
G04 #@! TO.P,MK1,4*
G04 #@! TO.N,PB3*
X110450000Y-61888000D03*
G04 #@! TO.P,MK1,3*
G04 #@! TO.N,Net-(MK1-Pad3)*
X107990000Y-61888000D03*
G04 #@! TO.P,MK1,2*
G04 #@! TO.N,GND*
X107990000Y-63588000D03*
G04 #@! TO.P,MK1,1*
G04 #@! TO.N,+2V8*
X110450000Y-63588000D03*
G04 #@! TD*
D12*
G04 #@! TO.P,J1,4*
G04 #@! TO.N,PB0*
X100457000Y-52705000D03*
G04 #@! TO.P,J1,3*
G04 #@! TO.N,Reset*
X100457000Y-55245000D03*
G04 #@! TO.P,J1,2*
G04 #@! TO.N,GND*
X100457000Y-57785000D03*
D13*
G04 #@! TO.P,J1,1*
G04 #@! TO.N,+2V8*
X100457000Y-60325000D03*
G04 #@! TD*
D14*
G04 #@! TO.P,U1,8*
G04 #@! TO.N,+2V8*
X108458000Y-53688000D03*
G04 #@! TO.P,U1,7*
G04 #@! TO.N,PB2*
X109728000Y-53688000D03*
G04 #@! TO.P,U1,6*
G04 #@! TO.N,PB1*
X110998000Y-53688000D03*
G04 #@! TO.P,U1,5*
G04 #@! TO.N,PB0*
X112268000Y-53688000D03*
G04 #@! TO.P,U1,4*
G04 #@! TO.N,GND*
X112268000Y-59088000D03*
G04 #@! TO.P,U1,3*
G04 #@! TO.N,PB4*
X110998000Y-59088000D03*
G04 #@! TO.P,U1,2*
G04 #@! TO.N,PB3*
X109728000Y-59088000D03*
G04 #@! TO.P,U1,1*
G04 #@! TO.N,Reset*
X108458000Y-59088000D03*
G04 #@! TD*
D12*
G04 #@! TO.P,J2,4*
G04 #@! TO.N,PB4*
X115824000Y-60325000D03*
G04 #@! TO.P,J2,3*
G04 #@! TO.N,PB3*
X115824000Y-57785000D03*
G04 #@! TO.P,J2,2*
G04 #@! TO.N,PB2*
X115824000Y-55245000D03*
D13*
G04 #@! TO.P,J2,1*
G04 #@! TO.N,PB1*
X115824000Y-52705000D03*
G04 #@! TD*
D15*
G04 #@! TO.N,GND*
G04 #@! TO.C,C1*
G36*
X114785505Y-62547204D02*
X114809773Y-62550804D01*
X114833572Y-62556765D01*
X114856671Y-62565030D01*
X114878850Y-62575520D01*
X114899893Y-62588132D01*
X114919599Y-62602747D01*
X114937777Y-62619223D01*
X114954253Y-62637401D01*
X114968868Y-62657107D01*
X114981480Y-62678150D01*
X114991970Y-62700329D01*
X115000235Y-62723428D01*
X115006196Y-62747227D01*
X115009796Y-62771495D01*
X115011000Y-62795999D01*
X115011000Y-63696001D01*
X115009796Y-63720505D01*
X115006196Y-63744773D01*
X115000235Y-63768572D01*
X114991970Y-63791671D01*
X114981480Y-63813850D01*
X114968868Y-63834893D01*
X114954253Y-63854599D01*
X114937777Y-63872777D01*
X114919599Y-63889253D01*
X114899893Y-63903868D01*
X114878850Y-63916480D01*
X114856671Y-63926970D01*
X114833572Y-63935235D01*
X114809773Y-63941196D01*
X114785505Y-63944796D01*
X114761001Y-63946000D01*
X114110999Y-63946000D01*
X114086495Y-63944796D01*
X114062227Y-63941196D01*
X114038428Y-63935235D01*
X114015329Y-63926970D01*
X113993150Y-63916480D01*
X113972107Y-63903868D01*
X113952401Y-63889253D01*
X113934223Y-63872777D01*
X113917747Y-63854599D01*
X113903132Y-63834893D01*
X113890520Y-63813850D01*
X113880030Y-63791671D01*
X113871765Y-63768572D01*
X113865804Y-63744773D01*
X113862204Y-63720505D01*
X113861000Y-63696001D01*
X113861000Y-62795999D01*
X113862204Y-62771495D01*
X113865804Y-62747227D01*
X113871765Y-62723428D01*
X113880030Y-62700329D01*
X113890520Y-62678150D01*
X113903132Y-62657107D01*
X113917747Y-62637401D01*
X113934223Y-62619223D01*
X113952401Y-62602747D01*
X113972107Y-62588132D01*
X113993150Y-62575520D01*
X114015329Y-62565030D01*
X114038428Y-62556765D01*
X114062227Y-62550804D01*
X114086495Y-62547204D01*
X114110999Y-62546000D01*
X114761001Y-62546000D01*
X114785505Y-62547204D01*
X114785505Y-62547204D01*
G37*
D16*
G04 #@! TD*
G04 #@! TO.P,C1,2*
G04 #@! TO.N,GND*
X114436000Y-63246000D03*
D15*
G04 #@! TO.N,+2V8*
G04 #@! TO.C,C1*
G36*
X112735505Y-62547204D02*
X112759773Y-62550804D01*
X112783572Y-62556765D01*
X112806671Y-62565030D01*
X112828850Y-62575520D01*
X112849893Y-62588132D01*
X112869599Y-62602747D01*
X112887777Y-62619223D01*
X112904253Y-62637401D01*
X112918868Y-62657107D01*
X112931480Y-62678150D01*
X112941970Y-62700329D01*
X112950235Y-62723428D01*
X112956196Y-62747227D01*
X112959796Y-62771495D01*
X112961000Y-62795999D01*
X112961000Y-63696001D01*
X112959796Y-63720505D01*
X112956196Y-63744773D01*
X112950235Y-63768572D01*
X112941970Y-63791671D01*
X112931480Y-63813850D01*
X112918868Y-63834893D01*
X112904253Y-63854599D01*
X112887777Y-63872777D01*
X112869599Y-63889253D01*
X112849893Y-63903868D01*
X112828850Y-63916480D01*
X112806671Y-63926970D01*
X112783572Y-63935235D01*
X112759773Y-63941196D01*
X112735505Y-63944796D01*
X112711001Y-63946000D01*
X112060999Y-63946000D01*
X112036495Y-63944796D01*
X112012227Y-63941196D01*
X111988428Y-63935235D01*
X111965329Y-63926970D01*
X111943150Y-63916480D01*
X111922107Y-63903868D01*
X111902401Y-63889253D01*
X111884223Y-63872777D01*
X111867747Y-63854599D01*
X111853132Y-63834893D01*
X111840520Y-63813850D01*
X111830030Y-63791671D01*
X111821765Y-63768572D01*
X111815804Y-63744773D01*
X111812204Y-63720505D01*
X111811000Y-63696001D01*
X111811000Y-62795999D01*
X111812204Y-62771495D01*
X111815804Y-62747227D01*
X111821765Y-62723428D01*
X111830030Y-62700329D01*
X111840520Y-62678150D01*
X111853132Y-62657107D01*
X111867747Y-62637401D01*
X111884223Y-62619223D01*
X111902401Y-62602747D01*
X111922107Y-62588132D01*
X111943150Y-62575520D01*
X111965329Y-62565030D01*
X111988428Y-62556765D01*
X112012227Y-62550804D01*
X112036495Y-62547204D01*
X112060999Y-62546000D01*
X112711001Y-62546000D01*
X112735505Y-62547204D01*
X112735505Y-62547204D01*
G37*
D16*
G04 #@! TD*
G04 #@! TO.P,C1,1*
G04 #@! TO.N,+2V8*
X112386000Y-63246000D03*
D15*
G04 #@! TO.N,GND*
G04 #@! TO.C,C2*
G36*
X105895505Y-62547204D02*
X105919773Y-62550804D01*
X105943572Y-62556765D01*
X105966671Y-62565030D01*
X105988850Y-62575520D01*
X106009893Y-62588132D01*
X106029599Y-62602747D01*
X106047777Y-62619223D01*
X106064253Y-62637401D01*
X106078868Y-62657107D01*
X106091480Y-62678150D01*
X106101970Y-62700329D01*
X106110235Y-62723428D01*
X106116196Y-62747227D01*
X106119796Y-62771495D01*
X106121000Y-62795999D01*
X106121000Y-63696001D01*
X106119796Y-63720505D01*
X106116196Y-63744773D01*
X106110235Y-63768572D01*
X106101970Y-63791671D01*
X106091480Y-63813850D01*
X106078868Y-63834893D01*
X106064253Y-63854599D01*
X106047777Y-63872777D01*
X106029599Y-63889253D01*
X106009893Y-63903868D01*
X105988850Y-63916480D01*
X105966671Y-63926970D01*
X105943572Y-63935235D01*
X105919773Y-63941196D01*
X105895505Y-63944796D01*
X105871001Y-63946000D01*
X105220999Y-63946000D01*
X105196495Y-63944796D01*
X105172227Y-63941196D01*
X105148428Y-63935235D01*
X105125329Y-63926970D01*
X105103150Y-63916480D01*
X105082107Y-63903868D01*
X105062401Y-63889253D01*
X105044223Y-63872777D01*
X105027747Y-63854599D01*
X105013132Y-63834893D01*
X105000520Y-63813850D01*
X104990030Y-63791671D01*
X104981765Y-63768572D01*
X104975804Y-63744773D01*
X104972204Y-63720505D01*
X104971000Y-63696001D01*
X104971000Y-62795999D01*
X104972204Y-62771495D01*
X104975804Y-62747227D01*
X104981765Y-62723428D01*
X104990030Y-62700329D01*
X105000520Y-62678150D01*
X105013132Y-62657107D01*
X105027747Y-62637401D01*
X105044223Y-62619223D01*
X105062401Y-62602747D01*
X105082107Y-62588132D01*
X105103150Y-62575520D01*
X105125329Y-62565030D01*
X105148428Y-62556765D01*
X105172227Y-62550804D01*
X105196495Y-62547204D01*
X105220999Y-62546000D01*
X105871001Y-62546000D01*
X105895505Y-62547204D01*
X105895505Y-62547204D01*
G37*
D16*
G04 #@! TD*
G04 #@! TO.P,C2,2*
G04 #@! TO.N,GND*
X105546000Y-63246000D03*
D15*
G04 #@! TO.N,Net-(C2-Pad1)*
G04 #@! TO.C,C2*
G36*
X103845505Y-62547204D02*
X103869773Y-62550804D01*
X103893572Y-62556765D01*
X103916671Y-62565030D01*
X103938850Y-62575520D01*
X103959893Y-62588132D01*
X103979599Y-62602747D01*
X103997777Y-62619223D01*
X104014253Y-62637401D01*
X104028868Y-62657107D01*
X104041480Y-62678150D01*
X104051970Y-62700329D01*
X104060235Y-62723428D01*
X104066196Y-62747227D01*
X104069796Y-62771495D01*
X104071000Y-62795999D01*
X104071000Y-63696001D01*
X104069796Y-63720505D01*
X104066196Y-63744773D01*
X104060235Y-63768572D01*
X104051970Y-63791671D01*
X104041480Y-63813850D01*
X104028868Y-63834893D01*
X104014253Y-63854599D01*
X103997777Y-63872777D01*
X103979599Y-63889253D01*
X103959893Y-63903868D01*
X103938850Y-63916480D01*
X103916671Y-63926970D01*
X103893572Y-63935235D01*
X103869773Y-63941196D01*
X103845505Y-63944796D01*
X103821001Y-63946000D01*
X103170999Y-63946000D01*
X103146495Y-63944796D01*
X103122227Y-63941196D01*
X103098428Y-63935235D01*
X103075329Y-63926970D01*
X103053150Y-63916480D01*
X103032107Y-63903868D01*
X103012401Y-63889253D01*
X102994223Y-63872777D01*
X102977747Y-63854599D01*
X102963132Y-63834893D01*
X102950520Y-63813850D01*
X102940030Y-63791671D01*
X102931765Y-63768572D01*
X102925804Y-63744773D01*
X102922204Y-63720505D01*
X102921000Y-63696001D01*
X102921000Y-62795999D01*
X102922204Y-62771495D01*
X102925804Y-62747227D01*
X102931765Y-62723428D01*
X102940030Y-62700329D01*
X102950520Y-62678150D01*
X102963132Y-62657107D01*
X102977747Y-62637401D01*
X102994223Y-62619223D01*
X103012401Y-62602747D01*
X103032107Y-62588132D01*
X103053150Y-62575520D01*
X103075329Y-62565030D01*
X103098428Y-62556765D01*
X103122227Y-62550804D01*
X103146495Y-62547204D01*
X103170999Y-62546000D01*
X103821001Y-62546000D01*
X103845505Y-62547204D01*
X103845505Y-62547204D01*
G37*
D16*
G04 #@! TD*
G04 #@! TO.P,C2,1*
G04 #@! TO.N,Net-(C2-Pad1)*
X103496000Y-63246000D03*
D15*
G04 #@! TO.N,GND*
G04 #@! TO.C,C3*
G36*
X104988505Y-52895204D02*
X105012773Y-52898804D01*
X105036572Y-52904765D01*
X105059671Y-52913030D01*
X105081850Y-52923520D01*
X105102893Y-52936132D01*
X105122599Y-52950747D01*
X105140777Y-52967223D01*
X105157253Y-52985401D01*
X105171868Y-53005107D01*
X105184480Y-53026150D01*
X105194970Y-53048329D01*
X105203235Y-53071428D01*
X105209196Y-53095227D01*
X105212796Y-53119495D01*
X105214000Y-53143999D01*
X105214000Y-54044001D01*
X105212796Y-54068505D01*
X105209196Y-54092773D01*
X105203235Y-54116572D01*
X105194970Y-54139671D01*
X105184480Y-54161850D01*
X105171868Y-54182893D01*
X105157253Y-54202599D01*
X105140777Y-54220777D01*
X105122599Y-54237253D01*
X105102893Y-54251868D01*
X105081850Y-54264480D01*
X105059671Y-54274970D01*
X105036572Y-54283235D01*
X105012773Y-54289196D01*
X104988505Y-54292796D01*
X104964001Y-54294000D01*
X104313999Y-54294000D01*
X104289495Y-54292796D01*
X104265227Y-54289196D01*
X104241428Y-54283235D01*
X104218329Y-54274970D01*
X104196150Y-54264480D01*
X104175107Y-54251868D01*
X104155401Y-54237253D01*
X104137223Y-54220777D01*
X104120747Y-54202599D01*
X104106132Y-54182893D01*
X104093520Y-54161850D01*
X104083030Y-54139671D01*
X104074765Y-54116572D01*
X104068804Y-54092773D01*
X104065204Y-54068505D01*
X104064000Y-54044001D01*
X104064000Y-53143999D01*
X104065204Y-53119495D01*
X104068804Y-53095227D01*
X104074765Y-53071428D01*
X104083030Y-53048329D01*
X104093520Y-53026150D01*
X104106132Y-53005107D01*
X104120747Y-52985401D01*
X104137223Y-52967223D01*
X104155401Y-52950747D01*
X104175107Y-52936132D01*
X104196150Y-52923520D01*
X104218329Y-52913030D01*
X104241428Y-52904765D01*
X104265227Y-52898804D01*
X104289495Y-52895204D01*
X104313999Y-52894000D01*
X104964001Y-52894000D01*
X104988505Y-52895204D01*
X104988505Y-52895204D01*
G37*
D16*
G04 #@! TD*
G04 #@! TO.P,C3,2*
G04 #@! TO.N,GND*
X104639000Y-53594000D03*
D15*
G04 #@! TO.N,+2V8*
G04 #@! TO.C,C3*
G36*
X107038505Y-52895204D02*
X107062773Y-52898804D01*
X107086572Y-52904765D01*
X107109671Y-52913030D01*
X107131850Y-52923520D01*
X107152893Y-52936132D01*
X107172599Y-52950747D01*
X107190777Y-52967223D01*
X107207253Y-52985401D01*
X107221868Y-53005107D01*
X107234480Y-53026150D01*
X107244970Y-53048329D01*
X107253235Y-53071428D01*
X107259196Y-53095227D01*
X107262796Y-53119495D01*
X107264000Y-53143999D01*
X107264000Y-54044001D01*
X107262796Y-54068505D01*
X107259196Y-54092773D01*
X107253235Y-54116572D01*
X107244970Y-54139671D01*
X107234480Y-54161850D01*
X107221868Y-54182893D01*
X107207253Y-54202599D01*
X107190777Y-54220777D01*
X107172599Y-54237253D01*
X107152893Y-54251868D01*
X107131850Y-54264480D01*
X107109671Y-54274970D01*
X107086572Y-54283235D01*
X107062773Y-54289196D01*
X107038505Y-54292796D01*
X107014001Y-54294000D01*
X106363999Y-54294000D01*
X106339495Y-54292796D01*
X106315227Y-54289196D01*
X106291428Y-54283235D01*
X106268329Y-54274970D01*
X106246150Y-54264480D01*
X106225107Y-54251868D01*
X106205401Y-54237253D01*
X106187223Y-54220777D01*
X106170747Y-54202599D01*
X106156132Y-54182893D01*
X106143520Y-54161850D01*
X106133030Y-54139671D01*
X106124765Y-54116572D01*
X106118804Y-54092773D01*
X106115204Y-54068505D01*
X106114000Y-54044001D01*
X106114000Y-53143999D01*
X106115204Y-53119495D01*
X106118804Y-53095227D01*
X106124765Y-53071428D01*
X106133030Y-53048329D01*
X106143520Y-53026150D01*
X106156132Y-53005107D01*
X106170747Y-52985401D01*
X106187223Y-52967223D01*
X106205401Y-52950747D01*
X106225107Y-52936132D01*
X106246150Y-52923520D01*
X106268329Y-52913030D01*
X106291428Y-52904765D01*
X106315227Y-52898804D01*
X106339495Y-52895204D01*
X106363999Y-52894000D01*
X107014001Y-52894000D01*
X107038505Y-52895204D01*
X107038505Y-52895204D01*
G37*
D16*
G04 #@! TD*
G04 #@! TO.P,C3,1*
G04 #@! TO.N,+2V8*
X106689000Y-53594000D03*
D15*
G04 #@! TO.N,Net-(C2-Pad1)*
G04 #@! TO.C,R1*
G36*
X103845505Y-60388204D02*
X103869773Y-60391804D01*
X103893572Y-60397765D01*
X103916671Y-60406030D01*
X103938850Y-60416520D01*
X103959893Y-60429132D01*
X103979599Y-60443747D01*
X103997777Y-60460223D01*
X104014253Y-60478401D01*
X104028868Y-60498107D01*
X104041480Y-60519150D01*
X104051970Y-60541329D01*
X104060235Y-60564428D01*
X104066196Y-60588227D01*
X104069796Y-60612495D01*
X104071000Y-60636999D01*
X104071000Y-61537001D01*
X104069796Y-61561505D01*
X104066196Y-61585773D01*
X104060235Y-61609572D01*
X104051970Y-61632671D01*
X104041480Y-61654850D01*
X104028868Y-61675893D01*
X104014253Y-61695599D01*
X103997777Y-61713777D01*
X103979599Y-61730253D01*
X103959893Y-61744868D01*
X103938850Y-61757480D01*
X103916671Y-61767970D01*
X103893572Y-61776235D01*
X103869773Y-61782196D01*
X103845505Y-61785796D01*
X103821001Y-61787000D01*
X103170999Y-61787000D01*
X103146495Y-61785796D01*
X103122227Y-61782196D01*
X103098428Y-61776235D01*
X103075329Y-61767970D01*
X103053150Y-61757480D01*
X103032107Y-61744868D01*
X103012401Y-61730253D01*
X102994223Y-61713777D01*
X102977747Y-61695599D01*
X102963132Y-61675893D01*
X102950520Y-61654850D01*
X102940030Y-61632671D01*
X102931765Y-61609572D01*
X102925804Y-61585773D01*
X102922204Y-61561505D01*
X102921000Y-61537001D01*
X102921000Y-60636999D01*
X102922204Y-60612495D01*
X102925804Y-60588227D01*
X102931765Y-60564428D01*
X102940030Y-60541329D01*
X102950520Y-60519150D01*
X102963132Y-60498107D01*
X102977747Y-60478401D01*
X102994223Y-60460223D01*
X103012401Y-60443747D01*
X103032107Y-60429132D01*
X103053150Y-60416520D01*
X103075329Y-60406030D01*
X103098428Y-60397765D01*
X103122227Y-60391804D01*
X103146495Y-60388204D01*
X103170999Y-60387000D01*
X103821001Y-60387000D01*
X103845505Y-60388204D01*
X103845505Y-60388204D01*
G37*
D16*
G04 #@! TD*
G04 #@! TO.P,R1,2*
G04 #@! TO.N,Net-(C2-Pad1)*
X103496000Y-61087000D03*
D15*
G04 #@! TO.N,Net-(MK1-Pad3)*
G04 #@! TO.C,R1*
G36*
X105895505Y-60388204D02*
X105919773Y-60391804D01*
X105943572Y-60397765D01*
X105966671Y-60406030D01*
X105988850Y-60416520D01*
X106009893Y-60429132D01*
X106029599Y-60443747D01*
X106047777Y-60460223D01*
X106064253Y-60478401D01*
X106078868Y-60498107D01*
X106091480Y-60519150D01*
X106101970Y-60541329D01*
X106110235Y-60564428D01*
X106116196Y-60588227D01*
X106119796Y-60612495D01*
X106121000Y-60636999D01*
X106121000Y-61537001D01*
X106119796Y-61561505D01*
X106116196Y-61585773D01*
X106110235Y-61609572D01*
X106101970Y-61632671D01*
X106091480Y-61654850D01*
X106078868Y-61675893D01*
X106064253Y-61695599D01*
X106047777Y-61713777D01*
X106029599Y-61730253D01*
X106009893Y-61744868D01*
X105988850Y-61757480D01*
X105966671Y-61767970D01*
X105943572Y-61776235D01*
X105919773Y-61782196D01*
X105895505Y-61785796D01*
X105871001Y-61787000D01*
X105220999Y-61787000D01*
X105196495Y-61785796D01*
X105172227Y-61782196D01*
X105148428Y-61776235D01*
X105125329Y-61767970D01*
X105103150Y-61757480D01*
X105082107Y-61744868D01*
X105062401Y-61730253D01*
X105044223Y-61713777D01*
X105027747Y-61695599D01*
X105013132Y-61675893D01*
X105000520Y-61654850D01*
X104990030Y-61632671D01*
X104981765Y-61609572D01*
X104975804Y-61585773D01*
X104972204Y-61561505D01*
X104971000Y-61537001D01*
X104971000Y-60636999D01*
X104972204Y-60612495D01*
X104975804Y-60588227D01*
X104981765Y-60564428D01*
X104990030Y-60541329D01*
X105000520Y-60519150D01*
X105013132Y-60498107D01*
X105027747Y-60478401D01*
X105044223Y-60460223D01*
X105062401Y-60443747D01*
X105082107Y-60429132D01*
X105103150Y-60416520D01*
X105125329Y-60406030D01*
X105148428Y-60397765D01*
X105172227Y-60391804D01*
X105196495Y-60388204D01*
X105220999Y-60387000D01*
X105871001Y-60387000D01*
X105895505Y-60388204D01*
X105895505Y-60388204D01*
G37*
D16*
G04 #@! TD*
G04 #@! TO.P,R1,1*
G04 #@! TO.N,Net-(MK1-Pad3)*
X105546000Y-61087000D03*
D17*
G04 #@! TO.N,GND*
X115951000Y-63246000D03*
X109220000Y-62738000D03*
X105727500Y-54800500D03*
X113174780Y-60424060D03*
D18*
G04 #@! TO.N,PB4*
X111125000Y-60769500D03*
G04 #@! TO.N,Reset*
X107950000Y-57467500D03*
G04 #@! TD*
D19*
G04 #@! TO.N,+2V8*
X110792000Y-63246000D02*
X110450000Y-63588000D01*
X112386000Y-63246000D02*
X110792000Y-63246000D01*
X106689000Y-53594000D02*
X105228500Y-52133500D01*
X105228500Y-52133500D02*
X102806500Y-52133500D01*
G04 #@! TO.N,GND*
X115951000Y-63246000D02*
X114436000Y-63246000D01*
X108370000Y-63588000D02*
X107990000Y-63588000D01*
X109220000Y-62738000D02*
X108370000Y-63588000D01*
X105888000Y-63588000D02*
X105546000Y-63246000D01*
X107990000Y-63588000D02*
X105888000Y-63588000D01*
X104775000Y-53721000D02*
X104766000Y-53721000D01*
X105045500Y-54800500D02*
X104639000Y-54394000D01*
X105727500Y-54800500D02*
X105045500Y-54800500D01*
X104639000Y-54394000D02*
X104639000Y-53594000D01*
X104086400Y-55816500D02*
X103534000Y-55816500D01*
X104639000Y-53594000D02*
X104648000Y-55435500D01*
X104648000Y-55435500D02*
X104086400Y-55816500D01*
X113174780Y-60424060D02*
X112268000Y-59088000D01*
G04 #@! TO.N,Net-(C2-Pad1)*
X103496000Y-61887000D02*
X103496000Y-63246000D01*
X103496000Y-61087000D02*
X103496000Y-61887000D01*
D20*
G04 #@! TO.N,PB4*
X111125000Y-59215000D02*
X110998000Y-59088000D01*
D19*
X110998000Y-60642500D02*
X111125000Y-60769500D01*
X110998000Y-59088000D02*
X110998000Y-60642500D01*
X111460280Y-61104780D02*
X111125000Y-60769500D01*
X113842139Y-61104780D02*
X111460280Y-61104780D01*
X115824000Y-60325000D02*
X114621919Y-60325000D01*
X114621919Y-60325000D02*
X113842139Y-61104780D01*
G04 #@! TO.N,Net-(MK1-Pad3)*
X106347000Y-61888000D02*
X105546000Y-61087000D01*
X107990000Y-61888000D02*
X106347000Y-61888000D01*
G04 #@! TO.N,PB3*
X109728000Y-58613000D02*
X109728000Y-59088000D01*
X110556000Y-57785000D02*
X109728000Y-58613000D01*
X115824000Y-57785000D02*
X110556000Y-57785000D01*
X109728000Y-61166000D02*
X109728000Y-59088000D01*
X110450000Y-61888000D02*
X109728000Y-61166000D01*
D20*
G04 #@! TO.N,PB2*
X109728000Y-54163000D02*
X109728000Y-53688000D01*
X106934000Y-55892000D02*
X106934000Y-56642000D01*
D19*
X115824000Y-55245000D02*
X114427000Y-56642000D01*
X111754600Y-56642000D02*
X111823500Y-56642000D01*
X109728000Y-54615400D02*
X111754600Y-56642000D01*
X109728000Y-53688000D02*
X109728000Y-54615400D01*
X114427000Y-56642000D02*
X111823500Y-56642000D01*
X108336400Y-56007000D02*
X106919500Y-56007000D01*
X109728000Y-54615400D02*
X108336400Y-56007000D01*
G04 #@! TO.N,Reset*
X108458000Y-57975500D02*
X108458000Y-59088000D01*
X107950000Y-57467500D02*
X108458000Y-57975500D01*
G04 #@! TO.N,PB0*
X112268000Y-52760600D02*
X111188500Y-51371500D01*
X112268000Y-53688000D02*
X112268000Y-52760600D01*
X111188500Y-51371500D02*
X101548045Y-51371500D01*
X101548045Y-51371500D02*
X100457000Y-52705000D01*
G04 #@! TO.N,PB1*
X110998000Y-54163000D02*
X110998000Y-53688000D01*
X111569500Y-54991000D02*
X110998000Y-54163000D01*
X113728500Y-54965503D02*
X111569500Y-54991000D01*
X115824000Y-52705000D02*
X114490500Y-54165500D01*
X114490500Y-54165500D02*
X113728500Y-54965503D01*
G04 #@! TD*
D21*
G04 #@! TO.N,+2V8*
G36*
X110982588Y-52265560D02*
X110698000Y-52265560D01*
X110450235Y-52314843D01*
X110363000Y-52373132D01*
X110275765Y-52314843D01*
X110028000Y-52265560D01*
X109428000Y-52265560D01*
X109180235Y-52314843D01*
X109101028Y-52367768D01*
X108884310Y-52278000D01*
X108743750Y-52278000D01*
X108585000Y-52436750D01*
X108585000Y-53561000D01*
X108605000Y-53561000D01*
X108605000Y-53815000D01*
X108585000Y-53815000D01*
X108585000Y-53835000D01*
X108331000Y-53835000D01*
X108331000Y-53815000D01*
X107834250Y-53815000D01*
X107740250Y-53721000D01*
X106816000Y-53721000D01*
X106816000Y-53741000D01*
X106562000Y-53741000D01*
X106562000Y-53721000D01*
X106542000Y-53721000D01*
X106542000Y-53467000D01*
X106562000Y-53467000D01*
X106562000Y-52417750D01*
X106816000Y-52417750D01*
X106816000Y-53467000D01*
X107587750Y-53467000D01*
X107681750Y-53561000D01*
X108331000Y-53561000D01*
X108331000Y-52436750D01*
X108172250Y-52278000D01*
X108031690Y-52278000D01*
X107798301Y-52374673D01*
X107720500Y-52452474D01*
X107623698Y-52355673D01*
X107390309Y-52259000D01*
X106974750Y-52259000D01*
X106816000Y-52417750D01*
X106562000Y-52417750D01*
X106403250Y-52259000D01*
X105987691Y-52259000D01*
X105754302Y-52355673D01*
X105599377Y-52510597D01*
X105598586Y-52509414D01*
X105307436Y-52314873D01*
X104964001Y-52246560D01*
X104313999Y-52246560D01*
X103970564Y-52314873D01*
X103679414Y-52509414D01*
X103484873Y-52800564D01*
X103416560Y-53143999D01*
X103416560Y-54044001D01*
X103484873Y-54387436D01*
X103566474Y-54509560D01*
X102992500Y-54509560D01*
X102744735Y-54558843D01*
X102534691Y-54699191D01*
X102394343Y-54909235D01*
X102345060Y-55157000D01*
X102345060Y-56857000D01*
X102394343Y-57104765D01*
X102534691Y-57314809D01*
X102744735Y-57455157D01*
X102992500Y-57504440D01*
X103792500Y-57504440D01*
X104040265Y-57455157D01*
X104250309Y-57314809D01*
X104390657Y-57104765D01*
X104439940Y-56857000D01*
X104439940Y-56436071D01*
X104483567Y-56406474D01*
X104599146Y-56329246D01*
X104600592Y-56327082D01*
X105046913Y-56024289D01*
X105163245Y-55945733D01*
X105203058Y-55885514D01*
X105253749Y-55834104D01*
X105280322Y-55768649D01*
X105297502Y-55742665D01*
X105521626Y-55835500D01*
X105745060Y-55835500D01*
X105745060Y-56857000D01*
X105794343Y-57104765D01*
X105934691Y-57314809D01*
X106144735Y-57455157D01*
X106392500Y-57504440D01*
X106972100Y-57504440D01*
X106972100Y-57662016D01*
X107120977Y-58021436D01*
X107396064Y-58296523D01*
X107510560Y-58343949D01*
X107510560Y-59863000D01*
X107559843Y-60110765D01*
X107700191Y-60320809D01*
X107910235Y-60461157D01*
X108158000Y-60510440D01*
X108758000Y-60510440D01*
X109005765Y-60461157D01*
X109016800Y-60453783D01*
X109016800Y-61095958D01*
X109002868Y-61166000D01*
X109016800Y-61236041D01*
X109016800Y-61236045D01*
X109058064Y-61443495D01*
X109092233Y-61494632D01*
X109175576Y-61619364D01*
X109175578Y-61619366D01*
X109215254Y-61678745D01*
X109251554Y-61703000D01*
X109025000Y-61703000D01*
X109025000Y-61682126D01*
X108867431Y-61301720D01*
X108576280Y-61010569D01*
X108195874Y-60853000D01*
X107784126Y-60853000D01*
X107403720Y-61010569D01*
X107237489Y-61176800D01*
X106768440Y-61176800D01*
X106768440Y-60636999D01*
X106700127Y-60293564D01*
X106505586Y-60002414D01*
X106214436Y-59807873D01*
X105871001Y-59739560D01*
X105220999Y-59739560D01*
X104877564Y-59807873D01*
X104586414Y-60002414D01*
X104521000Y-60100313D01*
X104455586Y-60002414D01*
X104164436Y-59807873D01*
X103821001Y-59739560D01*
X103170999Y-59739560D01*
X102827564Y-59807873D01*
X102536414Y-60002414D01*
X102341873Y-60293564D01*
X102273560Y-60636999D01*
X102273560Y-61537001D01*
X102341873Y-61880436D01*
X102533016Y-62166500D01*
X102341873Y-62452564D01*
X102273560Y-62795999D01*
X102273560Y-63696001D01*
X102341873Y-64039436D01*
X102536414Y-64330586D01*
X102827564Y-64525127D01*
X103170999Y-64593440D01*
X103821001Y-64593440D01*
X104164436Y-64525127D01*
X104455586Y-64330586D01*
X104521000Y-64232687D01*
X104586414Y-64330586D01*
X104877564Y-64525127D01*
X105220999Y-64593440D01*
X105871001Y-64593440D01*
X106214436Y-64525127D01*
X106505586Y-64330586D01*
X106526558Y-64299200D01*
X107237489Y-64299200D01*
X107403720Y-64465431D01*
X107784126Y-64623000D01*
X108195874Y-64623000D01*
X108576280Y-64465431D01*
X108736361Y-64305350D01*
X109912255Y-64305350D01*
X109936977Y-64510180D01*
X110328931Y-64636309D01*
X110739318Y-64602842D01*
X110963023Y-64510180D01*
X110987745Y-64305350D01*
X110450000Y-63767605D01*
X109912255Y-64305350D01*
X108736361Y-64305350D01*
X108867431Y-64174280D01*
X108922531Y-64041257D01*
X109190788Y-63773000D01*
X109425874Y-63773000D01*
X109426625Y-63772689D01*
X109435158Y-63877318D01*
X109527820Y-64101023D01*
X109732650Y-64125745D01*
X110270395Y-63588000D01*
X110256253Y-63573858D01*
X110435858Y-63394253D01*
X110450000Y-63408395D01*
X110464143Y-63394253D01*
X110643748Y-63573858D01*
X110629605Y-63588000D01*
X111167350Y-64125745D01*
X111196668Y-64122206D01*
X111272673Y-64305699D01*
X111451302Y-64484327D01*
X111684691Y-64581000D01*
X112100250Y-64581000D01*
X112259000Y-64422250D01*
X112259000Y-63373000D01*
X112239000Y-63373000D01*
X112239000Y-63119000D01*
X112259000Y-63119000D01*
X112259000Y-62069750D01*
X112513000Y-62069750D01*
X112513000Y-63119000D01*
X112533000Y-63119000D01*
X112533000Y-63373000D01*
X112513000Y-63373000D01*
X112513000Y-64422250D01*
X112671750Y-64581000D01*
X113087309Y-64581000D01*
X113320698Y-64484327D01*
X113475623Y-64329403D01*
X113476414Y-64330586D01*
X113767564Y-64525127D01*
X114110999Y-64593440D01*
X114761001Y-64593440D01*
X115104436Y-64525127D01*
X115395586Y-64330586D01*
X115497307Y-64178350D01*
X115745126Y-64281000D01*
X116156874Y-64281000D01*
X116537280Y-64123431D01*
X116828431Y-63832280D01*
X116986000Y-63451874D01*
X116986000Y-63040126D01*
X116828431Y-62659720D01*
X116537280Y-62368569D01*
X116156874Y-62211000D01*
X115745126Y-62211000D01*
X115497307Y-62313650D01*
X115395586Y-62161414D01*
X115104436Y-61966873D01*
X114761001Y-61898560D01*
X114110999Y-61898560D01*
X113767564Y-61966873D01*
X113476414Y-62161414D01*
X113475623Y-62162597D01*
X113320698Y-62007673D01*
X113087309Y-61911000D01*
X112671750Y-61911000D01*
X112513000Y-62069750D01*
X112259000Y-62069750D01*
X112100250Y-61911000D01*
X111684691Y-61911000D01*
X111485000Y-61993715D01*
X111485000Y-61824995D01*
X111530322Y-61815980D01*
X113772098Y-61815980D01*
X113842139Y-61829912D01*
X113912180Y-61815980D01*
X113912185Y-61815980D01*
X114119635Y-61774716D01*
X114354885Y-61617526D01*
X114394563Y-61558144D01*
X114674751Y-61277956D01*
X114753375Y-61395625D01*
X115244582Y-61723839D01*
X115677744Y-61810000D01*
X115970256Y-61810000D01*
X116403418Y-61723839D01*
X116894625Y-61395625D01*
X117054960Y-61155666D01*
X117054960Y-64695400D01*
X99246360Y-64695400D01*
X99246360Y-61712385D01*
X99247302Y-61713327D01*
X99480691Y-61810000D01*
X100171250Y-61810000D01*
X100330000Y-61651250D01*
X100330000Y-60452000D01*
X100584000Y-60452000D01*
X100584000Y-61651250D01*
X100742750Y-61810000D01*
X101433309Y-61810000D01*
X101666698Y-61713327D01*
X101845327Y-61534699D01*
X101942000Y-61301310D01*
X101942000Y-60610750D01*
X101783250Y-60452000D01*
X100584000Y-60452000D01*
X100330000Y-60452000D01*
X100310000Y-60452000D01*
X100310000Y-60198000D01*
X100330000Y-60198000D01*
X100330000Y-60178000D01*
X100584000Y-60178000D01*
X100584000Y-60198000D01*
X101783250Y-60198000D01*
X101942000Y-60039250D01*
X101942000Y-59348690D01*
X101845327Y-59115301D01*
X101666698Y-58936673D01*
X101505967Y-58870096D01*
X101527625Y-58855625D01*
X101855839Y-58364418D01*
X101971092Y-57785000D01*
X101855839Y-57205582D01*
X101527625Y-56714375D01*
X101229239Y-56515000D01*
X101527625Y-56315625D01*
X101855839Y-55824418D01*
X101971092Y-55245000D01*
X101855839Y-54665582D01*
X101527625Y-54174375D01*
X101229239Y-53975000D01*
X101527625Y-53775625D01*
X101855839Y-53284418D01*
X101971092Y-52705000D01*
X101855839Y-52125582D01*
X101853206Y-52121642D01*
X101885068Y-52082700D01*
X110840484Y-52082700D01*
X110982588Y-52265560D01*
X110982588Y-52265560D01*
G37*
X110982588Y-52265560D02*
X110698000Y-52265560D01*
X110450235Y-52314843D01*
X110363000Y-52373132D01*
X110275765Y-52314843D01*
X110028000Y-52265560D01*
X109428000Y-52265560D01*
X109180235Y-52314843D01*
X109101028Y-52367768D01*
X108884310Y-52278000D01*
X108743750Y-52278000D01*
X108585000Y-52436750D01*
X108585000Y-53561000D01*
X108605000Y-53561000D01*
X108605000Y-53815000D01*
X108585000Y-53815000D01*
X108585000Y-53835000D01*
X108331000Y-53835000D01*
X108331000Y-53815000D01*
X107834250Y-53815000D01*
X107740250Y-53721000D01*
X106816000Y-53721000D01*
X106816000Y-53741000D01*
X106562000Y-53741000D01*
X106562000Y-53721000D01*
X106542000Y-53721000D01*
X106542000Y-53467000D01*
X106562000Y-53467000D01*
X106562000Y-52417750D01*
X106816000Y-52417750D01*
X106816000Y-53467000D01*
X107587750Y-53467000D01*
X107681750Y-53561000D01*
X108331000Y-53561000D01*
X108331000Y-52436750D01*
X108172250Y-52278000D01*
X108031690Y-52278000D01*
X107798301Y-52374673D01*
X107720500Y-52452474D01*
X107623698Y-52355673D01*
X107390309Y-52259000D01*
X106974750Y-52259000D01*
X106816000Y-52417750D01*
X106562000Y-52417750D01*
X106403250Y-52259000D01*
X105987691Y-52259000D01*
X105754302Y-52355673D01*
X105599377Y-52510597D01*
X105598586Y-52509414D01*
X105307436Y-52314873D01*
X104964001Y-52246560D01*
X104313999Y-52246560D01*
X103970564Y-52314873D01*
X103679414Y-52509414D01*
X103484873Y-52800564D01*
X103416560Y-53143999D01*
X103416560Y-54044001D01*
X103484873Y-54387436D01*
X103566474Y-54509560D01*
X102992500Y-54509560D01*
X102744735Y-54558843D01*
X102534691Y-54699191D01*
X102394343Y-54909235D01*
X102345060Y-55157000D01*
X102345060Y-56857000D01*
X102394343Y-57104765D01*
X102534691Y-57314809D01*
X102744735Y-57455157D01*
X102992500Y-57504440D01*
X103792500Y-57504440D01*
X104040265Y-57455157D01*
X104250309Y-57314809D01*
X104390657Y-57104765D01*
X104439940Y-56857000D01*
X104439940Y-56436071D01*
X104483567Y-56406474D01*
X104599146Y-56329246D01*
X104600592Y-56327082D01*
X105046913Y-56024289D01*
X105163245Y-55945733D01*
X105203058Y-55885514D01*
X105253749Y-55834104D01*
X105280322Y-55768649D01*
X105297502Y-55742665D01*
X105521626Y-55835500D01*
X105745060Y-55835500D01*
X105745060Y-56857000D01*
X105794343Y-57104765D01*
X105934691Y-57314809D01*
X106144735Y-57455157D01*
X106392500Y-57504440D01*
X106972100Y-57504440D01*
X106972100Y-57662016D01*
X107120977Y-58021436D01*
X107396064Y-58296523D01*
X107510560Y-58343949D01*
X107510560Y-59863000D01*
X107559843Y-60110765D01*
X107700191Y-60320809D01*
X107910235Y-60461157D01*
X108158000Y-60510440D01*
X108758000Y-60510440D01*
X109005765Y-60461157D01*
X109016800Y-60453783D01*
X109016800Y-61095958D01*
X109002868Y-61166000D01*
X109016800Y-61236041D01*
X109016800Y-61236045D01*
X109058064Y-61443495D01*
X109092233Y-61494632D01*
X109175576Y-61619364D01*
X109175578Y-61619366D01*
X109215254Y-61678745D01*
X109251554Y-61703000D01*
X109025000Y-61703000D01*
X109025000Y-61682126D01*
X108867431Y-61301720D01*
X108576280Y-61010569D01*
X108195874Y-60853000D01*
X107784126Y-60853000D01*
X107403720Y-61010569D01*
X107237489Y-61176800D01*
X106768440Y-61176800D01*
X106768440Y-60636999D01*
X106700127Y-60293564D01*
X106505586Y-60002414D01*
X106214436Y-59807873D01*
X105871001Y-59739560D01*
X105220999Y-59739560D01*
X104877564Y-59807873D01*
X104586414Y-60002414D01*
X104521000Y-60100313D01*
X104455586Y-60002414D01*
X104164436Y-59807873D01*
X103821001Y-59739560D01*
X103170999Y-59739560D01*
X102827564Y-59807873D01*
X102536414Y-60002414D01*
X102341873Y-60293564D01*
X102273560Y-60636999D01*
X102273560Y-61537001D01*
X102341873Y-61880436D01*
X102533016Y-62166500D01*
X102341873Y-62452564D01*
X102273560Y-62795999D01*
X102273560Y-63696001D01*
X102341873Y-64039436D01*
X102536414Y-64330586D01*
X102827564Y-64525127D01*
X103170999Y-64593440D01*
X103821001Y-64593440D01*
X104164436Y-64525127D01*
X104455586Y-64330586D01*
X104521000Y-64232687D01*
X104586414Y-64330586D01*
X104877564Y-64525127D01*
X105220999Y-64593440D01*
X105871001Y-64593440D01*
X106214436Y-64525127D01*
X106505586Y-64330586D01*
X106526558Y-64299200D01*
X107237489Y-64299200D01*
X107403720Y-64465431D01*
X107784126Y-64623000D01*
X108195874Y-64623000D01*
X108576280Y-64465431D01*
X108736361Y-64305350D01*
X109912255Y-64305350D01*
X109936977Y-64510180D01*
X110328931Y-64636309D01*
X110739318Y-64602842D01*
X110963023Y-64510180D01*
X110987745Y-64305350D01*
X110450000Y-63767605D01*
X109912255Y-64305350D01*
X108736361Y-64305350D01*
X108867431Y-64174280D01*
X108922531Y-64041257D01*
X109190788Y-63773000D01*
X109425874Y-63773000D01*
X109426625Y-63772689D01*
X109435158Y-63877318D01*
X109527820Y-64101023D01*
X109732650Y-64125745D01*
X110270395Y-63588000D01*
X110256253Y-63573858D01*
X110435858Y-63394253D01*
X110450000Y-63408395D01*
X110464143Y-63394253D01*
X110643748Y-63573858D01*
X110629605Y-63588000D01*
X111167350Y-64125745D01*
X111196668Y-64122206D01*
X111272673Y-64305699D01*
X111451302Y-64484327D01*
X111684691Y-64581000D01*
X112100250Y-64581000D01*
X112259000Y-64422250D01*
X112259000Y-63373000D01*
X112239000Y-63373000D01*
X112239000Y-63119000D01*
X112259000Y-63119000D01*
X112259000Y-62069750D01*
X112513000Y-62069750D01*
X112513000Y-63119000D01*
X112533000Y-63119000D01*
X112533000Y-63373000D01*
X112513000Y-63373000D01*
X112513000Y-64422250D01*
X112671750Y-64581000D01*
X113087309Y-64581000D01*
X113320698Y-64484327D01*
X113475623Y-64329403D01*
X113476414Y-64330586D01*
X113767564Y-64525127D01*
X114110999Y-64593440D01*
X114761001Y-64593440D01*
X115104436Y-64525127D01*
X115395586Y-64330586D01*
X115497307Y-64178350D01*
X115745126Y-64281000D01*
X116156874Y-64281000D01*
X116537280Y-64123431D01*
X116828431Y-63832280D01*
X116986000Y-63451874D01*
X116986000Y-63040126D01*
X116828431Y-62659720D01*
X116537280Y-62368569D01*
X116156874Y-62211000D01*
X115745126Y-62211000D01*
X115497307Y-62313650D01*
X115395586Y-62161414D01*
X115104436Y-61966873D01*
X114761001Y-61898560D01*
X114110999Y-61898560D01*
X113767564Y-61966873D01*
X113476414Y-62161414D01*
X113475623Y-62162597D01*
X113320698Y-62007673D01*
X113087309Y-61911000D01*
X112671750Y-61911000D01*
X112513000Y-62069750D01*
X112259000Y-62069750D01*
X112100250Y-61911000D01*
X111684691Y-61911000D01*
X111485000Y-61993715D01*
X111485000Y-61824995D01*
X111530322Y-61815980D01*
X113772098Y-61815980D01*
X113842139Y-61829912D01*
X113912180Y-61815980D01*
X113912185Y-61815980D01*
X114119635Y-61774716D01*
X114354885Y-61617526D01*
X114394563Y-61558144D01*
X114674751Y-61277956D01*
X114753375Y-61395625D01*
X115244582Y-61723839D01*
X115677744Y-61810000D01*
X115970256Y-61810000D01*
X116403418Y-61723839D01*
X116894625Y-61395625D01*
X117054960Y-61155666D01*
X117054960Y-64695400D01*
X99246360Y-64695400D01*
X99246360Y-61712385D01*
X99247302Y-61713327D01*
X99480691Y-61810000D01*
X100171250Y-61810000D01*
X100330000Y-61651250D01*
X100330000Y-60452000D01*
X100584000Y-60452000D01*
X100584000Y-61651250D01*
X100742750Y-61810000D01*
X101433309Y-61810000D01*
X101666698Y-61713327D01*
X101845327Y-61534699D01*
X101942000Y-61301310D01*
X101942000Y-60610750D01*
X101783250Y-60452000D01*
X100584000Y-60452000D01*
X100330000Y-60452000D01*
X100310000Y-60452000D01*
X100310000Y-60198000D01*
X100330000Y-60198000D01*
X100330000Y-60178000D01*
X100584000Y-60178000D01*
X100584000Y-60198000D01*
X101783250Y-60198000D01*
X101942000Y-60039250D01*
X101942000Y-59348690D01*
X101845327Y-59115301D01*
X101666698Y-58936673D01*
X101505967Y-58870096D01*
X101527625Y-58855625D01*
X101855839Y-58364418D01*
X101971092Y-57785000D01*
X101855839Y-57205582D01*
X101527625Y-56714375D01*
X101229239Y-56515000D01*
X101527625Y-56315625D01*
X101855839Y-55824418D01*
X101971092Y-55245000D01*
X101855839Y-54665582D01*
X101527625Y-54174375D01*
X101229239Y-53975000D01*
X101527625Y-53775625D01*
X101855839Y-53284418D01*
X101971092Y-52705000D01*
X101855839Y-52125582D01*
X101853206Y-52121642D01*
X101885068Y-52082700D01*
X110840484Y-52082700D01*
X110982588Y-52265560D01*
G04 #@! TD*
M02*
