G04 #@! TF.GenerationSoftware,KiCad,Pcbnew,(5.1.4)-1*
G04 #@! TF.CreationDate,2019-12-06T22:53:01-05:00*
G04 #@! TF.ProjectId,STM32G4DevBoard,53544d33-3247-4344-9465-76426f617264,rev?*
G04 #@! TF.SameCoordinates,Original*
G04 #@! TF.FileFunction,Soldermask,Top*
G04 #@! TF.FilePolarity,Negative*
%FSLAX46Y46*%
G04 Gerber Fmt 4.6, Leading zero omitted, Abs format (unit mm)*
G04 Created by KiCad (PCBNEW (5.1.4)-1) date 2019-12-06 22:53:01*
%MOMM*%
%LPD*%
G04 APERTURE LIST*
%ADD10C,0.100000*%
G04 APERTURE END LIST*
D10*
G36*
X117270588Y-100585234D02*
G01*
X117440389Y-100636743D01*
X117596879Y-100720389D01*
X117734043Y-100832957D01*
X117846611Y-100970121D01*
X117930257Y-101126611D01*
X117981766Y-101296412D01*
X117999158Y-101473000D01*
X117981766Y-101649588D01*
X117930257Y-101819389D01*
X117846611Y-101975879D01*
X117734043Y-102113043D01*
X117596879Y-102225611D01*
X117440389Y-102309257D01*
X117270588Y-102360766D01*
X117138249Y-102373800D01*
X117049751Y-102373800D01*
X116917412Y-102360766D01*
X116747611Y-102309257D01*
X116591121Y-102225611D01*
X116453957Y-102113043D01*
X116341389Y-101975879D01*
X116257743Y-101819389D01*
X116206234Y-101649588D01*
X116188842Y-101473000D01*
X116206234Y-101296412D01*
X116257743Y-101126611D01*
X116341389Y-100970121D01*
X116453957Y-100832957D01*
X116591121Y-100720389D01*
X116747611Y-100636743D01*
X116917412Y-100585234D01*
X117049751Y-100572200D01*
X117138249Y-100572200D01*
X117270588Y-100585234D01*
X117270588Y-100585234D01*
G37*
G36*
X145210588Y-100585234D02*
G01*
X145380389Y-100636743D01*
X145536879Y-100720389D01*
X145674043Y-100832957D01*
X145786611Y-100970121D01*
X145870257Y-101126611D01*
X145921766Y-101296412D01*
X145939158Y-101473000D01*
X145921766Y-101649588D01*
X145870257Y-101819389D01*
X145786611Y-101975879D01*
X145674043Y-102113043D01*
X145536879Y-102225611D01*
X145380389Y-102309257D01*
X145210588Y-102360766D01*
X145078249Y-102373800D01*
X144989751Y-102373800D01*
X144857412Y-102360766D01*
X144687611Y-102309257D01*
X144531121Y-102225611D01*
X144393957Y-102113043D01*
X144281389Y-101975879D01*
X144197743Y-101819389D01*
X144146234Y-101649588D01*
X144128842Y-101473000D01*
X144146234Y-101296412D01*
X144197743Y-101126611D01*
X144281389Y-100970121D01*
X144393957Y-100832957D01*
X144531121Y-100720389D01*
X144687611Y-100636743D01*
X144857412Y-100585234D01*
X144989751Y-100572200D01*
X145078249Y-100572200D01*
X145210588Y-100585234D01*
X145210588Y-100585234D01*
G37*
G36*
X148474800Y-102373800D02*
G01*
X146673200Y-102373800D01*
X146673200Y-100572200D01*
X148474800Y-100572200D01*
X148474800Y-102373800D01*
X148474800Y-102373800D01*
G37*
G36*
X142670588Y-100585234D02*
G01*
X142840389Y-100636743D01*
X142996879Y-100720389D01*
X143134043Y-100832957D01*
X143246611Y-100970121D01*
X143330257Y-101126611D01*
X143381766Y-101296412D01*
X143399158Y-101473000D01*
X143381766Y-101649588D01*
X143330257Y-101819389D01*
X143246611Y-101975879D01*
X143134043Y-102113043D01*
X142996879Y-102225611D01*
X142840389Y-102309257D01*
X142670588Y-102360766D01*
X142538249Y-102373800D01*
X142449751Y-102373800D01*
X142317412Y-102360766D01*
X142147611Y-102309257D01*
X141991121Y-102225611D01*
X141853957Y-102113043D01*
X141741389Y-101975879D01*
X141657743Y-101819389D01*
X141606234Y-101649588D01*
X141588842Y-101473000D01*
X141606234Y-101296412D01*
X141657743Y-101126611D01*
X141741389Y-100970121D01*
X141853957Y-100832957D01*
X141991121Y-100720389D01*
X142147611Y-100636743D01*
X142317412Y-100585234D01*
X142449751Y-100572200D01*
X142538249Y-100572200D01*
X142670588Y-100585234D01*
X142670588Y-100585234D01*
G37*
G36*
X140130588Y-100585234D02*
G01*
X140300389Y-100636743D01*
X140456879Y-100720389D01*
X140594043Y-100832957D01*
X140706611Y-100970121D01*
X140790257Y-101126611D01*
X140841766Y-101296412D01*
X140859158Y-101473000D01*
X140841766Y-101649588D01*
X140790257Y-101819389D01*
X140706611Y-101975879D01*
X140594043Y-102113043D01*
X140456879Y-102225611D01*
X140300389Y-102309257D01*
X140130588Y-102360766D01*
X139998249Y-102373800D01*
X139909751Y-102373800D01*
X139777412Y-102360766D01*
X139607611Y-102309257D01*
X139451121Y-102225611D01*
X139313957Y-102113043D01*
X139201389Y-101975879D01*
X139117743Y-101819389D01*
X139066234Y-101649588D01*
X139048842Y-101473000D01*
X139066234Y-101296412D01*
X139117743Y-101126611D01*
X139201389Y-100970121D01*
X139313957Y-100832957D01*
X139451121Y-100720389D01*
X139607611Y-100636743D01*
X139777412Y-100585234D01*
X139909751Y-100572200D01*
X139998249Y-100572200D01*
X140130588Y-100585234D01*
X140130588Y-100585234D01*
G37*
G36*
X137590588Y-100585234D02*
G01*
X137760389Y-100636743D01*
X137916879Y-100720389D01*
X138054043Y-100832957D01*
X138166611Y-100970121D01*
X138250257Y-101126611D01*
X138301766Y-101296412D01*
X138319158Y-101473000D01*
X138301766Y-101649588D01*
X138250257Y-101819389D01*
X138166611Y-101975879D01*
X138054043Y-102113043D01*
X137916879Y-102225611D01*
X137760389Y-102309257D01*
X137590588Y-102360766D01*
X137458249Y-102373800D01*
X137369751Y-102373800D01*
X137237412Y-102360766D01*
X137067611Y-102309257D01*
X136911121Y-102225611D01*
X136773957Y-102113043D01*
X136661389Y-101975879D01*
X136577743Y-101819389D01*
X136526234Y-101649588D01*
X136508842Y-101473000D01*
X136526234Y-101296412D01*
X136577743Y-101126611D01*
X136661389Y-100970121D01*
X136773957Y-100832957D01*
X136911121Y-100720389D01*
X137067611Y-100636743D01*
X137237412Y-100585234D01*
X137369751Y-100572200D01*
X137458249Y-100572200D01*
X137590588Y-100585234D01*
X137590588Y-100585234D01*
G37*
G36*
X135050588Y-100585234D02*
G01*
X135220389Y-100636743D01*
X135376879Y-100720389D01*
X135514043Y-100832957D01*
X135626611Y-100970121D01*
X135710257Y-101126611D01*
X135761766Y-101296412D01*
X135779158Y-101473000D01*
X135761766Y-101649588D01*
X135710257Y-101819389D01*
X135626611Y-101975879D01*
X135514043Y-102113043D01*
X135376879Y-102225611D01*
X135220389Y-102309257D01*
X135050588Y-102360766D01*
X134918249Y-102373800D01*
X134829751Y-102373800D01*
X134697412Y-102360766D01*
X134527611Y-102309257D01*
X134371121Y-102225611D01*
X134233957Y-102113043D01*
X134121389Y-101975879D01*
X134037743Y-101819389D01*
X133986234Y-101649588D01*
X133968842Y-101473000D01*
X133986234Y-101296412D01*
X134037743Y-101126611D01*
X134121389Y-100970121D01*
X134233957Y-100832957D01*
X134371121Y-100720389D01*
X134527611Y-100636743D01*
X134697412Y-100585234D01*
X134829751Y-100572200D01*
X134918249Y-100572200D01*
X135050588Y-100585234D01*
X135050588Y-100585234D01*
G37*
G36*
X129970588Y-100585234D02*
G01*
X130140389Y-100636743D01*
X130296879Y-100720389D01*
X130434043Y-100832957D01*
X130546611Y-100970121D01*
X130630257Y-101126611D01*
X130681766Y-101296412D01*
X130699158Y-101473000D01*
X130681766Y-101649588D01*
X130630257Y-101819389D01*
X130546611Y-101975879D01*
X130434043Y-102113043D01*
X130296879Y-102225611D01*
X130140389Y-102309257D01*
X129970588Y-102360766D01*
X129838249Y-102373800D01*
X129749751Y-102373800D01*
X129617412Y-102360766D01*
X129447611Y-102309257D01*
X129291121Y-102225611D01*
X129153957Y-102113043D01*
X129041389Y-101975879D01*
X128957743Y-101819389D01*
X128906234Y-101649588D01*
X128888842Y-101473000D01*
X128906234Y-101296412D01*
X128957743Y-101126611D01*
X129041389Y-100970121D01*
X129153957Y-100832957D01*
X129291121Y-100720389D01*
X129447611Y-100636743D01*
X129617412Y-100585234D01*
X129749751Y-100572200D01*
X129838249Y-100572200D01*
X129970588Y-100585234D01*
X129970588Y-100585234D01*
G37*
G36*
X132510588Y-100585234D02*
G01*
X132680389Y-100636743D01*
X132836879Y-100720389D01*
X132974043Y-100832957D01*
X133086611Y-100970121D01*
X133170257Y-101126611D01*
X133221766Y-101296412D01*
X133239158Y-101473000D01*
X133221766Y-101649588D01*
X133170257Y-101819389D01*
X133086611Y-101975879D01*
X132974043Y-102113043D01*
X132836879Y-102225611D01*
X132680389Y-102309257D01*
X132510588Y-102360766D01*
X132378249Y-102373800D01*
X132289751Y-102373800D01*
X132157412Y-102360766D01*
X131987611Y-102309257D01*
X131831121Y-102225611D01*
X131693957Y-102113043D01*
X131581389Y-101975879D01*
X131497743Y-101819389D01*
X131446234Y-101649588D01*
X131428842Y-101473000D01*
X131446234Y-101296412D01*
X131497743Y-101126611D01*
X131581389Y-100970121D01*
X131693957Y-100832957D01*
X131831121Y-100720389D01*
X131987611Y-100636743D01*
X132157412Y-100585234D01*
X132289751Y-100572200D01*
X132378249Y-100572200D01*
X132510588Y-100585234D01*
X132510588Y-100585234D01*
G37*
G36*
X119810588Y-100585234D02*
G01*
X119980389Y-100636743D01*
X120136879Y-100720389D01*
X120274043Y-100832957D01*
X120386611Y-100970121D01*
X120470257Y-101126611D01*
X120521766Y-101296412D01*
X120539158Y-101473000D01*
X120521766Y-101649588D01*
X120470257Y-101819389D01*
X120386611Y-101975879D01*
X120274043Y-102113043D01*
X120136879Y-102225611D01*
X119980389Y-102309257D01*
X119810588Y-102360766D01*
X119678249Y-102373800D01*
X119589751Y-102373800D01*
X119457412Y-102360766D01*
X119287611Y-102309257D01*
X119131121Y-102225611D01*
X118993957Y-102113043D01*
X118881389Y-101975879D01*
X118797743Y-101819389D01*
X118746234Y-101649588D01*
X118728842Y-101473000D01*
X118746234Y-101296412D01*
X118797743Y-101126611D01*
X118881389Y-100970121D01*
X118993957Y-100832957D01*
X119131121Y-100720389D01*
X119287611Y-100636743D01*
X119457412Y-100585234D01*
X119589751Y-100572200D01*
X119678249Y-100572200D01*
X119810588Y-100585234D01*
X119810588Y-100585234D01*
G37*
G36*
X122350588Y-100585234D02*
G01*
X122520389Y-100636743D01*
X122676879Y-100720389D01*
X122814043Y-100832957D01*
X122926611Y-100970121D01*
X123010257Y-101126611D01*
X123061766Y-101296412D01*
X123079158Y-101473000D01*
X123061766Y-101649588D01*
X123010257Y-101819389D01*
X122926611Y-101975879D01*
X122814043Y-102113043D01*
X122676879Y-102225611D01*
X122520389Y-102309257D01*
X122350588Y-102360766D01*
X122218249Y-102373800D01*
X122129751Y-102373800D01*
X121997412Y-102360766D01*
X121827611Y-102309257D01*
X121671121Y-102225611D01*
X121533957Y-102113043D01*
X121421389Y-101975879D01*
X121337743Y-101819389D01*
X121286234Y-101649588D01*
X121268842Y-101473000D01*
X121286234Y-101296412D01*
X121337743Y-101126611D01*
X121421389Y-100970121D01*
X121533957Y-100832957D01*
X121671121Y-100720389D01*
X121827611Y-100636743D01*
X121997412Y-100585234D01*
X122129751Y-100572200D01*
X122218249Y-100572200D01*
X122350588Y-100585234D01*
X122350588Y-100585234D01*
G37*
G36*
X127430588Y-100585234D02*
G01*
X127600389Y-100636743D01*
X127756879Y-100720389D01*
X127894043Y-100832957D01*
X128006611Y-100970121D01*
X128090257Y-101126611D01*
X128141766Y-101296412D01*
X128159158Y-101473000D01*
X128141766Y-101649588D01*
X128090257Y-101819389D01*
X128006611Y-101975879D01*
X127894043Y-102113043D01*
X127756879Y-102225611D01*
X127600389Y-102309257D01*
X127430588Y-102360766D01*
X127298249Y-102373800D01*
X127209751Y-102373800D01*
X127077412Y-102360766D01*
X126907611Y-102309257D01*
X126751121Y-102225611D01*
X126613957Y-102113043D01*
X126501389Y-101975879D01*
X126417743Y-101819389D01*
X126366234Y-101649588D01*
X126348842Y-101473000D01*
X126366234Y-101296412D01*
X126417743Y-101126611D01*
X126501389Y-100970121D01*
X126613957Y-100832957D01*
X126751121Y-100720389D01*
X126907611Y-100636743D01*
X127077412Y-100585234D01*
X127209751Y-100572200D01*
X127298249Y-100572200D01*
X127430588Y-100585234D01*
X127430588Y-100585234D01*
G37*
G36*
X124890588Y-100585234D02*
G01*
X125060389Y-100636743D01*
X125216879Y-100720389D01*
X125354043Y-100832957D01*
X125466611Y-100970121D01*
X125550257Y-101126611D01*
X125601766Y-101296412D01*
X125619158Y-101473000D01*
X125601766Y-101649588D01*
X125550257Y-101819389D01*
X125466611Y-101975879D01*
X125354043Y-102113043D01*
X125216879Y-102225611D01*
X125060389Y-102309257D01*
X124890588Y-102360766D01*
X124758249Y-102373800D01*
X124669751Y-102373800D01*
X124537412Y-102360766D01*
X124367611Y-102309257D01*
X124211121Y-102225611D01*
X124073957Y-102113043D01*
X123961389Y-101975879D01*
X123877743Y-101819389D01*
X123826234Y-101649588D01*
X123808842Y-101473000D01*
X123826234Y-101296412D01*
X123877743Y-101126611D01*
X123961389Y-100970121D01*
X124073957Y-100832957D01*
X124211121Y-100720389D01*
X124367611Y-100636743D01*
X124537412Y-100585234D01*
X124669751Y-100572200D01*
X124758249Y-100572200D01*
X124890588Y-100585234D01*
X124890588Y-100585234D01*
G37*
G36*
X110764800Y-98944800D02*
G01*
X109863200Y-98944800D01*
X109863200Y-97143200D01*
X110764800Y-97143200D01*
X110764800Y-98944800D01*
X110764800Y-98944800D01*
G37*
G36*
X114164800Y-98944800D02*
G01*
X113263200Y-98944800D01*
X113263200Y-97143200D01*
X114164800Y-97143200D01*
X114164800Y-98944800D01*
X114164800Y-98944800D01*
G37*
G36*
X142828964Y-97650006D02*
G01*
X142873504Y-97663517D01*
X142914546Y-97685455D01*
X142950521Y-97714979D01*
X142980045Y-97750954D01*
X143001983Y-97791996D01*
X143015494Y-97836536D01*
X143020300Y-97885333D01*
X143020300Y-98456667D01*
X143015494Y-98505464D01*
X143001983Y-98550004D01*
X142980045Y-98591046D01*
X142950521Y-98627021D01*
X142914546Y-98656545D01*
X142873504Y-98678483D01*
X142828964Y-98691994D01*
X142780167Y-98696800D01*
X142108833Y-98696800D01*
X142060036Y-98691994D01*
X142015496Y-98678483D01*
X141974454Y-98656545D01*
X141938479Y-98627021D01*
X141908955Y-98591046D01*
X141887017Y-98550004D01*
X141873506Y-98505464D01*
X141868700Y-98456667D01*
X141868700Y-97885333D01*
X141873506Y-97836536D01*
X141887017Y-97791996D01*
X141908955Y-97750954D01*
X141938479Y-97714979D01*
X141974454Y-97685455D01*
X142015496Y-97663517D01*
X142060036Y-97650006D01*
X142108833Y-97645200D01*
X142780167Y-97645200D01*
X142828964Y-97650006D01*
X142828964Y-97650006D01*
G37*
G36*
X144578964Y-97650006D02*
G01*
X144623504Y-97663517D01*
X144664546Y-97685455D01*
X144700521Y-97714979D01*
X144730045Y-97750954D01*
X144751983Y-97791996D01*
X144765494Y-97836536D01*
X144770300Y-97885333D01*
X144770300Y-98456667D01*
X144765494Y-98505464D01*
X144751983Y-98550004D01*
X144730045Y-98591046D01*
X144700521Y-98627021D01*
X144664546Y-98656545D01*
X144623504Y-98678483D01*
X144578964Y-98691994D01*
X144530167Y-98696800D01*
X143858833Y-98696800D01*
X143810036Y-98691994D01*
X143765496Y-98678483D01*
X143724454Y-98656545D01*
X143688479Y-98627021D01*
X143658955Y-98591046D01*
X143637017Y-98550004D01*
X143623506Y-98505464D01*
X143618700Y-98456667D01*
X143618700Y-97885333D01*
X143623506Y-97836536D01*
X143637017Y-97791996D01*
X143658955Y-97750954D01*
X143688479Y-97714979D01*
X143724454Y-97685455D01*
X143765496Y-97663517D01*
X143810036Y-97650006D01*
X143858833Y-97645200D01*
X144530167Y-97645200D01*
X144578964Y-97650006D01*
X144578964Y-97650006D01*
G37*
G36*
X131334018Y-94689845D02*
G01*
X131357448Y-94696952D01*
X131379043Y-94708495D01*
X131397972Y-94724028D01*
X131413505Y-94742957D01*
X131425048Y-94764552D01*
X131432155Y-94787982D01*
X131434800Y-94814833D01*
X131434800Y-96161167D01*
X131432155Y-96188018D01*
X131425048Y-96211448D01*
X131413505Y-96233043D01*
X131397972Y-96251972D01*
X131379043Y-96267505D01*
X131357448Y-96279048D01*
X131334018Y-96286155D01*
X131307167Y-96288800D01*
X130960833Y-96288800D01*
X130933982Y-96286155D01*
X130910552Y-96279048D01*
X130888957Y-96267505D01*
X130870028Y-96251972D01*
X130854495Y-96233043D01*
X130842952Y-96211448D01*
X130835845Y-96188018D01*
X130833200Y-96161167D01*
X130833200Y-94814833D01*
X130835845Y-94787982D01*
X130842952Y-94764552D01*
X130854495Y-94742957D01*
X130870028Y-94724028D01*
X130888957Y-94708495D01*
X130910552Y-94696952D01*
X130933982Y-94689845D01*
X130960833Y-94687200D01*
X131307167Y-94687200D01*
X131334018Y-94689845D01*
X131334018Y-94689845D01*
G37*
G36*
X135334018Y-94689845D02*
G01*
X135357448Y-94696952D01*
X135379043Y-94708495D01*
X135397972Y-94724028D01*
X135413505Y-94742957D01*
X135425048Y-94764552D01*
X135432155Y-94787982D01*
X135434800Y-94814833D01*
X135434800Y-96161167D01*
X135432155Y-96188018D01*
X135425048Y-96211448D01*
X135413505Y-96233043D01*
X135397972Y-96251972D01*
X135379043Y-96267505D01*
X135357448Y-96279048D01*
X135334018Y-96286155D01*
X135307167Y-96288800D01*
X134960833Y-96288800D01*
X134933982Y-96286155D01*
X134910552Y-96279048D01*
X134888957Y-96267505D01*
X134870028Y-96251972D01*
X134854495Y-96233043D01*
X134842952Y-96211448D01*
X134835845Y-96188018D01*
X134833200Y-96161167D01*
X134833200Y-94814833D01*
X134835845Y-94787982D01*
X134842952Y-94764552D01*
X134854495Y-94742957D01*
X134870028Y-94724028D01*
X134888957Y-94708495D01*
X134910552Y-94696952D01*
X134933982Y-94689845D01*
X134960833Y-94687200D01*
X135307167Y-94687200D01*
X135334018Y-94689845D01*
X135334018Y-94689845D01*
G37*
G36*
X134534018Y-94689845D02*
G01*
X134557448Y-94696952D01*
X134579043Y-94708495D01*
X134597972Y-94724028D01*
X134613505Y-94742957D01*
X134625048Y-94764552D01*
X134632155Y-94787982D01*
X134634800Y-94814833D01*
X134634800Y-96161167D01*
X134632155Y-96188018D01*
X134625048Y-96211448D01*
X134613505Y-96233043D01*
X134597972Y-96251972D01*
X134579043Y-96267505D01*
X134557448Y-96279048D01*
X134534018Y-96286155D01*
X134507167Y-96288800D01*
X134160833Y-96288800D01*
X134133982Y-96286155D01*
X134110552Y-96279048D01*
X134088957Y-96267505D01*
X134070028Y-96251972D01*
X134054495Y-96233043D01*
X134042952Y-96211448D01*
X134035845Y-96188018D01*
X134033200Y-96161167D01*
X134033200Y-94814833D01*
X134035845Y-94787982D01*
X134042952Y-94764552D01*
X134054495Y-94742957D01*
X134070028Y-94724028D01*
X134088957Y-94708495D01*
X134110552Y-94696952D01*
X134133982Y-94689845D01*
X134160833Y-94687200D01*
X134507167Y-94687200D01*
X134534018Y-94689845D01*
X134534018Y-94689845D01*
G37*
G36*
X133734018Y-94689845D02*
G01*
X133757448Y-94696952D01*
X133779043Y-94708495D01*
X133797972Y-94724028D01*
X133813505Y-94742957D01*
X133825048Y-94764552D01*
X133832155Y-94787982D01*
X133834800Y-94814833D01*
X133834800Y-96161167D01*
X133832155Y-96188018D01*
X133825048Y-96211448D01*
X133813505Y-96233043D01*
X133797972Y-96251972D01*
X133779043Y-96267505D01*
X133757448Y-96279048D01*
X133734018Y-96286155D01*
X133707167Y-96288800D01*
X133360833Y-96288800D01*
X133333982Y-96286155D01*
X133310552Y-96279048D01*
X133288957Y-96267505D01*
X133270028Y-96251972D01*
X133254495Y-96233043D01*
X133242952Y-96211448D01*
X133235845Y-96188018D01*
X133233200Y-96161167D01*
X133233200Y-94814833D01*
X133235845Y-94787982D01*
X133242952Y-94764552D01*
X133254495Y-94742957D01*
X133270028Y-94724028D01*
X133288957Y-94708495D01*
X133310552Y-94696952D01*
X133333982Y-94689845D01*
X133360833Y-94687200D01*
X133707167Y-94687200D01*
X133734018Y-94689845D01*
X133734018Y-94689845D01*
G37*
G36*
X132934018Y-94689845D02*
G01*
X132957448Y-94696952D01*
X132979043Y-94708495D01*
X132997972Y-94724028D01*
X133013505Y-94742957D01*
X133025048Y-94764552D01*
X133032155Y-94787982D01*
X133034800Y-94814833D01*
X133034800Y-96161167D01*
X133032155Y-96188018D01*
X133025048Y-96211448D01*
X133013505Y-96233043D01*
X132997972Y-96251972D01*
X132979043Y-96267505D01*
X132957448Y-96279048D01*
X132934018Y-96286155D01*
X132907167Y-96288800D01*
X132560833Y-96288800D01*
X132533982Y-96286155D01*
X132510552Y-96279048D01*
X132488957Y-96267505D01*
X132470028Y-96251972D01*
X132454495Y-96233043D01*
X132442952Y-96211448D01*
X132435845Y-96188018D01*
X132433200Y-96161167D01*
X132433200Y-94814833D01*
X132435845Y-94787982D01*
X132442952Y-94764552D01*
X132454495Y-94742957D01*
X132470028Y-94724028D01*
X132488957Y-94708495D01*
X132510552Y-94696952D01*
X132533982Y-94689845D01*
X132560833Y-94687200D01*
X132907167Y-94687200D01*
X132934018Y-94689845D01*
X132934018Y-94689845D01*
G37*
G36*
X132134018Y-94689845D02*
G01*
X132157448Y-94696952D01*
X132179043Y-94708495D01*
X132197972Y-94724028D01*
X132213505Y-94742957D01*
X132225048Y-94764552D01*
X132232155Y-94787982D01*
X132234800Y-94814833D01*
X132234800Y-96161167D01*
X132232155Y-96188018D01*
X132225048Y-96211448D01*
X132213505Y-96233043D01*
X132197972Y-96251972D01*
X132179043Y-96267505D01*
X132157448Y-96279048D01*
X132134018Y-96286155D01*
X132107167Y-96288800D01*
X131760833Y-96288800D01*
X131733982Y-96286155D01*
X131710552Y-96279048D01*
X131688957Y-96267505D01*
X131670028Y-96251972D01*
X131654495Y-96233043D01*
X131642952Y-96211448D01*
X131635845Y-96188018D01*
X131633200Y-96161167D01*
X131633200Y-94814833D01*
X131635845Y-94787982D01*
X131642952Y-94764552D01*
X131654495Y-94742957D01*
X131670028Y-94724028D01*
X131688957Y-94708495D01*
X131710552Y-94696952D01*
X131733982Y-94689845D01*
X131760833Y-94687200D01*
X132107167Y-94687200D01*
X132134018Y-94689845D01*
X132134018Y-94689845D01*
G37*
G36*
X129734018Y-94689845D02*
G01*
X129757448Y-94696952D01*
X129779043Y-94708495D01*
X129797972Y-94724028D01*
X129813505Y-94742957D01*
X129825048Y-94764552D01*
X129832155Y-94787982D01*
X129834800Y-94814833D01*
X129834800Y-96161167D01*
X129832155Y-96188018D01*
X129825048Y-96211448D01*
X129813505Y-96233043D01*
X129797972Y-96251972D01*
X129779043Y-96267505D01*
X129757448Y-96279048D01*
X129734018Y-96286155D01*
X129707167Y-96288800D01*
X129360833Y-96288800D01*
X129333982Y-96286155D01*
X129310552Y-96279048D01*
X129288957Y-96267505D01*
X129270028Y-96251972D01*
X129254495Y-96233043D01*
X129242952Y-96211448D01*
X129235845Y-96188018D01*
X129233200Y-96161167D01*
X129233200Y-94814833D01*
X129235845Y-94787982D01*
X129242952Y-94764552D01*
X129254495Y-94742957D01*
X129270028Y-94724028D01*
X129288957Y-94708495D01*
X129310552Y-94696952D01*
X129333982Y-94689845D01*
X129360833Y-94687200D01*
X129707167Y-94687200D01*
X129734018Y-94689845D01*
X129734018Y-94689845D01*
G37*
G36*
X130534018Y-94689845D02*
G01*
X130557448Y-94696952D01*
X130579043Y-94708495D01*
X130597972Y-94724028D01*
X130613505Y-94742957D01*
X130625048Y-94764552D01*
X130632155Y-94787982D01*
X130634800Y-94814833D01*
X130634800Y-96161167D01*
X130632155Y-96188018D01*
X130625048Y-96211448D01*
X130613505Y-96233043D01*
X130597972Y-96251972D01*
X130579043Y-96267505D01*
X130557448Y-96279048D01*
X130534018Y-96286155D01*
X130507167Y-96288800D01*
X130160833Y-96288800D01*
X130133982Y-96286155D01*
X130110552Y-96279048D01*
X130088957Y-96267505D01*
X130070028Y-96251972D01*
X130054495Y-96233043D01*
X130042952Y-96211448D01*
X130035845Y-96188018D01*
X130033200Y-96161167D01*
X130033200Y-94814833D01*
X130035845Y-94787982D01*
X130042952Y-94764552D01*
X130054495Y-94742957D01*
X130070028Y-94724028D01*
X130088957Y-94708495D01*
X130110552Y-94696952D01*
X130133982Y-94689845D01*
X130160833Y-94687200D01*
X130507167Y-94687200D01*
X130534018Y-94689845D01*
X130534018Y-94689845D01*
G37*
G36*
X147750588Y-94245234D02*
G01*
X147920389Y-94296743D01*
X148076879Y-94380389D01*
X148214043Y-94492957D01*
X148326611Y-94630121D01*
X148410257Y-94786611D01*
X148461766Y-94956412D01*
X148479158Y-95133000D01*
X148461766Y-95309588D01*
X148410257Y-95479389D01*
X148326611Y-95635879D01*
X148214043Y-95773043D01*
X148076879Y-95885611D01*
X147920389Y-95969257D01*
X147750588Y-96020766D01*
X147618249Y-96033800D01*
X147529751Y-96033800D01*
X147397412Y-96020766D01*
X147227611Y-95969257D01*
X147071121Y-95885611D01*
X146933957Y-95773043D01*
X146821389Y-95635879D01*
X146737743Y-95479389D01*
X146686234Y-95309588D01*
X146668842Y-95133000D01*
X146686234Y-94956412D01*
X146737743Y-94786611D01*
X146821389Y-94630121D01*
X146933957Y-94492957D01*
X147071121Y-94380389D01*
X147227611Y-94296743D01*
X147397412Y-94245234D01*
X147529751Y-94232200D01*
X147618249Y-94232200D01*
X147750588Y-94245234D01*
X147750588Y-94245234D01*
G37*
G36*
X139526464Y-94792006D02*
G01*
X139571004Y-94805517D01*
X139612046Y-94827455D01*
X139648021Y-94856979D01*
X139677545Y-94892954D01*
X139699483Y-94933996D01*
X139712994Y-94978536D01*
X139717800Y-95027333D01*
X139717800Y-95698667D01*
X139712994Y-95747464D01*
X139699483Y-95792004D01*
X139677545Y-95833046D01*
X139648021Y-95869021D01*
X139612046Y-95898545D01*
X139571004Y-95920483D01*
X139526464Y-95933994D01*
X139477667Y-95938800D01*
X138906333Y-95938800D01*
X138857536Y-95933994D01*
X138812996Y-95920483D01*
X138771954Y-95898545D01*
X138735979Y-95869021D01*
X138706455Y-95833046D01*
X138684517Y-95792004D01*
X138671006Y-95747464D01*
X138666200Y-95698667D01*
X138666200Y-95027333D01*
X138671006Y-94978536D01*
X138684517Y-94933996D01*
X138706455Y-94892954D01*
X138735979Y-94856979D01*
X138771954Y-94827455D01*
X138812996Y-94805517D01*
X138857536Y-94792006D01*
X138906333Y-94787200D01*
X139477667Y-94787200D01*
X139526464Y-94792006D01*
X139526464Y-94792006D01*
G37*
G36*
X144240800Y-95768800D02*
G01*
X142414200Y-95768800D01*
X142414200Y-93567200D01*
X144240800Y-93567200D01*
X144240800Y-95768800D01*
X144240800Y-95768800D01*
G37*
G36*
X142065800Y-95768800D02*
G01*
X140239200Y-95768800D01*
X140239200Y-93567200D01*
X142065800Y-93567200D01*
X142065800Y-95768800D01*
X142065800Y-95768800D01*
G37*
G36*
X110213200Y-94778549D02*
G01*
X110213443Y-94783499D01*
X110216348Y-94813000D01*
X110213443Y-94842501D01*
X110213200Y-94847451D01*
X110213200Y-94889848D01*
X110210460Y-94894974D01*
X110207586Y-94904447D01*
X110206859Y-94909350D01*
X110203784Y-94940578D01*
X110166569Y-95063258D01*
X110106138Y-95176315D01*
X110024811Y-95275411D01*
X109925715Y-95356738D01*
X109812658Y-95417169D01*
X109689978Y-95454384D01*
X109594368Y-95463800D01*
X108830432Y-95463800D01*
X108734822Y-95454384D01*
X108612142Y-95417169D01*
X108499085Y-95356738D01*
X108399989Y-95275411D01*
X108318662Y-95176315D01*
X108258231Y-95063258D01*
X108221016Y-94940578D01*
X108217941Y-94909350D01*
X108216010Y-94899640D01*
X108212221Y-94890494D01*
X108211600Y-94889564D01*
X108211600Y-94847451D01*
X108211357Y-94842501D01*
X108208452Y-94813000D01*
X108211357Y-94783499D01*
X108211600Y-94778549D01*
X108211600Y-93562200D01*
X110213200Y-93562200D01*
X110213200Y-94778549D01*
X110213200Y-94778549D01*
G37*
G36*
X112138693Y-93067013D02*
G01*
X112279879Y-93125495D01*
X112406944Y-93210397D01*
X112515003Y-93318456D01*
X112599905Y-93445521D01*
X112658387Y-93586707D01*
X112688200Y-93736590D01*
X112688200Y-93889410D01*
X112658387Y-94039293D01*
X112599905Y-94180479D01*
X112515003Y-94307544D01*
X112406944Y-94415603D01*
X112279879Y-94500505D01*
X112138693Y-94558987D01*
X111988810Y-94588800D01*
X111835990Y-94588800D01*
X111686107Y-94558987D01*
X111544921Y-94500505D01*
X111417856Y-94415603D01*
X111309797Y-94307544D01*
X111224895Y-94180479D01*
X111166413Y-94039293D01*
X111136600Y-93889410D01*
X111136600Y-93736590D01*
X111166413Y-93586707D01*
X111224895Y-93445521D01*
X111309797Y-93318456D01*
X111417856Y-93210397D01*
X111544921Y-93125495D01*
X111686107Y-93067013D01*
X111835990Y-93037200D01*
X111988810Y-93037200D01*
X112138693Y-93067013D01*
X112138693Y-93067013D01*
G37*
G36*
X137209018Y-93814845D02*
G01*
X137232448Y-93821952D01*
X137254043Y-93833495D01*
X137272972Y-93849028D01*
X137288505Y-93867957D01*
X137300048Y-93889552D01*
X137307155Y-93912982D01*
X137309800Y-93939833D01*
X137309800Y-94286167D01*
X137307155Y-94313018D01*
X137300048Y-94336448D01*
X137288505Y-94358043D01*
X137272972Y-94376972D01*
X137254043Y-94392505D01*
X137232448Y-94404048D01*
X137209018Y-94411155D01*
X137182167Y-94413800D01*
X135835833Y-94413800D01*
X135808982Y-94411155D01*
X135785552Y-94404048D01*
X135763957Y-94392505D01*
X135745028Y-94376972D01*
X135729495Y-94358043D01*
X135717952Y-94336448D01*
X135710845Y-94313018D01*
X135708200Y-94286167D01*
X135708200Y-93939833D01*
X135710845Y-93912982D01*
X135717952Y-93889552D01*
X135729495Y-93867957D01*
X135745028Y-93849028D01*
X135763957Y-93833495D01*
X135785552Y-93821952D01*
X135808982Y-93814845D01*
X135835833Y-93812200D01*
X137182167Y-93812200D01*
X137209018Y-93814845D01*
X137209018Y-93814845D01*
G37*
G36*
X128859018Y-93814845D02*
G01*
X128882448Y-93821952D01*
X128904043Y-93833495D01*
X128922972Y-93849028D01*
X128938505Y-93867957D01*
X128950048Y-93889552D01*
X128957155Y-93912982D01*
X128959800Y-93939833D01*
X128959800Y-94286167D01*
X128957155Y-94313018D01*
X128950048Y-94336448D01*
X128938505Y-94358043D01*
X128922972Y-94376972D01*
X128904043Y-94392505D01*
X128882448Y-94404048D01*
X128859018Y-94411155D01*
X128832167Y-94413800D01*
X127485833Y-94413800D01*
X127458982Y-94411155D01*
X127435552Y-94404048D01*
X127413957Y-94392505D01*
X127395028Y-94376972D01*
X127379495Y-94358043D01*
X127367952Y-94336448D01*
X127360845Y-94313018D01*
X127358200Y-94286167D01*
X127358200Y-93939833D01*
X127360845Y-93912982D01*
X127367952Y-93889552D01*
X127379495Y-93867957D01*
X127395028Y-93849028D01*
X127413957Y-93833495D01*
X127435552Y-93821952D01*
X127458982Y-93814845D01*
X127485833Y-93812200D01*
X128832167Y-93812200D01*
X128859018Y-93814845D01*
X128859018Y-93814845D01*
G37*
G36*
X139526464Y-93042006D02*
G01*
X139571004Y-93055517D01*
X139612046Y-93077455D01*
X139648021Y-93106979D01*
X139677545Y-93142954D01*
X139699483Y-93183996D01*
X139712994Y-93228536D01*
X139717800Y-93277333D01*
X139717800Y-93948667D01*
X139712994Y-93997464D01*
X139699483Y-94042004D01*
X139677545Y-94083046D01*
X139648021Y-94119021D01*
X139612046Y-94148545D01*
X139571004Y-94170483D01*
X139526464Y-94183994D01*
X139477667Y-94188800D01*
X138906333Y-94188800D01*
X138857536Y-94183994D01*
X138812996Y-94170483D01*
X138771954Y-94148545D01*
X138735979Y-94119021D01*
X138706455Y-94083046D01*
X138684517Y-94042004D01*
X138671006Y-93997464D01*
X138666200Y-93948667D01*
X138666200Y-93277333D01*
X138671006Y-93228536D01*
X138684517Y-93183996D01*
X138706455Y-93142954D01*
X138735979Y-93106979D01*
X138771954Y-93077455D01*
X138812996Y-93055517D01*
X138857536Y-93042006D01*
X138906333Y-93037200D01*
X139477667Y-93037200D01*
X139526464Y-93042006D01*
X139526464Y-93042006D01*
G37*
G36*
X128859018Y-93014845D02*
G01*
X128882448Y-93021952D01*
X128904043Y-93033495D01*
X128922972Y-93049028D01*
X128938505Y-93067957D01*
X128950048Y-93089552D01*
X128957155Y-93112982D01*
X128959800Y-93139833D01*
X128959800Y-93486167D01*
X128957155Y-93513018D01*
X128950048Y-93536448D01*
X128938505Y-93558043D01*
X128922972Y-93576972D01*
X128904043Y-93592505D01*
X128882448Y-93604048D01*
X128859018Y-93611155D01*
X128832167Y-93613800D01*
X127485833Y-93613800D01*
X127458982Y-93611155D01*
X127435552Y-93604048D01*
X127413957Y-93592505D01*
X127395028Y-93576972D01*
X127379495Y-93558043D01*
X127367952Y-93536448D01*
X127360845Y-93513018D01*
X127358200Y-93486167D01*
X127358200Y-93139833D01*
X127360845Y-93112982D01*
X127367952Y-93089552D01*
X127379495Y-93067957D01*
X127395028Y-93049028D01*
X127413957Y-93033495D01*
X127435552Y-93021952D01*
X127458982Y-93014845D01*
X127485833Y-93012200D01*
X128832167Y-93012200D01*
X128859018Y-93014845D01*
X128859018Y-93014845D01*
G37*
G36*
X137209018Y-93014845D02*
G01*
X137232448Y-93021952D01*
X137254043Y-93033495D01*
X137272972Y-93049028D01*
X137288505Y-93067957D01*
X137300048Y-93089552D01*
X137307155Y-93112982D01*
X137309800Y-93139833D01*
X137309800Y-93486167D01*
X137307155Y-93513018D01*
X137300048Y-93536448D01*
X137288505Y-93558043D01*
X137272972Y-93576972D01*
X137254043Y-93592505D01*
X137232448Y-93604048D01*
X137209018Y-93611155D01*
X137182167Y-93613800D01*
X135835833Y-93613800D01*
X135808982Y-93611155D01*
X135785552Y-93604048D01*
X135763957Y-93592505D01*
X135745028Y-93576972D01*
X135729495Y-93558043D01*
X135717952Y-93536448D01*
X135710845Y-93513018D01*
X135708200Y-93486167D01*
X135708200Y-93139833D01*
X135710845Y-93112982D01*
X135717952Y-93089552D01*
X135729495Y-93067957D01*
X135745028Y-93049028D01*
X135763957Y-93033495D01*
X135785552Y-93021952D01*
X135808982Y-93014845D01*
X135835833Y-93012200D01*
X137182167Y-93012200D01*
X137209018Y-93014845D01*
X137209018Y-93014845D01*
G37*
G36*
X147750588Y-91705234D02*
G01*
X147920389Y-91756743D01*
X148076879Y-91840389D01*
X148214043Y-91952957D01*
X148326611Y-92090121D01*
X148410257Y-92246611D01*
X148461766Y-92416412D01*
X148479158Y-92593000D01*
X148461766Y-92769588D01*
X148410257Y-92939389D01*
X148326611Y-93095879D01*
X148214043Y-93233043D01*
X148076879Y-93345611D01*
X147920389Y-93429257D01*
X147750588Y-93480766D01*
X147618249Y-93493800D01*
X147529751Y-93493800D01*
X147397412Y-93480766D01*
X147227611Y-93429257D01*
X147071121Y-93345611D01*
X146933957Y-93233043D01*
X146821389Y-93095879D01*
X146737743Y-92939389D01*
X146686234Y-92769588D01*
X146668842Y-92593000D01*
X146686234Y-92416412D01*
X146737743Y-92246611D01*
X146821389Y-92090121D01*
X146933957Y-91952957D01*
X147071121Y-91840389D01*
X147227611Y-91756743D01*
X147397412Y-91705234D01*
X147529751Y-91692200D01*
X147618249Y-91692200D01*
X147750588Y-91705234D01*
X147750588Y-91705234D01*
G37*
G36*
X117245800Y-93204200D02*
G01*
X116244200Y-93204200D01*
X116244200Y-92302600D01*
X117245800Y-92302600D01*
X117245800Y-93204200D01*
X117245800Y-93204200D01*
G37*
G36*
X110213200Y-93113800D02*
G01*
X108211600Y-93113800D01*
X108211600Y-91512200D01*
X110213200Y-91512200D01*
X110213200Y-93113800D01*
X110213200Y-93113800D01*
G37*
G36*
X144240800Y-92868800D02*
G01*
X142414200Y-92868800D01*
X142414200Y-90667200D01*
X144240800Y-90667200D01*
X144240800Y-92868800D01*
X144240800Y-92868800D01*
G37*
G36*
X142065800Y-92868800D02*
G01*
X140239200Y-92868800D01*
X140239200Y-90667200D01*
X142065800Y-90667200D01*
X142065800Y-92868800D01*
X142065800Y-92868800D01*
G37*
G36*
X112638200Y-92863800D02*
G01*
X111186600Y-92863800D01*
X111186600Y-92362200D01*
X112638200Y-92362200D01*
X112638200Y-92863800D01*
X112638200Y-92863800D01*
G37*
G36*
X137209018Y-92214845D02*
G01*
X137232448Y-92221952D01*
X137254043Y-92233495D01*
X137272972Y-92249028D01*
X137288505Y-92267957D01*
X137300048Y-92289552D01*
X137307155Y-92312982D01*
X137309800Y-92339833D01*
X137309800Y-92686167D01*
X137307155Y-92713018D01*
X137300048Y-92736448D01*
X137288505Y-92758043D01*
X137272972Y-92776972D01*
X137254043Y-92792505D01*
X137232448Y-92804048D01*
X137209018Y-92811155D01*
X137182167Y-92813800D01*
X135835833Y-92813800D01*
X135808982Y-92811155D01*
X135785552Y-92804048D01*
X135763957Y-92792505D01*
X135745028Y-92776972D01*
X135729495Y-92758043D01*
X135717952Y-92736448D01*
X135710845Y-92713018D01*
X135708200Y-92686167D01*
X135708200Y-92339833D01*
X135710845Y-92312982D01*
X135717952Y-92289552D01*
X135729495Y-92267957D01*
X135745028Y-92249028D01*
X135763957Y-92233495D01*
X135785552Y-92221952D01*
X135808982Y-92214845D01*
X135835833Y-92212200D01*
X137182167Y-92212200D01*
X137209018Y-92214845D01*
X137209018Y-92214845D01*
G37*
G36*
X128859018Y-92214845D02*
G01*
X128882448Y-92221952D01*
X128904043Y-92233495D01*
X128922972Y-92249028D01*
X128938505Y-92267957D01*
X128950048Y-92289552D01*
X128957155Y-92312982D01*
X128959800Y-92339833D01*
X128959800Y-92686167D01*
X128957155Y-92713018D01*
X128950048Y-92736448D01*
X128938505Y-92758043D01*
X128922972Y-92776972D01*
X128904043Y-92792505D01*
X128882448Y-92804048D01*
X128859018Y-92811155D01*
X128832167Y-92813800D01*
X127485833Y-92813800D01*
X127458982Y-92811155D01*
X127435552Y-92804048D01*
X127413957Y-92792505D01*
X127395028Y-92776972D01*
X127379495Y-92758043D01*
X127367952Y-92736448D01*
X127360845Y-92713018D01*
X127358200Y-92686167D01*
X127358200Y-92339833D01*
X127360845Y-92312982D01*
X127367952Y-92289552D01*
X127379495Y-92267957D01*
X127395028Y-92249028D01*
X127413957Y-92233495D01*
X127435552Y-92221952D01*
X127458982Y-92214845D01*
X127485833Y-92212200D01*
X128832167Y-92212200D01*
X128859018Y-92214845D01*
X128859018Y-92214845D01*
G37*
G36*
X139526464Y-91490006D02*
G01*
X139571004Y-91503517D01*
X139612046Y-91525455D01*
X139648021Y-91554979D01*
X139677545Y-91590954D01*
X139699483Y-91631996D01*
X139712994Y-91676536D01*
X139717800Y-91725333D01*
X139717800Y-92396667D01*
X139712994Y-92445464D01*
X139699483Y-92490004D01*
X139677545Y-92531046D01*
X139648021Y-92567021D01*
X139612046Y-92596545D01*
X139571004Y-92618483D01*
X139526464Y-92631994D01*
X139477667Y-92636800D01*
X138906333Y-92636800D01*
X138857536Y-92631994D01*
X138812996Y-92618483D01*
X138771954Y-92596545D01*
X138735979Y-92567021D01*
X138706455Y-92531046D01*
X138684517Y-92490004D01*
X138671006Y-92445464D01*
X138666200Y-92396667D01*
X138666200Y-91725333D01*
X138671006Y-91676536D01*
X138684517Y-91631996D01*
X138706455Y-91590954D01*
X138735979Y-91554979D01*
X138771954Y-91525455D01*
X138812996Y-91503517D01*
X138857536Y-91490006D01*
X138906333Y-91485200D01*
X139477667Y-91485200D01*
X139526464Y-91490006D01*
X139526464Y-91490006D01*
G37*
G36*
X119245800Y-92254200D02*
G01*
X118244200Y-92254200D01*
X118244200Y-91352600D01*
X119245800Y-91352600D01*
X119245800Y-92254200D01*
X119245800Y-92254200D01*
G37*
G36*
X112638200Y-92213800D02*
G01*
X111186600Y-92213800D01*
X111186600Y-91712200D01*
X112638200Y-91712200D01*
X112638200Y-92213800D01*
X112638200Y-92213800D01*
G37*
G36*
X128859018Y-91414845D02*
G01*
X128882448Y-91421952D01*
X128904043Y-91433495D01*
X128922972Y-91449028D01*
X128938505Y-91467957D01*
X128950048Y-91489552D01*
X128957155Y-91512982D01*
X128959800Y-91539833D01*
X128959800Y-91886167D01*
X128957155Y-91913018D01*
X128950048Y-91936448D01*
X128938505Y-91958043D01*
X128922972Y-91976972D01*
X128904043Y-91992505D01*
X128882448Y-92004048D01*
X128859018Y-92011155D01*
X128832167Y-92013800D01*
X127485833Y-92013800D01*
X127458982Y-92011155D01*
X127435552Y-92004048D01*
X127413957Y-91992505D01*
X127395028Y-91976972D01*
X127379495Y-91958043D01*
X127367952Y-91936448D01*
X127360845Y-91913018D01*
X127358200Y-91886167D01*
X127358200Y-91539833D01*
X127360845Y-91512982D01*
X127367952Y-91489552D01*
X127379495Y-91467957D01*
X127395028Y-91449028D01*
X127413957Y-91433495D01*
X127435552Y-91421952D01*
X127458982Y-91414845D01*
X127485833Y-91412200D01*
X128832167Y-91412200D01*
X128859018Y-91414845D01*
X128859018Y-91414845D01*
G37*
G36*
X137209018Y-91414845D02*
G01*
X137232448Y-91421952D01*
X137254043Y-91433495D01*
X137272972Y-91449028D01*
X137288505Y-91467957D01*
X137300048Y-91489552D01*
X137307155Y-91512982D01*
X137309800Y-91539833D01*
X137309800Y-91886167D01*
X137307155Y-91913018D01*
X137300048Y-91936448D01*
X137288505Y-91958043D01*
X137272972Y-91976972D01*
X137254043Y-91992505D01*
X137232448Y-92004048D01*
X137209018Y-92011155D01*
X137182167Y-92013800D01*
X135835833Y-92013800D01*
X135808982Y-92011155D01*
X135785552Y-92004048D01*
X135763957Y-91992505D01*
X135745028Y-91976972D01*
X135729495Y-91958043D01*
X135717952Y-91936448D01*
X135710845Y-91913018D01*
X135708200Y-91886167D01*
X135708200Y-91539833D01*
X135710845Y-91512982D01*
X135717952Y-91489552D01*
X135729495Y-91467957D01*
X135745028Y-91449028D01*
X135763957Y-91433495D01*
X135785552Y-91421952D01*
X135808982Y-91414845D01*
X135835833Y-91412200D01*
X137182167Y-91412200D01*
X137209018Y-91414845D01*
X137209018Y-91414845D01*
G37*
G36*
X112638200Y-91563800D02*
G01*
X111186600Y-91563800D01*
X111186600Y-91062200D01*
X112638200Y-91062200D01*
X112638200Y-91563800D01*
X112638200Y-91563800D01*
G37*
G36*
X117245800Y-91304200D02*
G01*
X116244200Y-91304200D01*
X116244200Y-90402600D01*
X117245800Y-90402600D01*
X117245800Y-91304200D01*
X117245800Y-91304200D01*
G37*
G36*
X128859018Y-90614845D02*
G01*
X128882448Y-90621952D01*
X128904043Y-90633495D01*
X128922972Y-90649028D01*
X128938505Y-90667957D01*
X128950048Y-90689552D01*
X128957155Y-90712982D01*
X128959800Y-90739833D01*
X128959800Y-91086167D01*
X128957155Y-91113018D01*
X128950048Y-91136448D01*
X128938505Y-91158043D01*
X128922972Y-91176972D01*
X128904043Y-91192505D01*
X128882448Y-91204048D01*
X128859018Y-91211155D01*
X128832167Y-91213800D01*
X127485833Y-91213800D01*
X127458982Y-91211155D01*
X127435552Y-91204048D01*
X127413957Y-91192505D01*
X127395028Y-91176972D01*
X127379495Y-91158043D01*
X127367952Y-91136448D01*
X127360845Y-91113018D01*
X127358200Y-91086167D01*
X127358200Y-90739833D01*
X127360845Y-90712982D01*
X127367952Y-90689552D01*
X127379495Y-90667957D01*
X127395028Y-90649028D01*
X127413957Y-90633495D01*
X127435552Y-90621952D01*
X127458982Y-90614845D01*
X127485833Y-90612200D01*
X128832167Y-90612200D01*
X128859018Y-90614845D01*
X128859018Y-90614845D01*
G37*
G36*
X137209018Y-90614845D02*
G01*
X137232448Y-90621952D01*
X137254043Y-90633495D01*
X137272972Y-90649028D01*
X137288505Y-90667957D01*
X137300048Y-90689552D01*
X137307155Y-90712982D01*
X137309800Y-90739833D01*
X137309800Y-91086167D01*
X137307155Y-91113018D01*
X137300048Y-91136448D01*
X137288505Y-91158043D01*
X137272972Y-91176972D01*
X137254043Y-91192505D01*
X137232448Y-91204048D01*
X137209018Y-91211155D01*
X137182167Y-91213800D01*
X135835833Y-91213800D01*
X135808982Y-91211155D01*
X135785552Y-91204048D01*
X135763957Y-91192505D01*
X135745028Y-91176972D01*
X135729495Y-91158043D01*
X135717952Y-91136448D01*
X135710845Y-91113018D01*
X135708200Y-91086167D01*
X135708200Y-90739833D01*
X135710845Y-90712982D01*
X135717952Y-90689552D01*
X135729495Y-90667957D01*
X135745028Y-90649028D01*
X135763957Y-90633495D01*
X135785552Y-90621952D01*
X135808982Y-90614845D01*
X135835833Y-90612200D01*
X137182167Y-90612200D01*
X137209018Y-90614845D01*
X137209018Y-90614845D01*
G37*
G36*
X110213200Y-91113800D02*
G01*
X108211600Y-91113800D01*
X108211600Y-89512200D01*
X110213200Y-89512200D01*
X110213200Y-91113800D01*
X110213200Y-91113800D01*
G37*
G36*
X147750588Y-89165234D02*
G01*
X147920389Y-89216743D01*
X148076879Y-89300389D01*
X148214043Y-89412957D01*
X148326611Y-89550121D01*
X148410257Y-89706611D01*
X148461766Y-89876412D01*
X148479158Y-90053000D01*
X148461766Y-90229588D01*
X148410257Y-90399389D01*
X148326611Y-90555879D01*
X148214043Y-90693043D01*
X148076879Y-90805611D01*
X147920389Y-90889257D01*
X147750588Y-90940766D01*
X147618249Y-90953800D01*
X147529751Y-90953800D01*
X147397412Y-90940766D01*
X147227611Y-90889257D01*
X147071121Y-90805611D01*
X146933957Y-90693043D01*
X146821389Y-90555879D01*
X146737743Y-90399389D01*
X146686234Y-90229588D01*
X146668842Y-90053000D01*
X146686234Y-89876412D01*
X146737743Y-89706611D01*
X146821389Y-89550121D01*
X146933957Y-89412957D01*
X147071121Y-89300389D01*
X147227611Y-89216743D01*
X147397412Y-89165234D01*
X147529751Y-89152200D01*
X147618249Y-89152200D01*
X147750588Y-89165234D01*
X147750588Y-89165234D01*
G37*
G36*
X112638200Y-90913800D02*
G01*
X111186600Y-90913800D01*
X111186600Y-90412200D01*
X112638200Y-90412200D01*
X112638200Y-90913800D01*
X112638200Y-90913800D01*
G37*
G36*
X139526464Y-89740006D02*
G01*
X139571004Y-89753517D01*
X139612046Y-89775455D01*
X139648021Y-89804979D01*
X139677545Y-89840954D01*
X139699483Y-89881996D01*
X139712994Y-89926536D01*
X139717800Y-89975333D01*
X139717800Y-90646667D01*
X139712994Y-90695464D01*
X139699483Y-90740004D01*
X139677545Y-90781046D01*
X139648021Y-90817021D01*
X139612046Y-90846545D01*
X139571004Y-90868483D01*
X139526464Y-90881994D01*
X139477667Y-90886800D01*
X138906333Y-90886800D01*
X138857536Y-90881994D01*
X138812996Y-90868483D01*
X138771954Y-90846545D01*
X138735979Y-90817021D01*
X138706455Y-90781046D01*
X138684517Y-90740004D01*
X138671006Y-90695464D01*
X138666200Y-90646667D01*
X138666200Y-89975333D01*
X138671006Y-89926536D01*
X138684517Y-89881996D01*
X138706455Y-89840954D01*
X138735979Y-89804979D01*
X138771954Y-89775455D01*
X138812996Y-89753517D01*
X138857536Y-89740006D01*
X138906333Y-89735200D01*
X139477667Y-89735200D01*
X139526464Y-89740006D01*
X139526464Y-89740006D01*
G37*
G36*
X128859018Y-89814845D02*
G01*
X128882448Y-89821952D01*
X128904043Y-89833495D01*
X128922972Y-89849028D01*
X128938505Y-89867957D01*
X128950048Y-89889552D01*
X128957155Y-89912982D01*
X128959800Y-89939833D01*
X128959800Y-90286167D01*
X128957155Y-90313018D01*
X128950048Y-90336448D01*
X128938505Y-90358043D01*
X128922972Y-90376972D01*
X128904043Y-90392505D01*
X128882448Y-90404048D01*
X128859018Y-90411155D01*
X128832167Y-90413800D01*
X127485833Y-90413800D01*
X127458982Y-90411155D01*
X127435552Y-90404048D01*
X127413957Y-90392505D01*
X127395028Y-90376972D01*
X127379495Y-90358043D01*
X127367952Y-90336448D01*
X127360845Y-90313018D01*
X127358200Y-90286167D01*
X127358200Y-89939833D01*
X127360845Y-89912982D01*
X127367952Y-89889552D01*
X127379495Y-89867957D01*
X127395028Y-89849028D01*
X127413957Y-89833495D01*
X127435552Y-89821952D01*
X127458982Y-89814845D01*
X127485833Y-89812200D01*
X128832167Y-89812200D01*
X128859018Y-89814845D01*
X128859018Y-89814845D01*
G37*
G36*
X137209018Y-89814845D02*
G01*
X137232448Y-89821952D01*
X137254043Y-89833495D01*
X137272972Y-89849028D01*
X137288505Y-89867957D01*
X137300048Y-89889552D01*
X137307155Y-89912982D01*
X137309800Y-89939833D01*
X137309800Y-90286167D01*
X137307155Y-90313018D01*
X137300048Y-90336448D01*
X137288505Y-90358043D01*
X137272972Y-90376972D01*
X137254043Y-90392505D01*
X137232448Y-90404048D01*
X137209018Y-90411155D01*
X137182167Y-90413800D01*
X135835833Y-90413800D01*
X135808982Y-90411155D01*
X135785552Y-90404048D01*
X135763957Y-90392505D01*
X135745028Y-90376972D01*
X135729495Y-90358043D01*
X135717952Y-90336448D01*
X135710845Y-90313018D01*
X135708200Y-90286167D01*
X135708200Y-89939833D01*
X135710845Y-89912982D01*
X135717952Y-89889552D01*
X135729495Y-89867957D01*
X135745028Y-89849028D01*
X135763957Y-89833495D01*
X135785552Y-89821952D01*
X135808982Y-89814845D01*
X135835833Y-89812200D01*
X137182167Y-89812200D01*
X137209018Y-89814845D01*
X137209018Y-89814845D01*
G37*
G36*
X112638200Y-90263800D02*
G01*
X111186600Y-90263800D01*
X111186600Y-89762200D01*
X112638200Y-89762200D01*
X112638200Y-90263800D01*
X112638200Y-90263800D01*
G37*
G36*
X137209018Y-89014845D02*
G01*
X137232448Y-89021952D01*
X137254043Y-89033495D01*
X137272972Y-89049028D01*
X137288505Y-89067957D01*
X137300048Y-89089552D01*
X137307155Y-89112982D01*
X137309800Y-89139833D01*
X137309800Y-89486167D01*
X137307155Y-89513018D01*
X137300048Y-89536448D01*
X137288505Y-89558043D01*
X137272972Y-89576972D01*
X137254043Y-89592505D01*
X137232448Y-89604048D01*
X137209018Y-89611155D01*
X137182167Y-89613800D01*
X135835833Y-89613800D01*
X135808982Y-89611155D01*
X135785552Y-89604048D01*
X135763957Y-89592505D01*
X135745028Y-89576972D01*
X135729495Y-89558043D01*
X135717952Y-89536448D01*
X135710845Y-89513018D01*
X135708200Y-89486167D01*
X135708200Y-89139833D01*
X135710845Y-89112982D01*
X135717952Y-89089552D01*
X135729495Y-89067957D01*
X135745028Y-89049028D01*
X135763957Y-89033495D01*
X135785552Y-89021952D01*
X135808982Y-89014845D01*
X135835833Y-89012200D01*
X137182167Y-89012200D01*
X137209018Y-89014845D01*
X137209018Y-89014845D01*
G37*
G36*
X128859018Y-89014845D02*
G01*
X128882448Y-89021952D01*
X128904043Y-89033495D01*
X128922972Y-89049028D01*
X128938505Y-89067957D01*
X128950048Y-89089552D01*
X128957155Y-89112982D01*
X128959800Y-89139833D01*
X128959800Y-89486167D01*
X128957155Y-89513018D01*
X128950048Y-89536448D01*
X128938505Y-89558043D01*
X128922972Y-89576972D01*
X128904043Y-89592505D01*
X128882448Y-89604048D01*
X128859018Y-89611155D01*
X128832167Y-89613800D01*
X127485833Y-89613800D01*
X127458982Y-89611155D01*
X127435552Y-89604048D01*
X127413957Y-89592505D01*
X127395028Y-89576972D01*
X127379495Y-89558043D01*
X127367952Y-89536448D01*
X127360845Y-89513018D01*
X127358200Y-89486167D01*
X127358200Y-89139833D01*
X127360845Y-89112982D01*
X127367952Y-89089552D01*
X127379495Y-89067957D01*
X127395028Y-89049028D01*
X127413957Y-89033495D01*
X127435552Y-89021952D01*
X127458982Y-89014845D01*
X127485833Y-89012200D01*
X128832167Y-89012200D01*
X128859018Y-89014845D01*
X128859018Y-89014845D01*
G37*
G36*
X112138693Y-88067013D02*
G01*
X112279879Y-88125495D01*
X112406944Y-88210397D01*
X112515003Y-88318456D01*
X112599905Y-88445521D01*
X112658387Y-88586707D01*
X112688200Y-88736590D01*
X112688200Y-88889410D01*
X112658387Y-89039293D01*
X112599905Y-89180479D01*
X112515003Y-89307544D01*
X112406944Y-89415603D01*
X112279879Y-89500505D01*
X112138693Y-89558987D01*
X111988810Y-89588800D01*
X111835990Y-89588800D01*
X111686107Y-89558987D01*
X111544921Y-89500505D01*
X111417856Y-89415603D01*
X111309797Y-89307544D01*
X111224895Y-89180479D01*
X111166413Y-89039293D01*
X111136600Y-88889410D01*
X111136600Y-88736590D01*
X111166413Y-88586707D01*
X111224895Y-88445521D01*
X111309797Y-88318456D01*
X111417856Y-88210397D01*
X111544921Y-88125495D01*
X111686107Y-88067013D01*
X111835990Y-88037200D01*
X111988810Y-88037200D01*
X112138693Y-88067013D01*
X112138693Y-88067013D01*
G37*
G36*
X109689978Y-87171616D02*
G01*
X109812658Y-87208831D01*
X109925715Y-87269262D01*
X110024811Y-87350589D01*
X110106138Y-87449685D01*
X110166569Y-87562742D01*
X110203784Y-87685422D01*
X110206859Y-87716650D01*
X110208790Y-87726360D01*
X110212579Y-87735506D01*
X110213200Y-87736436D01*
X110213200Y-87778549D01*
X110213443Y-87783499D01*
X110216348Y-87813000D01*
X110213443Y-87842501D01*
X110213200Y-87847451D01*
X110213200Y-89063800D01*
X108211600Y-89063800D01*
X108211600Y-87847451D01*
X108211357Y-87842501D01*
X108208452Y-87813000D01*
X108211357Y-87783499D01*
X108211600Y-87778549D01*
X108211600Y-87736152D01*
X108214340Y-87731026D01*
X108217214Y-87721553D01*
X108217941Y-87716650D01*
X108221016Y-87685422D01*
X108258231Y-87562742D01*
X108318662Y-87449685D01*
X108399989Y-87350589D01*
X108499085Y-87269262D01*
X108612142Y-87208831D01*
X108734822Y-87171616D01*
X108830432Y-87162200D01*
X109594368Y-87162200D01*
X109689978Y-87171616D01*
X109689978Y-87171616D01*
G37*
G36*
X137209018Y-88214845D02*
G01*
X137232448Y-88221952D01*
X137254043Y-88233495D01*
X137272972Y-88249028D01*
X137288505Y-88267957D01*
X137300048Y-88289552D01*
X137307155Y-88312982D01*
X137309800Y-88339833D01*
X137309800Y-88686167D01*
X137307155Y-88713018D01*
X137300048Y-88736448D01*
X137288505Y-88758043D01*
X137272972Y-88776972D01*
X137254043Y-88792505D01*
X137232448Y-88804048D01*
X137209018Y-88811155D01*
X137182167Y-88813800D01*
X135835833Y-88813800D01*
X135808982Y-88811155D01*
X135785552Y-88804048D01*
X135763957Y-88792505D01*
X135745028Y-88776972D01*
X135729495Y-88758043D01*
X135717952Y-88736448D01*
X135710845Y-88713018D01*
X135708200Y-88686167D01*
X135708200Y-88339833D01*
X135710845Y-88312982D01*
X135717952Y-88289552D01*
X135729495Y-88267957D01*
X135745028Y-88249028D01*
X135763957Y-88233495D01*
X135785552Y-88221952D01*
X135808982Y-88214845D01*
X135835833Y-88212200D01*
X137182167Y-88212200D01*
X137209018Y-88214845D01*
X137209018Y-88214845D01*
G37*
G36*
X128859018Y-88214845D02*
G01*
X128882448Y-88221952D01*
X128904043Y-88233495D01*
X128922972Y-88249028D01*
X128938505Y-88267957D01*
X128950048Y-88289552D01*
X128957155Y-88312982D01*
X128959800Y-88339833D01*
X128959800Y-88686167D01*
X128957155Y-88713018D01*
X128950048Y-88736448D01*
X128938505Y-88758043D01*
X128922972Y-88776972D01*
X128904043Y-88792505D01*
X128882448Y-88804048D01*
X128859018Y-88811155D01*
X128832167Y-88813800D01*
X127485833Y-88813800D01*
X127458982Y-88811155D01*
X127435552Y-88804048D01*
X127413957Y-88792505D01*
X127395028Y-88776972D01*
X127379495Y-88758043D01*
X127367952Y-88736448D01*
X127360845Y-88713018D01*
X127358200Y-88686167D01*
X127358200Y-88339833D01*
X127360845Y-88312982D01*
X127367952Y-88289552D01*
X127379495Y-88267957D01*
X127395028Y-88249028D01*
X127413957Y-88233495D01*
X127435552Y-88221952D01*
X127458982Y-88214845D01*
X127485833Y-88212200D01*
X128832167Y-88212200D01*
X128859018Y-88214845D01*
X128859018Y-88214845D01*
G37*
G36*
X148474800Y-88413800D02*
G01*
X146673200Y-88413800D01*
X146673200Y-86612200D01*
X148474800Y-86612200D01*
X148474800Y-88413800D01*
X148474800Y-88413800D01*
G37*
G36*
X130534018Y-86339845D02*
G01*
X130557448Y-86346952D01*
X130579043Y-86358495D01*
X130597972Y-86374028D01*
X130613505Y-86392957D01*
X130625048Y-86414552D01*
X130632155Y-86437982D01*
X130634800Y-86464833D01*
X130634800Y-87811167D01*
X130632155Y-87838018D01*
X130625048Y-87861448D01*
X130613505Y-87883043D01*
X130597972Y-87901972D01*
X130579043Y-87917505D01*
X130557448Y-87929048D01*
X130534018Y-87936155D01*
X130507167Y-87938800D01*
X130160833Y-87938800D01*
X130133982Y-87936155D01*
X130110552Y-87929048D01*
X130088957Y-87917505D01*
X130070028Y-87901972D01*
X130054495Y-87883043D01*
X130042952Y-87861448D01*
X130035845Y-87838018D01*
X130033200Y-87811167D01*
X130033200Y-86464833D01*
X130035845Y-86437982D01*
X130042952Y-86414552D01*
X130054495Y-86392957D01*
X130070028Y-86374028D01*
X130088957Y-86358495D01*
X130110552Y-86346952D01*
X130133982Y-86339845D01*
X130160833Y-86337200D01*
X130507167Y-86337200D01*
X130534018Y-86339845D01*
X130534018Y-86339845D01*
G37*
G36*
X133734018Y-86339845D02*
G01*
X133757448Y-86346952D01*
X133779043Y-86358495D01*
X133797972Y-86374028D01*
X133813505Y-86392957D01*
X133825048Y-86414552D01*
X133832155Y-86437982D01*
X133834800Y-86464833D01*
X133834800Y-87811167D01*
X133832155Y-87838018D01*
X133825048Y-87861448D01*
X133813505Y-87883043D01*
X133797972Y-87901972D01*
X133779043Y-87917505D01*
X133757448Y-87929048D01*
X133734018Y-87936155D01*
X133707167Y-87938800D01*
X133360833Y-87938800D01*
X133333982Y-87936155D01*
X133310552Y-87929048D01*
X133288957Y-87917505D01*
X133270028Y-87901972D01*
X133254495Y-87883043D01*
X133242952Y-87861448D01*
X133235845Y-87838018D01*
X133233200Y-87811167D01*
X133233200Y-86464833D01*
X133235845Y-86437982D01*
X133242952Y-86414552D01*
X133254495Y-86392957D01*
X133270028Y-86374028D01*
X133288957Y-86358495D01*
X133310552Y-86346952D01*
X133333982Y-86339845D01*
X133360833Y-86337200D01*
X133707167Y-86337200D01*
X133734018Y-86339845D01*
X133734018Y-86339845D01*
G37*
G36*
X132134018Y-86339845D02*
G01*
X132157448Y-86346952D01*
X132179043Y-86358495D01*
X132197972Y-86374028D01*
X132213505Y-86392957D01*
X132225048Y-86414552D01*
X132232155Y-86437982D01*
X132234800Y-86464833D01*
X132234800Y-87811167D01*
X132232155Y-87838018D01*
X132225048Y-87861448D01*
X132213505Y-87883043D01*
X132197972Y-87901972D01*
X132179043Y-87917505D01*
X132157448Y-87929048D01*
X132134018Y-87936155D01*
X132107167Y-87938800D01*
X131760833Y-87938800D01*
X131733982Y-87936155D01*
X131710552Y-87929048D01*
X131688957Y-87917505D01*
X131670028Y-87901972D01*
X131654495Y-87883043D01*
X131642952Y-87861448D01*
X131635845Y-87838018D01*
X131633200Y-87811167D01*
X131633200Y-86464833D01*
X131635845Y-86437982D01*
X131642952Y-86414552D01*
X131654495Y-86392957D01*
X131670028Y-86374028D01*
X131688957Y-86358495D01*
X131710552Y-86346952D01*
X131733982Y-86339845D01*
X131760833Y-86337200D01*
X132107167Y-86337200D01*
X132134018Y-86339845D01*
X132134018Y-86339845D01*
G37*
G36*
X135334018Y-86339845D02*
G01*
X135357448Y-86346952D01*
X135379043Y-86358495D01*
X135397972Y-86374028D01*
X135413505Y-86392957D01*
X135425048Y-86414552D01*
X135432155Y-86437982D01*
X135434800Y-86464833D01*
X135434800Y-87811167D01*
X135432155Y-87838018D01*
X135425048Y-87861448D01*
X135413505Y-87883043D01*
X135397972Y-87901972D01*
X135379043Y-87917505D01*
X135357448Y-87929048D01*
X135334018Y-87936155D01*
X135307167Y-87938800D01*
X134960833Y-87938800D01*
X134933982Y-87936155D01*
X134910552Y-87929048D01*
X134888957Y-87917505D01*
X134870028Y-87901972D01*
X134854495Y-87883043D01*
X134842952Y-87861448D01*
X134835845Y-87838018D01*
X134833200Y-87811167D01*
X134833200Y-86464833D01*
X134835845Y-86437982D01*
X134842952Y-86414552D01*
X134854495Y-86392957D01*
X134870028Y-86374028D01*
X134888957Y-86358495D01*
X134910552Y-86346952D01*
X134933982Y-86339845D01*
X134960833Y-86337200D01*
X135307167Y-86337200D01*
X135334018Y-86339845D01*
X135334018Y-86339845D01*
G37*
G36*
X132934018Y-86339845D02*
G01*
X132957448Y-86346952D01*
X132979043Y-86358495D01*
X132997972Y-86374028D01*
X133013505Y-86392957D01*
X133025048Y-86414552D01*
X133032155Y-86437982D01*
X133034800Y-86464833D01*
X133034800Y-87811167D01*
X133032155Y-87838018D01*
X133025048Y-87861448D01*
X133013505Y-87883043D01*
X132997972Y-87901972D01*
X132979043Y-87917505D01*
X132957448Y-87929048D01*
X132934018Y-87936155D01*
X132907167Y-87938800D01*
X132560833Y-87938800D01*
X132533982Y-87936155D01*
X132510552Y-87929048D01*
X132488957Y-87917505D01*
X132470028Y-87901972D01*
X132454495Y-87883043D01*
X132442952Y-87861448D01*
X132435845Y-87838018D01*
X132433200Y-87811167D01*
X132433200Y-86464833D01*
X132435845Y-86437982D01*
X132442952Y-86414552D01*
X132454495Y-86392957D01*
X132470028Y-86374028D01*
X132488957Y-86358495D01*
X132510552Y-86346952D01*
X132533982Y-86339845D01*
X132560833Y-86337200D01*
X132907167Y-86337200D01*
X132934018Y-86339845D01*
X132934018Y-86339845D01*
G37*
G36*
X131334018Y-86339845D02*
G01*
X131357448Y-86346952D01*
X131379043Y-86358495D01*
X131397972Y-86374028D01*
X131413505Y-86392957D01*
X131425048Y-86414552D01*
X131432155Y-86437982D01*
X131434800Y-86464833D01*
X131434800Y-87811167D01*
X131432155Y-87838018D01*
X131425048Y-87861448D01*
X131413505Y-87883043D01*
X131397972Y-87901972D01*
X131379043Y-87917505D01*
X131357448Y-87929048D01*
X131334018Y-87936155D01*
X131307167Y-87938800D01*
X130960833Y-87938800D01*
X130933982Y-87936155D01*
X130910552Y-87929048D01*
X130888957Y-87917505D01*
X130870028Y-87901972D01*
X130854495Y-87883043D01*
X130842952Y-87861448D01*
X130835845Y-87838018D01*
X130833200Y-87811167D01*
X130833200Y-86464833D01*
X130835845Y-86437982D01*
X130842952Y-86414552D01*
X130854495Y-86392957D01*
X130870028Y-86374028D01*
X130888957Y-86358495D01*
X130910552Y-86346952D01*
X130933982Y-86339845D01*
X130960833Y-86337200D01*
X131307167Y-86337200D01*
X131334018Y-86339845D01*
X131334018Y-86339845D01*
G37*
G36*
X129734018Y-86339845D02*
G01*
X129757448Y-86346952D01*
X129779043Y-86358495D01*
X129797972Y-86374028D01*
X129813505Y-86392957D01*
X129825048Y-86414552D01*
X129832155Y-86437982D01*
X129834800Y-86464833D01*
X129834800Y-87811167D01*
X129832155Y-87838018D01*
X129825048Y-87861448D01*
X129813505Y-87883043D01*
X129797972Y-87901972D01*
X129779043Y-87917505D01*
X129757448Y-87929048D01*
X129734018Y-87936155D01*
X129707167Y-87938800D01*
X129360833Y-87938800D01*
X129333982Y-87936155D01*
X129310552Y-87929048D01*
X129288957Y-87917505D01*
X129270028Y-87901972D01*
X129254495Y-87883043D01*
X129242952Y-87861448D01*
X129235845Y-87838018D01*
X129233200Y-87811167D01*
X129233200Y-86464833D01*
X129235845Y-86437982D01*
X129242952Y-86414552D01*
X129254495Y-86392957D01*
X129270028Y-86374028D01*
X129288957Y-86358495D01*
X129310552Y-86346952D01*
X129333982Y-86339845D01*
X129360833Y-86337200D01*
X129707167Y-86337200D01*
X129734018Y-86339845D01*
X129734018Y-86339845D01*
G37*
G36*
X134534018Y-86339845D02*
G01*
X134557448Y-86346952D01*
X134579043Y-86358495D01*
X134597972Y-86374028D01*
X134613505Y-86392957D01*
X134625048Y-86414552D01*
X134632155Y-86437982D01*
X134634800Y-86464833D01*
X134634800Y-87811167D01*
X134632155Y-87838018D01*
X134625048Y-87861448D01*
X134613505Y-87883043D01*
X134597972Y-87901972D01*
X134579043Y-87917505D01*
X134557448Y-87929048D01*
X134534018Y-87936155D01*
X134507167Y-87938800D01*
X134160833Y-87938800D01*
X134133982Y-87936155D01*
X134110552Y-87929048D01*
X134088957Y-87917505D01*
X134070028Y-87901972D01*
X134054495Y-87883043D01*
X134042952Y-87861448D01*
X134035845Y-87838018D01*
X134033200Y-87811167D01*
X134033200Y-86464833D01*
X134035845Y-86437982D01*
X134042952Y-86414552D01*
X134054495Y-86392957D01*
X134070028Y-86374028D01*
X134088957Y-86358495D01*
X134110552Y-86346952D01*
X134133982Y-86339845D01*
X134160833Y-86337200D01*
X134507167Y-86337200D01*
X134534018Y-86339845D01*
X134534018Y-86339845D01*
G37*
G36*
X110473064Y-85407206D02*
G01*
X110517604Y-85420717D01*
X110558646Y-85442655D01*
X110594621Y-85472179D01*
X110624145Y-85508154D01*
X110646083Y-85549196D01*
X110659594Y-85593736D01*
X110664400Y-85642533D01*
X110664400Y-86213867D01*
X110659594Y-86262664D01*
X110646083Y-86307204D01*
X110624145Y-86348246D01*
X110594621Y-86384221D01*
X110558646Y-86413745D01*
X110517604Y-86435683D01*
X110473064Y-86449194D01*
X110424267Y-86454000D01*
X109752933Y-86454000D01*
X109704136Y-86449194D01*
X109659596Y-86435683D01*
X109618554Y-86413745D01*
X109582579Y-86384221D01*
X109553055Y-86348246D01*
X109531117Y-86307204D01*
X109517606Y-86262664D01*
X109512800Y-86213867D01*
X109512800Y-85642533D01*
X109517606Y-85593736D01*
X109531117Y-85549196D01*
X109553055Y-85508154D01*
X109582579Y-85472179D01*
X109618554Y-85442655D01*
X109659596Y-85420717D01*
X109704136Y-85407206D01*
X109752933Y-85402400D01*
X110424267Y-85402400D01*
X110473064Y-85407206D01*
X110473064Y-85407206D01*
G37*
G36*
X112223064Y-85407206D02*
G01*
X112267604Y-85420717D01*
X112308646Y-85442655D01*
X112344621Y-85472179D01*
X112374145Y-85508154D01*
X112396083Y-85549196D01*
X112409594Y-85593736D01*
X112414400Y-85642533D01*
X112414400Y-86213867D01*
X112409594Y-86262664D01*
X112396083Y-86307204D01*
X112374145Y-86348246D01*
X112344621Y-86384221D01*
X112308646Y-86413745D01*
X112267604Y-86435683D01*
X112223064Y-86449194D01*
X112174267Y-86454000D01*
X111502933Y-86454000D01*
X111454136Y-86449194D01*
X111409596Y-86435683D01*
X111368554Y-86413745D01*
X111332579Y-86384221D01*
X111303055Y-86348246D01*
X111281117Y-86307204D01*
X111267606Y-86262664D01*
X111262800Y-86213867D01*
X111262800Y-85642533D01*
X111267606Y-85593736D01*
X111281117Y-85549196D01*
X111303055Y-85508154D01*
X111332579Y-85472179D01*
X111368554Y-85442655D01*
X111409596Y-85420717D01*
X111454136Y-85407206D01*
X111502933Y-85402400D01*
X112174267Y-85402400D01*
X112223064Y-85407206D01*
X112223064Y-85407206D01*
G37*
G36*
X115625564Y-85407206D02*
G01*
X115670104Y-85420717D01*
X115711146Y-85442655D01*
X115747121Y-85472179D01*
X115776645Y-85508154D01*
X115798583Y-85549196D01*
X115812094Y-85593736D01*
X115816900Y-85642533D01*
X115816900Y-86213867D01*
X115812094Y-86262664D01*
X115798583Y-86307204D01*
X115776645Y-86348246D01*
X115747121Y-86384221D01*
X115711146Y-86413745D01*
X115670104Y-86435683D01*
X115625564Y-86449194D01*
X115576767Y-86454000D01*
X114905433Y-86454000D01*
X114856636Y-86449194D01*
X114812096Y-86435683D01*
X114771054Y-86413745D01*
X114735079Y-86384221D01*
X114705555Y-86348246D01*
X114683617Y-86307204D01*
X114670106Y-86262664D01*
X114665300Y-86213867D01*
X114665300Y-85642533D01*
X114670106Y-85593736D01*
X114683617Y-85549196D01*
X114705555Y-85508154D01*
X114735079Y-85472179D01*
X114771054Y-85442655D01*
X114812096Y-85420717D01*
X114856636Y-85407206D01*
X114905433Y-85402400D01*
X115576767Y-85402400D01*
X115625564Y-85407206D01*
X115625564Y-85407206D01*
G37*
G36*
X117375564Y-85407206D02*
G01*
X117420104Y-85420717D01*
X117461146Y-85442655D01*
X117497121Y-85472179D01*
X117526645Y-85508154D01*
X117548583Y-85549196D01*
X117562094Y-85593736D01*
X117566900Y-85642533D01*
X117566900Y-86213867D01*
X117562094Y-86262664D01*
X117548583Y-86307204D01*
X117526645Y-86348246D01*
X117497121Y-86384221D01*
X117461146Y-86413745D01*
X117420104Y-86435683D01*
X117375564Y-86449194D01*
X117326767Y-86454000D01*
X116655433Y-86454000D01*
X116606636Y-86449194D01*
X116562096Y-86435683D01*
X116521054Y-86413745D01*
X116485079Y-86384221D01*
X116455555Y-86348246D01*
X116433617Y-86307204D01*
X116420106Y-86262664D01*
X116415300Y-86213867D01*
X116415300Y-85642533D01*
X116420106Y-85593736D01*
X116433617Y-85549196D01*
X116455555Y-85508154D01*
X116485079Y-85472179D01*
X116521054Y-85442655D01*
X116562096Y-85420717D01*
X116606636Y-85407206D01*
X116655433Y-85402400D01*
X117326767Y-85402400D01*
X117375564Y-85407206D01*
X117375564Y-85407206D01*
G37*
G36*
X132510588Y-80265234D02*
G01*
X132680389Y-80316743D01*
X132836879Y-80400389D01*
X132974043Y-80512957D01*
X133086611Y-80650121D01*
X133170257Y-80806611D01*
X133221766Y-80976412D01*
X133239158Y-81153000D01*
X133221766Y-81329588D01*
X133170257Y-81499389D01*
X133086611Y-81655879D01*
X132974043Y-81793043D01*
X132836879Y-81905611D01*
X132680389Y-81989257D01*
X132510588Y-82040766D01*
X132378249Y-82053800D01*
X132289751Y-82053800D01*
X132157412Y-82040766D01*
X131987611Y-81989257D01*
X131831121Y-81905611D01*
X131693957Y-81793043D01*
X131581389Y-81655879D01*
X131497743Y-81499389D01*
X131446234Y-81329588D01*
X131428842Y-81153000D01*
X131446234Y-80976412D01*
X131497743Y-80806611D01*
X131581389Y-80650121D01*
X131693957Y-80512957D01*
X131831121Y-80400389D01*
X131987611Y-80316743D01*
X132157412Y-80265234D01*
X132289751Y-80252200D01*
X132378249Y-80252200D01*
X132510588Y-80265234D01*
X132510588Y-80265234D01*
G37*
G36*
X127430588Y-80265234D02*
G01*
X127600389Y-80316743D01*
X127756879Y-80400389D01*
X127894043Y-80512957D01*
X128006611Y-80650121D01*
X128090257Y-80806611D01*
X128141766Y-80976412D01*
X128159158Y-81153000D01*
X128141766Y-81329588D01*
X128090257Y-81499389D01*
X128006611Y-81655879D01*
X127894043Y-81793043D01*
X127756879Y-81905611D01*
X127600389Y-81989257D01*
X127430588Y-82040766D01*
X127298249Y-82053800D01*
X127209751Y-82053800D01*
X127077412Y-82040766D01*
X126907611Y-81989257D01*
X126751121Y-81905611D01*
X126613957Y-81793043D01*
X126501389Y-81655879D01*
X126417743Y-81499389D01*
X126366234Y-81329588D01*
X126348842Y-81153000D01*
X126366234Y-80976412D01*
X126417743Y-80806611D01*
X126501389Y-80650121D01*
X126613957Y-80512957D01*
X126751121Y-80400389D01*
X126907611Y-80316743D01*
X127077412Y-80265234D01*
X127209751Y-80252200D01*
X127298249Y-80252200D01*
X127430588Y-80265234D01*
X127430588Y-80265234D01*
G37*
G36*
X135050588Y-80265234D02*
G01*
X135220389Y-80316743D01*
X135376879Y-80400389D01*
X135514043Y-80512957D01*
X135626611Y-80650121D01*
X135710257Y-80806611D01*
X135761766Y-80976412D01*
X135779158Y-81153000D01*
X135761766Y-81329588D01*
X135710257Y-81499389D01*
X135626611Y-81655879D01*
X135514043Y-81793043D01*
X135376879Y-81905611D01*
X135220389Y-81989257D01*
X135050588Y-82040766D01*
X134918249Y-82053800D01*
X134829751Y-82053800D01*
X134697412Y-82040766D01*
X134527611Y-81989257D01*
X134371121Y-81905611D01*
X134233957Y-81793043D01*
X134121389Y-81655879D01*
X134037743Y-81499389D01*
X133986234Y-81329588D01*
X133968842Y-81153000D01*
X133986234Y-80976412D01*
X134037743Y-80806611D01*
X134121389Y-80650121D01*
X134233957Y-80512957D01*
X134371121Y-80400389D01*
X134527611Y-80316743D01*
X134697412Y-80265234D01*
X134829751Y-80252200D01*
X134918249Y-80252200D01*
X135050588Y-80265234D01*
X135050588Y-80265234D01*
G37*
G36*
X137590588Y-80265234D02*
G01*
X137760389Y-80316743D01*
X137916879Y-80400389D01*
X138054043Y-80512957D01*
X138166611Y-80650121D01*
X138250257Y-80806611D01*
X138301766Y-80976412D01*
X138319158Y-81153000D01*
X138301766Y-81329588D01*
X138250257Y-81499389D01*
X138166611Y-81655879D01*
X138054043Y-81793043D01*
X137916879Y-81905611D01*
X137760389Y-81989257D01*
X137590588Y-82040766D01*
X137458249Y-82053800D01*
X137369751Y-82053800D01*
X137237412Y-82040766D01*
X137067611Y-81989257D01*
X136911121Y-81905611D01*
X136773957Y-81793043D01*
X136661389Y-81655879D01*
X136577743Y-81499389D01*
X136526234Y-81329588D01*
X136508842Y-81153000D01*
X136526234Y-80976412D01*
X136577743Y-80806611D01*
X136661389Y-80650121D01*
X136773957Y-80512957D01*
X136911121Y-80400389D01*
X137067611Y-80316743D01*
X137237412Y-80265234D01*
X137369751Y-80252200D01*
X137458249Y-80252200D01*
X137590588Y-80265234D01*
X137590588Y-80265234D01*
G37*
G36*
X140130588Y-80265234D02*
G01*
X140300389Y-80316743D01*
X140456879Y-80400389D01*
X140594043Y-80512957D01*
X140706611Y-80650121D01*
X140790257Y-80806611D01*
X140841766Y-80976412D01*
X140859158Y-81153000D01*
X140841766Y-81329588D01*
X140790257Y-81499389D01*
X140706611Y-81655879D01*
X140594043Y-81793043D01*
X140456879Y-81905611D01*
X140300389Y-81989257D01*
X140130588Y-82040766D01*
X139998249Y-82053800D01*
X139909751Y-82053800D01*
X139777412Y-82040766D01*
X139607611Y-81989257D01*
X139451121Y-81905611D01*
X139313957Y-81793043D01*
X139201389Y-81655879D01*
X139117743Y-81499389D01*
X139066234Y-81329588D01*
X139048842Y-81153000D01*
X139066234Y-80976412D01*
X139117743Y-80806611D01*
X139201389Y-80650121D01*
X139313957Y-80512957D01*
X139451121Y-80400389D01*
X139607611Y-80316743D01*
X139777412Y-80265234D01*
X139909751Y-80252200D01*
X139998249Y-80252200D01*
X140130588Y-80265234D01*
X140130588Y-80265234D01*
G37*
G36*
X142670588Y-80265234D02*
G01*
X142840389Y-80316743D01*
X142996879Y-80400389D01*
X143134043Y-80512957D01*
X143246611Y-80650121D01*
X143330257Y-80806611D01*
X143381766Y-80976412D01*
X143399158Y-81153000D01*
X143381766Y-81329588D01*
X143330257Y-81499389D01*
X143246611Y-81655879D01*
X143134043Y-81793043D01*
X142996879Y-81905611D01*
X142840389Y-81989257D01*
X142670588Y-82040766D01*
X142538249Y-82053800D01*
X142449751Y-82053800D01*
X142317412Y-82040766D01*
X142147611Y-81989257D01*
X141991121Y-81905611D01*
X141853957Y-81793043D01*
X141741389Y-81655879D01*
X141657743Y-81499389D01*
X141606234Y-81329588D01*
X141588842Y-81153000D01*
X141606234Y-80976412D01*
X141657743Y-80806611D01*
X141741389Y-80650121D01*
X141853957Y-80512957D01*
X141991121Y-80400389D01*
X142147611Y-80316743D01*
X142317412Y-80265234D01*
X142449751Y-80252200D01*
X142538249Y-80252200D01*
X142670588Y-80265234D01*
X142670588Y-80265234D01*
G37*
G36*
X145210588Y-80265234D02*
G01*
X145380389Y-80316743D01*
X145536879Y-80400389D01*
X145674043Y-80512957D01*
X145786611Y-80650121D01*
X145870257Y-80806611D01*
X145921766Y-80976412D01*
X145939158Y-81153000D01*
X145921766Y-81329588D01*
X145870257Y-81499389D01*
X145786611Y-81655879D01*
X145674043Y-81793043D01*
X145536879Y-81905611D01*
X145380389Y-81989257D01*
X145210588Y-82040766D01*
X145078249Y-82053800D01*
X144989751Y-82053800D01*
X144857412Y-82040766D01*
X144687611Y-81989257D01*
X144531121Y-81905611D01*
X144393957Y-81793043D01*
X144281389Y-81655879D01*
X144197743Y-81499389D01*
X144146234Y-81329588D01*
X144128842Y-81153000D01*
X144146234Y-80976412D01*
X144197743Y-80806611D01*
X144281389Y-80650121D01*
X144393957Y-80512957D01*
X144531121Y-80400389D01*
X144687611Y-80316743D01*
X144857412Y-80265234D01*
X144989751Y-80252200D01*
X145078249Y-80252200D01*
X145210588Y-80265234D01*
X145210588Y-80265234D01*
G37*
G36*
X148474800Y-82053800D02*
G01*
X146673200Y-82053800D01*
X146673200Y-80252200D01*
X148474800Y-80252200D01*
X148474800Y-82053800D01*
X148474800Y-82053800D01*
G37*
G36*
X117270588Y-80265234D02*
G01*
X117440389Y-80316743D01*
X117596879Y-80400389D01*
X117734043Y-80512957D01*
X117846611Y-80650121D01*
X117930257Y-80806611D01*
X117981766Y-80976412D01*
X117999158Y-81153000D01*
X117981766Y-81329588D01*
X117930257Y-81499389D01*
X117846611Y-81655879D01*
X117734043Y-81793043D01*
X117596879Y-81905611D01*
X117440389Y-81989257D01*
X117270588Y-82040766D01*
X117138249Y-82053800D01*
X117049751Y-82053800D01*
X116917412Y-82040766D01*
X116747611Y-81989257D01*
X116591121Y-81905611D01*
X116453957Y-81793043D01*
X116341389Y-81655879D01*
X116257743Y-81499389D01*
X116206234Y-81329588D01*
X116188842Y-81153000D01*
X116206234Y-80976412D01*
X116257743Y-80806611D01*
X116341389Y-80650121D01*
X116453957Y-80512957D01*
X116591121Y-80400389D01*
X116747611Y-80316743D01*
X116917412Y-80265234D01*
X117049751Y-80252200D01*
X117138249Y-80252200D01*
X117270588Y-80265234D01*
X117270588Y-80265234D01*
G37*
G36*
X119810588Y-80265234D02*
G01*
X119980389Y-80316743D01*
X120136879Y-80400389D01*
X120274043Y-80512957D01*
X120386611Y-80650121D01*
X120470257Y-80806611D01*
X120521766Y-80976412D01*
X120539158Y-81153000D01*
X120521766Y-81329588D01*
X120470257Y-81499389D01*
X120386611Y-81655879D01*
X120274043Y-81793043D01*
X120136879Y-81905611D01*
X119980389Y-81989257D01*
X119810588Y-82040766D01*
X119678249Y-82053800D01*
X119589751Y-82053800D01*
X119457412Y-82040766D01*
X119287611Y-81989257D01*
X119131121Y-81905611D01*
X118993957Y-81793043D01*
X118881389Y-81655879D01*
X118797743Y-81499389D01*
X118746234Y-81329588D01*
X118728842Y-81153000D01*
X118746234Y-80976412D01*
X118797743Y-80806611D01*
X118881389Y-80650121D01*
X118993957Y-80512957D01*
X119131121Y-80400389D01*
X119287611Y-80316743D01*
X119457412Y-80265234D01*
X119589751Y-80252200D01*
X119678249Y-80252200D01*
X119810588Y-80265234D01*
X119810588Y-80265234D01*
G37*
G36*
X122350588Y-80265234D02*
G01*
X122520389Y-80316743D01*
X122676879Y-80400389D01*
X122814043Y-80512957D01*
X122926611Y-80650121D01*
X123010257Y-80806611D01*
X123061766Y-80976412D01*
X123079158Y-81153000D01*
X123061766Y-81329588D01*
X123010257Y-81499389D01*
X122926611Y-81655879D01*
X122814043Y-81793043D01*
X122676879Y-81905611D01*
X122520389Y-81989257D01*
X122350588Y-82040766D01*
X122218249Y-82053800D01*
X122129751Y-82053800D01*
X121997412Y-82040766D01*
X121827611Y-81989257D01*
X121671121Y-81905611D01*
X121533957Y-81793043D01*
X121421389Y-81655879D01*
X121337743Y-81499389D01*
X121286234Y-81329588D01*
X121268842Y-81153000D01*
X121286234Y-80976412D01*
X121337743Y-80806611D01*
X121421389Y-80650121D01*
X121533957Y-80512957D01*
X121671121Y-80400389D01*
X121827611Y-80316743D01*
X121997412Y-80265234D01*
X122129751Y-80252200D01*
X122218249Y-80252200D01*
X122350588Y-80265234D01*
X122350588Y-80265234D01*
G37*
G36*
X129970588Y-80265234D02*
G01*
X130140389Y-80316743D01*
X130296879Y-80400389D01*
X130434043Y-80512957D01*
X130546611Y-80650121D01*
X130630257Y-80806611D01*
X130681766Y-80976412D01*
X130699158Y-81153000D01*
X130681766Y-81329588D01*
X130630257Y-81499389D01*
X130546611Y-81655879D01*
X130434043Y-81793043D01*
X130296879Y-81905611D01*
X130140389Y-81989257D01*
X129970588Y-82040766D01*
X129838249Y-82053800D01*
X129749751Y-82053800D01*
X129617412Y-82040766D01*
X129447611Y-81989257D01*
X129291121Y-81905611D01*
X129153957Y-81793043D01*
X129041389Y-81655879D01*
X128957743Y-81499389D01*
X128906234Y-81329588D01*
X128888842Y-81153000D01*
X128906234Y-80976412D01*
X128957743Y-80806611D01*
X129041389Y-80650121D01*
X129153957Y-80512957D01*
X129291121Y-80400389D01*
X129447611Y-80316743D01*
X129617412Y-80265234D01*
X129749751Y-80252200D01*
X129838249Y-80252200D01*
X129970588Y-80265234D01*
X129970588Y-80265234D01*
G37*
G36*
X124890588Y-80265234D02*
G01*
X125060389Y-80316743D01*
X125216879Y-80400389D01*
X125354043Y-80512957D01*
X125466611Y-80650121D01*
X125550257Y-80806611D01*
X125601766Y-80976412D01*
X125619158Y-81153000D01*
X125601766Y-81329588D01*
X125550257Y-81499389D01*
X125466611Y-81655879D01*
X125354043Y-81793043D01*
X125216879Y-81905611D01*
X125060389Y-81989257D01*
X124890588Y-82040766D01*
X124758249Y-82053800D01*
X124669751Y-82053800D01*
X124537412Y-82040766D01*
X124367611Y-81989257D01*
X124211121Y-81905611D01*
X124073957Y-81793043D01*
X123961389Y-81655879D01*
X123877743Y-81499389D01*
X123826234Y-81329588D01*
X123808842Y-81153000D01*
X123826234Y-80976412D01*
X123877743Y-80806611D01*
X123961389Y-80650121D01*
X124073957Y-80512957D01*
X124211121Y-80400389D01*
X124367611Y-80316743D01*
X124537412Y-80265234D01*
X124669751Y-80252200D01*
X124758249Y-80252200D01*
X124890588Y-80265234D01*
X124890588Y-80265234D01*
G37*
M02*
