G04 #@! TF.GenerationSoftware,KiCad,Pcbnew,(5.1.4)-1*
G04 #@! TF.CreationDate,2019-12-06T22:53:01-05:00*
G04 #@! TF.ProjectId,STM32G4DevBoard,53544d33-3247-4344-9465-76426f617264,rev?*
G04 #@! TF.SameCoordinates,Original*
G04 #@! TF.FileFunction,Soldermask,Bot*
G04 #@! TF.FilePolarity,Negative*
%FSLAX46Y46*%
G04 Gerber Fmt 4.6, Leading zero omitted, Abs format (unit mm)*
G04 Created by KiCad (PCBNEW (5.1.4)-1) date 2019-12-06 22:53:01*
%MOMM*%
%LPD*%
G04 APERTURE LIST*
%ADD10C,0.100000*%
G04 APERTURE END LIST*
D10*
G36*
X117270588Y-100585234D02*
G01*
X117440389Y-100636743D01*
X117596879Y-100720389D01*
X117734043Y-100832957D01*
X117846611Y-100970121D01*
X117930257Y-101126611D01*
X117981766Y-101296412D01*
X117999158Y-101473000D01*
X117981766Y-101649588D01*
X117930257Y-101819389D01*
X117846611Y-101975879D01*
X117734043Y-102113043D01*
X117596879Y-102225611D01*
X117440389Y-102309257D01*
X117270588Y-102360766D01*
X117138249Y-102373800D01*
X117049751Y-102373800D01*
X116917412Y-102360766D01*
X116747611Y-102309257D01*
X116591121Y-102225611D01*
X116453957Y-102113043D01*
X116341389Y-101975879D01*
X116257743Y-101819389D01*
X116206234Y-101649588D01*
X116188842Y-101473000D01*
X116206234Y-101296412D01*
X116257743Y-101126611D01*
X116341389Y-100970121D01*
X116453957Y-100832957D01*
X116591121Y-100720389D01*
X116747611Y-100636743D01*
X116917412Y-100585234D01*
X117049751Y-100572200D01*
X117138249Y-100572200D01*
X117270588Y-100585234D01*
X117270588Y-100585234D01*
G37*
G36*
X148474800Y-102373800D02*
G01*
X146673200Y-102373800D01*
X146673200Y-100572200D01*
X148474800Y-100572200D01*
X148474800Y-102373800D01*
X148474800Y-102373800D01*
G37*
G36*
X145210588Y-100585234D02*
G01*
X145380389Y-100636743D01*
X145536879Y-100720389D01*
X145674043Y-100832957D01*
X145786611Y-100970121D01*
X145870257Y-101126611D01*
X145921766Y-101296412D01*
X145939158Y-101473000D01*
X145921766Y-101649588D01*
X145870257Y-101819389D01*
X145786611Y-101975879D01*
X145674043Y-102113043D01*
X145536879Y-102225611D01*
X145380389Y-102309257D01*
X145210588Y-102360766D01*
X145078249Y-102373800D01*
X144989751Y-102373800D01*
X144857412Y-102360766D01*
X144687611Y-102309257D01*
X144531121Y-102225611D01*
X144393957Y-102113043D01*
X144281389Y-101975879D01*
X144197743Y-101819389D01*
X144146234Y-101649588D01*
X144128842Y-101473000D01*
X144146234Y-101296412D01*
X144197743Y-101126611D01*
X144281389Y-100970121D01*
X144393957Y-100832957D01*
X144531121Y-100720389D01*
X144687611Y-100636743D01*
X144857412Y-100585234D01*
X144989751Y-100572200D01*
X145078249Y-100572200D01*
X145210588Y-100585234D01*
X145210588Y-100585234D01*
G37*
G36*
X142670588Y-100585234D02*
G01*
X142840389Y-100636743D01*
X142996879Y-100720389D01*
X143134043Y-100832957D01*
X143246611Y-100970121D01*
X143330257Y-101126611D01*
X143381766Y-101296412D01*
X143399158Y-101473000D01*
X143381766Y-101649588D01*
X143330257Y-101819389D01*
X143246611Y-101975879D01*
X143134043Y-102113043D01*
X142996879Y-102225611D01*
X142840389Y-102309257D01*
X142670588Y-102360766D01*
X142538249Y-102373800D01*
X142449751Y-102373800D01*
X142317412Y-102360766D01*
X142147611Y-102309257D01*
X141991121Y-102225611D01*
X141853957Y-102113043D01*
X141741389Y-101975879D01*
X141657743Y-101819389D01*
X141606234Y-101649588D01*
X141588842Y-101473000D01*
X141606234Y-101296412D01*
X141657743Y-101126611D01*
X141741389Y-100970121D01*
X141853957Y-100832957D01*
X141991121Y-100720389D01*
X142147611Y-100636743D01*
X142317412Y-100585234D01*
X142449751Y-100572200D01*
X142538249Y-100572200D01*
X142670588Y-100585234D01*
X142670588Y-100585234D01*
G37*
G36*
X140130588Y-100585234D02*
G01*
X140300389Y-100636743D01*
X140456879Y-100720389D01*
X140594043Y-100832957D01*
X140706611Y-100970121D01*
X140790257Y-101126611D01*
X140841766Y-101296412D01*
X140859158Y-101473000D01*
X140841766Y-101649588D01*
X140790257Y-101819389D01*
X140706611Y-101975879D01*
X140594043Y-102113043D01*
X140456879Y-102225611D01*
X140300389Y-102309257D01*
X140130588Y-102360766D01*
X139998249Y-102373800D01*
X139909751Y-102373800D01*
X139777412Y-102360766D01*
X139607611Y-102309257D01*
X139451121Y-102225611D01*
X139313957Y-102113043D01*
X139201389Y-101975879D01*
X139117743Y-101819389D01*
X139066234Y-101649588D01*
X139048842Y-101473000D01*
X139066234Y-101296412D01*
X139117743Y-101126611D01*
X139201389Y-100970121D01*
X139313957Y-100832957D01*
X139451121Y-100720389D01*
X139607611Y-100636743D01*
X139777412Y-100585234D01*
X139909751Y-100572200D01*
X139998249Y-100572200D01*
X140130588Y-100585234D01*
X140130588Y-100585234D01*
G37*
G36*
X137590588Y-100585234D02*
G01*
X137760389Y-100636743D01*
X137916879Y-100720389D01*
X138054043Y-100832957D01*
X138166611Y-100970121D01*
X138250257Y-101126611D01*
X138301766Y-101296412D01*
X138319158Y-101473000D01*
X138301766Y-101649588D01*
X138250257Y-101819389D01*
X138166611Y-101975879D01*
X138054043Y-102113043D01*
X137916879Y-102225611D01*
X137760389Y-102309257D01*
X137590588Y-102360766D01*
X137458249Y-102373800D01*
X137369751Y-102373800D01*
X137237412Y-102360766D01*
X137067611Y-102309257D01*
X136911121Y-102225611D01*
X136773957Y-102113043D01*
X136661389Y-101975879D01*
X136577743Y-101819389D01*
X136526234Y-101649588D01*
X136508842Y-101473000D01*
X136526234Y-101296412D01*
X136577743Y-101126611D01*
X136661389Y-100970121D01*
X136773957Y-100832957D01*
X136911121Y-100720389D01*
X137067611Y-100636743D01*
X137237412Y-100585234D01*
X137369751Y-100572200D01*
X137458249Y-100572200D01*
X137590588Y-100585234D01*
X137590588Y-100585234D01*
G37*
G36*
X135050588Y-100585234D02*
G01*
X135220389Y-100636743D01*
X135376879Y-100720389D01*
X135514043Y-100832957D01*
X135626611Y-100970121D01*
X135710257Y-101126611D01*
X135761766Y-101296412D01*
X135779158Y-101473000D01*
X135761766Y-101649588D01*
X135710257Y-101819389D01*
X135626611Y-101975879D01*
X135514043Y-102113043D01*
X135376879Y-102225611D01*
X135220389Y-102309257D01*
X135050588Y-102360766D01*
X134918249Y-102373800D01*
X134829751Y-102373800D01*
X134697412Y-102360766D01*
X134527611Y-102309257D01*
X134371121Y-102225611D01*
X134233957Y-102113043D01*
X134121389Y-101975879D01*
X134037743Y-101819389D01*
X133986234Y-101649588D01*
X133968842Y-101473000D01*
X133986234Y-101296412D01*
X134037743Y-101126611D01*
X134121389Y-100970121D01*
X134233957Y-100832957D01*
X134371121Y-100720389D01*
X134527611Y-100636743D01*
X134697412Y-100585234D01*
X134829751Y-100572200D01*
X134918249Y-100572200D01*
X135050588Y-100585234D01*
X135050588Y-100585234D01*
G37*
G36*
X129970588Y-100585234D02*
G01*
X130140389Y-100636743D01*
X130296879Y-100720389D01*
X130434043Y-100832957D01*
X130546611Y-100970121D01*
X130630257Y-101126611D01*
X130681766Y-101296412D01*
X130699158Y-101473000D01*
X130681766Y-101649588D01*
X130630257Y-101819389D01*
X130546611Y-101975879D01*
X130434043Y-102113043D01*
X130296879Y-102225611D01*
X130140389Y-102309257D01*
X129970588Y-102360766D01*
X129838249Y-102373800D01*
X129749751Y-102373800D01*
X129617412Y-102360766D01*
X129447611Y-102309257D01*
X129291121Y-102225611D01*
X129153957Y-102113043D01*
X129041389Y-101975879D01*
X128957743Y-101819389D01*
X128906234Y-101649588D01*
X128888842Y-101473000D01*
X128906234Y-101296412D01*
X128957743Y-101126611D01*
X129041389Y-100970121D01*
X129153957Y-100832957D01*
X129291121Y-100720389D01*
X129447611Y-100636743D01*
X129617412Y-100585234D01*
X129749751Y-100572200D01*
X129838249Y-100572200D01*
X129970588Y-100585234D01*
X129970588Y-100585234D01*
G37*
G36*
X127430588Y-100585234D02*
G01*
X127600389Y-100636743D01*
X127756879Y-100720389D01*
X127894043Y-100832957D01*
X128006611Y-100970121D01*
X128090257Y-101126611D01*
X128141766Y-101296412D01*
X128159158Y-101473000D01*
X128141766Y-101649588D01*
X128090257Y-101819389D01*
X128006611Y-101975879D01*
X127894043Y-102113043D01*
X127756879Y-102225611D01*
X127600389Y-102309257D01*
X127430588Y-102360766D01*
X127298249Y-102373800D01*
X127209751Y-102373800D01*
X127077412Y-102360766D01*
X126907611Y-102309257D01*
X126751121Y-102225611D01*
X126613957Y-102113043D01*
X126501389Y-101975879D01*
X126417743Y-101819389D01*
X126366234Y-101649588D01*
X126348842Y-101473000D01*
X126366234Y-101296412D01*
X126417743Y-101126611D01*
X126501389Y-100970121D01*
X126613957Y-100832957D01*
X126751121Y-100720389D01*
X126907611Y-100636743D01*
X127077412Y-100585234D01*
X127209751Y-100572200D01*
X127298249Y-100572200D01*
X127430588Y-100585234D01*
X127430588Y-100585234D01*
G37*
G36*
X124890588Y-100585234D02*
G01*
X125060389Y-100636743D01*
X125216879Y-100720389D01*
X125354043Y-100832957D01*
X125466611Y-100970121D01*
X125550257Y-101126611D01*
X125601766Y-101296412D01*
X125619158Y-101473000D01*
X125601766Y-101649588D01*
X125550257Y-101819389D01*
X125466611Y-101975879D01*
X125354043Y-102113043D01*
X125216879Y-102225611D01*
X125060389Y-102309257D01*
X124890588Y-102360766D01*
X124758249Y-102373800D01*
X124669751Y-102373800D01*
X124537412Y-102360766D01*
X124367611Y-102309257D01*
X124211121Y-102225611D01*
X124073957Y-102113043D01*
X123961389Y-101975879D01*
X123877743Y-101819389D01*
X123826234Y-101649588D01*
X123808842Y-101473000D01*
X123826234Y-101296412D01*
X123877743Y-101126611D01*
X123961389Y-100970121D01*
X124073957Y-100832957D01*
X124211121Y-100720389D01*
X124367611Y-100636743D01*
X124537412Y-100585234D01*
X124669751Y-100572200D01*
X124758249Y-100572200D01*
X124890588Y-100585234D01*
X124890588Y-100585234D01*
G37*
G36*
X122350588Y-100585234D02*
G01*
X122520389Y-100636743D01*
X122676879Y-100720389D01*
X122814043Y-100832957D01*
X122926611Y-100970121D01*
X123010257Y-101126611D01*
X123061766Y-101296412D01*
X123079158Y-101473000D01*
X123061766Y-101649588D01*
X123010257Y-101819389D01*
X122926611Y-101975879D01*
X122814043Y-102113043D01*
X122676879Y-102225611D01*
X122520389Y-102309257D01*
X122350588Y-102360766D01*
X122218249Y-102373800D01*
X122129751Y-102373800D01*
X121997412Y-102360766D01*
X121827611Y-102309257D01*
X121671121Y-102225611D01*
X121533957Y-102113043D01*
X121421389Y-101975879D01*
X121337743Y-101819389D01*
X121286234Y-101649588D01*
X121268842Y-101473000D01*
X121286234Y-101296412D01*
X121337743Y-101126611D01*
X121421389Y-100970121D01*
X121533957Y-100832957D01*
X121671121Y-100720389D01*
X121827611Y-100636743D01*
X121997412Y-100585234D01*
X122129751Y-100572200D01*
X122218249Y-100572200D01*
X122350588Y-100585234D01*
X122350588Y-100585234D01*
G37*
G36*
X119810588Y-100585234D02*
G01*
X119980389Y-100636743D01*
X120136879Y-100720389D01*
X120274043Y-100832957D01*
X120386611Y-100970121D01*
X120470257Y-101126611D01*
X120521766Y-101296412D01*
X120539158Y-101473000D01*
X120521766Y-101649588D01*
X120470257Y-101819389D01*
X120386611Y-101975879D01*
X120274043Y-102113043D01*
X120136879Y-102225611D01*
X119980389Y-102309257D01*
X119810588Y-102360766D01*
X119678249Y-102373800D01*
X119589751Y-102373800D01*
X119457412Y-102360766D01*
X119287611Y-102309257D01*
X119131121Y-102225611D01*
X118993957Y-102113043D01*
X118881389Y-101975879D01*
X118797743Y-101819389D01*
X118746234Y-101649588D01*
X118728842Y-101473000D01*
X118746234Y-101296412D01*
X118797743Y-101126611D01*
X118881389Y-100970121D01*
X118993957Y-100832957D01*
X119131121Y-100720389D01*
X119287611Y-100636743D01*
X119457412Y-100585234D01*
X119589751Y-100572200D01*
X119678249Y-100572200D01*
X119810588Y-100585234D01*
X119810588Y-100585234D01*
G37*
G36*
X132510588Y-100585234D02*
G01*
X132680389Y-100636743D01*
X132836879Y-100720389D01*
X132974043Y-100832957D01*
X133086611Y-100970121D01*
X133170257Y-101126611D01*
X133221766Y-101296412D01*
X133239158Y-101473000D01*
X133221766Y-101649588D01*
X133170257Y-101819389D01*
X133086611Y-101975879D01*
X132974043Y-102113043D01*
X132836879Y-102225611D01*
X132680389Y-102309257D01*
X132510588Y-102360766D01*
X132378249Y-102373800D01*
X132289751Y-102373800D01*
X132157412Y-102360766D01*
X131987611Y-102309257D01*
X131831121Y-102225611D01*
X131693957Y-102113043D01*
X131581389Y-101975879D01*
X131497743Y-101819389D01*
X131446234Y-101649588D01*
X131428842Y-101473000D01*
X131446234Y-101296412D01*
X131497743Y-101126611D01*
X131581389Y-100970121D01*
X131693957Y-100832957D01*
X131831121Y-100720389D01*
X131987611Y-100636743D01*
X132157412Y-100585234D01*
X132289751Y-100572200D01*
X132378249Y-100572200D01*
X132510588Y-100585234D01*
X132510588Y-100585234D01*
G37*
G36*
X111890464Y-97523006D02*
G01*
X111935004Y-97536517D01*
X111976046Y-97558455D01*
X112012021Y-97587979D01*
X112041545Y-97623954D01*
X112063483Y-97664996D01*
X112076994Y-97709536D01*
X112081800Y-97758333D01*
X112081800Y-98329667D01*
X112076994Y-98378464D01*
X112063483Y-98423004D01*
X112041545Y-98464046D01*
X112012021Y-98500021D01*
X111976046Y-98529545D01*
X111935004Y-98551483D01*
X111890464Y-98564994D01*
X111841667Y-98569800D01*
X111170333Y-98569800D01*
X111121536Y-98564994D01*
X111076996Y-98551483D01*
X111035954Y-98529545D01*
X110999979Y-98500021D01*
X110970455Y-98464046D01*
X110948517Y-98423004D01*
X110935006Y-98378464D01*
X110930200Y-98329667D01*
X110930200Y-97758333D01*
X110935006Y-97709536D01*
X110948517Y-97664996D01*
X110970455Y-97623954D01*
X110999979Y-97587979D01*
X111035954Y-97558455D01*
X111076996Y-97536517D01*
X111121536Y-97523006D01*
X111170333Y-97518200D01*
X111841667Y-97518200D01*
X111890464Y-97523006D01*
X111890464Y-97523006D01*
G37*
G36*
X113640464Y-97523006D02*
G01*
X113685004Y-97536517D01*
X113726046Y-97558455D01*
X113762021Y-97587979D01*
X113791545Y-97623954D01*
X113813483Y-97664996D01*
X113826994Y-97709536D01*
X113831800Y-97758333D01*
X113831800Y-98329667D01*
X113826994Y-98378464D01*
X113813483Y-98423004D01*
X113791545Y-98464046D01*
X113762021Y-98500021D01*
X113726046Y-98529545D01*
X113685004Y-98551483D01*
X113640464Y-98564994D01*
X113591667Y-98569800D01*
X112920333Y-98569800D01*
X112871536Y-98564994D01*
X112826996Y-98551483D01*
X112785954Y-98529545D01*
X112749979Y-98500021D01*
X112720455Y-98464046D01*
X112698517Y-98423004D01*
X112685006Y-98378464D01*
X112680200Y-98329667D01*
X112680200Y-97758333D01*
X112685006Y-97709536D01*
X112698517Y-97664996D01*
X112720455Y-97623954D01*
X112749979Y-97587979D01*
X112785954Y-97558455D01*
X112826996Y-97536517D01*
X112871536Y-97523006D01*
X112920333Y-97518200D01*
X113591667Y-97518200D01*
X113640464Y-97523006D01*
X113640464Y-97523006D01*
G37*
G36*
X119034344Y-96189006D02*
G01*
X119078884Y-96202517D01*
X119119926Y-96224455D01*
X119155901Y-96253979D01*
X119185425Y-96289954D01*
X119207363Y-96330996D01*
X119220874Y-96375536D01*
X119225680Y-96424333D01*
X119225680Y-97095667D01*
X119220874Y-97144464D01*
X119207363Y-97189004D01*
X119185425Y-97230046D01*
X119155901Y-97266021D01*
X119119926Y-97295545D01*
X119078884Y-97317483D01*
X119034344Y-97330994D01*
X118985547Y-97335800D01*
X118414213Y-97335800D01*
X118365416Y-97330994D01*
X118320876Y-97317483D01*
X118279834Y-97295545D01*
X118243859Y-97266021D01*
X118214335Y-97230046D01*
X118192397Y-97189004D01*
X118178886Y-97144464D01*
X118174080Y-97095667D01*
X118174080Y-96424333D01*
X118178886Y-96375536D01*
X118192397Y-96330996D01*
X118214335Y-96289954D01*
X118243859Y-96253979D01*
X118279834Y-96224455D01*
X118320876Y-96202517D01*
X118365416Y-96189006D01*
X118414213Y-96184200D01*
X118985547Y-96184200D01*
X119034344Y-96189006D01*
X119034344Y-96189006D01*
G37*
G36*
X116920464Y-96189006D02*
G01*
X116965004Y-96202517D01*
X117006046Y-96224455D01*
X117042021Y-96253979D01*
X117071545Y-96289954D01*
X117093483Y-96330996D01*
X117106994Y-96375536D01*
X117111800Y-96424333D01*
X117111800Y-97095667D01*
X117106994Y-97144464D01*
X117093483Y-97189004D01*
X117071545Y-97230046D01*
X117042021Y-97266021D01*
X117006046Y-97295545D01*
X116965004Y-97317483D01*
X116920464Y-97330994D01*
X116871667Y-97335800D01*
X116300333Y-97335800D01*
X116251536Y-97330994D01*
X116206996Y-97317483D01*
X116165954Y-97295545D01*
X116129979Y-97266021D01*
X116100455Y-97230046D01*
X116078517Y-97189004D01*
X116065006Y-97144464D01*
X116060200Y-97095667D01*
X116060200Y-96424333D01*
X116065006Y-96375536D01*
X116078517Y-96330996D01*
X116100455Y-96289954D01*
X116129979Y-96253979D01*
X116165954Y-96224455D01*
X116206996Y-96202517D01*
X116251536Y-96189006D01*
X116300333Y-96184200D01*
X116871667Y-96184200D01*
X116920464Y-96189006D01*
X116920464Y-96189006D01*
G37*
G36*
X136986464Y-95441006D02*
G01*
X137031004Y-95454517D01*
X137072046Y-95476455D01*
X137108021Y-95505979D01*
X137137545Y-95541954D01*
X137159483Y-95582996D01*
X137172994Y-95627536D01*
X137177800Y-95676333D01*
X137177800Y-96347667D01*
X137172994Y-96396464D01*
X137159483Y-96441004D01*
X137137545Y-96482046D01*
X137108021Y-96518021D01*
X137072046Y-96547545D01*
X137031004Y-96569483D01*
X136986464Y-96582994D01*
X136937667Y-96587800D01*
X136366333Y-96587800D01*
X136317536Y-96582994D01*
X136272996Y-96569483D01*
X136231954Y-96547545D01*
X136195979Y-96518021D01*
X136166455Y-96482046D01*
X136144517Y-96441004D01*
X136131006Y-96396464D01*
X136126200Y-96347667D01*
X136126200Y-95676333D01*
X136131006Y-95627536D01*
X136144517Y-95582996D01*
X136166455Y-95541954D01*
X136195979Y-95505979D01*
X136231954Y-95476455D01*
X136272996Y-95454517D01*
X136317536Y-95441006D01*
X136366333Y-95436200D01*
X136937667Y-95436200D01*
X136986464Y-95441006D01*
X136986464Y-95441006D01*
G37*
G36*
X147750588Y-94245234D02*
G01*
X147920389Y-94296743D01*
X148076879Y-94380389D01*
X148214043Y-94492957D01*
X148326611Y-94630121D01*
X148410257Y-94786611D01*
X148461766Y-94956412D01*
X148479158Y-95133000D01*
X148461766Y-95309588D01*
X148410257Y-95479389D01*
X148326611Y-95635879D01*
X148214043Y-95773043D01*
X148076879Y-95885611D01*
X147920389Y-95969257D01*
X147750588Y-96020766D01*
X147618249Y-96033800D01*
X147529751Y-96033800D01*
X147397412Y-96020766D01*
X147227611Y-95969257D01*
X147071121Y-95885611D01*
X146933957Y-95773043D01*
X146821389Y-95635879D01*
X146737743Y-95479389D01*
X146686234Y-95309588D01*
X146668842Y-95133000D01*
X146686234Y-94956412D01*
X146737743Y-94786611D01*
X146821389Y-94630121D01*
X146933957Y-94492957D01*
X147071121Y-94380389D01*
X147227611Y-94296743D01*
X147397412Y-94245234D01*
X147529751Y-94232200D01*
X147618249Y-94232200D01*
X147750588Y-94245234D01*
X147750588Y-94245234D01*
G37*
G36*
X119034344Y-94439006D02*
G01*
X119078884Y-94452517D01*
X119119926Y-94474455D01*
X119155901Y-94503979D01*
X119185425Y-94539954D01*
X119207363Y-94580996D01*
X119220874Y-94625536D01*
X119225680Y-94674333D01*
X119225680Y-95345667D01*
X119220874Y-95394464D01*
X119207363Y-95439004D01*
X119185425Y-95480046D01*
X119155901Y-95516021D01*
X119119926Y-95545545D01*
X119078884Y-95567483D01*
X119034344Y-95580994D01*
X118985547Y-95585800D01*
X118414213Y-95585800D01*
X118365416Y-95580994D01*
X118320876Y-95567483D01*
X118279834Y-95545545D01*
X118243859Y-95516021D01*
X118214335Y-95480046D01*
X118192397Y-95439004D01*
X118178886Y-95394464D01*
X118174080Y-95345667D01*
X118174080Y-94674333D01*
X118178886Y-94625536D01*
X118192397Y-94580996D01*
X118214335Y-94539954D01*
X118243859Y-94503979D01*
X118279834Y-94474455D01*
X118320876Y-94452517D01*
X118365416Y-94439006D01*
X118414213Y-94434200D01*
X118985547Y-94434200D01*
X119034344Y-94439006D01*
X119034344Y-94439006D01*
G37*
G36*
X116920464Y-94439006D02*
G01*
X116965004Y-94452517D01*
X117006046Y-94474455D01*
X117042021Y-94503979D01*
X117071545Y-94539954D01*
X117093483Y-94580996D01*
X117106994Y-94625536D01*
X117111800Y-94674333D01*
X117111800Y-95345667D01*
X117106994Y-95394464D01*
X117093483Y-95439004D01*
X117071545Y-95480046D01*
X117042021Y-95516021D01*
X117006046Y-95545545D01*
X116965004Y-95567483D01*
X116920464Y-95580994D01*
X116871667Y-95585800D01*
X116300333Y-95585800D01*
X116251536Y-95580994D01*
X116206996Y-95567483D01*
X116165954Y-95545545D01*
X116129979Y-95516021D01*
X116100455Y-95480046D01*
X116078517Y-95439004D01*
X116065006Y-95394464D01*
X116060200Y-95345667D01*
X116060200Y-94674333D01*
X116065006Y-94625536D01*
X116078517Y-94580996D01*
X116100455Y-94539954D01*
X116129979Y-94503979D01*
X116165954Y-94474455D01*
X116206996Y-94452517D01*
X116251536Y-94439006D01*
X116300333Y-94434200D01*
X116871667Y-94434200D01*
X116920464Y-94439006D01*
X116920464Y-94439006D01*
G37*
G36*
X109689978Y-94171616D02*
G01*
X109812658Y-94208831D01*
X109925715Y-94269262D01*
X110024811Y-94350589D01*
X110106138Y-94449685D01*
X110166569Y-94562742D01*
X110203784Y-94685422D01*
X110216348Y-94813000D01*
X110203784Y-94940578D01*
X110166569Y-95063258D01*
X110106138Y-95176315D01*
X110024811Y-95275411D01*
X109925715Y-95356738D01*
X109812658Y-95417169D01*
X109689978Y-95454384D01*
X109594368Y-95463800D01*
X108830432Y-95463800D01*
X108734822Y-95454384D01*
X108612142Y-95417169D01*
X108499085Y-95356738D01*
X108399989Y-95275411D01*
X108318662Y-95176315D01*
X108258231Y-95063258D01*
X108221016Y-94940578D01*
X108208452Y-94813000D01*
X108221016Y-94685422D01*
X108258231Y-94562742D01*
X108318662Y-94449685D01*
X108399989Y-94350589D01*
X108499085Y-94269262D01*
X108612142Y-94208831D01*
X108734822Y-94171616D01*
X108830432Y-94162200D01*
X109594368Y-94162200D01*
X109689978Y-94171616D01*
X109689978Y-94171616D01*
G37*
G36*
X136986464Y-93691006D02*
G01*
X137031004Y-93704517D01*
X137072046Y-93726455D01*
X137108021Y-93755979D01*
X137137545Y-93791954D01*
X137159483Y-93832996D01*
X137172994Y-93877536D01*
X137177800Y-93926333D01*
X137177800Y-94597667D01*
X137172994Y-94646464D01*
X137159483Y-94691004D01*
X137137545Y-94732046D01*
X137108021Y-94768021D01*
X137072046Y-94797545D01*
X137031004Y-94819483D01*
X136986464Y-94832994D01*
X136937667Y-94837800D01*
X136366333Y-94837800D01*
X136317536Y-94832994D01*
X136272996Y-94819483D01*
X136231954Y-94797545D01*
X136195979Y-94768021D01*
X136166455Y-94732046D01*
X136144517Y-94691004D01*
X136131006Y-94646464D01*
X136126200Y-94597667D01*
X136126200Y-93926333D01*
X136131006Y-93877536D01*
X136144517Y-93832996D01*
X136166455Y-93791954D01*
X136195979Y-93755979D01*
X136231954Y-93726455D01*
X136272996Y-93704517D01*
X136317536Y-93691006D01*
X136366333Y-93686200D01*
X136937667Y-93686200D01*
X136986464Y-93691006D01*
X136986464Y-93691006D01*
G37*
G36*
X112138693Y-93067013D02*
G01*
X112279879Y-93125495D01*
X112406944Y-93210397D01*
X112515003Y-93318456D01*
X112599905Y-93445521D01*
X112658387Y-93586707D01*
X112688200Y-93736590D01*
X112688200Y-93889410D01*
X112658387Y-94039293D01*
X112599905Y-94180479D01*
X112515003Y-94307544D01*
X112406944Y-94415603D01*
X112279879Y-94500505D01*
X112138693Y-94558987D01*
X111988810Y-94588800D01*
X111835990Y-94588800D01*
X111686107Y-94558987D01*
X111544921Y-94500505D01*
X111417856Y-94415603D01*
X111309797Y-94307544D01*
X111224895Y-94180479D01*
X111166413Y-94039293D01*
X111136600Y-93889410D01*
X111136600Y-93736590D01*
X111166413Y-93586707D01*
X111224895Y-93445521D01*
X111309797Y-93318456D01*
X111417856Y-93210397D01*
X111544921Y-93125495D01*
X111686107Y-93067013D01*
X111835990Y-93037200D01*
X111988810Y-93037200D01*
X112138693Y-93067013D01*
X112138693Y-93067013D01*
G37*
G36*
X147750588Y-91705234D02*
G01*
X147920389Y-91756743D01*
X148076879Y-91840389D01*
X148214043Y-91952957D01*
X148326611Y-92090121D01*
X148410257Y-92246611D01*
X148461766Y-92416412D01*
X148479158Y-92593000D01*
X148461766Y-92769588D01*
X148410257Y-92939389D01*
X148326611Y-93095879D01*
X148214043Y-93233043D01*
X148076879Y-93345611D01*
X147920389Y-93429257D01*
X147750588Y-93480766D01*
X147618249Y-93493800D01*
X147529751Y-93493800D01*
X147397412Y-93480766D01*
X147227611Y-93429257D01*
X147071121Y-93345611D01*
X146933957Y-93233043D01*
X146821389Y-93095879D01*
X146737743Y-92939389D01*
X146686234Y-92769588D01*
X146668842Y-92593000D01*
X146686234Y-92416412D01*
X146737743Y-92246611D01*
X146821389Y-92090121D01*
X146933957Y-91952957D01*
X147071121Y-91840389D01*
X147227611Y-91756743D01*
X147397412Y-91705234D01*
X147529751Y-91692200D01*
X147618249Y-91692200D01*
X147750588Y-91705234D01*
X147750588Y-91705234D01*
G37*
G36*
X120975680Y-93484200D02*
G01*
X120224080Y-93484200D01*
X120224080Y-92322600D01*
X120975680Y-92322600D01*
X120975680Y-93484200D01*
X120975680Y-93484200D01*
G37*
G36*
X119075680Y-93484200D02*
G01*
X118324080Y-93484200D01*
X118324080Y-92322600D01*
X119075680Y-92322600D01*
X119075680Y-93484200D01*
X119075680Y-93484200D01*
G37*
G36*
X122749784Y-92107406D02*
G01*
X122794324Y-92120917D01*
X122835366Y-92142855D01*
X122871341Y-92172379D01*
X122900865Y-92208354D01*
X122922803Y-92249396D01*
X122936314Y-92293936D01*
X122941120Y-92342733D01*
X122941120Y-93014067D01*
X122936314Y-93062864D01*
X122922803Y-93107404D01*
X122900865Y-93148446D01*
X122871341Y-93184421D01*
X122835366Y-93213945D01*
X122794324Y-93235883D01*
X122749784Y-93249394D01*
X122700987Y-93254200D01*
X122129653Y-93254200D01*
X122080856Y-93249394D01*
X122036316Y-93235883D01*
X121995274Y-93213945D01*
X121959299Y-93184421D01*
X121929775Y-93148446D01*
X121907837Y-93107404D01*
X121894326Y-93062864D01*
X121889520Y-93014067D01*
X121889520Y-92342733D01*
X121894326Y-92293936D01*
X121907837Y-92249396D01*
X121929775Y-92208354D01*
X121959299Y-92172379D01*
X121995274Y-92142855D01*
X122036316Y-92120917D01*
X122080856Y-92107406D01*
X122129653Y-92102600D01*
X122700987Y-92102600D01*
X122749784Y-92107406D01*
X122749784Y-92107406D01*
G37*
G36*
X115015464Y-91877406D02*
G01*
X115060004Y-91890917D01*
X115101046Y-91912855D01*
X115137021Y-91942379D01*
X115166545Y-91978354D01*
X115188483Y-92019396D01*
X115201994Y-92063936D01*
X115206800Y-92112733D01*
X115206800Y-92784067D01*
X115201994Y-92832864D01*
X115188483Y-92877404D01*
X115166545Y-92918446D01*
X115137021Y-92954421D01*
X115101046Y-92983945D01*
X115060004Y-93005883D01*
X115015464Y-93019394D01*
X114966667Y-93024200D01*
X114395333Y-93024200D01*
X114346536Y-93019394D01*
X114301996Y-93005883D01*
X114260954Y-92983945D01*
X114224979Y-92954421D01*
X114195455Y-92918446D01*
X114173517Y-92877404D01*
X114160006Y-92832864D01*
X114155200Y-92784067D01*
X114155200Y-92112733D01*
X114160006Y-92063936D01*
X114173517Y-92019396D01*
X114195455Y-91978354D01*
X114224979Y-91942379D01*
X114260954Y-91912855D01*
X114301996Y-91890917D01*
X114346536Y-91877406D01*
X114395333Y-91872600D01*
X114966667Y-91872600D01*
X115015464Y-91877406D01*
X115015464Y-91877406D01*
G37*
G36*
X116964904Y-91877406D02*
G01*
X117009444Y-91890917D01*
X117050486Y-91912855D01*
X117086461Y-91942379D01*
X117115985Y-91978354D01*
X117137923Y-92019396D01*
X117151434Y-92063936D01*
X117156240Y-92112733D01*
X117156240Y-92784067D01*
X117151434Y-92832864D01*
X117137923Y-92877404D01*
X117115985Y-92918446D01*
X117086461Y-92954421D01*
X117050486Y-92983945D01*
X117009444Y-93005883D01*
X116964904Y-93019394D01*
X116916107Y-93024200D01*
X116344773Y-93024200D01*
X116295976Y-93019394D01*
X116251436Y-93005883D01*
X116210394Y-92983945D01*
X116174419Y-92954421D01*
X116144895Y-92918446D01*
X116122957Y-92877404D01*
X116109446Y-92832864D01*
X116104640Y-92784067D01*
X116104640Y-92112733D01*
X116109446Y-92063936D01*
X116122957Y-92019396D01*
X116144895Y-91978354D01*
X116174419Y-91942379D01*
X116210394Y-91912855D01*
X116251436Y-91890917D01*
X116295976Y-91877406D01*
X116344773Y-91872600D01*
X116916107Y-91872600D01*
X116964904Y-91877406D01*
X116964904Y-91877406D01*
G37*
G36*
X132135064Y-91439206D02*
G01*
X132179604Y-91452717D01*
X132220646Y-91474655D01*
X132256621Y-91504179D01*
X132286145Y-91540154D01*
X132308083Y-91581196D01*
X132321594Y-91625736D01*
X132326400Y-91674533D01*
X132326400Y-92345867D01*
X132321594Y-92394664D01*
X132308083Y-92439204D01*
X132286145Y-92480246D01*
X132256621Y-92516221D01*
X132220646Y-92545745D01*
X132179604Y-92567683D01*
X132135064Y-92581194D01*
X132086267Y-92586000D01*
X131514933Y-92586000D01*
X131466136Y-92581194D01*
X131421596Y-92567683D01*
X131380554Y-92545745D01*
X131344579Y-92516221D01*
X131315055Y-92480246D01*
X131293117Y-92439204D01*
X131279606Y-92394664D01*
X131274800Y-92345867D01*
X131274800Y-91674533D01*
X131279606Y-91625736D01*
X131293117Y-91581196D01*
X131315055Y-91540154D01*
X131344579Y-91504179D01*
X131380554Y-91474655D01*
X131421596Y-91452717D01*
X131466136Y-91439206D01*
X131514933Y-91434400D01*
X132086267Y-91434400D01*
X132135064Y-91439206D01*
X132135064Y-91439206D01*
G37*
G36*
X122749784Y-90357406D02*
G01*
X122794324Y-90370917D01*
X122835366Y-90392855D01*
X122871341Y-90422379D01*
X122900865Y-90458354D01*
X122922803Y-90499396D01*
X122936314Y-90543936D01*
X122941120Y-90592733D01*
X122941120Y-91264067D01*
X122936314Y-91312864D01*
X122922803Y-91357404D01*
X122900865Y-91398446D01*
X122871341Y-91434421D01*
X122835366Y-91463945D01*
X122794324Y-91485883D01*
X122749784Y-91499394D01*
X122700987Y-91504200D01*
X122129653Y-91504200D01*
X122080856Y-91499394D01*
X122036316Y-91485883D01*
X121995274Y-91463945D01*
X121959299Y-91434421D01*
X121929775Y-91398446D01*
X121907837Y-91357404D01*
X121894326Y-91312864D01*
X121889520Y-91264067D01*
X121889520Y-90592733D01*
X121894326Y-90543936D01*
X121907837Y-90499396D01*
X121929775Y-90458354D01*
X121959299Y-90422379D01*
X121995274Y-90392855D01*
X122036316Y-90370917D01*
X122080856Y-90357406D01*
X122129653Y-90352600D01*
X122700987Y-90352600D01*
X122749784Y-90357406D01*
X122749784Y-90357406D01*
G37*
G36*
X120025680Y-91284200D02*
G01*
X119274080Y-91284200D01*
X119274080Y-90122600D01*
X120025680Y-90122600D01*
X120025680Y-91284200D01*
X120025680Y-91284200D01*
G37*
G36*
X120975680Y-91284200D02*
G01*
X120224080Y-91284200D01*
X120224080Y-90122600D01*
X120975680Y-90122600D01*
X120975680Y-91284200D01*
X120975680Y-91284200D01*
G37*
G36*
X119075680Y-91284200D02*
G01*
X118324080Y-91284200D01*
X118324080Y-90122600D01*
X119075680Y-90122600D01*
X119075680Y-91284200D01*
X119075680Y-91284200D01*
G37*
G36*
X116964904Y-90127406D02*
G01*
X117009444Y-90140917D01*
X117050486Y-90162855D01*
X117086461Y-90192379D01*
X117115985Y-90228354D01*
X117137923Y-90269396D01*
X117151434Y-90313936D01*
X117156240Y-90362733D01*
X117156240Y-91034067D01*
X117151434Y-91082864D01*
X117137923Y-91127404D01*
X117115985Y-91168446D01*
X117086461Y-91204421D01*
X117050486Y-91233945D01*
X117009444Y-91255883D01*
X116964904Y-91269394D01*
X116916107Y-91274200D01*
X116344773Y-91274200D01*
X116295976Y-91269394D01*
X116251436Y-91255883D01*
X116210394Y-91233945D01*
X116174419Y-91204421D01*
X116144895Y-91168446D01*
X116122957Y-91127404D01*
X116109446Y-91082864D01*
X116104640Y-91034067D01*
X116104640Y-90362733D01*
X116109446Y-90313936D01*
X116122957Y-90269396D01*
X116144895Y-90228354D01*
X116174419Y-90192379D01*
X116210394Y-90162855D01*
X116251436Y-90140917D01*
X116295976Y-90127406D01*
X116344773Y-90122600D01*
X116916107Y-90122600D01*
X116964904Y-90127406D01*
X116964904Y-90127406D01*
G37*
G36*
X115015464Y-90127406D02*
G01*
X115060004Y-90140917D01*
X115101046Y-90162855D01*
X115137021Y-90192379D01*
X115166545Y-90228354D01*
X115188483Y-90269396D01*
X115201994Y-90313936D01*
X115206800Y-90362733D01*
X115206800Y-91034067D01*
X115201994Y-91082864D01*
X115188483Y-91127404D01*
X115166545Y-91168446D01*
X115137021Y-91204421D01*
X115101046Y-91233945D01*
X115060004Y-91255883D01*
X115015464Y-91269394D01*
X114966667Y-91274200D01*
X114395333Y-91274200D01*
X114346536Y-91269394D01*
X114301996Y-91255883D01*
X114260954Y-91233945D01*
X114224979Y-91204421D01*
X114195455Y-91168446D01*
X114173517Y-91127404D01*
X114160006Y-91082864D01*
X114155200Y-91034067D01*
X114155200Y-90362733D01*
X114160006Y-90313936D01*
X114173517Y-90269396D01*
X114195455Y-90228354D01*
X114224979Y-90192379D01*
X114260954Y-90162855D01*
X114301996Y-90140917D01*
X114346536Y-90127406D01*
X114395333Y-90122600D01*
X114966667Y-90122600D01*
X115015464Y-90127406D01*
X115015464Y-90127406D01*
G37*
G36*
X147750588Y-89165234D02*
G01*
X147920389Y-89216743D01*
X148076879Y-89300389D01*
X148214043Y-89412957D01*
X148326611Y-89550121D01*
X148410257Y-89706611D01*
X148461766Y-89876412D01*
X148479158Y-90053000D01*
X148461766Y-90229588D01*
X148410257Y-90399389D01*
X148326611Y-90555879D01*
X148214043Y-90693043D01*
X148076879Y-90805611D01*
X147920389Y-90889257D01*
X147750588Y-90940766D01*
X147618249Y-90953800D01*
X147529751Y-90953800D01*
X147397412Y-90940766D01*
X147227611Y-90889257D01*
X147071121Y-90805611D01*
X146933957Y-90693043D01*
X146821389Y-90555879D01*
X146737743Y-90399389D01*
X146686234Y-90229588D01*
X146668842Y-90053000D01*
X146686234Y-89876412D01*
X146737743Y-89706611D01*
X146821389Y-89550121D01*
X146933957Y-89412957D01*
X147071121Y-89300389D01*
X147227611Y-89216743D01*
X147397412Y-89165234D01*
X147529751Y-89152200D01*
X147618249Y-89152200D01*
X147750588Y-89165234D01*
X147750588Y-89165234D01*
G37*
G36*
X132135064Y-89689206D02*
G01*
X132179604Y-89702717D01*
X132220646Y-89724655D01*
X132256621Y-89754179D01*
X132286145Y-89790154D01*
X132308083Y-89831196D01*
X132321594Y-89875736D01*
X132326400Y-89924533D01*
X132326400Y-90595867D01*
X132321594Y-90644664D01*
X132308083Y-90689204D01*
X132286145Y-90730246D01*
X132256621Y-90766221D01*
X132220646Y-90795745D01*
X132179604Y-90817683D01*
X132135064Y-90831194D01*
X132086267Y-90836000D01*
X131514933Y-90836000D01*
X131466136Y-90831194D01*
X131421596Y-90817683D01*
X131380554Y-90795745D01*
X131344579Y-90766221D01*
X131315055Y-90730246D01*
X131293117Y-90689204D01*
X131279606Y-90644664D01*
X131274800Y-90595867D01*
X131274800Y-89924533D01*
X131279606Y-89875736D01*
X131293117Y-89831196D01*
X131315055Y-89790154D01*
X131344579Y-89754179D01*
X131380554Y-89724655D01*
X131421596Y-89702717D01*
X131466136Y-89689206D01*
X131514933Y-89684400D01*
X132086267Y-89684400D01*
X132135064Y-89689206D01*
X132135064Y-89689206D01*
G37*
G36*
X112138693Y-88067013D02*
G01*
X112279879Y-88125495D01*
X112406944Y-88210397D01*
X112515003Y-88318456D01*
X112599905Y-88445521D01*
X112658387Y-88586707D01*
X112688200Y-88736590D01*
X112688200Y-88889410D01*
X112658387Y-89039293D01*
X112599905Y-89180479D01*
X112515003Y-89307544D01*
X112406944Y-89415603D01*
X112279879Y-89500505D01*
X112138693Y-89558987D01*
X111988810Y-89588800D01*
X111835990Y-89588800D01*
X111686107Y-89558987D01*
X111544921Y-89500505D01*
X111417856Y-89415603D01*
X111309797Y-89307544D01*
X111224895Y-89180479D01*
X111166413Y-89039293D01*
X111136600Y-88889410D01*
X111136600Y-88736590D01*
X111166413Y-88586707D01*
X111224895Y-88445521D01*
X111309797Y-88318456D01*
X111417856Y-88210397D01*
X111544921Y-88125495D01*
X111686107Y-88067013D01*
X111835990Y-88037200D01*
X111988810Y-88037200D01*
X112138693Y-88067013D01*
X112138693Y-88067013D01*
G37*
G36*
X109689978Y-87171616D02*
G01*
X109812658Y-87208831D01*
X109925715Y-87269262D01*
X110024811Y-87350589D01*
X110106138Y-87449685D01*
X110166569Y-87562742D01*
X110203784Y-87685422D01*
X110216348Y-87813000D01*
X110203784Y-87940578D01*
X110166569Y-88063258D01*
X110106138Y-88176315D01*
X110024811Y-88275411D01*
X109925715Y-88356738D01*
X109812658Y-88417169D01*
X109689978Y-88454384D01*
X109594368Y-88463800D01*
X108830432Y-88463800D01*
X108734822Y-88454384D01*
X108612142Y-88417169D01*
X108499085Y-88356738D01*
X108399989Y-88275411D01*
X108318662Y-88176315D01*
X108258231Y-88063258D01*
X108221016Y-87940578D01*
X108208452Y-87813000D01*
X108221016Y-87685422D01*
X108258231Y-87562742D01*
X108318662Y-87449685D01*
X108399989Y-87350589D01*
X108499085Y-87269262D01*
X108612142Y-87208831D01*
X108734822Y-87171616D01*
X108830432Y-87162200D01*
X109594368Y-87162200D01*
X109689978Y-87171616D01*
X109689978Y-87171616D01*
G37*
G36*
X148474800Y-88413800D02*
G01*
X146673200Y-88413800D01*
X146673200Y-86612200D01*
X148474800Y-86612200D01*
X148474800Y-88413800D01*
X148474800Y-88413800D01*
G37*
G36*
X131208464Y-86982006D02*
G01*
X131253004Y-86995517D01*
X131294046Y-87017455D01*
X131330021Y-87046979D01*
X131359545Y-87082954D01*
X131381483Y-87123996D01*
X131394994Y-87168536D01*
X131399800Y-87217333D01*
X131399800Y-87788667D01*
X131394994Y-87837464D01*
X131381483Y-87882004D01*
X131359545Y-87923046D01*
X131330021Y-87959021D01*
X131294046Y-87988545D01*
X131253004Y-88010483D01*
X131208464Y-88023994D01*
X131159667Y-88028800D01*
X130488333Y-88028800D01*
X130439536Y-88023994D01*
X130394996Y-88010483D01*
X130353954Y-87988545D01*
X130317979Y-87959021D01*
X130288455Y-87923046D01*
X130266517Y-87882004D01*
X130253006Y-87837464D01*
X130248200Y-87788667D01*
X130248200Y-87217333D01*
X130253006Y-87168536D01*
X130266517Y-87123996D01*
X130288455Y-87082954D01*
X130317979Y-87046979D01*
X130353954Y-87017455D01*
X130394996Y-86995517D01*
X130439536Y-86982006D01*
X130488333Y-86977200D01*
X131159667Y-86977200D01*
X131208464Y-86982006D01*
X131208464Y-86982006D01*
G37*
G36*
X126306264Y-86982006D02*
G01*
X126350804Y-86995517D01*
X126391846Y-87017455D01*
X126427821Y-87046979D01*
X126457345Y-87082954D01*
X126479283Y-87123996D01*
X126492794Y-87168536D01*
X126497600Y-87217333D01*
X126497600Y-87788667D01*
X126492794Y-87837464D01*
X126479283Y-87882004D01*
X126457345Y-87923046D01*
X126427821Y-87959021D01*
X126391846Y-87988545D01*
X126350804Y-88010483D01*
X126306264Y-88023994D01*
X126257467Y-88028800D01*
X125586133Y-88028800D01*
X125537336Y-88023994D01*
X125492796Y-88010483D01*
X125451754Y-87988545D01*
X125415779Y-87959021D01*
X125386255Y-87923046D01*
X125364317Y-87882004D01*
X125350806Y-87837464D01*
X125346000Y-87788667D01*
X125346000Y-87217333D01*
X125350806Y-87168536D01*
X125364317Y-87123996D01*
X125386255Y-87082954D01*
X125415779Y-87046979D01*
X125451754Y-87017455D01*
X125492796Y-86995517D01*
X125537336Y-86982006D01*
X125586133Y-86977200D01*
X126257467Y-86977200D01*
X126306264Y-86982006D01*
X126306264Y-86982006D01*
G37*
G36*
X128056264Y-86982006D02*
G01*
X128100804Y-86995517D01*
X128141846Y-87017455D01*
X128177821Y-87046979D01*
X128207345Y-87082954D01*
X128229283Y-87123996D01*
X128242794Y-87168536D01*
X128247600Y-87217333D01*
X128247600Y-87788667D01*
X128242794Y-87837464D01*
X128229283Y-87882004D01*
X128207345Y-87923046D01*
X128177821Y-87959021D01*
X128141846Y-87988545D01*
X128100804Y-88010483D01*
X128056264Y-88023994D01*
X128007467Y-88028800D01*
X127336133Y-88028800D01*
X127287336Y-88023994D01*
X127242796Y-88010483D01*
X127201754Y-87988545D01*
X127165779Y-87959021D01*
X127136255Y-87923046D01*
X127114317Y-87882004D01*
X127100806Y-87837464D01*
X127096000Y-87788667D01*
X127096000Y-87217333D01*
X127100806Y-87168536D01*
X127114317Y-87123996D01*
X127136255Y-87082954D01*
X127165779Y-87046979D01*
X127201754Y-87017455D01*
X127242796Y-86995517D01*
X127287336Y-86982006D01*
X127336133Y-86977200D01*
X128007467Y-86977200D01*
X128056264Y-86982006D01*
X128056264Y-86982006D01*
G37*
G36*
X132958464Y-86982006D02*
G01*
X133003004Y-86995517D01*
X133044046Y-87017455D01*
X133080021Y-87046979D01*
X133109545Y-87082954D01*
X133131483Y-87123996D01*
X133144994Y-87168536D01*
X133149800Y-87217333D01*
X133149800Y-87788667D01*
X133144994Y-87837464D01*
X133131483Y-87882004D01*
X133109545Y-87923046D01*
X133080021Y-87959021D01*
X133044046Y-87988545D01*
X133003004Y-88010483D01*
X132958464Y-88023994D01*
X132909667Y-88028800D01*
X132238333Y-88028800D01*
X132189536Y-88023994D01*
X132144996Y-88010483D01*
X132103954Y-87988545D01*
X132067979Y-87959021D01*
X132038455Y-87923046D01*
X132016517Y-87882004D01*
X132003006Y-87837464D01*
X131998200Y-87788667D01*
X131998200Y-87217333D01*
X132003006Y-87168536D01*
X132016517Y-87123996D01*
X132038455Y-87082954D01*
X132067979Y-87046979D01*
X132103954Y-87017455D01*
X132144996Y-86995517D01*
X132189536Y-86982006D01*
X132238333Y-86977200D01*
X132909667Y-86977200D01*
X132958464Y-86982006D01*
X132958464Y-86982006D01*
G37*
G36*
X115603064Y-85407206D02*
G01*
X115647604Y-85420717D01*
X115688646Y-85442655D01*
X115724621Y-85472179D01*
X115754145Y-85508154D01*
X115776083Y-85549196D01*
X115789594Y-85593736D01*
X115794400Y-85642533D01*
X115794400Y-86213867D01*
X115789594Y-86262664D01*
X115776083Y-86307204D01*
X115754145Y-86348246D01*
X115724621Y-86384221D01*
X115688646Y-86413745D01*
X115647604Y-86435683D01*
X115603064Y-86449194D01*
X115554267Y-86454000D01*
X114882933Y-86454000D01*
X114834136Y-86449194D01*
X114789596Y-86435683D01*
X114748554Y-86413745D01*
X114712579Y-86384221D01*
X114683055Y-86348246D01*
X114661117Y-86307204D01*
X114647606Y-86262664D01*
X114642800Y-86213867D01*
X114642800Y-85642533D01*
X114647606Y-85593736D01*
X114661117Y-85549196D01*
X114683055Y-85508154D01*
X114712579Y-85472179D01*
X114748554Y-85442655D01*
X114789596Y-85420717D01*
X114834136Y-85407206D01*
X114882933Y-85402400D01*
X115554267Y-85402400D01*
X115603064Y-85407206D01*
X115603064Y-85407206D01*
G37*
G36*
X110473064Y-85407206D02*
G01*
X110517604Y-85420717D01*
X110558646Y-85442655D01*
X110594621Y-85472179D01*
X110624145Y-85508154D01*
X110646083Y-85549196D01*
X110659594Y-85593736D01*
X110664400Y-85642533D01*
X110664400Y-86213867D01*
X110659594Y-86262664D01*
X110646083Y-86307204D01*
X110624145Y-86348246D01*
X110594621Y-86384221D01*
X110558646Y-86413745D01*
X110517604Y-86435683D01*
X110473064Y-86449194D01*
X110424267Y-86454000D01*
X109752933Y-86454000D01*
X109704136Y-86449194D01*
X109659596Y-86435683D01*
X109618554Y-86413745D01*
X109582579Y-86384221D01*
X109553055Y-86348246D01*
X109531117Y-86307204D01*
X109517606Y-86262664D01*
X109512800Y-86213867D01*
X109512800Y-85642533D01*
X109517606Y-85593736D01*
X109531117Y-85549196D01*
X109553055Y-85508154D01*
X109582579Y-85472179D01*
X109618554Y-85442655D01*
X109659596Y-85420717D01*
X109704136Y-85407206D01*
X109752933Y-85402400D01*
X110424267Y-85402400D01*
X110473064Y-85407206D01*
X110473064Y-85407206D01*
G37*
G36*
X112223064Y-85407206D02*
G01*
X112267604Y-85420717D01*
X112308646Y-85442655D01*
X112344621Y-85472179D01*
X112374145Y-85508154D01*
X112396083Y-85549196D01*
X112409594Y-85593736D01*
X112414400Y-85642533D01*
X112414400Y-86213867D01*
X112409594Y-86262664D01*
X112396083Y-86307204D01*
X112374145Y-86348246D01*
X112344621Y-86384221D01*
X112308646Y-86413745D01*
X112267604Y-86435683D01*
X112223064Y-86449194D01*
X112174267Y-86454000D01*
X111502933Y-86454000D01*
X111454136Y-86449194D01*
X111409596Y-86435683D01*
X111368554Y-86413745D01*
X111332579Y-86384221D01*
X111303055Y-86348246D01*
X111281117Y-86307204D01*
X111267606Y-86262664D01*
X111262800Y-86213867D01*
X111262800Y-85642533D01*
X111267606Y-85593736D01*
X111281117Y-85549196D01*
X111303055Y-85508154D01*
X111332579Y-85472179D01*
X111368554Y-85442655D01*
X111409596Y-85420717D01*
X111454136Y-85407206D01*
X111502933Y-85402400D01*
X112174267Y-85402400D01*
X112223064Y-85407206D01*
X112223064Y-85407206D01*
G37*
G36*
X117353064Y-85407206D02*
G01*
X117397604Y-85420717D01*
X117438646Y-85442655D01*
X117474621Y-85472179D01*
X117504145Y-85508154D01*
X117526083Y-85549196D01*
X117539594Y-85593736D01*
X117544400Y-85642533D01*
X117544400Y-86213867D01*
X117539594Y-86262664D01*
X117526083Y-86307204D01*
X117504145Y-86348246D01*
X117474621Y-86384221D01*
X117438646Y-86413745D01*
X117397604Y-86435683D01*
X117353064Y-86449194D01*
X117304267Y-86454000D01*
X116632933Y-86454000D01*
X116584136Y-86449194D01*
X116539596Y-86435683D01*
X116498554Y-86413745D01*
X116462579Y-86384221D01*
X116433055Y-86348246D01*
X116411117Y-86307204D01*
X116397606Y-86262664D01*
X116392800Y-86213867D01*
X116392800Y-85642533D01*
X116397606Y-85593736D01*
X116411117Y-85549196D01*
X116433055Y-85508154D01*
X116462579Y-85472179D01*
X116498554Y-85442655D01*
X116539596Y-85420717D01*
X116584136Y-85407206D01*
X116632933Y-85402400D01*
X117304267Y-85402400D01*
X117353064Y-85407206D01*
X117353064Y-85407206D01*
G37*
G36*
X126306264Y-85331006D02*
G01*
X126350804Y-85344517D01*
X126391846Y-85366455D01*
X126427821Y-85395979D01*
X126457345Y-85431954D01*
X126479283Y-85472996D01*
X126492794Y-85517536D01*
X126497600Y-85566333D01*
X126497600Y-86137667D01*
X126492794Y-86186464D01*
X126479283Y-86231004D01*
X126457345Y-86272046D01*
X126427821Y-86308021D01*
X126391846Y-86337545D01*
X126350804Y-86359483D01*
X126306264Y-86372994D01*
X126257467Y-86377800D01*
X125586133Y-86377800D01*
X125537336Y-86372994D01*
X125492796Y-86359483D01*
X125451754Y-86337545D01*
X125415779Y-86308021D01*
X125386255Y-86272046D01*
X125364317Y-86231004D01*
X125350806Y-86186464D01*
X125346000Y-86137667D01*
X125346000Y-85566333D01*
X125350806Y-85517536D01*
X125364317Y-85472996D01*
X125386255Y-85431954D01*
X125415779Y-85395979D01*
X125451754Y-85366455D01*
X125492796Y-85344517D01*
X125537336Y-85331006D01*
X125586133Y-85326200D01*
X126257467Y-85326200D01*
X126306264Y-85331006D01*
X126306264Y-85331006D01*
G37*
G36*
X132958464Y-85331006D02*
G01*
X133003004Y-85344517D01*
X133044046Y-85366455D01*
X133080021Y-85395979D01*
X133109545Y-85431954D01*
X133131483Y-85472996D01*
X133144994Y-85517536D01*
X133149800Y-85566333D01*
X133149800Y-86137667D01*
X133144994Y-86186464D01*
X133131483Y-86231004D01*
X133109545Y-86272046D01*
X133080021Y-86308021D01*
X133044046Y-86337545D01*
X133003004Y-86359483D01*
X132958464Y-86372994D01*
X132909667Y-86377800D01*
X132238333Y-86377800D01*
X132189536Y-86372994D01*
X132144996Y-86359483D01*
X132103954Y-86337545D01*
X132067979Y-86308021D01*
X132038455Y-86272046D01*
X132016517Y-86231004D01*
X132003006Y-86186464D01*
X131998200Y-86137667D01*
X131998200Y-85566333D01*
X132003006Y-85517536D01*
X132016517Y-85472996D01*
X132038455Y-85431954D01*
X132067979Y-85395979D01*
X132103954Y-85366455D01*
X132144996Y-85344517D01*
X132189536Y-85331006D01*
X132238333Y-85326200D01*
X132909667Y-85326200D01*
X132958464Y-85331006D01*
X132958464Y-85331006D01*
G37*
G36*
X131208464Y-85331006D02*
G01*
X131253004Y-85344517D01*
X131294046Y-85366455D01*
X131330021Y-85395979D01*
X131359545Y-85431954D01*
X131381483Y-85472996D01*
X131394994Y-85517536D01*
X131399800Y-85566333D01*
X131399800Y-86137667D01*
X131394994Y-86186464D01*
X131381483Y-86231004D01*
X131359545Y-86272046D01*
X131330021Y-86308021D01*
X131294046Y-86337545D01*
X131253004Y-86359483D01*
X131208464Y-86372994D01*
X131159667Y-86377800D01*
X130488333Y-86377800D01*
X130439536Y-86372994D01*
X130394996Y-86359483D01*
X130353954Y-86337545D01*
X130317979Y-86308021D01*
X130288455Y-86272046D01*
X130266517Y-86231004D01*
X130253006Y-86186464D01*
X130248200Y-86137667D01*
X130248200Y-85566333D01*
X130253006Y-85517536D01*
X130266517Y-85472996D01*
X130288455Y-85431954D01*
X130317979Y-85395979D01*
X130353954Y-85366455D01*
X130394996Y-85344517D01*
X130439536Y-85331006D01*
X130488333Y-85326200D01*
X131159667Y-85326200D01*
X131208464Y-85331006D01*
X131208464Y-85331006D01*
G37*
G36*
X128056264Y-85331006D02*
G01*
X128100804Y-85344517D01*
X128141846Y-85366455D01*
X128177821Y-85395979D01*
X128207345Y-85431954D01*
X128229283Y-85472996D01*
X128242794Y-85517536D01*
X128247600Y-85566333D01*
X128247600Y-86137667D01*
X128242794Y-86186464D01*
X128229283Y-86231004D01*
X128207345Y-86272046D01*
X128177821Y-86308021D01*
X128141846Y-86337545D01*
X128100804Y-86359483D01*
X128056264Y-86372994D01*
X128007467Y-86377800D01*
X127336133Y-86377800D01*
X127287336Y-86372994D01*
X127242796Y-86359483D01*
X127201754Y-86337545D01*
X127165779Y-86308021D01*
X127136255Y-86272046D01*
X127114317Y-86231004D01*
X127100806Y-86186464D01*
X127096000Y-86137667D01*
X127096000Y-85566333D01*
X127100806Y-85517536D01*
X127114317Y-85472996D01*
X127136255Y-85431954D01*
X127165779Y-85395979D01*
X127201754Y-85366455D01*
X127242796Y-85344517D01*
X127287336Y-85331006D01*
X127336133Y-85326200D01*
X128007467Y-85326200D01*
X128056264Y-85331006D01*
X128056264Y-85331006D01*
G37*
G36*
X129458464Y-83807006D02*
G01*
X129503004Y-83820517D01*
X129544046Y-83842455D01*
X129580021Y-83871979D01*
X129609545Y-83907954D01*
X129631483Y-83948996D01*
X129644994Y-83993536D01*
X129649800Y-84042333D01*
X129649800Y-84613667D01*
X129644994Y-84662464D01*
X129631483Y-84707004D01*
X129609545Y-84748046D01*
X129580021Y-84784021D01*
X129544046Y-84813545D01*
X129503004Y-84835483D01*
X129458464Y-84848994D01*
X129409667Y-84853800D01*
X128738333Y-84853800D01*
X128689536Y-84848994D01*
X128644996Y-84835483D01*
X128603954Y-84813545D01*
X128567979Y-84784021D01*
X128538455Y-84748046D01*
X128516517Y-84707004D01*
X128503006Y-84662464D01*
X128498200Y-84613667D01*
X128498200Y-84042333D01*
X128503006Y-83993536D01*
X128516517Y-83948996D01*
X128538455Y-83907954D01*
X128567979Y-83871979D01*
X128603954Y-83842455D01*
X128644996Y-83820517D01*
X128689536Y-83807006D01*
X128738333Y-83802200D01*
X129409667Y-83802200D01*
X129458464Y-83807006D01*
X129458464Y-83807006D01*
G37*
G36*
X131208464Y-83807006D02*
G01*
X131253004Y-83820517D01*
X131294046Y-83842455D01*
X131330021Y-83871979D01*
X131359545Y-83907954D01*
X131381483Y-83948996D01*
X131394994Y-83993536D01*
X131399800Y-84042333D01*
X131399800Y-84613667D01*
X131394994Y-84662464D01*
X131381483Y-84707004D01*
X131359545Y-84748046D01*
X131330021Y-84784021D01*
X131294046Y-84813545D01*
X131253004Y-84835483D01*
X131208464Y-84848994D01*
X131159667Y-84853800D01*
X130488333Y-84853800D01*
X130439536Y-84848994D01*
X130394996Y-84835483D01*
X130353954Y-84813545D01*
X130317979Y-84784021D01*
X130288455Y-84748046D01*
X130266517Y-84707004D01*
X130253006Y-84662464D01*
X130248200Y-84613667D01*
X130248200Y-84042333D01*
X130253006Y-83993536D01*
X130266517Y-83948996D01*
X130288455Y-83907954D01*
X130317979Y-83871979D01*
X130353954Y-83842455D01*
X130394996Y-83820517D01*
X130439536Y-83807006D01*
X130488333Y-83802200D01*
X131159667Y-83802200D01*
X131208464Y-83807006D01*
X131208464Y-83807006D01*
G37*
G36*
X142670588Y-80265234D02*
G01*
X142840389Y-80316743D01*
X142996879Y-80400389D01*
X143134043Y-80512957D01*
X143246611Y-80650121D01*
X143330257Y-80806611D01*
X143381766Y-80976412D01*
X143399158Y-81153000D01*
X143381766Y-81329588D01*
X143330257Y-81499389D01*
X143246611Y-81655879D01*
X143134043Y-81793043D01*
X142996879Y-81905611D01*
X142840389Y-81989257D01*
X142670588Y-82040766D01*
X142538249Y-82053800D01*
X142449751Y-82053800D01*
X142317412Y-82040766D01*
X142147611Y-81989257D01*
X141991121Y-81905611D01*
X141853957Y-81793043D01*
X141741389Y-81655879D01*
X141657743Y-81499389D01*
X141606234Y-81329588D01*
X141588842Y-81153000D01*
X141606234Y-80976412D01*
X141657743Y-80806611D01*
X141741389Y-80650121D01*
X141853957Y-80512957D01*
X141991121Y-80400389D01*
X142147611Y-80316743D01*
X142317412Y-80265234D01*
X142449751Y-80252200D01*
X142538249Y-80252200D01*
X142670588Y-80265234D01*
X142670588Y-80265234D01*
G37*
G36*
X140130588Y-80265234D02*
G01*
X140300389Y-80316743D01*
X140456879Y-80400389D01*
X140594043Y-80512957D01*
X140706611Y-80650121D01*
X140790257Y-80806611D01*
X140841766Y-80976412D01*
X140859158Y-81153000D01*
X140841766Y-81329588D01*
X140790257Y-81499389D01*
X140706611Y-81655879D01*
X140594043Y-81793043D01*
X140456879Y-81905611D01*
X140300389Y-81989257D01*
X140130588Y-82040766D01*
X139998249Y-82053800D01*
X139909751Y-82053800D01*
X139777412Y-82040766D01*
X139607611Y-81989257D01*
X139451121Y-81905611D01*
X139313957Y-81793043D01*
X139201389Y-81655879D01*
X139117743Y-81499389D01*
X139066234Y-81329588D01*
X139048842Y-81153000D01*
X139066234Y-80976412D01*
X139117743Y-80806611D01*
X139201389Y-80650121D01*
X139313957Y-80512957D01*
X139451121Y-80400389D01*
X139607611Y-80316743D01*
X139777412Y-80265234D01*
X139909751Y-80252200D01*
X139998249Y-80252200D01*
X140130588Y-80265234D01*
X140130588Y-80265234D01*
G37*
G36*
X145210588Y-80265234D02*
G01*
X145380389Y-80316743D01*
X145536879Y-80400389D01*
X145674043Y-80512957D01*
X145786611Y-80650121D01*
X145870257Y-80806611D01*
X145921766Y-80976412D01*
X145939158Y-81153000D01*
X145921766Y-81329588D01*
X145870257Y-81499389D01*
X145786611Y-81655879D01*
X145674043Y-81793043D01*
X145536879Y-81905611D01*
X145380389Y-81989257D01*
X145210588Y-82040766D01*
X145078249Y-82053800D01*
X144989751Y-82053800D01*
X144857412Y-82040766D01*
X144687611Y-81989257D01*
X144531121Y-81905611D01*
X144393957Y-81793043D01*
X144281389Y-81655879D01*
X144197743Y-81499389D01*
X144146234Y-81329588D01*
X144128842Y-81153000D01*
X144146234Y-80976412D01*
X144197743Y-80806611D01*
X144281389Y-80650121D01*
X144393957Y-80512957D01*
X144531121Y-80400389D01*
X144687611Y-80316743D01*
X144857412Y-80265234D01*
X144989751Y-80252200D01*
X145078249Y-80252200D01*
X145210588Y-80265234D01*
X145210588Y-80265234D01*
G37*
G36*
X137590588Y-80265234D02*
G01*
X137760389Y-80316743D01*
X137916879Y-80400389D01*
X138054043Y-80512957D01*
X138166611Y-80650121D01*
X138250257Y-80806611D01*
X138301766Y-80976412D01*
X138319158Y-81153000D01*
X138301766Y-81329588D01*
X138250257Y-81499389D01*
X138166611Y-81655879D01*
X138054043Y-81793043D01*
X137916879Y-81905611D01*
X137760389Y-81989257D01*
X137590588Y-82040766D01*
X137458249Y-82053800D01*
X137369751Y-82053800D01*
X137237412Y-82040766D01*
X137067611Y-81989257D01*
X136911121Y-81905611D01*
X136773957Y-81793043D01*
X136661389Y-81655879D01*
X136577743Y-81499389D01*
X136526234Y-81329588D01*
X136508842Y-81153000D01*
X136526234Y-80976412D01*
X136577743Y-80806611D01*
X136661389Y-80650121D01*
X136773957Y-80512957D01*
X136911121Y-80400389D01*
X137067611Y-80316743D01*
X137237412Y-80265234D01*
X137369751Y-80252200D01*
X137458249Y-80252200D01*
X137590588Y-80265234D01*
X137590588Y-80265234D01*
G37*
G36*
X135050588Y-80265234D02*
G01*
X135220389Y-80316743D01*
X135376879Y-80400389D01*
X135514043Y-80512957D01*
X135626611Y-80650121D01*
X135710257Y-80806611D01*
X135761766Y-80976412D01*
X135779158Y-81153000D01*
X135761766Y-81329588D01*
X135710257Y-81499389D01*
X135626611Y-81655879D01*
X135514043Y-81793043D01*
X135376879Y-81905611D01*
X135220389Y-81989257D01*
X135050588Y-82040766D01*
X134918249Y-82053800D01*
X134829751Y-82053800D01*
X134697412Y-82040766D01*
X134527611Y-81989257D01*
X134371121Y-81905611D01*
X134233957Y-81793043D01*
X134121389Y-81655879D01*
X134037743Y-81499389D01*
X133986234Y-81329588D01*
X133968842Y-81153000D01*
X133986234Y-80976412D01*
X134037743Y-80806611D01*
X134121389Y-80650121D01*
X134233957Y-80512957D01*
X134371121Y-80400389D01*
X134527611Y-80316743D01*
X134697412Y-80265234D01*
X134829751Y-80252200D01*
X134918249Y-80252200D01*
X135050588Y-80265234D01*
X135050588Y-80265234D01*
G37*
G36*
X148474800Y-82053800D02*
G01*
X146673200Y-82053800D01*
X146673200Y-80252200D01*
X148474800Y-80252200D01*
X148474800Y-82053800D01*
X148474800Y-82053800D01*
G37*
G36*
X132510588Y-80265234D02*
G01*
X132680389Y-80316743D01*
X132836879Y-80400389D01*
X132974043Y-80512957D01*
X133086611Y-80650121D01*
X133170257Y-80806611D01*
X133221766Y-80976412D01*
X133239158Y-81153000D01*
X133221766Y-81329588D01*
X133170257Y-81499389D01*
X133086611Y-81655879D01*
X132974043Y-81793043D01*
X132836879Y-81905611D01*
X132680389Y-81989257D01*
X132510588Y-82040766D01*
X132378249Y-82053800D01*
X132289751Y-82053800D01*
X132157412Y-82040766D01*
X131987611Y-81989257D01*
X131831121Y-81905611D01*
X131693957Y-81793043D01*
X131581389Y-81655879D01*
X131497743Y-81499389D01*
X131446234Y-81329588D01*
X131428842Y-81153000D01*
X131446234Y-80976412D01*
X131497743Y-80806611D01*
X131581389Y-80650121D01*
X131693957Y-80512957D01*
X131831121Y-80400389D01*
X131987611Y-80316743D01*
X132157412Y-80265234D01*
X132289751Y-80252200D01*
X132378249Y-80252200D01*
X132510588Y-80265234D01*
X132510588Y-80265234D01*
G37*
G36*
X129970588Y-80265234D02*
G01*
X130140389Y-80316743D01*
X130296879Y-80400389D01*
X130434043Y-80512957D01*
X130546611Y-80650121D01*
X130630257Y-80806611D01*
X130681766Y-80976412D01*
X130699158Y-81153000D01*
X130681766Y-81329588D01*
X130630257Y-81499389D01*
X130546611Y-81655879D01*
X130434043Y-81793043D01*
X130296879Y-81905611D01*
X130140389Y-81989257D01*
X129970588Y-82040766D01*
X129838249Y-82053800D01*
X129749751Y-82053800D01*
X129617412Y-82040766D01*
X129447611Y-81989257D01*
X129291121Y-81905611D01*
X129153957Y-81793043D01*
X129041389Y-81655879D01*
X128957743Y-81499389D01*
X128906234Y-81329588D01*
X128888842Y-81153000D01*
X128906234Y-80976412D01*
X128957743Y-80806611D01*
X129041389Y-80650121D01*
X129153957Y-80512957D01*
X129291121Y-80400389D01*
X129447611Y-80316743D01*
X129617412Y-80265234D01*
X129749751Y-80252200D01*
X129838249Y-80252200D01*
X129970588Y-80265234D01*
X129970588Y-80265234D01*
G37*
G36*
X117270588Y-80265234D02*
G01*
X117440389Y-80316743D01*
X117596879Y-80400389D01*
X117734043Y-80512957D01*
X117846611Y-80650121D01*
X117930257Y-80806611D01*
X117981766Y-80976412D01*
X117999158Y-81153000D01*
X117981766Y-81329588D01*
X117930257Y-81499389D01*
X117846611Y-81655879D01*
X117734043Y-81793043D01*
X117596879Y-81905611D01*
X117440389Y-81989257D01*
X117270588Y-82040766D01*
X117138249Y-82053800D01*
X117049751Y-82053800D01*
X116917412Y-82040766D01*
X116747611Y-81989257D01*
X116591121Y-81905611D01*
X116453957Y-81793043D01*
X116341389Y-81655879D01*
X116257743Y-81499389D01*
X116206234Y-81329588D01*
X116188842Y-81153000D01*
X116206234Y-80976412D01*
X116257743Y-80806611D01*
X116341389Y-80650121D01*
X116453957Y-80512957D01*
X116591121Y-80400389D01*
X116747611Y-80316743D01*
X116917412Y-80265234D01*
X117049751Y-80252200D01*
X117138249Y-80252200D01*
X117270588Y-80265234D01*
X117270588Y-80265234D01*
G37*
G36*
X119810588Y-80265234D02*
G01*
X119980389Y-80316743D01*
X120136879Y-80400389D01*
X120274043Y-80512957D01*
X120386611Y-80650121D01*
X120470257Y-80806611D01*
X120521766Y-80976412D01*
X120539158Y-81153000D01*
X120521766Y-81329588D01*
X120470257Y-81499389D01*
X120386611Y-81655879D01*
X120274043Y-81793043D01*
X120136879Y-81905611D01*
X119980389Y-81989257D01*
X119810588Y-82040766D01*
X119678249Y-82053800D01*
X119589751Y-82053800D01*
X119457412Y-82040766D01*
X119287611Y-81989257D01*
X119131121Y-81905611D01*
X118993957Y-81793043D01*
X118881389Y-81655879D01*
X118797743Y-81499389D01*
X118746234Y-81329588D01*
X118728842Y-81153000D01*
X118746234Y-80976412D01*
X118797743Y-80806611D01*
X118881389Y-80650121D01*
X118993957Y-80512957D01*
X119131121Y-80400389D01*
X119287611Y-80316743D01*
X119457412Y-80265234D01*
X119589751Y-80252200D01*
X119678249Y-80252200D01*
X119810588Y-80265234D01*
X119810588Y-80265234D01*
G37*
G36*
X122350588Y-80265234D02*
G01*
X122520389Y-80316743D01*
X122676879Y-80400389D01*
X122814043Y-80512957D01*
X122926611Y-80650121D01*
X123010257Y-80806611D01*
X123061766Y-80976412D01*
X123079158Y-81153000D01*
X123061766Y-81329588D01*
X123010257Y-81499389D01*
X122926611Y-81655879D01*
X122814043Y-81793043D01*
X122676879Y-81905611D01*
X122520389Y-81989257D01*
X122350588Y-82040766D01*
X122218249Y-82053800D01*
X122129751Y-82053800D01*
X121997412Y-82040766D01*
X121827611Y-81989257D01*
X121671121Y-81905611D01*
X121533957Y-81793043D01*
X121421389Y-81655879D01*
X121337743Y-81499389D01*
X121286234Y-81329588D01*
X121268842Y-81153000D01*
X121286234Y-80976412D01*
X121337743Y-80806611D01*
X121421389Y-80650121D01*
X121533957Y-80512957D01*
X121671121Y-80400389D01*
X121827611Y-80316743D01*
X121997412Y-80265234D01*
X122129751Y-80252200D01*
X122218249Y-80252200D01*
X122350588Y-80265234D01*
X122350588Y-80265234D01*
G37*
G36*
X124890588Y-80265234D02*
G01*
X125060389Y-80316743D01*
X125216879Y-80400389D01*
X125354043Y-80512957D01*
X125466611Y-80650121D01*
X125550257Y-80806611D01*
X125601766Y-80976412D01*
X125619158Y-81153000D01*
X125601766Y-81329588D01*
X125550257Y-81499389D01*
X125466611Y-81655879D01*
X125354043Y-81793043D01*
X125216879Y-81905611D01*
X125060389Y-81989257D01*
X124890588Y-82040766D01*
X124758249Y-82053800D01*
X124669751Y-82053800D01*
X124537412Y-82040766D01*
X124367611Y-81989257D01*
X124211121Y-81905611D01*
X124073957Y-81793043D01*
X123961389Y-81655879D01*
X123877743Y-81499389D01*
X123826234Y-81329588D01*
X123808842Y-81153000D01*
X123826234Y-80976412D01*
X123877743Y-80806611D01*
X123961389Y-80650121D01*
X124073957Y-80512957D01*
X124211121Y-80400389D01*
X124367611Y-80316743D01*
X124537412Y-80265234D01*
X124669751Y-80252200D01*
X124758249Y-80252200D01*
X124890588Y-80265234D01*
X124890588Y-80265234D01*
G37*
G36*
X127430588Y-80265234D02*
G01*
X127600389Y-80316743D01*
X127756879Y-80400389D01*
X127894043Y-80512957D01*
X128006611Y-80650121D01*
X128090257Y-80806611D01*
X128141766Y-80976412D01*
X128159158Y-81153000D01*
X128141766Y-81329588D01*
X128090257Y-81499389D01*
X128006611Y-81655879D01*
X127894043Y-81793043D01*
X127756879Y-81905611D01*
X127600389Y-81989257D01*
X127430588Y-82040766D01*
X127298249Y-82053800D01*
X127209751Y-82053800D01*
X127077412Y-82040766D01*
X126907611Y-81989257D01*
X126751121Y-81905611D01*
X126613957Y-81793043D01*
X126501389Y-81655879D01*
X126417743Y-81499389D01*
X126366234Y-81329588D01*
X126348842Y-81153000D01*
X126366234Y-80976412D01*
X126417743Y-80806611D01*
X126501389Y-80650121D01*
X126613957Y-80512957D01*
X126751121Y-80400389D01*
X126907611Y-80316743D01*
X127077412Y-80265234D01*
X127209751Y-80252200D01*
X127298249Y-80252200D01*
X127430588Y-80265234D01*
X127430588Y-80265234D01*
G37*
M02*
