G04 #@! TF.GenerationSoftware,KiCad,Pcbnew,(5.1.4)-1*
G04 #@! TF.CreationDate,2019-12-06T22:53:01-05:00*
G04 #@! TF.ProjectId,STM32G4DevBoard,53544d33-3247-4344-9465-76426f617264,rev?*
G04 #@! TF.SameCoordinates,Original*
G04 #@! TF.FileFunction,Copper,L3,Inr*
G04 #@! TF.FilePolarity,Positive*
%FSLAX46Y46*%
G04 Gerber Fmt 4.6, Leading zero omitted, Abs format (unit mm)*
G04 Created by KiCad (PCBNEW (5.1.4)-1) date 2019-12-06 22:53:01*
%MOMM*%
%LPD*%
G04 APERTURE LIST*
%ADD10O,1.700000X1.700000*%
%ADD11R,1.700000X1.700000*%
%ADD12O,1.900000X1.200000*%
%ADD13C,1.450000*%
%ADD14C,0.685800*%
%ADD15C,0.254000*%
G04 APERTURE END LIST*
D10*
X117094000Y-101473000D03*
X119634000Y-101473000D03*
X122174000Y-101473000D03*
X124714000Y-101473000D03*
X127254000Y-101473000D03*
X129794000Y-101473000D03*
X132334000Y-101473000D03*
X134874000Y-101473000D03*
X137414000Y-101473000D03*
X139954000Y-101473000D03*
X142494000Y-101473000D03*
X145034000Y-101473000D03*
D11*
X147574000Y-101473000D03*
D10*
X117094000Y-81153000D03*
X119634000Y-81153000D03*
X122174000Y-81153000D03*
X124714000Y-81153000D03*
X127254000Y-81153000D03*
X129794000Y-81153000D03*
X132334000Y-81153000D03*
X134874000Y-81153000D03*
X137414000Y-81153000D03*
X139954000Y-81153000D03*
X142494000Y-81153000D03*
X145034000Y-81153000D03*
D11*
X147574000Y-81153000D03*
D12*
X109212400Y-94813000D03*
X109212400Y-87813000D03*
D13*
X111912400Y-93813000D03*
X111912400Y-88813000D03*
D11*
X147574000Y-87513000D03*
D10*
X147574000Y-90053000D03*
X147574000Y-92593000D03*
X147574000Y-95133000D03*
D14*
X144780000Y-96393000D03*
X142367000Y-96393000D03*
X138049000Y-93980000D03*
X138049000Y-91821000D03*
X138049000Y-89027000D03*
X140335000Y-89027000D03*
X140335000Y-90043000D03*
X142367000Y-90043000D03*
X144780000Y-90043000D03*
X144780000Y-92964000D03*
X140335000Y-96774000D03*
X138049000Y-90424000D03*
X128905000Y-85852000D03*
X138049000Y-95250000D03*
X138049000Y-96774000D03*
X135874000Y-95488000D03*
X114681000Y-93599000D03*
X115316000Y-96774000D03*
X109093000Y-98044000D03*
X119634000Y-89789000D03*
X117665500Y-91757500D03*
X113284000Y-92964000D03*
X122428000Y-89789000D03*
X111838600Y-84582000D03*
X133083300Y-91986100D03*
X114808000Y-98044000D03*
X125491185Y-98021085D03*
X135128000Y-93980000D03*
X115316000Y-94996000D03*
X124587000Y-87503000D03*
X110088600Y-84582000D03*
X114681000Y-89154000D03*
X118110000Y-89789000D03*
X116630440Y-89154000D03*
X121031000Y-89789000D03*
X113284000Y-85852000D03*
X113233200Y-90093800D03*
X125539500Y-89027000D03*
X125539500Y-90043000D03*
X126111000Y-90868500D03*
X130048000Y-88900000D03*
X125491185Y-95148400D03*
X125491185Y-96584742D03*
X134747000Y-89154000D03*
X134747000Y-90170000D03*
X134747000Y-91182834D03*
X118579900Y-85940900D03*
X131800600Y-88925400D03*
D15*
G36*
X126013294Y-81982014D02*
G01*
X126198866Y-82208134D01*
X126424986Y-82393706D01*
X126682966Y-82531599D01*
X126962889Y-82616513D01*
X127181050Y-82638000D01*
X127326950Y-82638000D01*
X127545111Y-82616513D01*
X127762000Y-82550720D01*
X127762000Y-90455750D01*
X127764440Y-90480526D01*
X127771667Y-90504351D01*
X127783403Y-90526307D01*
X127799197Y-90545553D01*
X127818443Y-90561347D01*
X127840399Y-90573083D01*
X127864224Y-90580310D01*
X127889435Y-90582749D01*
X133851038Y-90562332D01*
X133880396Y-90633210D01*
X133909266Y-90676417D01*
X133880396Y-90719624D01*
X133806680Y-90897591D01*
X133769100Y-91086519D01*
X133769100Y-91279149D01*
X133771531Y-91291371D01*
X133706675Y-91226515D01*
X133546510Y-91119496D01*
X133368543Y-91045780D01*
X133179615Y-91008200D01*
X132986985Y-91008200D01*
X132798057Y-91045780D01*
X132620090Y-91119496D01*
X132459925Y-91226515D01*
X132323715Y-91362725D01*
X132216696Y-91522890D01*
X132142980Y-91700857D01*
X132105400Y-91889785D01*
X132105400Y-92082415D01*
X132142980Y-92271343D01*
X132216696Y-92449310D01*
X132323715Y-92609475D01*
X132459925Y-92745685D01*
X132620090Y-92852704D01*
X132798057Y-92926420D01*
X132986985Y-92964000D01*
X133179615Y-92964000D01*
X133368543Y-92926420D01*
X133546510Y-92852704D01*
X133706675Y-92745685D01*
X133842885Y-92609475D01*
X133949904Y-92449310D01*
X134023620Y-92271343D01*
X134061200Y-92082415D01*
X134061200Y-91889785D01*
X134058769Y-91877563D01*
X134123625Y-91942419D01*
X134283790Y-92049438D01*
X134461757Y-92123154D01*
X134650685Y-92160734D01*
X134843315Y-92160734D01*
X135032243Y-92123154D01*
X135210210Y-92049438D01*
X135370375Y-91942419D01*
X135506585Y-91806209D01*
X135613604Y-91646044D01*
X135687320Y-91468077D01*
X135724900Y-91279149D01*
X135724900Y-91086519D01*
X135687320Y-90897591D01*
X135613604Y-90719624D01*
X135584734Y-90676417D01*
X135613604Y-90633210D01*
X135645508Y-90556187D01*
X137033000Y-90551435D01*
X137033000Y-98044000D01*
X137035440Y-98068776D01*
X137042667Y-98092601D01*
X137054403Y-98114557D01*
X137070197Y-98133803D01*
X137089443Y-98149597D01*
X137111399Y-98161333D01*
X137135224Y-98168560D01*
X137160000Y-98171000D01*
X145669000Y-98171000D01*
X145693776Y-98168560D01*
X145717601Y-98161333D01*
X145739557Y-98149597D01*
X145758803Y-98133803D01*
X145774597Y-98114557D01*
X145786333Y-98092601D01*
X145793560Y-98068776D01*
X145796000Y-98044000D01*
X145796000Y-90053000D01*
X146081815Y-90053000D01*
X146110487Y-90344111D01*
X146195401Y-90624034D01*
X146333294Y-90882014D01*
X146518866Y-91108134D01*
X146744986Y-91293706D01*
X146799791Y-91323000D01*
X146744986Y-91352294D01*
X146518866Y-91537866D01*
X146333294Y-91763986D01*
X146195401Y-92021966D01*
X146110487Y-92301889D01*
X146081815Y-92593000D01*
X146110487Y-92884111D01*
X146195401Y-93164034D01*
X146333294Y-93422014D01*
X146518866Y-93648134D01*
X146744986Y-93833706D01*
X146799791Y-93863000D01*
X146744986Y-93892294D01*
X146518866Y-94077866D01*
X146333294Y-94303986D01*
X146195401Y-94561966D01*
X146110487Y-94841889D01*
X146081815Y-95133000D01*
X146110487Y-95424111D01*
X146195401Y-95704034D01*
X146333294Y-95962014D01*
X146518866Y-96188134D01*
X146744986Y-96373706D01*
X147002966Y-96511599D01*
X147282889Y-96596513D01*
X147501050Y-96618000D01*
X147646950Y-96618000D01*
X147865111Y-96596513D01*
X148145034Y-96511599D01*
X148403014Y-96373706D01*
X148629134Y-96188134D01*
X148814706Y-95962014D01*
X148952599Y-95704034D01*
X149037513Y-95424111D01*
X149066185Y-95133000D01*
X149037513Y-94841889D01*
X148952599Y-94561966D01*
X148814706Y-94303986D01*
X148629134Y-94077866D01*
X148403014Y-93892294D01*
X148348209Y-93863000D01*
X148403014Y-93833706D01*
X148629134Y-93648134D01*
X148814706Y-93422014D01*
X148952599Y-93164034D01*
X149037513Y-92884111D01*
X149066185Y-92593000D01*
X149037513Y-92301889D01*
X148952599Y-92021966D01*
X148814706Y-91763986D01*
X148629134Y-91537866D01*
X148403014Y-91352294D01*
X148348209Y-91323000D01*
X148403014Y-91293706D01*
X148629134Y-91108134D01*
X148814706Y-90882014D01*
X148952599Y-90624034D01*
X149037513Y-90344111D01*
X149066185Y-90053000D01*
X149037513Y-89761889D01*
X148952599Y-89481966D01*
X148814706Y-89223986D01*
X148629134Y-88997866D01*
X148599313Y-88973393D01*
X148668180Y-88952502D01*
X148778494Y-88893537D01*
X148875185Y-88814185D01*
X148954537Y-88717494D01*
X149013502Y-88607180D01*
X149049812Y-88487482D01*
X149062072Y-88363000D01*
X149059000Y-87798750D01*
X148900250Y-87640000D01*
X147701000Y-87640000D01*
X147701000Y-87660000D01*
X147447000Y-87660000D01*
X147447000Y-87640000D01*
X146247750Y-87640000D01*
X146089000Y-87798750D01*
X146085928Y-88363000D01*
X146098188Y-88487482D01*
X146134498Y-88607180D01*
X146193463Y-88717494D01*
X146272815Y-88814185D01*
X146369506Y-88893537D01*
X146479820Y-88952502D01*
X146548687Y-88973393D01*
X146518866Y-88997866D01*
X146333294Y-89223986D01*
X146195401Y-89481966D01*
X146110487Y-89761889D01*
X146081815Y-90053000D01*
X145796000Y-90053000D01*
X145796000Y-86663000D01*
X146085928Y-86663000D01*
X146089000Y-87227250D01*
X146247750Y-87386000D01*
X147447000Y-87386000D01*
X147447000Y-86186750D01*
X147701000Y-86186750D01*
X147701000Y-87386000D01*
X148900250Y-87386000D01*
X149059000Y-87227250D01*
X149062072Y-86663000D01*
X149049812Y-86538518D01*
X149013502Y-86418820D01*
X148954537Y-86308506D01*
X148875185Y-86211815D01*
X148778494Y-86132463D01*
X148668180Y-86073498D01*
X148548482Y-86037188D01*
X148424000Y-86024928D01*
X147859750Y-86028000D01*
X147701000Y-86186750D01*
X147447000Y-86186750D01*
X147288250Y-86028000D01*
X146724000Y-86024928D01*
X146599518Y-86037188D01*
X146479820Y-86073498D01*
X146369506Y-86132463D01*
X146272815Y-86211815D01*
X146193463Y-86308506D01*
X146134498Y-86418820D01*
X146098188Y-86538518D01*
X146085928Y-86663000D01*
X145796000Y-86663000D01*
X145796000Y-85217000D01*
X149225401Y-85217000D01*
X149225400Y-102613000D01*
X148989010Y-102613000D01*
X149013502Y-102567180D01*
X149049812Y-102447482D01*
X149062072Y-102323000D01*
X149059000Y-101758750D01*
X148900250Y-101600000D01*
X147701000Y-101600000D01*
X147701000Y-101620000D01*
X147447000Y-101620000D01*
X147447000Y-101600000D01*
X147427000Y-101600000D01*
X147427000Y-101346000D01*
X147447000Y-101346000D01*
X147447000Y-100146750D01*
X147701000Y-100146750D01*
X147701000Y-101346000D01*
X148900250Y-101346000D01*
X149059000Y-101187250D01*
X149062072Y-100623000D01*
X149049812Y-100498518D01*
X149013502Y-100378820D01*
X148954537Y-100268506D01*
X148875185Y-100171815D01*
X148778494Y-100092463D01*
X148668180Y-100033498D01*
X148548482Y-99997188D01*
X148424000Y-99984928D01*
X147859750Y-99988000D01*
X147701000Y-100146750D01*
X147447000Y-100146750D01*
X147288250Y-99988000D01*
X146724000Y-99984928D01*
X146599518Y-99997188D01*
X146479820Y-100033498D01*
X146369506Y-100092463D01*
X146272815Y-100171815D01*
X146193463Y-100268506D01*
X146134498Y-100378820D01*
X146113607Y-100447687D01*
X146089134Y-100417866D01*
X145863014Y-100232294D01*
X145605034Y-100094401D01*
X145325111Y-100009487D01*
X145106950Y-99988000D01*
X144961050Y-99988000D01*
X144742889Y-100009487D01*
X144462966Y-100094401D01*
X144204986Y-100232294D01*
X143978866Y-100417866D01*
X143793294Y-100643986D01*
X143764000Y-100698791D01*
X143734706Y-100643986D01*
X143549134Y-100417866D01*
X143323014Y-100232294D01*
X143065034Y-100094401D01*
X142785111Y-100009487D01*
X142566950Y-99988000D01*
X142421050Y-99988000D01*
X142202889Y-100009487D01*
X141922966Y-100094401D01*
X141664986Y-100232294D01*
X141438866Y-100417866D01*
X141253294Y-100643986D01*
X141224000Y-100698791D01*
X141194706Y-100643986D01*
X141009134Y-100417866D01*
X140783014Y-100232294D01*
X140525034Y-100094401D01*
X140245111Y-100009487D01*
X140026950Y-99988000D01*
X139881050Y-99988000D01*
X139662889Y-100009487D01*
X139382966Y-100094401D01*
X139124986Y-100232294D01*
X138898866Y-100417866D01*
X138713294Y-100643986D01*
X138684000Y-100698791D01*
X138654706Y-100643986D01*
X138469134Y-100417866D01*
X138243014Y-100232294D01*
X137985034Y-100094401D01*
X137705111Y-100009487D01*
X137486950Y-99988000D01*
X137341050Y-99988000D01*
X137122889Y-100009487D01*
X136842966Y-100094401D01*
X136584986Y-100232294D01*
X136358866Y-100417866D01*
X136173294Y-100643986D01*
X136144000Y-100698791D01*
X136114706Y-100643986D01*
X135929134Y-100417866D01*
X135703014Y-100232294D01*
X135445034Y-100094401D01*
X135165111Y-100009487D01*
X134946950Y-99988000D01*
X134801050Y-99988000D01*
X134582889Y-100009487D01*
X134302966Y-100094401D01*
X134044986Y-100232294D01*
X133818866Y-100417866D01*
X133633294Y-100643986D01*
X133604000Y-100698791D01*
X133574706Y-100643986D01*
X133389134Y-100417866D01*
X133163014Y-100232294D01*
X132905034Y-100094401D01*
X132625111Y-100009487D01*
X132406950Y-99988000D01*
X132261050Y-99988000D01*
X132042889Y-100009487D01*
X131762966Y-100094401D01*
X131504986Y-100232294D01*
X131278866Y-100417866D01*
X131093294Y-100643986D01*
X131064000Y-100698791D01*
X131034706Y-100643986D01*
X130849134Y-100417866D01*
X130623014Y-100232294D01*
X130365034Y-100094401D01*
X130085111Y-100009487D01*
X129866950Y-99988000D01*
X129721050Y-99988000D01*
X129502889Y-100009487D01*
X129222966Y-100094401D01*
X128964986Y-100232294D01*
X128738866Y-100417866D01*
X128553294Y-100643986D01*
X128524000Y-100698791D01*
X128494706Y-100643986D01*
X128309134Y-100417866D01*
X128083014Y-100232294D01*
X127825034Y-100094401D01*
X127545111Y-100009487D01*
X127326950Y-99988000D01*
X127181050Y-99988000D01*
X126962889Y-100009487D01*
X126682966Y-100094401D01*
X126424986Y-100232294D01*
X126198866Y-100417866D01*
X126013294Y-100643986D01*
X125984000Y-100698791D01*
X125954706Y-100643986D01*
X125769134Y-100417866D01*
X125543014Y-100232294D01*
X125285034Y-100094401D01*
X125005111Y-100009487D01*
X124786950Y-99988000D01*
X124641050Y-99988000D01*
X124422889Y-100009487D01*
X124142966Y-100094401D01*
X123884986Y-100232294D01*
X123658866Y-100417866D01*
X123473294Y-100643986D01*
X123444000Y-100698791D01*
X123414706Y-100643986D01*
X123229134Y-100417866D01*
X123003014Y-100232294D01*
X122745034Y-100094401D01*
X122465111Y-100009487D01*
X122246950Y-99988000D01*
X122101050Y-99988000D01*
X121882889Y-100009487D01*
X121602966Y-100094401D01*
X121344986Y-100232294D01*
X121118866Y-100417866D01*
X120933294Y-100643986D01*
X120904000Y-100698791D01*
X120874706Y-100643986D01*
X120689134Y-100417866D01*
X120463014Y-100232294D01*
X120205034Y-100094401D01*
X119925111Y-100009487D01*
X119706950Y-99988000D01*
X119561050Y-99988000D01*
X119342889Y-100009487D01*
X119062966Y-100094401D01*
X118804986Y-100232294D01*
X118578866Y-100417866D01*
X118393294Y-100643986D01*
X118364000Y-100698791D01*
X118334706Y-100643986D01*
X118149134Y-100417866D01*
X117923014Y-100232294D01*
X117665034Y-100094401D01*
X117385111Y-100009487D01*
X117166950Y-99988000D01*
X117021050Y-99988000D01*
X116802889Y-100009487D01*
X116522966Y-100094401D01*
X116264986Y-100232294D01*
X116038866Y-100417866D01*
X115853294Y-100643986D01*
X115715401Y-100901966D01*
X115630487Y-101181889D01*
X115601815Y-101473000D01*
X115630487Y-101764111D01*
X115715401Y-102044034D01*
X115853294Y-102302014D01*
X116038866Y-102528134D01*
X116142275Y-102613000D01*
X107469900Y-102613000D01*
X107469900Y-97947685D01*
X108115100Y-97947685D01*
X108115100Y-98140315D01*
X108152680Y-98329243D01*
X108226396Y-98507210D01*
X108333415Y-98667375D01*
X108469625Y-98803585D01*
X108629790Y-98910604D01*
X108807757Y-98984320D01*
X108996685Y-99021900D01*
X109189315Y-99021900D01*
X109378243Y-98984320D01*
X109556210Y-98910604D01*
X109716375Y-98803585D01*
X109852585Y-98667375D01*
X109959604Y-98507210D01*
X110033320Y-98329243D01*
X110070900Y-98140315D01*
X110070900Y-97947685D01*
X113830100Y-97947685D01*
X113830100Y-98140315D01*
X113867680Y-98329243D01*
X113941396Y-98507210D01*
X114048415Y-98667375D01*
X114184625Y-98803585D01*
X114344790Y-98910604D01*
X114522757Y-98984320D01*
X114711685Y-99021900D01*
X114904315Y-99021900D01*
X115093243Y-98984320D01*
X115271210Y-98910604D01*
X115431375Y-98803585D01*
X115567585Y-98667375D01*
X115674604Y-98507210D01*
X115748320Y-98329243D01*
X115785900Y-98140315D01*
X115785900Y-97947685D01*
X115748320Y-97758757D01*
X115711070Y-97668828D01*
X115779210Y-97640604D01*
X115939375Y-97533585D01*
X116075585Y-97397375D01*
X116182604Y-97237210D01*
X116256320Y-97059243D01*
X116293900Y-96870315D01*
X116293900Y-96677685D01*
X116256320Y-96488757D01*
X116182604Y-96310790D01*
X116075585Y-96150625D01*
X115939375Y-96014415D01*
X115779210Y-95907396D01*
X115601243Y-95833680D01*
X115412315Y-95796100D01*
X115219685Y-95796100D01*
X115030757Y-95833680D01*
X114852790Y-95907396D01*
X114692625Y-96014415D01*
X114556415Y-96150625D01*
X114449396Y-96310790D01*
X114375680Y-96488757D01*
X114338100Y-96677685D01*
X114338100Y-96870315D01*
X114375680Y-97059243D01*
X114412930Y-97149172D01*
X114344790Y-97177396D01*
X114184625Y-97284415D01*
X114048415Y-97420625D01*
X113941396Y-97580790D01*
X113867680Y-97758757D01*
X113830100Y-97947685D01*
X110070900Y-97947685D01*
X110033320Y-97758757D01*
X109959604Y-97580790D01*
X109852585Y-97420625D01*
X109716375Y-97284415D01*
X109556210Y-97177396D01*
X109378243Y-97103680D01*
X109189315Y-97066100D01*
X108996685Y-97066100D01*
X108807757Y-97103680D01*
X108629790Y-97177396D01*
X108469625Y-97284415D01*
X108333415Y-97420625D01*
X108226396Y-97580790D01*
X108152680Y-97758757D01*
X108115100Y-97947685D01*
X107469900Y-97947685D01*
X107469900Y-94361000D01*
X107708942Y-94361000D01*
X107645270Y-94570898D01*
X107621425Y-94813000D01*
X107645270Y-95055102D01*
X107715889Y-95287901D01*
X107830567Y-95502449D01*
X107984898Y-95690502D01*
X108172951Y-95844833D01*
X108387499Y-95959511D01*
X108620298Y-96030130D01*
X108801735Y-96048000D01*
X109623065Y-96048000D01*
X109804502Y-96030130D01*
X110037301Y-95959511D01*
X110251849Y-95844833D01*
X110439902Y-95690502D01*
X110594233Y-95502449D01*
X110708911Y-95287901D01*
X110779530Y-95055102D01*
X110803375Y-94813000D01*
X110779530Y-94570898D01*
X110776517Y-94560965D01*
X110856019Y-94679949D01*
X111045451Y-94869381D01*
X111268199Y-95018216D01*
X111515703Y-95120736D01*
X111778452Y-95173000D01*
X112046348Y-95173000D01*
X112309097Y-95120736D01*
X112474834Y-95052085D01*
X124513285Y-95052085D01*
X124513285Y-95244715D01*
X124550865Y-95433643D01*
X124624581Y-95611610D01*
X124731600Y-95771775D01*
X124826396Y-95866571D01*
X124731600Y-95961367D01*
X124624581Y-96121532D01*
X124550865Y-96299499D01*
X124513285Y-96488427D01*
X124513285Y-96681057D01*
X124550865Y-96869985D01*
X124624581Y-97047952D01*
X124731600Y-97208117D01*
X124826397Y-97302914D01*
X124731600Y-97397710D01*
X124624581Y-97557875D01*
X124550865Y-97735842D01*
X124513285Y-97924770D01*
X124513285Y-98117400D01*
X124550865Y-98306328D01*
X124624581Y-98484295D01*
X124731600Y-98644460D01*
X124867810Y-98780670D01*
X125027975Y-98887689D01*
X125205942Y-98961405D01*
X125394870Y-98998985D01*
X125587500Y-98998985D01*
X125776428Y-98961405D01*
X125954395Y-98887689D01*
X126114560Y-98780670D01*
X126250770Y-98644460D01*
X126357789Y-98484295D01*
X126431505Y-98306328D01*
X126469085Y-98117400D01*
X126469085Y-97924770D01*
X126431505Y-97735842D01*
X126357789Y-97557875D01*
X126250770Y-97397710D01*
X126155974Y-97302914D01*
X126250770Y-97208117D01*
X126357789Y-97047952D01*
X126431505Y-96869985D01*
X126469085Y-96681057D01*
X126469085Y-96488427D01*
X126431505Y-96299499D01*
X126357789Y-96121532D01*
X126250770Y-95961367D01*
X126155974Y-95866571D01*
X126250770Y-95771775D01*
X126357789Y-95611610D01*
X126431505Y-95433643D01*
X126439850Y-95391685D01*
X134896100Y-95391685D01*
X134896100Y-95584315D01*
X134933680Y-95773243D01*
X135007396Y-95951210D01*
X135114415Y-96111375D01*
X135250625Y-96247585D01*
X135410790Y-96354604D01*
X135588757Y-96428320D01*
X135777685Y-96465900D01*
X135970315Y-96465900D01*
X136159243Y-96428320D01*
X136337210Y-96354604D01*
X136497375Y-96247585D01*
X136633585Y-96111375D01*
X136740604Y-95951210D01*
X136814320Y-95773243D01*
X136851900Y-95584315D01*
X136851900Y-95391685D01*
X136814320Y-95202757D01*
X136740604Y-95024790D01*
X136633585Y-94864625D01*
X136497375Y-94728415D01*
X136337210Y-94621396D01*
X136159243Y-94547680D01*
X135970315Y-94510100D01*
X135777685Y-94510100D01*
X135588757Y-94547680D01*
X135410790Y-94621396D01*
X135250625Y-94728415D01*
X135114415Y-94864625D01*
X135007396Y-95024790D01*
X134933680Y-95202757D01*
X134896100Y-95391685D01*
X126439850Y-95391685D01*
X126469085Y-95244715D01*
X126469085Y-95052085D01*
X126431505Y-94863157D01*
X126357789Y-94685190D01*
X126250770Y-94525025D01*
X126114560Y-94388815D01*
X125954395Y-94281796D01*
X125776428Y-94208080D01*
X125587500Y-94170500D01*
X125394870Y-94170500D01*
X125205942Y-94208080D01*
X125027975Y-94281796D01*
X124867810Y-94388815D01*
X124731600Y-94525025D01*
X124624581Y-94685190D01*
X124550865Y-94863157D01*
X124513285Y-95052085D01*
X112474834Y-95052085D01*
X112556601Y-95018216D01*
X112779349Y-94869381D01*
X112968781Y-94679949D01*
X113117616Y-94457201D01*
X113157464Y-94361000D01*
X114061239Y-94361000D01*
X114217790Y-94465604D01*
X114395757Y-94539320D01*
X114584685Y-94576900D01*
X114777315Y-94576900D01*
X114966243Y-94539320D01*
X115144210Y-94465604D01*
X115300761Y-94361000D01*
X122688350Y-94361000D01*
X122713126Y-94358560D01*
X122736951Y-94351333D01*
X122758907Y-94339597D01*
X122778153Y-94323803D01*
X122793947Y-94304557D01*
X122805683Y-94282601D01*
X122812910Y-94258776D01*
X122815350Y-94233887D01*
X122812184Y-90688337D01*
X122891210Y-90655604D01*
X123051375Y-90548585D01*
X123187585Y-90412375D01*
X123294604Y-90252210D01*
X123368320Y-90074243D01*
X123405900Y-89885315D01*
X123405900Y-89692685D01*
X123368320Y-89503757D01*
X123294604Y-89325790D01*
X123187585Y-89165625D01*
X123051375Y-89029415D01*
X122903616Y-88930685D01*
X124561600Y-88930685D01*
X124561600Y-89123315D01*
X124599180Y-89312243D01*
X124672896Y-89490210D01*
X124702824Y-89535000D01*
X124672896Y-89579790D01*
X124599180Y-89757757D01*
X124561600Y-89946685D01*
X124561600Y-90139315D01*
X124599180Y-90328243D01*
X124672896Y-90506210D01*
X124779915Y-90666375D01*
X124916125Y-90802585D01*
X125076290Y-90909604D01*
X125133100Y-90933135D01*
X125133100Y-90964815D01*
X125170680Y-91153743D01*
X125244396Y-91331710D01*
X125351415Y-91491875D01*
X125487625Y-91628085D01*
X125647790Y-91735104D01*
X125825757Y-91808820D01*
X126014685Y-91846400D01*
X126207315Y-91846400D01*
X126396243Y-91808820D01*
X126574210Y-91735104D01*
X126734375Y-91628085D01*
X126870585Y-91491875D01*
X126977604Y-91331710D01*
X127051320Y-91153743D01*
X127088900Y-90964815D01*
X127088900Y-90772185D01*
X127051320Y-90583257D01*
X126977604Y-90405290D01*
X126870585Y-90245125D01*
X126734375Y-90108915D01*
X126574210Y-90001896D01*
X126517400Y-89978365D01*
X126517400Y-89946685D01*
X126479820Y-89757757D01*
X126406104Y-89579790D01*
X126376176Y-89535000D01*
X126406104Y-89490210D01*
X126479820Y-89312243D01*
X126517400Y-89123315D01*
X126517400Y-88930685D01*
X126479820Y-88741757D01*
X126406104Y-88563790D01*
X126299085Y-88403625D01*
X126162875Y-88267415D01*
X126002710Y-88160396D01*
X125824743Y-88086680D01*
X125635815Y-88049100D01*
X125443185Y-88049100D01*
X125254257Y-88086680D01*
X125076290Y-88160396D01*
X124916125Y-88267415D01*
X124779915Y-88403625D01*
X124672896Y-88563790D01*
X124599180Y-88741757D01*
X124561600Y-88930685D01*
X122903616Y-88930685D01*
X122891210Y-88922396D01*
X122810578Y-88888997D01*
X122804873Y-82499615D01*
X123003014Y-82393706D01*
X123229134Y-82208134D01*
X123414706Y-81982014D01*
X123444000Y-81927209D01*
X123473294Y-81982014D01*
X123658866Y-82208134D01*
X123884986Y-82393706D01*
X124142966Y-82531599D01*
X124422889Y-82616513D01*
X124641050Y-82638000D01*
X124786950Y-82638000D01*
X125005111Y-82616513D01*
X125285034Y-82531599D01*
X125543014Y-82393706D01*
X125769134Y-82208134D01*
X125954706Y-81982014D01*
X125984000Y-81927209D01*
X126013294Y-81982014D01*
X126013294Y-81982014D01*
G37*
X126013294Y-81982014D02*
X126198866Y-82208134D01*
X126424986Y-82393706D01*
X126682966Y-82531599D01*
X126962889Y-82616513D01*
X127181050Y-82638000D01*
X127326950Y-82638000D01*
X127545111Y-82616513D01*
X127762000Y-82550720D01*
X127762000Y-90455750D01*
X127764440Y-90480526D01*
X127771667Y-90504351D01*
X127783403Y-90526307D01*
X127799197Y-90545553D01*
X127818443Y-90561347D01*
X127840399Y-90573083D01*
X127864224Y-90580310D01*
X127889435Y-90582749D01*
X133851038Y-90562332D01*
X133880396Y-90633210D01*
X133909266Y-90676417D01*
X133880396Y-90719624D01*
X133806680Y-90897591D01*
X133769100Y-91086519D01*
X133769100Y-91279149D01*
X133771531Y-91291371D01*
X133706675Y-91226515D01*
X133546510Y-91119496D01*
X133368543Y-91045780D01*
X133179615Y-91008200D01*
X132986985Y-91008200D01*
X132798057Y-91045780D01*
X132620090Y-91119496D01*
X132459925Y-91226515D01*
X132323715Y-91362725D01*
X132216696Y-91522890D01*
X132142980Y-91700857D01*
X132105400Y-91889785D01*
X132105400Y-92082415D01*
X132142980Y-92271343D01*
X132216696Y-92449310D01*
X132323715Y-92609475D01*
X132459925Y-92745685D01*
X132620090Y-92852704D01*
X132798057Y-92926420D01*
X132986985Y-92964000D01*
X133179615Y-92964000D01*
X133368543Y-92926420D01*
X133546510Y-92852704D01*
X133706675Y-92745685D01*
X133842885Y-92609475D01*
X133949904Y-92449310D01*
X134023620Y-92271343D01*
X134061200Y-92082415D01*
X134061200Y-91889785D01*
X134058769Y-91877563D01*
X134123625Y-91942419D01*
X134283790Y-92049438D01*
X134461757Y-92123154D01*
X134650685Y-92160734D01*
X134843315Y-92160734D01*
X135032243Y-92123154D01*
X135210210Y-92049438D01*
X135370375Y-91942419D01*
X135506585Y-91806209D01*
X135613604Y-91646044D01*
X135687320Y-91468077D01*
X135724900Y-91279149D01*
X135724900Y-91086519D01*
X135687320Y-90897591D01*
X135613604Y-90719624D01*
X135584734Y-90676417D01*
X135613604Y-90633210D01*
X135645508Y-90556187D01*
X137033000Y-90551435D01*
X137033000Y-98044000D01*
X137035440Y-98068776D01*
X137042667Y-98092601D01*
X137054403Y-98114557D01*
X137070197Y-98133803D01*
X137089443Y-98149597D01*
X137111399Y-98161333D01*
X137135224Y-98168560D01*
X137160000Y-98171000D01*
X145669000Y-98171000D01*
X145693776Y-98168560D01*
X145717601Y-98161333D01*
X145739557Y-98149597D01*
X145758803Y-98133803D01*
X145774597Y-98114557D01*
X145786333Y-98092601D01*
X145793560Y-98068776D01*
X145796000Y-98044000D01*
X145796000Y-90053000D01*
X146081815Y-90053000D01*
X146110487Y-90344111D01*
X146195401Y-90624034D01*
X146333294Y-90882014D01*
X146518866Y-91108134D01*
X146744986Y-91293706D01*
X146799791Y-91323000D01*
X146744986Y-91352294D01*
X146518866Y-91537866D01*
X146333294Y-91763986D01*
X146195401Y-92021966D01*
X146110487Y-92301889D01*
X146081815Y-92593000D01*
X146110487Y-92884111D01*
X146195401Y-93164034D01*
X146333294Y-93422014D01*
X146518866Y-93648134D01*
X146744986Y-93833706D01*
X146799791Y-93863000D01*
X146744986Y-93892294D01*
X146518866Y-94077866D01*
X146333294Y-94303986D01*
X146195401Y-94561966D01*
X146110487Y-94841889D01*
X146081815Y-95133000D01*
X146110487Y-95424111D01*
X146195401Y-95704034D01*
X146333294Y-95962014D01*
X146518866Y-96188134D01*
X146744986Y-96373706D01*
X147002966Y-96511599D01*
X147282889Y-96596513D01*
X147501050Y-96618000D01*
X147646950Y-96618000D01*
X147865111Y-96596513D01*
X148145034Y-96511599D01*
X148403014Y-96373706D01*
X148629134Y-96188134D01*
X148814706Y-95962014D01*
X148952599Y-95704034D01*
X149037513Y-95424111D01*
X149066185Y-95133000D01*
X149037513Y-94841889D01*
X148952599Y-94561966D01*
X148814706Y-94303986D01*
X148629134Y-94077866D01*
X148403014Y-93892294D01*
X148348209Y-93863000D01*
X148403014Y-93833706D01*
X148629134Y-93648134D01*
X148814706Y-93422014D01*
X148952599Y-93164034D01*
X149037513Y-92884111D01*
X149066185Y-92593000D01*
X149037513Y-92301889D01*
X148952599Y-92021966D01*
X148814706Y-91763986D01*
X148629134Y-91537866D01*
X148403014Y-91352294D01*
X148348209Y-91323000D01*
X148403014Y-91293706D01*
X148629134Y-91108134D01*
X148814706Y-90882014D01*
X148952599Y-90624034D01*
X149037513Y-90344111D01*
X149066185Y-90053000D01*
X149037513Y-89761889D01*
X148952599Y-89481966D01*
X148814706Y-89223986D01*
X148629134Y-88997866D01*
X148599313Y-88973393D01*
X148668180Y-88952502D01*
X148778494Y-88893537D01*
X148875185Y-88814185D01*
X148954537Y-88717494D01*
X149013502Y-88607180D01*
X149049812Y-88487482D01*
X149062072Y-88363000D01*
X149059000Y-87798750D01*
X148900250Y-87640000D01*
X147701000Y-87640000D01*
X147701000Y-87660000D01*
X147447000Y-87660000D01*
X147447000Y-87640000D01*
X146247750Y-87640000D01*
X146089000Y-87798750D01*
X146085928Y-88363000D01*
X146098188Y-88487482D01*
X146134498Y-88607180D01*
X146193463Y-88717494D01*
X146272815Y-88814185D01*
X146369506Y-88893537D01*
X146479820Y-88952502D01*
X146548687Y-88973393D01*
X146518866Y-88997866D01*
X146333294Y-89223986D01*
X146195401Y-89481966D01*
X146110487Y-89761889D01*
X146081815Y-90053000D01*
X145796000Y-90053000D01*
X145796000Y-86663000D01*
X146085928Y-86663000D01*
X146089000Y-87227250D01*
X146247750Y-87386000D01*
X147447000Y-87386000D01*
X147447000Y-86186750D01*
X147701000Y-86186750D01*
X147701000Y-87386000D01*
X148900250Y-87386000D01*
X149059000Y-87227250D01*
X149062072Y-86663000D01*
X149049812Y-86538518D01*
X149013502Y-86418820D01*
X148954537Y-86308506D01*
X148875185Y-86211815D01*
X148778494Y-86132463D01*
X148668180Y-86073498D01*
X148548482Y-86037188D01*
X148424000Y-86024928D01*
X147859750Y-86028000D01*
X147701000Y-86186750D01*
X147447000Y-86186750D01*
X147288250Y-86028000D01*
X146724000Y-86024928D01*
X146599518Y-86037188D01*
X146479820Y-86073498D01*
X146369506Y-86132463D01*
X146272815Y-86211815D01*
X146193463Y-86308506D01*
X146134498Y-86418820D01*
X146098188Y-86538518D01*
X146085928Y-86663000D01*
X145796000Y-86663000D01*
X145796000Y-85217000D01*
X149225401Y-85217000D01*
X149225400Y-102613000D01*
X148989010Y-102613000D01*
X149013502Y-102567180D01*
X149049812Y-102447482D01*
X149062072Y-102323000D01*
X149059000Y-101758750D01*
X148900250Y-101600000D01*
X147701000Y-101600000D01*
X147701000Y-101620000D01*
X147447000Y-101620000D01*
X147447000Y-101600000D01*
X147427000Y-101600000D01*
X147427000Y-101346000D01*
X147447000Y-101346000D01*
X147447000Y-100146750D01*
X147701000Y-100146750D01*
X147701000Y-101346000D01*
X148900250Y-101346000D01*
X149059000Y-101187250D01*
X149062072Y-100623000D01*
X149049812Y-100498518D01*
X149013502Y-100378820D01*
X148954537Y-100268506D01*
X148875185Y-100171815D01*
X148778494Y-100092463D01*
X148668180Y-100033498D01*
X148548482Y-99997188D01*
X148424000Y-99984928D01*
X147859750Y-99988000D01*
X147701000Y-100146750D01*
X147447000Y-100146750D01*
X147288250Y-99988000D01*
X146724000Y-99984928D01*
X146599518Y-99997188D01*
X146479820Y-100033498D01*
X146369506Y-100092463D01*
X146272815Y-100171815D01*
X146193463Y-100268506D01*
X146134498Y-100378820D01*
X146113607Y-100447687D01*
X146089134Y-100417866D01*
X145863014Y-100232294D01*
X145605034Y-100094401D01*
X145325111Y-100009487D01*
X145106950Y-99988000D01*
X144961050Y-99988000D01*
X144742889Y-100009487D01*
X144462966Y-100094401D01*
X144204986Y-100232294D01*
X143978866Y-100417866D01*
X143793294Y-100643986D01*
X143764000Y-100698791D01*
X143734706Y-100643986D01*
X143549134Y-100417866D01*
X143323014Y-100232294D01*
X143065034Y-100094401D01*
X142785111Y-100009487D01*
X142566950Y-99988000D01*
X142421050Y-99988000D01*
X142202889Y-100009487D01*
X141922966Y-100094401D01*
X141664986Y-100232294D01*
X141438866Y-100417866D01*
X141253294Y-100643986D01*
X141224000Y-100698791D01*
X141194706Y-100643986D01*
X141009134Y-100417866D01*
X140783014Y-100232294D01*
X140525034Y-100094401D01*
X140245111Y-100009487D01*
X140026950Y-99988000D01*
X139881050Y-99988000D01*
X139662889Y-100009487D01*
X139382966Y-100094401D01*
X139124986Y-100232294D01*
X138898866Y-100417866D01*
X138713294Y-100643986D01*
X138684000Y-100698791D01*
X138654706Y-100643986D01*
X138469134Y-100417866D01*
X138243014Y-100232294D01*
X137985034Y-100094401D01*
X137705111Y-100009487D01*
X137486950Y-99988000D01*
X137341050Y-99988000D01*
X137122889Y-100009487D01*
X136842966Y-100094401D01*
X136584986Y-100232294D01*
X136358866Y-100417866D01*
X136173294Y-100643986D01*
X136144000Y-100698791D01*
X136114706Y-100643986D01*
X135929134Y-100417866D01*
X135703014Y-100232294D01*
X135445034Y-100094401D01*
X135165111Y-100009487D01*
X134946950Y-99988000D01*
X134801050Y-99988000D01*
X134582889Y-100009487D01*
X134302966Y-100094401D01*
X134044986Y-100232294D01*
X133818866Y-100417866D01*
X133633294Y-100643986D01*
X133604000Y-100698791D01*
X133574706Y-100643986D01*
X133389134Y-100417866D01*
X133163014Y-100232294D01*
X132905034Y-100094401D01*
X132625111Y-100009487D01*
X132406950Y-99988000D01*
X132261050Y-99988000D01*
X132042889Y-100009487D01*
X131762966Y-100094401D01*
X131504986Y-100232294D01*
X131278866Y-100417866D01*
X131093294Y-100643986D01*
X131064000Y-100698791D01*
X131034706Y-100643986D01*
X130849134Y-100417866D01*
X130623014Y-100232294D01*
X130365034Y-100094401D01*
X130085111Y-100009487D01*
X129866950Y-99988000D01*
X129721050Y-99988000D01*
X129502889Y-100009487D01*
X129222966Y-100094401D01*
X128964986Y-100232294D01*
X128738866Y-100417866D01*
X128553294Y-100643986D01*
X128524000Y-100698791D01*
X128494706Y-100643986D01*
X128309134Y-100417866D01*
X128083014Y-100232294D01*
X127825034Y-100094401D01*
X127545111Y-100009487D01*
X127326950Y-99988000D01*
X127181050Y-99988000D01*
X126962889Y-100009487D01*
X126682966Y-100094401D01*
X126424986Y-100232294D01*
X126198866Y-100417866D01*
X126013294Y-100643986D01*
X125984000Y-100698791D01*
X125954706Y-100643986D01*
X125769134Y-100417866D01*
X125543014Y-100232294D01*
X125285034Y-100094401D01*
X125005111Y-100009487D01*
X124786950Y-99988000D01*
X124641050Y-99988000D01*
X124422889Y-100009487D01*
X124142966Y-100094401D01*
X123884986Y-100232294D01*
X123658866Y-100417866D01*
X123473294Y-100643986D01*
X123444000Y-100698791D01*
X123414706Y-100643986D01*
X123229134Y-100417866D01*
X123003014Y-100232294D01*
X122745034Y-100094401D01*
X122465111Y-100009487D01*
X122246950Y-99988000D01*
X122101050Y-99988000D01*
X121882889Y-100009487D01*
X121602966Y-100094401D01*
X121344986Y-100232294D01*
X121118866Y-100417866D01*
X120933294Y-100643986D01*
X120904000Y-100698791D01*
X120874706Y-100643986D01*
X120689134Y-100417866D01*
X120463014Y-100232294D01*
X120205034Y-100094401D01*
X119925111Y-100009487D01*
X119706950Y-99988000D01*
X119561050Y-99988000D01*
X119342889Y-100009487D01*
X119062966Y-100094401D01*
X118804986Y-100232294D01*
X118578866Y-100417866D01*
X118393294Y-100643986D01*
X118364000Y-100698791D01*
X118334706Y-100643986D01*
X118149134Y-100417866D01*
X117923014Y-100232294D01*
X117665034Y-100094401D01*
X117385111Y-100009487D01*
X117166950Y-99988000D01*
X117021050Y-99988000D01*
X116802889Y-100009487D01*
X116522966Y-100094401D01*
X116264986Y-100232294D01*
X116038866Y-100417866D01*
X115853294Y-100643986D01*
X115715401Y-100901966D01*
X115630487Y-101181889D01*
X115601815Y-101473000D01*
X115630487Y-101764111D01*
X115715401Y-102044034D01*
X115853294Y-102302014D01*
X116038866Y-102528134D01*
X116142275Y-102613000D01*
X107469900Y-102613000D01*
X107469900Y-97947685D01*
X108115100Y-97947685D01*
X108115100Y-98140315D01*
X108152680Y-98329243D01*
X108226396Y-98507210D01*
X108333415Y-98667375D01*
X108469625Y-98803585D01*
X108629790Y-98910604D01*
X108807757Y-98984320D01*
X108996685Y-99021900D01*
X109189315Y-99021900D01*
X109378243Y-98984320D01*
X109556210Y-98910604D01*
X109716375Y-98803585D01*
X109852585Y-98667375D01*
X109959604Y-98507210D01*
X110033320Y-98329243D01*
X110070900Y-98140315D01*
X110070900Y-97947685D01*
X113830100Y-97947685D01*
X113830100Y-98140315D01*
X113867680Y-98329243D01*
X113941396Y-98507210D01*
X114048415Y-98667375D01*
X114184625Y-98803585D01*
X114344790Y-98910604D01*
X114522757Y-98984320D01*
X114711685Y-99021900D01*
X114904315Y-99021900D01*
X115093243Y-98984320D01*
X115271210Y-98910604D01*
X115431375Y-98803585D01*
X115567585Y-98667375D01*
X115674604Y-98507210D01*
X115748320Y-98329243D01*
X115785900Y-98140315D01*
X115785900Y-97947685D01*
X115748320Y-97758757D01*
X115711070Y-97668828D01*
X115779210Y-97640604D01*
X115939375Y-97533585D01*
X116075585Y-97397375D01*
X116182604Y-97237210D01*
X116256320Y-97059243D01*
X116293900Y-96870315D01*
X116293900Y-96677685D01*
X116256320Y-96488757D01*
X116182604Y-96310790D01*
X116075585Y-96150625D01*
X115939375Y-96014415D01*
X115779210Y-95907396D01*
X115601243Y-95833680D01*
X115412315Y-95796100D01*
X115219685Y-95796100D01*
X115030757Y-95833680D01*
X114852790Y-95907396D01*
X114692625Y-96014415D01*
X114556415Y-96150625D01*
X114449396Y-96310790D01*
X114375680Y-96488757D01*
X114338100Y-96677685D01*
X114338100Y-96870315D01*
X114375680Y-97059243D01*
X114412930Y-97149172D01*
X114344790Y-97177396D01*
X114184625Y-97284415D01*
X114048415Y-97420625D01*
X113941396Y-97580790D01*
X113867680Y-97758757D01*
X113830100Y-97947685D01*
X110070900Y-97947685D01*
X110033320Y-97758757D01*
X109959604Y-97580790D01*
X109852585Y-97420625D01*
X109716375Y-97284415D01*
X109556210Y-97177396D01*
X109378243Y-97103680D01*
X109189315Y-97066100D01*
X108996685Y-97066100D01*
X108807757Y-97103680D01*
X108629790Y-97177396D01*
X108469625Y-97284415D01*
X108333415Y-97420625D01*
X108226396Y-97580790D01*
X108152680Y-97758757D01*
X108115100Y-97947685D01*
X107469900Y-97947685D01*
X107469900Y-94361000D01*
X107708942Y-94361000D01*
X107645270Y-94570898D01*
X107621425Y-94813000D01*
X107645270Y-95055102D01*
X107715889Y-95287901D01*
X107830567Y-95502449D01*
X107984898Y-95690502D01*
X108172951Y-95844833D01*
X108387499Y-95959511D01*
X108620298Y-96030130D01*
X108801735Y-96048000D01*
X109623065Y-96048000D01*
X109804502Y-96030130D01*
X110037301Y-95959511D01*
X110251849Y-95844833D01*
X110439902Y-95690502D01*
X110594233Y-95502449D01*
X110708911Y-95287901D01*
X110779530Y-95055102D01*
X110803375Y-94813000D01*
X110779530Y-94570898D01*
X110776517Y-94560965D01*
X110856019Y-94679949D01*
X111045451Y-94869381D01*
X111268199Y-95018216D01*
X111515703Y-95120736D01*
X111778452Y-95173000D01*
X112046348Y-95173000D01*
X112309097Y-95120736D01*
X112474834Y-95052085D01*
X124513285Y-95052085D01*
X124513285Y-95244715D01*
X124550865Y-95433643D01*
X124624581Y-95611610D01*
X124731600Y-95771775D01*
X124826396Y-95866571D01*
X124731600Y-95961367D01*
X124624581Y-96121532D01*
X124550865Y-96299499D01*
X124513285Y-96488427D01*
X124513285Y-96681057D01*
X124550865Y-96869985D01*
X124624581Y-97047952D01*
X124731600Y-97208117D01*
X124826397Y-97302914D01*
X124731600Y-97397710D01*
X124624581Y-97557875D01*
X124550865Y-97735842D01*
X124513285Y-97924770D01*
X124513285Y-98117400D01*
X124550865Y-98306328D01*
X124624581Y-98484295D01*
X124731600Y-98644460D01*
X124867810Y-98780670D01*
X125027975Y-98887689D01*
X125205942Y-98961405D01*
X125394870Y-98998985D01*
X125587500Y-98998985D01*
X125776428Y-98961405D01*
X125954395Y-98887689D01*
X126114560Y-98780670D01*
X126250770Y-98644460D01*
X126357789Y-98484295D01*
X126431505Y-98306328D01*
X126469085Y-98117400D01*
X126469085Y-97924770D01*
X126431505Y-97735842D01*
X126357789Y-97557875D01*
X126250770Y-97397710D01*
X126155974Y-97302914D01*
X126250770Y-97208117D01*
X126357789Y-97047952D01*
X126431505Y-96869985D01*
X126469085Y-96681057D01*
X126469085Y-96488427D01*
X126431505Y-96299499D01*
X126357789Y-96121532D01*
X126250770Y-95961367D01*
X126155974Y-95866571D01*
X126250770Y-95771775D01*
X126357789Y-95611610D01*
X126431505Y-95433643D01*
X126439850Y-95391685D01*
X134896100Y-95391685D01*
X134896100Y-95584315D01*
X134933680Y-95773243D01*
X135007396Y-95951210D01*
X135114415Y-96111375D01*
X135250625Y-96247585D01*
X135410790Y-96354604D01*
X135588757Y-96428320D01*
X135777685Y-96465900D01*
X135970315Y-96465900D01*
X136159243Y-96428320D01*
X136337210Y-96354604D01*
X136497375Y-96247585D01*
X136633585Y-96111375D01*
X136740604Y-95951210D01*
X136814320Y-95773243D01*
X136851900Y-95584315D01*
X136851900Y-95391685D01*
X136814320Y-95202757D01*
X136740604Y-95024790D01*
X136633585Y-94864625D01*
X136497375Y-94728415D01*
X136337210Y-94621396D01*
X136159243Y-94547680D01*
X135970315Y-94510100D01*
X135777685Y-94510100D01*
X135588757Y-94547680D01*
X135410790Y-94621396D01*
X135250625Y-94728415D01*
X135114415Y-94864625D01*
X135007396Y-95024790D01*
X134933680Y-95202757D01*
X134896100Y-95391685D01*
X126439850Y-95391685D01*
X126469085Y-95244715D01*
X126469085Y-95052085D01*
X126431505Y-94863157D01*
X126357789Y-94685190D01*
X126250770Y-94525025D01*
X126114560Y-94388815D01*
X125954395Y-94281796D01*
X125776428Y-94208080D01*
X125587500Y-94170500D01*
X125394870Y-94170500D01*
X125205942Y-94208080D01*
X125027975Y-94281796D01*
X124867810Y-94388815D01*
X124731600Y-94525025D01*
X124624581Y-94685190D01*
X124550865Y-94863157D01*
X124513285Y-95052085D01*
X112474834Y-95052085D01*
X112556601Y-95018216D01*
X112779349Y-94869381D01*
X112968781Y-94679949D01*
X113117616Y-94457201D01*
X113157464Y-94361000D01*
X114061239Y-94361000D01*
X114217790Y-94465604D01*
X114395757Y-94539320D01*
X114584685Y-94576900D01*
X114777315Y-94576900D01*
X114966243Y-94539320D01*
X115144210Y-94465604D01*
X115300761Y-94361000D01*
X122688350Y-94361000D01*
X122713126Y-94358560D01*
X122736951Y-94351333D01*
X122758907Y-94339597D01*
X122778153Y-94323803D01*
X122793947Y-94304557D01*
X122805683Y-94282601D01*
X122812910Y-94258776D01*
X122815350Y-94233887D01*
X122812184Y-90688337D01*
X122891210Y-90655604D01*
X123051375Y-90548585D01*
X123187585Y-90412375D01*
X123294604Y-90252210D01*
X123368320Y-90074243D01*
X123405900Y-89885315D01*
X123405900Y-89692685D01*
X123368320Y-89503757D01*
X123294604Y-89325790D01*
X123187585Y-89165625D01*
X123051375Y-89029415D01*
X122903616Y-88930685D01*
X124561600Y-88930685D01*
X124561600Y-89123315D01*
X124599180Y-89312243D01*
X124672896Y-89490210D01*
X124702824Y-89535000D01*
X124672896Y-89579790D01*
X124599180Y-89757757D01*
X124561600Y-89946685D01*
X124561600Y-90139315D01*
X124599180Y-90328243D01*
X124672896Y-90506210D01*
X124779915Y-90666375D01*
X124916125Y-90802585D01*
X125076290Y-90909604D01*
X125133100Y-90933135D01*
X125133100Y-90964815D01*
X125170680Y-91153743D01*
X125244396Y-91331710D01*
X125351415Y-91491875D01*
X125487625Y-91628085D01*
X125647790Y-91735104D01*
X125825757Y-91808820D01*
X126014685Y-91846400D01*
X126207315Y-91846400D01*
X126396243Y-91808820D01*
X126574210Y-91735104D01*
X126734375Y-91628085D01*
X126870585Y-91491875D01*
X126977604Y-91331710D01*
X127051320Y-91153743D01*
X127088900Y-90964815D01*
X127088900Y-90772185D01*
X127051320Y-90583257D01*
X126977604Y-90405290D01*
X126870585Y-90245125D01*
X126734375Y-90108915D01*
X126574210Y-90001896D01*
X126517400Y-89978365D01*
X126517400Y-89946685D01*
X126479820Y-89757757D01*
X126406104Y-89579790D01*
X126376176Y-89535000D01*
X126406104Y-89490210D01*
X126479820Y-89312243D01*
X126517400Y-89123315D01*
X126517400Y-88930685D01*
X126479820Y-88741757D01*
X126406104Y-88563790D01*
X126299085Y-88403625D01*
X126162875Y-88267415D01*
X126002710Y-88160396D01*
X125824743Y-88086680D01*
X125635815Y-88049100D01*
X125443185Y-88049100D01*
X125254257Y-88086680D01*
X125076290Y-88160396D01*
X124916125Y-88267415D01*
X124779915Y-88403625D01*
X124672896Y-88563790D01*
X124599180Y-88741757D01*
X124561600Y-88930685D01*
X122903616Y-88930685D01*
X122891210Y-88922396D01*
X122810578Y-88888997D01*
X122804873Y-82499615D01*
X123003014Y-82393706D01*
X123229134Y-82208134D01*
X123414706Y-81982014D01*
X123444000Y-81927209D01*
X123473294Y-81982014D01*
X123658866Y-82208134D01*
X123884986Y-82393706D01*
X124142966Y-82531599D01*
X124422889Y-82616513D01*
X124641050Y-82638000D01*
X124786950Y-82638000D01*
X125005111Y-82616513D01*
X125285034Y-82531599D01*
X125543014Y-82393706D01*
X125769134Y-82208134D01*
X125954706Y-81982014D01*
X125984000Y-81927209D01*
X126013294Y-81982014D01*
G36*
X115898822Y-80271645D02*
G01*
X115749843Y-80521748D01*
X115652519Y-80796109D01*
X115773186Y-81026000D01*
X116967000Y-81026000D01*
X116967000Y-81006000D01*
X117221000Y-81006000D01*
X117221000Y-81026000D01*
X117241000Y-81026000D01*
X117241000Y-81280000D01*
X117221000Y-81280000D01*
X117221000Y-82473155D01*
X117450890Y-82594476D01*
X117598099Y-82549825D01*
X117860920Y-82424641D01*
X118094269Y-82250588D01*
X118289178Y-82034355D01*
X118358799Y-81917477D01*
X118393294Y-81982014D01*
X118578866Y-82208134D01*
X118804986Y-82393706D01*
X119062966Y-82531599D01*
X119342889Y-82616513D01*
X119561050Y-82638000D01*
X119706950Y-82638000D01*
X119925111Y-82616513D01*
X120205034Y-82531599D01*
X120463014Y-82393706D01*
X120689134Y-82208134D01*
X120874706Y-81982014D01*
X120904000Y-81927209D01*
X120933294Y-81982014D01*
X121118866Y-82208134D01*
X121344986Y-82393706D01*
X121602966Y-82531599D01*
X121666000Y-82550720D01*
X121666000Y-89169239D01*
X121561396Y-89325790D01*
X121487680Y-89503757D01*
X121450100Y-89692685D01*
X121450100Y-89885315D01*
X121487680Y-90074243D01*
X121561396Y-90252210D01*
X121666000Y-90408761D01*
X121666000Y-93091000D01*
X115517676Y-93091000D01*
X115440585Y-92975625D01*
X115304375Y-92839415D01*
X115144210Y-92732396D01*
X114966243Y-92658680D01*
X114777315Y-92621100D01*
X114584685Y-92621100D01*
X114395757Y-92658680D01*
X114233680Y-92725814D01*
X114224320Y-92678757D01*
X114150604Y-92500790D01*
X114043585Y-92340625D01*
X113907375Y-92204415D01*
X113747210Y-92097396D01*
X113569243Y-92023680D01*
X113380315Y-91986100D01*
X113187685Y-91986100D01*
X112998757Y-92023680D01*
X112820790Y-92097396D01*
X112660625Y-92204415D01*
X112524415Y-92340625D01*
X112417396Y-92500790D01*
X112399954Y-92542898D01*
X112309097Y-92505264D01*
X112046348Y-92453000D01*
X111778452Y-92453000D01*
X111515703Y-92505264D01*
X111268199Y-92607784D01*
X111045451Y-92756619D01*
X110856019Y-92946051D01*
X110759167Y-93091000D01*
X107469900Y-93091000D01*
X107469900Y-91661185D01*
X116687600Y-91661185D01*
X116687600Y-91853815D01*
X116725180Y-92042743D01*
X116798896Y-92220710D01*
X116905915Y-92380875D01*
X117042125Y-92517085D01*
X117202290Y-92624104D01*
X117380257Y-92697820D01*
X117569185Y-92735400D01*
X117761815Y-92735400D01*
X117950743Y-92697820D01*
X118128710Y-92624104D01*
X118288875Y-92517085D01*
X118425085Y-92380875D01*
X118532104Y-92220710D01*
X118605820Y-92042743D01*
X118643400Y-91853815D01*
X118643400Y-91661185D01*
X118605820Y-91472257D01*
X118532104Y-91294290D01*
X118425085Y-91134125D01*
X118288875Y-90997915D01*
X118128710Y-90890896D01*
X117950743Y-90817180D01*
X117761815Y-90779600D01*
X117569185Y-90779600D01*
X117380257Y-90817180D01*
X117202290Y-90890896D01*
X117042125Y-90997915D01*
X116905915Y-91134125D01*
X116798896Y-91294290D01*
X116725180Y-91472257D01*
X116687600Y-91661185D01*
X107469900Y-91661185D01*
X107469900Y-87813000D01*
X107621425Y-87813000D01*
X107645270Y-88055102D01*
X107715889Y-88287901D01*
X107830567Y-88502449D01*
X107984898Y-88690502D01*
X108172951Y-88844833D01*
X108387499Y-88959511D01*
X108620298Y-89030130D01*
X108801735Y-89048000D01*
X109623065Y-89048000D01*
X109804502Y-89030130D01*
X110037301Y-88959511D01*
X110251849Y-88844833D01*
X110439902Y-88690502D01*
X110585384Y-88513232D01*
X110552400Y-88679052D01*
X110552400Y-88946948D01*
X110604664Y-89209697D01*
X110707184Y-89457201D01*
X110856019Y-89679949D01*
X111045451Y-89869381D01*
X111268199Y-90018216D01*
X111515703Y-90120736D01*
X111778452Y-90173000D01*
X112046348Y-90173000D01*
X112309097Y-90120736D01*
X112556601Y-90018216D01*
X112779349Y-89869381D01*
X112956045Y-89692685D01*
X118656100Y-89692685D01*
X118656100Y-89885315D01*
X118693680Y-90074243D01*
X118767396Y-90252210D01*
X118874415Y-90412375D01*
X119010625Y-90548585D01*
X119170790Y-90655604D01*
X119348757Y-90729320D01*
X119537685Y-90766900D01*
X119730315Y-90766900D01*
X119919243Y-90729320D01*
X120097210Y-90655604D01*
X120257375Y-90548585D01*
X120393585Y-90412375D01*
X120500604Y-90252210D01*
X120574320Y-90074243D01*
X120611900Y-89885315D01*
X120611900Y-89692685D01*
X120574320Y-89503757D01*
X120500604Y-89325790D01*
X120393585Y-89165625D01*
X120257375Y-89029415D01*
X120097210Y-88922396D01*
X119919243Y-88848680D01*
X119730315Y-88811100D01*
X119537685Y-88811100D01*
X119348757Y-88848680D01*
X119170790Y-88922396D01*
X119010625Y-89029415D01*
X118874415Y-89165625D01*
X118767396Y-89325790D01*
X118693680Y-89503757D01*
X118656100Y-89692685D01*
X112956045Y-89692685D01*
X112968781Y-89679949D01*
X113117616Y-89457201D01*
X113220136Y-89209697D01*
X113272400Y-88946948D01*
X113272400Y-88679052D01*
X113220136Y-88416303D01*
X113117616Y-88168799D01*
X112968781Y-87946051D01*
X112779349Y-87756619D01*
X112556601Y-87607784D01*
X112309097Y-87505264D01*
X112046348Y-87453000D01*
X111778452Y-87453000D01*
X111515703Y-87505264D01*
X111268199Y-87607784D01*
X111045451Y-87756619D01*
X110856019Y-87946051D01*
X110776517Y-88065035D01*
X110779530Y-88055102D01*
X110803375Y-87813000D01*
X110779530Y-87570898D01*
X110708911Y-87338099D01*
X110594233Y-87123551D01*
X110439902Y-86935498D01*
X110251849Y-86781167D01*
X110037301Y-86666489D01*
X109804502Y-86595870D01*
X109623065Y-86578000D01*
X108801735Y-86578000D01*
X108620298Y-86595870D01*
X108387499Y-86666489D01*
X108172951Y-86781167D01*
X107984898Y-86935498D01*
X107830567Y-87123551D01*
X107715889Y-87338099D01*
X107645270Y-87570898D01*
X107621425Y-87813000D01*
X107469900Y-87813000D01*
X107469900Y-85844585D01*
X117602000Y-85844585D01*
X117602000Y-86037215D01*
X117639580Y-86226143D01*
X117713296Y-86404110D01*
X117820315Y-86564275D01*
X117956525Y-86700485D01*
X118116690Y-86807504D01*
X118294657Y-86881220D01*
X118483585Y-86918800D01*
X118676215Y-86918800D01*
X118865143Y-86881220D01*
X119043110Y-86807504D01*
X119203275Y-86700485D01*
X119339485Y-86564275D01*
X119446504Y-86404110D01*
X119520220Y-86226143D01*
X119557800Y-86037215D01*
X119557800Y-85844585D01*
X119520220Y-85655657D01*
X119446504Y-85477690D01*
X119339485Y-85317525D01*
X119203275Y-85181315D01*
X119043110Y-85074296D01*
X118865143Y-85000580D01*
X118676215Y-84963000D01*
X118483585Y-84963000D01*
X118294657Y-85000580D01*
X118116690Y-85074296D01*
X117956525Y-85181315D01*
X117820315Y-85317525D01*
X117713296Y-85477690D01*
X117639580Y-85655657D01*
X117602000Y-85844585D01*
X107469900Y-85844585D01*
X107469900Y-84485685D01*
X109110700Y-84485685D01*
X109110700Y-84678315D01*
X109148280Y-84867243D01*
X109221996Y-85045210D01*
X109329015Y-85205375D01*
X109465225Y-85341585D01*
X109625390Y-85448604D01*
X109803357Y-85522320D01*
X109992285Y-85559900D01*
X110184915Y-85559900D01*
X110373843Y-85522320D01*
X110551810Y-85448604D01*
X110711975Y-85341585D01*
X110848185Y-85205375D01*
X110955204Y-85045210D01*
X110963600Y-85024940D01*
X110971996Y-85045210D01*
X111079015Y-85205375D01*
X111215225Y-85341585D01*
X111375390Y-85448604D01*
X111553357Y-85522320D01*
X111742285Y-85559900D01*
X111934915Y-85559900D01*
X112123843Y-85522320D01*
X112301810Y-85448604D01*
X112461975Y-85341585D01*
X112598185Y-85205375D01*
X112705204Y-85045210D01*
X112778920Y-84867243D01*
X112816500Y-84678315D01*
X112816500Y-84485685D01*
X112778920Y-84296757D01*
X112705204Y-84118790D01*
X112598185Y-83958625D01*
X112461975Y-83822415D01*
X112301810Y-83715396D01*
X112123843Y-83641680D01*
X111934915Y-83604100D01*
X111742285Y-83604100D01*
X111553357Y-83641680D01*
X111375390Y-83715396D01*
X111215225Y-83822415D01*
X111079015Y-83958625D01*
X110971996Y-84118790D01*
X110963600Y-84139060D01*
X110955204Y-84118790D01*
X110848185Y-83958625D01*
X110711975Y-83822415D01*
X110551810Y-83715396D01*
X110373843Y-83641680D01*
X110184915Y-83604100D01*
X109992285Y-83604100D01*
X109803357Y-83641680D01*
X109625390Y-83715396D01*
X109465225Y-83822415D01*
X109329015Y-83958625D01*
X109221996Y-84118790D01*
X109148280Y-84296757D01*
X109110700Y-84485685D01*
X107469900Y-84485685D01*
X107469900Y-81509891D01*
X115652519Y-81509891D01*
X115749843Y-81784252D01*
X115898822Y-82034355D01*
X116093731Y-82250588D01*
X116327080Y-82424641D01*
X116589901Y-82549825D01*
X116737110Y-82594476D01*
X116967000Y-82473155D01*
X116967000Y-81280000D01*
X115773186Y-81280000D01*
X115652519Y-81509891D01*
X107469900Y-81509891D01*
X107469900Y-80137000D01*
X116020189Y-80137000D01*
X115898822Y-80271645D01*
X115898822Y-80271645D01*
G37*
X115898822Y-80271645D02*
X115749843Y-80521748D01*
X115652519Y-80796109D01*
X115773186Y-81026000D01*
X116967000Y-81026000D01*
X116967000Y-81006000D01*
X117221000Y-81006000D01*
X117221000Y-81026000D01*
X117241000Y-81026000D01*
X117241000Y-81280000D01*
X117221000Y-81280000D01*
X117221000Y-82473155D01*
X117450890Y-82594476D01*
X117598099Y-82549825D01*
X117860920Y-82424641D01*
X118094269Y-82250588D01*
X118289178Y-82034355D01*
X118358799Y-81917477D01*
X118393294Y-81982014D01*
X118578866Y-82208134D01*
X118804986Y-82393706D01*
X119062966Y-82531599D01*
X119342889Y-82616513D01*
X119561050Y-82638000D01*
X119706950Y-82638000D01*
X119925111Y-82616513D01*
X120205034Y-82531599D01*
X120463014Y-82393706D01*
X120689134Y-82208134D01*
X120874706Y-81982014D01*
X120904000Y-81927209D01*
X120933294Y-81982014D01*
X121118866Y-82208134D01*
X121344986Y-82393706D01*
X121602966Y-82531599D01*
X121666000Y-82550720D01*
X121666000Y-89169239D01*
X121561396Y-89325790D01*
X121487680Y-89503757D01*
X121450100Y-89692685D01*
X121450100Y-89885315D01*
X121487680Y-90074243D01*
X121561396Y-90252210D01*
X121666000Y-90408761D01*
X121666000Y-93091000D01*
X115517676Y-93091000D01*
X115440585Y-92975625D01*
X115304375Y-92839415D01*
X115144210Y-92732396D01*
X114966243Y-92658680D01*
X114777315Y-92621100D01*
X114584685Y-92621100D01*
X114395757Y-92658680D01*
X114233680Y-92725814D01*
X114224320Y-92678757D01*
X114150604Y-92500790D01*
X114043585Y-92340625D01*
X113907375Y-92204415D01*
X113747210Y-92097396D01*
X113569243Y-92023680D01*
X113380315Y-91986100D01*
X113187685Y-91986100D01*
X112998757Y-92023680D01*
X112820790Y-92097396D01*
X112660625Y-92204415D01*
X112524415Y-92340625D01*
X112417396Y-92500790D01*
X112399954Y-92542898D01*
X112309097Y-92505264D01*
X112046348Y-92453000D01*
X111778452Y-92453000D01*
X111515703Y-92505264D01*
X111268199Y-92607784D01*
X111045451Y-92756619D01*
X110856019Y-92946051D01*
X110759167Y-93091000D01*
X107469900Y-93091000D01*
X107469900Y-91661185D01*
X116687600Y-91661185D01*
X116687600Y-91853815D01*
X116725180Y-92042743D01*
X116798896Y-92220710D01*
X116905915Y-92380875D01*
X117042125Y-92517085D01*
X117202290Y-92624104D01*
X117380257Y-92697820D01*
X117569185Y-92735400D01*
X117761815Y-92735400D01*
X117950743Y-92697820D01*
X118128710Y-92624104D01*
X118288875Y-92517085D01*
X118425085Y-92380875D01*
X118532104Y-92220710D01*
X118605820Y-92042743D01*
X118643400Y-91853815D01*
X118643400Y-91661185D01*
X118605820Y-91472257D01*
X118532104Y-91294290D01*
X118425085Y-91134125D01*
X118288875Y-90997915D01*
X118128710Y-90890896D01*
X117950743Y-90817180D01*
X117761815Y-90779600D01*
X117569185Y-90779600D01*
X117380257Y-90817180D01*
X117202290Y-90890896D01*
X117042125Y-90997915D01*
X116905915Y-91134125D01*
X116798896Y-91294290D01*
X116725180Y-91472257D01*
X116687600Y-91661185D01*
X107469900Y-91661185D01*
X107469900Y-87813000D01*
X107621425Y-87813000D01*
X107645270Y-88055102D01*
X107715889Y-88287901D01*
X107830567Y-88502449D01*
X107984898Y-88690502D01*
X108172951Y-88844833D01*
X108387499Y-88959511D01*
X108620298Y-89030130D01*
X108801735Y-89048000D01*
X109623065Y-89048000D01*
X109804502Y-89030130D01*
X110037301Y-88959511D01*
X110251849Y-88844833D01*
X110439902Y-88690502D01*
X110585384Y-88513232D01*
X110552400Y-88679052D01*
X110552400Y-88946948D01*
X110604664Y-89209697D01*
X110707184Y-89457201D01*
X110856019Y-89679949D01*
X111045451Y-89869381D01*
X111268199Y-90018216D01*
X111515703Y-90120736D01*
X111778452Y-90173000D01*
X112046348Y-90173000D01*
X112309097Y-90120736D01*
X112556601Y-90018216D01*
X112779349Y-89869381D01*
X112956045Y-89692685D01*
X118656100Y-89692685D01*
X118656100Y-89885315D01*
X118693680Y-90074243D01*
X118767396Y-90252210D01*
X118874415Y-90412375D01*
X119010625Y-90548585D01*
X119170790Y-90655604D01*
X119348757Y-90729320D01*
X119537685Y-90766900D01*
X119730315Y-90766900D01*
X119919243Y-90729320D01*
X120097210Y-90655604D01*
X120257375Y-90548585D01*
X120393585Y-90412375D01*
X120500604Y-90252210D01*
X120574320Y-90074243D01*
X120611900Y-89885315D01*
X120611900Y-89692685D01*
X120574320Y-89503757D01*
X120500604Y-89325790D01*
X120393585Y-89165625D01*
X120257375Y-89029415D01*
X120097210Y-88922396D01*
X119919243Y-88848680D01*
X119730315Y-88811100D01*
X119537685Y-88811100D01*
X119348757Y-88848680D01*
X119170790Y-88922396D01*
X119010625Y-89029415D01*
X118874415Y-89165625D01*
X118767396Y-89325790D01*
X118693680Y-89503757D01*
X118656100Y-89692685D01*
X112956045Y-89692685D01*
X112968781Y-89679949D01*
X113117616Y-89457201D01*
X113220136Y-89209697D01*
X113272400Y-88946948D01*
X113272400Y-88679052D01*
X113220136Y-88416303D01*
X113117616Y-88168799D01*
X112968781Y-87946051D01*
X112779349Y-87756619D01*
X112556601Y-87607784D01*
X112309097Y-87505264D01*
X112046348Y-87453000D01*
X111778452Y-87453000D01*
X111515703Y-87505264D01*
X111268199Y-87607784D01*
X111045451Y-87756619D01*
X110856019Y-87946051D01*
X110776517Y-88065035D01*
X110779530Y-88055102D01*
X110803375Y-87813000D01*
X110779530Y-87570898D01*
X110708911Y-87338099D01*
X110594233Y-87123551D01*
X110439902Y-86935498D01*
X110251849Y-86781167D01*
X110037301Y-86666489D01*
X109804502Y-86595870D01*
X109623065Y-86578000D01*
X108801735Y-86578000D01*
X108620298Y-86595870D01*
X108387499Y-86666489D01*
X108172951Y-86781167D01*
X107984898Y-86935498D01*
X107830567Y-87123551D01*
X107715889Y-87338099D01*
X107645270Y-87570898D01*
X107621425Y-87813000D01*
X107469900Y-87813000D01*
X107469900Y-85844585D01*
X117602000Y-85844585D01*
X117602000Y-86037215D01*
X117639580Y-86226143D01*
X117713296Y-86404110D01*
X117820315Y-86564275D01*
X117956525Y-86700485D01*
X118116690Y-86807504D01*
X118294657Y-86881220D01*
X118483585Y-86918800D01*
X118676215Y-86918800D01*
X118865143Y-86881220D01*
X119043110Y-86807504D01*
X119203275Y-86700485D01*
X119339485Y-86564275D01*
X119446504Y-86404110D01*
X119520220Y-86226143D01*
X119557800Y-86037215D01*
X119557800Y-85844585D01*
X119520220Y-85655657D01*
X119446504Y-85477690D01*
X119339485Y-85317525D01*
X119203275Y-85181315D01*
X119043110Y-85074296D01*
X118865143Y-85000580D01*
X118676215Y-84963000D01*
X118483585Y-84963000D01*
X118294657Y-85000580D01*
X118116690Y-85074296D01*
X117956525Y-85181315D01*
X117820315Y-85317525D01*
X117713296Y-85477690D01*
X117639580Y-85655657D01*
X117602000Y-85844585D01*
X107469900Y-85844585D01*
X107469900Y-84485685D01*
X109110700Y-84485685D01*
X109110700Y-84678315D01*
X109148280Y-84867243D01*
X109221996Y-85045210D01*
X109329015Y-85205375D01*
X109465225Y-85341585D01*
X109625390Y-85448604D01*
X109803357Y-85522320D01*
X109992285Y-85559900D01*
X110184915Y-85559900D01*
X110373843Y-85522320D01*
X110551810Y-85448604D01*
X110711975Y-85341585D01*
X110848185Y-85205375D01*
X110955204Y-85045210D01*
X110963600Y-85024940D01*
X110971996Y-85045210D01*
X111079015Y-85205375D01*
X111215225Y-85341585D01*
X111375390Y-85448604D01*
X111553357Y-85522320D01*
X111742285Y-85559900D01*
X111934915Y-85559900D01*
X112123843Y-85522320D01*
X112301810Y-85448604D01*
X112461975Y-85341585D01*
X112598185Y-85205375D01*
X112705204Y-85045210D01*
X112778920Y-84867243D01*
X112816500Y-84678315D01*
X112816500Y-84485685D01*
X112778920Y-84296757D01*
X112705204Y-84118790D01*
X112598185Y-83958625D01*
X112461975Y-83822415D01*
X112301810Y-83715396D01*
X112123843Y-83641680D01*
X111934915Y-83604100D01*
X111742285Y-83604100D01*
X111553357Y-83641680D01*
X111375390Y-83715396D01*
X111215225Y-83822415D01*
X111079015Y-83958625D01*
X110971996Y-84118790D01*
X110963600Y-84139060D01*
X110955204Y-84118790D01*
X110848185Y-83958625D01*
X110711975Y-83822415D01*
X110551810Y-83715396D01*
X110373843Y-83641680D01*
X110184915Y-83604100D01*
X109992285Y-83604100D01*
X109803357Y-83641680D01*
X109625390Y-83715396D01*
X109465225Y-83822415D01*
X109329015Y-83958625D01*
X109221996Y-84118790D01*
X109148280Y-84296757D01*
X109110700Y-84485685D01*
X107469900Y-84485685D01*
X107469900Y-81509891D01*
X115652519Y-81509891D01*
X115749843Y-81784252D01*
X115898822Y-82034355D01*
X116093731Y-82250588D01*
X116327080Y-82424641D01*
X116589901Y-82549825D01*
X116737110Y-82594476D01*
X116967000Y-82473155D01*
X116967000Y-81280000D01*
X115773186Y-81280000D01*
X115652519Y-81509891D01*
X107469900Y-81509891D01*
X107469900Y-80137000D01*
X116020189Y-80137000D01*
X115898822Y-80271645D01*
G36*
X149225401Y-84080651D02*
G01*
X144780644Y-84058127D01*
X144755855Y-84060441D01*
X144731994Y-84067548D01*
X144709979Y-84079172D01*
X144690654Y-84094869D01*
X144674762Y-84114033D01*
X144662915Y-84135930D01*
X144655567Y-84159718D01*
X144653000Y-84185125D01*
X144653000Y-89071204D01*
X144494757Y-89102680D01*
X144316790Y-89176396D01*
X144156625Y-89283415D01*
X144020415Y-89419625D01*
X144007991Y-89438218D01*
X143137855Y-89436492D01*
X143126585Y-89419625D01*
X142990375Y-89283415D01*
X142830210Y-89176396D01*
X142652243Y-89102680D01*
X142463315Y-89065100D01*
X142270685Y-89065100D01*
X142081757Y-89102680D01*
X141903790Y-89176396D01*
X141743625Y-89283415D01*
X141607415Y-89419625D01*
X141598186Y-89433437D01*
X141225427Y-89432697D01*
X141275320Y-89312243D01*
X141312900Y-89123315D01*
X141312900Y-88930685D01*
X141275320Y-88741757D01*
X141201604Y-88563790D01*
X141094585Y-88403625D01*
X140958375Y-88267415D01*
X140798210Y-88160396D01*
X140620243Y-88086680D01*
X140431315Y-88049100D01*
X140238685Y-88049100D01*
X140049757Y-88086680D01*
X139871790Y-88160396D01*
X139711625Y-88267415D01*
X139575415Y-88403625D01*
X139468396Y-88563790D01*
X139394680Y-88741757D01*
X139357100Y-88930685D01*
X139357100Y-89123315D01*
X139394680Y-89312243D01*
X139443109Y-89429161D01*
X138941304Y-89428165D01*
X138989320Y-89312243D01*
X139026900Y-89123315D01*
X139026900Y-88930685D01*
X138989320Y-88741757D01*
X138915604Y-88563790D01*
X138808585Y-88403625D01*
X138672375Y-88267415D01*
X138512210Y-88160396D01*
X138334243Y-88086680D01*
X138145315Y-88049100D01*
X137952685Y-88049100D01*
X137763757Y-88086680D01*
X137585790Y-88160396D01*
X137425625Y-88267415D01*
X137289415Y-88403625D01*
X137182396Y-88563790D01*
X137108680Y-88741757D01*
X137071100Y-88930685D01*
X137071100Y-89123315D01*
X137108680Y-89312243D01*
X137155228Y-89424621D01*
X135690806Y-89421715D01*
X135724900Y-89250315D01*
X135724900Y-89057685D01*
X135687320Y-88868757D01*
X135613604Y-88690790D01*
X135506585Y-88530625D01*
X135370375Y-88394415D01*
X135210210Y-88287396D01*
X135032243Y-88213680D01*
X134843315Y-88176100D01*
X134650685Y-88176100D01*
X134461757Y-88213680D01*
X134283790Y-88287396D01*
X134123625Y-88394415D01*
X133987415Y-88530625D01*
X133880396Y-88690790D01*
X133806680Y-88868757D01*
X133769100Y-89057685D01*
X133769100Y-89250315D01*
X133802448Y-89417968D01*
X132649116Y-89415680D01*
X132667204Y-89388610D01*
X132740920Y-89210643D01*
X132778500Y-89021715D01*
X132778500Y-88829085D01*
X132740920Y-88640157D01*
X132667204Y-88462190D01*
X132560185Y-88302025D01*
X132423975Y-88165815D01*
X132263810Y-88058796D01*
X132085843Y-87985080D01*
X131896915Y-87947500D01*
X131704285Y-87947500D01*
X131515357Y-87985080D01*
X131337390Y-88058796D01*
X131177225Y-88165815D01*
X131041015Y-88302025D01*
X130933996Y-88462190D01*
X130860280Y-88640157D01*
X130822700Y-88829085D01*
X130822700Y-89021715D01*
X130860280Y-89210643D01*
X130933996Y-89388610D01*
X130949831Y-89412308D01*
X128905000Y-89408251D01*
X128905000Y-86829900D01*
X129001315Y-86829900D01*
X129190243Y-86792320D01*
X129368210Y-86718604D01*
X129528375Y-86611585D01*
X129664585Y-86475375D01*
X129771604Y-86315210D01*
X129845320Y-86137243D01*
X129882900Y-85948315D01*
X129882900Y-85755685D01*
X129845320Y-85566757D01*
X129771604Y-85388790D01*
X129664585Y-85228625D01*
X129528375Y-85092415D01*
X129368210Y-84985396D01*
X129190243Y-84911680D01*
X129001315Y-84874100D01*
X128905000Y-84874100D01*
X128905000Y-82344477D01*
X128964986Y-82393706D01*
X129222966Y-82531599D01*
X129502889Y-82616513D01*
X129721050Y-82638000D01*
X129866950Y-82638000D01*
X130085111Y-82616513D01*
X130365034Y-82531599D01*
X130623014Y-82393706D01*
X130849134Y-82208134D01*
X131034706Y-81982014D01*
X131064000Y-81927209D01*
X131093294Y-81982014D01*
X131278866Y-82208134D01*
X131504986Y-82393706D01*
X131762966Y-82531599D01*
X132042889Y-82616513D01*
X132261050Y-82638000D01*
X132406950Y-82638000D01*
X132625111Y-82616513D01*
X132905034Y-82531599D01*
X133163014Y-82393706D01*
X133389134Y-82208134D01*
X133574706Y-81982014D01*
X133604000Y-81927209D01*
X133633294Y-81982014D01*
X133818866Y-82208134D01*
X134044986Y-82393706D01*
X134302966Y-82531599D01*
X134582889Y-82616513D01*
X134801050Y-82638000D01*
X134946950Y-82638000D01*
X135165111Y-82616513D01*
X135445034Y-82531599D01*
X135703014Y-82393706D01*
X135929134Y-82208134D01*
X136114706Y-81982014D01*
X136144000Y-81927209D01*
X136173294Y-81982014D01*
X136358866Y-82208134D01*
X136584986Y-82393706D01*
X136842966Y-82531599D01*
X137122889Y-82616513D01*
X137341050Y-82638000D01*
X137486950Y-82638000D01*
X137705111Y-82616513D01*
X137985034Y-82531599D01*
X138243014Y-82393706D01*
X138469134Y-82208134D01*
X138654706Y-81982014D01*
X138684000Y-81927209D01*
X138713294Y-81982014D01*
X138898866Y-82208134D01*
X139124986Y-82393706D01*
X139382966Y-82531599D01*
X139662889Y-82616513D01*
X139881050Y-82638000D01*
X140026950Y-82638000D01*
X140245111Y-82616513D01*
X140525034Y-82531599D01*
X140783014Y-82393706D01*
X141009134Y-82208134D01*
X141194706Y-81982014D01*
X141224000Y-81927209D01*
X141253294Y-81982014D01*
X141438866Y-82208134D01*
X141664986Y-82393706D01*
X141922966Y-82531599D01*
X142202889Y-82616513D01*
X142421050Y-82638000D01*
X142566950Y-82638000D01*
X142785111Y-82616513D01*
X143065034Y-82531599D01*
X143323014Y-82393706D01*
X143549134Y-82208134D01*
X143734706Y-81982014D01*
X143764000Y-81927209D01*
X143793294Y-81982014D01*
X143978866Y-82208134D01*
X144204986Y-82393706D01*
X144462966Y-82531599D01*
X144742889Y-82616513D01*
X144961050Y-82638000D01*
X145106950Y-82638000D01*
X145325111Y-82616513D01*
X145605034Y-82531599D01*
X145863014Y-82393706D01*
X146089134Y-82208134D01*
X146113607Y-82178313D01*
X146134498Y-82247180D01*
X146193463Y-82357494D01*
X146272815Y-82454185D01*
X146369506Y-82533537D01*
X146479820Y-82592502D01*
X146599518Y-82628812D01*
X146724000Y-82641072D01*
X147288250Y-82638000D01*
X147447000Y-82479250D01*
X147447000Y-81280000D01*
X147701000Y-81280000D01*
X147701000Y-82479250D01*
X147859750Y-82638000D01*
X148424000Y-82641072D01*
X148548482Y-82628812D01*
X148668180Y-82592502D01*
X148778494Y-82533537D01*
X148875185Y-82454185D01*
X148954537Y-82357494D01*
X149013502Y-82247180D01*
X149049812Y-82127482D01*
X149062072Y-82003000D01*
X149059000Y-81438750D01*
X148900250Y-81280000D01*
X147701000Y-81280000D01*
X147447000Y-81280000D01*
X147427000Y-81280000D01*
X147427000Y-81026000D01*
X147447000Y-81026000D01*
X147447000Y-81006000D01*
X147701000Y-81006000D01*
X147701000Y-81026000D01*
X148900250Y-81026000D01*
X149059000Y-80867250D01*
X149062072Y-80303000D01*
X149049812Y-80178518D01*
X149034862Y-80129234D01*
X149225401Y-80129161D01*
X149225401Y-84080651D01*
X149225401Y-84080651D01*
G37*
X149225401Y-84080651D02*
X144780644Y-84058127D01*
X144755855Y-84060441D01*
X144731994Y-84067548D01*
X144709979Y-84079172D01*
X144690654Y-84094869D01*
X144674762Y-84114033D01*
X144662915Y-84135930D01*
X144655567Y-84159718D01*
X144653000Y-84185125D01*
X144653000Y-89071204D01*
X144494757Y-89102680D01*
X144316790Y-89176396D01*
X144156625Y-89283415D01*
X144020415Y-89419625D01*
X144007991Y-89438218D01*
X143137855Y-89436492D01*
X143126585Y-89419625D01*
X142990375Y-89283415D01*
X142830210Y-89176396D01*
X142652243Y-89102680D01*
X142463315Y-89065100D01*
X142270685Y-89065100D01*
X142081757Y-89102680D01*
X141903790Y-89176396D01*
X141743625Y-89283415D01*
X141607415Y-89419625D01*
X141598186Y-89433437D01*
X141225427Y-89432697D01*
X141275320Y-89312243D01*
X141312900Y-89123315D01*
X141312900Y-88930685D01*
X141275320Y-88741757D01*
X141201604Y-88563790D01*
X141094585Y-88403625D01*
X140958375Y-88267415D01*
X140798210Y-88160396D01*
X140620243Y-88086680D01*
X140431315Y-88049100D01*
X140238685Y-88049100D01*
X140049757Y-88086680D01*
X139871790Y-88160396D01*
X139711625Y-88267415D01*
X139575415Y-88403625D01*
X139468396Y-88563790D01*
X139394680Y-88741757D01*
X139357100Y-88930685D01*
X139357100Y-89123315D01*
X139394680Y-89312243D01*
X139443109Y-89429161D01*
X138941304Y-89428165D01*
X138989320Y-89312243D01*
X139026900Y-89123315D01*
X139026900Y-88930685D01*
X138989320Y-88741757D01*
X138915604Y-88563790D01*
X138808585Y-88403625D01*
X138672375Y-88267415D01*
X138512210Y-88160396D01*
X138334243Y-88086680D01*
X138145315Y-88049100D01*
X137952685Y-88049100D01*
X137763757Y-88086680D01*
X137585790Y-88160396D01*
X137425625Y-88267415D01*
X137289415Y-88403625D01*
X137182396Y-88563790D01*
X137108680Y-88741757D01*
X137071100Y-88930685D01*
X137071100Y-89123315D01*
X137108680Y-89312243D01*
X137155228Y-89424621D01*
X135690806Y-89421715D01*
X135724900Y-89250315D01*
X135724900Y-89057685D01*
X135687320Y-88868757D01*
X135613604Y-88690790D01*
X135506585Y-88530625D01*
X135370375Y-88394415D01*
X135210210Y-88287396D01*
X135032243Y-88213680D01*
X134843315Y-88176100D01*
X134650685Y-88176100D01*
X134461757Y-88213680D01*
X134283790Y-88287396D01*
X134123625Y-88394415D01*
X133987415Y-88530625D01*
X133880396Y-88690790D01*
X133806680Y-88868757D01*
X133769100Y-89057685D01*
X133769100Y-89250315D01*
X133802448Y-89417968D01*
X132649116Y-89415680D01*
X132667204Y-89388610D01*
X132740920Y-89210643D01*
X132778500Y-89021715D01*
X132778500Y-88829085D01*
X132740920Y-88640157D01*
X132667204Y-88462190D01*
X132560185Y-88302025D01*
X132423975Y-88165815D01*
X132263810Y-88058796D01*
X132085843Y-87985080D01*
X131896915Y-87947500D01*
X131704285Y-87947500D01*
X131515357Y-87985080D01*
X131337390Y-88058796D01*
X131177225Y-88165815D01*
X131041015Y-88302025D01*
X130933996Y-88462190D01*
X130860280Y-88640157D01*
X130822700Y-88829085D01*
X130822700Y-89021715D01*
X130860280Y-89210643D01*
X130933996Y-89388610D01*
X130949831Y-89412308D01*
X128905000Y-89408251D01*
X128905000Y-86829900D01*
X129001315Y-86829900D01*
X129190243Y-86792320D01*
X129368210Y-86718604D01*
X129528375Y-86611585D01*
X129664585Y-86475375D01*
X129771604Y-86315210D01*
X129845320Y-86137243D01*
X129882900Y-85948315D01*
X129882900Y-85755685D01*
X129845320Y-85566757D01*
X129771604Y-85388790D01*
X129664585Y-85228625D01*
X129528375Y-85092415D01*
X129368210Y-84985396D01*
X129190243Y-84911680D01*
X129001315Y-84874100D01*
X128905000Y-84874100D01*
X128905000Y-82344477D01*
X128964986Y-82393706D01*
X129222966Y-82531599D01*
X129502889Y-82616513D01*
X129721050Y-82638000D01*
X129866950Y-82638000D01*
X130085111Y-82616513D01*
X130365034Y-82531599D01*
X130623014Y-82393706D01*
X130849134Y-82208134D01*
X131034706Y-81982014D01*
X131064000Y-81927209D01*
X131093294Y-81982014D01*
X131278866Y-82208134D01*
X131504986Y-82393706D01*
X131762966Y-82531599D01*
X132042889Y-82616513D01*
X132261050Y-82638000D01*
X132406950Y-82638000D01*
X132625111Y-82616513D01*
X132905034Y-82531599D01*
X133163014Y-82393706D01*
X133389134Y-82208134D01*
X133574706Y-81982014D01*
X133604000Y-81927209D01*
X133633294Y-81982014D01*
X133818866Y-82208134D01*
X134044986Y-82393706D01*
X134302966Y-82531599D01*
X134582889Y-82616513D01*
X134801050Y-82638000D01*
X134946950Y-82638000D01*
X135165111Y-82616513D01*
X135445034Y-82531599D01*
X135703014Y-82393706D01*
X135929134Y-82208134D01*
X136114706Y-81982014D01*
X136144000Y-81927209D01*
X136173294Y-81982014D01*
X136358866Y-82208134D01*
X136584986Y-82393706D01*
X136842966Y-82531599D01*
X137122889Y-82616513D01*
X137341050Y-82638000D01*
X137486950Y-82638000D01*
X137705111Y-82616513D01*
X137985034Y-82531599D01*
X138243014Y-82393706D01*
X138469134Y-82208134D01*
X138654706Y-81982014D01*
X138684000Y-81927209D01*
X138713294Y-81982014D01*
X138898866Y-82208134D01*
X139124986Y-82393706D01*
X139382966Y-82531599D01*
X139662889Y-82616513D01*
X139881050Y-82638000D01*
X140026950Y-82638000D01*
X140245111Y-82616513D01*
X140525034Y-82531599D01*
X140783014Y-82393706D01*
X141009134Y-82208134D01*
X141194706Y-81982014D01*
X141224000Y-81927209D01*
X141253294Y-81982014D01*
X141438866Y-82208134D01*
X141664986Y-82393706D01*
X141922966Y-82531599D01*
X142202889Y-82616513D01*
X142421050Y-82638000D01*
X142566950Y-82638000D01*
X142785111Y-82616513D01*
X143065034Y-82531599D01*
X143323014Y-82393706D01*
X143549134Y-82208134D01*
X143734706Y-81982014D01*
X143764000Y-81927209D01*
X143793294Y-81982014D01*
X143978866Y-82208134D01*
X144204986Y-82393706D01*
X144462966Y-82531599D01*
X144742889Y-82616513D01*
X144961050Y-82638000D01*
X145106950Y-82638000D01*
X145325111Y-82616513D01*
X145605034Y-82531599D01*
X145863014Y-82393706D01*
X146089134Y-82208134D01*
X146113607Y-82178313D01*
X146134498Y-82247180D01*
X146193463Y-82357494D01*
X146272815Y-82454185D01*
X146369506Y-82533537D01*
X146479820Y-82592502D01*
X146599518Y-82628812D01*
X146724000Y-82641072D01*
X147288250Y-82638000D01*
X147447000Y-82479250D01*
X147447000Y-81280000D01*
X147701000Y-81280000D01*
X147701000Y-82479250D01*
X147859750Y-82638000D01*
X148424000Y-82641072D01*
X148548482Y-82628812D01*
X148668180Y-82592502D01*
X148778494Y-82533537D01*
X148875185Y-82454185D01*
X148954537Y-82357494D01*
X149013502Y-82247180D01*
X149049812Y-82127482D01*
X149062072Y-82003000D01*
X149059000Y-81438750D01*
X148900250Y-81280000D01*
X147701000Y-81280000D01*
X147447000Y-81280000D01*
X147427000Y-81280000D01*
X147427000Y-81026000D01*
X147447000Y-81026000D01*
X147447000Y-81006000D01*
X147701000Y-81006000D01*
X147701000Y-81026000D01*
X148900250Y-81026000D01*
X149059000Y-80867250D01*
X149062072Y-80303000D01*
X149049812Y-80178518D01*
X149034862Y-80129234D01*
X149225401Y-80129161D01*
X149225401Y-84080651D01*
M02*
