G04 #@! TF.GenerationSoftware,KiCad,Pcbnew,(5.1.4)-1*
G04 #@! TF.CreationDate,2019-12-06T22:53:01-05:00*
G04 #@! TF.ProjectId,STM32G4DevBoard,53544d33-3247-4344-9465-76426f617264,rev?*
G04 #@! TF.SameCoordinates,Original*
G04 #@! TF.FileFunction,Legend,Bot*
G04 #@! TF.FilePolarity,Positive*
%FSLAX46Y46*%
G04 Gerber Fmt 4.6, Leading zero omitted, Abs format (unit mm)*
G04 Created by KiCad (PCBNEW (5.1.4)-1) date 2019-12-06 22:53:01*
%MOMM*%
%LPD*%
G04 APERTURE LIST*
%ADD10C,0.100000*%
%ADD11C,0.120000*%
G04 APERTURE END LIST*
D10*
X114962309Y-80228285D02*
X114890880Y-80252095D01*
X114867071Y-80275904D01*
X114843261Y-80323523D01*
X114843261Y-80394952D01*
X114867071Y-80442571D01*
X114890880Y-80466380D01*
X114938500Y-80490190D01*
X115128976Y-80490190D01*
X115128976Y-79990190D01*
X114962309Y-79990190D01*
X114914690Y-80014000D01*
X114890880Y-80037809D01*
X114867071Y-80085428D01*
X114867071Y-80133047D01*
X114890880Y-80180666D01*
X114914690Y-80204476D01*
X114962309Y-80228285D01*
X115128976Y-80228285D01*
X114367071Y-80014000D02*
X114414690Y-79990190D01*
X114486119Y-79990190D01*
X114557547Y-80014000D01*
X114605166Y-80061619D01*
X114628976Y-80109238D01*
X114652785Y-80204476D01*
X114652785Y-80275904D01*
X114628976Y-80371142D01*
X114605166Y-80418761D01*
X114557547Y-80466380D01*
X114486119Y-80490190D01*
X114438500Y-80490190D01*
X114367071Y-80466380D01*
X114343261Y-80442571D01*
X114343261Y-80275904D01*
X114438500Y-80275904D01*
X113771833Y-80466380D02*
X113700404Y-80490190D01*
X113581357Y-80490190D01*
X113533738Y-80466380D01*
X113509928Y-80442571D01*
X113486119Y-80394952D01*
X113486119Y-80347333D01*
X113509928Y-80299714D01*
X113533738Y-80275904D01*
X113581357Y-80252095D01*
X113676595Y-80228285D01*
X113724214Y-80204476D01*
X113748023Y-80180666D01*
X113771833Y-80133047D01*
X113771833Y-80085428D01*
X113748023Y-80037809D01*
X113724214Y-80014000D01*
X113676595Y-79990190D01*
X113557547Y-79990190D01*
X113486119Y-80014000D01*
X113343261Y-79990190D02*
X113057547Y-79990190D01*
X113200404Y-80490190D02*
X113200404Y-79990190D01*
X112890880Y-80490190D02*
X112890880Y-79990190D01*
X112724214Y-80347333D01*
X112557547Y-79990190D01*
X112557547Y-80490190D01*
X112367071Y-79990190D02*
X112057547Y-79990190D01*
X112224214Y-80180666D01*
X112152785Y-80180666D01*
X112105166Y-80204476D01*
X112081357Y-80228285D01*
X112057547Y-80275904D01*
X112057547Y-80394952D01*
X112081357Y-80442571D01*
X112105166Y-80466380D01*
X112152785Y-80490190D01*
X112295642Y-80490190D01*
X112343261Y-80466380D01*
X112367071Y-80442571D01*
X111867071Y-80037809D02*
X111843261Y-80014000D01*
X111795642Y-79990190D01*
X111676595Y-79990190D01*
X111628976Y-80014000D01*
X111605166Y-80037809D01*
X111581357Y-80085428D01*
X111581357Y-80133047D01*
X111605166Y-80204476D01*
X111890880Y-80490190D01*
X111581357Y-80490190D01*
X110819452Y-80228285D02*
X110748023Y-80252095D01*
X110724214Y-80275904D01*
X110700404Y-80323523D01*
X110700404Y-80394952D01*
X110724214Y-80442571D01*
X110748023Y-80466380D01*
X110795642Y-80490190D01*
X110986119Y-80490190D01*
X110986119Y-79990190D01*
X110819452Y-79990190D01*
X110771833Y-80014000D01*
X110748023Y-80037809D01*
X110724214Y-80085428D01*
X110724214Y-80133047D01*
X110748023Y-80180666D01*
X110771833Y-80204476D01*
X110819452Y-80228285D01*
X110986119Y-80228285D01*
X110200404Y-80490190D02*
X110367071Y-80252095D01*
X110486119Y-80490190D02*
X110486119Y-79990190D01*
X110295642Y-79990190D01*
X110248023Y-80014000D01*
X110224214Y-80037809D01*
X110200404Y-80085428D01*
X110200404Y-80156857D01*
X110224214Y-80204476D01*
X110248023Y-80228285D01*
X110295642Y-80252095D01*
X110486119Y-80252095D01*
X109986119Y-80490190D02*
X109986119Y-79990190D01*
X109700404Y-80490190D02*
X109914690Y-80204476D01*
X109700404Y-79990190D02*
X109986119Y-80275904D01*
X109176595Y-79990190D02*
X109009928Y-80490190D01*
X108843261Y-79990190D01*
X108414690Y-80490190D02*
X108700404Y-80490190D01*
X108557547Y-80490190D02*
X108557547Y-79990190D01*
X108605166Y-80061619D01*
X108652785Y-80109238D01*
X108700404Y-80133047D01*
X108200404Y-80442571D02*
X108176595Y-80466380D01*
X108200404Y-80490190D01*
X108224214Y-80466380D01*
X108200404Y-80442571D01*
X108200404Y-80490190D01*
X107867071Y-79990190D02*
X107819452Y-79990190D01*
X107771833Y-80014000D01*
X107748023Y-80037809D01*
X107724214Y-80085428D01*
X107700404Y-80180666D01*
X107700404Y-80299714D01*
X107724214Y-80394952D01*
X107748023Y-80442571D01*
X107771833Y-80466380D01*
X107819452Y-80490190D01*
X107867071Y-80490190D01*
X107914690Y-80466380D01*
X107938500Y-80442571D01*
X107962309Y-80394952D01*
X107986119Y-80299714D01*
X107986119Y-80180666D01*
X107962309Y-80085428D01*
X107938500Y-80037809D01*
X107914690Y-80014000D01*
X107867071Y-79990190D01*
X107390880Y-79990190D02*
X107343261Y-79990190D01*
X107295642Y-80014000D01*
X107271833Y-80037809D01*
X107248023Y-80085428D01*
X107224214Y-80180666D01*
X107224214Y-80299714D01*
X107248023Y-80394952D01*
X107271833Y-80442571D01*
X107295642Y-80466380D01*
X107343261Y-80490190D01*
X107390880Y-80490190D01*
X107438500Y-80466380D01*
X107462309Y-80442571D01*
X107486119Y-80394952D01*
X107509928Y-80299714D01*
X107509928Y-80180666D01*
X107486119Y-80085428D01*
X107462309Y-80037809D01*
X107438500Y-80014000D01*
X107390880Y-79990190D01*
D11*
X115922333Y-85418200D02*
X116264867Y-85418200D01*
X115922333Y-86438200D02*
X116264867Y-86438200D01*
X132310600Y-90963933D02*
X132310600Y-91306467D01*
X131290600Y-90963933D02*
X131290600Y-91306467D01*
X115191000Y-91744667D02*
X115191000Y-91402133D01*
X114171000Y-91744667D02*
X114171000Y-91402133D01*
X131527733Y-85342000D02*
X131870267Y-85342000D01*
X131527733Y-86362000D02*
X131870267Y-86362000D01*
X118039880Y-92703400D02*
X118039880Y-90253400D01*
X121259880Y-90903400D02*
X121259880Y-92703400D01*
X112552267Y-97534000D02*
X112209733Y-97534000D01*
X112552267Y-98554000D02*
X112209733Y-98554000D01*
X131527733Y-88013000D02*
X131870267Y-88013000D01*
X131527733Y-86993000D02*
X131870267Y-86993000D01*
X126968067Y-86362000D02*
X126625533Y-86362000D01*
X126968067Y-85342000D02*
X126625533Y-85342000D01*
X136142000Y-94965733D02*
X136142000Y-95308267D01*
X137162000Y-94965733D02*
X137162000Y-95308267D01*
X126968067Y-88013000D02*
X126625533Y-88013000D01*
X126968067Y-86993000D02*
X126625533Y-86993000D01*
X117140440Y-91402133D02*
X117140440Y-91744667D01*
X116120440Y-91402133D02*
X116120440Y-91744667D01*
X122925320Y-91632133D02*
X122925320Y-91974667D01*
X121905320Y-91632133D02*
X121905320Y-91974667D01*
X118189880Y-96056267D02*
X118189880Y-95713733D01*
X119209880Y-96056267D02*
X119209880Y-95713733D01*
X117096000Y-96056267D02*
X117096000Y-95713733D01*
X116076000Y-96056267D02*
X116076000Y-95713733D01*
X129777733Y-84838000D02*
X130120267Y-84838000D01*
X129777733Y-83818000D02*
X130120267Y-83818000D01*
X111134867Y-85418200D02*
X110792333Y-85418200D01*
X111134867Y-86438200D02*
X110792333Y-86438200D01*
D10*
X116218600Y-84837485D02*
X116468600Y-84480342D01*
X116647171Y-84837485D02*
X116647171Y-84087485D01*
X116361457Y-84087485D01*
X116290028Y-84123200D01*
X116254314Y-84158914D01*
X116218600Y-84230342D01*
X116218600Y-84337485D01*
X116254314Y-84408914D01*
X116290028Y-84444628D01*
X116361457Y-84480342D01*
X116647171Y-84480342D01*
X115968600Y-84087485D02*
X115504314Y-84087485D01*
X115754314Y-84373200D01*
X115647171Y-84373200D01*
X115575742Y-84408914D01*
X115540028Y-84444628D01*
X115504314Y-84516057D01*
X115504314Y-84694628D01*
X115540028Y-84766057D01*
X115575742Y-84801771D01*
X115647171Y-84837485D01*
X115861457Y-84837485D01*
X115932885Y-84801771D01*
X115968600Y-84766057D01*
X130546000Y-91095628D02*
X130796000Y-91095628D01*
X130796000Y-91488485D02*
X130796000Y-90738485D01*
X130438857Y-90738485D01*
X129903142Y-91095628D02*
X129796000Y-91131342D01*
X129760285Y-91167057D01*
X129724571Y-91238485D01*
X129724571Y-91345628D01*
X129760285Y-91417057D01*
X129796000Y-91452771D01*
X129867428Y-91488485D01*
X130153142Y-91488485D01*
X130153142Y-90738485D01*
X129903142Y-90738485D01*
X129831714Y-90774200D01*
X129796000Y-90809914D01*
X129760285Y-90881342D01*
X129760285Y-90952771D01*
X129796000Y-91024200D01*
X129831714Y-91059914D01*
X129903142Y-91095628D01*
X130153142Y-91095628D01*
X129438857Y-90809914D02*
X129403142Y-90774200D01*
X129331714Y-90738485D01*
X129153142Y-90738485D01*
X129081714Y-90774200D01*
X129046000Y-90809914D01*
X129010285Y-90881342D01*
X129010285Y-90952771D01*
X129046000Y-91059914D01*
X129474571Y-91488485D01*
X129010285Y-91488485D01*
X114806000Y-89612357D02*
X114841714Y-89648071D01*
X114948857Y-89683785D01*
X115020285Y-89683785D01*
X115127428Y-89648071D01*
X115198857Y-89576642D01*
X115234571Y-89505214D01*
X115270285Y-89362357D01*
X115270285Y-89255214D01*
X115234571Y-89112357D01*
X115198857Y-89040928D01*
X115127428Y-88969500D01*
X115020285Y-88933785D01*
X114948857Y-88933785D01*
X114841714Y-88969500D01*
X114806000Y-89005214D01*
X114448857Y-89683785D02*
X114306000Y-89683785D01*
X114234571Y-89648071D01*
X114198857Y-89612357D01*
X114127428Y-89505214D01*
X114091714Y-89362357D01*
X114091714Y-89076642D01*
X114127428Y-89005214D01*
X114163142Y-88969500D01*
X114234571Y-88933785D01*
X114377428Y-88933785D01*
X114448857Y-88969500D01*
X114484571Y-89005214D01*
X114520285Y-89076642D01*
X114520285Y-89255214D01*
X114484571Y-89326642D01*
X114448857Y-89362357D01*
X114377428Y-89398071D01*
X114234571Y-89398071D01*
X114163142Y-89362357D01*
X114127428Y-89326642D01*
X114091714Y-89255214D01*
X134173500Y-86119857D02*
X134209214Y-86155571D01*
X134316357Y-86191285D01*
X134387785Y-86191285D01*
X134494928Y-86155571D01*
X134566357Y-86084142D01*
X134602071Y-86012714D01*
X134637785Y-85869857D01*
X134637785Y-85762714D01*
X134602071Y-85619857D01*
X134566357Y-85548428D01*
X134494928Y-85477000D01*
X134387785Y-85441285D01*
X134316357Y-85441285D01*
X134209214Y-85477000D01*
X134173500Y-85512714D01*
X133494928Y-85441285D02*
X133852071Y-85441285D01*
X133887785Y-85798428D01*
X133852071Y-85762714D01*
X133780642Y-85727000D01*
X133602071Y-85727000D01*
X133530642Y-85762714D01*
X133494928Y-85798428D01*
X133459214Y-85869857D01*
X133459214Y-86048428D01*
X133494928Y-86119857D01*
X133530642Y-86155571D01*
X133602071Y-86191285D01*
X133780642Y-86191285D01*
X133852071Y-86155571D01*
X133887785Y-86119857D01*
X120205428Y-88933785D02*
X120205428Y-89540928D01*
X120169714Y-89612357D01*
X120134000Y-89648071D01*
X120062571Y-89683785D01*
X119919714Y-89683785D01*
X119848285Y-89648071D01*
X119812571Y-89612357D01*
X119776857Y-89540928D01*
X119776857Y-88933785D01*
X119455428Y-89005214D02*
X119419714Y-88969500D01*
X119348285Y-88933785D01*
X119169714Y-88933785D01*
X119098285Y-88969500D01*
X119062571Y-89005214D01*
X119026857Y-89076642D01*
X119026857Y-89148071D01*
X119062571Y-89255214D01*
X119491142Y-89683785D01*
X119026857Y-89683785D01*
X110107000Y-98311857D02*
X110142714Y-98347571D01*
X110249857Y-98383285D01*
X110321285Y-98383285D01*
X110428428Y-98347571D01*
X110499857Y-98276142D01*
X110535571Y-98204714D01*
X110571285Y-98061857D01*
X110571285Y-97954714D01*
X110535571Y-97811857D01*
X110499857Y-97740428D01*
X110428428Y-97669000D01*
X110321285Y-97633285D01*
X110249857Y-97633285D01*
X110142714Y-97669000D01*
X110107000Y-97704714D01*
X109392714Y-98383285D02*
X109821285Y-98383285D01*
X109607000Y-98383285D02*
X109607000Y-97633285D01*
X109678428Y-97740428D01*
X109749857Y-97811857D01*
X109821285Y-97847571D01*
X134173500Y-87770857D02*
X134209214Y-87806571D01*
X134316357Y-87842285D01*
X134387785Y-87842285D01*
X134494928Y-87806571D01*
X134566357Y-87735142D01*
X134602071Y-87663714D01*
X134637785Y-87520857D01*
X134637785Y-87413714D01*
X134602071Y-87270857D01*
X134566357Y-87199428D01*
X134494928Y-87128000D01*
X134387785Y-87092285D01*
X134316357Y-87092285D01*
X134209214Y-87128000D01*
X134173500Y-87163714D01*
X133530642Y-87342285D02*
X133530642Y-87842285D01*
X133709214Y-87056571D02*
X133887785Y-87592285D01*
X133423500Y-87592285D01*
X124648500Y-86119857D02*
X124684214Y-86155571D01*
X124791357Y-86191285D01*
X124862785Y-86191285D01*
X124969928Y-86155571D01*
X125041357Y-86084142D01*
X125077071Y-86012714D01*
X125112785Y-85869857D01*
X125112785Y-85762714D01*
X125077071Y-85619857D01*
X125041357Y-85548428D01*
X124969928Y-85477000D01*
X124862785Y-85441285D01*
X124791357Y-85441285D01*
X124684214Y-85477000D01*
X124648500Y-85512714D01*
X124005642Y-85441285D02*
X124148500Y-85441285D01*
X124219928Y-85477000D01*
X124255642Y-85512714D01*
X124327071Y-85619857D01*
X124362785Y-85762714D01*
X124362785Y-86048428D01*
X124327071Y-86119857D01*
X124291357Y-86155571D01*
X124219928Y-86191285D01*
X124077071Y-86191285D01*
X124005642Y-86155571D01*
X123969928Y-86119857D01*
X123934214Y-86048428D01*
X123934214Y-85869857D01*
X123969928Y-85798428D01*
X124005642Y-85762714D01*
X124077071Y-85727000D01*
X124219928Y-85727000D01*
X124291357Y-85762714D01*
X124327071Y-85798428D01*
X124362785Y-85869857D01*
X136777000Y-93104857D02*
X136812714Y-93140571D01*
X136919857Y-93176285D01*
X136991285Y-93176285D01*
X137098428Y-93140571D01*
X137169857Y-93069142D01*
X137205571Y-92997714D01*
X137241285Y-92854857D01*
X137241285Y-92747714D01*
X137205571Y-92604857D01*
X137169857Y-92533428D01*
X137098428Y-92462000D01*
X136991285Y-92426285D01*
X136919857Y-92426285D01*
X136812714Y-92462000D01*
X136777000Y-92497714D01*
X136527000Y-92426285D02*
X136027000Y-92426285D01*
X136348428Y-93176285D01*
X124648500Y-87770857D02*
X124684214Y-87806571D01*
X124791357Y-87842285D01*
X124862785Y-87842285D01*
X124969928Y-87806571D01*
X125041357Y-87735142D01*
X125077071Y-87663714D01*
X125112785Y-87520857D01*
X125112785Y-87413714D01*
X125077071Y-87270857D01*
X125041357Y-87199428D01*
X124969928Y-87128000D01*
X124862785Y-87092285D01*
X124791357Y-87092285D01*
X124684214Y-87128000D01*
X124648500Y-87163714D01*
X124219928Y-87413714D02*
X124291357Y-87378000D01*
X124327071Y-87342285D01*
X124362785Y-87270857D01*
X124362785Y-87235142D01*
X124327071Y-87163714D01*
X124291357Y-87128000D01*
X124219928Y-87092285D01*
X124077071Y-87092285D01*
X124005642Y-87128000D01*
X123969928Y-87163714D01*
X123934214Y-87235142D01*
X123934214Y-87270857D01*
X123969928Y-87342285D01*
X124005642Y-87378000D01*
X124077071Y-87413714D01*
X124219928Y-87413714D01*
X124291357Y-87449428D01*
X124327071Y-87485142D01*
X124362785Y-87556571D01*
X124362785Y-87699428D01*
X124327071Y-87770857D01*
X124291357Y-87806571D01*
X124219928Y-87842285D01*
X124077071Y-87842285D01*
X124005642Y-87806571D01*
X123969928Y-87770857D01*
X123934214Y-87699428D01*
X123934214Y-87556571D01*
X123969928Y-87485142D01*
X124005642Y-87449428D01*
X124077071Y-87413714D01*
X117131642Y-89612357D02*
X117167357Y-89648071D01*
X117274500Y-89683785D01*
X117345928Y-89683785D01*
X117453071Y-89648071D01*
X117524500Y-89576642D01*
X117560214Y-89505214D01*
X117595928Y-89362357D01*
X117595928Y-89255214D01*
X117560214Y-89112357D01*
X117524500Y-89040928D01*
X117453071Y-88969500D01*
X117345928Y-88933785D01*
X117274500Y-88933785D01*
X117167357Y-88969500D01*
X117131642Y-89005214D01*
X116417357Y-89683785D02*
X116845928Y-89683785D01*
X116631642Y-89683785D02*
X116631642Y-88933785D01*
X116703071Y-89040928D01*
X116774500Y-89112357D01*
X116845928Y-89148071D01*
X115953071Y-88933785D02*
X115881642Y-88933785D01*
X115810214Y-88969500D01*
X115774500Y-89005214D01*
X115738785Y-89076642D01*
X115703071Y-89219500D01*
X115703071Y-89398071D01*
X115738785Y-89540928D01*
X115774500Y-89612357D01*
X115810214Y-89648071D01*
X115881642Y-89683785D01*
X115953071Y-89683785D01*
X116024500Y-89648071D01*
X116060214Y-89612357D01*
X116095928Y-89540928D01*
X116131642Y-89398071D01*
X116131642Y-89219500D01*
X116095928Y-89076642D01*
X116060214Y-89005214D01*
X116024500Y-88969500D01*
X115953071Y-88933785D01*
X122910142Y-89612357D02*
X122945857Y-89648071D01*
X123053000Y-89683785D01*
X123124428Y-89683785D01*
X123231571Y-89648071D01*
X123303000Y-89576642D01*
X123338714Y-89505214D01*
X123374428Y-89362357D01*
X123374428Y-89255214D01*
X123338714Y-89112357D01*
X123303000Y-89040928D01*
X123231571Y-88969500D01*
X123124428Y-88933785D01*
X123053000Y-88933785D01*
X122945857Y-88969500D01*
X122910142Y-89005214D01*
X122195857Y-89683785D02*
X122624428Y-89683785D01*
X122410142Y-89683785D02*
X122410142Y-88933785D01*
X122481571Y-89040928D01*
X122553000Y-89112357D01*
X122624428Y-89148071D01*
X121481571Y-89683785D02*
X121910142Y-89683785D01*
X121695857Y-89683785D02*
X121695857Y-88933785D01*
X121767285Y-89040928D01*
X121838714Y-89112357D01*
X121910142Y-89148071D01*
X119182022Y-98438857D02*
X119217737Y-98474571D01*
X119324880Y-98510285D01*
X119396308Y-98510285D01*
X119503451Y-98474571D01*
X119574880Y-98403142D01*
X119610594Y-98331714D01*
X119646308Y-98188857D01*
X119646308Y-98081714D01*
X119610594Y-97938857D01*
X119574880Y-97867428D01*
X119503451Y-97796000D01*
X119396308Y-97760285D01*
X119324880Y-97760285D01*
X119217737Y-97796000D01*
X119182022Y-97831714D01*
X118467737Y-98510285D02*
X118896308Y-98510285D01*
X118682022Y-98510285D02*
X118682022Y-97760285D01*
X118753451Y-97867428D01*
X118824880Y-97938857D01*
X118896308Y-97974571D01*
X118182022Y-97831714D02*
X118146308Y-97796000D01*
X118074880Y-97760285D01*
X117896308Y-97760285D01*
X117824880Y-97796000D01*
X117789165Y-97831714D01*
X117753451Y-97903142D01*
X117753451Y-97974571D01*
X117789165Y-98081714D01*
X118217737Y-98510285D01*
X117753451Y-98510285D01*
X117068142Y-98438857D02*
X117103857Y-98474571D01*
X117211000Y-98510285D01*
X117282428Y-98510285D01*
X117389571Y-98474571D01*
X117461000Y-98403142D01*
X117496714Y-98331714D01*
X117532428Y-98188857D01*
X117532428Y-98081714D01*
X117496714Y-97938857D01*
X117461000Y-97867428D01*
X117389571Y-97796000D01*
X117282428Y-97760285D01*
X117211000Y-97760285D01*
X117103857Y-97796000D01*
X117068142Y-97831714D01*
X116353857Y-98510285D02*
X116782428Y-98510285D01*
X116568142Y-98510285D02*
X116568142Y-97760285D01*
X116639571Y-97867428D01*
X116711000Y-97938857D01*
X116782428Y-97974571D01*
X116103857Y-97760285D02*
X115639571Y-97760285D01*
X115889571Y-98046000D01*
X115782428Y-98046000D01*
X115711000Y-98081714D01*
X115675285Y-98117428D01*
X115639571Y-98188857D01*
X115639571Y-98367428D01*
X115675285Y-98438857D01*
X115711000Y-98474571D01*
X115782428Y-98510285D01*
X115996714Y-98510285D01*
X116068142Y-98474571D01*
X116103857Y-98438857D01*
X133276500Y-84274428D02*
X133526500Y-84274428D01*
X133526500Y-84667285D02*
X133526500Y-83917285D01*
X133169357Y-83917285D01*
X132633642Y-84274428D02*
X132526500Y-84310142D01*
X132490785Y-84345857D01*
X132455071Y-84417285D01*
X132455071Y-84524428D01*
X132490785Y-84595857D01*
X132526500Y-84631571D01*
X132597928Y-84667285D01*
X132883642Y-84667285D01*
X132883642Y-83917285D01*
X132633642Y-83917285D01*
X132562214Y-83953000D01*
X132526500Y-83988714D01*
X132490785Y-84060142D01*
X132490785Y-84131571D01*
X132526500Y-84203000D01*
X132562214Y-84238714D01*
X132633642Y-84274428D01*
X132883642Y-84274428D01*
X131740785Y-84667285D02*
X132169357Y-84667285D01*
X131955071Y-84667285D02*
X131955071Y-83917285D01*
X132026500Y-84024428D01*
X132097928Y-84095857D01*
X132169357Y-84131571D01*
X111088600Y-84837485D02*
X111338600Y-84480342D01*
X111517171Y-84837485D02*
X111517171Y-84087485D01*
X111231457Y-84087485D01*
X111160028Y-84123200D01*
X111124314Y-84158914D01*
X111088600Y-84230342D01*
X111088600Y-84337485D01*
X111124314Y-84408914D01*
X111160028Y-84444628D01*
X111231457Y-84480342D01*
X111517171Y-84480342D01*
X110802885Y-84158914D02*
X110767171Y-84123200D01*
X110695742Y-84087485D01*
X110517171Y-84087485D01*
X110445742Y-84123200D01*
X110410028Y-84158914D01*
X110374314Y-84230342D01*
X110374314Y-84301771D01*
X110410028Y-84408914D01*
X110838600Y-84837485D01*
X110374314Y-84837485D01*
M02*
