G04 #@! TF.GenerationSoftware,KiCad,Pcbnew,(5.1.4)-1*
G04 #@! TF.CreationDate,2019-12-06T22:53:01-05:00*
G04 #@! TF.ProjectId,STM32G4DevBoard,53544d33-3247-4344-9465-76426f617264,rev?*
G04 #@! TF.SameCoordinates,Original*
G04 #@! TF.FileFunction,Paste,Bot*
G04 #@! TF.FilePolarity,Positive*
%FSLAX46Y46*%
G04 Gerber Fmt 4.6, Leading zero omitted, Abs format (unit mm)*
G04 Created by KiCad (PCBNEW (5.1.4)-1) date 2019-12-06 22:53:01*
%MOMM*%
%LPD*%
G04 APERTURE LIST*
%ADD10C,0.100000*%
%ADD11C,0.950000*%
%ADD12R,0.650000X1.060000*%
G04 APERTURE END LIST*
D10*
G36*
X117279379Y-85454344D02*
G01*
X117302434Y-85457763D01*
X117325043Y-85463427D01*
X117346987Y-85471279D01*
X117368057Y-85481244D01*
X117388048Y-85493226D01*
X117406768Y-85507110D01*
X117424038Y-85522762D01*
X117439690Y-85540032D01*
X117453574Y-85558752D01*
X117465556Y-85578743D01*
X117475521Y-85599813D01*
X117483373Y-85621757D01*
X117489037Y-85644366D01*
X117492456Y-85667421D01*
X117493600Y-85690700D01*
X117493600Y-86165700D01*
X117492456Y-86188979D01*
X117489037Y-86212034D01*
X117483373Y-86234643D01*
X117475521Y-86256587D01*
X117465556Y-86277657D01*
X117453574Y-86297648D01*
X117439690Y-86316368D01*
X117424038Y-86333638D01*
X117406768Y-86349290D01*
X117388048Y-86363174D01*
X117368057Y-86375156D01*
X117346987Y-86385121D01*
X117325043Y-86392973D01*
X117302434Y-86398637D01*
X117279379Y-86402056D01*
X117256100Y-86403200D01*
X116681100Y-86403200D01*
X116657821Y-86402056D01*
X116634766Y-86398637D01*
X116612157Y-86392973D01*
X116590213Y-86385121D01*
X116569143Y-86375156D01*
X116549152Y-86363174D01*
X116530432Y-86349290D01*
X116513162Y-86333638D01*
X116497510Y-86316368D01*
X116483626Y-86297648D01*
X116471644Y-86277657D01*
X116461679Y-86256587D01*
X116453827Y-86234643D01*
X116448163Y-86212034D01*
X116444744Y-86188979D01*
X116443600Y-86165700D01*
X116443600Y-85690700D01*
X116444744Y-85667421D01*
X116448163Y-85644366D01*
X116453827Y-85621757D01*
X116461679Y-85599813D01*
X116471644Y-85578743D01*
X116483626Y-85558752D01*
X116497510Y-85540032D01*
X116513162Y-85522762D01*
X116530432Y-85507110D01*
X116549152Y-85493226D01*
X116569143Y-85481244D01*
X116590213Y-85471279D01*
X116612157Y-85463427D01*
X116634766Y-85457763D01*
X116657821Y-85454344D01*
X116681100Y-85453200D01*
X117256100Y-85453200D01*
X117279379Y-85454344D01*
X117279379Y-85454344D01*
G37*
D11*
X116968600Y-85928200D03*
D10*
G36*
X115529379Y-85454344D02*
G01*
X115552434Y-85457763D01*
X115575043Y-85463427D01*
X115596987Y-85471279D01*
X115618057Y-85481244D01*
X115638048Y-85493226D01*
X115656768Y-85507110D01*
X115674038Y-85522762D01*
X115689690Y-85540032D01*
X115703574Y-85558752D01*
X115715556Y-85578743D01*
X115725521Y-85599813D01*
X115733373Y-85621757D01*
X115739037Y-85644366D01*
X115742456Y-85667421D01*
X115743600Y-85690700D01*
X115743600Y-86165700D01*
X115742456Y-86188979D01*
X115739037Y-86212034D01*
X115733373Y-86234643D01*
X115725521Y-86256587D01*
X115715556Y-86277657D01*
X115703574Y-86297648D01*
X115689690Y-86316368D01*
X115674038Y-86333638D01*
X115656768Y-86349290D01*
X115638048Y-86363174D01*
X115618057Y-86375156D01*
X115596987Y-86385121D01*
X115575043Y-86392973D01*
X115552434Y-86398637D01*
X115529379Y-86402056D01*
X115506100Y-86403200D01*
X114931100Y-86403200D01*
X114907821Y-86402056D01*
X114884766Y-86398637D01*
X114862157Y-86392973D01*
X114840213Y-86385121D01*
X114819143Y-86375156D01*
X114799152Y-86363174D01*
X114780432Y-86349290D01*
X114763162Y-86333638D01*
X114747510Y-86316368D01*
X114733626Y-86297648D01*
X114721644Y-86277657D01*
X114711679Y-86256587D01*
X114703827Y-86234643D01*
X114698163Y-86212034D01*
X114694744Y-86188979D01*
X114693600Y-86165700D01*
X114693600Y-85690700D01*
X114694744Y-85667421D01*
X114698163Y-85644366D01*
X114703827Y-85621757D01*
X114711679Y-85599813D01*
X114721644Y-85578743D01*
X114733626Y-85558752D01*
X114747510Y-85540032D01*
X114763162Y-85522762D01*
X114780432Y-85507110D01*
X114799152Y-85493226D01*
X114819143Y-85481244D01*
X114840213Y-85471279D01*
X114862157Y-85463427D01*
X114884766Y-85457763D01*
X114907821Y-85454344D01*
X114931100Y-85453200D01*
X115506100Y-85453200D01*
X115529379Y-85454344D01*
X115529379Y-85454344D01*
G37*
D11*
X115218600Y-85928200D03*
D10*
G36*
X132061379Y-91486344D02*
G01*
X132084434Y-91489763D01*
X132107043Y-91495427D01*
X132128987Y-91503279D01*
X132150057Y-91513244D01*
X132170048Y-91525226D01*
X132188768Y-91539110D01*
X132206038Y-91554762D01*
X132221690Y-91572032D01*
X132235574Y-91590752D01*
X132247556Y-91610743D01*
X132257521Y-91631813D01*
X132265373Y-91653757D01*
X132271037Y-91676366D01*
X132274456Y-91699421D01*
X132275600Y-91722700D01*
X132275600Y-92297700D01*
X132274456Y-92320979D01*
X132271037Y-92344034D01*
X132265373Y-92366643D01*
X132257521Y-92388587D01*
X132247556Y-92409657D01*
X132235574Y-92429648D01*
X132221690Y-92448368D01*
X132206038Y-92465638D01*
X132188768Y-92481290D01*
X132170048Y-92495174D01*
X132150057Y-92507156D01*
X132128987Y-92517121D01*
X132107043Y-92524973D01*
X132084434Y-92530637D01*
X132061379Y-92534056D01*
X132038100Y-92535200D01*
X131563100Y-92535200D01*
X131539821Y-92534056D01*
X131516766Y-92530637D01*
X131494157Y-92524973D01*
X131472213Y-92517121D01*
X131451143Y-92507156D01*
X131431152Y-92495174D01*
X131412432Y-92481290D01*
X131395162Y-92465638D01*
X131379510Y-92448368D01*
X131365626Y-92429648D01*
X131353644Y-92409657D01*
X131343679Y-92388587D01*
X131335827Y-92366643D01*
X131330163Y-92344034D01*
X131326744Y-92320979D01*
X131325600Y-92297700D01*
X131325600Y-91722700D01*
X131326744Y-91699421D01*
X131330163Y-91676366D01*
X131335827Y-91653757D01*
X131343679Y-91631813D01*
X131353644Y-91610743D01*
X131365626Y-91590752D01*
X131379510Y-91572032D01*
X131395162Y-91554762D01*
X131412432Y-91539110D01*
X131431152Y-91525226D01*
X131451143Y-91513244D01*
X131472213Y-91503279D01*
X131494157Y-91495427D01*
X131516766Y-91489763D01*
X131539821Y-91486344D01*
X131563100Y-91485200D01*
X132038100Y-91485200D01*
X132061379Y-91486344D01*
X132061379Y-91486344D01*
G37*
D11*
X131800600Y-92010200D03*
D10*
G36*
X132061379Y-89736344D02*
G01*
X132084434Y-89739763D01*
X132107043Y-89745427D01*
X132128987Y-89753279D01*
X132150057Y-89763244D01*
X132170048Y-89775226D01*
X132188768Y-89789110D01*
X132206038Y-89804762D01*
X132221690Y-89822032D01*
X132235574Y-89840752D01*
X132247556Y-89860743D01*
X132257521Y-89881813D01*
X132265373Y-89903757D01*
X132271037Y-89926366D01*
X132274456Y-89949421D01*
X132275600Y-89972700D01*
X132275600Y-90547700D01*
X132274456Y-90570979D01*
X132271037Y-90594034D01*
X132265373Y-90616643D01*
X132257521Y-90638587D01*
X132247556Y-90659657D01*
X132235574Y-90679648D01*
X132221690Y-90698368D01*
X132206038Y-90715638D01*
X132188768Y-90731290D01*
X132170048Y-90745174D01*
X132150057Y-90757156D01*
X132128987Y-90767121D01*
X132107043Y-90774973D01*
X132084434Y-90780637D01*
X132061379Y-90784056D01*
X132038100Y-90785200D01*
X131563100Y-90785200D01*
X131539821Y-90784056D01*
X131516766Y-90780637D01*
X131494157Y-90774973D01*
X131472213Y-90767121D01*
X131451143Y-90757156D01*
X131431152Y-90745174D01*
X131412432Y-90731290D01*
X131395162Y-90715638D01*
X131379510Y-90698368D01*
X131365626Y-90679648D01*
X131353644Y-90659657D01*
X131343679Y-90638587D01*
X131335827Y-90616643D01*
X131330163Y-90594034D01*
X131326744Y-90570979D01*
X131325600Y-90547700D01*
X131325600Y-89972700D01*
X131326744Y-89949421D01*
X131330163Y-89926366D01*
X131335827Y-89903757D01*
X131343679Y-89881813D01*
X131353644Y-89860743D01*
X131365626Y-89840752D01*
X131379510Y-89822032D01*
X131395162Y-89804762D01*
X131412432Y-89789110D01*
X131431152Y-89775226D01*
X131451143Y-89763244D01*
X131472213Y-89753279D01*
X131494157Y-89745427D01*
X131516766Y-89739763D01*
X131539821Y-89736344D01*
X131563100Y-89735200D01*
X132038100Y-89735200D01*
X132061379Y-89736344D01*
X132061379Y-89736344D01*
G37*
D11*
X131800600Y-90260200D03*
D10*
G36*
X114941779Y-91924544D02*
G01*
X114964834Y-91927963D01*
X114987443Y-91933627D01*
X115009387Y-91941479D01*
X115030457Y-91951444D01*
X115050448Y-91963426D01*
X115069168Y-91977310D01*
X115086438Y-91992962D01*
X115102090Y-92010232D01*
X115115974Y-92028952D01*
X115127956Y-92048943D01*
X115137921Y-92070013D01*
X115145773Y-92091957D01*
X115151437Y-92114566D01*
X115154856Y-92137621D01*
X115156000Y-92160900D01*
X115156000Y-92735900D01*
X115154856Y-92759179D01*
X115151437Y-92782234D01*
X115145773Y-92804843D01*
X115137921Y-92826787D01*
X115127956Y-92847857D01*
X115115974Y-92867848D01*
X115102090Y-92886568D01*
X115086438Y-92903838D01*
X115069168Y-92919490D01*
X115050448Y-92933374D01*
X115030457Y-92945356D01*
X115009387Y-92955321D01*
X114987443Y-92963173D01*
X114964834Y-92968837D01*
X114941779Y-92972256D01*
X114918500Y-92973400D01*
X114443500Y-92973400D01*
X114420221Y-92972256D01*
X114397166Y-92968837D01*
X114374557Y-92963173D01*
X114352613Y-92955321D01*
X114331543Y-92945356D01*
X114311552Y-92933374D01*
X114292832Y-92919490D01*
X114275562Y-92903838D01*
X114259910Y-92886568D01*
X114246026Y-92867848D01*
X114234044Y-92847857D01*
X114224079Y-92826787D01*
X114216227Y-92804843D01*
X114210563Y-92782234D01*
X114207144Y-92759179D01*
X114206000Y-92735900D01*
X114206000Y-92160900D01*
X114207144Y-92137621D01*
X114210563Y-92114566D01*
X114216227Y-92091957D01*
X114224079Y-92070013D01*
X114234044Y-92048943D01*
X114246026Y-92028952D01*
X114259910Y-92010232D01*
X114275562Y-91992962D01*
X114292832Y-91977310D01*
X114311552Y-91963426D01*
X114331543Y-91951444D01*
X114352613Y-91941479D01*
X114374557Y-91933627D01*
X114397166Y-91927963D01*
X114420221Y-91924544D01*
X114443500Y-91923400D01*
X114918500Y-91923400D01*
X114941779Y-91924544D01*
X114941779Y-91924544D01*
G37*
D11*
X114681000Y-92448400D03*
D10*
G36*
X114941779Y-90174544D02*
G01*
X114964834Y-90177963D01*
X114987443Y-90183627D01*
X115009387Y-90191479D01*
X115030457Y-90201444D01*
X115050448Y-90213426D01*
X115069168Y-90227310D01*
X115086438Y-90242962D01*
X115102090Y-90260232D01*
X115115974Y-90278952D01*
X115127956Y-90298943D01*
X115137921Y-90320013D01*
X115145773Y-90341957D01*
X115151437Y-90364566D01*
X115154856Y-90387621D01*
X115156000Y-90410900D01*
X115156000Y-90985900D01*
X115154856Y-91009179D01*
X115151437Y-91032234D01*
X115145773Y-91054843D01*
X115137921Y-91076787D01*
X115127956Y-91097857D01*
X115115974Y-91117848D01*
X115102090Y-91136568D01*
X115086438Y-91153838D01*
X115069168Y-91169490D01*
X115050448Y-91183374D01*
X115030457Y-91195356D01*
X115009387Y-91205321D01*
X114987443Y-91213173D01*
X114964834Y-91218837D01*
X114941779Y-91222256D01*
X114918500Y-91223400D01*
X114443500Y-91223400D01*
X114420221Y-91222256D01*
X114397166Y-91218837D01*
X114374557Y-91213173D01*
X114352613Y-91205321D01*
X114331543Y-91195356D01*
X114311552Y-91183374D01*
X114292832Y-91169490D01*
X114275562Y-91153838D01*
X114259910Y-91136568D01*
X114246026Y-91117848D01*
X114234044Y-91097857D01*
X114224079Y-91076787D01*
X114216227Y-91054843D01*
X114210563Y-91032234D01*
X114207144Y-91009179D01*
X114206000Y-90985900D01*
X114206000Y-90410900D01*
X114207144Y-90387621D01*
X114210563Y-90364566D01*
X114216227Y-90341957D01*
X114224079Y-90320013D01*
X114234044Y-90298943D01*
X114246026Y-90278952D01*
X114259910Y-90260232D01*
X114275562Y-90242962D01*
X114292832Y-90227310D01*
X114311552Y-90213426D01*
X114331543Y-90201444D01*
X114352613Y-90191479D01*
X114374557Y-90183627D01*
X114397166Y-90177963D01*
X114420221Y-90174544D01*
X114443500Y-90173400D01*
X114918500Y-90173400D01*
X114941779Y-90174544D01*
X114941779Y-90174544D01*
G37*
D11*
X114681000Y-90698400D03*
D10*
G36*
X132884779Y-85378144D02*
G01*
X132907834Y-85381563D01*
X132930443Y-85387227D01*
X132952387Y-85395079D01*
X132973457Y-85405044D01*
X132993448Y-85417026D01*
X133012168Y-85430910D01*
X133029438Y-85446562D01*
X133045090Y-85463832D01*
X133058974Y-85482552D01*
X133070956Y-85502543D01*
X133080921Y-85523613D01*
X133088773Y-85545557D01*
X133094437Y-85568166D01*
X133097856Y-85591221D01*
X133099000Y-85614500D01*
X133099000Y-86089500D01*
X133097856Y-86112779D01*
X133094437Y-86135834D01*
X133088773Y-86158443D01*
X133080921Y-86180387D01*
X133070956Y-86201457D01*
X133058974Y-86221448D01*
X133045090Y-86240168D01*
X133029438Y-86257438D01*
X133012168Y-86273090D01*
X132993448Y-86286974D01*
X132973457Y-86298956D01*
X132952387Y-86308921D01*
X132930443Y-86316773D01*
X132907834Y-86322437D01*
X132884779Y-86325856D01*
X132861500Y-86327000D01*
X132286500Y-86327000D01*
X132263221Y-86325856D01*
X132240166Y-86322437D01*
X132217557Y-86316773D01*
X132195613Y-86308921D01*
X132174543Y-86298956D01*
X132154552Y-86286974D01*
X132135832Y-86273090D01*
X132118562Y-86257438D01*
X132102910Y-86240168D01*
X132089026Y-86221448D01*
X132077044Y-86201457D01*
X132067079Y-86180387D01*
X132059227Y-86158443D01*
X132053563Y-86135834D01*
X132050144Y-86112779D01*
X132049000Y-86089500D01*
X132049000Y-85614500D01*
X132050144Y-85591221D01*
X132053563Y-85568166D01*
X132059227Y-85545557D01*
X132067079Y-85523613D01*
X132077044Y-85502543D01*
X132089026Y-85482552D01*
X132102910Y-85463832D01*
X132118562Y-85446562D01*
X132135832Y-85430910D01*
X132154552Y-85417026D01*
X132174543Y-85405044D01*
X132195613Y-85395079D01*
X132217557Y-85387227D01*
X132240166Y-85381563D01*
X132263221Y-85378144D01*
X132286500Y-85377000D01*
X132861500Y-85377000D01*
X132884779Y-85378144D01*
X132884779Y-85378144D01*
G37*
D11*
X132574000Y-85852000D03*
D10*
G36*
X131134779Y-85378144D02*
G01*
X131157834Y-85381563D01*
X131180443Y-85387227D01*
X131202387Y-85395079D01*
X131223457Y-85405044D01*
X131243448Y-85417026D01*
X131262168Y-85430910D01*
X131279438Y-85446562D01*
X131295090Y-85463832D01*
X131308974Y-85482552D01*
X131320956Y-85502543D01*
X131330921Y-85523613D01*
X131338773Y-85545557D01*
X131344437Y-85568166D01*
X131347856Y-85591221D01*
X131349000Y-85614500D01*
X131349000Y-86089500D01*
X131347856Y-86112779D01*
X131344437Y-86135834D01*
X131338773Y-86158443D01*
X131330921Y-86180387D01*
X131320956Y-86201457D01*
X131308974Y-86221448D01*
X131295090Y-86240168D01*
X131279438Y-86257438D01*
X131262168Y-86273090D01*
X131243448Y-86286974D01*
X131223457Y-86298956D01*
X131202387Y-86308921D01*
X131180443Y-86316773D01*
X131157834Y-86322437D01*
X131134779Y-86325856D01*
X131111500Y-86327000D01*
X130536500Y-86327000D01*
X130513221Y-86325856D01*
X130490166Y-86322437D01*
X130467557Y-86316773D01*
X130445613Y-86308921D01*
X130424543Y-86298956D01*
X130404552Y-86286974D01*
X130385832Y-86273090D01*
X130368562Y-86257438D01*
X130352910Y-86240168D01*
X130339026Y-86221448D01*
X130327044Y-86201457D01*
X130317079Y-86180387D01*
X130309227Y-86158443D01*
X130303563Y-86135834D01*
X130300144Y-86112779D01*
X130299000Y-86089500D01*
X130299000Y-85614500D01*
X130300144Y-85591221D01*
X130303563Y-85568166D01*
X130309227Y-85545557D01*
X130317079Y-85523613D01*
X130327044Y-85502543D01*
X130339026Y-85482552D01*
X130352910Y-85463832D01*
X130368562Y-85446562D01*
X130385832Y-85430910D01*
X130404552Y-85417026D01*
X130424543Y-85405044D01*
X130445613Y-85395079D01*
X130467557Y-85387227D01*
X130490166Y-85381563D01*
X130513221Y-85378144D01*
X130536500Y-85377000D01*
X131111500Y-85377000D01*
X131134779Y-85378144D01*
X131134779Y-85378144D01*
G37*
D11*
X130824000Y-85852000D03*
D12*
X118699880Y-92903400D03*
X120599880Y-92903400D03*
X120599880Y-90703400D03*
X119649880Y-90703400D03*
X118699880Y-90703400D03*
D10*
G36*
X113566779Y-97570144D02*
G01*
X113589834Y-97573563D01*
X113612443Y-97579227D01*
X113634387Y-97587079D01*
X113655457Y-97597044D01*
X113675448Y-97609026D01*
X113694168Y-97622910D01*
X113711438Y-97638562D01*
X113727090Y-97655832D01*
X113740974Y-97674552D01*
X113752956Y-97694543D01*
X113762921Y-97715613D01*
X113770773Y-97737557D01*
X113776437Y-97760166D01*
X113779856Y-97783221D01*
X113781000Y-97806500D01*
X113781000Y-98281500D01*
X113779856Y-98304779D01*
X113776437Y-98327834D01*
X113770773Y-98350443D01*
X113762921Y-98372387D01*
X113752956Y-98393457D01*
X113740974Y-98413448D01*
X113727090Y-98432168D01*
X113711438Y-98449438D01*
X113694168Y-98465090D01*
X113675448Y-98478974D01*
X113655457Y-98490956D01*
X113634387Y-98500921D01*
X113612443Y-98508773D01*
X113589834Y-98514437D01*
X113566779Y-98517856D01*
X113543500Y-98519000D01*
X112968500Y-98519000D01*
X112945221Y-98517856D01*
X112922166Y-98514437D01*
X112899557Y-98508773D01*
X112877613Y-98500921D01*
X112856543Y-98490956D01*
X112836552Y-98478974D01*
X112817832Y-98465090D01*
X112800562Y-98449438D01*
X112784910Y-98432168D01*
X112771026Y-98413448D01*
X112759044Y-98393457D01*
X112749079Y-98372387D01*
X112741227Y-98350443D01*
X112735563Y-98327834D01*
X112732144Y-98304779D01*
X112731000Y-98281500D01*
X112731000Y-97806500D01*
X112732144Y-97783221D01*
X112735563Y-97760166D01*
X112741227Y-97737557D01*
X112749079Y-97715613D01*
X112759044Y-97694543D01*
X112771026Y-97674552D01*
X112784910Y-97655832D01*
X112800562Y-97638562D01*
X112817832Y-97622910D01*
X112836552Y-97609026D01*
X112856543Y-97597044D01*
X112877613Y-97587079D01*
X112899557Y-97579227D01*
X112922166Y-97573563D01*
X112945221Y-97570144D01*
X112968500Y-97569000D01*
X113543500Y-97569000D01*
X113566779Y-97570144D01*
X113566779Y-97570144D01*
G37*
D11*
X113256000Y-98044000D03*
D10*
G36*
X111816779Y-97570144D02*
G01*
X111839834Y-97573563D01*
X111862443Y-97579227D01*
X111884387Y-97587079D01*
X111905457Y-97597044D01*
X111925448Y-97609026D01*
X111944168Y-97622910D01*
X111961438Y-97638562D01*
X111977090Y-97655832D01*
X111990974Y-97674552D01*
X112002956Y-97694543D01*
X112012921Y-97715613D01*
X112020773Y-97737557D01*
X112026437Y-97760166D01*
X112029856Y-97783221D01*
X112031000Y-97806500D01*
X112031000Y-98281500D01*
X112029856Y-98304779D01*
X112026437Y-98327834D01*
X112020773Y-98350443D01*
X112012921Y-98372387D01*
X112002956Y-98393457D01*
X111990974Y-98413448D01*
X111977090Y-98432168D01*
X111961438Y-98449438D01*
X111944168Y-98465090D01*
X111925448Y-98478974D01*
X111905457Y-98490956D01*
X111884387Y-98500921D01*
X111862443Y-98508773D01*
X111839834Y-98514437D01*
X111816779Y-98517856D01*
X111793500Y-98519000D01*
X111218500Y-98519000D01*
X111195221Y-98517856D01*
X111172166Y-98514437D01*
X111149557Y-98508773D01*
X111127613Y-98500921D01*
X111106543Y-98490956D01*
X111086552Y-98478974D01*
X111067832Y-98465090D01*
X111050562Y-98449438D01*
X111034910Y-98432168D01*
X111021026Y-98413448D01*
X111009044Y-98393457D01*
X110999079Y-98372387D01*
X110991227Y-98350443D01*
X110985563Y-98327834D01*
X110982144Y-98304779D01*
X110981000Y-98281500D01*
X110981000Y-97806500D01*
X110982144Y-97783221D01*
X110985563Y-97760166D01*
X110991227Y-97737557D01*
X110999079Y-97715613D01*
X111009044Y-97694543D01*
X111021026Y-97674552D01*
X111034910Y-97655832D01*
X111050562Y-97638562D01*
X111067832Y-97622910D01*
X111086552Y-97609026D01*
X111106543Y-97597044D01*
X111127613Y-97587079D01*
X111149557Y-97579227D01*
X111172166Y-97573563D01*
X111195221Y-97570144D01*
X111218500Y-97569000D01*
X111793500Y-97569000D01*
X111816779Y-97570144D01*
X111816779Y-97570144D01*
G37*
D11*
X111506000Y-98044000D03*
D10*
G36*
X131134779Y-87029144D02*
G01*
X131157834Y-87032563D01*
X131180443Y-87038227D01*
X131202387Y-87046079D01*
X131223457Y-87056044D01*
X131243448Y-87068026D01*
X131262168Y-87081910D01*
X131279438Y-87097562D01*
X131295090Y-87114832D01*
X131308974Y-87133552D01*
X131320956Y-87153543D01*
X131330921Y-87174613D01*
X131338773Y-87196557D01*
X131344437Y-87219166D01*
X131347856Y-87242221D01*
X131349000Y-87265500D01*
X131349000Y-87740500D01*
X131347856Y-87763779D01*
X131344437Y-87786834D01*
X131338773Y-87809443D01*
X131330921Y-87831387D01*
X131320956Y-87852457D01*
X131308974Y-87872448D01*
X131295090Y-87891168D01*
X131279438Y-87908438D01*
X131262168Y-87924090D01*
X131243448Y-87937974D01*
X131223457Y-87949956D01*
X131202387Y-87959921D01*
X131180443Y-87967773D01*
X131157834Y-87973437D01*
X131134779Y-87976856D01*
X131111500Y-87978000D01*
X130536500Y-87978000D01*
X130513221Y-87976856D01*
X130490166Y-87973437D01*
X130467557Y-87967773D01*
X130445613Y-87959921D01*
X130424543Y-87949956D01*
X130404552Y-87937974D01*
X130385832Y-87924090D01*
X130368562Y-87908438D01*
X130352910Y-87891168D01*
X130339026Y-87872448D01*
X130327044Y-87852457D01*
X130317079Y-87831387D01*
X130309227Y-87809443D01*
X130303563Y-87786834D01*
X130300144Y-87763779D01*
X130299000Y-87740500D01*
X130299000Y-87265500D01*
X130300144Y-87242221D01*
X130303563Y-87219166D01*
X130309227Y-87196557D01*
X130317079Y-87174613D01*
X130327044Y-87153543D01*
X130339026Y-87133552D01*
X130352910Y-87114832D01*
X130368562Y-87097562D01*
X130385832Y-87081910D01*
X130404552Y-87068026D01*
X130424543Y-87056044D01*
X130445613Y-87046079D01*
X130467557Y-87038227D01*
X130490166Y-87032563D01*
X130513221Y-87029144D01*
X130536500Y-87028000D01*
X131111500Y-87028000D01*
X131134779Y-87029144D01*
X131134779Y-87029144D01*
G37*
D11*
X130824000Y-87503000D03*
D10*
G36*
X132884779Y-87029144D02*
G01*
X132907834Y-87032563D01*
X132930443Y-87038227D01*
X132952387Y-87046079D01*
X132973457Y-87056044D01*
X132993448Y-87068026D01*
X133012168Y-87081910D01*
X133029438Y-87097562D01*
X133045090Y-87114832D01*
X133058974Y-87133552D01*
X133070956Y-87153543D01*
X133080921Y-87174613D01*
X133088773Y-87196557D01*
X133094437Y-87219166D01*
X133097856Y-87242221D01*
X133099000Y-87265500D01*
X133099000Y-87740500D01*
X133097856Y-87763779D01*
X133094437Y-87786834D01*
X133088773Y-87809443D01*
X133080921Y-87831387D01*
X133070956Y-87852457D01*
X133058974Y-87872448D01*
X133045090Y-87891168D01*
X133029438Y-87908438D01*
X133012168Y-87924090D01*
X132993448Y-87937974D01*
X132973457Y-87949956D01*
X132952387Y-87959921D01*
X132930443Y-87967773D01*
X132907834Y-87973437D01*
X132884779Y-87976856D01*
X132861500Y-87978000D01*
X132286500Y-87978000D01*
X132263221Y-87976856D01*
X132240166Y-87973437D01*
X132217557Y-87967773D01*
X132195613Y-87959921D01*
X132174543Y-87949956D01*
X132154552Y-87937974D01*
X132135832Y-87924090D01*
X132118562Y-87908438D01*
X132102910Y-87891168D01*
X132089026Y-87872448D01*
X132077044Y-87852457D01*
X132067079Y-87831387D01*
X132059227Y-87809443D01*
X132053563Y-87786834D01*
X132050144Y-87763779D01*
X132049000Y-87740500D01*
X132049000Y-87265500D01*
X132050144Y-87242221D01*
X132053563Y-87219166D01*
X132059227Y-87196557D01*
X132067079Y-87174613D01*
X132077044Y-87153543D01*
X132089026Y-87133552D01*
X132102910Y-87114832D01*
X132118562Y-87097562D01*
X132135832Y-87081910D01*
X132154552Y-87068026D01*
X132174543Y-87056044D01*
X132195613Y-87046079D01*
X132217557Y-87038227D01*
X132240166Y-87032563D01*
X132263221Y-87029144D01*
X132286500Y-87028000D01*
X132861500Y-87028000D01*
X132884779Y-87029144D01*
X132884779Y-87029144D01*
G37*
D11*
X132574000Y-87503000D03*
D10*
G36*
X126232579Y-85378144D02*
G01*
X126255634Y-85381563D01*
X126278243Y-85387227D01*
X126300187Y-85395079D01*
X126321257Y-85405044D01*
X126341248Y-85417026D01*
X126359968Y-85430910D01*
X126377238Y-85446562D01*
X126392890Y-85463832D01*
X126406774Y-85482552D01*
X126418756Y-85502543D01*
X126428721Y-85523613D01*
X126436573Y-85545557D01*
X126442237Y-85568166D01*
X126445656Y-85591221D01*
X126446800Y-85614500D01*
X126446800Y-86089500D01*
X126445656Y-86112779D01*
X126442237Y-86135834D01*
X126436573Y-86158443D01*
X126428721Y-86180387D01*
X126418756Y-86201457D01*
X126406774Y-86221448D01*
X126392890Y-86240168D01*
X126377238Y-86257438D01*
X126359968Y-86273090D01*
X126341248Y-86286974D01*
X126321257Y-86298956D01*
X126300187Y-86308921D01*
X126278243Y-86316773D01*
X126255634Y-86322437D01*
X126232579Y-86325856D01*
X126209300Y-86327000D01*
X125634300Y-86327000D01*
X125611021Y-86325856D01*
X125587966Y-86322437D01*
X125565357Y-86316773D01*
X125543413Y-86308921D01*
X125522343Y-86298956D01*
X125502352Y-86286974D01*
X125483632Y-86273090D01*
X125466362Y-86257438D01*
X125450710Y-86240168D01*
X125436826Y-86221448D01*
X125424844Y-86201457D01*
X125414879Y-86180387D01*
X125407027Y-86158443D01*
X125401363Y-86135834D01*
X125397944Y-86112779D01*
X125396800Y-86089500D01*
X125396800Y-85614500D01*
X125397944Y-85591221D01*
X125401363Y-85568166D01*
X125407027Y-85545557D01*
X125414879Y-85523613D01*
X125424844Y-85502543D01*
X125436826Y-85482552D01*
X125450710Y-85463832D01*
X125466362Y-85446562D01*
X125483632Y-85430910D01*
X125502352Y-85417026D01*
X125522343Y-85405044D01*
X125543413Y-85395079D01*
X125565357Y-85387227D01*
X125587966Y-85381563D01*
X125611021Y-85378144D01*
X125634300Y-85377000D01*
X126209300Y-85377000D01*
X126232579Y-85378144D01*
X126232579Y-85378144D01*
G37*
D11*
X125921800Y-85852000D03*
D10*
G36*
X127982579Y-85378144D02*
G01*
X128005634Y-85381563D01*
X128028243Y-85387227D01*
X128050187Y-85395079D01*
X128071257Y-85405044D01*
X128091248Y-85417026D01*
X128109968Y-85430910D01*
X128127238Y-85446562D01*
X128142890Y-85463832D01*
X128156774Y-85482552D01*
X128168756Y-85502543D01*
X128178721Y-85523613D01*
X128186573Y-85545557D01*
X128192237Y-85568166D01*
X128195656Y-85591221D01*
X128196800Y-85614500D01*
X128196800Y-86089500D01*
X128195656Y-86112779D01*
X128192237Y-86135834D01*
X128186573Y-86158443D01*
X128178721Y-86180387D01*
X128168756Y-86201457D01*
X128156774Y-86221448D01*
X128142890Y-86240168D01*
X128127238Y-86257438D01*
X128109968Y-86273090D01*
X128091248Y-86286974D01*
X128071257Y-86298956D01*
X128050187Y-86308921D01*
X128028243Y-86316773D01*
X128005634Y-86322437D01*
X127982579Y-86325856D01*
X127959300Y-86327000D01*
X127384300Y-86327000D01*
X127361021Y-86325856D01*
X127337966Y-86322437D01*
X127315357Y-86316773D01*
X127293413Y-86308921D01*
X127272343Y-86298956D01*
X127252352Y-86286974D01*
X127233632Y-86273090D01*
X127216362Y-86257438D01*
X127200710Y-86240168D01*
X127186826Y-86221448D01*
X127174844Y-86201457D01*
X127164879Y-86180387D01*
X127157027Y-86158443D01*
X127151363Y-86135834D01*
X127147944Y-86112779D01*
X127146800Y-86089500D01*
X127146800Y-85614500D01*
X127147944Y-85591221D01*
X127151363Y-85568166D01*
X127157027Y-85545557D01*
X127164879Y-85523613D01*
X127174844Y-85502543D01*
X127186826Y-85482552D01*
X127200710Y-85463832D01*
X127216362Y-85446562D01*
X127233632Y-85430910D01*
X127252352Y-85417026D01*
X127272343Y-85405044D01*
X127293413Y-85395079D01*
X127315357Y-85387227D01*
X127337966Y-85381563D01*
X127361021Y-85378144D01*
X127384300Y-85377000D01*
X127959300Y-85377000D01*
X127982579Y-85378144D01*
X127982579Y-85378144D01*
G37*
D11*
X127671800Y-85852000D03*
D10*
G36*
X136912779Y-93738144D02*
G01*
X136935834Y-93741563D01*
X136958443Y-93747227D01*
X136980387Y-93755079D01*
X137001457Y-93765044D01*
X137021448Y-93777026D01*
X137040168Y-93790910D01*
X137057438Y-93806562D01*
X137073090Y-93823832D01*
X137086974Y-93842552D01*
X137098956Y-93862543D01*
X137108921Y-93883613D01*
X137116773Y-93905557D01*
X137122437Y-93928166D01*
X137125856Y-93951221D01*
X137127000Y-93974500D01*
X137127000Y-94549500D01*
X137125856Y-94572779D01*
X137122437Y-94595834D01*
X137116773Y-94618443D01*
X137108921Y-94640387D01*
X137098956Y-94661457D01*
X137086974Y-94681448D01*
X137073090Y-94700168D01*
X137057438Y-94717438D01*
X137040168Y-94733090D01*
X137021448Y-94746974D01*
X137001457Y-94758956D01*
X136980387Y-94768921D01*
X136958443Y-94776773D01*
X136935834Y-94782437D01*
X136912779Y-94785856D01*
X136889500Y-94787000D01*
X136414500Y-94787000D01*
X136391221Y-94785856D01*
X136368166Y-94782437D01*
X136345557Y-94776773D01*
X136323613Y-94768921D01*
X136302543Y-94758956D01*
X136282552Y-94746974D01*
X136263832Y-94733090D01*
X136246562Y-94717438D01*
X136230910Y-94700168D01*
X136217026Y-94681448D01*
X136205044Y-94661457D01*
X136195079Y-94640387D01*
X136187227Y-94618443D01*
X136181563Y-94595834D01*
X136178144Y-94572779D01*
X136177000Y-94549500D01*
X136177000Y-93974500D01*
X136178144Y-93951221D01*
X136181563Y-93928166D01*
X136187227Y-93905557D01*
X136195079Y-93883613D01*
X136205044Y-93862543D01*
X136217026Y-93842552D01*
X136230910Y-93823832D01*
X136246562Y-93806562D01*
X136263832Y-93790910D01*
X136282552Y-93777026D01*
X136302543Y-93765044D01*
X136323613Y-93755079D01*
X136345557Y-93747227D01*
X136368166Y-93741563D01*
X136391221Y-93738144D01*
X136414500Y-93737000D01*
X136889500Y-93737000D01*
X136912779Y-93738144D01*
X136912779Y-93738144D01*
G37*
D11*
X136652000Y-94262000D03*
D10*
G36*
X136912779Y-95488144D02*
G01*
X136935834Y-95491563D01*
X136958443Y-95497227D01*
X136980387Y-95505079D01*
X137001457Y-95515044D01*
X137021448Y-95527026D01*
X137040168Y-95540910D01*
X137057438Y-95556562D01*
X137073090Y-95573832D01*
X137086974Y-95592552D01*
X137098956Y-95612543D01*
X137108921Y-95633613D01*
X137116773Y-95655557D01*
X137122437Y-95678166D01*
X137125856Y-95701221D01*
X137127000Y-95724500D01*
X137127000Y-96299500D01*
X137125856Y-96322779D01*
X137122437Y-96345834D01*
X137116773Y-96368443D01*
X137108921Y-96390387D01*
X137098956Y-96411457D01*
X137086974Y-96431448D01*
X137073090Y-96450168D01*
X137057438Y-96467438D01*
X137040168Y-96483090D01*
X137021448Y-96496974D01*
X137001457Y-96508956D01*
X136980387Y-96518921D01*
X136958443Y-96526773D01*
X136935834Y-96532437D01*
X136912779Y-96535856D01*
X136889500Y-96537000D01*
X136414500Y-96537000D01*
X136391221Y-96535856D01*
X136368166Y-96532437D01*
X136345557Y-96526773D01*
X136323613Y-96518921D01*
X136302543Y-96508956D01*
X136282552Y-96496974D01*
X136263832Y-96483090D01*
X136246562Y-96467438D01*
X136230910Y-96450168D01*
X136217026Y-96431448D01*
X136205044Y-96411457D01*
X136195079Y-96390387D01*
X136187227Y-96368443D01*
X136181563Y-96345834D01*
X136178144Y-96322779D01*
X136177000Y-96299500D01*
X136177000Y-95724500D01*
X136178144Y-95701221D01*
X136181563Y-95678166D01*
X136187227Y-95655557D01*
X136195079Y-95633613D01*
X136205044Y-95612543D01*
X136217026Y-95592552D01*
X136230910Y-95573832D01*
X136246562Y-95556562D01*
X136263832Y-95540910D01*
X136282552Y-95527026D01*
X136302543Y-95515044D01*
X136323613Y-95505079D01*
X136345557Y-95497227D01*
X136368166Y-95491563D01*
X136391221Y-95488144D01*
X136414500Y-95487000D01*
X136889500Y-95487000D01*
X136912779Y-95488144D01*
X136912779Y-95488144D01*
G37*
D11*
X136652000Y-96012000D03*
D10*
G36*
X126232579Y-87029144D02*
G01*
X126255634Y-87032563D01*
X126278243Y-87038227D01*
X126300187Y-87046079D01*
X126321257Y-87056044D01*
X126341248Y-87068026D01*
X126359968Y-87081910D01*
X126377238Y-87097562D01*
X126392890Y-87114832D01*
X126406774Y-87133552D01*
X126418756Y-87153543D01*
X126428721Y-87174613D01*
X126436573Y-87196557D01*
X126442237Y-87219166D01*
X126445656Y-87242221D01*
X126446800Y-87265500D01*
X126446800Y-87740500D01*
X126445656Y-87763779D01*
X126442237Y-87786834D01*
X126436573Y-87809443D01*
X126428721Y-87831387D01*
X126418756Y-87852457D01*
X126406774Y-87872448D01*
X126392890Y-87891168D01*
X126377238Y-87908438D01*
X126359968Y-87924090D01*
X126341248Y-87937974D01*
X126321257Y-87949956D01*
X126300187Y-87959921D01*
X126278243Y-87967773D01*
X126255634Y-87973437D01*
X126232579Y-87976856D01*
X126209300Y-87978000D01*
X125634300Y-87978000D01*
X125611021Y-87976856D01*
X125587966Y-87973437D01*
X125565357Y-87967773D01*
X125543413Y-87959921D01*
X125522343Y-87949956D01*
X125502352Y-87937974D01*
X125483632Y-87924090D01*
X125466362Y-87908438D01*
X125450710Y-87891168D01*
X125436826Y-87872448D01*
X125424844Y-87852457D01*
X125414879Y-87831387D01*
X125407027Y-87809443D01*
X125401363Y-87786834D01*
X125397944Y-87763779D01*
X125396800Y-87740500D01*
X125396800Y-87265500D01*
X125397944Y-87242221D01*
X125401363Y-87219166D01*
X125407027Y-87196557D01*
X125414879Y-87174613D01*
X125424844Y-87153543D01*
X125436826Y-87133552D01*
X125450710Y-87114832D01*
X125466362Y-87097562D01*
X125483632Y-87081910D01*
X125502352Y-87068026D01*
X125522343Y-87056044D01*
X125543413Y-87046079D01*
X125565357Y-87038227D01*
X125587966Y-87032563D01*
X125611021Y-87029144D01*
X125634300Y-87028000D01*
X126209300Y-87028000D01*
X126232579Y-87029144D01*
X126232579Y-87029144D01*
G37*
D11*
X125921800Y-87503000D03*
D10*
G36*
X127982579Y-87029144D02*
G01*
X128005634Y-87032563D01*
X128028243Y-87038227D01*
X128050187Y-87046079D01*
X128071257Y-87056044D01*
X128091248Y-87068026D01*
X128109968Y-87081910D01*
X128127238Y-87097562D01*
X128142890Y-87114832D01*
X128156774Y-87133552D01*
X128168756Y-87153543D01*
X128178721Y-87174613D01*
X128186573Y-87196557D01*
X128192237Y-87219166D01*
X128195656Y-87242221D01*
X128196800Y-87265500D01*
X128196800Y-87740500D01*
X128195656Y-87763779D01*
X128192237Y-87786834D01*
X128186573Y-87809443D01*
X128178721Y-87831387D01*
X128168756Y-87852457D01*
X128156774Y-87872448D01*
X128142890Y-87891168D01*
X128127238Y-87908438D01*
X128109968Y-87924090D01*
X128091248Y-87937974D01*
X128071257Y-87949956D01*
X128050187Y-87959921D01*
X128028243Y-87967773D01*
X128005634Y-87973437D01*
X127982579Y-87976856D01*
X127959300Y-87978000D01*
X127384300Y-87978000D01*
X127361021Y-87976856D01*
X127337966Y-87973437D01*
X127315357Y-87967773D01*
X127293413Y-87959921D01*
X127272343Y-87949956D01*
X127252352Y-87937974D01*
X127233632Y-87924090D01*
X127216362Y-87908438D01*
X127200710Y-87891168D01*
X127186826Y-87872448D01*
X127174844Y-87852457D01*
X127164879Y-87831387D01*
X127157027Y-87809443D01*
X127151363Y-87786834D01*
X127147944Y-87763779D01*
X127146800Y-87740500D01*
X127146800Y-87265500D01*
X127147944Y-87242221D01*
X127151363Y-87219166D01*
X127157027Y-87196557D01*
X127164879Y-87174613D01*
X127174844Y-87153543D01*
X127186826Y-87133552D01*
X127200710Y-87114832D01*
X127216362Y-87097562D01*
X127233632Y-87081910D01*
X127252352Y-87068026D01*
X127272343Y-87056044D01*
X127293413Y-87046079D01*
X127315357Y-87038227D01*
X127337966Y-87032563D01*
X127361021Y-87029144D01*
X127384300Y-87028000D01*
X127959300Y-87028000D01*
X127982579Y-87029144D01*
X127982579Y-87029144D01*
G37*
D11*
X127671800Y-87503000D03*
D10*
G36*
X116891219Y-91924544D02*
G01*
X116914274Y-91927963D01*
X116936883Y-91933627D01*
X116958827Y-91941479D01*
X116979897Y-91951444D01*
X116999888Y-91963426D01*
X117018608Y-91977310D01*
X117035878Y-91992962D01*
X117051530Y-92010232D01*
X117065414Y-92028952D01*
X117077396Y-92048943D01*
X117087361Y-92070013D01*
X117095213Y-92091957D01*
X117100877Y-92114566D01*
X117104296Y-92137621D01*
X117105440Y-92160900D01*
X117105440Y-92735900D01*
X117104296Y-92759179D01*
X117100877Y-92782234D01*
X117095213Y-92804843D01*
X117087361Y-92826787D01*
X117077396Y-92847857D01*
X117065414Y-92867848D01*
X117051530Y-92886568D01*
X117035878Y-92903838D01*
X117018608Y-92919490D01*
X116999888Y-92933374D01*
X116979897Y-92945356D01*
X116958827Y-92955321D01*
X116936883Y-92963173D01*
X116914274Y-92968837D01*
X116891219Y-92972256D01*
X116867940Y-92973400D01*
X116392940Y-92973400D01*
X116369661Y-92972256D01*
X116346606Y-92968837D01*
X116323997Y-92963173D01*
X116302053Y-92955321D01*
X116280983Y-92945356D01*
X116260992Y-92933374D01*
X116242272Y-92919490D01*
X116225002Y-92903838D01*
X116209350Y-92886568D01*
X116195466Y-92867848D01*
X116183484Y-92847857D01*
X116173519Y-92826787D01*
X116165667Y-92804843D01*
X116160003Y-92782234D01*
X116156584Y-92759179D01*
X116155440Y-92735900D01*
X116155440Y-92160900D01*
X116156584Y-92137621D01*
X116160003Y-92114566D01*
X116165667Y-92091957D01*
X116173519Y-92070013D01*
X116183484Y-92048943D01*
X116195466Y-92028952D01*
X116209350Y-92010232D01*
X116225002Y-91992962D01*
X116242272Y-91977310D01*
X116260992Y-91963426D01*
X116280983Y-91951444D01*
X116302053Y-91941479D01*
X116323997Y-91933627D01*
X116346606Y-91927963D01*
X116369661Y-91924544D01*
X116392940Y-91923400D01*
X116867940Y-91923400D01*
X116891219Y-91924544D01*
X116891219Y-91924544D01*
G37*
D11*
X116630440Y-92448400D03*
D10*
G36*
X116891219Y-90174544D02*
G01*
X116914274Y-90177963D01*
X116936883Y-90183627D01*
X116958827Y-90191479D01*
X116979897Y-90201444D01*
X116999888Y-90213426D01*
X117018608Y-90227310D01*
X117035878Y-90242962D01*
X117051530Y-90260232D01*
X117065414Y-90278952D01*
X117077396Y-90298943D01*
X117087361Y-90320013D01*
X117095213Y-90341957D01*
X117100877Y-90364566D01*
X117104296Y-90387621D01*
X117105440Y-90410900D01*
X117105440Y-90985900D01*
X117104296Y-91009179D01*
X117100877Y-91032234D01*
X117095213Y-91054843D01*
X117087361Y-91076787D01*
X117077396Y-91097857D01*
X117065414Y-91117848D01*
X117051530Y-91136568D01*
X117035878Y-91153838D01*
X117018608Y-91169490D01*
X116999888Y-91183374D01*
X116979897Y-91195356D01*
X116958827Y-91205321D01*
X116936883Y-91213173D01*
X116914274Y-91218837D01*
X116891219Y-91222256D01*
X116867940Y-91223400D01*
X116392940Y-91223400D01*
X116369661Y-91222256D01*
X116346606Y-91218837D01*
X116323997Y-91213173D01*
X116302053Y-91205321D01*
X116280983Y-91195356D01*
X116260992Y-91183374D01*
X116242272Y-91169490D01*
X116225002Y-91153838D01*
X116209350Y-91136568D01*
X116195466Y-91117848D01*
X116183484Y-91097857D01*
X116173519Y-91076787D01*
X116165667Y-91054843D01*
X116160003Y-91032234D01*
X116156584Y-91009179D01*
X116155440Y-90985900D01*
X116155440Y-90410900D01*
X116156584Y-90387621D01*
X116160003Y-90364566D01*
X116165667Y-90341957D01*
X116173519Y-90320013D01*
X116183484Y-90298943D01*
X116195466Y-90278952D01*
X116209350Y-90260232D01*
X116225002Y-90242962D01*
X116242272Y-90227310D01*
X116260992Y-90213426D01*
X116280983Y-90201444D01*
X116302053Y-90191479D01*
X116323997Y-90183627D01*
X116346606Y-90177963D01*
X116369661Y-90174544D01*
X116392940Y-90173400D01*
X116867940Y-90173400D01*
X116891219Y-90174544D01*
X116891219Y-90174544D01*
G37*
D11*
X116630440Y-90698400D03*
D10*
G36*
X122676099Y-92154544D02*
G01*
X122699154Y-92157963D01*
X122721763Y-92163627D01*
X122743707Y-92171479D01*
X122764777Y-92181444D01*
X122784768Y-92193426D01*
X122803488Y-92207310D01*
X122820758Y-92222962D01*
X122836410Y-92240232D01*
X122850294Y-92258952D01*
X122862276Y-92278943D01*
X122872241Y-92300013D01*
X122880093Y-92321957D01*
X122885757Y-92344566D01*
X122889176Y-92367621D01*
X122890320Y-92390900D01*
X122890320Y-92965900D01*
X122889176Y-92989179D01*
X122885757Y-93012234D01*
X122880093Y-93034843D01*
X122872241Y-93056787D01*
X122862276Y-93077857D01*
X122850294Y-93097848D01*
X122836410Y-93116568D01*
X122820758Y-93133838D01*
X122803488Y-93149490D01*
X122784768Y-93163374D01*
X122764777Y-93175356D01*
X122743707Y-93185321D01*
X122721763Y-93193173D01*
X122699154Y-93198837D01*
X122676099Y-93202256D01*
X122652820Y-93203400D01*
X122177820Y-93203400D01*
X122154541Y-93202256D01*
X122131486Y-93198837D01*
X122108877Y-93193173D01*
X122086933Y-93185321D01*
X122065863Y-93175356D01*
X122045872Y-93163374D01*
X122027152Y-93149490D01*
X122009882Y-93133838D01*
X121994230Y-93116568D01*
X121980346Y-93097848D01*
X121968364Y-93077857D01*
X121958399Y-93056787D01*
X121950547Y-93034843D01*
X121944883Y-93012234D01*
X121941464Y-92989179D01*
X121940320Y-92965900D01*
X121940320Y-92390900D01*
X121941464Y-92367621D01*
X121944883Y-92344566D01*
X121950547Y-92321957D01*
X121958399Y-92300013D01*
X121968364Y-92278943D01*
X121980346Y-92258952D01*
X121994230Y-92240232D01*
X122009882Y-92222962D01*
X122027152Y-92207310D01*
X122045872Y-92193426D01*
X122065863Y-92181444D01*
X122086933Y-92171479D01*
X122108877Y-92163627D01*
X122131486Y-92157963D01*
X122154541Y-92154544D01*
X122177820Y-92153400D01*
X122652820Y-92153400D01*
X122676099Y-92154544D01*
X122676099Y-92154544D01*
G37*
D11*
X122415320Y-92678400D03*
D10*
G36*
X122676099Y-90404544D02*
G01*
X122699154Y-90407963D01*
X122721763Y-90413627D01*
X122743707Y-90421479D01*
X122764777Y-90431444D01*
X122784768Y-90443426D01*
X122803488Y-90457310D01*
X122820758Y-90472962D01*
X122836410Y-90490232D01*
X122850294Y-90508952D01*
X122862276Y-90528943D01*
X122872241Y-90550013D01*
X122880093Y-90571957D01*
X122885757Y-90594566D01*
X122889176Y-90617621D01*
X122890320Y-90640900D01*
X122890320Y-91215900D01*
X122889176Y-91239179D01*
X122885757Y-91262234D01*
X122880093Y-91284843D01*
X122872241Y-91306787D01*
X122862276Y-91327857D01*
X122850294Y-91347848D01*
X122836410Y-91366568D01*
X122820758Y-91383838D01*
X122803488Y-91399490D01*
X122784768Y-91413374D01*
X122764777Y-91425356D01*
X122743707Y-91435321D01*
X122721763Y-91443173D01*
X122699154Y-91448837D01*
X122676099Y-91452256D01*
X122652820Y-91453400D01*
X122177820Y-91453400D01*
X122154541Y-91452256D01*
X122131486Y-91448837D01*
X122108877Y-91443173D01*
X122086933Y-91435321D01*
X122065863Y-91425356D01*
X122045872Y-91413374D01*
X122027152Y-91399490D01*
X122009882Y-91383838D01*
X121994230Y-91366568D01*
X121980346Y-91347848D01*
X121968364Y-91327857D01*
X121958399Y-91306787D01*
X121950547Y-91284843D01*
X121944883Y-91262234D01*
X121941464Y-91239179D01*
X121940320Y-91215900D01*
X121940320Y-90640900D01*
X121941464Y-90617621D01*
X121944883Y-90594566D01*
X121950547Y-90571957D01*
X121958399Y-90550013D01*
X121968364Y-90528943D01*
X121980346Y-90508952D01*
X121994230Y-90490232D01*
X122009882Y-90472962D01*
X122027152Y-90457310D01*
X122045872Y-90443426D01*
X122065863Y-90431444D01*
X122086933Y-90421479D01*
X122108877Y-90413627D01*
X122131486Y-90407963D01*
X122154541Y-90404544D01*
X122177820Y-90403400D01*
X122652820Y-90403400D01*
X122676099Y-90404544D01*
X122676099Y-90404544D01*
G37*
D11*
X122415320Y-90928400D03*
D10*
G36*
X118960659Y-94486144D02*
G01*
X118983714Y-94489563D01*
X119006323Y-94495227D01*
X119028267Y-94503079D01*
X119049337Y-94513044D01*
X119069328Y-94525026D01*
X119088048Y-94538910D01*
X119105318Y-94554562D01*
X119120970Y-94571832D01*
X119134854Y-94590552D01*
X119146836Y-94610543D01*
X119156801Y-94631613D01*
X119164653Y-94653557D01*
X119170317Y-94676166D01*
X119173736Y-94699221D01*
X119174880Y-94722500D01*
X119174880Y-95297500D01*
X119173736Y-95320779D01*
X119170317Y-95343834D01*
X119164653Y-95366443D01*
X119156801Y-95388387D01*
X119146836Y-95409457D01*
X119134854Y-95429448D01*
X119120970Y-95448168D01*
X119105318Y-95465438D01*
X119088048Y-95481090D01*
X119069328Y-95494974D01*
X119049337Y-95506956D01*
X119028267Y-95516921D01*
X119006323Y-95524773D01*
X118983714Y-95530437D01*
X118960659Y-95533856D01*
X118937380Y-95535000D01*
X118462380Y-95535000D01*
X118439101Y-95533856D01*
X118416046Y-95530437D01*
X118393437Y-95524773D01*
X118371493Y-95516921D01*
X118350423Y-95506956D01*
X118330432Y-95494974D01*
X118311712Y-95481090D01*
X118294442Y-95465438D01*
X118278790Y-95448168D01*
X118264906Y-95429448D01*
X118252924Y-95409457D01*
X118242959Y-95388387D01*
X118235107Y-95366443D01*
X118229443Y-95343834D01*
X118226024Y-95320779D01*
X118224880Y-95297500D01*
X118224880Y-94722500D01*
X118226024Y-94699221D01*
X118229443Y-94676166D01*
X118235107Y-94653557D01*
X118242959Y-94631613D01*
X118252924Y-94610543D01*
X118264906Y-94590552D01*
X118278790Y-94571832D01*
X118294442Y-94554562D01*
X118311712Y-94538910D01*
X118330432Y-94525026D01*
X118350423Y-94513044D01*
X118371493Y-94503079D01*
X118393437Y-94495227D01*
X118416046Y-94489563D01*
X118439101Y-94486144D01*
X118462380Y-94485000D01*
X118937380Y-94485000D01*
X118960659Y-94486144D01*
X118960659Y-94486144D01*
G37*
D11*
X118699880Y-95010000D03*
D10*
G36*
X118960659Y-96236144D02*
G01*
X118983714Y-96239563D01*
X119006323Y-96245227D01*
X119028267Y-96253079D01*
X119049337Y-96263044D01*
X119069328Y-96275026D01*
X119088048Y-96288910D01*
X119105318Y-96304562D01*
X119120970Y-96321832D01*
X119134854Y-96340552D01*
X119146836Y-96360543D01*
X119156801Y-96381613D01*
X119164653Y-96403557D01*
X119170317Y-96426166D01*
X119173736Y-96449221D01*
X119174880Y-96472500D01*
X119174880Y-97047500D01*
X119173736Y-97070779D01*
X119170317Y-97093834D01*
X119164653Y-97116443D01*
X119156801Y-97138387D01*
X119146836Y-97159457D01*
X119134854Y-97179448D01*
X119120970Y-97198168D01*
X119105318Y-97215438D01*
X119088048Y-97231090D01*
X119069328Y-97244974D01*
X119049337Y-97256956D01*
X119028267Y-97266921D01*
X119006323Y-97274773D01*
X118983714Y-97280437D01*
X118960659Y-97283856D01*
X118937380Y-97285000D01*
X118462380Y-97285000D01*
X118439101Y-97283856D01*
X118416046Y-97280437D01*
X118393437Y-97274773D01*
X118371493Y-97266921D01*
X118350423Y-97256956D01*
X118330432Y-97244974D01*
X118311712Y-97231090D01*
X118294442Y-97215438D01*
X118278790Y-97198168D01*
X118264906Y-97179448D01*
X118252924Y-97159457D01*
X118242959Y-97138387D01*
X118235107Y-97116443D01*
X118229443Y-97093834D01*
X118226024Y-97070779D01*
X118224880Y-97047500D01*
X118224880Y-96472500D01*
X118226024Y-96449221D01*
X118229443Y-96426166D01*
X118235107Y-96403557D01*
X118242959Y-96381613D01*
X118252924Y-96360543D01*
X118264906Y-96340552D01*
X118278790Y-96321832D01*
X118294442Y-96304562D01*
X118311712Y-96288910D01*
X118330432Y-96275026D01*
X118350423Y-96263044D01*
X118371493Y-96253079D01*
X118393437Y-96245227D01*
X118416046Y-96239563D01*
X118439101Y-96236144D01*
X118462380Y-96235000D01*
X118937380Y-96235000D01*
X118960659Y-96236144D01*
X118960659Y-96236144D01*
G37*
D11*
X118699880Y-96760000D03*
D10*
G36*
X116846779Y-96236144D02*
G01*
X116869834Y-96239563D01*
X116892443Y-96245227D01*
X116914387Y-96253079D01*
X116935457Y-96263044D01*
X116955448Y-96275026D01*
X116974168Y-96288910D01*
X116991438Y-96304562D01*
X117007090Y-96321832D01*
X117020974Y-96340552D01*
X117032956Y-96360543D01*
X117042921Y-96381613D01*
X117050773Y-96403557D01*
X117056437Y-96426166D01*
X117059856Y-96449221D01*
X117061000Y-96472500D01*
X117061000Y-97047500D01*
X117059856Y-97070779D01*
X117056437Y-97093834D01*
X117050773Y-97116443D01*
X117042921Y-97138387D01*
X117032956Y-97159457D01*
X117020974Y-97179448D01*
X117007090Y-97198168D01*
X116991438Y-97215438D01*
X116974168Y-97231090D01*
X116955448Y-97244974D01*
X116935457Y-97256956D01*
X116914387Y-97266921D01*
X116892443Y-97274773D01*
X116869834Y-97280437D01*
X116846779Y-97283856D01*
X116823500Y-97285000D01*
X116348500Y-97285000D01*
X116325221Y-97283856D01*
X116302166Y-97280437D01*
X116279557Y-97274773D01*
X116257613Y-97266921D01*
X116236543Y-97256956D01*
X116216552Y-97244974D01*
X116197832Y-97231090D01*
X116180562Y-97215438D01*
X116164910Y-97198168D01*
X116151026Y-97179448D01*
X116139044Y-97159457D01*
X116129079Y-97138387D01*
X116121227Y-97116443D01*
X116115563Y-97093834D01*
X116112144Y-97070779D01*
X116111000Y-97047500D01*
X116111000Y-96472500D01*
X116112144Y-96449221D01*
X116115563Y-96426166D01*
X116121227Y-96403557D01*
X116129079Y-96381613D01*
X116139044Y-96360543D01*
X116151026Y-96340552D01*
X116164910Y-96321832D01*
X116180562Y-96304562D01*
X116197832Y-96288910D01*
X116216552Y-96275026D01*
X116236543Y-96263044D01*
X116257613Y-96253079D01*
X116279557Y-96245227D01*
X116302166Y-96239563D01*
X116325221Y-96236144D01*
X116348500Y-96235000D01*
X116823500Y-96235000D01*
X116846779Y-96236144D01*
X116846779Y-96236144D01*
G37*
D11*
X116586000Y-96760000D03*
D10*
G36*
X116846779Y-94486144D02*
G01*
X116869834Y-94489563D01*
X116892443Y-94495227D01*
X116914387Y-94503079D01*
X116935457Y-94513044D01*
X116955448Y-94525026D01*
X116974168Y-94538910D01*
X116991438Y-94554562D01*
X117007090Y-94571832D01*
X117020974Y-94590552D01*
X117032956Y-94610543D01*
X117042921Y-94631613D01*
X117050773Y-94653557D01*
X117056437Y-94676166D01*
X117059856Y-94699221D01*
X117061000Y-94722500D01*
X117061000Y-95297500D01*
X117059856Y-95320779D01*
X117056437Y-95343834D01*
X117050773Y-95366443D01*
X117042921Y-95388387D01*
X117032956Y-95409457D01*
X117020974Y-95429448D01*
X117007090Y-95448168D01*
X116991438Y-95465438D01*
X116974168Y-95481090D01*
X116955448Y-95494974D01*
X116935457Y-95506956D01*
X116914387Y-95516921D01*
X116892443Y-95524773D01*
X116869834Y-95530437D01*
X116846779Y-95533856D01*
X116823500Y-95535000D01*
X116348500Y-95535000D01*
X116325221Y-95533856D01*
X116302166Y-95530437D01*
X116279557Y-95524773D01*
X116257613Y-95516921D01*
X116236543Y-95506956D01*
X116216552Y-95494974D01*
X116197832Y-95481090D01*
X116180562Y-95465438D01*
X116164910Y-95448168D01*
X116151026Y-95429448D01*
X116139044Y-95409457D01*
X116129079Y-95388387D01*
X116121227Y-95366443D01*
X116115563Y-95343834D01*
X116112144Y-95320779D01*
X116111000Y-95297500D01*
X116111000Y-94722500D01*
X116112144Y-94699221D01*
X116115563Y-94676166D01*
X116121227Y-94653557D01*
X116129079Y-94631613D01*
X116139044Y-94610543D01*
X116151026Y-94590552D01*
X116164910Y-94571832D01*
X116180562Y-94554562D01*
X116197832Y-94538910D01*
X116216552Y-94525026D01*
X116236543Y-94513044D01*
X116257613Y-94503079D01*
X116279557Y-94495227D01*
X116302166Y-94489563D01*
X116325221Y-94486144D01*
X116348500Y-94485000D01*
X116823500Y-94485000D01*
X116846779Y-94486144D01*
X116846779Y-94486144D01*
G37*
D11*
X116586000Y-95010000D03*
D10*
G36*
X129384779Y-83854144D02*
G01*
X129407834Y-83857563D01*
X129430443Y-83863227D01*
X129452387Y-83871079D01*
X129473457Y-83881044D01*
X129493448Y-83893026D01*
X129512168Y-83906910D01*
X129529438Y-83922562D01*
X129545090Y-83939832D01*
X129558974Y-83958552D01*
X129570956Y-83978543D01*
X129580921Y-83999613D01*
X129588773Y-84021557D01*
X129594437Y-84044166D01*
X129597856Y-84067221D01*
X129599000Y-84090500D01*
X129599000Y-84565500D01*
X129597856Y-84588779D01*
X129594437Y-84611834D01*
X129588773Y-84634443D01*
X129580921Y-84656387D01*
X129570956Y-84677457D01*
X129558974Y-84697448D01*
X129545090Y-84716168D01*
X129529438Y-84733438D01*
X129512168Y-84749090D01*
X129493448Y-84762974D01*
X129473457Y-84774956D01*
X129452387Y-84784921D01*
X129430443Y-84792773D01*
X129407834Y-84798437D01*
X129384779Y-84801856D01*
X129361500Y-84803000D01*
X128786500Y-84803000D01*
X128763221Y-84801856D01*
X128740166Y-84798437D01*
X128717557Y-84792773D01*
X128695613Y-84784921D01*
X128674543Y-84774956D01*
X128654552Y-84762974D01*
X128635832Y-84749090D01*
X128618562Y-84733438D01*
X128602910Y-84716168D01*
X128589026Y-84697448D01*
X128577044Y-84677457D01*
X128567079Y-84656387D01*
X128559227Y-84634443D01*
X128553563Y-84611834D01*
X128550144Y-84588779D01*
X128549000Y-84565500D01*
X128549000Y-84090500D01*
X128550144Y-84067221D01*
X128553563Y-84044166D01*
X128559227Y-84021557D01*
X128567079Y-83999613D01*
X128577044Y-83978543D01*
X128589026Y-83958552D01*
X128602910Y-83939832D01*
X128618562Y-83922562D01*
X128635832Y-83906910D01*
X128654552Y-83893026D01*
X128674543Y-83881044D01*
X128695613Y-83871079D01*
X128717557Y-83863227D01*
X128740166Y-83857563D01*
X128763221Y-83854144D01*
X128786500Y-83853000D01*
X129361500Y-83853000D01*
X129384779Y-83854144D01*
X129384779Y-83854144D01*
G37*
D11*
X129074000Y-84328000D03*
D10*
G36*
X131134779Y-83854144D02*
G01*
X131157834Y-83857563D01*
X131180443Y-83863227D01*
X131202387Y-83871079D01*
X131223457Y-83881044D01*
X131243448Y-83893026D01*
X131262168Y-83906910D01*
X131279438Y-83922562D01*
X131295090Y-83939832D01*
X131308974Y-83958552D01*
X131320956Y-83978543D01*
X131330921Y-83999613D01*
X131338773Y-84021557D01*
X131344437Y-84044166D01*
X131347856Y-84067221D01*
X131349000Y-84090500D01*
X131349000Y-84565500D01*
X131347856Y-84588779D01*
X131344437Y-84611834D01*
X131338773Y-84634443D01*
X131330921Y-84656387D01*
X131320956Y-84677457D01*
X131308974Y-84697448D01*
X131295090Y-84716168D01*
X131279438Y-84733438D01*
X131262168Y-84749090D01*
X131243448Y-84762974D01*
X131223457Y-84774956D01*
X131202387Y-84784921D01*
X131180443Y-84792773D01*
X131157834Y-84798437D01*
X131134779Y-84801856D01*
X131111500Y-84803000D01*
X130536500Y-84803000D01*
X130513221Y-84801856D01*
X130490166Y-84798437D01*
X130467557Y-84792773D01*
X130445613Y-84784921D01*
X130424543Y-84774956D01*
X130404552Y-84762974D01*
X130385832Y-84749090D01*
X130368562Y-84733438D01*
X130352910Y-84716168D01*
X130339026Y-84697448D01*
X130327044Y-84677457D01*
X130317079Y-84656387D01*
X130309227Y-84634443D01*
X130303563Y-84611834D01*
X130300144Y-84588779D01*
X130299000Y-84565500D01*
X130299000Y-84090500D01*
X130300144Y-84067221D01*
X130303563Y-84044166D01*
X130309227Y-84021557D01*
X130317079Y-83999613D01*
X130327044Y-83978543D01*
X130339026Y-83958552D01*
X130352910Y-83939832D01*
X130368562Y-83922562D01*
X130385832Y-83906910D01*
X130404552Y-83893026D01*
X130424543Y-83881044D01*
X130445613Y-83871079D01*
X130467557Y-83863227D01*
X130490166Y-83857563D01*
X130513221Y-83854144D01*
X130536500Y-83853000D01*
X131111500Y-83853000D01*
X131134779Y-83854144D01*
X131134779Y-83854144D01*
G37*
D11*
X130824000Y-84328000D03*
D10*
G36*
X112149379Y-85454344D02*
G01*
X112172434Y-85457763D01*
X112195043Y-85463427D01*
X112216987Y-85471279D01*
X112238057Y-85481244D01*
X112258048Y-85493226D01*
X112276768Y-85507110D01*
X112294038Y-85522762D01*
X112309690Y-85540032D01*
X112323574Y-85558752D01*
X112335556Y-85578743D01*
X112345521Y-85599813D01*
X112353373Y-85621757D01*
X112359037Y-85644366D01*
X112362456Y-85667421D01*
X112363600Y-85690700D01*
X112363600Y-86165700D01*
X112362456Y-86188979D01*
X112359037Y-86212034D01*
X112353373Y-86234643D01*
X112345521Y-86256587D01*
X112335556Y-86277657D01*
X112323574Y-86297648D01*
X112309690Y-86316368D01*
X112294038Y-86333638D01*
X112276768Y-86349290D01*
X112258048Y-86363174D01*
X112238057Y-86375156D01*
X112216987Y-86385121D01*
X112195043Y-86392973D01*
X112172434Y-86398637D01*
X112149379Y-86402056D01*
X112126100Y-86403200D01*
X111551100Y-86403200D01*
X111527821Y-86402056D01*
X111504766Y-86398637D01*
X111482157Y-86392973D01*
X111460213Y-86385121D01*
X111439143Y-86375156D01*
X111419152Y-86363174D01*
X111400432Y-86349290D01*
X111383162Y-86333638D01*
X111367510Y-86316368D01*
X111353626Y-86297648D01*
X111341644Y-86277657D01*
X111331679Y-86256587D01*
X111323827Y-86234643D01*
X111318163Y-86212034D01*
X111314744Y-86188979D01*
X111313600Y-86165700D01*
X111313600Y-85690700D01*
X111314744Y-85667421D01*
X111318163Y-85644366D01*
X111323827Y-85621757D01*
X111331679Y-85599813D01*
X111341644Y-85578743D01*
X111353626Y-85558752D01*
X111367510Y-85540032D01*
X111383162Y-85522762D01*
X111400432Y-85507110D01*
X111419152Y-85493226D01*
X111439143Y-85481244D01*
X111460213Y-85471279D01*
X111482157Y-85463427D01*
X111504766Y-85457763D01*
X111527821Y-85454344D01*
X111551100Y-85453200D01*
X112126100Y-85453200D01*
X112149379Y-85454344D01*
X112149379Y-85454344D01*
G37*
D11*
X111838600Y-85928200D03*
D10*
G36*
X110399379Y-85454344D02*
G01*
X110422434Y-85457763D01*
X110445043Y-85463427D01*
X110466987Y-85471279D01*
X110488057Y-85481244D01*
X110508048Y-85493226D01*
X110526768Y-85507110D01*
X110544038Y-85522762D01*
X110559690Y-85540032D01*
X110573574Y-85558752D01*
X110585556Y-85578743D01*
X110595521Y-85599813D01*
X110603373Y-85621757D01*
X110609037Y-85644366D01*
X110612456Y-85667421D01*
X110613600Y-85690700D01*
X110613600Y-86165700D01*
X110612456Y-86188979D01*
X110609037Y-86212034D01*
X110603373Y-86234643D01*
X110595521Y-86256587D01*
X110585556Y-86277657D01*
X110573574Y-86297648D01*
X110559690Y-86316368D01*
X110544038Y-86333638D01*
X110526768Y-86349290D01*
X110508048Y-86363174D01*
X110488057Y-86375156D01*
X110466987Y-86385121D01*
X110445043Y-86392973D01*
X110422434Y-86398637D01*
X110399379Y-86402056D01*
X110376100Y-86403200D01*
X109801100Y-86403200D01*
X109777821Y-86402056D01*
X109754766Y-86398637D01*
X109732157Y-86392973D01*
X109710213Y-86385121D01*
X109689143Y-86375156D01*
X109669152Y-86363174D01*
X109650432Y-86349290D01*
X109633162Y-86333638D01*
X109617510Y-86316368D01*
X109603626Y-86297648D01*
X109591644Y-86277657D01*
X109581679Y-86256587D01*
X109573827Y-86234643D01*
X109568163Y-86212034D01*
X109564744Y-86188979D01*
X109563600Y-86165700D01*
X109563600Y-85690700D01*
X109564744Y-85667421D01*
X109568163Y-85644366D01*
X109573827Y-85621757D01*
X109581679Y-85599813D01*
X109591644Y-85578743D01*
X109603626Y-85558752D01*
X109617510Y-85540032D01*
X109633162Y-85522762D01*
X109650432Y-85507110D01*
X109669152Y-85493226D01*
X109689143Y-85481244D01*
X109710213Y-85471279D01*
X109732157Y-85463427D01*
X109754766Y-85457763D01*
X109777821Y-85454344D01*
X109801100Y-85453200D01*
X110376100Y-85453200D01*
X110399379Y-85454344D01*
X110399379Y-85454344D01*
G37*
D11*
X110088600Y-85928200D03*
M02*
