%TF.GenerationSoftware,KiCad,Pcbnew,8.0.2*%
%TF.CreationDate,2025-01-07T16:45:11-05:00*%
%TF.ProjectId,Transimpedence,5472616e-7369-46d7-9065-64656e63652e,rev?*%
%TF.SameCoordinates,Original*%
%TF.FileFunction,Soldermask,Top*%
%TF.FilePolarity,Negative*%
%FSLAX46Y46*%
G04 Gerber Fmt 4.6, Leading zero omitted, Abs format (unit mm)*
G04 Created by KiCad (PCBNEW 8.0.2) date 2025-01-07 16:45:11*
%MOMM*%
%LPD*%
G01*
G04 APERTURE LIST*
G04 APERTURE END LIST*
G36*
X24314931Y-44893131D02*
G01*
X24512956Y-44969846D01*
X24693512Y-45081642D01*
X24850451Y-45224711D01*
X24978430Y-45394182D01*
X25073089Y-45584283D01*
X25131205Y-45788541D01*
X25150800Y-46000000D01*
X25131205Y-46211459D01*
X25073089Y-46415717D01*
X24978430Y-46605818D01*
X24850451Y-46775289D01*
X24693512Y-46918358D01*
X24512956Y-47030154D01*
X24314931Y-47106869D01*
X24106182Y-47145891D01*
X23893818Y-47145891D01*
X23685069Y-47106869D01*
X23487044Y-47030154D01*
X23306488Y-46918358D01*
X23149549Y-46775289D01*
X23021570Y-46605818D01*
X22926911Y-46415717D01*
X22868795Y-46211459D01*
X22849200Y-46000000D01*
X22868795Y-45788541D01*
X22926911Y-45584283D01*
X23021570Y-45394182D01*
X23149549Y-45224711D01*
X23306488Y-45081642D01*
X23487044Y-44969846D01*
X23685069Y-44893131D01*
X23893818Y-44854109D01*
X24106182Y-44854109D01*
X24314931Y-44893131D01*
G37*
G36*
X60314931Y-44893131D02*
G01*
X60512956Y-44969846D01*
X60693512Y-45081642D01*
X60850451Y-45224711D01*
X60978430Y-45394182D01*
X61073089Y-45584283D01*
X61131205Y-45788541D01*
X61150800Y-46000000D01*
X61131205Y-46211459D01*
X61073089Y-46415717D01*
X60978430Y-46605818D01*
X60850451Y-46775289D01*
X60693512Y-46918358D01*
X60512956Y-47030154D01*
X60314931Y-47106869D01*
X60106182Y-47145891D01*
X59893818Y-47145891D01*
X59685069Y-47106869D01*
X59487044Y-47030154D01*
X59306488Y-46918358D01*
X59149549Y-46775289D01*
X59021570Y-46605818D01*
X58926911Y-46415717D01*
X58868795Y-46211459D01*
X58849200Y-46000000D01*
X58868795Y-45788541D01*
X58926911Y-45584283D01*
X59021570Y-45394182D01*
X59149549Y-45224711D01*
X59306488Y-45081642D01*
X59487044Y-44969846D01*
X59685069Y-44893131D01*
X59893818Y-44854109D01*
X60106182Y-44854109D01*
X60314931Y-44893131D01*
G37*
G36*
X46829735Y-45619190D02*
G01*
X46838440Y-45623033D01*
X46846013Y-45624137D01*
X46893344Y-45647276D01*
X46930860Y-45663841D01*
X46934334Y-45667315D01*
X46935250Y-45667763D01*
X47005103Y-45737616D01*
X47005550Y-45738531D01*
X47009026Y-45742007D01*
X47025597Y-45779538D01*
X47048727Y-45826850D01*
X47049829Y-45834418D01*
X47053677Y-45843132D01*
X47061667Y-45912000D01*
X47061667Y-46587000D01*
X47053677Y-46655868D01*
X47049831Y-46664576D01*
X47048729Y-46672146D01*
X47025600Y-46719455D01*
X47009026Y-46756993D01*
X47005549Y-46760469D01*
X47005103Y-46761383D01*
X46935250Y-46831236D01*
X46934336Y-46831682D01*
X46930860Y-46835159D01*
X46893317Y-46851735D01*
X46846016Y-46874860D01*
X46838448Y-46875962D01*
X46829735Y-46879810D01*
X46760867Y-46887800D01*
X45810867Y-46887800D01*
X45741999Y-46879810D01*
X45733290Y-46875964D01*
X45725720Y-46874862D01*
X45678400Y-46851728D01*
X45640874Y-46835159D01*
X45637398Y-46831683D01*
X45636483Y-46831236D01*
X45566630Y-46761383D01*
X45566182Y-46760467D01*
X45562708Y-46756993D01*
X45546140Y-46719471D01*
X45523006Y-46672149D01*
X45521903Y-46664578D01*
X45518057Y-46655868D01*
X45510067Y-46587000D01*
X45510067Y-45912000D01*
X45518057Y-45843132D01*
X45521900Y-45834427D01*
X45523004Y-45826853D01*
X45546147Y-45779512D01*
X45562708Y-45742007D01*
X45566181Y-45738533D01*
X45566630Y-45737616D01*
X45636483Y-45667763D01*
X45637400Y-45667314D01*
X45640874Y-45663841D01*
X45678384Y-45647278D01*
X45725717Y-45624139D01*
X45733288Y-45623035D01*
X45741999Y-45619190D01*
X45810867Y-45611200D01*
X46760867Y-45611200D01*
X46829735Y-45619190D01*
G37*
G36*
X49057868Y-45619190D02*
G01*
X49066573Y-45623033D01*
X49074146Y-45624137D01*
X49121477Y-45647276D01*
X49158993Y-45663841D01*
X49162467Y-45667315D01*
X49163383Y-45667763D01*
X49233236Y-45737616D01*
X49233683Y-45738531D01*
X49237159Y-45742007D01*
X49253730Y-45779538D01*
X49276860Y-45826850D01*
X49277962Y-45834418D01*
X49281810Y-45843132D01*
X49289800Y-45912000D01*
X49289800Y-46587000D01*
X49281810Y-46655868D01*
X49277964Y-46664576D01*
X49276862Y-46672146D01*
X49253733Y-46719455D01*
X49237159Y-46756993D01*
X49233682Y-46760469D01*
X49233236Y-46761383D01*
X49163383Y-46831236D01*
X49162469Y-46831682D01*
X49158993Y-46835159D01*
X49121450Y-46851735D01*
X49074149Y-46874860D01*
X49066581Y-46875962D01*
X49057868Y-46879810D01*
X48989000Y-46887800D01*
X48039000Y-46887800D01*
X47970132Y-46879810D01*
X47961423Y-46875964D01*
X47953853Y-46874862D01*
X47906533Y-46851728D01*
X47869007Y-46835159D01*
X47865531Y-46831683D01*
X47864616Y-46831236D01*
X47794763Y-46761383D01*
X47794315Y-46760467D01*
X47790841Y-46756993D01*
X47774273Y-46719471D01*
X47751139Y-46672149D01*
X47750036Y-46664578D01*
X47746190Y-46655868D01*
X47738200Y-46587000D01*
X47738200Y-45912000D01*
X47746190Y-45843132D01*
X47750033Y-45834427D01*
X47751137Y-45826853D01*
X47774280Y-45779512D01*
X47790841Y-45742007D01*
X47794314Y-45738533D01*
X47794763Y-45737616D01*
X47864616Y-45667763D01*
X47865533Y-45667314D01*
X47869007Y-45663841D01*
X47906517Y-45647278D01*
X47953850Y-45624139D01*
X47961421Y-45623035D01*
X47970132Y-45619190D01*
X48039000Y-45611200D01*
X48989000Y-45611200D01*
X49057868Y-45619190D01*
G37*
G36*
X51286001Y-45619190D02*
G01*
X51294706Y-45623033D01*
X51302279Y-45624137D01*
X51349610Y-45647276D01*
X51387126Y-45663841D01*
X51390600Y-45667315D01*
X51391516Y-45667763D01*
X51461369Y-45737616D01*
X51461816Y-45738531D01*
X51465292Y-45742007D01*
X51481863Y-45779538D01*
X51504993Y-45826850D01*
X51506095Y-45834418D01*
X51509943Y-45843132D01*
X51517933Y-45912000D01*
X51517933Y-46587000D01*
X51509943Y-46655868D01*
X51506097Y-46664576D01*
X51504995Y-46672146D01*
X51481866Y-46719455D01*
X51465292Y-46756993D01*
X51461815Y-46760469D01*
X51461369Y-46761383D01*
X51391516Y-46831236D01*
X51390602Y-46831682D01*
X51387126Y-46835159D01*
X51349583Y-46851735D01*
X51302282Y-46874860D01*
X51294714Y-46875962D01*
X51286001Y-46879810D01*
X51217133Y-46887800D01*
X50267133Y-46887800D01*
X50198265Y-46879810D01*
X50189556Y-46875964D01*
X50181986Y-46874862D01*
X50134666Y-46851728D01*
X50097140Y-46835159D01*
X50093664Y-46831683D01*
X50092749Y-46831236D01*
X50022896Y-46761383D01*
X50022448Y-46760467D01*
X50018974Y-46756993D01*
X50002406Y-46719471D01*
X49979272Y-46672149D01*
X49978169Y-46664578D01*
X49974323Y-46655868D01*
X49966333Y-46587000D01*
X49966333Y-45912000D01*
X49974323Y-45843132D01*
X49978166Y-45834427D01*
X49979270Y-45826853D01*
X50002413Y-45779512D01*
X50018974Y-45742007D01*
X50022447Y-45738533D01*
X50022896Y-45737616D01*
X50092749Y-45667763D01*
X50093666Y-45667314D01*
X50097140Y-45663841D01*
X50134650Y-45647278D01*
X50181983Y-45624139D01*
X50189554Y-45623035D01*
X50198265Y-45619190D01*
X50267133Y-45611200D01*
X51217133Y-45611200D01*
X51286001Y-45619190D01*
G37*
G36*
X53514135Y-45619190D02*
G01*
X53522840Y-45623033D01*
X53530413Y-45624137D01*
X53577744Y-45647276D01*
X53615260Y-45663841D01*
X53618734Y-45667315D01*
X53619650Y-45667763D01*
X53689503Y-45737616D01*
X53689950Y-45738531D01*
X53693426Y-45742007D01*
X53709997Y-45779538D01*
X53733127Y-45826850D01*
X53734229Y-45834418D01*
X53738077Y-45843132D01*
X53746067Y-45912000D01*
X53746067Y-46587000D01*
X53738077Y-46655868D01*
X53734231Y-46664576D01*
X53733129Y-46672146D01*
X53710000Y-46719455D01*
X53693426Y-46756993D01*
X53689949Y-46760469D01*
X53689503Y-46761383D01*
X53619650Y-46831236D01*
X53618736Y-46831682D01*
X53615260Y-46835159D01*
X53577717Y-46851735D01*
X53530416Y-46874860D01*
X53522848Y-46875962D01*
X53514135Y-46879810D01*
X53445267Y-46887800D01*
X52495267Y-46887800D01*
X52426399Y-46879810D01*
X52417690Y-46875964D01*
X52410120Y-46874862D01*
X52362800Y-46851728D01*
X52325274Y-46835159D01*
X52321798Y-46831683D01*
X52320883Y-46831236D01*
X52251030Y-46761383D01*
X52250582Y-46760467D01*
X52247108Y-46756993D01*
X52230540Y-46719471D01*
X52207406Y-46672149D01*
X52206303Y-46664578D01*
X52202457Y-46655868D01*
X52194467Y-46587000D01*
X52194467Y-45912000D01*
X52202457Y-45843132D01*
X52206300Y-45834427D01*
X52207404Y-45826853D01*
X52230547Y-45779512D01*
X52247108Y-45742007D01*
X52250581Y-45738533D01*
X52251030Y-45737616D01*
X52320883Y-45667763D01*
X52321800Y-45667314D01*
X52325274Y-45663841D01*
X52362784Y-45647278D01*
X52410117Y-45624139D01*
X52417688Y-45623035D01*
X52426399Y-45619190D01*
X52495267Y-45611200D01*
X53445267Y-45611200D01*
X53514135Y-45619190D01*
G37*
G36*
X46829735Y-43544190D02*
G01*
X46838440Y-43548033D01*
X46846013Y-43549137D01*
X46893344Y-43572276D01*
X46930860Y-43588841D01*
X46934334Y-43592315D01*
X46935250Y-43592763D01*
X47005103Y-43662616D01*
X47005550Y-43663531D01*
X47009026Y-43667007D01*
X47025597Y-43704538D01*
X47048727Y-43751850D01*
X47049829Y-43759418D01*
X47053677Y-43768132D01*
X47061667Y-43837000D01*
X47061667Y-44512000D01*
X47053677Y-44580868D01*
X47049831Y-44589576D01*
X47048729Y-44597146D01*
X47025600Y-44644455D01*
X47009026Y-44681993D01*
X47005549Y-44685469D01*
X47005103Y-44686383D01*
X46935250Y-44756236D01*
X46934336Y-44756682D01*
X46930860Y-44760159D01*
X46893317Y-44776735D01*
X46846016Y-44799860D01*
X46838448Y-44800962D01*
X46829735Y-44804810D01*
X46760867Y-44812800D01*
X45810867Y-44812800D01*
X45741999Y-44804810D01*
X45733290Y-44800964D01*
X45725720Y-44799862D01*
X45678400Y-44776728D01*
X45640874Y-44760159D01*
X45637398Y-44756683D01*
X45636483Y-44756236D01*
X45566630Y-44686383D01*
X45566182Y-44685467D01*
X45562708Y-44681993D01*
X45546140Y-44644471D01*
X45523006Y-44597149D01*
X45521903Y-44589578D01*
X45518057Y-44580868D01*
X45510067Y-44512000D01*
X45510067Y-43837000D01*
X45518057Y-43768132D01*
X45521900Y-43759427D01*
X45523004Y-43751853D01*
X45546147Y-43704512D01*
X45562708Y-43667007D01*
X45566181Y-43663533D01*
X45566630Y-43662616D01*
X45636483Y-43592763D01*
X45637400Y-43592314D01*
X45640874Y-43588841D01*
X45678384Y-43572278D01*
X45725717Y-43549139D01*
X45733288Y-43548035D01*
X45741999Y-43544190D01*
X45810867Y-43536200D01*
X46760867Y-43536200D01*
X46829735Y-43544190D01*
G37*
G36*
X49057868Y-43544190D02*
G01*
X49066573Y-43548033D01*
X49074146Y-43549137D01*
X49121477Y-43572276D01*
X49158993Y-43588841D01*
X49162467Y-43592315D01*
X49163383Y-43592763D01*
X49233236Y-43662616D01*
X49233683Y-43663531D01*
X49237159Y-43667007D01*
X49253730Y-43704538D01*
X49276860Y-43751850D01*
X49277962Y-43759418D01*
X49281810Y-43768132D01*
X49289800Y-43837000D01*
X49289800Y-44512000D01*
X49281810Y-44580868D01*
X49277964Y-44589576D01*
X49276862Y-44597146D01*
X49253733Y-44644455D01*
X49237159Y-44681993D01*
X49233682Y-44685469D01*
X49233236Y-44686383D01*
X49163383Y-44756236D01*
X49162469Y-44756682D01*
X49158993Y-44760159D01*
X49121450Y-44776735D01*
X49074149Y-44799860D01*
X49066581Y-44800962D01*
X49057868Y-44804810D01*
X48989000Y-44812800D01*
X48039000Y-44812800D01*
X47970132Y-44804810D01*
X47961423Y-44800964D01*
X47953853Y-44799862D01*
X47906533Y-44776728D01*
X47869007Y-44760159D01*
X47865531Y-44756683D01*
X47864616Y-44756236D01*
X47794763Y-44686383D01*
X47794315Y-44685467D01*
X47790841Y-44681993D01*
X47774273Y-44644471D01*
X47751139Y-44597149D01*
X47750036Y-44589578D01*
X47746190Y-44580868D01*
X47738200Y-44512000D01*
X47738200Y-43837000D01*
X47746190Y-43768132D01*
X47750033Y-43759427D01*
X47751137Y-43751853D01*
X47774280Y-43704512D01*
X47790841Y-43667007D01*
X47794314Y-43663533D01*
X47794763Y-43662616D01*
X47864616Y-43592763D01*
X47865533Y-43592314D01*
X47869007Y-43588841D01*
X47906517Y-43572278D01*
X47953850Y-43549139D01*
X47961421Y-43548035D01*
X47970132Y-43544190D01*
X48039000Y-43536200D01*
X48989000Y-43536200D01*
X49057868Y-43544190D01*
G37*
G36*
X51286001Y-43544190D02*
G01*
X51294706Y-43548033D01*
X51302279Y-43549137D01*
X51349610Y-43572276D01*
X51387126Y-43588841D01*
X51390600Y-43592315D01*
X51391516Y-43592763D01*
X51461369Y-43662616D01*
X51461816Y-43663531D01*
X51465292Y-43667007D01*
X51481863Y-43704538D01*
X51504993Y-43751850D01*
X51506095Y-43759418D01*
X51509943Y-43768132D01*
X51517933Y-43837000D01*
X51517933Y-44512000D01*
X51509943Y-44580868D01*
X51506097Y-44589576D01*
X51504995Y-44597146D01*
X51481866Y-44644455D01*
X51465292Y-44681993D01*
X51461815Y-44685469D01*
X51461369Y-44686383D01*
X51391516Y-44756236D01*
X51390602Y-44756682D01*
X51387126Y-44760159D01*
X51349583Y-44776735D01*
X51302282Y-44799860D01*
X51294714Y-44800962D01*
X51286001Y-44804810D01*
X51217133Y-44812800D01*
X50267133Y-44812800D01*
X50198265Y-44804810D01*
X50189556Y-44800964D01*
X50181986Y-44799862D01*
X50134666Y-44776728D01*
X50097140Y-44760159D01*
X50093664Y-44756683D01*
X50092749Y-44756236D01*
X50022896Y-44686383D01*
X50022448Y-44685467D01*
X50018974Y-44681993D01*
X50002406Y-44644471D01*
X49979272Y-44597149D01*
X49978169Y-44589578D01*
X49974323Y-44580868D01*
X49966333Y-44512000D01*
X49966333Y-43837000D01*
X49974323Y-43768132D01*
X49978166Y-43759427D01*
X49979270Y-43751853D01*
X50002413Y-43704512D01*
X50018974Y-43667007D01*
X50022447Y-43663533D01*
X50022896Y-43662616D01*
X50092749Y-43592763D01*
X50093666Y-43592314D01*
X50097140Y-43588841D01*
X50134650Y-43572278D01*
X50181983Y-43549139D01*
X50189554Y-43548035D01*
X50198265Y-43544190D01*
X50267133Y-43536200D01*
X51217133Y-43536200D01*
X51286001Y-43544190D01*
G37*
G36*
X53514135Y-43544190D02*
G01*
X53522840Y-43548033D01*
X53530413Y-43549137D01*
X53577744Y-43572276D01*
X53615260Y-43588841D01*
X53618734Y-43592315D01*
X53619650Y-43592763D01*
X53689503Y-43662616D01*
X53689950Y-43663531D01*
X53693426Y-43667007D01*
X53709997Y-43704538D01*
X53733127Y-43751850D01*
X53734229Y-43759418D01*
X53738077Y-43768132D01*
X53746067Y-43837000D01*
X53746067Y-44512000D01*
X53738077Y-44580868D01*
X53734231Y-44589576D01*
X53733129Y-44597146D01*
X53710000Y-44644455D01*
X53693426Y-44681993D01*
X53689949Y-44685469D01*
X53689503Y-44686383D01*
X53619650Y-44756236D01*
X53618736Y-44756682D01*
X53615260Y-44760159D01*
X53577717Y-44776735D01*
X53530416Y-44799860D01*
X53522848Y-44800962D01*
X53514135Y-44804810D01*
X53445267Y-44812800D01*
X52495267Y-44812800D01*
X52426399Y-44804810D01*
X52417690Y-44800964D01*
X52410120Y-44799862D01*
X52362800Y-44776728D01*
X52325274Y-44760159D01*
X52321798Y-44756683D01*
X52320883Y-44756236D01*
X52251030Y-44686383D01*
X52250582Y-44685467D01*
X52247108Y-44681993D01*
X52230540Y-44644471D01*
X52207406Y-44597149D01*
X52206303Y-44589578D01*
X52202457Y-44580868D01*
X52194467Y-44512000D01*
X52194467Y-43837000D01*
X52202457Y-43768132D01*
X52206300Y-43759427D01*
X52207404Y-43751853D01*
X52230547Y-43704512D01*
X52247108Y-43667007D01*
X52250581Y-43663533D01*
X52251030Y-43662616D01*
X52320883Y-43592763D01*
X52321800Y-43592314D01*
X52325274Y-43588841D01*
X52362784Y-43572278D01*
X52410117Y-43549139D01*
X52417688Y-43548035D01*
X52426399Y-43544190D01*
X52495267Y-43536200D01*
X53445267Y-43536200D01*
X53514135Y-43544190D01*
G37*
G36*
X46867157Y-41001967D02*
G01*
X46916080Y-41034656D01*
X46948769Y-41083579D01*
X46960248Y-41141288D01*
X46960248Y-42416288D01*
X46948769Y-42473997D01*
X46916080Y-42522920D01*
X46867157Y-42555609D01*
X46809448Y-42567088D01*
X46609448Y-42567088D01*
X46551739Y-42555609D01*
X46502816Y-42522920D01*
X46470127Y-42473997D01*
X46458648Y-42416288D01*
X46458648Y-41141288D01*
X46470127Y-41083579D01*
X46502816Y-41034656D01*
X46551739Y-41001967D01*
X46609448Y-40990488D01*
X46809448Y-40990488D01*
X46867157Y-41001967D01*
G37*
G36*
X47517157Y-41001967D02*
G01*
X47566080Y-41034656D01*
X47598769Y-41083579D01*
X47610248Y-41141288D01*
X47610248Y-42416288D01*
X47598769Y-42473997D01*
X47566080Y-42522920D01*
X47517157Y-42555609D01*
X47459448Y-42567088D01*
X47259448Y-42567088D01*
X47201739Y-42555609D01*
X47152816Y-42522920D01*
X47120127Y-42473997D01*
X47108648Y-42416288D01*
X47108648Y-41141288D01*
X47120127Y-41083579D01*
X47152816Y-41034656D01*
X47201739Y-41001967D01*
X47259448Y-40990488D01*
X47459448Y-40990488D01*
X47517157Y-41001967D01*
G37*
G36*
X48167157Y-41001967D02*
G01*
X48216080Y-41034656D01*
X48248769Y-41083579D01*
X48260248Y-41141288D01*
X48260248Y-42416288D01*
X48248769Y-42473997D01*
X48216080Y-42522920D01*
X48167157Y-42555609D01*
X48109448Y-42567088D01*
X47909448Y-42567088D01*
X47851739Y-42555609D01*
X47802816Y-42522920D01*
X47770127Y-42473997D01*
X47758648Y-42416288D01*
X47758648Y-41141288D01*
X47770127Y-41083579D01*
X47802816Y-41034656D01*
X47851739Y-41001967D01*
X47909448Y-40990488D01*
X48109448Y-40990488D01*
X48167157Y-41001967D01*
G37*
G36*
X48817157Y-41001967D02*
G01*
X48866080Y-41034656D01*
X48898769Y-41083579D01*
X48910248Y-41141288D01*
X48910248Y-42416288D01*
X48898769Y-42473997D01*
X48866080Y-42522920D01*
X48817157Y-42555609D01*
X48759448Y-42567088D01*
X48559448Y-42567088D01*
X48501739Y-42555609D01*
X48452816Y-42522920D01*
X48420127Y-42473997D01*
X48408648Y-42416288D01*
X48408648Y-41141288D01*
X48420127Y-41083579D01*
X48452816Y-41034656D01*
X48501739Y-41001967D01*
X48559448Y-40990488D01*
X48759448Y-40990488D01*
X48817157Y-41001967D01*
G37*
G36*
X49467157Y-41001967D02*
G01*
X49516080Y-41034656D01*
X49548769Y-41083579D01*
X49560248Y-41141288D01*
X49560248Y-42416288D01*
X49548769Y-42473997D01*
X49516080Y-42522920D01*
X49467157Y-42555609D01*
X49409448Y-42567088D01*
X49209448Y-42567088D01*
X49151739Y-42555609D01*
X49102816Y-42522920D01*
X49070127Y-42473997D01*
X49058648Y-42416288D01*
X49058648Y-41141288D01*
X49070127Y-41083579D01*
X49102816Y-41034656D01*
X49151739Y-41001967D01*
X49209448Y-40990488D01*
X49409448Y-40990488D01*
X49467157Y-41001967D01*
G37*
G36*
X50117157Y-41001967D02*
G01*
X50166080Y-41034656D01*
X50198769Y-41083579D01*
X50210248Y-41141288D01*
X50210248Y-42416288D01*
X50198769Y-42473997D01*
X50166080Y-42522920D01*
X50117157Y-42555609D01*
X50059448Y-42567088D01*
X49859448Y-42567088D01*
X49801739Y-42555609D01*
X49752816Y-42522920D01*
X49720127Y-42473997D01*
X49708648Y-42416288D01*
X49708648Y-41141288D01*
X49720127Y-41083579D01*
X49752816Y-41034656D01*
X49801739Y-41001967D01*
X49859448Y-40990488D01*
X50059448Y-40990488D01*
X50117157Y-41001967D01*
G37*
G36*
X50767157Y-41001967D02*
G01*
X50816080Y-41034656D01*
X50848769Y-41083579D01*
X50860248Y-41141288D01*
X50860248Y-42416288D01*
X50848769Y-42473997D01*
X50816080Y-42522920D01*
X50767157Y-42555609D01*
X50709448Y-42567088D01*
X50509448Y-42567088D01*
X50451739Y-42555609D01*
X50402816Y-42522920D01*
X50370127Y-42473997D01*
X50358648Y-42416288D01*
X50358648Y-41141288D01*
X50370127Y-41083579D01*
X50402816Y-41034656D01*
X50451739Y-41001967D01*
X50509448Y-40990488D01*
X50709448Y-40990488D01*
X50767157Y-41001967D01*
G37*
G36*
X51417157Y-41001967D02*
G01*
X51466080Y-41034656D01*
X51498769Y-41083579D01*
X51510248Y-41141288D01*
X51510248Y-42416288D01*
X51498769Y-42473997D01*
X51466080Y-42522920D01*
X51417157Y-42555609D01*
X51359448Y-42567088D01*
X51159448Y-42567088D01*
X51101739Y-42555609D01*
X51052816Y-42522920D01*
X51020127Y-42473997D01*
X51008648Y-42416288D01*
X51008648Y-41141288D01*
X51020127Y-41083579D01*
X51052816Y-41034656D01*
X51101739Y-41001967D01*
X51159448Y-40990488D01*
X51359448Y-40990488D01*
X51417157Y-41001967D01*
G37*
G36*
X55911440Y-40985067D02*
G01*
X55927921Y-40996079D01*
X55938933Y-41012560D01*
X55942800Y-41032000D01*
X55942800Y-41772000D01*
X55938933Y-41791440D01*
X55927921Y-41807921D01*
X55911440Y-41818933D01*
X55892000Y-41822800D01*
X53492000Y-41822800D01*
X53472560Y-41818933D01*
X53456079Y-41807921D01*
X53445067Y-41791440D01*
X53441200Y-41772000D01*
X53441200Y-41032000D01*
X53445067Y-41012560D01*
X53456079Y-40996079D01*
X53472560Y-40985067D01*
X53492000Y-40981200D01*
X55892000Y-40981200D01*
X55911440Y-40985067D01*
G37*
G36*
X59811440Y-40985067D02*
G01*
X59827921Y-40996079D01*
X59838933Y-41012560D01*
X59842800Y-41032000D01*
X59842800Y-41772000D01*
X59838933Y-41791440D01*
X59827921Y-41807921D01*
X59811440Y-41818933D01*
X59792000Y-41822800D01*
X57392000Y-41822800D01*
X57372560Y-41818933D01*
X57356079Y-41807921D01*
X57345067Y-41791440D01*
X57341200Y-41772000D01*
X57341200Y-41032000D01*
X57345067Y-41012560D01*
X57356079Y-40996079D01*
X57372560Y-40985067D01*
X57392000Y-40981200D01*
X59792000Y-40981200D01*
X59811440Y-40985067D01*
G37*
G36*
X56675854Y-40210657D02*
G01*
X56709551Y-40210657D01*
X56748186Y-40220179D01*
X56787146Y-40225309D01*
X56813815Y-40236356D01*
X56840731Y-40242990D01*
X56881537Y-40264407D01*
X56922400Y-40281333D01*
X56941043Y-40295638D01*
X56960360Y-40305777D01*
X56999860Y-40340771D01*
X57038545Y-40370455D01*
X57049537Y-40384780D01*
X57061486Y-40395366D01*
X57095744Y-40444997D01*
X57127667Y-40486600D01*
X57132479Y-40498217D01*
X57138236Y-40506558D01*
X57163208Y-40572404D01*
X57183691Y-40621854D01*
X57184610Y-40628836D01*
X57186143Y-40632878D01*
X57198014Y-40730651D01*
X57202800Y-40767000D01*
X57198014Y-40803351D01*
X57186143Y-40901121D01*
X57184610Y-40905161D01*
X57183691Y-40912146D01*
X57163203Y-40961606D01*
X57138236Y-41027441D01*
X57132480Y-41035779D01*
X57127667Y-41047400D01*
X57095737Y-41089011D01*
X57061486Y-41138633D01*
X57049540Y-41149216D01*
X57038545Y-41163545D01*
X56999852Y-41193235D01*
X56960360Y-41228222D01*
X56941047Y-41238358D01*
X56922400Y-41252667D01*
X56881528Y-41269596D01*
X56840731Y-41291009D01*
X56813820Y-41297642D01*
X56787146Y-41308691D01*
X56748184Y-41313820D01*
X56709551Y-41323343D01*
X56675854Y-41323343D01*
X56642000Y-41327800D01*
X56608146Y-41323343D01*
X56574449Y-41323343D01*
X56535815Y-41313820D01*
X56496854Y-41308691D01*
X56470180Y-41297642D01*
X56443268Y-41291009D01*
X56402466Y-41269594D01*
X56361600Y-41252667D01*
X56342954Y-41238359D01*
X56323639Y-41228222D01*
X56284140Y-41193229D01*
X56245455Y-41163545D01*
X56234462Y-41149218D01*
X56222513Y-41138633D01*
X56188252Y-41088998D01*
X56156333Y-41047400D01*
X56151521Y-41035783D01*
X56145763Y-41027441D01*
X56120784Y-40961577D01*
X56100309Y-40912146D01*
X56099390Y-40905165D01*
X56097856Y-40901121D01*
X56085972Y-40803253D01*
X56081200Y-40767000D01*
X56085972Y-40730749D01*
X56097856Y-40632878D01*
X56099390Y-40628832D01*
X56100309Y-40621854D01*
X56120779Y-40572433D01*
X56145763Y-40506558D01*
X56151522Y-40498214D01*
X56156333Y-40486600D01*
X56188245Y-40445010D01*
X56222513Y-40395366D01*
X56234464Y-40384778D01*
X56245455Y-40370455D01*
X56284132Y-40340776D01*
X56323639Y-40305777D01*
X56342958Y-40295637D01*
X56361600Y-40281333D01*
X56402457Y-40264409D01*
X56443268Y-40242990D01*
X56470185Y-40236355D01*
X56496854Y-40225309D01*
X56535812Y-40220179D01*
X56574449Y-40210657D01*
X56608146Y-40210657D01*
X56642000Y-40206200D01*
X56675854Y-40210657D01*
G37*
G36*
X55911440Y-39715067D02*
G01*
X55927921Y-39726079D01*
X55938933Y-39742560D01*
X55942800Y-39762000D01*
X55942800Y-40502000D01*
X55938933Y-40521440D01*
X55927921Y-40537921D01*
X55911440Y-40548933D01*
X55892000Y-40552800D01*
X53492000Y-40552800D01*
X53472560Y-40548933D01*
X53456079Y-40537921D01*
X53445067Y-40521440D01*
X53441200Y-40502000D01*
X53441200Y-39762000D01*
X53445067Y-39742560D01*
X53456079Y-39726079D01*
X53472560Y-39715067D01*
X53492000Y-39711200D01*
X55892000Y-39711200D01*
X55911440Y-39715067D01*
G37*
G36*
X59811440Y-39715067D02*
G01*
X59827921Y-39726079D01*
X59838933Y-39742560D01*
X59842800Y-39762000D01*
X59842800Y-40502000D01*
X59838933Y-40521440D01*
X59827921Y-40537921D01*
X59811440Y-40548933D01*
X59792000Y-40552800D01*
X57392000Y-40552800D01*
X57372560Y-40548933D01*
X57356079Y-40537921D01*
X57345067Y-40521440D01*
X57341200Y-40502000D01*
X57341200Y-39762000D01*
X57345067Y-39742560D01*
X57356079Y-39726079D01*
X57372560Y-39715067D01*
X57392000Y-39711200D01*
X59792000Y-39711200D01*
X59811440Y-39715067D01*
G37*
G36*
X55911440Y-38445067D02*
G01*
X55927921Y-38456079D01*
X55938933Y-38472560D01*
X55942800Y-38492000D01*
X55942800Y-39232000D01*
X55938933Y-39251440D01*
X55927921Y-39267921D01*
X55911440Y-39278933D01*
X55892000Y-39282800D01*
X53492000Y-39282800D01*
X53472560Y-39278933D01*
X53456079Y-39267921D01*
X53445067Y-39251440D01*
X53441200Y-39232000D01*
X53441200Y-38492000D01*
X53445067Y-38472560D01*
X53456079Y-38456079D01*
X53472560Y-38445067D01*
X53492000Y-38441200D01*
X55892000Y-38441200D01*
X55911440Y-38445067D01*
G37*
G36*
X59811440Y-38445067D02*
G01*
X59827921Y-38456079D01*
X59838933Y-38472560D01*
X59842800Y-38492000D01*
X59842800Y-39232000D01*
X59838933Y-39251440D01*
X59827921Y-39267921D01*
X59811440Y-39278933D01*
X59792000Y-39282800D01*
X57392000Y-39282800D01*
X57372560Y-39278933D01*
X57356079Y-39267921D01*
X57345067Y-39251440D01*
X57341200Y-39232000D01*
X57341200Y-38492000D01*
X57345067Y-38472560D01*
X57356079Y-38456079D01*
X57372560Y-38445067D01*
X57392000Y-38441200D01*
X59792000Y-38441200D01*
X59811440Y-38445067D01*
G37*
G36*
X31130816Y-36824190D02*
G01*
X31139521Y-36828033D01*
X31147094Y-36829137D01*
X31194425Y-36852276D01*
X31231941Y-36868841D01*
X31235415Y-36872315D01*
X31236331Y-36872763D01*
X31306184Y-36942616D01*
X31306631Y-36943531D01*
X31310107Y-36947007D01*
X31326678Y-36984538D01*
X31349808Y-37031850D01*
X31350910Y-37039418D01*
X31354758Y-37048132D01*
X31362748Y-37117000D01*
X31362748Y-38067000D01*
X31354758Y-38135868D01*
X31350912Y-38144576D01*
X31349810Y-38152146D01*
X31326681Y-38199455D01*
X31310107Y-38236993D01*
X31306630Y-38240469D01*
X31306184Y-38241383D01*
X31236331Y-38311236D01*
X31235417Y-38311682D01*
X31231941Y-38315159D01*
X31194398Y-38331735D01*
X31147097Y-38354860D01*
X31139529Y-38355962D01*
X31130816Y-38359810D01*
X31061948Y-38367800D01*
X30386948Y-38367800D01*
X30318080Y-38359810D01*
X30309371Y-38355964D01*
X30301801Y-38354862D01*
X30254481Y-38331728D01*
X30216955Y-38315159D01*
X30213479Y-38311683D01*
X30212564Y-38311236D01*
X30142711Y-38241383D01*
X30142263Y-38240467D01*
X30138789Y-38236993D01*
X30122221Y-38199471D01*
X30099087Y-38152149D01*
X30097984Y-38144578D01*
X30094138Y-38135868D01*
X30086148Y-38067000D01*
X30086148Y-37117000D01*
X30094138Y-37048132D01*
X30097981Y-37039427D01*
X30099085Y-37031853D01*
X30122228Y-36984512D01*
X30138789Y-36947007D01*
X30142262Y-36943533D01*
X30142711Y-36942616D01*
X30212564Y-36872763D01*
X30213481Y-36872314D01*
X30216955Y-36868841D01*
X30254465Y-36852278D01*
X30301798Y-36829139D01*
X30309369Y-36828035D01*
X30318080Y-36824190D01*
X30386948Y-36816200D01*
X31061948Y-36816200D01*
X31130816Y-36824190D01*
G37*
G36*
X33205816Y-36824190D02*
G01*
X33214521Y-36828033D01*
X33222094Y-36829137D01*
X33269425Y-36852276D01*
X33306941Y-36868841D01*
X33310415Y-36872315D01*
X33311331Y-36872763D01*
X33381184Y-36942616D01*
X33381631Y-36943531D01*
X33385107Y-36947007D01*
X33401678Y-36984538D01*
X33424808Y-37031850D01*
X33425910Y-37039418D01*
X33429758Y-37048132D01*
X33437748Y-37117000D01*
X33437748Y-38067000D01*
X33429758Y-38135868D01*
X33425912Y-38144576D01*
X33424810Y-38152146D01*
X33401681Y-38199455D01*
X33385107Y-38236993D01*
X33381630Y-38240469D01*
X33381184Y-38241383D01*
X33311331Y-38311236D01*
X33310417Y-38311682D01*
X33306941Y-38315159D01*
X33269398Y-38331735D01*
X33222097Y-38354860D01*
X33214529Y-38355962D01*
X33205816Y-38359810D01*
X33136948Y-38367800D01*
X32461948Y-38367800D01*
X32393080Y-38359810D01*
X32384371Y-38355964D01*
X32376801Y-38354862D01*
X32329481Y-38331728D01*
X32291955Y-38315159D01*
X32288479Y-38311683D01*
X32287564Y-38311236D01*
X32217711Y-38241383D01*
X32217263Y-38240467D01*
X32213789Y-38236993D01*
X32197221Y-38199471D01*
X32174087Y-38152149D01*
X32172984Y-38144578D01*
X32169138Y-38135868D01*
X32161148Y-38067000D01*
X32161148Y-37117000D01*
X32169138Y-37048132D01*
X32172981Y-37039427D01*
X32174085Y-37031853D01*
X32197228Y-36984512D01*
X32213789Y-36947007D01*
X32217262Y-36943533D01*
X32217711Y-36942616D01*
X32287564Y-36872763D01*
X32288481Y-36872314D01*
X32291955Y-36868841D01*
X32329465Y-36852278D01*
X32376798Y-36829139D01*
X32384369Y-36828035D01*
X32393080Y-36824190D01*
X32461948Y-36816200D01*
X33136948Y-36816200D01*
X33205816Y-36824190D01*
G37*
G36*
X43576558Y-37186968D02*
G01*
X43709400Y-37241993D01*
X43823474Y-37329526D01*
X43911007Y-37443600D01*
X43966032Y-37576442D01*
X43984800Y-37719000D01*
X43966032Y-37861558D01*
X43911007Y-37994400D01*
X43823474Y-38108474D01*
X43709400Y-38196007D01*
X43576558Y-38251032D01*
X43434000Y-38269800D01*
X43291442Y-38251032D01*
X43158600Y-38196007D01*
X43044526Y-38108474D01*
X42956993Y-37994400D01*
X42901968Y-37861558D01*
X42883200Y-37719000D01*
X42901968Y-37576442D01*
X42956993Y-37443600D01*
X43044526Y-37329526D01*
X43158600Y-37241993D01*
X43291442Y-37186968D01*
X43434000Y-37168200D01*
X43576558Y-37186968D01*
G37*
G36*
X55911440Y-37175067D02*
G01*
X55927921Y-37186079D01*
X55938933Y-37202560D01*
X55942800Y-37222000D01*
X55942800Y-37962000D01*
X55938933Y-37981440D01*
X55927921Y-37997921D01*
X55911440Y-38008933D01*
X55892000Y-38012800D01*
X53492000Y-38012800D01*
X53472560Y-38008933D01*
X53456079Y-37997921D01*
X53445067Y-37981440D01*
X53441200Y-37962000D01*
X53441200Y-37222000D01*
X53445067Y-37202560D01*
X53456079Y-37186079D01*
X53472560Y-37175067D01*
X53492000Y-37171200D01*
X55892000Y-37171200D01*
X55911440Y-37175067D01*
G37*
G36*
X59811440Y-37175067D02*
G01*
X59827921Y-37186079D01*
X59838933Y-37202560D01*
X59842800Y-37222000D01*
X59842800Y-37962000D01*
X59838933Y-37981440D01*
X59827921Y-37997921D01*
X59811440Y-38008933D01*
X59792000Y-38012800D01*
X57392000Y-38012800D01*
X57372560Y-38008933D01*
X57356079Y-37997921D01*
X57345067Y-37981440D01*
X57341200Y-37962000D01*
X57341200Y-37222000D01*
X57345067Y-37202560D01*
X57356079Y-37186079D01*
X57372560Y-37175067D01*
X57392000Y-37171200D01*
X59792000Y-37171200D01*
X59811440Y-37175067D01*
G37*
G36*
X56675854Y-36400657D02*
G01*
X56709551Y-36400657D01*
X56748186Y-36410179D01*
X56787146Y-36415309D01*
X56813815Y-36426356D01*
X56840731Y-36432990D01*
X56881537Y-36454407D01*
X56922400Y-36471333D01*
X56941043Y-36485638D01*
X56960360Y-36495777D01*
X56999860Y-36530771D01*
X57038545Y-36560455D01*
X57049537Y-36574780D01*
X57061486Y-36585366D01*
X57095744Y-36634997D01*
X57127667Y-36676600D01*
X57132479Y-36688217D01*
X57138236Y-36696558D01*
X57163208Y-36762404D01*
X57183691Y-36811854D01*
X57184610Y-36818836D01*
X57186143Y-36822878D01*
X57198014Y-36920651D01*
X57202800Y-36957000D01*
X57198014Y-36993351D01*
X57186143Y-37091121D01*
X57184610Y-37095161D01*
X57183691Y-37102146D01*
X57163203Y-37151606D01*
X57138236Y-37217441D01*
X57132480Y-37225779D01*
X57127667Y-37237400D01*
X57095737Y-37279011D01*
X57061486Y-37328633D01*
X57049540Y-37339216D01*
X57038545Y-37353545D01*
X56999852Y-37383235D01*
X56960360Y-37418222D01*
X56941047Y-37428358D01*
X56922400Y-37442667D01*
X56881528Y-37459596D01*
X56840731Y-37481009D01*
X56813820Y-37487642D01*
X56787146Y-37498691D01*
X56748184Y-37503820D01*
X56709551Y-37513343D01*
X56675854Y-37513343D01*
X56642000Y-37517800D01*
X56608146Y-37513343D01*
X56574449Y-37513343D01*
X56535815Y-37503820D01*
X56496854Y-37498691D01*
X56470180Y-37487642D01*
X56443268Y-37481009D01*
X56402466Y-37459594D01*
X56361600Y-37442667D01*
X56342954Y-37428359D01*
X56323639Y-37418222D01*
X56284140Y-37383229D01*
X56245455Y-37353545D01*
X56234462Y-37339218D01*
X56222513Y-37328633D01*
X56188252Y-37278998D01*
X56156333Y-37237400D01*
X56151521Y-37225783D01*
X56145763Y-37217441D01*
X56120784Y-37151577D01*
X56100309Y-37102146D01*
X56099390Y-37095165D01*
X56097856Y-37091121D01*
X56085972Y-36993253D01*
X56081200Y-36957000D01*
X56085972Y-36920749D01*
X56097856Y-36822878D01*
X56099390Y-36818832D01*
X56100309Y-36811854D01*
X56120779Y-36762433D01*
X56145763Y-36696558D01*
X56151522Y-36688214D01*
X56156333Y-36676600D01*
X56188245Y-36635010D01*
X56222513Y-36585366D01*
X56234464Y-36574778D01*
X56245455Y-36560455D01*
X56284132Y-36530776D01*
X56323639Y-36495777D01*
X56342958Y-36485637D01*
X56361600Y-36471333D01*
X56402457Y-36454409D01*
X56443268Y-36432990D01*
X56470185Y-36426355D01*
X56496854Y-36415309D01*
X56535812Y-36410179D01*
X56574449Y-36400657D01*
X56608146Y-36400657D01*
X56642000Y-36396200D01*
X56675854Y-36400657D01*
G37*
G36*
X42140777Y-35662691D02*
G01*
X42279697Y-35735602D01*
X42397131Y-35839640D01*
X42486255Y-35968758D01*
X42541889Y-36115453D01*
X42560800Y-36271200D01*
X42541889Y-36426947D01*
X42486255Y-36573642D01*
X42397131Y-36702760D01*
X42279697Y-36806798D01*
X42140777Y-36879709D01*
X41988445Y-36917255D01*
X41831555Y-36917255D01*
X41679223Y-36879709D01*
X41540303Y-36806798D01*
X41422869Y-36702760D01*
X41333745Y-36573642D01*
X41278111Y-36426947D01*
X41259200Y-36271200D01*
X41278111Y-36115453D01*
X41333745Y-35968758D01*
X41422869Y-35839640D01*
X41540303Y-35735602D01*
X41679223Y-35662691D01*
X41831555Y-35625145D01*
X41988445Y-35625145D01*
X42140777Y-35662691D01*
G37*
G36*
X46867157Y-35276967D02*
G01*
X46916080Y-35309656D01*
X46948769Y-35358579D01*
X46960248Y-35416288D01*
X46960248Y-36691288D01*
X46948769Y-36748997D01*
X46916080Y-36797920D01*
X46867157Y-36830609D01*
X46809448Y-36842088D01*
X46609448Y-36842088D01*
X46551739Y-36830609D01*
X46502816Y-36797920D01*
X46470127Y-36748997D01*
X46458648Y-36691288D01*
X46458648Y-35416288D01*
X46470127Y-35358579D01*
X46502816Y-35309656D01*
X46551739Y-35276967D01*
X46609448Y-35265488D01*
X46809448Y-35265488D01*
X46867157Y-35276967D01*
G37*
G36*
X47517157Y-35276967D02*
G01*
X47566080Y-35309656D01*
X47598769Y-35358579D01*
X47610248Y-35416288D01*
X47610248Y-36691288D01*
X47598769Y-36748997D01*
X47566080Y-36797920D01*
X47517157Y-36830609D01*
X47459448Y-36842088D01*
X47259448Y-36842088D01*
X47201739Y-36830609D01*
X47152816Y-36797920D01*
X47120127Y-36748997D01*
X47108648Y-36691288D01*
X47108648Y-35416288D01*
X47120127Y-35358579D01*
X47152816Y-35309656D01*
X47201739Y-35276967D01*
X47259448Y-35265488D01*
X47459448Y-35265488D01*
X47517157Y-35276967D01*
G37*
G36*
X48167157Y-35276967D02*
G01*
X48216080Y-35309656D01*
X48248769Y-35358579D01*
X48260248Y-35416288D01*
X48260248Y-36691288D01*
X48248769Y-36748997D01*
X48216080Y-36797920D01*
X48167157Y-36830609D01*
X48109448Y-36842088D01*
X47909448Y-36842088D01*
X47851739Y-36830609D01*
X47802816Y-36797920D01*
X47770127Y-36748997D01*
X47758648Y-36691288D01*
X47758648Y-35416288D01*
X47770127Y-35358579D01*
X47802816Y-35309656D01*
X47851739Y-35276967D01*
X47909448Y-35265488D01*
X48109448Y-35265488D01*
X48167157Y-35276967D01*
G37*
G36*
X48817157Y-35276967D02*
G01*
X48866080Y-35309656D01*
X48898769Y-35358579D01*
X48910248Y-35416288D01*
X48910248Y-36691288D01*
X48898769Y-36748997D01*
X48866080Y-36797920D01*
X48817157Y-36830609D01*
X48759448Y-36842088D01*
X48559448Y-36842088D01*
X48501739Y-36830609D01*
X48452816Y-36797920D01*
X48420127Y-36748997D01*
X48408648Y-36691288D01*
X48408648Y-35416288D01*
X48420127Y-35358579D01*
X48452816Y-35309656D01*
X48501739Y-35276967D01*
X48559448Y-35265488D01*
X48759448Y-35265488D01*
X48817157Y-35276967D01*
G37*
G36*
X49467157Y-35276967D02*
G01*
X49516080Y-35309656D01*
X49548769Y-35358579D01*
X49560248Y-35416288D01*
X49560248Y-36691288D01*
X49548769Y-36748997D01*
X49516080Y-36797920D01*
X49467157Y-36830609D01*
X49409448Y-36842088D01*
X49209448Y-36842088D01*
X49151739Y-36830609D01*
X49102816Y-36797920D01*
X49070127Y-36748997D01*
X49058648Y-36691288D01*
X49058648Y-35416288D01*
X49070127Y-35358579D01*
X49102816Y-35309656D01*
X49151739Y-35276967D01*
X49209448Y-35265488D01*
X49409448Y-35265488D01*
X49467157Y-35276967D01*
G37*
G36*
X50117157Y-35276967D02*
G01*
X50166080Y-35309656D01*
X50198769Y-35358579D01*
X50210248Y-35416288D01*
X50210248Y-36691288D01*
X50198769Y-36748997D01*
X50166080Y-36797920D01*
X50117157Y-36830609D01*
X50059448Y-36842088D01*
X49859448Y-36842088D01*
X49801739Y-36830609D01*
X49752816Y-36797920D01*
X49720127Y-36748997D01*
X49708648Y-36691288D01*
X49708648Y-35416288D01*
X49720127Y-35358579D01*
X49752816Y-35309656D01*
X49801739Y-35276967D01*
X49859448Y-35265488D01*
X50059448Y-35265488D01*
X50117157Y-35276967D01*
G37*
G36*
X50767157Y-35276967D02*
G01*
X50816080Y-35309656D01*
X50848769Y-35358579D01*
X50860248Y-35416288D01*
X50860248Y-36691288D01*
X50848769Y-36748997D01*
X50816080Y-36797920D01*
X50767157Y-36830609D01*
X50709448Y-36842088D01*
X50509448Y-36842088D01*
X50451739Y-36830609D01*
X50402816Y-36797920D01*
X50370127Y-36748997D01*
X50358648Y-36691288D01*
X50358648Y-35416288D01*
X50370127Y-35358579D01*
X50402816Y-35309656D01*
X50451739Y-35276967D01*
X50509448Y-35265488D01*
X50709448Y-35265488D01*
X50767157Y-35276967D01*
G37*
G36*
X51417157Y-35276967D02*
G01*
X51466080Y-35309656D01*
X51498769Y-35358579D01*
X51510248Y-35416288D01*
X51510248Y-36691288D01*
X51498769Y-36748997D01*
X51466080Y-36797920D01*
X51417157Y-36830609D01*
X51359448Y-36842088D01*
X51159448Y-36842088D01*
X51101739Y-36830609D01*
X51052816Y-36797920D01*
X51020127Y-36748997D01*
X51008648Y-36691288D01*
X51008648Y-35416288D01*
X51020127Y-35358579D01*
X51052816Y-35309656D01*
X51101739Y-35276967D01*
X51159448Y-35265488D01*
X51359448Y-35265488D01*
X51417157Y-35276967D01*
G37*
G36*
X55911440Y-35905067D02*
G01*
X55927921Y-35916079D01*
X55938933Y-35932560D01*
X55942800Y-35952000D01*
X55942800Y-36692000D01*
X55938933Y-36711440D01*
X55927921Y-36727921D01*
X55911440Y-36738933D01*
X55892000Y-36742800D01*
X53492000Y-36742800D01*
X53472560Y-36738933D01*
X53456079Y-36727921D01*
X53445067Y-36711440D01*
X53441200Y-36692000D01*
X53441200Y-35952000D01*
X53445067Y-35932560D01*
X53456079Y-35916079D01*
X53472560Y-35905067D01*
X53492000Y-35901200D01*
X55892000Y-35901200D01*
X55911440Y-35905067D01*
G37*
G36*
X59811440Y-35905067D02*
G01*
X59827921Y-35916079D01*
X59838933Y-35932560D01*
X59842800Y-35952000D01*
X59842800Y-36692000D01*
X59838933Y-36711440D01*
X59827921Y-36727921D01*
X59811440Y-36738933D01*
X59792000Y-36742800D01*
X57392000Y-36742800D01*
X57372560Y-36738933D01*
X57356079Y-36727921D01*
X57345067Y-36711440D01*
X57341200Y-36692000D01*
X57341200Y-35952000D01*
X57345067Y-35932560D01*
X57356079Y-35916079D01*
X57372560Y-35905067D01*
X57392000Y-35901200D01*
X59792000Y-35901200D01*
X59811440Y-35905067D01*
G37*
G36*
X37277358Y-35535968D02*
G01*
X37410200Y-35590993D01*
X37524274Y-35678526D01*
X37611807Y-35792600D01*
X37666832Y-35925442D01*
X37685600Y-36068000D01*
X37666832Y-36210558D01*
X37611807Y-36343400D01*
X37524274Y-36457474D01*
X37410200Y-36545007D01*
X37277358Y-36600032D01*
X37134800Y-36618800D01*
X36992242Y-36600032D01*
X36859400Y-36545007D01*
X36745326Y-36457474D01*
X36657793Y-36343400D01*
X36602768Y-36210558D01*
X36584000Y-36068000D01*
X36602768Y-35925442D01*
X36657793Y-35792600D01*
X36745326Y-35678526D01*
X36859400Y-35590993D01*
X36992242Y-35535968D01*
X37134800Y-35517200D01*
X37277358Y-35535968D01*
G37*
G36*
X40870777Y-34392691D02*
G01*
X41009697Y-34465602D01*
X41127131Y-34569640D01*
X41216255Y-34698758D01*
X41271889Y-34845453D01*
X41290800Y-35001200D01*
X41271889Y-35156947D01*
X41216255Y-35303642D01*
X41127131Y-35432760D01*
X41009697Y-35536798D01*
X40870777Y-35609709D01*
X40718445Y-35647255D01*
X40561555Y-35647255D01*
X40409223Y-35609709D01*
X40270303Y-35536798D01*
X40152869Y-35432760D01*
X40063745Y-35303642D01*
X40008111Y-35156947D01*
X39989200Y-35001200D01*
X40008111Y-34845453D01*
X40063745Y-34698758D01*
X40152869Y-34569640D01*
X40270303Y-34465602D01*
X40409223Y-34392691D01*
X40561555Y-34355145D01*
X40718445Y-34355145D01*
X40870777Y-34392691D01*
G37*
G36*
X43410777Y-34392691D02*
G01*
X43549697Y-34465602D01*
X43667131Y-34569640D01*
X43756255Y-34698758D01*
X43811889Y-34845453D01*
X43830800Y-35001200D01*
X43811889Y-35156947D01*
X43756255Y-35303642D01*
X43667131Y-35432760D01*
X43549697Y-35536798D01*
X43410777Y-35609709D01*
X43258445Y-35647255D01*
X43101555Y-35647255D01*
X42949223Y-35609709D01*
X42810303Y-35536798D01*
X42692869Y-35432760D01*
X42603745Y-35303642D01*
X42548111Y-35156947D01*
X42529200Y-35001200D01*
X42548111Y-34845453D01*
X42603745Y-34698758D01*
X42692869Y-34569640D01*
X42810303Y-34465602D01*
X42949223Y-34392691D01*
X43101555Y-34355145D01*
X43258445Y-34355145D01*
X43410777Y-34392691D01*
G37*
G36*
X30847590Y-33993511D02*
G01*
X30888402Y-34020781D01*
X30915672Y-34061593D01*
X30925248Y-34109735D01*
X30925248Y-34114718D01*
X30933002Y-34153705D01*
X31015890Y-34153707D01*
X31023648Y-34114705D01*
X31023648Y-34109735D01*
X31033224Y-34061593D01*
X31060494Y-34020781D01*
X31101306Y-33993511D01*
X31149448Y-33983935D01*
X31299448Y-33983935D01*
X31347590Y-33993511D01*
X31388402Y-34020781D01*
X31415672Y-34061593D01*
X31425248Y-34109735D01*
X31425248Y-34114718D01*
X31433002Y-34153705D01*
X31515890Y-34153707D01*
X31523648Y-34114705D01*
X31523648Y-34109735D01*
X31533224Y-34061593D01*
X31560494Y-34020781D01*
X31601306Y-33993511D01*
X31649448Y-33983935D01*
X31799448Y-33983935D01*
X31847590Y-33993511D01*
X31888402Y-34020781D01*
X31915672Y-34061593D01*
X31925248Y-34109735D01*
X31925248Y-34114718D01*
X31933002Y-34153705D01*
X32015890Y-34153707D01*
X32023648Y-34114705D01*
X32023648Y-34109735D01*
X32033224Y-34061593D01*
X32060494Y-34020781D01*
X32101306Y-33993511D01*
X32149448Y-33983935D01*
X32299448Y-33983935D01*
X32347590Y-33993511D01*
X32388402Y-34020781D01*
X32415672Y-34061593D01*
X32425248Y-34109735D01*
X32425248Y-34114718D01*
X32433002Y-34153705D01*
X32515890Y-34153707D01*
X32523648Y-34114705D01*
X32523648Y-34109735D01*
X32533224Y-34061593D01*
X32560494Y-34020781D01*
X32601306Y-33993511D01*
X32649448Y-33983935D01*
X32799448Y-33983935D01*
X32847590Y-33993511D01*
X32888402Y-34020781D01*
X32915672Y-34061593D01*
X32925248Y-34109735D01*
X32925248Y-35409735D01*
X32915672Y-35457877D01*
X32888402Y-35498689D01*
X32847590Y-35525959D01*
X32799448Y-35535535D01*
X32649448Y-35535535D01*
X32601306Y-35525959D01*
X32560494Y-35498689D01*
X32533224Y-35457877D01*
X32523648Y-35409735D01*
X32523648Y-35404758D01*
X32515892Y-35365763D01*
X32433004Y-35365763D01*
X32425248Y-35404755D01*
X32425248Y-35409735D01*
X32415672Y-35457877D01*
X32388402Y-35498689D01*
X32347590Y-35525959D01*
X32299448Y-35535535D01*
X32149448Y-35535535D01*
X32101306Y-35525959D01*
X32060494Y-35498689D01*
X32033224Y-35457877D01*
X32023648Y-35409735D01*
X32023648Y-35404758D01*
X32015892Y-35365763D01*
X31933004Y-35365763D01*
X31925248Y-35404755D01*
X31925248Y-35409735D01*
X31915672Y-35457877D01*
X31888402Y-35498689D01*
X31847590Y-35525959D01*
X31799448Y-35535535D01*
X31649448Y-35535535D01*
X31601306Y-35525959D01*
X31560494Y-35498689D01*
X31533224Y-35457877D01*
X31523648Y-35409735D01*
X31523648Y-35404758D01*
X31515892Y-35365763D01*
X31433004Y-35365763D01*
X31425248Y-35404755D01*
X31425248Y-35409735D01*
X31415672Y-35457877D01*
X31388402Y-35498689D01*
X31347590Y-35525959D01*
X31299448Y-35535535D01*
X31149448Y-35535535D01*
X31101306Y-35525959D01*
X31060494Y-35498689D01*
X31033224Y-35457877D01*
X31023648Y-35409735D01*
X31023648Y-35404758D01*
X31015892Y-35365763D01*
X30933004Y-35365763D01*
X30925248Y-35404755D01*
X30925248Y-35409735D01*
X30915672Y-35457877D01*
X30888402Y-35498689D01*
X30847590Y-35525959D01*
X30799448Y-35535535D01*
X30649448Y-35535535D01*
X30601306Y-35525959D01*
X30560494Y-35498689D01*
X30533224Y-35457877D01*
X30523648Y-35409735D01*
X30523648Y-34109735D01*
X30533224Y-34061593D01*
X30560494Y-34020781D01*
X30601306Y-33993511D01*
X30649448Y-33983935D01*
X30799448Y-33983935D01*
X30847590Y-33993511D01*
G37*
G36*
X47118868Y-32862190D02*
G01*
X47127573Y-32866033D01*
X47135146Y-32867137D01*
X47182477Y-32890276D01*
X47219993Y-32906841D01*
X47223467Y-32910315D01*
X47224383Y-32910763D01*
X47294236Y-32980616D01*
X47294683Y-32981531D01*
X47298159Y-32985007D01*
X47314730Y-33022538D01*
X47337860Y-33069850D01*
X47338962Y-33077418D01*
X47342810Y-33086132D01*
X47350800Y-33155000D01*
X47350800Y-34105000D01*
X47342810Y-34173868D01*
X47338964Y-34182576D01*
X47337862Y-34190146D01*
X47314733Y-34237455D01*
X47298159Y-34274993D01*
X47294682Y-34278469D01*
X47294236Y-34279383D01*
X47224383Y-34349236D01*
X47223469Y-34349682D01*
X47219993Y-34353159D01*
X47182450Y-34369735D01*
X47135149Y-34392860D01*
X47127581Y-34393962D01*
X47118868Y-34397810D01*
X47050000Y-34405800D01*
X46375000Y-34405800D01*
X46306132Y-34397810D01*
X46297423Y-34393964D01*
X46289853Y-34392862D01*
X46242533Y-34369728D01*
X46205007Y-34353159D01*
X46201531Y-34349683D01*
X46200616Y-34349236D01*
X46130763Y-34279383D01*
X46130315Y-34278467D01*
X46126841Y-34274993D01*
X46110273Y-34237471D01*
X46087139Y-34190149D01*
X46086036Y-34182578D01*
X46082190Y-34173868D01*
X46074200Y-34105000D01*
X46074200Y-33155000D01*
X46082190Y-33086132D01*
X46086033Y-33077427D01*
X46087137Y-33069853D01*
X46110280Y-33022512D01*
X46126841Y-32985007D01*
X46130314Y-32981533D01*
X46130763Y-32980616D01*
X46200616Y-32910763D01*
X46201533Y-32910314D01*
X46205007Y-32906841D01*
X46242517Y-32890278D01*
X46289850Y-32867139D01*
X46297421Y-32866035D01*
X46306132Y-32862190D01*
X46375000Y-32854200D01*
X47050000Y-32854200D01*
X47118868Y-32862190D01*
G37*
G36*
X49193868Y-32862190D02*
G01*
X49202573Y-32866033D01*
X49210146Y-32867137D01*
X49257477Y-32890276D01*
X49294993Y-32906841D01*
X49298467Y-32910315D01*
X49299383Y-32910763D01*
X49369236Y-32980616D01*
X49369683Y-32981531D01*
X49373159Y-32985007D01*
X49389730Y-33022538D01*
X49412860Y-33069850D01*
X49413962Y-33077418D01*
X49417810Y-33086132D01*
X49425800Y-33155000D01*
X49425800Y-34105000D01*
X49417810Y-34173868D01*
X49413964Y-34182576D01*
X49412862Y-34190146D01*
X49389733Y-34237455D01*
X49373159Y-34274993D01*
X49369682Y-34278469D01*
X49369236Y-34279383D01*
X49299383Y-34349236D01*
X49298469Y-34349682D01*
X49294993Y-34353159D01*
X49257450Y-34369735D01*
X49210149Y-34392860D01*
X49202581Y-34393962D01*
X49193868Y-34397810D01*
X49125000Y-34405800D01*
X48450000Y-34405800D01*
X48381132Y-34397810D01*
X48372423Y-34393964D01*
X48364853Y-34392862D01*
X48317533Y-34369728D01*
X48280007Y-34353159D01*
X48276531Y-34349683D01*
X48275616Y-34349236D01*
X48205763Y-34279383D01*
X48205315Y-34278467D01*
X48201841Y-34274993D01*
X48185273Y-34237471D01*
X48162139Y-34190149D01*
X48161036Y-34182578D01*
X48157190Y-34173868D01*
X48149200Y-34105000D01*
X48149200Y-33155000D01*
X48157190Y-33086132D01*
X48161033Y-33077427D01*
X48162137Y-33069853D01*
X48185280Y-33022512D01*
X48201841Y-32985007D01*
X48205314Y-32981533D01*
X48205763Y-32980616D01*
X48275616Y-32910763D01*
X48276533Y-32910314D01*
X48280007Y-32906841D01*
X48317517Y-32890278D01*
X48364850Y-32867139D01*
X48372421Y-32866035D01*
X48381132Y-32862190D01*
X48450000Y-32854200D01*
X49125000Y-32854200D01*
X49193868Y-32862190D01*
G37*
G36*
X28864868Y-32893790D02*
G01*
X28873573Y-32897633D01*
X28881146Y-32898737D01*
X28928477Y-32921876D01*
X28965993Y-32938441D01*
X28969467Y-32941915D01*
X28970383Y-32942363D01*
X29040236Y-33012216D01*
X29040683Y-33013131D01*
X29044159Y-33016607D01*
X29060730Y-33054138D01*
X29083860Y-33101450D01*
X29084962Y-33109018D01*
X29088810Y-33117732D01*
X29096800Y-33186600D01*
X29096800Y-33861600D01*
X29088810Y-33930468D01*
X29084964Y-33939176D01*
X29083862Y-33946746D01*
X29060733Y-33994055D01*
X29044159Y-34031593D01*
X29040682Y-34035069D01*
X29040236Y-34035983D01*
X28970383Y-34105836D01*
X28969469Y-34106282D01*
X28965993Y-34109759D01*
X28928450Y-34126335D01*
X28881149Y-34149460D01*
X28873581Y-34150562D01*
X28864868Y-34154410D01*
X28796000Y-34162400D01*
X27846000Y-34162400D01*
X27777132Y-34154410D01*
X27768423Y-34150564D01*
X27760853Y-34149462D01*
X27713533Y-34126328D01*
X27676007Y-34109759D01*
X27672531Y-34106283D01*
X27671616Y-34105836D01*
X27601763Y-34035983D01*
X27601315Y-34035067D01*
X27597841Y-34031593D01*
X27581273Y-33994071D01*
X27558139Y-33946749D01*
X27557036Y-33939178D01*
X27553190Y-33930468D01*
X27545200Y-33861600D01*
X27545200Y-33186600D01*
X27553190Y-33117732D01*
X27557033Y-33109027D01*
X27558137Y-33101453D01*
X27581280Y-33054112D01*
X27597841Y-33016607D01*
X27601314Y-33013133D01*
X27601763Y-33012216D01*
X27671616Y-32942363D01*
X27672533Y-32941914D01*
X27676007Y-32938441D01*
X27713517Y-32921878D01*
X27760850Y-32898739D01*
X27768421Y-32897635D01*
X27777132Y-32893790D01*
X27846000Y-32885800D01*
X28796000Y-32885800D01*
X28864868Y-32893790D01*
G37*
G36*
X32683888Y-31722802D02*
G01*
X32700369Y-31733814D01*
X32711381Y-31750295D01*
X32715248Y-31769735D01*
X32715248Y-33449735D01*
X32711381Y-33469175D01*
X32700369Y-33485656D01*
X32683888Y-33496668D01*
X32664448Y-33500535D01*
X30784448Y-33500535D01*
X30765008Y-33496668D01*
X30748527Y-33485656D01*
X30737515Y-33469175D01*
X30733648Y-33449735D01*
X30733648Y-31769735D01*
X30737515Y-31750295D01*
X30748527Y-31733814D01*
X30765008Y-31722802D01*
X30784448Y-31718935D01*
X32664448Y-31718935D01*
X32683888Y-31722802D01*
G37*
G36*
X35532618Y-31686925D02*
G01*
X35541323Y-31690768D01*
X35548896Y-31691872D01*
X35596227Y-31715011D01*
X35633743Y-31731576D01*
X35637217Y-31735050D01*
X35638133Y-31735498D01*
X35707986Y-31805351D01*
X35708433Y-31806266D01*
X35711909Y-31809742D01*
X35728480Y-31847273D01*
X35751610Y-31894585D01*
X35752712Y-31902153D01*
X35756560Y-31910867D01*
X35764550Y-31979735D01*
X35764550Y-32679735D01*
X35756560Y-32748603D01*
X35752714Y-32757311D01*
X35751612Y-32764881D01*
X35728483Y-32812190D01*
X35711909Y-32849728D01*
X35708432Y-32853204D01*
X35707986Y-32854118D01*
X35638133Y-32923971D01*
X35637219Y-32924417D01*
X35633743Y-32927894D01*
X35596200Y-32944470D01*
X35548899Y-32967595D01*
X35541331Y-32968697D01*
X35532618Y-32972545D01*
X35463750Y-32980535D01*
X34563750Y-32980535D01*
X34494882Y-32972545D01*
X34486173Y-32968699D01*
X34478603Y-32967597D01*
X34431283Y-32944463D01*
X34393757Y-32927894D01*
X34390281Y-32924418D01*
X34389366Y-32923971D01*
X34319513Y-32854118D01*
X34319065Y-32853202D01*
X34315591Y-32849728D01*
X34299023Y-32812206D01*
X34275889Y-32764884D01*
X34274786Y-32757313D01*
X34270940Y-32748603D01*
X34262950Y-32679735D01*
X34262950Y-31979735D01*
X34270940Y-31910867D01*
X34274783Y-31902162D01*
X34275887Y-31894588D01*
X34299030Y-31847247D01*
X34315591Y-31809742D01*
X34319064Y-31806268D01*
X34319513Y-31805351D01*
X34389366Y-31735498D01*
X34390283Y-31735049D01*
X34393757Y-31731576D01*
X34431267Y-31715013D01*
X34478600Y-31691874D01*
X34486171Y-31690770D01*
X34494882Y-31686925D01*
X34563750Y-31678935D01*
X35463750Y-31678935D01*
X35532618Y-31686925D01*
G37*
G36*
X37636618Y-31682425D02*
G01*
X37645323Y-31686268D01*
X37652896Y-31687372D01*
X37700227Y-31710511D01*
X37737743Y-31727076D01*
X37741217Y-31730550D01*
X37742133Y-31730998D01*
X37811986Y-31800851D01*
X37812433Y-31801766D01*
X37815909Y-31805242D01*
X37832480Y-31842773D01*
X37855610Y-31890085D01*
X37856712Y-31897653D01*
X37860560Y-31906367D01*
X37868550Y-31975235D01*
X37868550Y-32675235D01*
X37860560Y-32744103D01*
X37856714Y-32752811D01*
X37855612Y-32760381D01*
X37832483Y-32807690D01*
X37815909Y-32845228D01*
X37812432Y-32848704D01*
X37811986Y-32849618D01*
X37742133Y-32919471D01*
X37741219Y-32919917D01*
X37737743Y-32923394D01*
X37700200Y-32939970D01*
X37652899Y-32963095D01*
X37645331Y-32964197D01*
X37636618Y-32968045D01*
X37567750Y-32976035D01*
X36667750Y-32976035D01*
X36598882Y-32968045D01*
X36590173Y-32964199D01*
X36582603Y-32963097D01*
X36535283Y-32939963D01*
X36497757Y-32923394D01*
X36494281Y-32919918D01*
X36493366Y-32919471D01*
X36423513Y-32849618D01*
X36423065Y-32848702D01*
X36419591Y-32845228D01*
X36403023Y-32807706D01*
X36379889Y-32760384D01*
X36378786Y-32752813D01*
X36374940Y-32744103D01*
X36366950Y-32675235D01*
X36366950Y-31975235D01*
X36374940Y-31906367D01*
X36378783Y-31897662D01*
X36379887Y-31890088D01*
X36403030Y-31842747D01*
X36419591Y-31805242D01*
X36423064Y-31801768D01*
X36423513Y-31800851D01*
X36493366Y-31730998D01*
X36494283Y-31730549D01*
X36497757Y-31727076D01*
X36535267Y-31710513D01*
X36582600Y-31687374D01*
X36590171Y-31686270D01*
X36598882Y-31682425D01*
X36667750Y-31674435D01*
X37567750Y-31674435D01*
X37636618Y-31682425D01*
G37*
G36*
X47168868Y-30687190D02*
G01*
X47177573Y-30691033D01*
X47185146Y-30692137D01*
X47232477Y-30715276D01*
X47269993Y-30731841D01*
X47273467Y-30735315D01*
X47274383Y-30735763D01*
X47344236Y-30805616D01*
X47344683Y-30806531D01*
X47348159Y-30810007D01*
X47364730Y-30847538D01*
X47387860Y-30894850D01*
X47388962Y-30902418D01*
X47392810Y-30911132D01*
X47400800Y-30980000D01*
X47400800Y-31880000D01*
X47392810Y-31948868D01*
X47388964Y-31957576D01*
X47387862Y-31965146D01*
X47364733Y-32012455D01*
X47348159Y-32049993D01*
X47344682Y-32053469D01*
X47344236Y-32054383D01*
X47274383Y-32124236D01*
X47273469Y-32124682D01*
X47269993Y-32128159D01*
X47232450Y-32144735D01*
X47185149Y-32167860D01*
X47177581Y-32168962D01*
X47168868Y-32172810D01*
X47100000Y-32180800D01*
X46400000Y-32180800D01*
X46331132Y-32172810D01*
X46322423Y-32168964D01*
X46314853Y-32167862D01*
X46267533Y-32144728D01*
X46230007Y-32128159D01*
X46226531Y-32124683D01*
X46225616Y-32124236D01*
X46155763Y-32054383D01*
X46155315Y-32053467D01*
X46151841Y-32049993D01*
X46135273Y-32012471D01*
X46112139Y-31965149D01*
X46111036Y-31957578D01*
X46107190Y-31948868D01*
X46099200Y-31880000D01*
X46099200Y-30980000D01*
X46107190Y-30911132D01*
X46111033Y-30902427D01*
X46112137Y-30894853D01*
X46135280Y-30847512D01*
X46151841Y-30810007D01*
X46155314Y-30806533D01*
X46155763Y-30805616D01*
X46225616Y-30735763D01*
X46226533Y-30735314D01*
X46230007Y-30731841D01*
X46267517Y-30715278D01*
X46314850Y-30692139D01*
X46322421Y-30691035D01*
X46331132Y-30687190D01*
X46400000Y-30679200D01*
X47100000Y-30679200D01*
X47168868Y-30687190D01*
G37*
G36*
X49168868Y-30687190D02*
G01*
X49177573Y-30691033D01*
X49185146Y-30692137D01*
X49232477Y-30715276D01*
X49269993Y-30731841D01*
X49273467Y-30735315D01*
X49274383Y-30735763D01*
X49344236Y-30805616D01*
X49344683Y-30806531D01*
X49348159Y-30810007D01*
X49364730Y-30847538D01*
X49387860Y-30894850D01*
X49388962Y-30902418D01*
X49392810Y-30911132D01*
X49400800Y-30980000D01*
X49400800Y-31880000D01*
X49392810Y-31948868D01*
X49388964Y-31957576D01*
X49387862Y-31965146D01*
X49364733Y-32012455D01*
X49348159Y-32049993D01*
X49344682Y-32053469D01*
X49344236Y-32054383D01*
X49274383Y-32124236D01*
X49273469Y-32124682D01*
X49269993Y-32128159D01*
X49232450Y-32144735D01*
X49185149Y-32167860D01*
X49177581Y-32168962D01*
X49168868Y-32172810D01*
X49100000Y-32180800D01*
X48400000Y-32180800D01*
X48331132Y-32172810D01*
X48322423Y-32168964D01*
X48314853Y-32167862D01*
X48267533Y-32144728D01*
X48230007Y-32128159D01*
X48226531Y-32124683D01*
X48225616Y-32124236D01*
X48155763Y-32054383D01*
X48155315Y-32053467D01*
X48151841Y-32049993D01*
X48135273Y-32012471D01*
X48112139Y-31965149D01*
X48111036Y-31957578D01*
X48107190Y-31948868D01*
X48099200Y-31880000D01*
X48099200Y-30980000D01*
X48107190Y-30911132D01*
X48111033Y-30902427D01*
X48112137Y-30894853D01*
X48135280Y-30847512D01*
X48151841Y-30810007D01*
X48155314Y-30806533D01*
X48155763Y-30805616D01*
X48225616Y-30735763D01*
X48226533Y-30735314D01*
X48230007Y-30731841D01*
X48267517Y-30715278D01*
X48314850Y-30692139D01*
X48322421Y-30691035D01*
X48331132Y-30687190D01*
X48400000Y-30679200D01*
X49100000Y-30679200D01*
X49168868Y-30687190D01*
G37*
G36*
X28864868Y-30818790D02*
G01*
X28873573Y-30822633D01*
X28881146Y-30823737D01*
X28928477Y-30846876D01*
X28965993Y-30863441D01*
X28969467Y-30866915D01*
X28970383Y-30867363D01*
X29040236Y-30937216D01*
X29040683Y-30938131D01*
X29044159Y-30941607D01*
X29060730Y-30979138D01*
X29083860Y-31026450D01*
X29084962Y-31034018D01*
X29088810Y-31042732D01*
X29096800Y-31111600D01*
X29096800Y-31786600D01*
X29088810Y-31855468D01*
X29084964Y-31864176D01*
X29083862Y-31871746D01*
X29060733Y-31919055D01*
X29044159Y-31956593D01*
X29040682Y-31960069D01*
X29040236Y-31960983D01*
X28970383Y-32030836D01*
X28969469Y-32031282D01*
X28965993Y-32034759D01*
X28928450Y-32051335D01*
X28881149Y-32074460D01*
X28873581Y-32075562D01*
X28864868Y-32079410D01*
X28796000Y-32087400D01*
X27846000Y-32087400D01*
X27777132Y-32079410D01*
X27768423Y-32075564D01*
X27760853Y-32074462D01*
X27713533Y-32051328D01*
X27676007Y-32034759D01*
X27672531Y-32031283D01*
X27671616Y-32030836D01*
X27601763Y-31960983D01*
X27601315Y-31960067D01*
X27597841Y-31956593D01*
X27581273Y-31919071D01*
X27558139Y-31871749D01*
X27557036Y-31864178D01*
X27553190Y-31855468D01*
X27545200Y-31786600D01*
X27545200Y-31111600D01*
X27553190Y-31042732D01*
X27557033Y-31034027D01*
X27558137Y-31026453D01*
X27581280Y-30979112D01*
X27597841Y-30941607D01*
X27601314Y-30938133D01*
X27601763Y-30937216D01*
X27671616Y-30867363D01*
X27672533Y-30866914D01*
X27676007Y-30863441D01*
X27713517Y-30846878D01*
X27760850Y-30823739D01*
X27768421Y-30822635D01*
X27777132Y-30818790D01*
X27846000Y-30810800D01*
X28796000Y-30810800D01*
X28864868Y-30818790D01*
G37*
G36*
X51069558Y-30907968D02*
G01*
X51202400Y-30962993D01*
X51316474Y-31050526D01*
X51404007Y-31164600D01*
X51459032Y-31297442D01*
X51477800Y-31440000D01*
X51459032Y-31582558D01*
X51404007Y-31715400D01*
X51316474Y-31829474D01*
X51202400Y-31917007D01*
X51069558Y-31972032D01*
X50927000Y-31990800D01*
X50784442Y-31972032D01*
X50651600Y-31917007D01*
X50537526Y-31829474D01*
X50449993Y-31715400D01*
X50394968Y-31582558D01*
X50376200Y-31440000D01*
X50394968Y-31297442D01*
X50449993Y-31164600D01*
X50537526Y-31050526D01*
X50651600Y-30962993D01*
X50784442Y-30907968D01*
X50927000Y-30889200D01*
X51069558Y-30907968D01*
G37*
G36*
X30847590Y-29693511D02*
G01*
X30888402Y-29720781D01*
X30915672Y-29761593D01*
X30925248Y-29809735D01*
X30925248Y-29814718D01*
X30933002Y-29853705D01*
X31015890Y-29853707D01*
X31023648Y-29814705D01*
X31023648Y-29809735D01*
X31033224Y-29761593D01*
X31060494Y-29720781D01*
X31101306Y-29693511D01*
X31149448Y-29683935D01*
X31299448Y-29683935D01*
X31347590Y-29693511D01*
X31388402Y-29720781D01*
X31415672Y-29761593D01*
X31425248Y-29809735D01*
X31425248Y-29814718D01*
X31433002Y-29853705D01*
X31515890Y-29853707D01*
X31523648Y-29814705D01*
X31523648Y-29809735D01*
X31533224Y-29761593D01*
X31560494Y-29720781D01*
X31601306Y-29693511D01*
X31649448Y-29683935D01*
X31799448Y-29683935D01*
X31847590Y-29693511D01*
X31888402Y-29720781D01*
X31915672Y-29761593D01*
X31925248Y-29809735D01*
X31925248Y-29814718D01*
X31933002Y-29853705D01*
X32015890Y-29853707D01*
X32023648Y-29814705D01*
X32023648Y-29809735D01*
X32033224Y-29761593D01*
X32060494Y-29720781D01*
X32101306Y-29693511D01*
X32149448Y-29683935D01*
X32299448Y-29683935D01*
X32347590Y-29693511D01*
X32388402Y-29720781D01*
X32415672Y-29761593D01*
X32425248Y-29809735D01*
X32425248Y-29814718D01*
X32433002Y-29853705D01*
X32515890Y-29853707D01*
X32523648Y-29814705D01*
X32523648Y-29809735D01*
X32533224Y-29761593D01*
X32560494Y-29720781D01*
X32601306Y-29693511D01*
X32649448Y-29683935D01*
X32799448Y-29683935D01*
X32847590Y-29693511D01*
X32888402Y-29720781D01*
X32915672Y-29761593D01*
X32925248Y-29809735D01*
X32925248Y-31109735D01*
X32915672Y-31157877D01*
X32888402Y-31198689D01*
X32847590Y-31225959D01*
X32799448Y-31235535D01*
X32649448Y-31235535D01*
X32601306Y-31225959D01*
X32560494Y-31198689D01*
X32533224Y-31157877D01*
X32523648Y-31109735D01*
X32523648Y-31104758D01*
X32515892Y-31065763D01*
X32433004Y-31065763D01*
X32425248Y-31104755D01*
X32425248Y-31109735D01*
X32415672Y-31157877D01*
X32388402Y-31198689D01*
X32347590Y-31225959D01*
X32299448Y-31235535D01*
X32149448Y-31235535D01*
X32101306Y-31225959D01*
X32060494Y-31198689D01*
X32033224Y-31157877D01*
X32023648Y-31109735D01*
X32023648Y-31104758D01*
X32015892Y-31065763D01*
X31933004Y-31065763D01*
X31925248Y-31104755D01*
X31925248Y-31109735D01*
X31915672Y-31157877D01*
X31888402Y-31198689D01*
X31847590Y-31225959D01*
X31799448Y-31235535D01*
X31649448Y-31235535D01*
X31601306Y-31225959D01*
X31560494Y-31198689D01*
X31533224Y-31157877D01*
X31523648Y-31109735D01*
X31523648Y-31104758D01*
X31515892Y-31065763D01*
X31433004Y-31065763D01*
X31425248Y-31104755D01*
X31425248Y-31109735D01*
X31415672Y-31157877D01*
X31388402Y-31198689D01*
X31347590Y-31225959D01*
X31299448Y-31235535D01*
X31149448Y-31235535D01*
X31101306Y-31225959D01*
X31060494Y-31198689D01*
X31033224Y-31157877D01*
X31023648Y-31109735D01*
X31023648Y-31104758D01*
X31015892Y-31065763D01*
X30933004Y-31065763D01*
X30925248Y-31104755D01*
X30925248Y-31109735D01*
X30915672Y-31157877D01*
X30888402Y-31198689D01*
X30847590Y-31225959D01*
X30799448Y-31235535D01*
X30649448Y-31235535D01*
X30601306Y-31225959D01*
X30560494Y-31198689D01*
X30533224Y-31157877D01*
X30523648Y-31109735D01*
X30523648Y-29809735D01*
X30533224Y-29761593D01*
X30560494Y-29720781D01*
X30601306Y-29693511D01*
X30649448Y-29683935D01*
X30799448Y-29683935D01*
X30847590Y-29693511D01*
G37*
G36*
X35532618Y-29686925D02*
G01*
X35541323Y-29690768D01*
X35548896Y-29691872D01*
X35596227Y-29715011D01*
X35633743Y-29731576D01*
X35637217Y-29735050D01*
X35638133Y-29735498D01*
X35707986Y-29805351D01*
X35708433Y-29806266D01*
X35711909Y-29809742D01*
X35728480Y-29847273D01*
X35751610Y-29894585D01*
X35752712Y-29902153D01*
X35756560Y-29910867D01*
X35764550Y-29979735D01*
X35764550Y-30679735D01*
X35756560Y-30748603D01*
X35752714Y-30757311D01*
X35751612Y-30764881D01*
X35728483Y-30812190D01*
X35711909Y-30849728D01*
X35708432Y-30853204D01*
X35707986Y-30854118D01*
X35638133Y-30923971D01*
X35637219Y-30924417D01*
X35633743Y-30927894D01*
X35596200Y-30944470D01*
X35548899Y-30967595D01*
X35541331Y-30968697D01*
X35532618Y-30972545D01*
X35463750Y-30980535D01*
X34563750Y-30980535D01*
X34494882Y-30972545D01*
X34486173Y-30968699D01*
X34478603Y-30967597D01*
X34431283Y-30944463D01*
X34393757Y-30927894D01*
X34390281Y-30924418D01*
X34389366Y-30923971D01*
X34319513Y-30854118D01*
X34319065Y-30853202D01*
X34315591Y-30849728D01*
X34299023Y-30812206D01*
X34275889Y-30764884D01*
X34274786Y-30757313D01*
X34270940Y-30748603D01*
X34262950Y-30679735D01*
X34262950Y-29979735D01*
X34270940Y-29910867D01*
X34274783Y-29902162D01*
X34275887Y-29894588D01*
X34299030Y-29847247D01*
X34315591Y-29809742D01*
X34319064Y-29806268D01*
X34319513Y-29805351D01*
X34389366Y-29735498D01*
X34390283Y-29735049D01*
X34393757Y-29731576D01*
X34431267Y-29715013D01*
X34478600Y-29691874D01*
X34486171Y-29690770D01*
X34494882Y-29686925D01*
X34563750Y-29678935D01*
X35463750Y-29678935D01*
X35532618Y-29686925D01*
G37*
G36*
X37636618Y-29682425D02*
G01*
X37645323Y-29686268D01*
X37652896Y-29687372D01*
X37700227Y-29710511D01*
X37737743Y-29727076D01*
X37741217Y-29730550D01*
X37742133Y-29730998D01*
X37811986Y-29800851D01*
X37812433Y-29801766D01*
X37815909Y-29805242D01*
X37832480Y-29842773D01*
X37855610Y-29890085D01*
X37856712Y-29897653D01*
X37860560Y-29906367D01*
X37868550Y-29975235D01*
X37868550Y-30675235D01*
X37860560Y-30744103D01*
X37856714Y-30752811D01*
X37855612Y-30760381D01*
X37832483Y-30807690D01*
X37815909Y-30845228D01*
X37812432Y-30848704D01*
X37811986Y-30849618D01*
X37742133Y-30919471D01*
X37741219Y-30919917D01*
X37737743Y-30923394D01*
X37700200Y-30939970D01*
X37652899Y-30963095D01*
X37645331Y-30964197D01*
X37636618Y-30968045D01*
X37567750Y-30976035D01*
X36667750Y-30976035D01*
X36598882Y-30968045D01*
X36590173Y-30964199D01*
X36582603Y-30963097D01*
X36535283Y-30939963D01*
X36497757Y-30923394D01*
X36494281Y-30919918D01*
X36493366Y-30919471D01*
X36423513Y-30849618D01*
X36423065Y-30848702D01*
X36419591Y-30845228D01*
X36403023Y-30807706D01*
X36379889Y-30760384D01*
X36378786Y-30752813D01*
X36374940Y-30744103D01*
X36366950Y-30675235D01*
X36366950Y-29975235D01*
X36374940Y-29906367D01*
X36378783Y-29897662D01*
X36379887Y-29890088D01*
X36403030Y-29842747D01*
X36419591Y-29805242D01*
X36423064Y-29801768D01*
X36423513Y-29800851D01*
X36493366Y-29730998D01*
X36494283Y-29730549D01*
X36497757Y-29727076D01*
X36535267Y-29710513D01*
X36582600Y-29687374D01*
X36590171Y-29686270D01*
X36598882Y-29682425D01*
X36667750Y-29674435D01*
X37567750Y-29674435D01*
X37636618Y-29682425D01*
G37*
G36*
X46921843Y-27914485D02*
G01*
X46986987Y-27958013D01*
X47030515Y-28023157D01*
X47045800Y-28100000D01*
X47045800Y-29750000D01*
X47030515Y-29826843D01*
X46986987Y-29891987D01*
X46921843Y-29935515D01*
X46845000Y-29950800D01*
X46545000Y-29950800D01*
X46468157Y-29935515D01*
X46403013Y-29891987D01*
X46359485Y-29826843D01*
X46344200Y-29750000D01*
X46344200Y-28100000D01*
X46359485Y-28023157D01*
X46403013Y-27958013D01*
X46468157Y-27914485D01*
X46545000Y-27899200D01*
X46845000Y-27899200D01*
X46921843Y-27914485D01*
G37*
G36*
X48191843Y-27914485D02*
G01*
X48256987Y-27958013D01*
X48300515Y-28023157D01*
X48315800Y-28100000D01*
X48315800Y-29750000D01*
X48300515Y-29826843D01*
X48256987Y-29891987D01*
X48191843Y-29935515D01*
X48115000Y-29950800D01*
X47815000Y-29950800D01*
X47738157Y-29935515D01*
X47673013Y-29891987D01*
X47629485Y-29826843D01*
X47614200Y-29750000D01*
X47614200Y-28100000D01*
X47629485Y-28023157D01*
X47673013Y-27958013D01*
X47738157Y-27914485D01*
X47815000Y-27899200D01*
X48115000Y-27899200D01*
X48191843Y-27914485D01*
G37*
G36*
X49461843Y-27914485D02*
G01*
X49526987Y-27958013D01*
X49570515Y-28023157D01*
X49585800Y-28100000D01*
X49585800Y-29750000D01*
X49570515Y-29826843D01*
X49526987Y-29891987D01*
X49461843Y-29935515D01*
X49385000Y-29950800D01*
X49085000Y-29950800D01*
X49008157Y-29935515D01*
X48943013Y-29891987D01*
X48899485Y-29826843D01*
X48884200Y-29750000D01*
X48884200Y-28100000D01*
X48899485Y-28023157D01*
X48943013Y-27958013D01*
X49008157Y-27914485D01*
X49085000Y-27899200D01*
X49385000Y-27899200D01*
X49461843Y-27914485D01*
G37*
G36*
X50731843Y-27914485D02*
G01*
X50796987Y-27958013D01*
X50840515Y-28023157D01*
X50855800Y-28100000D01*
X50855800Y-29750000D01*
X50840515Y-29826843D01*
X50796987Y-29891987D01*
X50731843Y-29935515D01*
X50655000Y-29950800D01*
X50355000Y-29950800D01*
X50278157Y-29935515D01*
X50213013Y-29891987D01*
X50169485Y-29826843D01*
X50154200Y-29750000D01*
X50154200Y-28100000D01*
X50169485Y-28023157D01*
X50213013Y-27958013D01*
X50278157Y-27914485D01*
X50355000Y-27899200D01*
X50655000Y-27899200D01*
X50731843Y-27914485D01*
G37*
G36*
X53323868Y-28201178D02*
G01*
X53332573Y-28205021D01*
X53340146Y-28206125D01*
X53387477Y-28229264D01*
X53424993Y-28245829D01*
X53428467Y-28249303D01*
X53429383Y-28249751D01*
X53499236Y-28319604D01*
X53499683Y-28320519D01*
X53503159Y-28323995D01*
X53519730Y-28361526D01*
X53542860Y-28408838D01*
X53543962Y-28416406D01*
X53547810Y-28425120D01*
X53555800Y-28493988D01*
X53555800Y-29168988D01*
X53547810Y-29237856D01*
X53543964Y-29246564D01*
X53542862Y-29254134D01*
X53519733Y-29301443D01*
X53503159Y-29338981D01*
X53499682Y-29342457D01*
X53499236Y-29343371D01*
X53429383Y-29413224D01*
X53428469Y-29413670D01*
X53424993Y-29417147D01*
X53387450Y-29433723D01*
X53340149Y-29456848D01*
X53332581Y-29457950D01*
X53323868Y-29461798D01*
X53255000Y-29469788D01*
X52305000Y-29469788D01*
X52236132Y-29461798D01*
X52227423Y-29457952D01*
X52219853Y-29456850D01*
X52172533Y-29433716D01*
X52135007Y-29417147D01*
X52131531Y-29413671D01*
X52130616Y-29413224D01*
X52060763Y-29343371D01*
X52060315Y-29342455D01*
X52056841Y-29338981D01*
X52040273Y-29301459D01*
X52017139Y-29254137D01*
X52016036Y-29246566D01*
X52012190Y-29237856D01*
X52004200Y-29168988D01*
X52004200Y-28493988D01*
X52012190Y-28425120D01*
X52016033Y-28416415D01*
X52017137Y-28408841D01*
X52040280Y-28361500D01*
X52056841Y-28323995D01*
X52060314Y-28320521D01*
X52060763Y-28319604D01*
X52130616Y-28249751D01*
X52131533Y-28249302D01*
X52135007Y-28245829D01*
X52172517Y-28229266D01*
X52219850Y-28206127D01*
X52227421Y-28205023D01*
X52236132Y-28201178D01*
X52305000Y-28193188D01*
X53255000Y-28193188D01*
X53323868Y-28201178D01*
G37*
G36*
X32768316Y-27077190D02*
G01*
X32777021Y-27081033D01*
X32784594Y-27082137D01*
X32831925Y-27105276D01*
X32869441Y-27121841D01*
X32872915Y-27125315D01*
X32873831Y-27125763D01*
X32943684Y-27195616D01*
X32944131Y-27196531D01*
X32947607Y-27200007D01*
X32964178Y-27237538D01*
X32987308Y-27284850D01*
X32988410Y-27292418D01*
X32992258Y-27301132D01*
X33000248Y-27370000D01*
X33000248Y-28045000D01*
X32992258Y-28113868D01*
X32988412Y-28122576D01*
X32987310Y-28130146D01*
X32964181Y-28177455D01*
X32947607Y-28214993D01*
X32944130Y-28218469D01*
X32943684Y-28219383D01*
X32873831Y-28289236D01*
X32872917Y-28289682D01*
X32869441Y-28293159D01*
X32831898Y-28309735D01*
X32784597Y-28332860D01*
X32777029Y-28333962D01*
X32768316Y-28337810D01*
X32699448Y-28345800D01*
X31749448Y-28345800D01*
X31680580Y-28337810D01*
X31671871Y-28333964D01*
X31664301Y-28332862D01*
X31616981Y-28309728D01*
X31579455Y-28293159D01*
X31575979Y-28289683D01*
X31575064Y-28289236D01*
X31505211Y-28219383D01*
X31504763Y-28218467D01*
X31501289Y-28214993D01*
X31484721Y-28177471D01*
X31461587Y-28130149D01*
X31460484Y-28122578D01*
X31456638Y-28113868D01*
X31448648Y-28045000D01*
X31448648Y-27370000D01*
X31456638Y-27301132D01*
X31460481Y-27292427D01*
X31461585Y-27284853D01*
X31484728Y-27237512D01*
X31501289Y-27200007D01*
X31504762Y-27196533D01*
X31505211Y-27195616D01*
X31575064Y-27125763D01*
X31575981Y-27125314D01*
X31579455Y-27121841D01*
X31616965Y-27105278D01*
X31664298Y-27082139D01*
X31671869Y-27081035D01*
X31680580Y-27077190D01*
X31749448Y-27069200D01*
X32699448Y-27069200D01*
X32768316Y-27077190D01*
G37*
G36*
X30538868Y-26997190D02*
G01*
X30547573Y-27001033D01*
X30555146Y-27002137D01*
X30602477Y-27025276D01*
X30639993Y-27041841D01*
X30643467Y-27045315D01*
X30644383Y-27045763D01*
X30714236Y-27115616D01*
X30714683Y-27116531D01*
X30718159Y-27120007D01*
X30734730Y-27157538D01*
X30757860Y-27204850D01*
X30758962Y-27212418D01*
X30762810Y-27221132D01*
X30770800Y-27290000D01*
X30770800Y-27990000D01*
X30762810Y-28058868D01*
X30758964Y-28067576D01*
X30757862Y-28075146D01*
X30734733Y-28122455D01*
X30718159Y-28159993D01*
X30714682Y-28163469D01*
X30714236Y-28164383D01*
X30644383Y-28234236D01*
X30643469Y-28234682D01*
X30639993Y-28238159D01*
X30602450Y-28254735D01*
X30555149Y-28277860D01*
X30547581Y-28278962D01*
X30538868Y-28282810D01*
X30470000Y-28290800D01*
X29570000Y-28290800D01*
X29501132Y-28282810D01*
X29492423Y-28278964D01*
X29484853Y-28277862D01*
X29437533Y-28254728D01*
X29400007Y-28238159D01*
X29396531Y-28234683D01*
X29395616Y-28234236D01*
X29325763Y-28164383D01*
X29325315Y-28163467D01*
X29321841Y-28159993D01*
X29305273Y-28122471D01*
X29282139Y-28075149D01*
X29281036Y-28067578D01*
X29277190Y-28058868D01*
X29269200Y-27990000D01*
X29269200Y-27290000D01*
X29277190Y-27221132D01*
X29281033Y-27212427D01*
X29282137Y-27204853D01*
X29305280Y-27157512D01*
X29321841Y-27120007D01*
X29325314Y-27116533D01*
X29325763Y-27115616D01*
X29395616Y-27045763D01*
X29396533Y-27045314D01*
X29400007Y-27041841D01*
X29437517Y-27025278D01*
X29484850Y-27002139D01*
X29492421Y-27001035D01*
X29501132Y-26997190D01*
X29570000Y-26989200D01*
X30470000Y-26989200D01*
X30538868Y-26997190D01*
G37*
G36*
X53323868Y-26126178D02*
G01*
X53332573Y-26130021D01*
X53340146Y-26131125D01*
X53387477Y-26154264D01*
X53424993Y-26170829D01*
X53428467Y-26174303D01*
X53429383Y-26174751D01*
X53499236Y-26244604D01*
X53499683Y-26245519D01*
X53503159Y-26248995D01*
X53519730Y-26286526D01*
X53542860Y-26333838D01*
X53543962Y-26341406D01*
X53547810Y-26350120D01*
X53555800Y-26418988D01*
X53555800Y-27093988D01*
X53547810Y-27162856D01*
X53543964Y-27171564D01*
X53542862Y-27179134D01*
X53519733Y-27226443D01*
X53503159Y-27263981D01*
X53499682Y-27267457D01*
X53499236Y-27268371D01*
X53429383Y-27338224D01*
X53428469Y-27338670D01*
X53424993Y-27342147D01*
X53387450Y-27358723D01*
X53340149Y-27381848D01*
X53332581Y-27382950D01*
X53323868Y-27386798D01*
X53255000Y-27394788D01*
X52305000Y-27394788D01*
X52236132Y-27386798D01*
X52227423Y-27382952D01*
X52219853Y-27381850D01*
X52172533Y-27358716D01*
X52135007Y-27342147D01*
X52131531Y-27338671D01*
X52130616Y-27338224D01*
X52060763Y-27268371D01*
X52060315Y-27267455D01*
X52056841Y-27263981D01*
X52040273Y-27226459D01*
X52017139Y-27179137D01*
X52016036Y-27171566D01*
X52012190Y-27162856D01*
X52004200Y-27093988D01*
X52004200Y-26418988D01*
X52012190Y-26350120D01*
X52016033Y-26341415D01*
X52017137Y-26333841D01*
X52040280Y-26286500D01*
X52056841Y-26248995D01*
X52060314Y-26245521D01*
X52060763Y-26244604D01*
X52130616Y-26174751D01*
X52131533Y-26174302D01*
X52135007Y-26170829D01*
X52172517Y-26154266D01*
X52219850Y-26131127D01*
X52227421Y-26130023D01*
X52236132Y-26126178D01*
X52305000Y-26118188D01*
X53255000Y-26118188D01*
X53323868Y-26126178D01*
G37*
G36*
X30538868Y-24997190D02*
G01*
X30547573Y-25001033D01*
X30555146Y-25002137D01*
X30602477Y-25025276D01*
X30639993Y-25041841D01*
X30643467Y-25045315D01*
X30644383Y-25045763D01*
X30714236Y-25115616D01*
X30714683Y-25116531D01*
X30718159Y-25120007D01*
X30734730Y-25157538D01*
X30757860Y-25204850D01*
X30758962Y-25212418D01*
X30762810Y-25221132D01*
X30770800Y-25290000D01*
X30770800Y-25990000D01*
X30762810Y-26058868D01*
X30758964Y-26067576D01*
X30757862Y-26075146D01*
X30734733Y-26122455D01*
X30718159Y-26159993D01*
X30714682Y-26163469D01*
X30714236Y-26164383D01*
X30644383Y-26234236D01*
X30643469Y-26234682D01*
X30639993Y-26238159D01*
X30602450Y-26254735D01*
X30555149Y-26277860D01*
X30547581Y-26278962D01*
X30538868Y-26282810D01*
X30470000Y-26290800D01*
X29570000Y-26290800D01*
X29501132Y-26282810D01*
X29492423Y-26278964D01*
X29484853Y-26277862D01*
X29437533Y-26254728D01*
X29400007Y-26238159D01*
X29396531Y-26234683D01*
X29395616Y-26234236D01*
X29325763Y-26164383D01*
X29325315Y-26163467D01*
X29321841Y-26159993D01*
X29305273Y-26122471D01*
X29282139Y-26075149D01*
X29281036Y-26067578D01*
X29277190Y-26058868D01*
X29269200Y-25990000D01*
X29269200Y-25290000D01*
X29277190Y-25221132D01*
X29281033Y-25212427D01*
X29282137Y-25204853D01*
X29305280Y-25157512D01*
X29321841Y-25120007D01*
X29325314Y-25116533D01*
X29325763Y-25115616D01*
X29395616Y-25045763D01*
X29396533Y-25045314D01*
X29400007Y-25041841D01*
X29437517Y-25025278D01*
X29484850Y-25002139D01*
X29492421Y-25001035D01*
X29501132Y-24997190D01*
X29570000Y-24989200D01*
X30470000Y-24989200D01*
X30538868Y-24997190D01*
G37*
G36*
X42568868Y-24982190D02*
G01*
X42577573Y-24986033D01*
X42585146Y-24987137D01*
X42632477Y-25010276D01*
X42669993Y-25026841D01*
X42673467Y-25030315D01*
X42674383Y-25030763D01*
X42744236Y-25100616D01*
X42744683Y-25101531D01*
X42748159Y-25105007D01*
X42764730Y-25142538D01*
X42787860Y-25189850D01*
X42788962Y-25197418D01*
X42792810Y-25206132D01*
X42800800Y-25275000D01*
X42800800Y-25975000D01*
X42792810Y-26043868D01*
X42788964Y-26052576D01*
X42787862Y-26060146D01*
X42764733Y-26107455D01*
X42748159Y-26144993D01*
X42744682Y-26148469D01*
X42744236Y-26149383D01*
X42674383Y-26219236D01*
X42673469Y-26219682D01*
X42669993Y-26223159D01*
X42632450Y-26239735D01*
X42585149Y-26262860D01*
X42577581Y-26263962D01*
X42568868Y-26267810D01*
X42500000Y-26275800D01*
X41600000Y-26275800D01*
X41531132Y-26267810D01*
X41522423Y-26263964D01*
X41514853Y-26262862D01*
X41467533Y-26239728D01*
X41430007Y-26223159D01*
X41426531Y-26219683D01*
X41425616Y-26219236D01*
X41355763Y-26149383D01*
X41355315Y-26148467D01*
X41351841Y-26144993D01*
X41335273Y-26107471D01*
X41312139Y-26060149D01*
X41311036Y-26052578D01*
X41307190Y-26043868D01*
X41299200Y-25975000D01*
X41299200Y-25275000D01*
X41307190Y-25206132D01*
X41311033Y-25197427D01*
X41312137Y-25189853D01*
X41335280Y-25142512D01*
X41351841Y-25105007D01*
X41355314Y-25101533D01*
X41355763Y-25100616D01*
X41425616Y-25030763D01*
X41426533Y-25030314D01*
X41430007Y-25026841D01*
X41467517Y-25010278D01*
X41514850Y-24987139D01*
X41522421Y-24986035D01*
X41531132Y-24982190D01*
X41600000Y-24974200D01*
X42500000Y-24974200D01*
X42568868Y-24982190D01*
G37*
G36*
X44712856Y-24982190D02*
G01*
X44721561Y-24986033D01*
X44729134Y-24987137D01*
X44776465Y-25010276D01*
X44813981Y-25026841D01*
X44817455Y-25030315D01*
X44818371Y-25030763D01*
X44888224Y-25100616D01*
X44888671Y-25101531D01*
X44892147Y-25105007D01*
X44908718Y-25142538D01*
X44931848Y-25189850D01*
X44932950Y-25197418D01*
X44936798Y-25206132D01*
X44944788Y-25275000D01*
X44944788Y-25975000D01*
X44936798Y-26043868D01*
X44932952Y-26052576D01*
X44931850Y-26060146D01*
X44908721Y-26107455D01*
X44892147Y-26144993D01*
X44888670Y-26148469D01*
X44888224Y-26149383D01*
X44818371Y-26219236D01*
X44817457Y-26219682D01*
X44813981Y-26223159D01*
X44776438Y-26239735D01*
X44729137Y-26262860D01*
X44721569Y-26263962D01*
X44712856Y-26267810D01*
X44643988Y-26275800D01*
X43743988Y-26275800D01*
X43675120Y-26267810D01*
X43666411Y-26263964D01*
X43658841Y-26262862D01*
X43611521Y-26239728D01*
X43573995Y-26223159D01*
X43570519Y-26219683D01*
X43569604Y-26219236D01*
X43499751Y-26149383D01*
X43499303Y-26148467D01*
X43495829Y-26144993D01*
X43479261Y-26107471D01*
X43456127Y-26060149D01*
X43455024Y-26052578D01*
X43451178Y-26043868D01*
X43443188Y-25975000D01*
X43443188Y-25275000D01*
X43451178Y-25206132D01*
X43455021Y-25197427D01*
X43456125Y-25189853D01*
X43479268Y-25142512D01*
X43495829Y-25105007D01*
X43499302Y-25101533D01*
X43499751Y-25100616D01*
X43569604Y-25030763D01*
X43570521Y-25030314D01*
X43573995Y-25026841D01*
X43611505Y-25010278D01*
X43658838Y-24987139D01*
X43666409Y-24986035D01*
X43675120Y-24982190D01*
X43743988Y-24974200D01*
X44643988Y-24974200D01*
X44712856Y-24982190D01*
G37*
G36*
X32768316Y-25002190D02*
G01*
X32777021Y-25006033D01*
X32784594Y-25007137D01*
X32831925Y-25030276D01*
X32869441Y-25046841D01*
X32872915Y-25050315D01*
X32873831Y-25050763D01*
X32943684Y-25120616D01*
X32944131Y-25121531D01*
X32947607Y-25125007D01*
X32964178Y-25162538D01*
X32987308Y-25209850D01*
X32988410Y-25217418D01*
X32992258Y-25226132D01*
X33000248Y-25295000D01*
X33000248Y-25970000D01*
X32992258Y-26038868D01*
X32988412Y-26047576D01*
X32987310Y-26055146D01*
X32964181Y-26102455D01*
X32947607Y-26139993D01*
X32944130Y-26143469D01*
X32943684Y-26144383D01*
X32873831Y-26214236D01*
X32872917Y-26214682D01*
X32869441Y-26218159D01*
X32831898Y-26234735D01*
X32784597Y-26257860D01*
X32777029Y-26258962D01*
X32768316Y-26262810D01*
X32699448Y-26270800D01*
X31749448Y-26270800D01*
X31680580Y-26262810D01*
X31671871Y-26258964D01*
X31664301Y-26257862D01*
X31616981Y-26234728D01*
X31579455Y-26218159D01*
X31575979Y-26214683D01*
X31575064Y-26214236D01*
X31505211Y-26144383D01*
X31504763Y-26143467D01*
X31501289Y-26139993D01*
X31484721Y-26102471D01*
X31461587Y-26055149D01*
X31460484Y-26047578D01*
X31456638Y-26038868D01*
X31448648Y-25970000D01*
X31448648Y-25295000D01*
X31456638Y-25226132D01*
X31460481Y-25217427D01*
X31461585Y-25209853D01*
X31484728Y-25162512D01*
X31501289Y-25125007D01*
X31504762Y-25121533D01*
X31505211Y-25120616D01*
X31575064Y-25050763D01*
X31575981Y-25050314D01*
X31579455Y-25046841D01*
X31616965Y-25030278D01*
X31664298Y-25007139D01*
X31671869Y-25006035D01*
X31680580Y-25002190D01*
X31749448Y-24994200D01*
X32699448Y-24994200D01*
X32768316Y-25002190D01*
G37*
G36*
X24314931Y-22870731D02*
G01*
X24512956Y-22947446D01*
X24693512Y-23059242D01*
X24850451Y-23202311D01*
X24978430Y-23371782D01*
X25073089Y-23561883D01*
X25131205Y-23766141D01*
X25150800Y-23977600D01*
X25131205Y-24189059D01*
X25073089Y-24393317D01*
X24978430Y-24583418D01*
X24850451Y-24752889D01*
X24693512Y-24895958D01*
X24512956Y-25007754D01*
X24314931Y-25084469D01*
X24106182Y-25123491D01*
X23893818Y-25123491D01*
X23685069Y-25084469D01*
X23487044Y-25007754D01*
X23306488Y-24895958D01*
X23149549Y-24752889D01*
X23021570Y-24583418D01*
X22926911Y-24393317D01*
X22868795Y-24189059D01*
X22849200Y-23977600D01*
X22868795Y-23766141D01*
X22926911Y-23561883D01*
X23021570Y-23371782D01*
X23149549Y-23202311D01*
X23306488Y-23059242D01*
X23487044Y-22947446D01*
X23685069Y-22870731D01*
X23893818Y-22831709D01*
X24106182Y-22831709D01*
X24314931Y-22870731D01*
G37*
G36*
X60314931Y-22870731D02*
G01*
X60512956Y-22947446D01*
X60693512Y-23059242D01*
X60850451Y-23202311D01*
X60978430Y-23371782D01*
X61073089Y-23561883D01*
X61131205Y-23766141D01*
X61150800Y-23977600D01*
X61131205Y-24189059D01*
X61073089Y-24393317D01*
X60978430Y-24583418D01*
X60850451Y-24752889D01*
X60693512Y-24895958D01*
X60512956Y-25007754D01*
X60314931Y-25084469D01*
X60106182Y-25123491D01*
X59893818Y-25123491D01*
X59685069Y-25084469D01*
X59487044Y-25007754D01*
X59306488Y-24895958D01*
X59149549Y-24752889D01*
X59021570Y-24583418D01*
X58926911Y-24393317D01*
X58868795Y-24189059D01*
X58849200Y-23977600D01*
X58868795Y-23766141D01*
X58926911Y-23561883D01*
X59021570Y-23371782D01*
X59149549Y-23202311D01*
X59306488Y-23059242D01*
X59487044Y-22947446D01*
X59685069Y-22870731D01*
X59893818Y-22831709D01*
X60106182Y-22831709D01*
X60314931Y-22870731D01*
G37*
G36*
X46921843Y-22964485D02*
G01*
X46986987Y-23008013D01*
X47030515Y-23073157D01*
X47045800Y-23150000D01*
X47045800Y-24800000D01*
X47030515Y-24876843D01*
X46986987Y-24941987D01*
X46921843Y-24985515D01*
X46845000Y-25000800D01*
X46545000Y-25000800D01*
X46468157Y-24985515D01*
X46403013Y-24941987D01*
X46359485Y-24876843D01*
X46344200Y-24800000D01*
X46344200Y-23150000D01*
X46359485Y-23073157D01*
X46403013Y-23008013D01*
X46468157Y-22964485D01*
X46545000Y-22949200D01*
X46845000Y-22949200D01*
X46921843Y-22964485D01*
G37*
G36*
X48191843Y-22964485D02*
G01*
X48256987Y-23008013D01*
X48300515Y-23073157D01*
X48315800Y-23150000D01*
X48315800Y-24800000D01*
X48300515Y-24876843D01*
X48256987Y-24941987D01*
X48191843Y-24985515D01*
X48115000Y-25000800D01*
X47815000Y-25000800D01*
X47738157Y-24985515D01*
X47673013Y-24941987D01*
X47629485Y-24876843D01*
X47614200Y-24800000D01*
X47614200Y-23150000D01*
X47629485Y-23073157D01*
X47673013Y-23008013D01*
X47738157Y-22964485D01*
X47815000Y-22949200D01*
X48115000Y-22949200D01*
X48191843Y-22964485D01*
G37*
G36*
X49461843Y-22964485D02*
G01*
X49526987Y-23008013D01*
X49570515Y-23073157D01*
X49585800Y-23150000D01*
X49585800Y-24800000D01*
X49570515Y-24876843D01*
X49526987Y-24941987D01*
X49461843Y-24985515D01*
X49385000Y-25000800D01*
X49085000Y-25000800D01*
X49008157Y-24985515D01*
X48943013Y-24941987D01*
X48899485Y-24876843D01*
X48884200Y-24800000D01*
X48884200Y-23150000D01*
X48899485Y-23073157D01*
X48943013Y-23008013D01*
X49008157Y-22964485D01*
X49085000Y-22949200D01*
X49385000Y-22949200D01*
X49461843Y-22964485D01*
G37*
G36*
X50731843Y-22964485D02*
G01*
X50796987Y-23008013D01*
X50840515Y-23073157D01*
X50855800Y-23150000D01*
X50855800Y-24800000D01*
X50840515Y-24876843D01*
X50796987Y-24941987D01*
X50731843Y-24985515D01*
X50655000Y-25000800D01*
X50355000Y-25000800D01*
X50278157Y-24985515D01*
X50213013Y-24941987D01*
X50169485Y-24876843D01*
X50154200Y-24800000D01*
X50154200Y-23150000D01*
X50169485Y-23073157D01*
X50213013Y-23008013D01*
X50278157Y-22964485D01*
X50355000Y-22949200D01*
X50655000Y-22949200D01*
X50731843Y-22964485D01*
G37*
G36*
X42568868Y-22982190D02*
G01*
X42577573Y-22986033D01*
X42585146Y-22987137D01*
X42632477Y-23010276D01*
X42669993Y-23026841D01*
X42673467Y-23030315D01*
X42674383Y-23030763D01*
X42744236Y-23100616D01*
X42744683Y-23101531D01*
X42748159Y-23105007D01*
X42764730Y-23142538D01*
X42787860Y-23189850D01*
X42788962Y-23197418D01*
X42792810Y-23206132D01*
X42800800Y-23275000D01*
X42800800Y-23975000D01*
X42792810Y-24043868D01*
X42788964Y-24052576D01*
X42787862Y-24060146D01*
X42764733Y-24107455D01*
X42748159Y-24144993D01*
X42744682Y-24148469D01*
X42744236Y-24149383D01*
X42674383Y-24219236D01*
X42673469Y-24219682D01*
X42669993Y-24223159D01*
X42632450Y-24239735D01*
X42585149Y-24262860D01*
X42577581Y-24263962D01*
X42568868Y-24267810D01*
X42500000Y-24275800D01*
X41600000Y-24275800D01*
X41531132Y-24267810D01*
X41522423Y-24263964D01*
X41514853Y-24262862D01*
X41467533Y-24239728D01*
X41430007Y-24223159D01*
X41426531Y-24219683D01*
X41425616Y-24219236D01*
X41355763Y-24149383D01*
X41355315Y-24148467D01*
X41351841Y-24144993D01*
X41335273Y-24107471D01*
X41312139Y-24060149D01*
X41311036Y-24052578D01*
X41307190Y-24043868D01*
X41299200Y-23975000D01*
X41299200Y-23275000D01*
X41307190Y-23206132D01*
X41311033Y-23197427D01*
X41312137Y-23189853D01*
X41335280Y-23142512D01*
X41351841Y-23105007D01*
X41355314Y-23101533D01*
X41355763Y-23100616D01*
X41425616Y-23030763D01*
X41426533Y-23030314D01*
X41430007Y-23026841D01*
X41467517Y-23010278D01*
X41514850Y-22987139D01*
X41522421Y-22986035D01*
X41531132Y-22982190D01*
X41600000Y-22974200D01*
X42500000Y-22974200D01*
X42568868Y-22982190D01*
G37*
G36*
X44712856Y-22982190D02*
G01*
X44721561Y-22986033D01*
X44729134Y-22987137D01*
X44776465Y-23010276D01*
X44813981Y-23026841D01*
X44817455Y-23030315D01*
X44818371Y-23030763D01*
X44888224Y-23100616D01*
X44888671Y-23101531D01*
X44892147Y-23105007D01*
X44908718Y-23142538D01*
X44931848Y-23189850D01*
X44932950Y-23197418D01*
X44936798Y-23206132D01*
X44944788Y-23275000D01*
X44944788Y-23975000D01*
X44936798Y-24043868D01*
X44932952Y-24052576D01*
X44931850Y-24060146D01*
X44908721Y-24107455D01*
X44892147Y-24144993D01*
X44888670Y-24148469D01*
X44888224Y-24149383D01*
X44818371Y-24219236D01*
X44817457Y-24219682D01*
X44813981Y-24223159D01*
X44776438Y-24239735D01*
X44729137Y-24262860D01*
X44721569Y-24263962D01*
X44712856Y-24267810D01*
X44643988Y-24275800D01*
X43743988Y-24275800D01*
X43675120Y-24267810D01*
X43666411Y-24263964D01*
X43658841Y-24262862D01*
X43611521Y-24239728D01*
X43573995Y-24223159D01*
X43570519Y-24219683D01*
X43569604Y-24219236D01*
X43499751Y-24149383D01*
X43499303Y-24148467D01*
X43495829Y-24144993D01*
X43479261Y-24107471D01*
X43456127Y-24060149D01*
X43455024Y-24052578D01*
X43451178Y-24043868D01*
X43443188Y-23975000D01*
X43443188Y-23275000D01*
X43451178Y-23206132D01*
X43455021Y-23197427D01*
X43456125Y-23189853D01*
X43479268Y-23142512D01*
X43495829Y-23105007D01*
X43499302Y-23101533D01*
X43499751Y-23100616D01*
X43569604Y-23030763D01*
X43570521Y-23030314D01*
X43573995Y-23026841D01*
X43611505Y-23010278D01*
X43658838Y-22987139D01*
X43666409Y-22986035D01*
X43675120Y-22982190D01*
X43743988Y-22974200D01*
X44643988Y-22974200D01*
X44712856Y-22982190D01*
G37*
G36*
X40147558Y-23089968D02*
G01*
X40280400Y-23144993D01*
X40394474Y-23232526D01*
X40482007Y-23346600D01*
X40537032Y-23479442D01*
X40555800Y-23622000D01*
X40537032Y-23764558D01*
X40482007Y-23897400D01*
X40394474Y-24011474D01*
X40280400Y-24099007D01*
X40147558Y-24154032D01*
X40005000Y-24172800D01*
X39862442Y-24154032D01*
X39729600Y-24099007D01*
X39615526Y-24011474D01*
X39527993Y-23897400D01*
X39472968Y-23764558D01*
X39454200Y-23622000D01*
X39472968Y-23479442D01*
X39527993Y-23346600D01*
X39615526Y-23232526D01*
X39729600Y-23144993D01*
X39862442Y-23089968D01*
X40005000Y-23071200D01*
X40147558Y-23089968D01*
G37*
M02*
