%TF.GenerationSoftware,KiCad,Pcbnew,8.0.2*%
%TF.CreationDate,2025-01-07T16:45:11-05:00*%
%TF.ProjectId,Transimpedence,5472616e-7369-46d7-9065-64656e63652e,rev?*%
%TF.SameCoordinates,Original*%
%TF.FileFunction,Soldermask,Bot*%
%TF.FilePolarity,Negative*%
%FSLAX46Y46*%
G04 Gerber Fmt 4.6, Leading zero omitted, Abs format (unit mm)*
G04 Created by KiCad (PCBNEW 8.0.2) date 2025-01-07 16:45:11*
%MOMM*%
%LPD*%
G01*
G04 APERTURE LIST*
G04 APERTURE END LIST*
G36*
X24314931Y-44893131D02*
G01*
X24512956Y-44969846D01*
X24693512Y-45081642D01*
X24850451Y-45224711D01*
X24978430Y-45394182D01*
X25073089Y-45584283D01*
X25131205Y-45788541D01*
X25150800Y-46000000D01*
X25131205Y-46211459D01*
X25073089Y-46415717D01*
X24978430Y-46605818D01*
X24850451Y-46775289D01*
X24693512Y-46918358D01*
X24512956Y-47030154D01*
X24314931Y-47106869D01*
X24106182Y-47145891D01*
X23893818Y-47145891D01*
X23685069Y-47106869D01*
X23487044Y-47030154D01*
X23306488Y-46918358D01*
X23149549Y-46775289D01*
X23021570Y-46605818D01*
X22926911Y-46415717D01*
X22868795Y-46211459D01*
X22849200Y-46000000D01*
X22868795Y-45788541D01*
X22926911Y-45584283D01*
X23021570Y-45394182D01*
X23149549Y-45224711D01*
X23306488Y-45081642D01*
X23487044Y-44969846D01*
X23685069Y-44893131D01*
X23893818Y-44854109D01*
X24106182Y-44854109D01*
X24314931Y-44893131D01*
G37*
G36*
X60314931Y-44893131D02*
G01*
X60512956Y-44969846D01*
X60693512Y-45081642D01*
X60850451Y-45224711D01*
X60978430Y-45394182D01*
X61073089Y-45584283D01*
X61131205Y-45788541D01*
X61150800Y-46000000D01*
X61131205Y-46211459D01*
X61073089Y-46415717D01*
X60978430Y-46605818D01*
X60850451Y-46775289D01*
X60693512Y-46918358D01*
X60512956Y-47030154D01*
X60314931Y-47106869D01*
X60106182Y-47145891D01*
X59893818Y-47145891D01*
X59685069Y-47106869D01*
X59487044Y-47030154D01*
X59306488Y-46918358D01*
X59149549Y-46775289D01*
X59021570Y-46605818D01*
X58926911Y-46415717D01*
X58868795Y-46211459D01*
X58849200Y-46000000D01*
X58868795Y-45788541D01*
X58926911Y-45584283D01*
X59021570Y-45394182D01*
X59149549Y-45224711D01*
X59306488Y-45081642D01*
X59487044Y-44969846D01*
X59685069Y-44893131D01*
X59893818Y-44854109D01*
X60106182Y-44854109D01*
X60314931Y-44893131D01*
G37*
G36*
X56675854Y-40210657D02*
G01*
X56709551Y-40210657D01*
X56748186Y-40220179D01*
X56787146Y-40225309D01*
X56813815Y-40236356D01*
X56840731Y-40242990D01*
X56881537Y-40264407D01*
X56922400Y-40281333D01*
X56941043Y-40295638D01*
X56960360Y-40305777D01*
X56999860Y-40340771D01*
X57038545Y-40370455D01*
X57049537Y-40384780D01*
X57061486Y-40395366D01*
X57095744Y-40444997D01*
X57127667Y-40486600D01*
X57132479Y-40498217D01*
X57138236Y-40506558D01*
X57163208Y-40572404D01*
X57183691Y-40621854D01*
X57184610Y-40628836D01*
X57186143Y-40632878D01*
X57198014Y-40730651D01*
X57202800Y-40767000D01*
X57198014Y-40803351D01*
X57186143Y-40901121D01*
X57184610Y-40905161D01*
X57183691Y-40912146D01*
X57163203Y-40961606D01*
X57138236Y-41027441D01*
X57132480Y-41035779D01*
X57127667Y-41047400D01*
X57095737Y-41089011D01*
X57061486Y-41138633D01*
X57049540Y-41149216D01*
X57038545Y-41163545D01*
X56999852Y-41193235D01*
X56960360Y-41228222D01*
X56941047Y-41238358D01*
X56922400Y-41252667D01*
X56881528Y-41269596D01*
X56840731Y-41291009D01*
X56813820Y-41297642D01*
X56787146Y-41308691D01*
X56748184Y-41313820D01*
X56709551Y-41323343D01*
X56675854Y-41323343D01*
X56642000Y-41327800D01*
X56608146Y-41323343D01*
X56574449Y-41323343D01*
X56535815Y-41313820D01*
X56496854Y-41308691D01*
X56470180Y-41297642D01*
X56443268Y-41291009D01*
X56402466Y-41269594D01*
X56361600Y-41252667D01*
X56342954Y-41238359D01*
X56323639Y-41228222D01*
X56284140Y-41193229D01*
X56245455Y-41163545D01*
X56234462Y-41149218D01*
X56222513Y-41138633D01*
X56188252Y-41088998D01*
X56156333Y-41047400D01*
X56151521Y-41035783D01*
X56145763Y-41027441D01*
X56120784Y-40961577D01*
X56100309Y-40912146D01*
X56099390Y-40905165D01*
X56097856Y-40901121D01*
X56085972Y-40803253D01*
X56081200Y-40767000D01*
X56085972Y-40730749D01*
X56097856Y-40632878D01*
X56099390Y-40628832D01*
X56100309Y-40621854D01*
X56120779Y-40572433D01*
X56145763Y-40506558D01*
X56151522Y-40498214D01*
X56156333Y-40486600D01*
X56188245Y-40445010D01*
X56222513Y-40395366D01*
X56234464Y-40384778D01*
X56245455Y-40370455D01*
X56284132Y-40340776D01*
X56323639Y-40305777D01*
X56342958Y-40295637D01*
X56361600Y-40281333D01*
X56402457Y-40264409D01*
X56443268Y-40242990D01*
X56470185Y-40236355D01*
X56496854Y-40225309D01*
X56535812Y-40220179D01*
X56574449Y-40210657D01*
X56608146Y-40210657D01*
X56642000Y-40206200D01*
X56675854Y-40210657D01*
G37*
G36*
X56675854Y-36400657D02*
G01*
X56709551Y-36400657D01*
X56748186Y-36410179D01*
X56787146Y-36415309D01*
X56813815Y-36426356D01*
X56840731Y-36432990D01*
X56881537Y-36454407D01*
X56922400Y-36471333D01*
X56941043Y-36485638D01*
X56960360Y-36495777D01*
X56999860Y-36530771D01*
X57038545Y-36560455D01*
X57049537Y-36574780D01*
X57061486Y-36585366D01*
X57095744Y-36634997D01*
X57127667Y-36676600D01*
X57132479Y-36688217D01*
X57138236Y-36696558D01*
X57163208Y-36762404D01*
X57183691Y-36811854D01*
X57184610Y-36818836D01*
X57186143Y-36822878D01*
X57198014Y-36920651D01*
X57202800Y-36957000D01*
X57198014Y-36993351D01*
X57186143Y-37091121D01*
X57184610Y-37095161D01*
X57183691Y-37102146D01*
X57163203Y-37151606D01*
X57138236Y-37217441D01*
X57132480Y-37225779D01*
X57127667Y-37237400D01*
X57095737Y-37279011D01*
X57061486Y-37328633D01*
X57049540Y-37339216D01*
X57038545Y-37353545D01*
X56999852Y-37383235D01*
X56960360Y-37418222D01*
X56941047Y-37428358D01*
X56922400Y-37442667D01*
X56881528Y-37459596D01*
X56840731Y-37481009D01*
X56813820Y-37487642D01*
X56787146Y-37498691D01*
X56748184Y-37503820D01*
X56709551Y-37513343D01*
X56675854Y-37513343D01*
X56642000Y-37517800D01*
X56608146Y-37513343D01*
X56574449Y-37513343D01*
X56535815Y-37503820D01*
X56496854Y-37498691D01*
X56470180Y-37487642D01*
X56443268Y-37481009D01*
X56402466Y-37459594D01*
X56361600Y-37442667D01*
X56342954Y-37428359D01*
X56323639Y-37418222D01*
X56284140Y-37383229D01*
X56245455Y-37353545D01*
X56234462Y-37339218D01*
X56222513Y-37328633D01*
X56188252Y-37278998D01*
X56156333Y-37237400D01*
X56151521Y-37225783D01*
X56145763Y-37217441D01*
X56120784Y-37151577D01*
X56100309Y-37102146D01*
X56099390Y-37095165D01*
X56097856Y-37091121D01*
X56085972Y-36993253D01*
X56081200Y-36957000D01*
X56085972Y-36920749D01*
X56097856Y-36822878D01*
X56099390Y-36818832D01*
X56100309Y-36811854D01*
X56120779Y-36762433D01*
X56145763Y-36696558D01*
X56151522Y-36688214D01*
X56156333Y-36676600D01*
X56188245Y-36635010D01*
X56222513Y-36585366D01*
X56234464Y-36574778D01*
X56245455Y-36560455D01*
X56284132Y-36530776D01*
X56323639Y-36495777D01*
X56342958Y-36485637D01*
X56361600Y-36471333D01*
X56402457Y-36454409D01*
X56443268Y-36432990D01*
X56470185Y-36426355D01*
X56496854Y-36415309D01*
X56535812Y-36410179D01*
X56574449Y-36400657D01*
X56608146Y-36400657D01*
X56642000Y-36396200D01*
X56675854Y-36400657D01*
G37*
G36*
X42140777Y-35662691D02*
G01*
X42279697Y-35735602D01*
X42397131Y-35839640D01*
X42486255Y-35968758D01*
X42541889Y-36115453D01*
X42560800Y-36271200D01*
X42541889Y-36426947D01*
X42486255Y-36573642D01*
X42397131Y-36702760D01*
X42279697Y-36806798D01*
X42140777Y-36879709D01*
X41988445Y-36917255D01*
X41831555Y-36917255D01*
X41679223Y-36879709D01*
X41540303Y-36806798D01*
X41422869Y-36702760D01*
X41333745Y-36573642D01*
X41278111Y-36426947D01*
X41259200Y-36271200D01*
X41278111Y-36115453D01*
X41333745Y-35968758D01*
X41422869Y-35839640D01*
X41540303Y-35735602D01*
X41679223Y-35662691D01*
X41831555Y-35625145D01*
X41988445Y-35625145D01*
X42140777Y-35662691D01*
G37*
G36*
X40870777Y-34392691D02*
G01*
X41009697Y-34465602D01*
X41127131Y-34569640D01*
X41216255Y-34698758D01*
X41271889Y-34845453D01*
X41290800Y-35001200D01*
X41271889Y-35156947D01*
X41216255Y-35303642D01*
X41127131Y-35432760D01*
X41009697Y-35536798D01*
X40870777Y-35609709D01*
X40718445Y-35647255D01*
X40561555Y-35647255D01*
X40409223Y-35609709D01*
X40270303Y-35536798D01*
X40152869Y-35432760D01*
X40063745Y-35303642D01*
X40008111Y-35156947D01*
X39989200Y-35001200D01*
X40008111Y-34845453D01*
X40063745Y-34698758D01*
X40152869Y-34569640D01*
X40270303Y-34465602D01*
X40409223Y-34392691D01*
X40561555Y-34355145D01*
X40718445Y-34355145D01*
X40870777Y-34392691D01*
G37*
G36*
X43410777Y-34392691D02*
G01*
X43549697Y-34465602D01*
X43667131Y-34569640D01*
X43756255Y-34698758D01*
X43811889Y-34845453D01*
X43830800Y-35001200D01*
X43811889Y-35156947D01*
X43756255Y-35303642D01*
X43667131Y-35432760D01*
X43549697Y-35536798D01*
X43410777Y-35609709D01*
X43258445Y-35647255D01*
X43101555Y-35647255D01*
X42949223Y-35609709D01*
X42810303Y-35536798D01*
X42692869Y-35432760D01*
X42603745Y-35303642D01*
X42548111Y-35156947D01*
X42529200Y-35001200D01*
X42548111Y-34845453D01*
X42603745Y-34698758D01*
X42692869Y-34569640D01*
X42810303Y-34465602D01*
X42949223Y-34392691D01*
X43101555Y-34355145D01*
X43258445Y-34355145D01*
X43410777Y-34392691D01*
G37*
G36*
X24314931Y-22870731D02*
G01*
X24512956Y-22947446D01*
X24693512Y-23059242D01*
X24850451Y-23202311D01*
X24978430Y-23371782D01*
X25073089Y-23561883D01*
X25131205Y-23766141D01*
X25150800Y-23977600D01*
X25131205Y-24189059D01*
X25073089Y-24393317D01*
X24978430Y-24583418D01*
X24850451Y-24752889D01*
X24693512Y-24895958D01*
X24512956Y-25007754D01*
X24314931Y-25084469D01*
X24106182Y-25123491D01*
X23893818Y-25123491D01*
X23685069Y-25084469D01*
X23487044Y-25007754D01*
X23306488Y-24895958D01*
X23149549Y-24752889D01*
X23021570Y-24583418D01*
X22926911Y-24393317D01*
X22868795Y-24189059D01*
X22849200Y-23977600D01*
X22868795Y-23766141D01*
X22926911Y-23561883D01*
X23021570Y-23371782D01*
X23149549Y-23202311D01*
X23306488Y-23059242D01*
X23487044Y-22947446D01*
X23685069Y-22870731D01*
X23893818Y-22831709D01*
X24106182Y-22831709D01*
X24314931Y-22870731D01*
G37*
G36*
X60314931Y-22870731D02*
G01*
X60512956Y-22947446D01*
X60693512Y-23059242D01*
X60850451Y-23202311D01*
X60978430Y-23371782D01*
X61073089Y-23561883D01*
X61131205Y-23766141D01*
X61150800Y-23977600D01*
X61131205Y-24189059D01*
X61073089Y-24393317D01*
X60978430Y-24583418D01*
X60850451Y-24752889D01*
X60693512Y-24895958D01*
X60512956Y-25007754D01*
X60314931Y-25084469D01*
X60106182Y-25123491D01*
X59893818Y-25123491D01*
X59685069Y-25084469D01*
X59487044Y-25007754D01*
X59306488Y-24895958D01*
X59149549Y-24752889D01*
X59021570Y-24583418D01*
X58926911Y-24393317D01*
X58868795Y-24189059D01*
X58849200Y-23977600D01*
X58868795Y-23766141D01*
X58926911Y-23561883D01*
X59021570Y-23371782D01*
X59149549Y-23202311D01*
X59306488Y-23059242D01*
X59487044Y-22947446D01*
X59685069Y-22870731D01*
X59893818Y-22831709D01*
X60106182Y-22831709D01*
X60314931Y-22870731D01*
G37*
M02*
