%TF.GenerationSoftware,KiCad,Pcbnew,8.0.2*%
%TF.CreationDate,2025-01-07T16:45:10-05:00*%
%TF.ProjectId,Transimpedence,5472616e-7369-46d7-9065-64656e63652e,rev?*%
%TF.SameCoordinates,Original*%
%TF.FileFunction,Copper,L1,Top*%
%TF.FilePolarity,Positive*%
%FSLAX46Y46*%
G04 Gerber Fmt 4.6, Leading zero omitted, Abs format (unit mm)*
G04 Created by KiCad (PCBNEW 8.0.2) date 2025-01-07 16:45:10*
%MOMM*%
%LPD*%
G01*
G04 APERTURE LIST*
G04 Aperture macros list*
%AMRoundRect*
0 Rectangle with rounded corners*
0 $1 Rounding radius*
0 $2 $3 $4 $5 $6 $7 $8 $9 X,Y pos of 4 corners*
0 Add a 4 corners polygon primitive as box body*
4,1,4,$2,$3,$4,$5,$6,$7,$8,$9,$2,$3,0*
0 Add four circle primitives for the rounded corners*
1,1,$1+$1,$2,$3*
1,1,$1+$1,$4,$5*
1,1,$1+$1,$6,$7*
1,1,$1+$1,$8,$9*
0 Add four rect primitives between the rounded corners*
20,1,$1+$1,$2,$3,$4,$5,0*
20,1,$1+$1,$4,$5,$6,$7,0*
20,1,$1+$1,$6,$7,$8,$9,0*
20,1,$1+$1,$8,$9,$2,$3,0*%
G04 Aperture macros list end*
%TA.AperFunction,SMDPad,CuDef*%
%ADD10RoundRect,0.100000X-0.100000X0.637500X-0.100000X-0.637500X0.100000X-0.637500X0.100000X0.637500X0*%
%TD*%
%TA.AperFunction,SMDPad,CuDef*%
%ADD11RoundRect,0.250000X-0.337500X-0.475000X0.337500X-0.475000X0.337500X0.475000X-0.337500X0.475000X0*%
%TD*%
%TA.AperFunction,SMDPad,CuDef*%
%ADD12RoundRect,0.150000X-0.150000X0.825000X-0.150000X-0.825000X0.150000X-0.825000X0.150000X0.825000X0*%
%TD*%
%TA.AperFunction,SMDPad,CuDef*%
%ADD13RoundRect,0.250000X-0.475000X0.337500X-0.475000X-0.337500X0.475000X-0.337500X0.475000X0.337500X0*%
%TD*%
%TA.AperFunction,SMDPad,CuDef*%
%ADD14RoundRect,0.250000X-0.450000X0.350000X-0.450000X-0.350000X0.450000X-0.350000X0.450000X0.350000X0*%
%TD*%
%TA.AperFunction,SMDPad,CuDef*%
%ADD15C,1.000000*%
%TD*%
%TA.AperFunction,SMDPad,CuDef*%
%ADD16RoundRect,0.250000X0.475000X-0.337500X0.475000X0.337500X-0.475000X0.337500X-0.475000X-0.337500X0*%
%TD*%
%TA.AperFunction,SMDPad,CuDef*%
%ADD17RoundRect,0.075000X0.075000X-0.650000X0.075000X0.650000X-0.075000X0.650000X-0.075000X-0.650000X0*%
%TD*%
%TA.AperFunction,SMDPad,CuDef*%
%ADD18R,1.880000X1.680000*%
%TD*%
%TA.AperFunction,SMDPad,CuDef*%
%ADD19RoundRect,0.250000X-0.350000X-0.450000X0.350000X-0.450000X0.350000X0.450000X-0.350000X0.450000X0*%
%TD*%
%TA.AperFunction,SMDPad,CuDef*%
%ADD20RoundRect,0.250000X0.450000X-0.350000X0.450000X0.350000X-0.450000X0.350000X-0.450000X-0.350000X0*%
%TD*%
%TA.AperFunction,SMDPad,CuDef*%
%ADD21R,2.400000X0.740000*%
%TD*%
%TA.AperFunction,ComponentPad*%
%ADD22O,1.200000X1.200000*%
%TD*%
%TA.AperFunction,ComponentPad*%
%ADD23C,1.200000*%
%TD*%
%TA.AperFunction,ViaPad*%
%ADD24C,0.685800*%
%TD*%
%TA.AperFunction,Conductor*%
%ADD25C,0.254000*%
%TD*%
%TA.AperFunction,Conductor*%
%ADD26C,0.500000*%
%TD*%
%TA.AperFunction,Conductor*%
%ADD27C,0.406400*%
%TD*%
%TA.AperFunction,Conductor*%
%ADD28C,0.457200*%
%TD*%
%TA.AperFunction,Conductor*%
%ADD29C,0.304800*%
%TD*%
%TA.AperFunction,Conductor*%
%ADD30C,0.203200*%
%TD*%
G04 APERTURE END LIST*
D10*
%TO.P,U3,1,SCKL*%
%TO.N,SCKL*%
X51259448Y-36053788D03*
%TO.P,U3,2,CLK*%
%TO.N,unconnected-(U3-CLK-Pad2)*%
X50609448Y-36053788D03*
%TO.P,U3,3,~{CS}*%
%TO.N,CS*%
X49959448Y-36053788D03*
%TO.P,U3,4,IOUT1*%
%TO.N,IOUT1*%
X49309448Y-36053788D03*
%TO.P,U3,5,AIN1+*%
%TO.N,Net-(U3-AIN1+)*%
X48659448Y-36053788D03*
%TO.P,U3,6,AIN1-*%
%TO.N,1.65V*%
X48009448Y-36053788D03*
%TO.P,U3,7,AIN2+*%
%TO.N,unconnected-(U3-AIN2+-Pad7)*%
X47359448Y-36053788D03*
%TO.P,U3,8,AIN2-*%
%TO.N,unconnected-(U3-AIN2--Pad8)*%
X46709448Y-36053788D03*
%TO.P,U3,9,AIN3+/REFIN+*%
%TO.N,3.3V*%
X46709448Y-41778788D03*
%TO.P,U3,10,AIN3-/REFIN-*%
%TO.N,GND*%
X47359448Y-41778788D03*
%TO.P,U3,11,IOUT2*%
%TO.N,IOUT2*%
X48009448Y-41778788D03*
%TO.P,U3,12,GND*%
%TO.N,GND*%
X48659448Y-41778788D03*
%TO.P,U3,13,AVDD*%
%TO.N,3.3V*%
X49309448Y-41778788D03*
%TO.P,U3,14,DVDD*%
X49959448Y-41778788D03*
%TO.P,U3,15,DOUT/~{RDY}*%
%TO.N,MISO*%
X50609448Y-41778788D03*
%TO.P,U3,16,DIN*%
%TO.N,MOSI*%
X51259448Y-41778788D03*
%TD*%
D11*
%TO.P,C2,1*%
%TO.N,5V*%
X30724448Y-37592000D03*
%TO.P,C2,2*%
%TO.N,GND*%
X32799448Y-37592000D03*
%TD*%
D12*
%TO.P,U1,1*%
%TO.N,1.65V*%
X50505000Y-23975000D03*
%TO.P,U1,2,-*%
X49235000Y-23975000D03*
%TO.P,U1,3,+*%
%TO.N,Net-(U1A-+)*%
X47965000Y-23975000D03*
%TO.P,U1,4,V-*%
%TO.N,GND*%
X46695000Y-23975000D03*
%TO.P,U1,5,+*%
%TO.N,1.65V*%
X46695000Y-28925000D03*
%TO.P,U1,6,-*%
%TO.N,Net-(U1B--)*%
X47965000Y-28925000D03*
%TO.P,U1,7*%
%TO.N,Net-(U3-AIN1+)*%
X49235000Y-28925000D03*
%TO.P,U1,8,V+*%
%TO.N,3.3V*%
X50505000Y-28925000D03*
%TD*%
D13*
%TO.P,C4,1*%
%TO.N,3.3V*%
X28321000Y-31449100D03*
%TO.P,C4,2*%
%TO.N,GND*%
X28321000Y-33524100D03*
%TD*%
D14*
%TO.P,R2,1*%
%TO.N,Net-(U1A-+)*%
X44193988Y-23625000D03*
%TO.P,R2,2*%
%TO.N,GND*%
X44193988Y-25625000D03*
%TD*%
D13*
%TO.P,C6,1*%
%TO.N,3.3V*%
X50742133Y-44174500D03*
%TO.P,C6,2*%
%TO.N,GND*%
X50742133Y-46249500D03*
%TD*%
D15*
%TO.P,TP1,1,1*%
%TO.N,Net-(U1A-+)*%
X40005000Y-23622000D03*
%TD*%
%TO.P,TP3,1,1*%
%TO.N,3.3V*%
X37134800Y-36068000D03*
%TD*%
D11*
%TO.P,C5,1*%
%TO.N,Net-(U1B--)*%
X46712500Y-33630000D03*
%TO.P,C5,2*%
%TO.N,Net-(U3-AIN1+)*%
X48787500Y-33630000D03*
%TD*%
D16*
%TO.P,C1,1*%
%TO.N,3.3V*%
X52780000Y-28831488D03*
%TO.P,C1,2*%
%TO.N,GND*%
X52780000Y-26756488D03*
%TD*%
D17*
%TO.P,U2,1,IN*%
%TO.N,5V*%
X30724448Y-34759735D03*
%TO.P,U2,2,IN*%
X31224448Y-34759735D03*
%TO.P,U2,3,EN/UV*%
X31724448Y-34759735D03*
%TO.P,U2,4,PG*%
%TO.N,unconnected-(U2-PG-Pad4)*%
X32224448Y-34759735D03*
%TO.P,U2,5,ILIM*%
%TO.N,GND*%
X32724448Y-34759735D03*
%TO.P,U2,6,PGFB*%
%TO.N,Net-(U2-PGFB)*%
X32724448Y-30459735D03*
%TO.P,U2,7,SET*%
%TO.N,Net-(U2-SET)*%
X32224448Y-30459735D03*
%TO.P,U2,8,GND*%
%TO.N,GND*%
X31724448Y-30459735D03*
%TO.P,U2,9,OUTS*%
%TO.N,3.3V*%
X31224448Y-30459735D03*
%TO.P,U2,10,OUT*%
X30724448Y-30459735D03*
D18*
%TO.P,U2,11,GND*%
%TO.N,GND*%
X31724448Y-32609735D03*
%TD*%
D14*
%TO.P,R3,1*%
%TO.N,GND*%
X30020000Y-25640000D03*
%TO.P,R3,2*%
%TO.N,Net-(U2-SET)*%
X30020000Y-27640000D03*
%TD*%
D13*
%TO.P,C7,1*%
%TO.N,3.3V*%
X52970267Y-44174500D03*
%TO.P,C7,2*%
%TO.N,GND*%
X52970267Y-46249500D03*
%TD*%
D15*
%TO.P,TP2,1,1*%
%TO.N,1.65V*%
X43434000Y-37719000D03*
%TD*%
D19*
%TO.P,R6,1*%
%TO.N,Net-(U1B--)*%
X46750000Y-31430000D03*
%TO.P,R6,2*%
%TO.N,Net-(U3-AIN1+)*%
X48750000Y-31430000D03*
%TD*%
D13*
%TO.P,C9,1*%
%TO.N,3.3V*%
X46285867Y-44174500D03*
%TO.P,C9,2*%
%TO.N,GND*%
X46285867Y-46249500D03*
%TD*%
D20*
%TO.P,R1,1*%
%TO.N,3.3V*%
X42050000Y-25625000D03*
%TO.P,R1,2*%
%TO.N,Net-(U1A-+)*%
X42050000Y-23625000D03*
%TD*%
%TO.P,R4,1*%
%TO.N,3.3V*%
X37117750Y-32325235D03*
%TO.P,R4,2*%
%TO.N,Net-(U2-PGFB)*%
X37117750Y-30325235D03*
%TD*%
D15*
%TO.P,TP4,1,1*%
%TO.N,Net-(U3-AIN1+)*%
X50927000Y-31440000D03*
%TD*%
D13*
%TO.P,C8,1*%
%TO.N,3.3V*%
X48514000Y-44174500D03*
%TO.P,C8,2*%
%TO.N,GND*%
X48514000Y-46249500D03*
%TD*%
D16*
%TO.P,C3,1*%
%TO.N,Net-(U2-SET)*%
X32224448Y-27707500D03*
%TO.P,C3,2*%
%TO.N,GND*%
X32224448Y-25632500D03*
%TD*%
D21*
%TO.P,J1,1,Pin_1*%
%TO.N,SCKL*%
X54692000Y-36322000D03*
%TO.P,J1,2,Pin_2*%
%TO.N,GND*%
X58592000Y-36322000D03*
%TO.P,J1,3,Pin_3*%
%TO.N,CS*%
X54692000Y-37592000D03*
%TO.P,J1,4,Pin_4*%
%TO.N,GND*%
X58592000Y-37592000D03*
%TO.P,J1,5,Pin_5*%
%TO.N,MISO*%
X54692000Y-38862000D03*
%TO.P,J1,6,Pin_6*%
%TO.N,GND*%
X58592000Y-38862000D03*
%TO.P,J1,7,Pin_7*%
%TO.N,MOSI*%
X54692000Y-40132000D03*
%TO.P,J1,8,Pin_8*%
%TO.N,GND*%
X58592000Y-40132000D03*
%TO.P,J1,9,Pin_9*%
X54692000Y-41402000D03*
%TO.P,J1,10,Pin_10*%
%TO.N,5V*%
X58592000Y-41402000D03*
%TD*%
D14*
%TO.P,R5,1*%
%TO.N,Net-(U2-PGFB)*%
X35013750Y-30329735D03*
%TO.P,R5,2*%
%TO.N,GND*%
X35013750Y-32329735D03*
%TD*%
D22*
%TO.P,LD1,1*%
%TO.N,GND*%
X40640000Y-35001200D03*
D23*
%TO.P,LD1,2*%
%TO.N,Net-(U1B--)*%
X43180000Y-35001200D03*
D22*
%TO.P,LD1,3*%
%TO.N,1.65V*%
X41910000Y-36271200D03*
%TD*%
D24*
%TO.N,GND*%
X54356000Y-26756488D03*
X46990000Y-38862000D03*
X50038000Y-38862000D03*
X26339800Y-33528000D03*
X48514000Y-38862000D03*
X31719448Y-32565276D03*
%TO.N,3.3V*%
X30125000Y-31450000D03*
X54356000Y-28829000D03*
X26390600Y-31445200D03*
X44069000Y-44170600D03*
X37134800Y-34163000D03*
X42050000Y-27275000D03*
X30940125Y-28956000D03*
X54965600Y-44145200D03*
%TD*%
D25*
%TO.N,5V*%
X31224448Y-34759735D02*
X31224448Y-35975552D01*
D26*
X58592000Y-41402000D02*
X57912000Y-41402000D01*
D25*
X31724448Y-34759735D02*
X31724448Y-35975552D01*
D27*
X30748900Y-35975552D02*
X30724448Y-36000004D01*
D28*
X30724448Y-45227848D02*
X33985200Y-48488600D01*
X33985200Y-48488600D02*
X55372000Y-48488600D01*
X56896000Y-46964600D02*
X56896000Y-42672000D01*
X30724448Y-37592000D02*
X30724448Y-45227848D01*
D27*
X30724448Y-36000004D02*
X30724448Y-37249735D01*
X31724448Y-35975552D02*
X31224448Y-35975552D01*
D28*
X30683200Y-37290983D02*
X30724448Y-37249735D01*
X56896000Y-42672000D02*
X58166000Y-41402000D01*
D27*
X31224448Y-35975552D02*
X30748900Y-35975552D01*
D28*
X55372000Y-48488600D02*
X56896000Y-46964600D01*
X58166000Y-41402000D02*
X58592000Y-41402000D01*
D25*
X30724448Y-34759735D02*
X30724448Y-36000004D01*
D29*
%TO.N,Net-(U1B--)*%
X46712500Y-31467500D02*
X46750000Y-31430000D01*
X47965000Y-28925000D02*
X47965000Y-29759000D01*
X46712500Y-33630000D02*
X46712500Y-31467500D01*
X46712500Y-33630000D02*
X44551200Y-33630000D01*
X47965000Y-29759000D02*
X46750000Y-30974000D01*
X44551200Y-33630000D02*
X43180000Y-35001200D01*
X46750000Y-30974000D02*
X46750000Y-31430000D01*
D25*
%TO.N,SCKL*%
X51308000Y-36830000D02*
X51259448Y-36781448D01*
X53340000Y-36322000D02*
X54692000Y-36322000D01*
X51259448Y-36053788D02*
X51259448Y-36781448D01*
X51259448Y-36781448D02*
X51562000Y-37084000D01*
X51562000Y-37084000D02*
X52578000Y-37084000D01*
X52578000Y-37084000D02*
X53340000Y-36322000D01*
D29*
%TO.N,Net-(U3-AIN1+)*%
X50927000Y-31440000D02*
X48760000Y-31440000D01*
X48787500Y-33630000D02*
X48787500Y-31467500D01*
X49235000Y-28925000D02*
X49235000Y-30013000D01*
X48760000Y-31440000D02*
X48750000Y-31430000D01*
X49235000Y-30013000D02*
X48750000Y-30498000D01*
X48787500Y-31467500D02*
X48750000Y-31430000D01*
X48659448Y-36053788D02*
X48659448Y-35160552D01*
X48659448Y-35160552D02*
X48787500Y-35032500D01*
X48787500Y-35032500D02*
X48787500Y-33630000D01*
X48750000Y-30498000D02*
X48750000Y-31430000D01*
D27*
X48750000Y-33592500D02*
X48787500Y-33630000D01*
%TO.N,Net-(U2-SET)*%
X32156948Y-27640000D02*
X32224448Y-27707500D01*
X30020000Y-27640000D02*
X32156948Y-27640000D01*
D29*
X32224448Y-28287500D02*
X32224448Y-30459735D01*
%TO.N,Net-(U2-PGFB)*%
X34883750Y-30459735D02*
X35013750Y-30329735D01*
X37117750Y-30325235D02*
X35018250Y-30325235D01*
X35018250Y-30325235D02*
X35013750Y-30329735D01*
X32724448Y-30459735D02*
X34883750Y-30459735D01*
D27*
%TO.N,Net-(U1A-+)*%
X47965000Y-23454000D02*
X47965000Y-23975000D01*
X47965000Y-23975000D02*
X47965000Y-23550816D01*
D25*
X40005000Y-23622000D02*
X42047000Y-23622000D01*
X47430945Y-22606000D02*
X44662410Y-22606000D01*
X42050000Y-23625000D02*
X44193988Y-23625000D01*
X42047000Y-23622000D02*
X42050000Y-23625000D01*
D27*
X44193988Y-23616012D02*
X44193988Y-23625000D01*
X44196000Y-23620143D02*
G75*
G02*
X44193973Y-23624985I-6900J43D01*
G01*
D25*
X44662410Y-22606000D02*
G75*
G03*
X44194000Y-23074422I-10J-468400D01*
G01*
X47965007Y-23140071D02*
G75*
G03*
X47430945Y-22605993I-534107J-29D01*
G01*
%TO.N,MOSI*%
X51259448Y-41778788D02*
X51259448Y-40942552D01*
X52070000Y-40132000D02*
X54692000Y-40132000D01*
X51259448Y-40942552D02*
X52070000Y-40132000D01*
%TO.N,MISO*%
X50609448Y-40830552D02*
X52578000Y-38862000D01*
X52578000Y-38862000D02*
X54692000Y-38862000D01*
X50609448Y-41778788D02*
X50609448Y-40830552D01*
D28*
%TO.N,GND*%
X31724448Y-32570276D02*
X31719448Y-32565276D01*
D29*
X47359448Y-41778788D02*
X47359448Y-40603048D01*
X47359448Y-40603048D02*
X47345600Y-40589200D01*
D25*
X32799448Y-36867000D02*
X32724448Y-36792000D01*
X32799448Y-37592000D02*
X32799448Y-36867000D01*
D30*
X31719448Y-32565276D02*
X31724448Y-32560276D01*
D29*
X48659448Y-40601288D02*
X48674448Y-40586288D01*
X28321000Y-33524100D02*
X26343700Y-33524100D01*
X31724448Y-30459735D02*
X31724448Y-32609735D01*
X48659448Y-41778788D02*
X48659448Y-40601288D01*
D25*
X32724448Y-36792000D02*
X32724448Y-34759735D01*
D29*
X26343700Y-33524100D02*
X26339800Y-33528000D01*
D28*
X31724448Y-32609735D02*
X31724448Y-32570276D01*
D25*
%TO.N,CS*%
X50760161Y-37592000D02*
X49959448Y-36791287D01*
X49959448Y-36791287D02*
X49959448Y-36053788D01*
X54692000Y-37592000D02*
X50760161Y-37592000D01*
D27*
%TO.N,3.3V*%
X49309448Y-43379052D02*
X48514000Y-44174500D01*
D25*
X31224448Y-30459735D02*
X31224448Y-31245267D01*
X31224448Y-30459735D02*
X31224448Y-29240323D01*
X31089645Y-31450000D02*
X30775000Y-31450000D01*
D27*
X49959448Y-43391815D02*
X50742133Y-44174500D01*
X49959448Y-41778788D02*
X49959448Y-43391815D01*
X52970267Y-44174500D02*
X54936300Y-44174500D01*
X46709448Y-41778788D02*
X46709448Y-42800152D01*
X54353512Y-28831488D02*
X54356000Y-28829000D01*
X46709448Y-42800152D02*
X46285867Y-43223733D01*
X46285867Y-43223733D02*
X46285867Y-44174500D01*
D25*
X30775000Y-31450000D02*
X30125000Y-31450000D01*
D27*
X54936300Y-44174500D02*
X54965600Y-44145200D01*
D29*
X37117750Y-34145950D02*
X37134800Y-34163000D01*
D27*
X46285867Y-44174500D02*
X44072900Y-44174500D01*
D29*
X28321000Y-31449100D02*
X30124100Y-31449100D01*
D25*
X30724448Y-30459735D02*
X30724448Y-29171677D01*
D27*
X52780000Y-28831488D02*
X54353512Y-28831488D01*
X48514000Y-44174500D02*
X46285867Y-44174500D01*
D29*
X28321000Y-31449100D02*
X26394500Y-31449100D01*
X37134800Y-34163000D02*
X37134800Y-36068000D01*
D27*
X50598512Y-28831488D02*
X50505000Y-28925000D01*
X44072900Y-44174500D02*
X44069000Y-44170600D01*
D29*
X26394500Y-31449100D02*
X26390600Y-31445200D01*
D27*
X50742133Y-44174500D02*
X52970267Y-44174500D01*
X37129302Y-32336787D02*
X37117750Y-32325235D01*
D25*
X30724448Y-29171677D02*
X30940125Y-28956000D01*
X31224448Y-29240323D02*
X30940125Y-28956000D01*
X30724448Y-30459735D02*
X30724448Y-31327957D01*
D27*
X52780000Y-28831488D02*
X50598512Y-28831488D01*
D29*
X30124100Y-31449100D02*
X30125000Y-31450000D01*
X37117750Y-32325235D02*
X37117750Y-34145950D01*
D27*
X49309448Y-41778788D02*
X49309448Y-43379052D01*
X42050000Y-25625000D02*
X42050000Y-27275000D01*
D25*
X31224448Y-31245267D02*
G75*
G02*
X31150010Y-31425010I-254148J-33D01*
G01*
X31150000Y-31425000D02*
G75*
G02*
X31089645Y-31450018I-60400J60400D01*
G01*
X30724448Y-31327957D02*
G75*
G03*
X30774987Y-31450013I172552J-43D01*
G01*
%TO.N,1.65V*%
X50165000Y-25527000D02*
X48432000Y-25527000D01*
X46695000Y-27264000D02*
X41910000Y-32049000D01*
X49235000Y-24724000D02*
X49235000Y-23975000D01*
D29*
X43357800Y-37719000D02*
X47650400Y-37719000D01*
D25*
X50505000Y-23975000D02*
X50505000Y-25187000D01*
X46695000Y-28925000D02*
X46695000Y-27264000D01*
D27*
X46742500Y-28972500D02*
X46695000Y-28925000D01*
D29*
X48009448Y-36053788D02*
X48009448Y-37359952D01*
D25*
X46695000Y-27264000D02*
X48219000Y-25740000D01*
X48432000Y-25527000D02*
X48219000Y-25740000D01*
X48219000Y-25740000D02*
X49235000Y-24724000D01*
X41910000Y-32049000D02*
X41910000Y-36271200D01*
D29*
X41910000Y-36271200D02*
X43357800Y-37719000D01*
X47650400Y-37719000D02*
X48009448Y-37359952D01*
D25*
X50505000Y-25187000D02*
X50165000Y-25527000D01*
%TD*%
%TA.AperFunction,Conductor*%
%TO.N,GND*%
G36*
X63398188Y-20419685D02*
G01*
X63443943Y-20472489D01*
X63455147Y-20523574D01*
X63479816Y-27714240D01*
X63554297Y-49425575D01*
X63534843Y-49492681D01*
X63482196Y-49538617D01*
X63430298Y-49550000D01*
X20678299Y-49550000D01*
X20611260Y-49530315D01*
X20565505Y-49477511D01*
X20554300Y-49426425D01*
X20546191Y-47062790D01*
X20542214Y-45903388D01*
X22772500Y-45903388D01*
X22772500Y-46096611D01*
X22802725Y-46287441D01*
X22862429Y-46471194D01*
X22950147Y-46643349D01*
X23063715Y-46799663D01*
X23200336Y-46936284D01*
X23356650Y-47049852D01*
X23528805Y-47137570D01*
X23620681Y-47167422D01*
X23712560Y-47197275D01*
X23800943Y-47211273D01*
X23903389Y-47227500D01*
X23903394Y-47227500D01*
X24096611Y-47227500D01*
X24189123Y-47212846D01*
X24287440Y-47197275D01*
X24471197Y-47137569D01*
X24643350Y-47049852D01*
X24799663Y-46936285D01*
X24936285Y-46799663D01*
X25049852Y-46643350D01*
X25137569Y-46471197D01*
X25197275Y-46287440D01*
X25212846Y-46189123D01*
X25227500Y-46096611D01*
X25227500Y-45903388D01*
X25204678Y-45759302D01*
X25197275Y-45712560D01*
X25151998Y-45573212D01*
X25137570Y-45528805D01*
X25049852Y-45356650D01*
X25020334Y-45316021D01*
X24936285Y-45200337D01*
X24799663Y-45063715D01*
X24659889Y-44962164D01*
X24643349Y-44950147D01*
X24471194Y-44862429D01*
X24287441Y-44802725D01*
X24096611Y-44772500D01*
X24096606Y-44772500D01*
X23903394Y-44772500D01*
X23903389Y-44772500D01*
X23712558Y-44802725D01*
X23528805Y-44862429D01*
X23356650Y-44950147D01*
X23200336Y-45063715D01*
X23063715Y-45200336D01*
X22950147Y-45356650D01*
X22862429Y-45528805D01*
X22802725Y-45712558D01*
X22772500Y-45903388D01*
X20542214Y-45903388D01*
X20520088Y-39453666D01*
X20511901Y-37066983D01*
X29636448Y-37066983D01*
X29636448Y-38117001D01*
X29636449Y-38117019D01*
X29646948Y-38219796D01*
X29646949Y-38219799D01*
X29672728Y-38297593D01*
X29702134Y-38386334D01*
X29794236Y-38535656D01*
X29918292Y-38659712D01*
X29936443Y-38670907D01*
X29983168Y-38722853D01*
X29995348Y-38776446D01*
X29995348Y-45299662D01*
X30023365Y-45440511D01*
X30023367Y-45440519D01*
X30078326Y-45573203D01*
X30078331Y-45573212D01*
X30158118Y-45692621D01*
X30158121Y-45692625D01*
X33418871Y-48953374D01*
X33520423Y-49054926D01*
X33520427Y-49054930D01*
X33639835Y-49134716D01*
X33639841Y-49134719D01*
X33639842Y-49134720D01*
X33772529Y-49189681D01*
X33913385Y-49217699D01*
X33913388Y-49217700D01*
X33913390Y-49217700D01*
X55443812Y-49217700D01*
X55443813Y-49217699D01*
X55584671Y-49189681D01*
X55717358Y-49134720D01*
X55836774Y-49054929D01*
X57462329Y-47429375D01*
X57542120Y-47309958D01*
X57576275Y-47227500D01*
X57597081Y-47177271D01*
X57625100Y-47036410D01*
X57625100Y-45903388D01*
X58772500Y-45903388D01*
X58772500Y-46096611D01*
X58802725Y-46287441D01*
X58862429Y-46471194D01*
X58950147Y-46643349D01*
X59063715Y-46799663D01*
X59200336Y-46936284D01*
X59356650Y-47049852D01*
X59528805Y-47137570D01*
X59620681Y-47167422D01*
X59712560Y-47197275D01*
X59800943Y-47211273D01*
X59903389Y-47227500D01*
X59903394Y-47227500D01*
X60096611Y-47227500D01*
X60189123Y-47212846D01*
X60287440Y-47197275D01*
X60471197Y-47137569D01*
X60643350Y-47049852D01*
X60799663Y-46936285D01*
X60936285Y-46799663D01*
X61049852Y-46643350D01*
X61137569Y-46471197D01*
X61197275Y-46287440D01*
X61212846Y-46189123D01*
X61227500Y-46096611D01*
X61227500Y-45903388D01*
X61204678Y-45759302D01*
X61197275Y-45712560D01*
X61151998Y-45573212D01*
X61137570Y-45528805D01*
X61049852Y-45356650D01*
X61020334Y-45316021D01*
X60936285Y-45200337D01*
X60799663Y-45063715D01*
X60659889Y-44962164D01*
X60643349Y-44950147D01*
X60471194Y-44862429D01*
X60287441Y-44802725D01*
X60096611Y-44772500D01*
X60096606Y-44772500D01*
X59903394Y-44772500D01*
X59903389Y-44772500D01*
X59712558Y-44802725D01*
X59528805Y-44862429D01*
X59356650Y-44950147D01*
X59200336Y-45063715D01*
X59063715Y-45200336D01*
X58950147Y-45356650D01*
X58862429Y-45528805D01*
X58802725Y-45712558D01*
X58772500Y-45903388D01*
X57625100Y-45903388D01*
X57625100Y-43025364D01*
X57644785Y-42958325D01*
X57661415Y-42937687D01*
X58290284Y-42308817D01*
X58351607Y-42275333D01*
X58377965Y-42272499D01*
X59839871Y-42272499D01*
X59839872Y-42272499D01*
X59899483Y-42266091D01*
X60034331Y-42215796D01*
X60149546Y-42129546D01*
X60235796Y-42014331D01*
X60286091Y-41879483D01*
X60292500Y-41819873D01*
X60292499Y-40984128D01*
X60286091Y-40924517D01*
X60243235Y-40809616D01*
X60238252Y-40739927D01*
X60243236Y-40722951D01*
X60285597Y-40609376D01*
X60285598Y-40609372D01*
X60291999Y-40549844D01*
X60292000Y-40549827D01*
X60292000Y-40382000D01*
X58466000Y-40382000D01*
X58398961Y-40362315D01*
X58353206Y-40309511D01*
X58342000Y-40258000D01*
X58342000Y-39882000D01*
X58842000Y-39882000D01*
X60292000Y-39882000D01*
X60292000Y-39714172D01*
X60291999Y-39714155D01*
X60285598Y-39654627D01*
X60285597Y-39654623D01*
X60242969Y-39540334D01*
X60237985Y-39470643D01*
X60242969Y-39453666D01*
X60285597Y-39339376D01*
X60285598Y-39339372D01*
X60291999Y-39279844D01*
X60292000Y-39279827D01*
X60292000Y-39112000D01*
X58842000Y-39112000D01*
X58842000Y-39882000D01*
X58342000Y-39882000D01*
X58342000Y-39112000D01*
X56892000Y-39112000D01*
X56892000Y-39279844D01*
X56898401Y-39339372D01*
X56898403Y-39339380D01*
X56941029Y-39453667D01*
X56946013Y-39523359D01*
X56941029Y-39540333D01*
X56898403Y-39654619D01*
X56898401Y-39654627D01*
X56892000Y-39714155D01*
X56892000Y-40015644D01*
X56872315Y-40082683D01*
X56819511Y-40128438D01*
X56750353Y-40138382D01*
X56743827Y-40137265D01*
X56704788Y-40129500D01*
X56579212Y-40129500D01*
X56540688Y-40137162D01*
X56471096Y-40130933D01*
X56415920Y-40088069D01*
X56392677Y-40022178D01*
X56392499Y-40015544D01*
X56392499Y-39714129D01*
X56392498Y-39714123D01*
X56386091Y-39654516D01*
X56356603Y-39575456D01*
X56343502Y-39540332D01*
X56338519Y-39470642D01*
X56343503Y-39453667D01*
X56386091Y-39339483D01*
X56392500Y-39279873D01*
X56392499Y-38444128D01*
X56386103Y-38384627D01*
X56386091Y-38384516D01*
X56353668Y-38297587D01*
X56343502Y-38270332D01*
X56338519Y-38200642D01*
X56343503Y-38183667D01*
X56386091Y-38069483D01*
X56392500Y-38009873D01*
X56392499Y-37708453D01*
X56412183Y-37641416D01*
X56464987Y-37595661D01*
X56534146Y-37585717D01*
X56540690Y-37586838D01*
X56561437Y-37590964D01*
X56579209Y-37594499D01*
X56579211Y-37594500D01*
X56579212Y-37594500D01*
X56704788Y-37594500D01*
X56743810Y-37586738D01*
X56813399Y-37592964D01*
X56868577Y-37635827D01*
X56891822Y-37701716D01*
X56892000Y-37708355D01*
X56892000Y-38009844D01*
X56898401Y-38069372D01*
X56898403Y-38069380D01*
X56941029Y-38183667D01*
X56946013Y-38253359D01*
X56941029Y-38270333D01*
X56898403Y-38384619D01*
X56898401Y-38384627D01*
X56892000Y-38444155D01*
X56892000Y-38612000D01*
X58342000Y-38612000D01*
X58842000Y-38612000D01*
X60292000Y-38612000D01*
X60292000Y-38444172D01*
X60291999Y-38444155D01*
X60285598Y-38384627D01*
X60285597Y-38384623D01*
X60242969Y-38270334D01*
X60237985Y-38200643D01*
X60242969Y-38183666D01*
X60285597Y-38069376D01*
X60285598Y-38069372D01*
X60291999Y-38009844D01*
X60292000Y-38009827D01*
X60292000Y-37842000D01*
X58842000Y-37842000D01*
X58842000Y-38612000D01*
X58342000Y-38612000D01*
X58342000Y-37342000D01*
X58842000Y-37342000D01*
X60292000Y-37342000D01*
X60292000Y-37174172D01*
X60291999Y-37174155D01*
X60285598Y-37114627D01*
X60285597Y-37114623D01*
X60242969Y-37000334D01*
X60237985Y-36930643D01*
X60242969Y-36913666D01*
X60285597Y-36799376D01*
X60285598Y-36799372D01*
X60291999Y-36739844D01*
X60292000Y-36739827D01*
X60292000Y-36572000D01*
X58842000Y-36572000D01*
X58842000Y-37342000D01*
X58342000Y-37342000D01*
X58342000Y-36072000D01*
X58842000Y-36072000D01*
X60292000Y-36072000D01*
X60292000Y-35904172D01*
X60291999Y-35904155D01*
X60285598Y-35844627D01*
X60285596Y-35844620D01*
X60235354Y-35709913D01*
X60235350Y-35709906D01*
X60149190Y-35594812D01*
X60149187Y-35594809D01*
X60034093Y-35508649D01*
X60034086Y-35508645D01*
X59899379Y-35458403D01*
X59899372Y-35458401D01*
X59839844Y-35452000D01*
X58842000Y-35452000D01*
X58842000Y-36072000D01*
X58342000Y-36072000D01*
X58342000Y-35452000D01*
X57344155Y-35452000D01*
X57284627Y-35458401D01*
X57284620Y-35458403D01*
X57149913Y-35508645D01*
X57149906Y-35508649D01*
X57034812Y-35594809D01*
X57034809Y-35594812D01*
X56948649Y-35709906D01*
X56948645Y-35709913D01*
X56898403Y-35844620D01*
X56898401Y-35844627D01*
X56892000Y-35904155D01*
X56892000Y-36205644D01*
X56872315Y-36272683D01*
X56819511Y-36318438D01*
X56750353Y-36328382D01*
X56743827Y-36327265D01*
X56704788Y-36319500D01*
X56579212Y-36319500D01*
X56540688Y-36327162D01*
X56471096Y-36320933D01*
X56415920Y-36278069D01*
X56392677Y-36212178D01*
X56392499Y-36205544D01*
X56392499Y-35904129D01*
X56392498Y-35904123D01*
X56390646Y-35886895D01*
X56386091Y-35844517D01*
X56376579Y-35819015D01*
X56335797Y-35709671D01*
X56335793Y-35709664D01*
X56249547Y-35594455D01*
X56249544Y-35594452D01*
X56134335Y-35508206D01*
X56134328Y-35508202D01*
X55999482Y-35457908D01*
X55999483Y-35457908D01*
X55939883Y-35451501D01*
X55939881Y-35451500D01*
X55939873Y-35451500D01*
X55939864Y-35451500D01*
X53444129Y-35451500D01*
X53444123Y-35451501D01*
X53384516Y-35457908D01*
X53249671Y-35508202D01*
X53249664Y-35508206D01*
X53134456Y-35594452D01*
X53134455Y-35594453D01*
X53134454Y-35594454D01*
X53067964Y-35683273D01*
X53048202Y-35709672D01*
X53036059Y-35742229D01*
X52994187Y-35798162D01*
X52988771Y-35801995D01*
X52963300Y-35819015D01*
X52939988Y-35834591D01*
X52939986Y-35834593D01*
X52354400Y-36420181D01*
X52293077Y-36453666D01*
X52266719Y-36456500D01*
X52083948Y-36456500D01*
X52016909Y-36436815D01*
X51971154Y-36384011D01*
X51959948Y-36332500D01*
X51959947Y-35376924D01*
X51944494Y-35259534D01*
X51944492Y-35259527D01*
X51944492Y-35259526D01*
X51883984Y-35113447D01*
X51787730Y-34988006D01*
X51662289Y-34891752D01*
X51549417Y-34844999D01*
X51516210Y-34831244D01*
X51516208Y-34831243D01*
X51398809Y-34815788D01*
X51120084Y-34815788D01*
X51002694Y-34831241D01*
X51002682Y-34831245D01*
X50981898Y-34839854D01*
X50912429Y-34847321D01*
X50886998Y-34839854D01*
X50866213Y-34831245D01*
X50866208Y-34831243D01*
X50748809Y-34815788D01*
X50470084Y-34815788D01*
X50352694Y-34831241D01*
X50352682Y-34831245D01*
X50331898Y-34839854D01*
X50262429Y-34847321D01*
X50236998Y-34839854D01*
X50216213Y-34831245D01*
X50216208Y-34831243D01*
X50098809Y-34815788D01*
X49820084Y-34815788D01*
X49785511Y-34820340D01*
X49716476Y-34809573D01*
X49664221Y-34763192D01*
X49645337Y-34695923D01*
X49665819Y-34629123D01*
X49681643Y-34609724D01*
X49717712Y-34573656D01*
X49809814Y-34424334D01*
X49864999Y-34257797D01*
X49875500Y-34155009D01*
X49875499Y-33104992D01*
X49864999Y-33002203D01*
X49809814Y-32835666D01*
X49717712Y-32686344D01*
X49624049Y-32592681D01*
X49590564Y-32531358D01*
X49595548Y-32461666D01*
X49624049Y-32417319D01*
X49658022Y-32383346D01*
X49692712Y-32348656D01*
X49784814Y-32199334D01*
X49791919Y-32177894D01*
X49831692Y-32120450D01*
X49896209Y-32093628D01*
X49909624Y-32092900D01*
X50109884Y-32092900D01*
X50176923Y-32112585D01*
X50205736Y-32138234D01*
X50216118Y-32150885D01*
X50368460Y-32275909D01*
X50368467Y-32275913D01*
X50542266Y-32368811D01*
X50542269Y-32368811D01*
X50542273Y-32368814D01*
X50730868Y-32426024D01*
X50927000Y-32445341D01*
X51123132Y-32426024D01*
X51311727Y-32368814D01*
X51485538Y-32275910D01*
X51637883Y-32150883D01*
X51762910Y-31998538D01*
X51812893Y-31905027D01*
X51855811Y-31824733D01*
X51855811Y-31824732D01*
X51855814Y-31824727D01*
X51913024Y-31636132D01*
X51932341Y-31440000D01*
X51913024Y-31243868D01*
X51855814Y-31055273D01*
X51855811Y-31055269D01*
X51855811Y-31055266D01*
X51762913Y-30881467D01*
X51762909Y-30881460D01*
X51637883Y-30729116D01*
X51485539Y-30604090D01*
X51485532Y-30604086D01*
X51311728Y-30511186D01*
X51127632Y-30455340D01*
X51069194Y-30417043D01*
X51040737Y-30353230D01*
X51051298Y-30284163D01*
X51075944Y-30249001D01*
X51173081Y-30151865D01*
X51256744Y-30010398D01*
X51302240Y-29853802D01*
X51302597Y-29852573D01*
X51302598Y-29852567D01*
X51305499Y-29815701D01*
X51305500Y-29815694D01*
X51305500Y-29659188D01*
X51325185Y-29592149D01*
X51377989Y-29546394D01*
X51429500Y-29535188D01*
X51579886Y-29535188D01*
X51646925Y-29554873D01*
X51685425Y-29594092D01*
X51712286Y-29637642D01*
X51712288Y-29637644D01*
X51836344Y-29761700D01*
X51985666Y-29853802D01*
X52152203Y-29908987D01*
X52254991Y-29919488D01*
X53305008Y-29919487D01*
X53305016Y-29919486D01*
X53305019Y-29919486D01*
X53361302Y-29913736D01*
X53407797Y-29908987D01*
X53574334Y-29853802D01*
X53723656Y-29761700D01*
X53847712Y-29637644D01*
X53847714Y-29637640D01*
X53852195Y-29631975D01*
X53854382Y-29633705D01*
X53896799Y-29595549D01*
X53965760Y-29584321D01*
X54000834Y-29594087D01*
X54093933Y-29635538D01*
X54093936Y-29635538D01*
X54093939Y-29635540D01*
X54267355Y-29672400D01*
X54444645Y-29672400D01*
X54618061Y-29635540D01*
X54618064Y-29635538D01*
X54618066Y-29635538D01*
X54650869Y-29620932D01*
X54780023Y-29563429D01*
X54923454Y-29459221D01*
X55042084Y-29327469D01*
X55130729Y-29173931D01*
X55185514Y-29005319D01*
X55204046Y-28829000D01*
X55185514Y-28652681D01*
X55130729Y-28484069D01*
X55130728Y-28484068D01*
X55130728Y-28484066D01*
X55130727Y-28484065D01*
X55061598Y-28364331D01*
X55042084Y-28330531D01*
X54988677Y-28271217D01*
X54923456Y-28198780D01*
X54846399Y-28142796D01*
X54780023Y-28094571D01*
X54780021Y-28094570D01*
X54780022Y-28094570D01*
X54618066Y-28022461D01*
X54618058Y-28022459D01*
X54444645Y-27985600D01*
X54267355Y-27985600D01*
X54093941Y-28022459D01*
X54093937Y-28022460D01*
X53998118Y-28065122D01*
X53928868Y-28074406D01*
X53865592Y-28044778D01*
X53850417Y-28028753D01*
X53847711Y-28025331D01*
X53723657Y-27901277D01*
X53723656Y-27901276D01*
X53720342Y-27899231D01*
X53718546Y-27897236D01*
X53717989Y-27896795D01*
X53718064Y-27896699D01*
X53673618Y-27847285D01*
X53662397Y-27778322D01*
X53690240Y-27714240D01*
X53720348Y-27688153D01*
X53723342Y-27686306D01*
X53847315Y-27562333D01*
X53939356Y-27413112D01*
X53939358Y-27413107D01*
X53994505Y-27246685D01*
X53994506Y-27246678D01*
X54004999Y-27143974D01*
X54005000Y-27143961D01*
X54005000Y-27006488D01*
X51555001Y-27006488D01*
X51555001Y-27143974D01*
X51565494Y-27246685D01*
X51620641Y-27413107D01*
X51620643Y-27413112D01*
X51712684Y-27562333D01*
X51836655Y-27686304D01*
X51836659Y-27686307D01*
X51839656Y-27688156D01*
X51841279Y-27689960D01*
X51842323Y-27690786D01*
X51842181Y-27690964D01*
X51886381Y-27740104D01*
X51897602Y-27809067D01*
X51869759Y-27873149D01*
X51839661Y-27899229D01*
X51836349Y-27901271D01*
X51836343Y-27901276D01*
X51712287Y-28025332D01*
X51685425Y-28068884D01*
X51633477Y-28115609D01*
X51579886Y-28127788D01*
X51427482Y-28127788D01*
X51360443Y-28108103D01*
X51314688Y-28055299D01*
X51303864Y-28013517D01*
X51302598Y-27997432D01*
X51302597Y-27997426D01*
X51256745Y-27839606D01*
X51256744Y-27839603D01*
X51256744Y-27839602D01*
X51173081Y-27698135D01*
X51173079Y-27698133D01*
X51173076Y-27698129D01*
X51056870Y-27581923D01*
X51056862Y-27581917D01*
X50915396Y-27498255D01*
X50915393Y-27498254D01*
X50757573Y-27452402D01*
X50757567Y-27452401D01*
X50720701Y-27449500D01*
X50720694Y-27449500D01*
X50289306Y-27449500D01*
X50289298Y-27449500D01*
X50252432Y-27452401D01*
X50252426Y-27452402D01*
X50094606Y-27498254D01*
X50094603Y-27498255D01*
X49953137Y-27581917D01*
X49946969Y-27586702D01*
X49945072Y-27584256D01*
X49896358Y-27610857D01*
X49826666Y-27605873D01*
X49794296Y-27585069D01*
X49793031Y-27586702D01*
X49786862Y-27581917D01*
X49645396Y-27498255D01*
X49645393Y-27498254D01*
X49487573Y-27452402D01*
X49487567Y-27452401D01*
X49450701Y-27449500D01*
X49450694Y-27449500D01*
X49019306Y-27449500D01*
X49019298Y-27449500D01*
X48982432Y-27452401D01*
X48982426Y-27452402D01*
X48824606Y-27498254D01*
X48824603Y-27498255D01*
X48683137Y-27581917D01*
X48676969Y-27586702D01*
X48675072Y-27584256D01*
X48626358Y-27610857D01*
X48556666Y-27605873D01*
X48524296Y-27585069D01*
X48523031Y-27586702D01*
X48516862Y-27581917D01*
X48375396Y-27498255D01*
X48375393Y-27498254D01*
X48217573Y-27452402D01*
X48217567Y-27452401D01*
X48180701Y-27449500D01*
X48180694Y-27449500D01*
X47749306Y-27449500D01*
X47749298Y-27449500D01*
X47706114Y-27452899D01*
X47705988Y-27451298D01*
X47644414Y-27444807D01*
X47589921Y-27401078D01*
X47567719Y-27334830D01*
X47584859Y-27267095D01*
X47603946Y-27242472D01*
X48477418Y-26369001D01*
X51555000Y-26369001D01*
X51555000Y-26506488D01*
X52530000Y-26506488D01*
X53030000Y-26506488D01*
X54004999Y-26506488D01*
X54004999Y-26369016D01*
X54004998Y-26369001D01*
X53994505Y-26266290D01*
X53939358Y-26099868D01*
X53939356Y-26099863D01*
X53847315Y-25950642D01*
X53723345Y-25826672D01*
X53574124Y-25734631D01*
X53574119Y-25734629D01*
X53407697Y-25679482D01*
X53407690Y-25679481D01*
X53304986Y-25668988D01*
X53030000Y-25668988D01*
X53030000Y-26506488D01*
X52530000Y-26506488D01*
X52530000Y-25668988D01*
X52255029Y-25668988D01*
X52255012Y-25668989D01*
X52152302Y-25679482D01*
X51985880Y-25734629D01*
X51985875Y-25734631D01*
X51836654Y-25826672D01*
X51712684Y-25950642D01*
X51620643Y-26099863D01*
X51620641Y-26099868D01*
X51565494Y-26266290D01*
X51565493Y-26266297D01*
X51555000Y-26369001D01*
X48477418Y-26369001D01*
X48655600Y-26190819D01*
X48716923Y-26157334D01*
X48743281Y-26154500D01*
X50226804Y-26154500D01*
X50226805Y-26154499D01*
X50348035Y-26130386D01*
X50428784Y-26096937D01*
X50462233Y-26083083D01*
X50565008Y-26014411D01*
X50652411Y-25927008D01*
X50992411Y-25587008D01*
X51012485Y-25556965D01*
X51061083Y-25484233D01*
X51082735Y-25431961D01*
X51095251Y-25401745D01*
X51108384Y-25370038D01*
X51108386Y-25370034D01*
X51126740Y-25277756D01*
X51159124Y-25215849D01*
X51160625Y-25214320D01*
X51173081Y-25201865D01*
X51256744Y-25060398D01*
X51302598Y-24902569D01*
X51305500Y-24865694D01*
X51305500Y-23880988D01*
X58772500Y-23880988D01*
X58772500Y-24074211D01*
X58802725Y-24265041D01*
X58862429Y-24448794D01*
X58950147Y-24620949D01*
X59063715Y-24777263D01*
X59200336Y-24913884D01*
X59356650Y-25027452D01*
X59528805Y-25115170D01*
X59596943Y-25137309D01*
X59712560Y-25174875D01*
X59800943Y-25188873D01*
X59903389Y-25205100D01*
X59903394Y-25205100D01*
X60096611Y-25205100D01*
X60189123Y-25190446D01*
X60287440Y-25174875D01*
X60471197Y-25115169D01*
X60643350Y-25027452D01*
X60799663Y-24913885D01*
X60936285Y-24777263D01*
X61049852Y-24620950D01*
X61137569Y-24448797D01*
X61197275Y-24265040D01*
X61219012Y-24127797D01*
X61227500Y-24074211D01*
X61227500Y-23880988D01*
X61202793Y-23725000D01*
X61197275Y-23690160D01*
X61137569Y-23506403D01*
X61049852Y-23334250D01*
X60936285Y-23177937D01*
X60799663Y-23041315D01*
X60675540Y-22951135D01*
X60643349Y-22927747D01*
X60471194Y-22840029D01*
X60287441Y-22780325D01*
X60096611Y-22750100D01*
X60096606Y-22750100D01*
X59903394Y-22750100D01*
X59903389Y-22750100D01*
X59712558Y-22780325D01*
X59528805Y-22840029D01*
X59356650Y-22927747D01*
X59200336Y-23041315D01*
X59063715Y-23177936D01*
X58950147Y-23334250D01*
X58862429Y-23506405D01*
X58802725Y-23690158D01*
X58772500Y-23880988D01*
X51305500Y-23880988D01*
X51305500Y-23084306D01*
X51302598Y-23047431D01*
X51300821Y-23041315D01*
X51256745Y-22889606D01*
X51256744Y-22889603D01*
X51256744Y-22889602D01*
X51173081Y-22748135D01*
X51173079Y-22748133D01*
X51173076Y-22748129D01*
X51056870Y-22631923D01*
X51056862Y-22631917D01*
X50915396Y-22548255D01*
X50915393Y-22548254D01*
X50757573Y-22502402D01*
X50757567Y-22502401D01*
X50720701Y-22499500D01*
X50720694Y-22499500D01*
X50289306Y-22499500D01*
X50289298Y-22499500D01*
X50252432Y-22502401D01*
X50252426Y-22502402D01*
X50094606Y-22548254D01*
X50094603Y-22548255D01*
X49953137Y-22631917D01*
X49946969Y-22636702D01*
X49945072Y-22634256D01*
X49896358Y-22660857D01*
X49826666Y-22655873D01*
X49794296Y-22635069D01*
X49793031Y-22636702D01*
X49786862Y-22631917D01*
X49645396Y-22548255D01*
X49645393Y-22548254D01*
X49487573Y-22502402D01*
X49487567Y-22502401D01*
X49450701Y-22499500D01*
X49450694Y-22499500D01*
X49019306Y-22499500D01*
X49019298Y-22499500D01*
X48982432Y-22502401D01*
X48982426Y-22502402D01*
X48824606Y-22548254D01*
X48824603Y-22548255D01*
X48683137Y-22631917D01*
X48676969Y-22636702D01*
X48675072Y-22634256D01*
X48626358Y-22660857D01*
X48556666Y-22655873D01*
X48524296Y-22635069D01*
X48523031Y-22636702D01*
X48516862Y-22631917D01*
X48487068Y-22614297D01*
X48442802Y-22569565D01*
X48386062Y-22471289D01*
X48386059Y-22471286D01*
X48362679Y-22443422D01*
X48255425Y-22315600D01*
X48255422Y-22315598D01*
X48255422Y-22315597D01*
X48099743Y-22184961D01*
X48079471Y-22173256D01*
X47923737Y-22083334D01*
X47923738Y-22083334D01*
X47923734Y-22083332D01*
X47732764Y-22013814D01*
X47732763Y-22013813D01*
X47732761Y-22013813D01*
X47532616Y-21978508D01*
X47532608Y-21978507D01*
X47497911Y-21978504D01*
X47497801Y-21978500D01*
X47492748Y-21978500D01*
X47430998Y-21978500D01*
X47430972Y-21978499D01*
X47347276Y-21978492D01*
X47347146Y-21978500D01*
X44713797Y-21978500D01*
X44713759Y-21978488D01*
X44566542Y-21978487D01*
X44566539Y-21978487D01*
X44566538Y-21978487D01*
X44566537Y-21978487D01*
X44566529Y-21978487D01*
X44377687Y-22011783D01*
X44377678Y-22011785D01*
X44197486Y-22077370D01*
X44197476Y-22077374D01*
X44031408Y-22173254D01*
X44031401Y-22173258D01*
X43884500Y-22296524D01*
X43761244Y-22443422D01*
X43761241Y-22443426D01*
X43747419Y-22467367D01*
X43696851Y-22515582D01*
X43652634Y-22528724D01*
X43591190Y-22535001D01*
X43591188Y-22535001D01*
X43424656Y-22590185D01*
X43424651Y-22590187D01*
X43275330Y-22682289D01*
X43209675Y-22747945D01*
X43148352Y-22781430D01*
X43078660Y-22776446D01*
X43034313Y-22747945D01*
X42968657Y-22682289D01*
X42968656Y-22682288D01*
X42862254Y-22616659D01*
X42819336Y-22590187D01*
X42819331Y-22590185D01*
X42817862Y-22589698D01*
X42652797Y-22535001D01*
X42652795Y-22535000D01*
X42550010Y-22524500D01*
X41549998Y-22524500D01*
X41549980Y-22524501D01*
X41447203Y-22535000D01*
X41447200Y-22535001D01*
X41280668Y-22590185D01*
X41280663Y-22590187D01*
X41131342Y-22682289D01*
X41007289Y-22806342D01*
X40936548Y-22921032D01*
X40884600Y-22967757D01*
X40815637Y-22978978D01*
X40751555Y-22951135D01*
X40735156Y-22934601D01*
X40724020Y-22921032D01*
X40715883Y-22911117D01*
X40715881Y-22911115D01*
X40715880Y-22911114D01*
X40563539Y-22786090D01*
X40563532Y-22786086D01*
X40389733Y-22693188D01*
X40389727Y-22693186D01*
X40263997Y-22655046D01*
X40201129Y-22635975D01*
X40005000Y-22616659D01*
X39808870Y-22635975D01*
X39620266Y-22693188D01*
X39446467Y-22786086D01*
X39446460Y-22786090D01*
X39294116Y-22911116D01*
X39169090Y-23063460D01*
X39169086Y-23063467D01*
X39076188Y-23237266D01*
X39018975Y-23425870D01*
X38999659Y-23622000D01*
X39018975Y-23818129D01*
X39076188Y-24006733D01*
X39169086Y-24180532D01*
X39169090Y-24180539D01*
X39294116Y-24332883D01*
X39446460Y-24457909D01*
X39446467Y-24457913D01*
X39620266Y-24550811D01*
X39620269Y-24550811D01*
X39620273Y-24550814D01*
X39808868Y-24608024D01*
X40005000Y-24627341D01*
X40201132Y-24608024D01*
X40389727Y-24550814D01*
X40400603Y-24545001D01*
X40563532Y-24457913D01*
X40563538Y-24457910D01*
X40715883Y-24332883D01*
X40733042Y-24311973D01*
X40790786Y-24272640D01*
X40860630Y-24270768D01*
X40920400Y-24306953D01*
X40934432Y-24325537D01*
X40938964Y-24332884D01*
X41007289Y-24443657D01*
X41100951Y-24537319D01*
X41134436Y-24598642D01*
X41129452Y-24668334D01*
X41100951Y-24712681D01*
X41007289Y-24806342D01*
X40915187Y-24955663D01*
X40915185Y-24955668D01*
X40891398Y-25027452D01*
X40860001Y-25122203D01*
X40860001Y-25122204D01*
X40860000Y-25122204D01*
X40849500Y-25224983D01*
X40849500Y-26025001D01*
X40849501Y-26025019D01*
X40860000Y-26127796D01*
X40860001Y-26127799D01*
X40880884Y-26190819D01*
X40915186Y-26294334D01*
X41007288Y-26443656D01*
X41131344Y-26567712D01*
X41280666Y-26659814D01*
X41280667Y-26659814D01*
X41286813Y-26663605D01*
X41285164Y-26666276D01*
X41327064Y-26703079D01*
X41346300Y-26769415D01*
X41346300Y-26773816D01*
X41329687Y-26835816D01*
X41275272Y-26930065D01*
X41275271Y-26930066D01*
X41220487Y-27098677D01*
X41220486Y-27098679D01*
X41201954Y-27275000D01*
X41220486Y-27451320D01*
X41220487Y-27451322D01*
X41275271Y-27619933D01*
X41275272Y-27619934D01*
X41346607Y-27743489D01*
X41363916Y-27773469D01*
X41368286Y-27778322D01*
X41482543Y-27905219D01*
X41482546Y-27905221D01*
X41625977Y-28009429D01*
X41787933Y-28081538D01*
X41787936Y-28081538D01*
X41787939Y-28081540D01*
X41961355Y-28118400D01*
X42138645Y-28118400D01*
X42312061Y-28081540D01*
X42312064Y-28081538D01*
X42312066Y-28081538D01*
X42348936Y-28065122D01*
X42474023Y-28009429D01*
X42617454Y-27905221D01*
X42736084Y-27773469D01*
X42824729Y-27619931D01*
X42879514Y-27451319D01*
X42898046Y-27275000D01*
X42879514Y-27098681D01*
X42824729Y-26930069D01*
X42824728Y-26930068D01*
X42824728Y-26930066D01*
X42824727Y-26930065D01*
X42770313Y-26835816D01*
X42753700Y-26773816D01*
X42753700Y-26769415D01*
X42773385Y-26702376D01*
X42814809Y-26666236D01*
X42813187Y-26663605D01*
X42819332Y-26659814D01*
X42819334Y-26659814D01*
X42968656Y-26567712D01*
X43034669Y-26501698D01*
X43095988Y-26468216D01*
X43165680Y-26473200D01*
X43210028Y-26501701D01*
X43275642Y-26567315D01*
X43424863Y-26659356D01*
X43424868Y-26659358D01*
X43591290Y-26714505D01*
X43591297Y-26714506D01*
X43694007Y-26724999D01*
X43943987Y-26724999D01*
X44443988Y-26724999D01*
X44693960Y-26724999D01*
X44693974Y-26724998D01*
X44796685Y-26714505D01*
X44963107Y-26659358D01*
X44963112Y-26659356D01*
X45112333Y-26567315D01*
X45236303Y-26443345D01*
X45328344Y-26294124D01*
X45328346Y-26294119D01*
X45383493Y-26127697D01*
X45383494Y-26127690D01*
X45393987Y-26024986D01*
X45393988Y-26024973D01*
X45393988Y-25875000D01*
X44443988Y-25875000D01*
X44443988Y-26724999D01*
X43943987Y-26724999D01*
X43943988Y-26724998D01*
X43943988Y-25499000D01*
X43963673Y-25431961D01*
X44016477Y-25386206D01*
X44067988Y-25375000D01*
X45393987Y-25375000D01*
X45393987Y-25225028D01*
X45393986Y-25225013D01*
X45383493Y-25122302D01*
X45328346Y-24955880D01*
X45328344Y-24955875D01*
X45272692Y-24865649D01*
X45895000Y-24865649D01*
X45897899Y-24902489D01*
X45897900Y-24902495D01*
X45943716Y-25060193D01*
X45943717Y-25060196D01*
X46027314Y-25201552D01*
X46027321Y-25201561D01*
X46143438Y-25317678D01*
X46143447Y-25317685D01*
X46284801Y-25401281D01*
X46442514Y-25447100D01*
X46442511Y-25447100D01*
X46444998Y-25447295D01*
X46445000Y-25447295D01*
X46445000Y-24225000D01*
X45895000Y-24225000D01*
X45895000Y-24865649D01*
X45272692Y-24865649D01*
X45236303Y-24806654D01*
X45142683Y-24713034D01*
X45109198Y-24651711D01*
X45114182Y-24582019D01*
X45142679Y-24537676D01*
X45236700Y-24443656D01*
X45328802Y-24294334D01*
X45383987Y-24127797D01*
X45394488Y-24025009D01*
X45394487Y-23357499D01*
X45414171Y-23290461D01*
X45466975Y-23244706D01*
X45518487Y-23233500D01*
X45771000Y-23233500D01*
X45838039Y-23253185D01*
X45883794Y-23305989D01*
X45895000Y-23357500D01*
X45895000Y-23725000D01*
X46821000Y-23725000D01*
X46888039Y-23744685D01*
X46933794Y-23797489D01*
X46945000Y-23849000D01*
X46945000Y-25447295D01*
X46945001Y-25447295D01*
X46947486Y-25447100D01*
X47105198Y-25401281D01*
X47246550Y-25317686D01*
X47252717Y-25312903D01*
X47254630Y-25315369D01*
X47303222Y-25288802D01*
X47372917Y-25293749D01*
X47405762Y-25314853D01*
X47406969Y-25313298D01*
X47413132Y-25318078D01*
X47413135Y-25318081D01*
X47413137Y-25318082D01*
X47489414Y-25363192D01*
X47537097Y-25414261D01*
X47549601Y-25483002D01*
X47522956Y-25547592D01*
X47513974Y-25557605D01*
X46598381Y-26473200D01*
X46294992Y-26776589D01*
X41509992Y-31561589D01*
X41487899Y-31583682D01*
X41422586Y-31648994D01*
X41422585Y-31648996D01*
X41353920Y-31751761D01*
X41353916Y-31751768D01*
X41342789Y-31778633D01*
X41342788Y-31778636D01*
X41306614Y-31865965D01*
X41306612Y-31865971D01*
X41282500Y-31987192D01*
X41282500Y-33889427D01*
X41262815Y-33956466D01*
X41210011Y-34002221D01*
X41140853Y-34012165D01*
X41113707Y-34005054D01*
X40942315Y-33938658D01*
X40942309Y-33938656D01*
X40890001Y-33928877D01*
X40890000Y-33928879D01*
X40890000Y-34756225D01*
X40854905Y-34721130D01*
X40775095Y-34675052D01*
X40686078Y-34651200D01*
X40593922Y-34651200D01*
X40504905Y-34675052D01*
X40425095Y-34721130D01*
X40359930Y-34786295D01*
X40313852Y-34866105D01*
X40290000Y-34955122D01*
X40290000Y-35047278D01*
X40313852Y-35136295D01*
X40359930Y-35216105D01*
X40425095Y-35281270D01*
X40504905Y-35327348D01*
X40593922Y-35351200D01*
X40686078Y-35351200D01*
X40775095Y-35327348D01*
X40854905Y-35281270D01*
X40890000Y-35246175D01*
X40890000Y-35821533D01*
X40879601Y-35865866D01*
X40881491Y-35866598D01*
X40879419Y-35871946D01*
X40823602Y-36068117D01*
X40804785Y-36271199D01*
X40804785Y-36271200D01*
X40823602Y-36474282D01*
X40879417Y-36670447D01*
X40879422Y-36670460D01*
X40970327Y-36853021D01*
X41093237Y-37015781D01*
X41243958Y-37153180D01*
X41243960Y-37153182D01*
X41343141Y-37214592D01*
X41417363Y-37260548D01*
X41607544Y-37334224D01*
X41808024Y-37371700D01*
X41808026Y-37371700D01*
X42011975Y-37371700D01*
X42011976Y-37371700D01*
X42011976Y-37371699D01*
X42017684Y-37371171D01*
X42017812Y-37372556D01*
X42080562Y-37378890D01*
X42121533Y-37406074D01*
X42256099Y-37540639D01*
X42396651Y-37681192D01*
X42430136Y-37742515D01*
X42432373Y-37756718D01*
X42447975Y-37915129D01*
X42447976Y-37915132D01*
X42494764Y-38069372D01*
X42505188Y-38103733D01*
X42598086Y-38277532D01*
X42598090Y-38277539D01*
X42723116Y-38429883D01*
X42875460Y-38554909D01*
X42875467Y-38554913D01*
X43049266Y-38647811D01*
X43049269Y-38647811D01*
X43049273Y-38647814D01*
X43237868Y-38705024D01*
X43434000Y-38724341D01*
X43630132Y-38705024D01*
X43818727Y-38647814D01*
X43992538Y-38554910D01*
X44127493Y-38444155D01*
X44144881Y-38429885D01*
X44155264Y-38417234D01*
X44213010Y-38377900D01*
X44251116Y-38371900D01*
X47714707Y-38371900D01*
X47799565Y-38355019D01*
X47840844Y-38346809D01*
X47959664Y-38297592D01*
X47959669Y-38297588D01*
X47959672Y-38297587D01*
X47969199Y-38291220D01*
X47989677Y-38277538D01*
X48066600Y-38226141D01*
X48516589Y-37776151D01*
X48588041Y-37669215D01*
X48637257Y-37550395D01*
X48662348Y-37424257D01*
X48662348Y-37415787D01*
X48682033Y-37348748D01*
X48734837Y-37302993D01*
X48786348Y-37291787D01*
X48798810Y-37291787D01*
X48820968Y-37288869D01*
X48916210Y-37276332D01*
X48936993Y-37267722D01*
X49006462Y-37260253D01*
X49031901Y-37267722D01*
X49052686Y-37276332D01*
X49170087Y-37291788D01*
X49448808Y-37291787D01*
X49497510Y-37285375D01*
X49566543Y-37296140D01*
X49601375Y-37320633D01*
X50272750Y-37992008D01*
X50350114Y-38069372D01*
X50360154Y-38079412D01*
X50462921Y-38148079D01*
X50462934Y-38148086D01*
X50548836Y-38183667D01*
X50577126Y-38195385D01*
X50577130Y-38195385D01*
X50577131Y-38195386D01*
X50698355Y-38219500D01*
X50698358Y-38219500D01*
X52033718Y-38219500D01*
X52100757Y-38239185D01*
X52146512Y-38291989D01*
X52156456Y-38361147D01*
X52127431Y-38424703D01*
X52121399Y-38431181D01*
X51098915Y-39453666D01*
X50209440Y-40343141D01*
X50170581Y-40382000D01*
X50122035Y-40430545D01*
X50085196Y-40485679D01*
X50031583Y-40530484D01*
X49982095Y-40540788D01*
X49820084Y-40540788D01*
X49702694Y-40556241D01*
X49702682Y-40556245D01*
X49681898Y-40564854D01*
X49612429Y-40572321D01*
X49586998Y-40564854D01*
X49566213Y-40556245D01*
X49566208Y-40556243D01*
X49448809Y-40540788D01*
X49170084Y-40540788D01*
X49052689Y-40556242D01*
X49052687Y-40556243D01*
X49031244Y-40565125D01*
X48961775Y-40572592D01*
X48936343Y-40565125D01*
X48916079Y-40556732D01*
X48859448Y-40549275D01*
X48859448Y-40591787D01*
X48839763Y-40658826D01*
X48810937Y-40690161D01*
X48781167Y-40713004D01*
X48773535Y-40722951D01*
X48757822Y-40743428D01*
X48701396Y-40784629D01*
X48631650Y-40788784D01*
X48570729Y-40754571D01*
X48561078Y-40743434D01*
X48537730Y-40713006D01*
X48537728Y-40713005D01*
X48537728Y-40713004D01*
X48507959Y-40690161D01*
X48466758Y-40633732D01*
X48459448Y-40591787D01*
X48459448Y-40549275D01*
X48402818Y-40556731D01*
X48382551Y-40565126D01*
X48313081Y-40572592D01*
X48287651Y-40565125D01*
X48266210Y-40556244D01*
X48266208Y-40556243D01*
X48148809Y-40540788D01*
X47870084Y-40540788D01*
X47752689Y-40556242D01*
X47752687Y-40556243D01*
X47731244Y-40565125D01*
X47661775Y-40572592D01*
X47636343Y-40565125D01*
X47616079Y-40556732D01*
X47559448Y-40549275D01*
X47559448Y-40591787D01*
X47539763Y-40658826D01*
X47510937Y-40690161D01*
X47481167Y-40713004D01*
X47473535Y-40722951D01*
X47457822Y-40743428D01*
X47401396Y-40784629D01*
X47331650Y-40788784D01*
X47270729Y-40754571D01*
X47261078Y-40743434D01*
X47237730Y-40713006D01*
X47237728Y-40713005D01*
X47237728Y-40713004D01*
X47207959Y-40690161D01*
X47166758Y-40633732D01*
X47159448Y-40591787D01*
X47159448Y-40549275D01*
X47102818Y-40556731D01*
X47082551Y-40565126D01*
X47013081Y-40572592D01*
X46987651Y-40565125D01*
X46966210Y-40556244D01*
X46966208Y-40556243D01*
X46848809Y-40540788D01*
X46570084Y-40540788D01*
X46452694Y-40556241D01*
X46452685Y-40556244D01*
X46306608Y-40616751D01*
X46181166Y-40713006D01*
X46084911Y-40838448D01*
X46024404Y-40984525D01*
X46024403Y-40984527D01*
X46008949Y-41101917D01*
X46008948Y-41101933D01*
X46008948Y-41681179D01*
X46006566Y-41705365D01*
X46005748Y-41709475D01*
X46005748Y-42457307D01*
X45986063Y-42524346D01*
X45969429Y-42544988D01*
X45914232Y-42600185D01*
X45837287Y-42677130D01*
X45837284Y-42677133D01*
X45795290Y-42719127D01*
X45739266Y-42775150D01*
X45739265Y-42775151D01*
X45692451Y-42845215D01*
X45692451Y-42845216D01*
X45677353Y-42867811D01*
X45662256Y-42890405D01*
X45662252Y-42890412D01*
X45609210Y-43018468D01*
X45609209Y-43018472D01*
X45603122Y-43049072D01*
X45570735Y-43110982D01*
X45520513Y-43142582D01*
X45491533Y-43152185D01*
X45342209Y-43244289D01*
X45218154Y-43368344D01*
X45191292Y-43411896D01*
X45139344Y-43458621D01*
X45085753Y-43470800D01*
X44580976Y-43470800D01*
X44513937Y-43451115D01*
X44508091Y-43447118D01*
X44493027Y-43436173D01*
X44493022Y-43436170D01*
X44331066Y-43364061D01*
X44331058Y-43364059D01*
X44157645Y-43327200D01*
X43980355Y-43327200D01*
X43806941Y-43364059D01*
X43806933Y-43364061D01*
X43644978Y-43436170D01*
X43501543Y-43540380D01*
X43382915Y-43672132D01*
X43294272Y-43825665D01*
X43294271Y-43825666D01*
X43239487Y-43994277D01*
X43239486Y-43994279D01*
X43220954Y-44170600D01*
X43239486Y-44346920D01*
X43239487Y-44346922D01*
X43294271Y-44515533D01*
X43294272Y-44515534D01*
X43367450Y-44642282D01*
X43382916Y-44669069D01*
X43430414Y-44721821D01*
X43501543Y-44800819D01*
X43529973Y-44821474D01*
X43644977Y-44905029D01*
X43806933Y-44977138D01*
X43806936Y-44977138D01*
X43806939Y-44977140D01*
X43980355Y-45014000D01*
X44157645Y-45014000D01*
X44331061Y-44977140D01*
X44331064Y-44977138D01*
X44331066Y-44977138D01*
X44391685Y-44950148D01*
X44493023Y-44905029D01*
X44497353Y-44901882D01*
X44563159Y-44878402D01*
X44570240Y-44878200D01*
X45085753Y-44878200D01*
X45152792Y-44897885D01*
X45191292Y-44937104D01*
X45200319Y-44951740D01*
X45218155Y-44980656D01*
X45342211Y-45104712D01*
X45345495Y-45106737D01*
X45345520Y-45106753D01*
X45347312Y-45108746D01*
X45347878Y-45109193D01*
X45347801Y-45109289D01*
X45392246Y-45158699D01*
X45403470Y-45227661D01*
X45375628Y-45291744D01*
X45345532Y-45317826D01*
X45342527Y-45319679D01*
X45342522Y-45319683D01*
X45218551Y-45443654D01*
X45126510Y-45592875D01*
X45126508Y-45592880D01*
X45071361Y-45759302D01*
X45071360Y-45759309D01*
X45060867Y-45862013D01*
X45060867Y-45999500D01*
X54195266Y-45999500D01*
X54195266Y-45862028D01*
X54195265Y-45862013D01*
X54184772Y-45759302D01*
X54129625Y-45592880D01*
X54129623Y-45592875D01*
X54037582Y-45443654D01*
X53913611Y-45319683D01*
X53913608Y-45319681D01*
X53910606Y-45317829D01*
X53908980Y-45316021D01*
X53907944Y-45315202D01*
X53908084Y-45315024D01*
X53863884Y-45265880D01*
X53852664Y-45196917D01*
X53880510Y-45132836D01*
X53910611Y-45106754D01*
X53913923Y-45104712D01*
X54037979Y-44980656D01*
X54064842Y-44937104D01*
X54116790Y-44890379D01*
X54170381Y-44878200D01*
X54512010Y-44878200D01*
X54562446Y-44888921D01*
X54703533Y-44951738D01*
X54703536Y-44951738D01*
X54703539Y-44951740D01*
X54876955Y-44988600D01*
X55054245Y-44988600D01*
X55227661Y-44951740D01*
X55227664Y-44951738D01*
X55227666Y-44951738D01*
X55285821Y-44925845D01*
X55389623Y-44879629D01*
X55533054Y-44775421D01*
X55651684Y-44643669D01*
X55740329Y-44490131D01*
X55795114Y-44321519D01*
X55813646Y-44145200D01*
X55795114Y-43968881D01*
X55740329Y-43800269D01*
X55740328Y-43800268D01*
X55740328Y-43800266D01*
X55740327Y-43800265D01*
X55666349Y-43672132D01*
X55651684Y-43646731D01*
X55598277Y-43587417D01*
X55533056Y-43514980D01*
X55391171Y-43411896D01*
X55389623Y-43410771D01*
X55389621Y-43410770D01*
X55389622Y-43410770D01*
X55227666Y-43338661D01*
X55227658Y-43338659D01*
X55054245Y-43301800D01*
X54876955Y-43301800D01*
X54703541Y-43338659D01*
X54703533Y-43338661D01*
X54541577Y-43410770D01*
X54541572Y-43410773D01*
X54491549Y-43447118D01*
X54425743Y-43470598D01*
X54418664Y-43470800D01*
X54170381Y-43470800D01*
X54103342Y-43451115D01*
X54064842Y-43411896D01*
X54037979Y-43368344D01*
X53913924Y-43244289D01*
X53913923Y-43244288D01*
X53764601Y-43152186D01*
X53598064Y-43097001D01*
X53598062Y-43097000D01*
X53495277Y-43086500D01*
X52445265Y-43086500D01*
X52445247Y-43086501D01*
X52342470Y-43097000D01*
X52342467Y-43097001D01*
X52175935Y-43152185D01*
X52175930Y-43152187D01*
X52026609Y-43244289D01*
X51943881Y-43327018D01*
X51882558Y-43360503D01*
X51812866Y-43355519D01*
X51768519Y-43327018D01*
X51685790Y-43244289D01*
X51685789Y-43244288D01*
X51588401Y-43184219D01*
X51541678Y-43132272D01*
X51530455Y-43063309D01*
X51558299Y-42999227D01*
X51606046Y-42964120D01*
X51662289Y-42940824D01*
X51787730Y-42844570D01*
X51883984Y-42719129D01*
X51944492Y-42573050D01*
X51959948Y-42455649D01*
X51959948Y-41819844D01*
X52992000Y-41819844D01*
X52998401Y-41879372D01*
X52998403Y-41879379D01*
X53048645Y-42014086D01*
X53048649Y-42014093D01*
X53134809Y-42129187D01*
X53134812Y-42129190D01*
X53249906Y-42215350D01*
X53249913Y-42215354D01*
X53384620Y-42265596D01*
X53384627Y-42265598D01*
X53444155Y-42271999D01*
X53444172Y-42272000D01*
X54442000Y-42272000D01*
X54442000Y-41652000D01*
X52992000Y-41652000D01*
X52992000Y-41819844D01*
X51959948Y-41819844D01*
X51959947Y-41180832D01*
X51979632Y-41113794D01*
X51996266Y-41093152D01*
X52293600Y-40795819D01*
X52354923Y-40762334D01*
X52381281Y-40759500D01*
X52881396Y-40759500D01*
X52948435Y-40779185D01*
X52994190Y-40831989D01*
X53004134Y-40901147D01*
X53000076Y-40917043D01*
X53000187Y-40917070D01*
X52998401Y-40924627D01*
X52992000Y-40984155D01*
X52992000Y-41152000D01*
X54818000Y-41152000D01*
X54885039Y-41171685D01*
X54930794Y-41224489D01*
X54942000Y-41276000D01*
X54942000Y-42272000D01*
X55939828Y-42272000D01*
X55939844Y-42271999D01*
X55999372Y-42265598D01*
X55999379Y-42265596D01*
X56058648Y-42243491D01*
X56128339Y-42238507D01*
X56189662Y-42271992D01*
X56223147Y-42333315D01*
X56218163Y-42403007D01*
X56216542Y-42407125D01*
X56194920Y-42459324D01*
X56194917Y-42459336D01*
X56166900Y-42600185D01*
X56166900Y-46611234D01*
X56147215Y-46678273D01*
X56130581Y-46698915D01*
X55106316Y-47723181D01*
X55044993Y-47756666D01*
X55018635Y-47759500D01*
X34338565Y-47759500D01*
X34271526Y-47739815D01*
X34250884Y-47723181D01*
X33164689Y-46636986D01*
X45060868Y-46636986D01*
X45071361Y-46739697D01*
X45126508Y-46906119D01*
X45126510Y-46906124D01*
X45218551Y-47055345D01*
X45342521Y-47179315D01*
X45491742Y-47271356D01*
X45491747Y-47271358D01*
X45658169Y-47326505D01*
X45658176Y-47326506D01*
X45760886Y-47336999D01*
X46035866Y-47336999D01*
X46535867Y-47336999D01*
X46810839Y-47336999D01*
X46810853Y-47336998D01*
X46913564Y-47326505D01*
X47079986Y-47271358D01*
X47079991Y-47271356D01*
X47229209Y-47179317D01*
X47312251Y-47096275D01*
X47373574Y-47062790D01*
X47443266Y-47067774D01*
X47487614Y-47096275D01*
X47570654Y-47179315D01*
X47719875Y-47271356D01*
X47719880Y-47271358D01*
X47886302Y-47326505D01*
X47886309Y-47326506D01*
X47989019Y-47336999D01*
X48263999Y-47336999D01*
X48764000Y-47336999D01*
X49038972Y-47336999D01*
X49038986Y-47336998D01*
X49141697Y-47326505D01*
X49308119Y-47271358D01*
X49308124Y-47271356D01*
X49457342Y-47179317D01*
X49540384Y-47096275D01*
X49601707Y-47062790D01*
X49671399Y-47067774D01*
X49715747Y-47096275D01*
X49798787Y-47179315D01*
X49948008Y-47271356D01*
X49948013Y-47271358D01*
X50114435Y-47326505D01*
X50114442Y-47326506D01*
X50217152Y-47336999D01*
X50492132Y-47336999D01*
X50992133Y-47336999D01*
X51267105Y-47336999D01*
X51267119Y-47336998D01*
X51369830Y-47326505D01*
X51536252Y-47271358D01*
X51536257Y-47271356D01*
X51685478Y-47179315D01*
X51768519Y-47096275D01*
X51829842Y-47062790D01*
X51899534Y-47067774D01*
X51943881Y-47096275D01*
X52026921Y-47179315D01*
X52176142Y-47271356D01*
X52176147Y-47271358D01*
X52342569Y-47326505D01*
X52342576Y-47326506D01*
X52445286Y-47336999D01*
X52720266Y-47336999D01*
X53220267Y-47336999D01*
X53495239Y-47336999D01*
X53495253Y-47336998D01*
X53597964Y-47326505D01*
X53764386Y-47271358D01*
X53764391Y-47271356D01*
X53913612Y-47179315D01*
X54037582Y-47055345D01*
X54129623Y-46906124D01*
X54129625Y-46906119D01*
X54184772Y-46739697D01*
X54184773Y-46739690D01*
X54195266Y-46636986D01*
X54195267Y-46636973D01*
X54195267Y-46499500D01*
X53220267Y-46499500D01*
X53220267Y-47336999D01*
X52720266Y-47336999D01*
X52720267Y-47336998D01*
X52720267Y-46499500D01*
X50992133Y-46499500D01*
X50992133Y-47336999D01*
X50492132Y-47336999D01*
X50492133Y-47336998D01*
X50492133Y-46499500D01*
X48764000Y-46499500D01*
X48764000Y-47336999D01*
X48263999Y-47336999D01*
X48264000Y-47336998D01*
X48264000Y-46499500D01*
X46535867Y-46499500D01*
X46535867Y-47336999D01*
X46035866Y-47336999D01*
X46035867Y-47336998D01*
X46035867Y-46499500D01*
X45060868Y-46499500D01*
X45060868Y-46636986D01*
X33164689Y-46636986D01*
X31489867Y-44962164D01*
X31456382Y-44900841D01*
X31453548Y-44874483D01*
X31453548Y-38776446D01*
X31473233Y-38709407D01*
X31512451Y-38670908D01*
X31530604Y-38659712D01*
X31654660Y-38535656D01*
X31656700Y-38532347D01*
X31658693Y-38530555D01*
X31659141Y-38529989D01*
X31659237Y-38530065D01*
X31708642Y-38485623D01*
X31777604Y-38474395D01*
X31841688Y-38502234D01*
X31867777Y-38532339D01*
X31869629Y-38535341D01*
X31869631Y-38535344D01*
X31993602Y-38659315D01*
X32142823Y-38751356D01*
X32142828Y-38751358D01*
X32309250Y-38806505D01*
X32309257Y-38806506D01*
X32411967Y-38816999D01*
X32549447Y-38816999D01*
X33049448Y-38816999D01*
X33186920Y-38816999D01*
X33186934Y-38816998D01*
X33289645Y-38806505D01*
X33456067Y-38751358D01*
X33456072Y-38751356D01*
X33605293Y-38659315D01*
X33729263Y-38535345D01*
X33821304Y-38386124D01*
X33821306Y-38386119D01*
X33876453Y-38219697D01*
X33876454Y-38219690D01*
X33886947Y-38116986D01*
X33886948Y-38116973D01*
X33886948Y-37842000D01*
X33049448Y-37842000D01*
X33049448Y-38816999D01*
X32549447Y-38816999D01*
X32549448Y-38816998D01*
X32549448Y-37342000D01*
X33049448Y-37342000D01*
X33886947Y-37342000D01*
X33886947Y-37067028D01*
X33886946Y-37067013D01*
X33876453Y-36964302D01*
X33821306Y-36797880D01*
X33821304Y-36797875D01*
X33729263Y-36648654D01*
X33605293Y-36524684D01*
X33456072Y-36432643D01*
X33456067Y-36432641D01*
X33289645Y-36377494D01*
X33289638Y-36377493D01*
X33186934Y-36367000D01*
X33049448Y-36367000D01*
X33049448Y-37342000D01*
X32549448Y-37342000D01*
X32549448Y-36367000D01*
X32509563Y-36367000D01*
X32442524Y-36347315D01*
X32396769Y-36294511D01*
X32386825Y-36225353D01*
X32395000Y-36195551D01*
X32401105Y-36180814D01*
X32421831Y-36076619D01*
X32454216Y-36014708D01*
X32514931Y-35980134D01*
X32559633Y-35977871D01*
X32574447Y-35979821D01*
X32576603Y-35977930D01*
X32594133Y-35918232D01*
X32622960Y-35886896D01*
X32674962Y-35846993D01*
X32740131Y-35821800D01*
X32808576Y-35835838D01*
X32858565Y-35884652D01*
X32874448Y-35945370D01*
X32874448Y-35979821D01*
X32874449Y-35979822D01*
X32949546Y-35969936D01*
X32949551Y-35969935D01*
X33089426Y-35911998D01*
X33209542Y-35819829D01*
X33301711Y-35699713D01*
X33359646Y-35559843D01*
X33359647Y-35559839D01*
X33374447Y-35447432D01*
X33374448Y-35447418D01*
X33374448Y-34909735D01*
X32998948Y-34909735D01*
X32931909Y-34890050D01*
X32886154Y-34837246D01*
X32874948Y-34785735D01*
X32874948Y-34733735D01*
X32894633Y-34666696D01*
X32947437Y-34620941D01*
X32998948Y-34609735D01*
X33374448Y-34609735D01*
X33374448Y-34072051D01*
X33374447Y-34072037D01*
X33359647Y-33959630D01*
X33359646Y-33959626D01*
X33301711Y-33819756D01*
X33209539Y-33699637D01*
X33200907Y-33693013D01*
X33159704Y-33636586D01*
X33155549Y-33566840D01*
X33156477Y-33563748D01*
X33158046Y-33557107D01*
X33164447Y-33497579D01*
X33164448Y-33497562D01*
X33164448Y-32859735D01*
X30284448Y-32859735D01*
X30284448Y-33497579D01*
X30290849Y-33557107D01*
X30292635Y-33564665D01*
X30289553Y-33565393D01*
X30293472Y-33620565D01*
X30259958Y-33681872D01*
X30247813Y-33692518D01*
X30238999Y-33699281D01*
X30146748Y-33819505D01*
X30088761Y-33959498D01*
X30088761Y-33959499D01*
X30073948Y-34072007D01*
X30073948Y-35447462D01*
X30088761Y-35559970D01*
X30090865Y-35567822D01*
X30089731Y-35568125D01*
X30096948Y-35604400D01*
X30096948Y-35651400D01*
X30087509Y-35698852D01*
X30047792Y-35794737D01*
X30047789Y-35794747D01*
X30020747Y-35930693D01*
X30020747Y-36075425D01*
X30020748Y-36075446D01*
X30020748Y-36391886D01*
X30001063Y-36458925D01*
X29961844Y-36497425D01*
X29918292Y-36524287D01*
X29794237Y-36648342D01*
X29702135Y-36797663D01*
X29702133Y-36797668D01*
X29701567Y-36799376D01*
X29646949Y-36964203D01*
X29646949Y-36964204D01*
X29646948Y-36964204D01*
X29636448Y-37066983D01*
X20511901Y-37066983D01*
X20501076Y-33911586D01*
X27096001Y-33911586D01*
X27106494Y-34014297D01*
X27161641Y-34180719D01*
X27161643Y-34180724D01*
X27253684Y-34329945D01*
X27377654Y-34453915D01*
X27526875Y-34545956D01*
X27526880Y-34545958D01*
X27693302Y-34601105D01*
X27693309Y-34601106D01*
X27796019Y-34611599D01*
X28070999Y-34611599D01*
X28571000Y-34611599D01*
X28845972Y-34611599D01*
X28845986Y-34611598D01*
X28948697Y-34601105D01*
X29115119Y-34545958D01*
X29115124Y-34545956D01*
X29264345Y-34453915D01*
X29388315Y-34329945D01*
X29480356Y-34180724D01*
X29480358Y-34180719D01*
X29535505Y-34014297D01*
X29535506Y-34014290D01*
X29545999Y-33911586D01*
X29546000Y-33911573D01*
X29546000Y-33774100D01*
X28571000Y-33774100D01*
X28571000Y-34611599D01*
X28070999Y-34611599D01*
X28071000Y-34611598D01*
X28071000Y-33774100D01*
X27096001Y-33774100D01*
X27096001Y-33911586D01*
X20501076Y-33911586D01*
X20492615Y-31445200D01*
X25542554Y-31445200D01*
X25561086Y-31621520D01*
X25561087Y-31621522D01*
X25615871Y-31790133D01*
X25615872Y-31790134D01*
X25668400Y-31881114D01*
X25704516Y-31943669D01*
X25723732Y-31965010D01*
X25823143Y-32075419D01*
X25830764Y-32080956D01*
X25966577Y-32179629D01*
X26128533Y-32251738D01*
X26128536Y-32251738D01*
X26128539Y-32251740D01*
X26301955Y-32288600D01*
X26479245Y-32288600D01*
X26652661Y-32251740D01*
X26652664Y-32251738D01*
X26652666Y-32251738D01*
X26707222Y-32227447D01*
X26814623Y-32179629D01*
X26836795Y-32163520D01*
X26888876Y-32125682D01*
X26954682Y-32102202D01*
X26961761Y-32102000D01*
X27089552Y-32102000D01*
X27156591Y-32121685D01*
X27195090Y-32160902D01*
X27253288Y-32255256D01*
X27377344Y-32379312D01*
X27380628Y-32381337D01*
X27380653Y-32381353D01*
X27382445Y-32383346D01*
X27383011Y-32383793D01*
X27382934Y-32383889D01*
X27427379Y-32433299D01*
X27438603Y-32502261D01*
X27410761Y-32566344D01*
X27380665Y-32592426D01*
X27377660Y-32594279D01*
X27377655Y-32594283D01*
X27253684Y-32718254D01*
X27161643Y-32867475D01*
X27161641Y-32867480D01*
X27106494Y-33033902D01*
X27106493Y-33033909D01*
X27096000Y-33136613D01*
X27096000Y-33274100D01*
X29545999Y-33274100D01*
X29545999Y-33136628D01*
X29545998Y-33136613D01*
X29535505Y-33033902D01*
X29480358Y-32867480D01*
X29480356Y-32867475D01*
X29395388Y-32729721D01*
X33813751Y-32729721D01*
X33824244Y-32832432D01*
X33879391Y-32998854D01*
X33879393Y-32998859D01*
X33971434Y-33148080D01*
X34095404Y-33272050D01*
X34244625Y-33364091D01*
X34244630Y-33364093D01*
X34411052Y-33419240D01*
X34411059Y-33419241D01*
X34513769Y-33429734D01*
X34763749Y-33429734D01*
X34763750Y-33429733D01*
X34763750Y-32579735D01*
X33813751Y-32579735D01*
X33813751Y-32729721D01*
X29395388Y-32729721D01*
X29388315Y-32718254D01*
X29264344Y-32594283D01*
X29264341Y-32594281D01*
X29261339Y-32592429D01*
X29259713Y-32590621D01*
X29258677Y-32589802D01*
X29258817Y-32589624D01*
X29214617Y-32540480D01*
X29203397Y-32471517D01*
X29231243Y-32407436D01*
X29261344Y-32381354D01*
X29264656Y-32379312D01*
X29388712Y-32255256D01*
X29445295Y-32163518D01*
X29497241Y-32116795D01*
X29566204Y-32105572D01*
X29623718Y-32128298D01*
X29700972Y-32184426D01*
X29700977Y-32184429D01*
X29862933Y-32256538D01*
X29862936Y-32256538D01*
X29862939Y-32256540D01*
X30036355Y-32293400D01*
X30166751Y-32293400D01*
X30233790Y-32313085D01*
X30254432Y-32329719D01*
X30284448Y-32359735D01*
X31474448Y-32359735D01*
X31474448Y-32032049D01*
X31494133Y-31965010D01*
X31534305Y-31925928D01*
X31535466Y-31925226D01*
X31539834Y-31922586D01*
X31539837Y-31922582D01*
X31539865Y-31922561D01*
X31544094Y-31918331D01*
X31544096Y-31918330D01*
X31557377Y-31905046D01*
X31557411Y-31905027D01*
X31593718Y-31868718D01*
X31593719Y-31868719D01*
X31642791Y-31819646D01*
X31642793Y-31819642D01*
X31646318Y-31816118D01*
X31646498Y-31815921D01*
X31647586Y-31814834D01*
X31651311Y-31808670D01*
X31657091Y-31799960D01*
X31724371Y-31707355D01*
X31735764Y-31684991D01*
X31783734Y-31634194D01*
X31851554Y-31617393D01*
X31893704Y-31626719D01*
X31897900Y-31628457D01*
X31952304Y-31672297D01*
X31974369Y-31738591D01*
X31974448Y-31743018D01*
X31974448Y-32359735D01*
X33164448Y-32359735D01*
X33164448Y-31721907D01*
X33164447Y-31721890D01*
X33158046Y-31662362D01*
X33156261Y-31654805D01*
X33159353Y-31654074D01*
X33155408Y-31598973D01*
X33188888Y-31537647D01*
X33201086Y-31526948D01*
X33209899Y-31520186D01*
X33302146Y-31399968D01*
X33360135Y-31259971D01*
X33365338Y-31220448D01*
X33393605Y-31156553D01*
X33451929Y-31118082D01*
X33488277Y-31112635D01*
X33883920Y-31112635D01*
X33950959Y-31132320D01*
X33971601Y-31148954D01*
X34065054Y-31242407D01*
X34098539Y-31303730D01*
X34093555Y-31373422D01*
X34065055Y-31417769D01*
X33971432Y-31511392D01*
X33879393Y-31660610D01*
X33879391Y-31660615D01*
X33824244Y-31827037D01*
X33824243Y-31827044D01*
X33813750Y-31929748D01*
X33813750Y-32079735D01*
X35139750Y-32079735D01*
X35206789Y-32099420D01*
X35252544Y-32152224D01*
X35263750Y-32203735D01*
X35263750Y-33429734D01*
X35513722Y-33429734D01*
X35513736Y-33429733D01*
X35616447Y-33419240D01*
X35782869Y-33364093D01*
X35782874Y-33364091D01*
X35932095Y-33272050D01*
X35979964Y-33224181D01*
X36041287Y-33190695D01*
X36110978Y-33195679D01*
X36155327Y-33224180D01*
X36199094Y-33267947D01*
X36348416Y-33360049D01*
X36379855Y-33370466D01*
X36437299Y-33410238D01*
X36464122Y-33474754D01*
X36464850Y-33488172D01*
X36464850Y-33603360D01*
X36448237Y-33665360D01*
X36360072Y-33818065D01*
X36360071Y-33818066D01*
X36305287Y-33986677D01*
X36305286Y-33986679D01*
X36286754Y-34163000D01*
X36305286Y-34339320D01*
X36305287Y-34339322D01*
X36360071Y-34507933D01*
X36360072Y-34507934D01*
X36425317Y-34620941D01*
X36448716Y-34661469D01*
X36450048Y-34662948D01*
X36450549Y-34663992D01*
X36452534Y-34666724D01*
X36452034Y-34667086D01*
X36480279Y-34725937D01*
X36481900Y-34745922D01*
X36481900Y-35250884D01*
X36462215Y-35317923D01*
X36436566Y-35346736D01*
X36423914Y-35357118D01*
X36298890Y-35509460D01*
X36298886Y-35509467D01*
X36205988Y-35683266D01*
X36148775Y-35871870D01*
X36129459Y-36068000D01*
X36148775Y-36264129D01*
X36148776Y-36264132D01*
X36201412Y-36437650D01*
X36205988Y-36452733D01*
X36298886Y-36626532D01*
X36298890Y-36626539D01*
X36423916Y-36778883D01*
X36576260Y-36903909D01*
X36576267Y-36903913D01*
X36750066Y-36996811D01*
X36750069Y-36996811D01*
X36750073Y-36996814D01*
X36938668Y-37054024D01*
X37134800Y-37073341D01*
X37330932Y-37054024D01*
X37519527Y-36996814D01*
X37524551Y-36994129D01*
X37693332Y-36903913D01*
X37693338Y-36903910D01*
X37845683Y-36778883D01*
X37970710Y-36626538D01*
X38063614Y-36452727D01*
X38120824Y-36264132D01*
X38140141Y-36068000D01*
X38120824Y-35871868D01*
X38063614Y-35683273D01*
X38063611Y-35683269D01*
X38063611Y-35683266D01*
X37970713Y-35509467D01*
X37970709Y-35509460D01*
X37845685Y-35357118D01*
X37833034Y-35346736D01*
X37793700Y-35288990D01*
X37787750Y-35251200D01*
X39567472Y-35251200D01*
X39609885Y-35400265D01*
X39609890Y-35400278D01*
X39700754Y-35582756D01*
X39823608Y-35745442D01*
X39974260Y-35882778D01*
X40147584Y-35990097D01*
X40337678Y-36063739D01*
X40390000Y-36073520D01*
X40390000Y-35251200D01*
X39567472Y-35251200D01*
X37787750Y-35251200D01*
X37787700Y-35250884D01*
X37787700Y-34751199D01*
X39567471Y-34751199D01*
X39567472Y-34751200D01*
X40390000Y-34751200D01*
X40390000Y-33928879D01*
X40389998Y-33928877D01*
X40337690Y-33938656D01*
X40337684Y-33938658D01*
X40147586Y-34012301D01*
X39974260Y-34119621D01*
X39823608Y-34256957D01*
X39700754Y-34419643D01*
X39609890Y-34602121D01*
X39609885Y-34602134D01*
X39567471Y-34751199D01*
X37787700Y-34751199D01*
X37787700Y-34745922D01*
X37807385Y-34678883D01*
X37819546Y-34662953D01*
X37820884Y-34661469D01*
X37909529Y-34507931D01*
X37964314Y-34339319D01*
X37982846Y-34163000D01*
X37964314Y-33986681D01*
X37909529Y-33818069D01*
X37909528Y-33818068D01*
X37909528Y-33818066D01*
X37909527Y-33818065D01*
X37820886Y-33664534D01*
X37820882Y-33664529D01*
X37802499Y-33644112D01*
X37772270Y-33581121D01*
X37770650Y-33561141D01*
X37770650Y-33488172D01*
X37790335Y-33421133D01*
X37843139Y-33375378D01*
X37855639Y-33370468D01*
X37887084Y-33360049D01*
X38036406Y-33267947D01*
X38160462Y-33143891D01*
X38252564Y-32994569D01*
X38307749Y-32828032D01*
X38318250Y-32725244D01*
X38318249Y-31925227D01*
X38317544Y-31918330D01*
X38307749Y-31822438D01*
X38307748Y-31822435D01*
X38297044Y-31790133D01*
X38252564Y-31655901D01*
X38160462Y-31506579D01*
X38066799Y-31412916D01*
X38033314Y-31351593D01*
X38038298Y-31281901D01*
X38066799Y-31237554D01*
X38083904Y-31220449D01*
X38160462Y-31143891D01*
X38252564Y-30994569D01*
X38307749Y-30828032D01*
X38318250Y-30725244D01*
X38318249Y-29925227D01*
X38307749Y-29822438D01*
X38252564Y-29655901D01*
X38160462Y-29506579D01*
X38036406Y-29382523D01*
X37914020Y-29307035D01*
X37887086Y-29290422D01*
X37887081Y-29290420D01*
X37885612Y-29289933D01*
X37720547Y-29235236D01*
X37720545Y-29235235D01*
X37617760Y-29224735D01*
X36617748Y-29224735D01*
X36617730Y-29224736D01*
X36514953Y-29235235D01*
X36514950Y-29235236D01*
X36348418Y-29290420D01*
X36348413Y-29290422D01*
X36199094Y-29382523D01*
X36151179Y-29430437D01*
X36089855Y-29463921D01*
X36020163Y-29458935D01*
X35975818Y-29430435D01*
X35932407Y-29387024D01*
X35932406Y-29387023D01*
X35835850Y-29327467D01*
X35783086Y-29294922D01*
X35783081Y-29294920D01*
X35769501Y-29290420D01*
X35616547Y-29239736D01*
X35616545Y-29239735D01*
X35513760Y-29229235D01*
X34513748Y-29229235D01*
X34513730Y-29229236D01*
X34410953Y-29239735D01*
X34410950Y-29239736D01*
X34244418Y-29294920D01*
X34244413Y-29294922D01*
X34095092Y-29387024D01*
X33971039Y-29511077D01*
X33894270Y-29635540D01*
X33878936Y-29660401D01*
X33866139Y-29699021D01*
X33858577Y-29721840D01*
X33818804Y-29779284D01*
X33754288Y-29806107D01*
X33740871Y-29806835D01*
X33488277Y-29806835D01*
X33421238Y-29787150D01*
X33375483Y-29734346D01*
X33365338Y-29699021D01*
X33361833Y-29672399D01*
X33360135Y-29659499D01*
X33302146Y-29519502D01*
X33209899Y-29399284D01*
X33089681Y-29307037D01*
X33089677Y-29307035D01*
X32953895Y-29250792D01*
X32899492Y-29206951D01*
X32877427Y-29140657D01*
X32877348Y-29136231D01*
X32877348Y-28866221D01*
X32897033Y-28799182D01*
X32949837Y-28753427D01*
X32962336Y-28748517D01*
X33018782Y-28729814D01*
X33168104Y-28637712D01*
X33292160Y-28513656D01*
X33384262Y-28364334D01*
X33439447Y-28197797D01*
X33449948Y-28095009D01*
X33449947Y-27319992D01*
X33439447Y-27217203D01*
X33384262Y-27050666D01*
X33292160Y-26901344D01*
X33168104Y-26777288D01*
X33164790Y-26775243D01*
X33162994Y-26773248D01*
X33162437Y-26772807D01*
X33162512Y-26772711D01*
X33118066Y-26723297D01*
X33106845Y-26654334D01*
X33134688Y-26590252D01*
X33164796Y-26564165D01*
X33167790Y-26562318D01*
X33291763Y-26438345D01*
X33383804Y-26289124D01*
X33383806Y-26289119D01*
X33438953Y-26122697D01*
X33438954Y-26122690D01*
X33449447Y-26019986D01*
X33449448Y-26019973D01*
X33449448Y-25882500D01*
X31239041Y-25882500D01*
X31230496Y-25887166D01*
X31204138Y-25890000D01*
X28820001Y-25890000D01*
X28820001Y-26039986D01*
X28830494Y-26142697D01*
X28885641Y-26309119D01*
X28885643Y-26309124D01*
X28977684Y-26458345D01*
X29071304Y-26551965D01*
X29104789Y-26613288D01*
X29099805Y-26682980D01*
X29071305Y-26727327D01*
X28977287Y-26821345D01*
X28885187Y-26970663D01*
X28885186Y-26970666D01*
X28830001Y-27137203D01*
X28830001Y-27137204D01*
X28830000Y-27137204D01*
X28819500Y-27239983D01*
X28819500Y-28040001D01*
X28819501Y-28040019D01*
X28830000Y-28142796D01*
X28830001Y-28142799D01*
X28848552Y-28198780D01*
X28885186Y-28309334D01*
X28977288Y-28458656D01*
X29101344Y-28582712D01*
X29250666Y-28674814D01*
X29417203Y-28729999D01*
X29519991Y-28740500D01*
X29977013Y-28740499D01*
X30044052Y-28760183D01*
X30089807Y-28812987D01*
X30100334Y-28877460D01*
X30092079Y-28956000D01*
X30102377Y-29053990D01*
X30100675Y-29091135D01*
X30097318Y-29108016D01*
X30097313Y-29108039D01*
X30096948Y-29109870D01*
X30096948Y-29615067D01*
X30089734Y-29651341D01*
X30090865Y-29651644D01*
X30088761Y-29659494D01*
X30073948Y-29772007D01*
X30073948Y-30498196D01*
X30054263Y-30565235D01*
X30001459Y-30610990D01*
X29975729Y-30619486D01*
X29862939Y-30643459D01*
X29862933Y-30643461D01*
X29700977Y-30715570D01*
X29700973Y-30715572D01*
X29624484Y-30771145D01*
X29558678Y-30794624D01*
X29490624Y-30778798D01*
X29446061Y-30735922D01*
X29388712Y-30642944D01*
X29264657Y-30518889D01*
X29264656Y-30518888D01*
X29136942Y-30440114D01*
X29115336Y-30426787D01*
X29115331Y-30426785D01*
X29109120Y-30424727D01*
X28948797Y-30371601D01*
X28948795Y-30371600D01*
X28846010Y-30361100D01*
X27795998Y-30361100D01*
X27795980Y-30361101D01*
X27693203Y-30371600D01*
X27693200Y-30371601D01*
X27526668Y-30426785D01*
X27526663Y-30426787D01*
X27377342Y-30518889D01*
X27253289Y-30642942D01*
X27195091Y-30737297D01*
X27143143Y-30784021D01*
X27089552Y-30796200D01*
X26972496Y-30796200D01*
X26905457Y-30776515D01*
X26899611Y-30772518D01*
X26814627Y-30710773D01*
X26814622Y-30710770D01*
X26652666Y-30638661D01*
X26652658Y-30638659D01*
X26479245Y-30601800D01*
X26301955Y-30601800D01*
X26128541Y-30638659D01*
X26128533Y-30638661D01*
X25966578Y-30710770D01*
X25823143Y-30814980D01*
X25704515Y-30946732D01*
X25615872Y-31100265D01*
X25615871Y-31100266D01*
X25561087Y-31268877D01*
X25561086Y-31268879D01*
X25542554Y-31445200D01*
X20492615Y-31445200D01*
X20471328Y-25240013D01*
X28820000Y-25240013D01*
X28820000Y-25390000D01*
X29770000Y-25390000D01*
X30270000Y-25390000D01*
X30980407Y-25390000D01*
X30988952Y-25385334D01*
X31015310Y-25382500D01*
X31974448Y-25382500D01*
X32474448Y-25382500D01*
X33449447Y-25382500D01*
X33449447Y-25245028D01*
X33449446Y-25245013D01*
X33438953Y-25142302D01*
X33383806Y-24975880D01*
X33383804Y-24975875D01*
X33291763Y-24826654D01*
X33167793Y-24702684D01*
X33018572Y-24610643D01*
X33018567Y-24610641D01*
X32852145Y-24555494D01*
X32852138Y-24555493D01*
X32749434Y-24545000D01*
X32474448Y-24545000D01*
X32474448Y-25382500D01*
X31974448Y-25382500D01*
X31974448Y-24545000D01*
X31699477Y-24545000D01*
X31699460Y-24545001D01*
X31596750Y-24555494D01*
X31430328Y-24610641D01*
X31430323Y-24610643D01*
X31281102Y-24702684D01*
X31199905Y-24783882D01*
X31138582Y-24817367D01*
X31068890Y-24812383D01*
X31024543Y-24783882D01*
X30938345Y-24697684D01*
X30789124Y-24605643D01*
X30789119Y-24605641D01*
X30622697Y-24550494D01*
X30622690Y-24550493D01*
X30519986Y-24540000D01*
X30270000Y-24540000D01*
X30270000Y-25390000D01*
X29770000Y-25390000D01*
X29770000Y-24540000D01*
X29520029Y-24540000D01*
X29520012Y-24540001D01*
X29417302Y-24550494D01*
X29250880Y-24605641D01*
X29250875Y-24605643D01*
X29101654Y-24697684D01*
X28977684Y-24821654D01*
X28885643Y-24970875D01*
X28885641Y-24970880D01*
X28830494Y-25137302D01*
X28830493Y-25137309D01*
X28820000Y-25240013D01*
X20471328Y-25240013D01*
X20466666Y-23880988D01*
X22772500Y-23880988D01*
X22772500Y-24074211D01*
X22802725Y-24265041D01*
X22862429Y-24448794D01*
X22950147Y-24620949D01*
X23063715Y-24777263D01*
X23200336Y-24913884D01*
X23356650Y-25027452D01*
X23528805Y-25115170D01*
X23596943Y-25137309D01*
X23712560Y-25174875D01*
X23800943Y-25188873D01*
X23903389Y-25205100D01*
X23903394Y-25205100D01*
X24096611Y-25205100D01*
X24189123Y-25190446D01*
X24287440Y-25174875D01*
X24471197Y-25115169D01*
X24643350Y-25027452D01*
X24799663Y-24913885D01*
X24936285Y-24777263D01*
X25049852Y-24620950D01*
X25137569Y-24448797D01*
X25197275Y-24265040D01*
X25219012Y-24127797D01*
X25227500Y-24074211D01*
X25227500Y-23880988D01*
X25202793Y-23725000D01*
X25197275Y-23690160D01*
X25137569Y-23506403D01*
X25049852Y-23334250D01*
X24936285Y-23177937D01*
X24799663Y-23041315D01*
X24675540Y-22951135D01*
X24643349Y-22927747D01*
X24471194Y-22840029D01*
X24287441Y-22780325D01*
X24096611Y-22750100D01*
X24096606Y-22750100D01*
X23903394Y-22750100D01*
X23903389Y-22750100D01*
X23712558Y-22780325D01*
X23528805Y-22840029D01*
X23356650Y-22927747D01*
X23200336Y-23041315D01*
X23063715Y-23177936D01*
X22950147Y-23334250D01*
X22862429Y-23506405D01*
X22802725Y-23690158D01*
X22772500Y-23880988D01*
X20466666Y-23880988D01*
X20455151Y-20524425D01*
X20474605Y-20457319D01*
X20527252Y-20411383D01*
X20579150Y-20400000D01*
X63331149Y-20400000D01*
X63398188Y-20419685D01*
G37*
%TD.AperFunction*%
%TD*%
M02*
